<?xml version="1.0" standalone="no"?>
<!DOCTYPE svg PUBLIC "-//W3C//DTD SVG 1.1//EN" "http://www.w3.org/Graphics/SVG/1.1/DTD/svg11.dtd" >
<svg>
<metadata>
Created by FontForge 20120731 at Mon Mar 25 17:22:19 2019
 By www-data
Made with Scanahand. Copyright (c) Darrell Flood 2019. All Rights Reserved.
</metadata>
<defs>
<font id="Juiceitup-Italic" horiz-adv-x="1542" >
  <font-face 
    font-family="Juice it up"
    font-weight="400"
    font-style="italic"
    font-stretch="normal"
    units-per-em="2048"
    panose-1="3 0 6 0 0 0 0 6 0 0"
    ascent="1638"
    descent="-410"
    x-height="1955"
    cap-height="1816"
    bbox="22 -355 2750 2011"
    underline-thickness="150"
    underline-position="-142"
    slope="-12"
    unicode-range="U+001D-2122"
  />
<missing-glyph horiz-adv-x="1904" 
 />
    <glyph glyph-name=".notdef" horiz-adv-x="1904" 
 />
    <glyph glyph-name=".null" horiz-adv-x="0" 
 />
    <glyph glyph-name=".null" horiz-adv-x="0" 
 />
    <glyph glyph-name="nonmarkingreturn" horiz-adv-x="550" 
 />
    <glyph glyph-name="space" unicode=" " horiz-adv-x="820" 
 />
    <glyph glyph-name="space" unicode="&#xa0;" horiz-adv-x="820" 
 />
    <glyph glyph-name="exclam" unicode="!" horiz-adv-x="954" 
d="M1177 1942q134 -29 110 -141l-6 -27q-360 -572 -674 -1261q-60 -70 -127 -70h-42q-122 18 -99 126l6 28q69 326 609 1219q114 126 223 126zM442 331q219 -26 186 -182l-9 -42q-46 -215 -390 -252q-155 0 -171 182l15 70q40 191 369 224z" />
    <glyph glyph-name="quotedbl" unicode="&#x22;" horiz-adv-x="1010" 
d="M1264 1955q57 -24 91 -97l-9 -42q-88 -414 -216 -491l-31 -14h-98q-86 57 -63 168l6 28q135 435 233 435zM546 1871h98q112 0 2 -518q-20 -92 -131 -154h-84q-117 41 -49 365l30 139q24 111 134 168z" />
    <glyph glyph-name="numbersign" unicode="#" horiz-adv-x="1836" 
d="M1066 1816h70q54 -35 63 -99q-80 -309 -108 -378q27 -4 22 -28q308 0 328 98q109 378 165 378q11 29 34 29h84q101 -51 52 -281l-35 -168q-1 -32 256 -112q43 -62 41 -70l-6 -28q-18 -84 -377 -126q-29 -18 -130 -350q225 -86 222 -140l-12 -56q-14 -67 -276 -112
q-37 -46 -46 -84l-11 -56q-81 -378 -179 -378h-84q-114 56 -51 350l20 98q5 20 -33 42q-122 -14 -199 -14h-14q-20 0 -51 -42l-53 -252q-36 -168 -204 -168q-140 0 -57 392q-28 0 -22 28l-73 -14h-168q-77 0 -108 84l15 70q19 88 411 154q32 18 130 350q-28 0 -22 28
q-143 -14 -213 -14h-56q-19 0 -66 84l18 84q18 84 425 154q37 0 199 476zM979 947q-65 -241 -73 -280q27 -4 22 -28q143 14 213 14h28q45 0 141 336l-36 28q-280 0 -295 -70z" />
    <glyph glyph-name="dollar" unicode="$" horiz-adv-x="2228" 
d="M1518 1900h84q51 -26 79 -155q171 29 401 42q157 0 211 -126l-15 -70q-21 -98 -455 -98q-246 -39 -261 -112q-32 -84 -115 -406q12 -28 511 -98q379 -130 332 -350l-6 -28q-71 -335 -1065 -532q-69 -182 -193 -182h-14q-61 0 -144 112q-248 -14 -297 -14
q-261 23 -242 112l9 42q20 95 602 196l19 28l78 364q12 55 -444 84q-379 63 -330 294q46 217 602 462l507 210q73 225 146 225zM706 1045q-5 -24 394 -56q70 0 133 294q-24 14 -39 14q-426 -167 -488 -252zM1387 625l-37 -42l-51 -238l19 -42q481 108 577 210
q10 46 -508 112z" />
    <glyph glyph-name="percent" unicode="%" horiz-adv-x="1584" 
d="M1686 1507q164 -19 139 -140q-25 -117 -374 -308q-899 -718 -1110 -1008q-103 -84 -158 -84h-14q-77 0 -108 84l21 98q221 391 1278 1204q248 152 326 154zM669 1465q294 0 247 -224q-104 -238 -261 -238h-98q-183 59 -157 182l18 84q31 149 251 196zM1239 653h84
q184 -14 165 -210q-40 -188 -299 -224q-248 20 -208 210l3 14q30 139 255 210z" />
    <glyph glyph-name="ampersand" unicode="&#x26;" horiz-adv-x="1906" 
d="M1430 1816q395 -50 337 -323q-51 -243 -242 -350h-84q-19 0 -55 70l6 28l86 210q-5 71 -124 71q-207 0 -448 -197q-57 -70 -89 -154q-35 -164 355 -238h168q151 0 161 -168h168q89 0 98 -392q30 -144 106 -294l-21 -98q-62 -84 -172 -84q-187 0 -242 378h-14
q-30 0 -391 -196q-302 -112 -528 -112q-348 0 -408 252l26 126q43 202 499 434l3 14q-147 169 -105 364l3 14q133 492 764 630q77 15 143 15zM470 331q0 -42 103 -42h14q303 0 690 280q6 28 -22 28h-168q-385 -80 -614 -252z" />
    <glyph glyph-name="quotesingle" unicode="'" horiz-adv-x="394" 
d="M496 1916q36 29 103 29q21 0 46 -3q82 0 28 -393l-3 -14q-30 -142 -142 -210h-28q-144 0 -109 281l54 252q4 19 51 58z" />
    <glyph glyph-name="parenleft" unicode="(" horiz-adv-x="1080" 
d="M1278 1955h84q20 0 66 -84l-12 -55q-19 -88 -258 -225q-549 -476 -641 -910q-60 -279 232 -490q-5 -22 16 -56l-12 -56q-4 -20 -102 -84h-112q-269 0 -356 434q-6 168 18 280q136 643 911 1191q85 55 166 55z" />
    <glyph glyph-name="parenright" unicode=")" horiz-adv-x="1038" 
d="M757 1942q262 0 433 -463q60 -248 8 -490q-145 -682 -956 -1008h-140q-22 0 -44 56q22 104 416 378q341 285 405 588q86 402 -290 742l24 113q67 84 144 84z" />
    <glyph glyph-name="asterisk" unicode="*" horiz-adv-x="1248" 
d="M936 1732h70q89 -41 54 -210q-2 -29 21 -29q212 126 307 126h98q22 0 44 -55l-6 -29q-22 -106 -458 -378l-6 -28q167 -200 165 -210l-20 -98q-34 -56 -110 -56h-14q-39 0 -184 56h-14l-131 -154l-31 -14h-70q-33 6 -93 154q-65 -25 -144 -84h-112q-61 42 -47 112
q24 109 239 266l6 28q-159 242 -136 350l10 43q4 19 101 84h84q142 -183 185 -183q111 309 192 309z" />
    <glyph glyph-name="plus" unicode="+" 
d="M1075 1395h84q89 -38 50 -224q-19 -89 -119 -364q24 -14 39 -14q532 0 508 -112l-9 -42q-127 -168 -596 -168h-28q-52 0 -184 -406q-112 -112 -164 -112q-129 0 -112 196l104 294q-43 42 -187 42h-196q-101 53 -79 154q30 140 380 140h154q82 0 154 266q117 350 201 350z
" />
    <glyph glyph-name="comma" unicode="," horiz-adv-x="688" 
d="M650 583q53 0 94 -84l-15 -70q-123 -294 -551 -616q-52 -28 -90 -28h-14q-61 42 -49 98q85 269 538 686q11 0 87 14z" />
    <glyph glyph-name="hyphen" unicode="-" horiz-adv-x="1430" 
d="M1221 835h56q236 0 260 -98l-12 -56q-86 -140 -722 -168q-630 0 -609 98q-9 24 -2 56l9 42q19 92 304 112q390 14 716 14z" />
    <glyph glyph-name="period" unicode="." horiz-adv-x="660" 
d="M494 639q243 -40 201 -238l-9 -42q-35 -168 -344 -238h-28q-230 40 -188 238l15 70q118 210 311 210h42z" />
    <glyph glyph-name="slash" unicode="/" horiz-adv-x="1402" 
d="M1651 1801q78 -28 72 -56l-12 -55q-26 -122 -341 -421q-149 -146 -1068 -1204l-65 -42h-112q-62 36 -46 112l3 14q34 161 882 1120q509 532 687 532z" />
    <glyph glyph-name="zero" unicode="0" horiz-adv-x="1696" 
d="M1184 1648q126 -42 360 -84q383 -240 306 -603l-32 -154q-94 -439 -820 -826q-236 -84 -382 -84h-70q-374 0 -412 434q13 58 19 154q120 566 806 1092q113 71 225 71zM461 485q-20 -280 179 -280q296 33 653 308q192 217 234 378q70 329 -388 476q-200 -54 -565 -616
q-71 -137 -113 -266z" />
    <glyph glyph-name="one" unicode="1" horiz-adv-x="912" 
d="M957 1829h112q20 0 77 -97l-12 -57q-194 -516 -463 -1456q35 -28 181 -70l30 -56l-21 -98q-26 -122 -708 -168q-100 54 -82 140l6 28q27 126 260 168q19 27 23 42q70 330 269 938l-25 14q-99 -14 -157 -14q-140 0 -118 168q10 38 330 238q148 187 298 280z" />
    <glyph glyph-name="two" unicode="2" horiz-adv-x="1598" 
d="M1407 1774h56q409 -50 334 -407q-88 -411 -876 -1022q-21 0 -54 -56l25 -14q253 42 317 42h238q168 0 145 -112q-35 -163 -1032 -308q-188 -56 -407 -70q-76 0 -116 112l18 84q20 93 472 378q803 606 925 924l15 70q-12 56 -87 56h-28q-289 -7 -698 -322h-84
q-74 49 -57 126q42 201 543 448q222 71 351 71z" />
    <glyph glyph-name="three" unicode="3" horiz-adv-x="1528" 
d="M1588 1703q252 0 216 -168q-37 -177 -492 -406q-324 -207 -331 -238q358 -56 477 -196q95 -144 72 -252l-24 -112q-44 -209 -422 -406q-189 -84 -396 -84q-463 0 -558 336l15 70q4 20 50 42h14q380 -126 548 -126q298 0 439 224l3 14q31 147 -672 196q-127 60 -107 154
l15 70q52 152 605 476l9 42q-496 -56 -656 -56l-52 84l14 70q84 179 1219 266h14z" />
    <glyph glyph-name="four" unicode="4" horiz-adv-x="1948" 
d="M1327 1661q122 -18 99 -126l-2 -13q-25 -116 -390 -449q-306 -318 -312 -350l25 -14q312 18 329 98q59 279 233 308h14q53 0 94 -84l-39 -182l20 -42q254 28 411 28q249 -14 249 -84l-12 -56q-25 -115 -748 -224q-44 -74 -163 -504l-119 -98h-84q-95 79 -79 154l42 196
l49 168l-36 28q-311 -56 -592 -84q-154 0 -160 168l12 56q15 72 508 546q446 466 609 560h42z" />
    <glyph glyph-name="five" unicode="5" 
d="M1593 1661q250 -11 231 -97l-21 -99q-20 -98 -636 -98q-342 -27 -360 -112q-3 -14 -78 -168q371 -42 556 -84q372 -162 308 -462l-9 -42q-76 -357 -614 -518q-76 -14 -143 -14h-70q-278 0 -330 294l24 112q17 77 111 126h14q146 -210 249 -210h70q336 66 373 238
q48 224 -750 224h-126q-177 25 -150 154l3 14q15 69 286 420q42 201 353 280q361 42 709 42z" />
    <glyph glyph-name="six" unicode="6" horiz-adv-x="1290" 
d="M1280 1703q187 -42 160 -168l-12 -56q-44 -126 -152 -126q-13 0 -106 28q-255 -101 -450 -336q-136 -177 -151 -252l8 -28q143 14 213 14q466 0 544 -336l-15 -70q-74 -351 -576 -406h-14q-462 0 -549 448q-20 104 6 224q130 614 827 994q153 70 267 70zM528 471
q47 -182 283 -182q94 0 155 70l3 14q15 70 -354 112h-56z" />
    <glyph glyph-name="seven" unicode="7" horiz-adv-x="1906" 
d="M2097 1661q101 -53 83 -139l-10 -43q-13 -64 -178 -182q-874 -810 -1138 -1204l-82 -56h-112q-85 62 -68 140l3 14q43 204 892 1036q29 5 60 84q-14 0 -11 14q-619 -28 -958 -28q-196 0 -229 112l21 98q91 99 147 99q276 0 1580 55z" />
    <glyph glyph-name="eight" unicode="8" 
d="M1225 1774h140q353 -52 311 -252l-25 -113q-34 -161 -389 -448l-9 -42q351 -392 318 -546l-15 -70q-66 -311 -814 -406h-126q-460 0 -522 308l20 98q62 289 579 616l6 28q-151 276 -123 406q75 355 649 421zM929 1367l-3 -14q-25 -117 115 -182q241 148 263 252
q6 24 -61 42q-187 0 -314 -98zM425 317q29 -98 218 -98h112q416 42 463 140q-214 350 -317 350q-132 -29 -433 -322q-5 -25 -43 -70z" />
    <glyph glyph-name="nine" unicode="9" 
d="M1330 1675h84q37 0 170 -56q238 0 211 -126l-1 -70q-36 -140 -226 -406q-194 -518 -245 -756l-59 -280q-41 -194 -166 -252h-56q-154 0 -82 336l27 126q29 140 103 420l-25 14q-261 -126 -475 -126q-424 47 -348 406q82 386 720 686q196 84 368 84zM561 891
q10 -70 112 -70q263 0 637 364q5 26 61 154q-2 56 -58 56q-328 -51 -643 -322q-90 -96 -109 -182z" />
    <glyph glyph-name="colon" unicode=":" horiz-adv-x="590" 
d="M524 1241h98q171 -51 143 -182l-12 -56q-100 -196 -223 -196h-98q-92 0 -167 140l24 112q26 124 235 182zM435 625q203 -32 171 -182l-9 -42q-37 -177 -271 -224h-56q-144 0 -132 238l9 42q30 142 274 168h14z" />
    <glyph glyph-name="semicolon" unicode=";" horiz-adv-x="744" 
d="M711 1199h84q115 0 121 -154l-18 -84q-35 -164 -296 -210h-14q-206 22 -169 196q90 252 292 252zM616 555h14q77 0 108 -84l-21 -98q-59 -116 -413 -560q-100 -84 -172 -84q-131 0 -101 182q14 65 461 588q71 56 124 56z" />
    <glyph glyph-name="less" unicode="&#x3c;" horiz-adv-x="1052" 
d="M1153 1367h28q112 0 88 -112l-6 -28q-23 -108 -424 -280q-126 -67 -136 -112q420 -201 382 -378l-3 -14q-54 -70 -127 -70q-194 0 -668 280q-79 89 -60 182q41 192 588 392q266 140 338 140z" />
    <glyph glyph-name="equal" unicode="=" horiz-adv-x="1360" 
d="M1198 1185q260 0 320 -140l-9 -42q-29 -135 -1058 -168q-2 -14 -100 -14q-117 44 -97 140q48 224 944 224zM794 667l81 -14h28q546 0 522 -112l-12 -56q-30 -140 -940 -140h-154q-111 0 -147 98l12 56q33 154 509 154q80 0 101 14z" />
    <glyph glyph-name="greater" unicode="&#x3e;" horiz-adv-x="1122" 
d="M478 1353q192 0 742 -392q44 -59 32 -112l-14 -70q-39 -182 -838 -448h-98q-20 0 -33 42l18 84q179 163 427 294q49 34 57 70q-412 228 -472 350l12 56q23 107 167 126z" />
    <glyph glyph-name="question" unicode="?" horiz-adv-x="1766" 
d="M1625 1745q330 0 409 -181q-13 -63 -4 -85q-56 -265 -781 -448q-415 -173 -425 -224q33 -170 31 -182l-9 -42q-51 -70 -127 -70q-285 43 -240 252l17 84q57 268 842 532l19 28l-25 14q-286 0 -902 -294h-56q-20 0 -66 84l15 70q53 250 1005 449q186 13 297 13zM672 359
q240 -60 202 -238q-38 -179 -283 -210q-236 0 -278 140l24 112q35 166 335 196z" />
    <glyph glyph-name="at" unicode="@" horiz-adv-x="2117" 
d="M1939 1969q351 0 421 -392q11 -75 -14 -196q-129 -606 -918 -1022q-229 -56 -292 -56q-324 0 -405 266q-7 97 8 168l3 14q34 161 175 364l-25 14q-361 -382 -420 -658q-49 -229 170 -322q91 -28 162 -28h14q270 0 1262 336h42l30 -56l-9 -42q-427 -364 -858 -476
q-309 -84 -564 -84q-464 0 -574 392q-17 186 -3 252q166 779 1236 1400q299 126 559 126zM1330 1479l-9 -42l143 14h42q245 0 200 -378l-18 -84l-35 -98l25 -14q288 234 354 546q6 225 -218 225q-134 0 -484 -169zM1064 751q-27 -126 155 -126q75 24 85 70q16 75 97 392
l-36 28q-103 0 -298 -350z" />
    <glyph glyph-name="A" unicode="A" horiz-adv-x="1808" 
d="M1249 1885q351 0 238 -1050q-9 -224 37 -224h168q163 0 178 -84q-27 -126 -381 -210l-20 -28q-9 -308 -33 -420q-31 -58 -88 -84h-56q-176 0 -153 462l-26 14q-565 -73 -639 -112q-150 -448 -320 -448h-28q-57 25 -91 98l6 28q25 117 114 336q-50 96 -38 154
q17 80 176 168q321 749 597 1163q215 237 359 237zM652 527l25 -14q471 42 477 70l3 14q43 854 -15 854q-60 0 -481 -882z" />
    <glyph glyph-name="B" unicode="B" horiz-adv-x="1710" 
d="M746 1759q341 0 845 -504q54 -72 43 -126l-18 -84q-30 -144 -417 -252l-20 -28q612 -148 566 -364l-6 -28q-67 -317 -1064 -462q-65 -24 -376 -56q-6 -28 -76 -28h-70q-96 75 -88 112q55 128 58 140q174 1082 212 1260q64 301 282 406zM702 1423l-36 -42l-39 -182
q-69 -322 -27 -322q151 109 569 238l3 14q-33 117 -456 294h-14zM544 611q-3 -14 -17 -14q-16 -140 -31 -210l-44 -210l19 -42q291 70 744 210l20 28q-490 144 -641 210q6 28 -50 28z" />
    <glyph glyph-name="B" unicode="b" horiz-adv-x="1710" 
d="M746 1759q341 0 845 -504q54 -72 43 -126l-18 -84q-30 -144 -417 -252l-20 -28q612 -148 566 -364l-6 -28q-67 -317 -1064 -462q-65 -24 -376 -56q-6 -28 -76 -28h-70q-96 75 -88 112q55 128 58 140q174 1082 212 1260q64 301 282 406zM702 1423l-36 -42l-39 -182
q-69 -322 -27 -322q151 109 569 238l3 14q-33 117 -456 294h-14zM544 611q-3 -14 -17 -14q-16 -140 -31 -210l-44 -210l19 -42q291 70 744 210l20 28q-490 144 -641 210q6 28 -50 28z" />
    <glyph glyph-name="C" unicode="C" horiz-adv-x="1794" 
d="M1446 1955q327 -38 267 -322l-12 -56q-71 -224 -145 -224h-84q-58 3 -70 266h-42q-206 0 -625 -504q-146 -227 -241 -476q-95 -448 339 -448q132 0 929 224h28q42 0 30 -56q-217 -285 -795 -448l-275 -42q-527 0 -599 476q-5 106 14 196l33 154q95 448 656 980
q371 280 592 280z" />
    <glyph glyph-name="C" unicode="c" horiz-adv-x="1794" 
d="M1446 1955q327 -38 267 -322l-12 -56q-71 -224 -145 -224h-84q-58 3 -70 266h-42q-206 0 -625 -504q-146 -227 -241 -476q-95 -448 339 -448q132 0 929 224h28q42 0 30 -56q-217 -285 -795 -448l-275 -42q-527 0 -599 476q-5 106 14 196l33 154q95 448 656 980
q371 280 592 280z" />
    <glyph glyph-name="D" unicode="D" horiz-adv-x="1556" 
d="M707 1774h84q311 0 688 -519q219 -354 148 -686q-89 -419 -632 -602q-173 -42 -390 -56l-246 28q-71 -14 -185 -14l-101 182l3 14q19 70 43 70q15 140 30 210l81 378q196 924 336 924q9 42 141 71zM747 1437q-45 0 -227 -742q-3 -79 -34 -224l-45 -210q-8 -42 48 -42
q501 0 727 196q77 96 92 168q61 289 -324 714z" />
    <glyph glyph-name="D" unicode="d" horiz-adv-x="1556" 
d="M707 1774h84q311 0 688 -519q219 -354 148 -686q-89 -419 -632 -602q-173 -42 -390 -56l-246 28q-71 -14 -185 -14l-101 182l3 14q19 70 43 70q15 140 30 210l81 378q196 924 336 924q9 42 141 71zM747 1437q-45 0 -227 -742q-3 -79 -34 -224l-45 -210q-8 -42 48 -42
q501 0 727 196q77 96 92 168q61 289 -324 714z" />
    <glyph glyph-name="E" unicode="E" horiz-adv-x="1794" 
d="M1381 1913h70q196 0 349 -265l-12 -57q-4 -21 -68 -56h-56q-113 0 -279 71q-99 0 -380 -603l25 -14q230 28 342 28q238 0 208 -140q-38 -136 -733 -224q-115 -213 -189 -560q13 -64 41 -70l818 224q75 14 170 14h14q76 0 87 -56l-3 -14q-335 -283 -832 -420
q-185 -70 -337 -70q-278 0 -290 280q2 76 13 126l3 14q48 225 137 448q-28 0 -22 28l-101 -14h-42q-134 28 -110 140l3 14q33 157 388 182q46 0 210 392q314 602 576 602z" />
    <glyph glyph-name="F" unicode="F" horiz-adv-x="1724" 
d="M1084 1900h182q263 0 622 -168q128 -121 112 -197q-51 -70 -127 -70q-77 0 -729 126h-28q-168 0 -230 -294q-74 -213 -115 -406l25 -14q373 28 398 28q174 0 215 -112l-9 -42q-22 -102 -672 -196l-37 -42l-15 -70q-54 -255 -123 -644q-77 -112 -164 -112h-14
q-168 0 -90 364q10 116 60 350l18 84q7 31 -139 70q-42 64 -29 126q19 92 228 154q20 27 23 42q170 800 410 939q122 84 228 84z" />
    <glyph glyph-name="F" unicode="f" horiz-adv-x="1724" 
d="M1084 1900h182q263 0 622 -168q128 -121 112 -197q-51 -70 -127 -70q-77 0 -729 126h-28q-168 0 -230 -294q-74 -213 -115 -406l25 -14q373 28 398 28q174 0 215 -112l-9 -42q-22 -102 -672 -196l-37 -42l-15 -70q-54 -255 -123 -644q-77 -112 -164 -112h-14
q-168 0 -90 364q10 116 60 350l18 84q7 31 -139 70q-42 64 -29 126q19 92 228 154q20 27 23 42q170 800 410 939q122 84 228 84z" />
    <glyph glyph-name="G" unicode="G" horiz-adv-x="1934" 
d="M1376 1759q472 0 617 -322l-17 -84q-4 -19 -102 -84h-56l-293 140q-68 28 -201 42q-281 0 -585 -252q-160 -225 -187 -350l-8 -42q-86 -404 368 -504q71 -14 137 -14q402 42 476 196q-14 0 -11 14q-183 -28 -258 -28q-122 18 -99 126l15 70q23 111 682 182
q208 -11 181 -140l-9 -42q-112 -64 -299 -812q-86 -112 -164 -112h-70q-84 0 -47 238l9 42q6 28 -22 28q-269 -84 -480 -84q-611 0 -741 532q-26 139 4 280l20 98q113 529 764 826q223 56 376 56z" />
    <glyph glyph-name="G" unicode="g" horiz-adv-x="1934" 
d="M1376 1759q472 0 617 -322l-17 -84q-4 -19 -102 -84h-56l-293 140q-68 28 -201 42q-281 0 -585 -252q-160 -225 -187 -350l-8 -42q-86 -404 368 -504q71 -14 137 -14q402 42 476 196q-14 0 -11 14q-183 -28 -258 -28q-122 18 -99 126l15 70q23 111 682 182
q208 -11 181 -140l-9 -42q-112 -64 -299 -812q-86 -112 -164 -112h-70q-84 0 -47 238l9 42q6 28 -22 28q-269 -84 -480 -84q-611 0 -741 532q-26 139 4 280l20 98q113 529 764 826q223 56 376 56z" />
    <glyph glyph-name="H" unicode="H" horiz-adv-x="1766" 
d="M1931 1801h84q74 -48 54 -140q-100 -338 -313 -882q83 -70 71 -126q-8 -37 -187 -154q-178 -588 -293 -588h-14q-133 0 -100 252q82 255 93 308q-24 14 -39 14q-634 -19 -648 -84l-3 -14q-134 -630 -232 -630h-84q-111 0 -36 420l41 196q4 31 -125 70l-41 70l12 56
q24 115 229 154l20 28q233 981 348 981q11 27 34 27h56q65 0 64 -224l-185 -742q27 -4 22 -28q679 34 686 70q354 897 401 897q4 18 85 69z" />
    <glyph glyph-name="H" unicode="h" horiz-adv-x="1766" 
d="M1931 1801h84q74 -48 54 -140q-100 -338 -313 -882q83 -70 71 -126q-8 -37 -187 -154q-178 -588 -293 -588h-14q-133 0 -100 252q82 255 93 308q-24 14 -39 14q-634 -19 -648 -84l-3 -14q-134 -630 -232 -630h-84q-111 0 -36 420l41 196q4 31 -125 70l-41 70l12 56
q24 115 229 154l20 28q233 981 348 981q11 27 34 27h56q65 0 64 -224l-185 -742q27 -4 22 -28q679 34 686 70q354 897 401 897q4 18 85 69z" />
    <glyph glyph-name="I" unicode="I" horiz-adv-x="1164" 
d="M1290 1816q126 0 183 -126l-21 -99q-15 -73 -346 -112l-37 -42l-6 -28q-56 -268 -368 -1274q162 -62 189 -98l-18 -84q-21 -98 -467 -154h-308q-20 0 -66 84l21 98q101 126 307 126q35 34 40 56q37 178 376 1246l-36 28h-112q-122 19 -99 127l9 42q16 75 254 139
q394 71 505 71z" />
    <glyph glyph-name="J" unicode="J" horiz-adv-x="1364" 
d="M1540 1871q144 -44 121 -154l-182 -854q-177 -834 -419 -1050q-169 -168 -343 -168q-390 0 -567 630q-15 126 3 210l15 70q5 22 68 56h28q62 -57 324 -518q135 -112 186 -112q210 0 472 1232q-2 55 39 252l1 2q4 18 -30 18q-45 0 -157 -32q-200 -58 -346 -58h-56
q-89 45 -71 127l8 42q23 104 698 252q117 55 208 55z" />
    <glyph glyph-name="J" unicode="j" horiz-adv-x="1364" 
d="M1540 1871q144 -44 121 -154l-182 -854q-177 -834 -419 -1050q-169 -168 -343 -168q-390 0 -567 630q-15 126 3 210l15 70q5 22 68 56h28q62 -57 324 -518q135 -112 186 -112q210 0 472 1232q-2 55 39 252l1 2q4 18 -30 18q-45 0 -157 -32q-200 -58 -346 -58h-56
q-89 45 -71 127l8 42q23 104 698 252q117 55 208 55z" />
    <glyph glyph-name="K" unicode="K" horiz-adv-x="1752" 
d="M1924 1703h70q19 0 55 -70l-21 -98q-733 -633 -878 -840q55 -264 377 -728l-21 -98q-4 -19 -85 -70h-70q-220 0 -477 588h-28q-397 -411 -476 -462q-62 -42 -135 -42q-210 0 -132 364q326 1344 467 1344q5 25 76 28q77 0 99 -126q-277 -975 -290 -1036l25 -14
q60 38 324 336q458 474 957 882q117 42 163 42z" />
    <glyph glyph-name="K" unicode="k" horiz-adv-x="1752" 
d="M1924 1703h70q19 0 55 -70l-21 -98q-733 -633 -878 -840q55 -264 377 -728l-21 -98q-4 -19 -85 -70h-70q-220 0 -477 588h-28q-397 -411 -476 -462q-62 -42 -135 -42q-210 0 -132 364q326 1344 467 1344q5 25 76 28q77 0 99 -126q-277 -975 -290 -1036l25 -14
q60 38 324 336q458 474 957 882q117 42 163 42z" />
    <glyph glyph-name="L" unicode="L" horiz-adv-x="1248" 
d="M826 1675q59 -23 80 -84l-18 -84q-18 -87 -472 -1302l-9 -42q27 -4 22 -28q473 112 682 112h84q22 0 44 -56l-6 -28q-255 -225 -553 -294q-266 -56 -334 -56q-330 26 -264 336l3 14q74 348 555 1428q97 84 186 84z" />
    <glyph glyph-name="L" unicode="l" horiz-adv-x="1248" 
d="M826 1675q59 -23 80 -84l-18 -84q-18 -87 -472 -1302l-9 -42q27 -4 22 -28q473 112 682 112h84q22 0 44 -56l-6 -28q-255 -225 -553 -294q-266 -56 -334 -56q-330 26 -264 336l3 14q74 348 555 1428q97 84 186 84z" />
    <glyph glyph-name="M" unicode="M" horiz-adv-x="2075" 
d="M696 1787h70q156 0 233 -420q127 -336 292 -336h14q204 0 647 476q153 207 258 225h42q78 0 120 -99l-3 -14l-241 -868l-30 -140q-61 -285 -68 -588l-12 -56q-59 -140 -171 -140q-238 0 -59 840l59 280l-8 28q-367 -266 -602 -266h-14q-365 0 -529 476l-25 14
q-45 -105 -320 -1176q-86 -196 -196 -196h-56q-54 34 -63 98q392 1666 480 1666q20 93 182 196z" />
    <glyph glyph-name="M" unicode="m" horiz-adv-x="2075" 
d="M696 1787h70q156 0 233 -420q127 -336 292 -336h14q204 0 647 476q153 207 258 225h42q78 0 120 -99l-3 -14l-241 -868l-30 -140q-61 -285 -68 -588l-12 -56q-59 -140 -171 -140q-238 0 -59 840l59 280l-8 28q-367 -266 -602 -266h-14q-365 0 -529 476l-25 14
q-45 -105 -320 -1176q-86 -196 -196 -196h-56q-54 34 -63 98q392 1666 480 1666q20 93 182 196z" />
    <glyph glyph-name="N" unicode="N" horiz-adv-x="1626" 
d="M1837 1690q84 0 63 -168q-185 -669 -215 -813l-137 -644q-68 -252 -222 -252h-70q-312 0 -544 994h-14q-335 -764 -409 -868l-99 -70h-84q-73 49 -54 140q576 1392 583 1428l99 70h126q92 0 207 -672q108 -426 184 -518q28 0 34 28l15 70q247 1162 464 1260z" />
    <glyph glyph-name="N" unicode="n" horiz-adv-x="1626" 
d="M1837 1690q84 0 63 -168q-185 -669 -215 -813l-137 -644q-68 -252 -222 -252h-70q-312 0 -544 994h-14q-335 -764 -409 -868l-99 -70h-84q-73 49 -54 140q576 1392 583 1428l99 70h126q92 0 207 -672q108 -426 184 -518q28 0 34 28l15 70q247 1162 464 1260z" />
    <glyph glyph-name="O" unicode="O" horiz-adv-x="1584" 
d="M1079 1745h112q20 0 66 -84l-18 -84q-150 -116 -159 -154q297 -42 433 -140q247 -218 181 -532l-12 -56q-110 -518 -789 -812q-151 -56 -292 -56h-70q-337 0 -395 378q-24 85 14 266l6 28q58 274 303 700q-52 21 -47 42l6 28q2 13 209 126q331 350 452 350zM478 499
l-9 -42q-57 -268 131 -308h42q342 0 640 378q65 108 84 196l9 42q-28 266 -154 266q-160 126 -393 126h-14q-62 -24 -280 -462q-40 -119 -56 -196z" />
    <glyph glyph-name="P" unicode="P" horiz-adv-x="1766" 
d="M1330 1871q521 0 655 -476q16 -55 -5 -154l-18 -84q-94 -444 -843 -672q-295 -42 -331 -42l-257 42q-6 -28 -34 -28q-15 -336 -42 -462q-42 -196 -182 -196q-151 0 -107 350q27 522 76 756q141 660 619 869q188 97 469 97zM538 849q-17 -84 305 -84q365 0 697 252
q92 101 103 154l12 56q-36 322 -422 322q-546 0 -695 -700z" />
    <glyph glyph-name="P" unicode="p" horiz-adv-x="1766" 
d="M1330 1871q521 0 655 -476q16 -55 -5 -154l-18 -84q-94 -444 -843 -672q-295 -42 -331 -42l-257 42q-6 -28 -34 -28q-15 -336 -42 -462q-42 -196 -182 -196q-151 0 -107 350q27 522 76 756q141 660 619 869q188 97 469 97zM538 849q-17 -84 305 -84q365 0 697 252
q92 101 103 154l12 56q-36 322 -422 322q-546 0 -695 -700z" />
    <glyph glyph-name="Q" unicode="Q" horiz-adv-x="1822" 
d="M731 1493h28q78 0 257 -42q105 28 118 28h98q78 -32 49 -168q-14 -64 137 -210q247 -353 185 -644l-12 -56q-71 -204 -75 -224q256 -176 234 -280l-3 -14q-4 -19 -85 -70h-56q-200 0 -418 140q-239 -112 -486 -112h-84q-433 0 -504 392q-3 54 9 112l18 84q79 372 576 798
l6 28q4 19 -110 140l8 42q35 56 110 56zM440 387q-17 -238 286 -238q229 23 239 70q-50 95 -41 140l15 70q4 20 102 84h70q25 0 142 -56l20 28l3 14q3 189 -185 448q-76 98 -133 98q-200 -64 -500 -574z" />
    <glyph glyph-name="Q" unicode="q" horiz-adv-x="1822" 
d="M731 1493h28q78 0 257 -42q105 28 118 28h98q78 -32 49 -168q-14 -64 137 -210q247 -353 185 -644l-12 -56q-71 -204 -75 -224q256 -176 234 -280l-3 -14q-4 -19 -85 -70h-56q-200 0 -418 140q-239 -112 -486 -112h-84q-433 0 -504 392q-3 54 9 112l18 84q79 372 576 798
l6 28q4 19 -110 140l8 42q35 56 110 56zM440 387q-17 -238 286 -238q229 23 239 70q-50 95 -41 140l15 70q4 20 102 84h70q25 0 142 -56l20 28l3 14q3 189 -185 448q-76 98 -133 98q-200 -64 -500 -574z" />
    <glyph glyph-name="R" unicode="R" horiz-adv-x="1486" 
d="M1323 1969q344 0 415 -350q6 -171 -11 -252q-117 -550 -796 -910q-7 -32 263 -280q54 -73 43 -126l-3 -14q-5 -22 -68 -56h-56q-183 0 -593 308h-14q-3 -14 -17 -14q17 -253 -4 -350q-72 -112 -178 -112q-196 0 -130 770l68 322q115 540 648 938q253 126 433 126z
M567 919l-9 -42q10 -154 94 -154q312 0 643 392q96 189 113 266q27 267 -154 267h-28q-147 0 -367 -211q-208 -241 -292 -518z" />
    <glyph glyph-name="R" unicode="r" horiz-adv-x="1486" 
d="M1323 1969q344 0 415 -350q6 -171 -11 -252q-117 -550 -796 -910q-7 -32 263 -280q54 -73 43 -126l-3 -14q-5 -22 -68 -56h-56q-183 0 -593 308h-14q-3 -14 -17 -14q17 -253 -4 -350q-72 -112 -178 -112q-196 0 -130 770l68 322q115 540 648 938q253 126 433 126z
M567 919l-9 -42q10 -154 94 -154q312 0 643 392q96 189 113 266q27 267 -154 267h-28q-147 0 -367 -211q-208 -241 -292 -518z" />
    <glyph glyph-name="S" unicode="S" horiz-adv-x="1444" 
d="M1401 1745h28q191 -22 163 -154l-21 -98q-119 -126 -194 -126h-42q-52 56 -87 56q-545 -193 -572 -322q566 -114 730 -252q136 -155 109 -280l-21 -98q-63 -296 -780 -574q-372 -112 -570 -112q-91 0 -122 84l9 42q41 84 788 350q343 163 365 266q26 124 -713 266
q-215 108 -182 266l9 42q60 284 842 602q158 42 261 42z" />
    <glyph glyph-name="S" unicode="s" horiz-adv-x="1444" 
d="M1401 1745h28q191 -22 163 -154l-21 -98q-119 -126 -194 -126h-42q-52 56 -87 56q-545 -193 -572 -322q566 -114 730 -252q136 -155 109 -280l-21 -98q-63 -296 -780 -574q-372 -112 -570 -112q-91 0 -122 84l9 42q41 84 788 350q343 163 365 266q26 124 -713 266
q-215 108 -182 266l9 42q60 284 842 602q158 42 261 42z" />
    <glyph glyph-name="T" unicode="T" horiz-adv-x="1724" 
d="M1229 1858h28q44 0 147 -99h364q280 0 262 -84l-9 -42q-17 -80 -700 -196l-36 -42l-6 -28q-354 -1442 -405 -1442q-60 -42 -107 -42h-70q-86 56 -56 196q89 422 330 1288l-25 14q-351 -70 -449 -70h-84q-20 0 -66 84l8 42q38 176 555 238q95 0 246 168z" />
    <glyph glyph-name="T" unicode="t" horiz-adv-x="1724" 
d="M1229 1858h28q44 0 147 -99h364q280 0 262 -84l-9 -42q-17 -80 -700 -196l-36 -42l-6 -28q-354 -1442 -405 -1442q-60 -42 -107 -42h-70q-86 56 -56 196q89 422 330 1288l-25 14q-351 -70 -449 -70h-84q-20 0 -66 84l8 42q38 176 555 238q95 0 246 168z" />
    <glyph glyph-name="U" unicode="U" horiz-adv-x="1458" 
d="M699 1801h14q122 -18 99 -126q-227 -671 -271 -882q-111 -630 34 -630h14q194 0 626 840q161 756 301 756h126q92 0 52 -280l-9 -42q-125 -392 -143 -476q-123 -580 -147 -1022q-16 -75 -145 -154h-56q-158 0 -115 378h-14q-343 -336 -576 -336q-402 0 -304 742
q15 135 42 266q138 648 382 939q52 27 90 27z" />
    <glyph glyph-name="V" unicode="V" horiz-adv-x="1668" 
d="M572 1732q170 0 247 -1079q19 -168 48 -168q490 939 801 1134q96 71 155 71h84q19 0 55 -71l-9 -42q-9 -41 -304 -378q-231 -294 -693 -1218q-131 -112 -192 -112h-56q-191 0 -219 812q-108 878 -101 910l3 15q27 126 181 126z" />
    <glyph glyph-name="V" unicode="v" horiz-adv-x="1668" 
d="M572 1732q170 0 247 -1079q19 -168 48 -168q490 939 801 1134q96 71 155 71h84q19 0 55 -71l-9 -42q-9 -41 -304 -378q-231 -294 -693 -1218q-131 -112 -192 -112h-56q-191 0 -219 812q-108 878 -101 910l3 15q27 126 181 126z" />
    <glyph glyph-name="W" unicode="W" horiz-adv-x="2453" 
d="M2652 1703h42q19 0 56 -70q-19 -90 -314 -420q-367 -553 -681 -1162q-120 -126 -195 -126h-42q-114 0 -165 210q-107 420 -149 420h-28q-139 -141 -491 -728l-96 -56h-84q-206 0 -134 686q20 621 -42 854l6 28q16 76 93 112h70q230 0 178 -1008l25 -14q316 476 577 476
q244 0 348 -406h14q498 859 714 1050q179 154 298 154z" />
    <glyph glyph-name="W" unicode="w" horiz-adv-x="2453" 
d="M2652 1703h42q19 0 56 -70q-19 -90 -314 -420q-367 -553 -681 -1162q-120 -126 -195 -126h-42q-114 0 -165 210q-107 420 -149 420h-28q-139 -141 -491 -728l-96 -56h-84q-206 0 -134 686q20 621 -42 854l6 28q16 76 93 112h70q230 0 178 -1008l25 -14q316 476 577 476
q244 0 348 -406h14q498 859 714 1050q179 154 298 154z" />
    <glyph glyph-name="X" unicode="X" horiz-adv-x="1934" 
d="M2113 1606h42q46 -27 53 -84q-36 -113 -586 -449q-337 -216 -370 -294q315 -358 279 -532l-15 -70q-17 -77 -111 -126h-70q-18 0 -256 378q-99 126 -141 126q-73 -34 -600 -518q-6 -26 -116 -84h-98q-20 0 -66 84l15 70q20 93 658 658l9 42l-351 392q-9 25 -2 56l9 42
q83 98 161 98q86 0 471 -350h28q27 0 359 238q457 323 698 323z" />
    <glyph glyph-name="X" unicode="x" horiz-adv-x="1934" 
d="M2113 1606h42q46 -27 53 -84q-36 -113 -586 -449q-337 -216 -370 -294q315 -358 279 -532l-15 -70q-17 -77 -111 -126h-70q-18 0 -256 378q-99 126 -141 126q-73 -34 -600 -518q-6 -26 -116 -84h-98q-20 0 -66 84l15 70q20 93 658 658l9 42l-351 392q-9 25 -2 56l9 42
q83 98 161 98q86 0 471 -350h28q27 0 359 238q457 323 698 323z" />
    <glyph glyph-name="Y" unicode="Y" horiz-adv-x="1780" 
d="M1958 1732q126 0 104 -168q-17 -81 -610 -631q-479 -511 -917 -1022l-82 -56h-112q-21 0 -77 98l18 84q16 78 546 658l6 28q-14 0 -11 14l-59 -14q-417 0 -394 784q37 64 105 99h56q143 0 180 -407q47 -154 107 -154q168 1 1056 687h84z" />
    <glyph glyph-name="Y" unicode="y" horiz-adv-x="1780" 
d="M1958 1732q126 0 104 -168q-17 -81 -610 -631q-479 -511 -917 -1022l-82 -56h-112q-21 0 -77 98l18 84q16 78 546 658l6 28q-14 0 -11 14l-59 -14q-417 0 -394 784q37 64 105 99h56q143 0 180 -407q47 -154 107 -154q168 1 1056 687h84z" />
    <glyph glyph-name="Z" unicode="Z" horiz-adv-x="1654" 
d="M1607 1661q350 0 308 -196q-33 -155 -348 -322q-793 -523 -965 -784q14 0 11 -14q370 56 628 56h126q192 0 245 -98l-26 -126q-67 -84 -144 -84q-431 0 -1200 -112q-187 43 -160 168l15 70q79 201 717 742q413 310 422 336l-25 14q-464 -70 -589 -70h-56q-74 49 -57 126
q38 182 683 252q5 21 415 42z" />
    <glyph glyph-name="Z" unicode="z" horiz-adv-x="1654" 
d="M1607 1661q350 0 308 -196q-33 -155 -348 -322q-793 -523 -965 -784q14 0 11 -14q370 56 628 56h126q192 0 245 -98l-26 -126q-67 -84 -144 -84q-431 0 -1200 -112q-187 43 -160 168l15 70q79 201 717 742q413 310 422 336l-25 14q-464 -70 -589 -70h-56q-74 49 -57 126
q38 182 683 252q5 21 415 42z" />
    <glyph glyph-name="bracketleft" unicode="[" horiz-adv-x="1080" 
d="M869 1942h182q392 0 350 -197q-17 -81 -153 -126q-266 14 -347 14q-143 -96 -438 -1204l-30 -140q-26 -126 254 -126q187 -39 163 -154q-22 -104 -369 -154q-342 38 -326 112q-98 65 -29 392l12 56q177 833 505 1386q139 141 226 141z" />
    <glyph glyph-name="backslash" unicode="\" horiz-adv-x="1080" 
d="M536 1759h14q190 -26 409 -840q160 -498 109 -742l-9 -42q-45 -126 -153 -126q-145 0 -190 490l-328 1092l21 99q51 69 127 69z" />
    <glyph glyph-name="bracketright" unicode="]" horiz-adv-x="1066" 
d="M978 1927h28q341 0 367 -182q9 -23 -1 -70l-6 -27q-344 -1029 -462 -1583l-9 -42q-37 -175 -294 -196h-350q-87 0 -116 112q40 187 423 210q56 0 65 42l29 140q116 544 377 1246q-28 29 -50 29q-158 0 -479 -15q-100 54 -82 141q42 195 560 195z" />
    <glyph glyph-name="asciicircum" unicode="^" horiz-adv-x="1178" 
d="M998 1759q195 0 328 -434q48 -58 36 -224l-12 -56q-4 -18 -85 -70h-28q-178 0 -278 336l-44 56h-28l-352 -336q-48 -28 -107 -42q-164 19 -138 140l6 28q16 74 525 560q100 42 177 42z" />
    <glyph glyph-name="underscore" unicode="_" horiz-adv-x="1766" 
d="M1321 247q389 0 418 -140l-15 -70q-77 -112 -318 -112h-182q-285 0 -1093 -70q-101 53 -82 140q39 182 361 182q379 70 911 70z" />
    <glyph glyph-name="grave" unicode="`" horiz-adv-x="615" 
d="M477 1853l93 55q10 6 22 6q79 0 235 -268l6 -11q35 -77 19 -151q-8 -39 -31 -78l-28 -16q-36 -22 -72 -22q-99 0 -194 160l-97 209q-2 4 0 13q6 27 47 103z" />
    <glyph glyph-name="a" unicode="a" horiz-adv-x="1752" 
d="M1390 1955q116 -43 96 -139q-98 -463 -294 -463h-70q-20 0 -78 98l9 42q161 462 337 462zM1993 1829q59 -23 80 -84l-18 -84q-29 -139 -339 -280h-28q-161 35 -136 154l3 14q23 105 337 267q59 13 101 13zM482 1703h42q188 0 273 -294q3 -55 -6 -98q-39 -63 -122 -112
h-84q-131 0 -206 350l18 84q4 19 85 70zM1101 1255q36 0 145 -42l79 42h112q95 -80 79 -154q-81 -316 -97 -392q-31 -209 -49 -560q-11 -52 -125 -126h-112q-76 0 -80 350h-28q-300 -196 -503 -196h-112q-308 67 -254 322l6 28q75 351 675 672q160 56 264 56zM501 541
l-3 -14q-2 -28 22 -28h42q259 0 545 392l6 28q6 28 -36 28q-231 0 -550 -350q-19 -25 -26 -56z" />
    <glyph glyph-name="e" unicode="e" horiz-adv-x="1850" 
d="M1603 1969q62 -36 46 -111q-158 -435 -345 -435q-115 0 -98 196q48 224 313 350h84zM838 1732h14q198 -59 150 -281l-17 -84q-66 -98 -147 -98q-182 0 -164 350q78 113 164 113zM2009 1577q74 0 108 -84l-20 -98q-191 -210 -395 -210q-133 32 -110 140l6 28
q34 164 411 224zM1144 1325h84q172 0 235 -210q17 -54 -5 -154q-72 -340 -510 -490q-76 -14 -143 -14l-67 14l-20 -28q-10 -154 121 -154h84q159 0 625 238q28 14 59 14q53 0 94 -84l-18 -84q-23 -110 -339 -280q-325 -126 -489 -126h-70q-380 0 -418 406q40 185 -44 252
q-116 112 -90 238l3 14q58 140 170 140h28q128 -56 142 -56q287 364 568 364zM832 779q24 -14 39 -14q237 63 268 210l-36 28q-238 -67 -271 -224z" />
    <glyph glyph-name="i" unicode="i" horiz-adv-x="1206" 
d="M877 1717h42q173 0 204 -224q9 -23 -1 -70q-50 -238 -336 -266q-266 0 -218 294q110 266 309 266zM723 1059h70q126 0 90 -168l-20 -98q-96 -448 -180 -448q-4 -22 -68 -56h-84q-85 57 -62 168l42 196q65 309 181 392zM1099 261q56 0 95 -84l-9 -42q-29 -136 -493 -210
q-424 -112 -528 -112h-14q-78 0 -119 98l18 84q200 224 1050 266z" />
    <glyph glyph-name="o" unicode="o" horiz-adv-x="1836" 
d="M1443 2011q112 0 89 -111l-3 -15q-129 -448 -208 -448q-6 -28 -76 -28h-70q-99 60 -79 155q70 328 319 447h28zM529 1661h28q145 0 184 -322l-6 -28q-16 -74 -128 -140h-126q-74 0 -107 351q43 139 155 139zM1968 1648h42q122 -19 100 -126q-37 -173 -402 -309h-28
q-134 28 -110 140q32 151 325 280q27 15 73 15zM1141 1311h84q40 -50 330 -224q194 -205 158 -378l-9 -42q-98 -461 -956 -546h-70q-509 46 -426 434q65 308 506 602q30 140 324 140q3 14 59 14zM571 541q-14 -66 175 -98h70q491 56 569 238q24 115 -327 308
q-439 -223 -487 -448z" />
    <glyph glyph-name="u" unicode="u" horiz-adv-x="1710" 
d="M1250 1955h98q70 0 39 -210q-102 -364 -245 -364h-14q-78 0 -120 98l42 196q41 195 200 280zM528 1787h42q113 0 210 -265l-2 -71q-25 -121 -197 -140q-110 0 -165 211q1 75 12 126l15 69q4 19 85 70zM1956 1787q77 -33 63 -97q-41 -195 -354 -351h-42q-74 0 -109 84
l27 126q223 238 415 238zM1339 1255q148 -28 124 -140l-6 -28q-67 -315 -125 -854l-9 -42q-24 -112 -136 -112h-14q-163 0 -147 364h-14q-22 0 -187 -154q-238 -154 -368 -154h-42q-291 0 -235 476l30 140q121 448 291 448h56q85 -62 68 -140q-106 -236 -124 -322
q-43 -280 10 -280q223 0 690 742q75 56 138 56z" />
    <glyph glyph-name="braceleft" unicode="{" horiz-adv-x="2102" 
d="M891 1717q313 0 411 -504q15 0 342 294q249 183 389 183h126q219 -91 184 -253q11 -17 -6 -98l-12 -56q-132 -619 -894 -1176l-273 -98q-75 -84 -158 -84h-98q-344 0 -610 686q-48 303 -2 518q88 414 486 574q57 14 115 14zM615 1143l-3 -14q-74 -349 189 -756
q175 -168 385 -168q730 670 814 1064l12 56q6 28 -22 28q-169 0 -688 -602q-71 -56 -124 -56h-56q-151 0 -160 434q-60 266 -153 266q-158 -84 -194 -252z" />
    <glyph glyph-name="bar" unicode="|" horiz-adv-x="548" 
d="M679 1774h98q89 -44 50 -225q-171 -540 -514 -1694q-97 -126 -181 -126q-109 0 -95 210q365 1389 557 1764q4 19 85 71z" />
    <glyph glyph-name="braceright" unicode="}" horiz-adv-x="2172" 
d="M1339 1913h98q93 0 39 -406q14 0 8 -28q-15 -70 -127 -140h-98q-145 108 -94 351q31 145 174 223zM2232 1703h56q85 0 105 -97q-45 -143 -466 -351h-56q-122 18 -99 126l5 28q24 111 340 281q58 13 115 13zM494 1564h70q182 0 297 -253q-3 -14 5 -42q-20 -91 -114 -140
h-126q-181 112 -279 266l20 98q51 71 127 71zM1289 1283l137 -14q79 14 129 14q212 0 298 -308q-2 -76 -13 -126q-83 -395 -654 -574l-3 -14q149 -28 125 -140l-15 -70q-48 -225 -222 -252q-97 0 -104 168l15 70q21 98 126 196l5 28h-56q-389 0 -447 266q-16 55 5 154l6 28
q73 344 536 546q71 28 132 28zM943 709l-3 -14q-24 -112 144 -112q254 0 429 238l5 28q19 88 -84 196q-449 -136 -491 -336zM1920 499q259 0 257 -238l-5 -28q-37 -63 -105 -98h-98q-250 78 -222 210l3 14q58 140 170 140zM379 429h70q76 0 97 -70l-21 -98
q-178 -168 -301 -168h-98q-22 0 -44 56l26 126q120 154 271 154z" />
    <glyph glyph-name="asciitilde" unicode="~" horiz-adv-x="1654" 
d="M825 1143q225 0 357 -364q46 -42 75 -42q48 0 339 280q70 56 152 56h14q19 0 55 -70l-18 -84q-44 -210 -403 -448q-90 -56 -222 -56q-248 0 -406 392h-28q-68 0 -394 -336l-73 -14q-122 18 -99 126q59 280 536 546q35 0 115 14z" />
    <glyph glyph-name="cent" unicode="&#xa2;" horiz-adv-x="1458" 
d="M1192 1423q115 0 73 -252q70 -130 59 -182l-9 -42q-18 -84 -158 -154q-43 -69 -99 -266q24 -14 39 -14q298 70 365 70h28q20 0 33 -42l-15 -70q-194 -202 -572 -322q-128 -336 -198 -336h-70q-70 0 -52 280q-276 0 -432 140q-61 111 -49 168l27 126q57 270 657 588
q160 29 181 126q63 182 192 182zM458 471q40 -42 159 -42h42q53 0 173 350l-25 14q-316 -169 -349 -322z" />
    <glyph glyph-name="sterling" unicode="&#xa3;" horiz-adv-x="1836" 
d="M1826 1703h56q233 0 203 -294l-5 -28q-34 -156 -143 -210h-56q-60 15 -70 196q3 14 -11 14q-117 0 -327 -350q-2 -28 22 -28h14q289 0 312 -112l-12 -56q-22 -106 -592 -154q-170 -272 -175 -294q0 -25 547 -196q106 0 205 -154l-12 -56q-51 -70 -127 -70h-84
q-64 0 -765 154q-30 0 -260 -168q-146 -28 -188 -28q-322 66 -282 252l18 84q36 172 366 210h210q42 0 157 210q6 28 -22 28l-227 -14q-90 0 -85 126l9 42q23 110 570 182q484 714 754 714z" />
    <glyph glyph-name="quoteleft" unicode="&#x2018;" horiz-adv-x="688" 
d="M409 1163q-53 0 -94 84l15 70q123 294 551 616q52 28 90 28h14q61 -42 49 -98q-85 -269 -538 -686q-11 0 -87 -14z" />
    <glyph glyph-name="quoteright" unicode="&#x2019;" horiz-adv-x="688" 
d="M943 1961q53 0 94 -84l-15 -70q-123 -294 -551 -617q-52 -27 -90 -27h-14q-61 42 -49 98q85 268 538 686q11 0 87 14z" />
    <glyph glyph-name="quotedblleft" unicode="&#x201c;" horiz-adv-x="1511" 
d="M409 1163q-53 0 -94 84l15 70q123 294 551 616q52 28 90 28h14q61 -42 49 -98q-85 -269 -538 -686q-11 0 -87 -14zM1232 1163q-53 0 -94 84l15 70q123 294 551 616q52 28 90 28h14q61 -42 49 -98q-85 -269 -538 -686q-10 0 -87 -14z" />
    <glyph glyph-name="quotedblright" unicode="&#x201d;" horiz-adv-x="1511" 
d="M943 1961q53 0 94 -84l-15 -70q-123 -294 -551 -617q-52 -27 -90 -27h-14q-61 42 -49 98q85 268 538 686q11 0 87 14zM1767 1961q52 0 93 -84l-15 -70q-123 -294 -551 -617q-51 -27 -90 -27h-14q-61 42 -49 98q85 268 539 686q10 0 87 14z" />
    <glyph glyph-name="ellipsis" unicode="&#x2026;" horiz-adv-x="2240" 
d="M616 590q110 -107 86 -219q-12 -55 -57 -112l-29 -37q-72 -91 -205 -91q-79 0 -181 32l-20 14q-101 100 -78 208q12 58 59 117l47 60q120 88 221 88q67 0 125 -39zM1400 590q110 -107 86 -219q-12 -55 -57 -112l-29 -37q-72 -91 -205 -91q-80 0 -181 32l-21 14
q-100 100 -77 208q12 58 59 117l47 60q119 88 221 88q66 0 125 -39zM2183 590q110 -107 86 -219q-12 -55 -56 -112l-29 -37q-72 -91 -205 -91q-80 0 -181 32l-21 14q-101 100 -78 208q12 57 60 117l47 60q120 88 220 88q67 0 126 -39z" />
    <glyph glyph-name="Euro" unicode="&#x20ac;" horiz-adv-x="1962" 
d="M1752 1816h112q421 -61 353 -379q-63 -182 -192 -182h-14q-65 33 -96 210q-92 42 -117 42h-70q-263 0 -557 -252q-20 -27 -23 -42q14 0 11 -14l73 14h322q217 0 281 -126l-9 -42q-24 -112 -935 -182q-70 0 -96 -126l-3 -14q-2 -28 22 -28q225 28 384 28h308
q161 0 167 -70l-3 -14q-24 -112 -852 -252l-3 -14q72 -140 321 -140h28q120 0 647 84h42q20 0 33 -42l-11 -56q-306 -308 -836 -308q-463 0 -611 420q-21 14 -53 14l-87 -14q-119 0 -150 84l21 98q119 112 276 112l29 70l12 56q6 28 -22 28h-154q-19 0 -56 70l21 98
q17 80 403 182q65 145 445 448q353 239 639 239z" />
    <glyph glyph-name="trademark" unicode="&#x2122;" horiz-adv-x="1584" 
d="M1673 1774q210 0 115 -449q-29 -268 -65 -434q-33 -156 -142 -210h-42q-147 98 -76 434l-33 42q-130 -84 -214 -84q-18 0 -137 14q-101 -238 -163 -238h-84q-19 0 -55 70l72 336q6 28 -22 28l-145 -350q-24 -116 -183 -140q-90 0 -86 126l45 210l29 70q-161 62 -158 112
l18 84q21 103 455 169q71 0 162 -29q13 0 96 56h70q75 0 152 -140h14q26 5 222 252q89 71 155 71z" />
    </font>
</defs>
</svg>
