<?xml version="1.0" standalone="no"?>
<!DOCTYPE svg PUBLIC "-//W3C//DTD SVG 1.1//EN" "http://www.w3.org/Graphics/SVG/1.1/DTD/svg11.dtd" >
<svg>
<metadata>
Created by FontForge 20120731 at Tue Apr  9 11:39:39 2019
 By www-data
Digitized data copyright The Monotype Corporation 1991-1995. All rights reserved. Gill Sans is a trademark of The Monotype Corporation which may be registered in certain jurisdictions.
</metadata>
<defs>
<font id="GillSansAltOneWGL-Italic" horiz-adv-x="961" >
  <font-face 
    font-family="Gill Sans for Oriflame"
    font-weight="400"
    font-style="italic"
    font-stretch="normal"
    units-per-em="2048"
    panose-1="2 11 5 2 2 1 4 9 2 3"
    ascent="1638"
    descent="-410"
    x-height="920"
    cap-height="1397"
    bbox="-412 -677 2183 2114"
    underline-thickness="102"
    underline-position="-103"
    slope="-8"
    unicode-range="U+0020-FB02"
  />
<missing-glyph horiz-adv-x="2048" 
d="M256 0v1536h1536v-1536h-1536zM384 128h1280v1280h-1280v-1280z" />
    <glyph glyph-name=".notdef" horiz-adv-x="2048" 
d="M256 0v1536h1536v-1536h-1536zM384 128h1280v1280h-1280v-1280z" />
    <glyph glyph-name="NULL" horiz-adv-x="0" 
 />
    <glyph glyph-name="nonmarkingreturn" horiz-adv-x="569" 
 />
    <glyph glyph-name="space" unicode=" " horiz-adv-x="569" 
 />
    <glyph glyph-name="exclam" unicode="!" horiz-adv-x="512" 
d="M193 340q26 258 41 581t38.5 408.5t112.5 85.5q82 0 82 -121q0 -71 -68 -366l-131 -588h-75zM86 90q0 49 35 84t84 35t84 -35t35 -84t-35 -84t-84 -35t-84 35t-35 84z" />
    <glyph glyph-name="quotedbl" unicode="&#x22;" horiz-adv-x="725" 
d="M508 1466h197v-239l-48 -281h-102l-47 281v239zM176 1466h197v-239l-47 -281h-103l-47 281v239z" />
    <glyph glyph-name="numbersign" unicode="#" horiz-adv-x="1196" 
d="M4 871v123h326l86 403h121l-86 -403h421l84 403h123l-86 -403h199v-123h-223l-76 -371h299v-123h-324l-84 -399h-122l86 399h-424l-84 -399h-123l84 399h-197v123h223l78 371h-301zM848 871h-422l-78 -371h424z" />
    <glyph glyph-name="dollar" unicode="$" horiz-adv-x="1024" 
d="M989 1237l-26 -184q-125 80 -267 108l-61 -438q311 -163 311 -381q0 -139 -112 -243.5t-304 -116.5l-28 -207h-152l29 207q-178 25 -297 110l29 201q126 -87 295 -131l59 438q-163 91 -235 178.5t-72 200.5q0 139 112.5 240.5t298.5 113.5l11 82h151l-10 -82
q140 -16 268 -96zM496 809l49 358q-96 -15 -149.5 -60t-53.5 -106q0 -62 38 -104t116 -88zM606 520l-53 -370q95 9 153 59.5t58 116.5q0 109 -158 194z" />
    <glyph glyph-name="percent" unicode="%" horiz-adv-x="1450" 
d="M430 1415q128 0 219.5 -90.5t91.5 -220.5q0 -125 -93 -218t-218 -93q-129 0 -220 92.5t-91 218.5q0 131 90 221t221 90zM430 942q67 0 114.5 48t47.5 114q0 68 -47.5 115t-114.5 47q-68 0 -115 -46.5t-47 -115.5q0 -63 49 -112.5t113 -49.5zM1292 1415l-917 -1433h-156
l920 1433h153zM1081 606q129 0 220.5 -90.5t91.5 -220.5q0 -125 -93 -218t-219 -93q-129 0 -220 92.5t-91 218.5q0 131 90 221t221 90zM1081 133q68 0 115 48t47 114q0 68 -47.5 115t-114.5 47q-68 0 -114.5 -46.5t-46.5 -115.5q0 -63 49 -112.5t112 -49.5z" />
    <glyph glyph-name="ampersand" unicode="&#x26;" horiz-adv-x="1409" 
d="M1157 702h180q-124 -305 -284 -458q121 -115 252 -115q29 0 45 6l-68 -145q-16 -8 -49 -8q-67 0 -152.5 42.5t-146.5 110.5q-206 -153 -432 -153q-185 0 -291.5 109.5t-106.5 281.5q0 119 87 232.5t239 180.5q-78 152 -78 295q0 141 94 237.5t232 96.5q113 0 192.5 -82.5
t79.5 -202.5q0 -234 -297 -401q84 -148 281 -377q142 143 223 350zM575 866q93 47 145 116.5t52 137.5q0 62 -33.5 101t-87.5 39q-55 0 -94 -53.5t-39 -131.5q0 -89 57 -209zM510 643q-217 -121 -217 -272q0 -104 70.5 -171t181.5 -67q121 0 270 109q-190 217 -305 401z" />
    <glyph glyph-name="quotesingle" unicode="'" horiz-adv-x="385" 
d="M176 1466h197v-239l-47 -281h-103l-47 281v239z" />
    <glyph glyph-name="parenleft" unicode="(" horiz-adv-x="598" 
d="M586 1415h98q-94 -113 -211.5 -353t-158 -499t-40.5 -399q0 -355 127 -635h-86q-93 176 -149.5 389.5t-56.5 392.5q0 272 109.5 530t367.5 574z" />
    <glyph glyph-name="parenright" unicode=")" horiz-adv-x="598" 
d="M-14 -471h-99q95 113 212 353t157.5 499t40.5 399q0 355 -127 635h86q93 -176 150 -389.5t57 -392.5q0 -272 -110 -530t-367 -574z" />
    <glyph glyph-name="asterisk" unicode="*" horiz-adv-x="918" 
d="M596 1362l-51 -260q28 -6 41 -21l172 164q51 51 94 51q28 0 47 -21t19 -52q0 -56 -66 -80l-254 -92q4 -12 4 -26q0 -12 -4 -21l207 -76q113 -42 113 -103q0 -23 -21 -45t-45 -22q-46 0 -119 71l-147 146q-21 -21 -41 -21l47 -252q4 -22 4 -43q0 -90 -68 -90q-70 0 -70 97
q0 26 7 57l49 231q-18 1 -39 21l-160 -148q-74 -67 -118 -67q-23 0 -42.5 21t-19.5 46q0 65 111 103l215 74q-3 12 -3 25q0 12 3 22l-232 86q-90 32 -90 82q0 33 21.5 56t50.5 23q33 0 96 -59l168 -158q10 16 39 21l-47 244q-6 29 -6 53q0 88 67 88q72 0 72 -88
q0 -19 -4 -37z" />
    <glyph glyph-name="plus" unicode="+" horiz-adv-x="1196" 
d="M545 1206h168v-399h399v-168h-399v-399h-168v399h-400v168h400v399z" />
    <glyph glyph-name="comma" unicode="," horiz-adv-x="406" 
d="M-49 -295l12 90q135 44 135 176q-80 36 -80 105q0 53 36.5 87t92.5 34q55 0 92 -46.5t37 -115.5q0 -113 -87 -204t-238 -126z" />
    <glyph glyph-name="hyphen" unicode="-" horiz-adv-x="512" 
d="M512 543l-25 -174h-487l25 174h487z" />
    <glyph glyph-name="period" unicode="." horiz-adv-x="406" 
d="M33 90q0 49 35 84t84 35q48 0 83 -35t35 -84t-35 -84t-83 -35q-49 0 -84 35t-35 84z" />
    <glyph glyph-name="slash" unicode="/" horiz-adv-x="575" 
d="M57 -18l402 1433h143l-401 -1433h-144z" />
    <glyph glyph-name="zero" unicode="0" horiz-adv-x="1067" 
d="M668 1415q172 0 265 -129t93 -377q0 -368 -153.5 -647.5t-399.5 -279.5q-369 0 -369 497q0 348 151 642t413 294zM471 147q138 0 252.5 239.5t114.5 545.5q0 317 -179 317q-131 0 -246.5 -239t-115.5 -527q0 -336 174 -336z" />
    <glyph glyph-name="one" unicode="1" horiz-adv-x="1067" 
d="M614 0h-182l170 1081q-105 -94 -272 -176l32 201q14 12 31 22q158 111 207.5 152.5t128.5 134.5h109z" />
    <glyph glyph-name="two" unicode="2" horiz-adv-x="1067" 
d="M244 1120l26 199q161 96 316 96q151 0 244.5 -92t93.5 -242q0 -151 -132.5 -360.5t-416.5 -548.5h532l-24 -172h-848q408 499 559 729.5t151 337.5q0 81 -52 127.5t-144 46.5q-141 0 -305 -121z" />
    <glyph glyph-name="three" unicode="3" horiz-adv-x="1067" 
d="M264 1161l27 193q142 61 289 61q169 0 271.5 -99t102.5 -263q0 -233 -272 -334q188 -80 188 -316q0 -163 -127.5 -292t-357.5 -129q-164 0 -336 77l25 166q154 -78 303 -78q135 0 218 71t83 185q0 113 -76 177.5t-178 56.5l22 166q151 11 233.5 84t82.5 164
q0 89 -60 143.5t-159 54.5q-143 0 -279 -88z" />
    <glyph glyph-name="four" unicode="4" horiz-adv-x="1067" 
d="M932 1415l-129 -835h201l-21 -150h-207l-67 -430h-179l74 430h-524v80l741 905h111zM315 580h312l82 485z" />
    <glyph glyph-name="five" unicode="5" horiz-adv-x="1067" 
d="M977 1397l-31 -172h-401l-56 -348q189 -11 294.5 -121t105.5 -285q0 -216 -146.5 -352.5t-377.5 -136.5q-196 0 -334 104l63 162q131 -101 281 -101q141 0 231 90.5t90 231.5q0 110 -78.5 176t-211.5 66q-50 0 -123 -17l125 703h569z" />
    <glyph glyph-name="six" unicode="6" horiz-adv-x="1067" 
d="M848 1397l-402 -586l5 -4q61 47 180 47q150 0 240 -95.5t90 -254.5q0 -204 -147.5 -363t-334.5 -159q-171 0 -269.5 113.5t-98.5 312.5q0 99 54.5 234.5t137.5 256.5l340 498h205zM483 156q114 0 204.5 101t90.5 232q0 88 -53 143.5t-135 55.5q-120 0 -208.5 -90
t-88.5 -211q0 -102 53.5 -166.5t136.5 -64.5z" />
    <glyph glyph-name="seven" unicode="7" horiz-adv-x="1067" 
d="M1081 1397l-653 -1415h-190l573 1243h-563l24 172h809z" />
    <glyph glyph-name="eight" unicode="8" horiz-adv-x="1067" 
d="M770 729q184 -78 184 -297q0 -189 -138.5 -319.5t-340.5 -130.5q-176 0 -284.5 107t-108.5 280q0 292 299 383q-158 93 -158 274q0 159 120 274t286 115q171 0 275 -98t104 -260q0 -110 -62.5 -198t-175.5 -130zM596 817q93 0 161 70.5t68 167.5q0 86 -53 140t-137 54
q-95 0 -162 -69.5t-67 -165.5q0 -88 52.5 -142.5t137.5 -54.5zM487 147q117 0 201 83.5t84 197.5q0 104 -61.5 163.5t-169.5 59.5q-111 0 -194 -85.5t-83 -198.5q0 -95 63.5 -157.5t159.5 -62.5z" />
    <glyph glyph-name="nine" unicode="9" horiz-adv-x="1067" 
d="M264 -18l414 602l-4 4q-85 -49 -178 -49q-147 0 -241.5 93.5t-94.5 237.5q0 221 146 383t343 162q158 0 260.5 -115t102.5 -292q0 -134 -48 -254t-151 -271l-344 -501h-205zM541 705q107 0 194.5 91t87.5 203q0 108 -51.5 172t-138.5 64q-113 0 -199 -100t-86 -232
q0 -198 193 -198z" />
    <glyph glyph-name="colon" unicode=":" horiz-adv-x="406" 
d="M147 829q0 49 35 84t84 35t84 -35t35 -84q0 -48 -35 -83t-84 -35t-84 35t-35 83zM33 90q0 49 35 84t84 35q48 0 83 -35t35 -84t-35 -84t-83 -35q-49 0 -84 35t-35 84z" />
    <glyph glyph-name="semicolon" unicode=";" horiz-adv-x="406" 
d="M147 829q0 49 35 84t84 35t84 -35t35 -84q0 -48 -35 -83t-84 -35t-84 35t-35 83zM-20 -295l12 90q135 44 135 176q-80 36 -80 105q0 53 36 87t93 34q55 0 92 -46.5t37 -115.5q0 -113 -87 -204t-238 -126z" />
    <glyph glyph-name="semicolon" unicode="&#x37e;" horiz-adv-x="406" 
d="M147 829q0 49 35 84t84 35t84 -35t35 -84q0 -48 -35 -83t-84 -35t-84 35t-35 83zM-20 -295l12 90q135 44 135 176q-80 36 -80 105q0 53 36 87t93 34q55 0 92 -46.5t37 -115.5q0 -113 -87 -204t-238 -126z" />
    <glyph glyph-name="less" unicode="&#x3c;" horiz-adv-x="1196" 
d="M143 641v168l971 414v-179l-770 -319l770 -319v-179z" />
    <glyph glyph-name="equal" unicode="=" horiz-adv-x="1196" 
d="M145 1030h967v-168h-967v168zM145 584h967v-168h-967v168z" />
    <glyph glyph-name="greater" unicode="&#x3e;" horiz-adv-x="1196" 
d="M1114 641l-971 -414v179l770 319l-770 319v179l971 -414v-168z" />
    <glyph glyph-name="question" unicode="?" horiz-adv-x="725" 
d="M180 1135l29 202q121 78 229 78q135 0 217 -86.5t82 -228.5q0 -67 -30 -139t-159.5 -211.5t-172.5 -232t-53 -177.5h-113q0 117 41.5 239t155.5 258.5t133.5 179.5t19.5 79q0 69 -41.5 111t-109.5 42q-102 0 -228 -114zM123 90q0 49 35 84t84 35t83.5 -35t34.5 -84
t-34.5 -84t-83.5 -35t-84 35t-35 84z" />
    <glyph glyph-name="at" unicode="@" horiz-adv-x="2068" 
d="M1825 18h184q-273 -448 -887 -448q-471 0 -741 240.5t-270 658.5q0 414 263 719t726 305q372 0 615 -221.5t243 -558.5q0 -274 -186 -495.5t-412 -221.5q-199 0 -199 168q-145 -166 -303 -166q-157 0 -261.5 128t-104.5 325q0 239 162.5 435.5t357.5 196.5
q188 0 301 -184l35 156h180l-168 -772q-6 -25 -6 -45q0 -78 71 -78q94 0 238.5 158t144.5 397q0 270 -204 451.5t-512 181.5q-358 0 -595 -246t-237 -617q0 -363 227.5 -565.5t636.5 -202.5q481 0 701 301zM1024 940q-130 0 -237 -155.5t-107 -348.5q0 -131 61 -212t158 -81
q131 0 243.5 157.5t112.5 346.5q0 134 -63 213.5t-168 79.5z" />
    <glyph glyph-name="A" unicode="A" horiz-adv-x="1067" 
d="M721 1405l272 -1405h-172l-84 438h-438l-184 -438h-187l617 1405h176zM360 586h349l-107 573z" />
    <glyph glyph-name="B" unicode="B" horiz-adv-x="1044" 
d="M274 1397h205q215 0 329 -95t114 -260q0 -182 -193 -276q289 -100 289 -375q0 -174 -140 -282.5t-364 -108.5h-434zM436 1237l-55 -399h100q115 0 183.5 57.5t68.5 151.5q0 193 -239 193q-27 0 -58 -3zM358 682l-73 -526h211q161 0 247 63t86 180q0 119 -99 201t-236 82
h-136z" />
    <glyph glyph-name="C" unicode="C" horiz-adv-x="1130" 
d="M1188 1415l-37 -176h-102q-362 0 -556 -194t-194 -470q0 -190 100 -303.5t267 -113.5q86 0 202.5 46.5t214.5 125.5l-30 -226q-217 -122 -414 -122q-237 0 -388 162.5t-151 418.5q0 376 261.5 614t693.5 238h133z" />
    <glyph glyph-name="D" unicode="D" horiz-adv-x="1343" 
d="M80 0l199 1397h165q388 0 604 -186.5t216 -514.5q0 -316 -190 -506t-539 -190h-455zM442 1229l-149 -1063h168q239 0 354 57.5t182.5 181.5t67.5 297q0 248 -168 387.5t-391 139.5h-64z" />
    <glyph glyph-name="E" unicode="E" horiz-adv-x="1044" 
d="M1020 1397l-23 -166h-559l-61 -438h493l-22 -166h-496l-67 -461h735l-25 -166h-917l203 1397h739z" />
    <glyph glyph-name="F" unicode="F" horiz-adv-x="854" 
d="M932 1397l-23 -166h-485l-62 -438h447l-25 -166h-446l-88 -627h-187l203 1397h666z" />
    <glyph glyph-name="G" unicode="G" horiz-adv-x="1237" 
d="M1182 606l-72 -502q-227 -122 -451 -122q-269 0 -428 176.5t-159 437.5q0 332 249.5 575.5t708.5 243.5q90 0 242 -18l-23 -168q-165 18 -248 18q-343 0 -537 -193.5t-194 -451.5q0 -200 113 -326t291 -126q133 0 268 67l33 242h-199l21 147h385z" />
    <glyph glyph-name="H" unicode="H" horiz-adv-x="1430" 
d="M1407 1397l-197 -1397h-192l88 618h-756l-86 -618h-192l196 1397h191l-84 -604h755l84 604h193z" />
    <glyph glyph-name="I" unicode="I" horiz-adv-x="492" 
d="M469 1397l-197 -1397h-192l196 1397h193z" />
    <glyph glyph-name="J" unicode="J" horiz-adv-x="492" 
d="M475 1397l-211 -1499q-52 -369 -360 -369q-66 0 -133 12l-43 172q75 -16 135 -16q104 0 153.5 51.5t65.5 161.5l209 1487h184z" />
    <glyph glyph-name="K" unicode="K" horiz-adv-x="1153" 
d="M1174 1397l-644 -645l625 -752h-219l-576 731l-102 -731h-188l196 1397h189l-93 -598l5 -4l594 602h213z" />
    <glyph glyph-name="L" unicode="L" horiz-adv-x="854" 
d="M453 1397l-183 -1241h574l-23 -156h-749l196 1397h185z" />
    <glyph glyph-name="M" unicode="M" horiz-adv-x="1665" 
d="M1522 1397v-1397h-185l-1 1064l-564 -1064l-246 1069l-344 -1069h-184l461 1397h159l218 -946l501 946h185z" />
    <glyph glyph-name="N" unicode="N" horiz-adv-x="1409" 
d="M1389 1397l-197 -1397h-100l-695 1020l-143 -1020h-174l196 1397h95l698 -1028l145 1028h175z" />
    <glyph glyph-name="O" unicode="O" horiz-adv-x="1343" 
d="M782 1415q221 0 357.5 -161.5t136.5 -424.5q0 -364 -199 -605.5t-475 -241.5q-218 0 -358 165t-140 424q0 323 190.5 583.5t487.5 260.5zM606 150q194 0 337.5 208.5t143.5 503.5q0 180 -83 282.5t-224 102.5q-216 0 -351.5 -215.5t-135.5 -486.5q0 -183 85 -289
t228 -106z" />
    <glyph glyph-name="P" unicode="P" horiz-adv-x="918" 
d="M252 1397h240q216 0 334 -100t118 -296q0 -161 -117 -286t-329 -125h-168l-82 -590h-193zM420 1231l-66 -475h135q126 0 196.5 72.5t70.5 179.5q0 101 -66 162t-188 61h-82z" />
    <glyph glyph-name="Q" unicode="Q" horiz-adv-x="1343" 
d="M1276 -31h31q-10 -168 -99.5 -268t-236.5 -100q-156 0 -279 101t-184 298q-193 40 -298.5 199t-105.5 397q0 304 189.5 561.5t482.5 257.5q232 0 366 -157t134 -431q0 -309 -149.5 -535t-411.5 -292q34 -110 115 -170.5t180 -60.5q79 0 155 51t111 149zM618 168
q191 0 330 198t139 486q0 189 -80 292t-225 103q-223 0 -356 -221.5t-133 -474.5q0 -187 84 -285t241 -98z" />
    <glyph glyph-name="R" unicode="R" horiz-adv-x="1087" 
d="M270 1397h252q277 0 376 -110t99 -269q0 -123 -75 -214.5t-211 -127.5q62 -40 116 -154l250 -522h-200l-160 332q-76 157 -129 220.5t-162 63.5h-74l-86 -616h-192zM438 1231l-61 -449h98q159 0 241.5 66.5t82.5 179.5q0 203 -252 203h-109z" />
    <glyph glyph-name="S" unicode="S" horiz-adv-x="938" 
d="M899 1360l-27 -191q-112 74 -245 74q-112 0 -179 -58t-67 -153q0 -47 32 -99t187 -176.5t204.5 -218.5t49.5 -188q0 -150 -113 -259t-301 -109q-167 0 -338 100l29 205q191 -133 328 -133q74 0 140.5 48.5t66.5 131.5q0 53 -33.5 110t-189 184t-203 220.5t-47.5 185.5
q0 162 134 271.5t316 109.5q127 0 256 -55z" />
    <glyph glyph-name="T" unicode="T" horiz-adv-x="1044" 
d="M1141 1397l-25 -174h-393l-172 -1223h-193l172 1223h-393l25 174h979z" />
    <glyph glyph-name="U" unicode="U" horiz-adv-x="1300" 
d="M1311 1397l-121 -862q-38 -272 -187 -412.5t-395 -140.5q-218 0 -348.5 118t-130.5 315q0 41 6 83l127 899h184l-129 -914q-4 -29 -4 -56q0 -129 85 -203t220 -74q117 0 206.5 55.5t123.5 138.5t57 250l113 803h193z" />
    <glyph glyph-name="V" unicode="V" horiz-adv-x="1044" 
d="M1157 1397l-682 -1409h-72l-272 1409h180l187 -975l467 975h192z" />
    <glyph glyph-name="W" unicode="W" horiz-adv-x="1898" 
d="M2019 1397l-676 -1409h-71l-271 991l-475 -991h-73l-330 1409h176l231 -989l471 989h72l273 -1006l479 1006h194z" />
    <glyph glyph-name="X" unicode="X" horiz-adv-x="1366" 
d="M1440 1397l-598 -678l454 -719h-219l-362 575l-500 -575h-252l649 739l-413 658h211l331 -514l455 514h244z" />
    <glyph glyph-name="Y" unicode="Y" horiz-adv-x="1004" 
d="M1141 1397l-490 -701l-98 -696h-184l98 696l-328 701h195l237 -512l357 512h213z" />
    <glyph glyph-name="Z" unicode="Z" horiz-adv-x="1194" 
d="M1325 1397l-1018 -1223h828l-25 -174h-1176l1014 1223h-794l24 174h1147z" />
    <glyph glyph-name="bracketleft" unicode="[" horiz-adv-x="682" 
d="M770 1397l-18 -135h-265l-221 -1579h262l-18 -136h-432l260 1850h432z" />
    <glyph glyph-name="backslash" unicode="\" horiz-adv-x="575" 
d="M571 -18h-143l-401 1433h143z" />
    <glyph glyph-name="bracketright" unicode="]" horiz-adv-x="682" 
d="M-98 -453l18 136h264l222 1579h-263l19 135h432l-260 -1850h-432z" />
    <glyph glyph-name="asciicircum" unicode="^" 
d="M272 596h-184l354 801h146l354 -801h-182l-246 598z" />
    <glyph glyph-name="underscore" unicode="_" horiz-adv-x="1024" 
d="M-12 -154h1048v-102h-1048v102z" />
    <glyph glyph-name="grave" unicode="`" horiz-adv-x="682" 
d="M412 1372l139 -299h-115l-231 299h207z" />
    <glyph glyph-name="a" unicode="a" 
d="M913 920l-129 -920h-174l17 106l-4 5q-121 -129 -248 -129q-126 0 -214.5 106.5t-88.5 257.5q0 262 164.5 432t459.5 170q120 0 217 -28zM647 266l76 531q-28 2 -54 2q-205 0 -312 -130.5t-107 -291.5q0 -111 51.5 -181.5t130.5 -70.5q63 0 138 62.5t77 78.5z" />
    <glyph glyph-name="b" unicode="b" 
d="M430 1397l-74 -551q100 102 224 102q142 0 232.5 -116.5t90.5 -303.5q0 -244 -154 -400.5t-444 -156.5q-143 0 -244 15l191 1411h178zM250 115h96q176 0 277.5 113t101.5 304q0 125 -53 195t-146 70q-59 0 -124 -34.5t-72 -82.5z" />
    <glyph glyph-name="c" unicode="c" horiz-adv-x="788" 
d="M731 205l-20 -168q-120 -66 -256 -66q-185 0 -295.5 115.5t-110.5 308.5q0 233 167.5 393t428.5 160q66 0 158 -16l-23 -154q-65 15 -133 15q-181 0 -300.5 -116t-119.5 -271q0 -130 67.5 -204.5t184.5 -74.5q124 0 252 78z" />
    <glyph glyph-name="d" unicode="d" 
d="M979 1397l-197 -1397q-101 -29 -235 -29q-233 0 -358.5 111t-125.5 315q0 200 163 375.5t442 175.5h73l64 449h174zM627 119l94 684h-45q-195 0 -314.5 -118.5t-119.5 -283.5q0 -137 79 -211.5t226 -74.5q53 0 80 4z" />
    <glyph glyph-name="e" unicode="e" horiz-adv-x="897" 
d="M795 240l-25 -166q-140 -103 -307 -103q-174 0 -279.5 121.5t-105.5 323.5q0 225 126.5 378.5t309.5 153.5q140 0 233 -107.5t93 -277.5q0 -42 -6 -86h-574q-8 -46 -8 -88q0 -127 69.5 -200.5t174.5 -73.5q128 0 299 125zM287 598h385q0 96 -43.5 151.5t-122.5 55.5
q-150 0 -219 -207z" />
    <glyph glyph-name="f" unicode="f" horiz-adv-x="555" 
d="M588 920l-23 -154h-186l-148 -1153h-170l148 1153h-148l23 154h145q17 237 132.5 366t310.5 129q102 0 223 -43l-25 -172q-94 51 -180 51q-258 0 -289 -331h187z" />
    <glyph glyph-name="g" unicode="g" horiz-adv-x="874" 
d="M911 920l-18 -136h-178q61 -86 61 -182q0 -110 -49.5 -194t-121 -118.5t-184.5 -55t-143 -41t-30 -48.5q0 -21 26 -38.5t187.5 -56.5t226 -104.5t64.5 -154.5q0 -112 -106 -187t-269 -75q-175 0 -287.5 68t-112.5 170q0 133 265 190q-160 59 -160 162q0 53 49 99.5
t133 70.5q-166 79 -166 264q0 155 100.5 261t241.5 106h471zM430 379q79 0 129.5 64.5t50.5 150.5q0 81 -46.5 132.5t-117.5 51.5q-70 0 -126 -65t-56 -148q0 -81 47 -133.5t119 -52.5zM391 -340q89 0 142 32t53 83q0 50 -87 90.5t-118 40.5q-39 0 -138.5 -41.5t-99.5 -93.5
q0 -51 66.5 -81t181.5 -30z" />
    <glyph glyph-name="h" unicode="h" 
d="M414 1397l-88 -625l4 -4q155 180 319 180q101 0 157.5 -68.5t56.5 -184.5q0 -33 -5 -68l-88 -627h-174l88 637q3 24 3 45q0 135 -107 135q-78 0 -177 -100.5t-102 -118.5l-84 -598h-174l197 1397h174z" />
    <glyph glyph-name="i" unicode="i" horiz-adv-x="385" 
d="M195 1208q0 42 29.5 71.5t70.5 29.5t70.5 -29.5t29.5 -71.5q0 -41 -29.5 -70.5t-70.5 -29.5t-70.5 29.5t-29.5 70.5zM350 920l-129 -920h-174l129 920h174z" />
    <glyph glyph-name="j" unicode="j" horiz-adv-x="385" 
d="M293 1309q41 0 70.5 -29.5t29.5 -71.5q0 -41 -29.5 -70.5t-70.5 -29.5t-70.5 29.5t-29.5 70.5q0 42 29.5 71.5t70.5 29.5zM41 -137l135 1057h174l-141 -1106q-18 -139 -102 -212t-216 -73q-57 0 -102 18l23 154q43 -10 77 -10q130 0 152 172z" />
    <glyph glyph-name="k" unicode="k" horiz-adv-x="938" 
d="M418 1397l-126 -881l390 404h221l-422 -435l451 -485h-221l-424 467l-66 -467h-172l195 1397h174z" />
    <glyph glyph-name="l" unicode="l" horiz-adv-x="385" 
d="M418 1397l-197 -1397h-174l197 1397h174z" />
    <glyph glyph-name="m" unicode="m" horiz-adv-x="1516" 
d="M350 920l-24 -160q161 174 321 174q178 0 209 -207q168 207 344 207q98 0 157.5 -67t59.5 -188q0 -38 -6 -83l-84 -596h-174l86 604q5 31 5 58q0 135 -99 135q-25 0 -55 -10.5t-67 -34.5t-100.5 -87t-66.5 -81l-84 -584h-174l82 582q7 43 7 77q0 138 -109 138
q-69 0 -171.5 -96.5t-105.5 -116.5l-82 -584h-174l131 920h174z" />
    <glyph glyph-name="n" unicode="n" 
d="M365 920l-23 -162l4 -4q147 180 305 180q107 0 166 -78.5t59 -202.5q0 -35 -6 -73l-88 -580h-172l84 586q5 31 5 57q0 72 -30 110t-75 38q-26 0 -58.5 -13t-69.5 -40t-91.5 -82t-57.5 -70l-84 -586h-172l129 920h175z" />
    <glyph glyph-name="o" unicode="o" horiz-adv-x="918" 
d="M514 948q155 0 248.5 -109.5t93.5 -291.5q0 -252 -126 -414t-310 -162q-162 0 -254 109t-92 303q0 241 127 403t313 162zM514 811q-107 0 -184.5 -132.5t-77.5 -313.5q0 -108 46.5 -176t115.5 -68q109 0 186.5 124t77.5 312q0 116 -45 185t-119 69z" />
    <glyph glyph-name="p" unicode="p" horiz-adv-x="1004" 
d="M428 1153l-33 -233q70 28 156 28q162 0 271.5 -122t109.5 -306q0 -219 -148.5 -384t-406.5 -165h-115l-61 -442h-174l163 1163q-56 -40 -101.5 -104t-51.5 -64q-8 0 -8 13q0 46 52.5 132.5t125.5 145.5l47 338h174zM377 791l-94 -672h84q177 0 282 119.5t105 281.5
q0 140 -74 218.5t-188 78.5q-61 0 -115 -26z" />
    <glyph glyph-name="q" unicode="q" 
d="M909 948l-198 -1419h-174l69 498q-113 -56 -190 -56q-157 0 -255 114.5t-98 299.5q0 241 170.5 402t481.5 161h194zM625 156l90 649q-223 11 -348 -107.5t-125 -322.5q0 -118 65.5 -189t173.5 -71q57 0 144 41z" />
    <glyph glyph-name="r" unicode="r" horiz-adv-x="641" 
d="M379 920l-27 -175l4 -4q82 117 130 155t114 38q41 0 76 -14v-197q-55 31 -107 31q-51 0 -91 -25.5t-97 -109t-59 -101.5l-72 -518h-174l129 920h174z" />
    <glyph glyph-name="s" unicode="s" horiz-adv-x="725" 
d="M662 852v-182q-159 121 -277 121q-53 0 -89 -28.5t-36 -68.5q0 -26 22.5 -55.5t142 -109.5t161 -147t41.5 -136q0 -121 -80.5 -198t-204.5 -77q-153 0 -319 121l30 168q172 -137 283 -137q52 0 85.5 29t33.5 73q0 33 -24.5 67.5t-142.5 116.5t-156 146t-38 129
q0 119 79 191.5t210 72.5q138 0 279 -96z" />
    <glyph glyph-name="t" unicode="t" horiz-adv-x="575" 
d="M584 920l-19 -136h-184l-88 -503q-7 -38 -7 -64q0 -90 97 -90q72 0 168 55l-10 -170q-96 -41 -191 -41q-113 0 -178.5 57.5t-65.5 151.5q0 23 5 47l96 557h-162l21 136h167l35 188h172l-32 -188h176z" />
    <glyph glyph-name="u" unicode="u" 
d="M898 920l-131 -920h-172l16 156q-159 -170 -303 -170q-93 0 -157.5 66.5t-64.5 189.5q0 35 5 71l86 607h174l-86 -607q-4 -30 -4 -56q0 -138 102 -138q107 0 277 203l84 598h174z" />
    <glyph glyph-name="v" unicode="v" horiz-adv-x="768" 
d="M842 920l-473 -938h-86l-209 938h172l125 -584l295 584h176z" />
    <glyph glyph-name="w" unicode="w" horiz-adv-x="1260" 
d="M1325 920l-473 -938h-82l-123 602l-311 -602h-80l-190 938h170l114 -619l299 619h86l115 -619l305 619h170z" />
    <glyph glyph-name="x" unicode="x" horiz-adv-x="874" 
d="M907 920l-370 -455l233 -465h-186l-168 344l-266 -344h-213l401 487l-217 433h186l146 -310l239 310h215z" />
    <glyph glyph-name="y" unicode="y" horiz-adv-x="768" 
d="M819 920l-659 -1391h-185l250 526l-178 865h174l127 -633l289 633h182z" />
    <glyph glyph-name="z" unicode="z" horiz-adv-x="938" 
d="M915 920l-610 -766h535l-33 -154h-834l600 766h-464l20 154h786z" />
    <glyph glyph-name="braceleft" unicode="{" horiz-adv-x="682" 
d="M57 449v163q109 0 158 73.5t49 260.5v180q0 196 69.5 280.5t221.5 84.5h80v-156h-31q-110 0 -142 -40t-32 -167v-147q0 -211 -47 -307.5t-160 -143.5q113 -46 160 -142.5t47 -307.5v-148q0 -126 32 -166t142 -40h31v-156h-80q-152 0 -221.5 84.5t-69.5 279.5v181
q0 187 -49 260.5t-158 73.5z" />
    <glyph glyph-name="bar" unicode="|" horiz-adv-x="532" 
d="M221 -471v1868h156v-1868h-156z" />
    <glyph glyph-name="braceright" unicode="}" horiz-adv-x="682" 
d="M625 612v-163q-109 0 -158 -73.5t-49 -260.5v-181q0 -195 -69.5 -279.5t-221.5 -84.5h-80v156h31q110 0 142 40t32 166v148q0 211 47 307.5t160 142.5q-113 47 -160 143.5t-47 307.5v147q0 127 -32 167t-142 40h-31v156h80q152 0 221.5 -84.5t69.5 -280.5v-180
q0 -187 49 -260.5t158 -73.5z" />
    <glyph glyph-name="asciitilde" unicode="~" horiz-adv-x="1196" 
d="M80 406v169q157 132 305 132q86 0 258 -78t246 -78q117 0 287 137v-170q-156 -131 -299 -131q-84 0 -258.5 78t-247.5 78q-117 0 -291 -137z" />
    <glyph glyph-name="Adieresis" unicode="&#xc4;" horiz-adv-x="1067" 
d="M721 1405l272 -1405h-172l-84 438h-438l-184 -438h-187l617 1405h176zM360 586h349l-107 573zM768 1661q0 39 28 67t66 28t66 -28t28 -67q0 -38 -28 -66t-66 -28t-66 28t-28 66zM401 1661q0 39 28 67t66 28t66 -28t28 -67q0 -38 -28 -66t-66 -28t-66 28t-28 66z" />
    <glyph glyph-name="Aring" unicode="&#xc5;" horiz-adv-x="1067" 
d="M721 1405l272 -1405h-172l-84 438h-438l-184 -438h-187l617 1405h176zM360 586h349l-107 573zM485 1670q0 79 56.5 135.5t136.5 56.5q79 0 135.5 -56.5t56.5 -135.5q0 -80 -56.5 -136.5t-135.5 -56.5q-80 0 -136.5 56.5t-56.5 136.5zM790 1666q0 45 -33.5 78.5
t-78.5 33.5q-46 0 -79.5 -33.5t-33.5 -78.5q0 -46 33.5 -79.5t79.5 -33.5q45 0 78.5 33.5t33.5 79.5z" />
    <glyph glyph-name="Ccedilla" unicode="&#xc7;" horiz-adv-x="1130" 
d="M1083 330l-30 -226q-220 -125 -437 -122l-10 -27q94 -42 94 -139q0 -75 -62 -125.5t-155 -50.5q-66 0 -139 14l25 94q56 -14 86 -14q96 0 96 78q0 43 -55 71l51 107q-208 35 -327.5 192t-119.5 381q0 376 261.5 614t693.5 238h133l-37 -176h-102q-362 0 -556 -194
t-194 -470q0 -190 100 -303.5t267 -113.5q86 0 202.5 46.5t214.5 125.5z" />
    <glyph glyph-name="Eacute" unicode="&#xc9;" horiz-adv-x="1044" 
d="M1020 1397l-23 -166h-559l-61 -438h493l-22 -166h-496l-67 -461h735l-25 -166h-917l203 1397h739zM704 1819h207l-232 -299h-114z" />
    <glyph glyph-name="Ntilde" unicode="&#xd1;" horiz-adv-x="1409" 
d="M1389 1397l-197 -1397h-100l-695 1020l-143 -1020h-174l196 1397h95l698 -1028l145 1028h175zM1096 1782h80q0 -99 -46.5 -166t-121.5 -67q-28 0 -138 39t-145 39q-61 0 -70 -76h-81q2 111 46.5 172t118.5 61q39 0 146 -38.5t141 -38.5q59 0 70 75z" />
    <glyph glyph-name="Odieresis" unicode="&#xd6;" horiz-adv-x="1343" 
d="M782 1415q221 0 357.5 -161.5t136.5 -424.5q0 -364 -199 -605.5t-475 -241.5q-218 0 -358 165t-140 424q0 323 190.5 583.5t487.5 260.5zM606 150q194 0 337.5 208.5t143.5 503.5q0 180 -83 282.5t-224 102.5q-216 0 -351.5 -215.5t-135.5 -486.5q0 -183 85 -289
t228 -106zM930 1661q0 39 28 67t66 28t66 -28t28 -67q0 -38 -28 -66t-66 -28t-66 28t-28 66zM563 1661q0 39 28 67t66 28t66 -28t28 -67q0 -38 -28 -66t-66 -28t-66 28t-28 66z" />
    <glyph glyph-name="Udieresis" unicode="&#xdc;" horiz-adv-x="1300" 
d="M1311 1397l-121 -862q-38 -272 -187 -412.5t-395 -140.5q-218 0 -348.5 118t-130.5 315q0 41 6 83l127 899h184l-129 -914q-4 -29 -4 -56q0 -129 85 -203t220 -74q117 0 206.5 55.5t123.5 138.5t57 250l113 803h193zM914 1661q0 39 28 67t66 28t66 -28t28 -67
q0 -38 -28 -66t-66 -28t-66 28t-28 66zM547 1661q0 39 28 67t66 28t66 -28t28 -67q0 -38 -28 -66t-66 -28t-66 28t-28 66z" />
    <glyph glyph-name="aacute" unicode="&#xe1;" 
d="M913 920l-129 -920h-174l17 106l-4 5q-121 -129 -248 -129q-126 0 -214.5 106.5t-88.5 257.5q0 262 164.5 432t459.5 170q120 0 217 -28zM647 266l76 531q-28 2 -54 2q-205 0 -312 -130.5t-107 -291.5q0 -111 51.5 -181.5t130.5 -70.5q63 0 138 62.5t77 78.5zM602 1372
h207l-232 -299h-114z" />
    <glyph glyph-name="agrave" unicode="&#xe0;" 
d="M913 920l-129 -920h-174l17 106l-4 5q-121 -129 -248 -129q-126 0 -214.5 106.5t-88.5 257.5q0 262 164.5 432t459.5 170q120 0 217 -28zM647 266l76 531q-28 2 -54 2q-205 0 -312 -130.5t-107 -291.5q0 -111 51.5 -181.5t130.5 -70.5q63 0 138 62.5t77 78.5zM592 1372
l139 -299h-115l-231 299h207z" />
    <glyph glyph-name="acircumflex" unicode="&#xe2;" 
d="M913 920l-129 -920h-174l17 106l-4 5q-121 -129 -248 -129q-126 0 -214.5 106.5t-88.5 257.5q0 262 164.5 432t459.5 170q120 0 217 -28zM647 266l76 531q-28 2 -54 2q-205 0 -312 -130.5t-107 -291.5q0 -111 51.5 -181.5t130.5 -70.5q63 0 138 62.5t77 78.5zM771 1372
l153 -303h-84l-170 203l-274 -203h-96l268 303h203z" />
    <glyph glyph-name="adieresis" unicode="&#xe4;" 
d="M913 920l-129 -920h-174l17 106l-4 5q-121 -129 -248 -129q-126 0 -214.5 106.5t-88.5 257.5q0 262 164.5 432t459.5 170q120 0 217 -28zM647 266l76 531q-28 2 -54 2q-205 0 -312 -130.5t-107 -291.5q0 -111 51.5 -181.5t130.5 -70.5q63 0 138 62.5t77 78.5zM719 1214
q0 39 28 67t66 28t66 -28t28 -67q0 -38 -28 -66t-66 -28t-66 28t-28 66zM352 1214q0 39 28 67t66 28t66 -28t28 -67q0 -38 -28 -66t-66 -28t-66 28t-28 66z" />
    <glyph glyph-name="atilde" unicode="&#xe3;" 
d="M913 920l-129 -920h-174l17 106l-4 5q-121 -129 -248 -129q-126 0 -214.5 106.5t-88.5 257.5q0 262 164.5 432t459.5 170q120 0 217 -28zM647 266l76 531q-28 2 -54 2q-205 0 -312 -130.5t-107 -291.5q0 -111 51.5 -181.5t130.5 -70.5q63 0 138 62.5t77 78.5zM811 1335
h80q0 -99 -46.5 -166t-121.5 -67q-28 0 -138 39t-145 39q-61 0 -70 -76h-81q2 111 46.5 172t118.5 61q39 0 146 -38.5t141 -38.5q59 0 70 75z" />
    <glyph glyph-name="aring" unicode="&#xe5;" 
d="M913 920l-129 -920h-174l17 106l-4 5q-121 -129 -248 -129q-126 0 -214.5 106.5t-88.5 257.5q0 262 164.5 432t459.5 170q120 0 217 -28zM647 266l76 531q-28 2 -54 2q-205 0 -312 -130.5t-107 -291.5q0 -111 51.5 -181.5t130.5 -70.5q63 0 138 62.5t77 78.5zM436 1223
q0 79 56.5 135.5t136.5 56.5q79 0 135.5 -56.5t56.5 -135.5q0 -80 -56.5 -136.5t-135.5 -56.5q-80 0 -136.5 56.5t-56.5 136.5zM741 1219q0 45 -33.5 78.5t-78.5 33.5q-46 0 -79.5 -33.5t-33.5 -78.5q0 -46 33.5 -79.5t79.5 -33.5q45 0 78.5 33.5t33.5 79.5z" />
    <glyph glyph-name="ccedilla" unicode="&#xe7;" horiz-adv-x="788" 
d="M731 205l-20 -168q-119 -66 -269 -66l-10 -26q94 -42 94 -140q0 -74 -62 -125t-155 -51q-66 0 -139 15l25 94q56 -14 86 -14q96 0 96 77q0 44 -55 72l51 107q-154 24 -239 135.5t-85 279.5q0 233 167.5 393t428.5 160q66 0 158 -16l-23 -154q-65 15 -133 15
q-181 0 -300.5 -116t-119.5 -271q0 -130 67.5 -204.5t184.5 -74.5q124 0 252 78z" />
    <glyph glyph-name="eacute" unicode="&#xe9;" horiz-adv-x="897" 
d="M795 240l-25 -166q-140 -103 -307 -103q-174 0 -279.5 121.5t-105.5 323.5q0 225 126.5 378.5t309.5 153.5q140 0 233 -107.5t93 -277.5q0 -42 -6 -86h-574q-8 -46 -8 -88q0 -127 69.5 -200.5t174.5 -73.5q128 0 299 125zM287 598h385q0 96 -43.5 151.5t-122.5 55.5
q-150 0 -219 -207zM571 1372h207l-232 -299h-114z" />
    <glyph glyph-name="egrave" unicode="&#xe8;" horiz-adv-x="897" 
d="M795 240l-25 -166q-140 -103 -307 -103q-174 0 -279.5 121.5t-105.5 323.5q0 225 126.5 378.5t309.5 153.5q140 0 233 -107.5t93 -277.5q0 -42 -6 -86h-574q-8 -46 -8 -88q0 -127 69.5 -200.5t174.5 -73.5q128 0 299 125zM287 598h385q0 96 -43.5 151.5t-122.5 55.5
q-150 0 -219 -207zM520 1372l139 -299h-115l-231 299h207z" />
    <glyph glyph-name="ecircumflex" unicode="&#xea;" horiz-adv-x="897" 
d="M795 240l-25 -166q-140 -103 -307 -103q-174 0 -279.5 121.5t-105.5 323.5q0 225 126.5 378.5t309.5 153.5q140 0 233 -107.5t93 -277.5q0 -42 -6 -86h-574q-8 -46 -8 -88q0 -127 69.5 -200.5t174.5 -73.5q128 0 299 125zM287 598h385q0 96 -43.5 151.5t-122.5 55.5
q-150 0 -219 -207zM699 1372l153 -303h-84l-170 203l-274 -203h-96l268 303h203z" />
    <glyph glyph-name="edieresis" unicode="&#xeb;" horiz-adv-x="897" 
d="M795 240l-25 -166q-140 -103 -307 -103q-174 0 -279.5 121.5t-105.5 323.5q0 225 126.5 378.5t309.5 153.5q140 0 233 -107.5t93 -277.5q0 -42 -6 -86h-574q-8 -46 -8 -88q0 -127 69.5 -200.5t174.5 -73.5q128 0 299 125zM287 598h385q0 96 -43.5 151.5t-122.5 55.5
q-150 0 -219 -207zM648 1214q0 39 28 67t66 28t66 -28t28 -67q0 -38 -28 -66t-66 -28t-66 28t-28 66zM281 1214q0 39 28 67t66 28t66 -28t28 -67q0 -38 -28 -66t-66 -28t-66 28t-28 66z" />
    <glyph glyph-name="iacute" unicode="&#xed;" horiz-adv-x="385" 
d="M350 920l-129 -920h-174l129 920h174zM317 1372h207l-232 -299h-114z" />
    <glyph glyph-name="igrave" unicode="&#xec;" horiz-adv-x="385" 
d="M350 920l-129 -920h-174l129 920h174zM266 1372l139 -299h-115l-231 299h207z" />
    <glyph glyph-name="icircumflex" unicode="&#xee;" horiz-adv-x="385" 
d="M350 920l-129 -920h-174l129 920h174zM444 1372l153 -303h-84l-170 203l-274 -203h-96l268 303h203z" />
    <glyph glyph-name="idieresis" unicode="&#xef;" horiz-adv-x="385" 
d="M350 920l-129 -920h-174l129 920h174zM394 1214q0 39 28 67t66 28t66 -28t28 -67q0 -38 -28 -66t-66 -28t-66 28t-28 66zM27 1214q0 39 28 67t66 28t66 -28t28 -67q0 -38 -28 -66t-66 -28t-66 28t-28 66z" />
    <glyph glyph-name="ntilde" unicode="&#xf1;" 
d="M365 920l-23 -162l4 -4q147 180 305 180q107 0 166 -78.5t59 -202.5q0 -35 -6 -73l-88 -580h-172l84 586q5 31 5 57q0 72 -30 110t-75 38q-26 0 -58.5 -13t-69.5 -40t-91.5 -82t-57.5 -70l-84 -586h-172l129 920h175zM811 1335h80q0 -99 -46.5 -166t-121.5 -67
q-28 0 -138 39t-145 39q-61 0 -70 -76h-81q2 111 46.5 172t118.5 61q39 0 146 -38.5t141 -38.5q59 0 70 75z" />
    <glyph glyph-name="oacute" unicode="&#xf3;" horiz-adv-x="918" 
d="M514 948q155 0 248.5 -109.5t93.5 -291.5q0 -252 -126 -414t-310 -162q-162 0 -254 109t-92 303q0 241 127 403t313 162zM514 811q-107 0 -184.5 -132.5t-77.5 -313.5q0 -108 46.5 -176t115.5 -68q109 0 186.5 124t77.5 312q0 116 -45 185t-119 69zM581 1372h207
l-232 -299h-114z" />
    <glyph glyph-name="ograve" unicode="&#xf2;" horiz-adv-x="918" 
d="M514 948q155 0 248.5 -109.5t93.5 -291.5q0 -252 -126 -414t-310 -162q-162 0 -254 109t-92 303q0 241 127 403t313 162zM514 811q-107 0 -184.5 -132.5t-77.5 -313.5q0 -108 46.5 -176t115.5 -68q109 0 186.5 124t77.5 312q0 116 -45 185t-119 69zM531 1372l139 -299
h-115l-231 299h207z" />
    <glyph glyph-name="ocircumflex" unicode="&#xf4;" horiz-adv-x="918" 
d="M514 948q155 0 248.5 -109.5t93.5 -291.5q0 -252 -126 -414t-310 -162q-162 0 -254 109t-92 303q0 241 127 403t313 162zM514 811q-107 0 -184.5 -132.5t-77.5 -313.5q0 -108 46.5 -176t115.5 -68q109 0 186.5 124t77.5 312q0 116 -45 185t-119 69zM709 1372l153 -303
h-84l-170 203l-274 -203h-96l268 303h203z" />
    <glyph glyph-name="odieresis" unicode="&#xf6;" horiz-adv-x="918" 
d="M514 948q155 0 248.5 -109.5t93.5 -291.5q0 -252 -126 -414t-310 -162q-162 0 -254 109t-92 303q0 241 127 403t313 162zM514 811q-107 0 -184.5 -132.5t-77.5 -313.5q0 -108 46.5 -176t115.5 -68q109 0 186.5 124t77.5 312q0 116 -45 185t-119 69zM658 1214q0 39 28 67
t66 28t66 -28t28 -67q0 -38 -28 -66t-66 -28t-66 28t-28 66zM291 1214q0 39 28 67t66 28t66 -28t28 -67q0 -38 -28 -66t-66 -28t-66 28t-28 66z" />
    <glyph glyph-name="otilde" unicode="&#xf5;" horiz-adv-x="918" 
d="M514 948q155 0 248.5 -109.5t93.5 -291.5q0 -252 -126 -414t-310 -162q-162 0 -254 109t-92 303q0 241 127 403t313 162zM514 811q-107 0 -184.5 -132.5t-77.5 -313.5q0 -108 46.5 -176t115.5 -68q109 0 186.5 124t77.5 312q0 116 -45 185t-119 69zM790 1335h80
q0 -99 -46.5 -166t-121.5 -67q-28 0 -138 39t-145 39q-61 0 -70 -76h-81q2 111 46.5 172t118.5 61q39 0 146 -38.5t141 -38.5q59 0 70 75z" />
    <glyph glyph-name="uacute" unicode="&#xfa;" 
d="M898 920l-131 -920h-172l16 156q-159 -170 -303 -170q-93 0 -157.5 66.5t-64.5 189.5q0 35 5 71l86 607h174l-86 -607q-4 -30 -4 -56q0 -138 102 -138q107 0 277 203l84 598h174zM605 1372h207l-232 -299h-114z" />
    <glyph glyph-name="ugrave" unicode="&#xf9;" 
d="M898 920l-131 -920h-172l16 156q-159 -170 -303 -170q-93 0 -157.5 66.5t-64.5 189.5q0 35 5 71l86 607h174l-86 -607q-4 -30 -4 -56q0 -138 102 -138q107 0 277 203l84 598h174zM554 1372l139 -299h-115l-231 299h207z" />
    <glyph glyph-name="ucircumflex" unicode="&#xfb;" 
d="M898 920l-131 -920h-172l16 156q-159 -170 -303 -170q-93 0 -157.5 66.5t-64.5 189.5q0 35 5 71l86 607h174l-86 -607q-4 -30 -4 -56q0 -138 102 -138q107 0 277 203l84 598h174zM733 1372l153 -303h-84l-170 203l-274 -203h-96l268 303h203z" />
    <glyph glyph-name="udieresis" unicode="&#xfc;" 
d="M898 920l-131 -920h-172l16 156q-159 -170 -303 -170q-93 0 -157.5 66.5t-64.5 189.5q0 35 5 71l86 607h174l-86 -607q-4 -30 -4 -56q0 -138 102 -138q107 0 277 203l84 598h174zM681 1214q0 39 28 67t66 28t66 -28t28 -67q0 -38 -28 -66t-66 -28t-66 28t-28 66z
M314 1214q0 39 28 67t66 28t66 -28t28 -67q0 -38 -28 -66t-66 -28t-66 28t-28 66z" />
    <glyph glyph-name="dagger" unicode="&#x2020;" horiz-adv-x="981" 
d="M502 829q-10 132 -10 265q0 321 129 321q73 0 73 -135q0 -155 -135 -451q167 60 287 60q53 0 86 -24t33 -62q0 -33 -37.5 -57.5t-89.5 -24.5q-97 0 -279 59q-2 -225 -27.5 -579t-62 -513t-115.5 -159q-86 0 -86 143q0 260 234 1108q-175 -59 -277 -59q-55 0 -89 24
t-34 62q0 34 38 57t98 23q86 0 264 -58z" />
    <glyph glyph-name="degree" unicode="&#xb0;" horiz-adv-x="811" 
d="M127 1214q0 115 81 196t195 81q115 0 196 -81t81 -196q0 -114 -81 -195t-196 -81q-114 0 -195 81t-81 195zM573 1214q0 70 -49.5 119t-120.5 49q-70 0 -118.5 -48.5t-48.5 -119.5q0 -70 48.5 -120t118.5 -50q71 0 120.5 50t49.5 120z" />
    <glyph glyph-name="cent" unicode="&#xa2;" horiz-adv-x="788" 
d="M807 930l-23 -152q-75 15 -129 15l-204 -666q154 -14 292 94l-26 -184q-105 -67 -239 -67q-44 0 -75 12l-114 -367h-94l118 385q-256 95 -256 406q0 215 152.5 370t400.5 168l109 361h100l-112 -361q72 -7 100 -14zM362 152l197 632q-151 -33 -237 -136.5t-86 -241.5
q0 -176 126 -254z" />
    <glyph glyph-name="sterling" unicode="&#xa3;" 
d="M1036 1391l-24 -172q-56 22 -105 22q-113 0 -203 -116t-174 -357h224l-49 -166h-226l-139 -409q48 4 57 4q49 0 144 -17.5t164 -17.5q115 0 231 55l-27 -190q-95 -45 -227 -45q-48 0 -168 17t-195 17q-73 0 -161 -16l-74 -16h-10l215 618h-180l49 166h182
q111 328 247 487.5t318 159.5q59 0 131 -24z" />
    <glyph glyph-name="section" unicode="&#xa7;" horiz-adv-x="1004" 
d="M946 1114l-164 -59q23 40 23 84q0 58 -38 95.5t-97 37.5q-80 0 -136.5 -49t-56.5 -121q0 -45 30 -95t176.5 -172t193.5 -215.5t47 -185.5q0 -99 -75 -193t-202 -147q105 -135 105 -248q0 -138 -103 -227.5t-264 -89.5q-151 0 -242.5 75t-89.5 218l158 88q-5 -30 -5 -58
q0 -180 179 -180q81 0 134.5 44t53.5 114q0 49 -34.5 105.5t-189.5 188t-202 217t-47 165.5q0 115 83 208.5t222 125.5q-110 116 -110 241q0 147 108.5 240.5t280.5 93.5q122 0 195 -66.5t73 -173.5q0 -30 -6 -61zM522 209q104 26 163.5 85t59.5 128q0 130 -202 295
q-122 -6 -193.5 -63.5t-71.5 -141.5q0 -82 87.5 -159.5t156.5 -143.5z" />
    <glyph glyph-name="bullet" unicode="&#x2022;" horiz-adv-x="725" 
d="M393 952q104 0 179 -75t75 -179t-75 -179t-179 -75t-179 75t-75 179t75 179t179 75z" />
    <glyph glyph-name="paragraph" unicode="&#xb6;" horiz-adv-x="1110" 
d="M446 -408v994q-192 12 -297.5 124t-105.5 292q0 197 122.5 305t348.5 108h633v-166h-146v-1657h-165v1657h-224v-1657h-166z" />
    <glyph glyph-name="germandbls" unicode="&#xdf;" horiz-adv-x="1024" 
d="M84 0l129 920q71 495 412 495q148 0 244 -93t96 -239q0 -102 -62 -184t-166 -108v-5q92 -38 140.5 -130.5t48.5 -196.5q0 -200 -119 -344t-281 -144q-67 0 -108 29l18 131q33 -8 70 -8q109 0 177.5 96.5t68.5 253.5q0 246 -230 272l17 119q120 -11 195 53.5t75 163.5
q0 91 -50.5 147t-129.5 56q-105 0 -159.5 -81t-80.5 -263l-131 -940h-174z" />
    <glyph glyph-name="registered" unicode="&#xae;" horiz-adv-x="1516" 
d="M2 737q0 312 221 533t533 221t533.5 -221t221.5 -533t-221.5 -533.5t-533.5 -221.5t-533 221.5t-221 533.5zM1386 737q0 260 -185 444.5t-445 184.5t-444.5 -184.5t-184.5 -444.5t184.5 -445.5t444.5 -185.5t445 185.5t185 445.5zM454 319v811h358q128 0 198.5 -63
t70.5 -149q0 -96 -62.5 -161t-169.5 -73v-4q76 -22 189 -203l98 -158h-160l-71 127q-70 123 -114 170.5t-128 47.5h-78v-345h-131zM585 776h188q168 0 168 123q0 54 -40 87.5t-105 33.5h-211v-244z" />
    <glyph glyph-name="copyright" unicode="&#xa9;" horiz-adv-x="1516" 
d="M2 737q0 312 221 533t533 221t533.5 -221t221.5 -533t-221.5 -533.5t-533.5 -221.5t-533 221.5t-221 533.5zM1386 737q0 260 -185 444.5t-445 184.5t-444.5 -184.5t-184.5 -444.5t184.5 -445.5t444.5 -185.5t445 185.5t185 445.5zM999 614l123 -36q-69 -273 -372 -273
q-178 0 -283 119.5t-105 323.5q0 186 110.5 298.5t293.5 112.5q269 0 342 -235l-119 -29q-61 154 -233 154q-116 0 -186 -88t-70 -234q0 -143 68.5 -224t189.5 -81q86 0 152.5 51.5t88.5 140.5z" />
    <glyph glyph-name="trademark" unicode="&#x2122;" horiz-adv-x="2048" 
d="M408 651v695h-265v120h666v-120h-266v-695h-135zM901 651v815h201l207 -651l196 651h197v-815h-125l2 684l-211 -684h-123l-219 695v-695h-125z" />
    <glyph glyph-name="acute" unicode="&#xb4;" horiz-adv-x="682" 
d="M463 1372h207l-232 -299h-114z" />
    <glyph glyph-name="dieresis" unicode="&#xa8;" horiz-adv-x="682" 
d="M539 1214q0 39 28 67t66 28t66 -28t28 -67q0 -38 -28 -66t-66 -28t-66 28t-28 66zM172 1214q0 39 28 67t66 28t66 -28t28 -67q0 -38 -28 -66t-66 -28t-66 28t-28 66z" />
    <glyph glyph-name="notequal" unicode="&#x2260;" horiz-adv-x="1195" 
d="M415 417h-301v168h367l109 277h-476v168h542l209 535h125l-209 -535h301v-168h-366l-109 -277h475v-168h-540l-209 -536h-127z" />
    <glyph glyph-name="AE" unicode="&#xc6;" horiz-adv-x="1706" 
d="M1640 1397l-22 -166h-535l-61 -432h502l-23 -166h-502l-65 -467h729l-23 -166h-913l88 633h-311l-348 -633h-199l797 1397h886zM901 1243h-63l-254 -463h252z" />
    <glyph glyph-name="Oslash" unicode="&#xd8;" horiz-adv-x="1343" 
d="M1122 1274l133 160l78 -93l-139 -165q82 -134 82 -347q0 -364 -199 -605.5t-475 -241.5q-181 0 -311 116l-154 -182l-78 84l154 184q-109 163 -109 387q0 323 190.5 583.5t487.5 260.5q200 0 340 -141zM334 330l676 809q-75 108 -230 108q-216 0 -351.5 -215.5
t-135.5 -486.5q0 -106 41 -215zM1067 1024l-668 -795q74 -79 207 -79q194 0 337.5 208.5t143.5 503.5q0 89 -20 162z" />
    <glyph glyph-name="infinity" unicode="&#x221e;" horiz-adv-x="1460" 
d="M689 812q105 132 164 174q80 58 169 58q105 0 196.5 -76t91.5 -245q0 -118 -34 -185.5t-106 -108.5t-148 -41q-89 0 -169 57q-59 43 -164 175q-136 -171 -289 -171q-101 0 -173.5 76.5t-72.5 190.5q0 113 72.5 190t173.5 77q153 0 289 -171zM758 717q87 -135 159 -185
q46 -33 103 -33q76 0 127.5 56t51.5 158q0 106 -52.5 162t-130.5 56q-49 0 -92 -28q-58 -39 -166 -186zM620 716q-80 100 -128 128.5t-92 28.5q-58 0 -96.5 -41t-38.5 -113q0 -71 40 -113.5t97 -42.5q101 0 218 153z" />
    <glyph glyph-name="plusminus" unicode="&#xb1;" horiz-adv-x="1196" 
d="M545 1206h168v-399h399v-168h-399v-399h-168v399h-400v168h400v399zM145 168h967v-168h-967v168z" />
    <glyph glyph-name="lessequal" unicode="&#x2264;" horiz-adv-x="1195" 
d="M114 762v168l968 410v-180l-768 -315l768 -319v-179zM1082 106h-968v167h968v-167z" />
    <glyph glyph-name="greaterequal" unicode="&#x2265;" horiz-adv-x="1195" 
d="M1082 762l-968 -415v179l768 319l-768 315v180l968 -410v-168zM1082 106h-968v167h968v-167z" />
    <glyph glyph-name="yen" unicode="&#xa5;" horiz-adv-x="1130" 
d="M1108 750l-29 -136h-405l-33 -151h408l-29 -135h-406l-69 -328h-180l67 328h-405l30 135h404l31 151h-408l29 136h342l-273 716h183l247 -694l478 694h216l-532 -716h334z" />
    <glyph glyph-name="mu1" unicode="&#xb5;" horiz-adv-x="1130" 
d="M276 920h175l-119 -566q-8 -40 -8 -75q0 -83 43.5 -130t119.5 -47q208 0 261 254l116 564h174l-190 -920h-158l8 66q-106 -95 -225 -95q-120 0 -199 111l-88 -436h-172z" />
    <glyph glyph-name="partialdiff" unicode="&#x2202;" horiz-adv-x="1012" 
d="M422 1138l-135 60q70 157 168 225t192 68q76 0 137.5 -39.5t92.5 -90.5q47 -79 69.5 -187t22.5 -248q0 -288 -86.5 -512.5t-233.5 -331.5t-289 -107q-137 0 -222.5 91t-85.5 256q0 226 153 387q197 207 649 215q-4 168 -24 256t-68 135.5t-113 47.5q-62 0 -121 -49.5
t-106 -175.5zM850 796q-244 -14 -357.5 -68t-187 -176.5t-73.5 -248.5q0 -83 51 -137t119 -54q75 0 160 55q117 76 190.5 234.5t97.5 394.5z" />
    <glyph glyph-name="summation" unicode="&#x2211;" horiz-adv-x="1460" 
d="M139 1491h1237v-164h-988l607 -775l-649 -822h1040v-161h-1264v187l620 788l-603 772v175z" />
    <glyph glyph-name="product" unicode="&#x220f;" horiz-adv-x="1686" 
d="M161 1491h1362v-1922h-191v1748h-978v-1748h-193v1922z" />
    <glyph glyph-name="pi" unicode="&#xf006;" horiz-adv-x="1124" 
d="M126 914l44 149h1061l-48 -150h-120l-281 -913h-201l280 913l-378 1l-280 -914h-203l282 914h-156z" />
    <glyph glyph-name="integral" unicode="&#x222b;" horiz-adv-x="561" 
d="M602 1760q0 -39 -29.5 -64t-75.5 -25q-37 0 -60 25t-44 25q-18 0 -27.5 -14.5t-9.5 -43.5q0 -34 19.5 -256t19.5 -551q0 -505 -30 -709.5t-79 -282.5q-26 -41 -67.5 -62t-85.5 -21q-49 0 -86 35t-37 85q0 38 25.5 65t64.5 27q34 0 65.5 -33t44.5 -33q25 0 39.5 44.5
t14.5 153.5q0 37 -6 197t-6 562q0 481 17 638.5t41 215.5q29 70 69 104t84 34q57 0 98 -32.5t41 -83.5z" />
    <glyph glyph-name="ordfeminine" unicode="&#xaa;" horiz-adv-x="641" 
d="M670 1397l-86 -553h-135l6 47q-71 -53 -144 -53q-87 0 -146 62.5t-59 154.5q0 161 113.5 260.5t298.5 99.5q75 0 152 -18zM473 1010l47 305q-125 0 -199.5 -64t-74.5 -180q0 -61 29 -101t73 -40q55 0 125 80z" />
    <glyph glyph-name="ordmasculine" unicode="&#xba;" horiz-adv-x="618" 
d="M418 1415q105 0 167 -66.5t62 -179.5q0 -149 -82 -245.5t-209 -96.5q-109 0 -171 66.5t-62 183.5q0 144 85 241t210 97zM354 922q63 0 109.5 74.5t46.5 179.5q0 145 -92 145q-69 0 -113.5 -74.5t-44.5 -197.5q0 -54 27.5 -90.5t66.5 -36.5z" />
    <glyph glyph-name="Ohm" unicode="&#x2126;" horiz-adv-x="1573" 
d="M496 160q-108 67 -165 130q-87 96 -134 225.5t-47 286.5q0 196 79.5 360.5t231 252.5t347.5 88q336 0 516 -254q131 -186 131 -448q0 -168 -54 -297.5t-141 -222.5q-53 -58 -149 -121l364 6v-166h-575v177q80 40 124 78q72 61 122 145t75.5 179t25.5 198
q0 138 -49.5 277.5t-150 212.5t-243.5 73q-191 0 -296 -120q-146 -169 -146 -440q0 -217 91 -372.5t251 -227.5v-180h-577v168z" />
    <glyph glyph-name="ae" unicode="&#xe6;" horiz-adv-x="1323" 
d="M1204 244l-24 -178q-149 -95 -299 -95q-211 0 -312 174q-155 -174 -309 -174q-107 0 -171 60t-64 159q0 252 510 345q18 60 18 111q0 70 -34 110.5t-93 40.5q-134 0 -303 -170l29 196q152 125 307 125q138 0 205 -125q119 125 284 125q133 0 220.5 -116.5t87.5 -287.5
q0 -52 -9 -104h-547q-12 -53 -12 -100q0 -106 60.5 -165.5t156.5 -59.5q131 0 299 129zM717 561h373q4 95 -41 169.5t-131 74.5q-79 0 -135.5 -63t-65.5 -181zM494 217l26 191q-151 -30 -234 -86t-83 -123q0 -37 26 -60.5t66 -23.5q91 0 199 102z" />
    <glyph glyph-name="oslash" unicode="&#xf8;" horiz-adv-x="918" 
d="M881 879l-80 -95q55 -101 55 -237q0 -252 -126 -414t-310 -162q-148 0 -238 92l-84 -96l-61 68l90 104q-53 101 -53 244q0 241 127 403t313 162q142 0 231 -92l76 88zM260 293l377 438q-45 80 -123 80q-107 0 -184.5 -132.5t-77.5 -313.5q0 -42 8 -72zM672 633l-377 -438
q46 -74 119 -74q109 0 186.5 124t77.5 312q0 42 -6 76z" />
    <glyph glyph-name="questiondown" unicode="&#xbf;" horiz-adv-x="725" 
d="M612 854q0 -49 -35 -84t-83 -35q-49 0 -84 35t-35 84t35 84t84 35q48 0 83 -35t35 -84zM555 -190l-29 -203q-121 -78 -229 -78q-135 0 -217 86.5t-82 228.5q0 67 30 139t159.5 211.5t172.5 232t54 177.5h112q0 -117 -41 -239t-155.5 -258.5t-134 -179.5t-19.5 -79
q0 -69 41.5 -111t110.5 -42q102 0 227 115z" />
    <glyph glyph-name="exclamdown" unicode="&#xa1;" horiz-adv-x="512" 
d="M428 854q0 -49 -35 -84t-84 -35t-84 35t-35 84t35 84t84 35t84 -35t35 -84zM322 604q-27 -257 -42 -580.5t-38.5 -409t-112.5 -85.5q-82 0 -82 121q0 71 68 366l131 588h76z" />
    <glyph glyph-name="logicalnot" unicode="&#xac;" horiz-adv-x="1196" 
d="M1112 258h-168v436h-801v168h969v-604z" />
    <glyph glyph-name="radical" unicode="&#x221a;" horiz-adv-x="1124" 
d="M1055 1868l-307 -1946l-498 1028l-197 -96l-33 68l299 147l404 -825l260 1634z" />
    <glyph glyph-name="florin" unicode="&#x192;" horiz-adv-x="1130" 
d="M47 -406l35 156q98 -22 154 -22q98 0 118 120l185 1074h-201l22 139h203l29 174q43 258 287 258q76 0 206 -39l-34 -154q-99 25 -160 25q-56 0 -82 -32t-43 -128l-18 -104h202l-24 -139h-205l-191 -1092q-24 -142 -83.5 -201t-182.5 -59q-95 0 -217 24z" />
    <glyph glyph-name="approxequal" unicode="&#x2248;" horiz-adv-x="1196" 
d="M80 610v169q157 132 305 132q86 0 258 -78t246 -78q117 0 287 137v-170q-156 -131 -299 -131q-84 0 -258.5 78t-247.5 78q-117 0 -291 -137zM80 250v169q157 132 305 132q86 0 258 -78t246 -78q117 0 287 137v-170q-156 -131 -299 -131q-84 0 -258.5 78t-247.5 78
q-117 0 -291 -137z" />
    <glyph glyph-name="Delta" unicode="&#x2206;" horiz-adv-x="1253" 
d="M668 1409l577 -1409h-1233zM594 1059l-447 -959h844z" />
    <glyph glyph-name="guillemotleft" unicode="&#xab;" horiz-adv-x="897" 
d="M913 920l-354 -482l172 -438h-139l-180 459l344 461h157zM516 920l-354 -482l172 -438h-139l-181 459l344 461h158z" />
    <glyph glyph-name="guillemotright" unicode="&#xbb;" horiz-adv-x="897" 
d="M348 0l354 481l-172 439h140l180 -459l-344 -461h-158zM-53 0l354 481l-172 439h139l181 -459l-345 -461h-157z" />
    <glyph glyph-name="ellipsis" unicode="&#x2026;" horiz-adv-x="2048" 
d="M1524 104q0 51 35.5 87t87.5 36q50 0 85 -36t35 -87q0 -50 -35 -86t-85 -36q-52 0 -87.5 35.5t-35.5 86.5zM840 104q0 51 36 87t87 36q50 0 86 -36t36 -87q0 -50 -36 -86t-86 -36q-51 0 -87 36t-36 86zM158 102q0 51 35 86t86 35q50 0 86 -35t36 -86q0 -50 -36 -85
t-86 -35q-51 0 -86 35t-35 85z" />
    <glyph glyph-name="nonbreakingspace" unicode="&#xa0;" horiz-adv-x="569" 
 />
    <glyph glyph-name="Agrave" unicode="&#xc0;" horiz-adv-x="1067" 
d="M721 1405l272 -1405h-172l-84 438h-438l-184 -438h-187l617 1405h176zM360 586h349l-107 573zM641 1819l139 -299h-115l-231 299h207z" />
    <glyph glyph-name="Atilde" unicode="&#xc3;" horiz-adv-x="1067" 
d="M721 1405l272 -1405h-172l-84 438h-438l-184 -438h-187l617 1405h176zM360 586h349l-107 573zM901 1782h80q0 -99 -46.5 -166t-121.5 -67q-28 0 -138 39t-145 39q-61 0 -70 -76h-81q2 111 46.5 172t118.5 61q39 0 146 -38.5t141 -38.5q59 0 70 75z" />
    <glyph glyph-name="Otilde" unicode="&#xd5;" horiz-adv-x="1343" 
d="M782 1415q221 0 357.5 -161.5t136.5 -424.5q0 -364 -199 -605.5t-475 -241.5q-218 0 -358 165t-140 424q0 323 190.5 583.5t487.5 260.5zM606 150q194 0 337.5 208.5t143.5 503.5q0 180 -83 282.5t-224 102.5q-216 0 -351.5 -215.5t-135.5 -486.5q0 -183 85 -289
t228 -106zM1063 1782h80q0 -99 -46.5 -166t-121.5 -67q-28 0 -138 39t-145 39q-61 0 -70 -76h-81q2 111 46.5 172t118.5 61q39 0 146 -38.5t141 -38.5q59 0 70 75z" />
    <glyph glyph-name="OE" unicode="&#x152;" horiz-adv-x="1985" 
d="M1909 1397l-25 -166h-563l-59 -436h528l-25 -166h-528l-63 -463h751l-22 -166h-926l-244 -8q-307 0 -468 170t-161 459q0 167 93 358t266.5 304.5t408.5 113.5h1037zM1139 1231h-115l-180 2q-247 0 -394 -171t-147 -460q0 -210 101 -323t284 -113h301z" />
    <glyph glyph-name="oe" unicode="&#x153;" horiz-adv-x="1473" 
d="M1386 481h-567q-10 -52 -10 -100q0 -124 65.5 -195t184.5 -71q150 0 289 137l-29 -193q-131 -88 -272 -88q-221 0 -347 191q-139 -191 -299 -191q-162 0 -254 109t-92 303q0 241 127.5 403t313.5 162q179 0 272 -164q130 164 299 164q155 0 238.5 -103.5t83.5 -297.5
q0 -32 -3 -66zM407 120q98 0 165 131.5t67 330.5q0 107 -45 168t-98 61q-109 0 -186 -132t-77 -314q0 -104 44 -174.5t130 -70.5zM836 602h385q-6 209 -170 209t-215 -209z" />
    <glyph glyph-name="endash" unicode="&#x2013;" horiz-adv-x="1024" 
d="M1042 584v-131h-1060v131h1060z" />
    <glyph glyph-name="emdash" unicode="&#x2014;" horiz-adv-x="2048" 
d="M2066 584v-131h-2084v131h2084z" />
    <glyph glyph-name="quotedblleft" unicode="&#x201c;" horiz-adv-x="831" 
d="M899 1413l-12 -90q-135 -44 -135 -176q79 -35 79 -105q0 -53 -36 -86.5t-93 -33.5q-54 0 -91.5 46t-37.5 115q0 114 87.5 204.5t238.5 125.5zM459 1413l-13 -90q-135 -44 -135 -176q80 -35 80 -105q0 -53 -36 -86.5t-93 -33.5q-55 0 -92 46t-37 115q0 114 87 204.5
t239 125.5z" />
    <glyph glyph-name="quotedblright" unicode="&#x201d;" horiz-adv-x="831" 
d="M567 924l13 90q135 44 135 176q-80 35 -80 104q0 54 36 87.5t93 33.5q55 0 92 -46t37 -116q0 -113 -87 -204t-239 -125zM127 924l12 90q135 44 135 176q-79 35 -79 104q0 54 36 87.5t93 33.5q54 0 91.5 -46t37.5 -116q0 -113 -87.5 -204t-238.5 -125z" />
    <glyph glyph-name="quoteleft" unicode="&#x2018;" horiz-adv-x="406" 
d="M483 1413l-12 -90q-135 -44 -135 -176q80 -35 80 -105q0 -53 -36 -86.5t-93 -33.5q-55 0 -92 46t-37 115q0 114 87 204.5t238 125.5z" />
    <glyph glyph-name="quoteright" unicode="&#x2019;" horiz-adv-x="406" 
d="M123 924l12 90q135 44 135 176q-80 35 -80 104q0 54 36.5 87.5t92.5 33.5q55 0 92.5 -46t37.5 -116q0 -113 -87.5 -204t-238.5 -125z" />
    <glyph glyph-name="divide" unicode="&#xf7;" horiz-adv-x="1196" 
d="M520 1024q0 44 32 76.5t77 32.5q44 0 76 -32.5t32 -76.5t-32 -76.5t-76 -32.5q-45 0 -77 32.5t-32 76.5zM145 807h967v-168h-967v168zM520 422q0 44 32 76t77 32q44 0 76 -32t32 -76t-32 -76.5t-76 -32.5q-45 0 -77 32.5t-32 76.5z" />
    <glyph glyph-name="lozenge" unicode="&#x25ca;" horiz-adv-x="1012" 
d="M962 763l-397 -763h-122l-397 763l397 763h122zM839 763l-335 652l-335 -652l335 -652z" />
    <glyph glyph-name="ydieresis" unicode="&#xff;" horiz-adv-x="768" 
d="M819 920l-659 -1391h-185l250 526l-178 865h174l127 -633l289 633h182zM582 1214q0 39 28 67t66 28t66 -28t28 -67q0 -38 -28 -66t-66 -28t-66 28t-28 66zM215 1214q0 39 28 67t66 28t66 -28t28 -67q0 -38 -28 -66t-66 -28t-66 28t-28 66z" />
    <glyph glyph-name="Ydieresis" unicode="&#x178;" horiz-adv-x="1004" 
d="M1141 1397l-490 -701l-98 -696h-184l98 696l-328 701h195l237 -512l357 512h213zM760 1661q0 39 28 67t66 28t66 -28t28 -67q0 -38 -28 -66t-66 -28t-66 28t-28 66zM393 1661q0 39 28 67t66 28t66 -28t28 -67q0 -38 -28 -66t-66 -28t-66 28t-28 66z" />
    <glyph glyph-name="fraction" unicode="&#x2215;" horiz-adv-x="426" 
d="M840 1415l-1110 -1470h-142l1112 1470h140z" />
    <glyph glyph-name="Euro" unicode="&#x20ac;" horiz-adv-x="1178" 
d="M459 901h577l-28 -147h-598q-10 -59 -17 -109h594l-29 -147h-565q11 -160 84.5 -250t200.5 -90q182 0 391 135l-27 -215q-191 -96 -378 -96q-179 0 -312.5 127.5t-150.5 388.5h-150l29 147h121q4 60 14 109h-164l29 147h178q97 252 305.5 383t462.5 131q90 0 209 -20
l-33 -178q-112 22 -190 22q-184 0 -330.5 -87.5t-222.5 -250.5z" />
    <glyph glyph-name="guilsinglleft" unicode="&#x2039;" horiz-adv-x="469" 
d="M502 920l-355 -482l172 -438h-139l-180 459l344 461h158z" />
    <glyph glyph-name="guilsinglright" unicode="&#x203a;" horiz-adv-x="469" 
d="M-74 0l355 481l-172 439h139l180 -459l-344 -461h-158z" />
    <glyph glyph-name="fi" unicode="&#xfb01;" horiz-adv-x="981" 
d="M612 920l-22 -154h-195l-172 -1153h-170l170 1153h-135l23 154h133q33 258 132.5 376.5t285.5 118.5q131 0 213.5 -71t82.5 -189h-165q-24 111 -138 111q-109 0 -159.5 -70t-79.5 -276h196zM930 920l-135 -920h-174l135 920h174z" />
    <glyph glyph-name="fl" unicode="&#xfb02;" horiz-adv-x="981" 
d="M618 920l-28 -154h-193l-174 -1153h-170l170 1153h-133l23 154h131q33 254 128 374.5t277 120.5q58 0 101 -18l-21 -142q-35 11 -78 11q-203 0 -233 -346h200zM999 1397l-206 -1397h-175l207 1397h174z" />
    <glyph glyph-name="daggerdbl" unicode="&#x2021;" horiz-adv-x="938" 
d="M547 829q-9 -108 -9 -184l3 -121q0 -78 -41 -199t-62 -214q172 59 264 59q115 0 115 -86q0 -84 -131 -84q-86 0 -248 63q8 -108 8 -251q0 -283 -116 -283q-86 0 -86 111q0 125 141 423q-153 -63 -246 -63q-149 0 -149 80q0 39 39 64.5t102 25.5q94 0 254 -57q6 75 6 151
l-4 180q0 52 42 166t65 219q-152 -51 -254 -51q-129 0 -129 78q0 41 35.5 66.5t93.5 25.5q95 0 254 -67q-9 94 -9 262q0 272 119 272q82 0 82 -110q0 -129 -139 -420l4 -4q131 67 262 67q125 0 125 -84q0 -86 -137 -86q-110 0 -254 51z" />
    <glyph glyph-name="periodcentered" unicode="&#x2219;" horiz-adv-x="532" 
d="M184 709q0 50 37.5 86t87.5 36q51 0 87 -36t36 -86q0 -51 -36.5 -88t-86.5 -37t-87.5 37t-37.5 88z" />
    <glyph glyph-name="quotesinglbase" unicode="&#x201a;" horiz-adv-x="406" 
d="M-49 -295l12 90q135 44 135 176q-80 36 -80 105q0 53 36.5 87t92.5 34q55 0 92 -46.5t37 -115.5q0 -113 -87 -204t-238 -126z" />
    <glyph glyph-name="quotedblbase" unicode="&#x201e;" horiz-adv-x="831" 
d="M391 -295l12 90q136 44 136 176q-80 36 -80 105q0 53 36 87t93 34q55 0 92 -46.5t37 -115.5q0 -113 -87 -204t-239 -126zM-49 -295l12 90q135 44 135 176q-80 36 -80 105q0 53 36.5 87t92.5 34q55 0 92 -46.5t37 -115.5q0 -113 -87 -204t-238 -126z" />
    <glyph glyph-name="perthousand" unicode="&#x2030;" horiz-adv-x="2068" 
d="M369 1415q128 0 219.5 -90.5t91.5 -220.5q0 -125 -93 -218t-218 -93q-129 0 -220.5 92.5t-91.5 218.5q0 131 90 221t222 90zM369 942q67 0 114 48t47 114q0 68 -47.5 115t-113.5 47q-69 0 -115.5 -46.5t-46.5 -115.5q0 -63 49 -112.5t113 -49.5zM1231 1415l-918 -1433
h-155l919 1433h154zM1749 606q128 0 219.5 -90.5t91.5 -220.5q0 -125 -93 -218t-218 -93q-129 0 -220 92.5t-91 218.5q0 131 89.5 221t221.5 90zM1749 133q67 0 114.5 48t47.5 114q0 68 -47.5 115t-114.5 47q-68 0 -115 -46.5t-47 -115.5q0 -63 49 -112.5t113 -49.5z
M1020 606q128 0 219.5 -90.5t91.5 -220.5q0 -125 -93 -218t-218 -93q-129 0 -220 92.5t-91 218.5q0 131 89.5 221t221.5 90zM1020 133q67 0 114.5 48t47.5 114q0 68 -47.5 115t-114.5 47q-68 0 -115 -46.5t-47 -115.5q0 -63 49 -112.5t113 -49.5z" />
    <glyph glyph-name="Acircumflex" unicode="&#xc2;" horiz-adv-x="1067" 
d="M721 1405l272 -1405h-172l-84 438h-438l-184 -438h-187l617 1405h176zM360 586h349l-107 573zM820 1819l153 -303h-84l-170 203l-274 -203h-96l268 303h203z" />
    <glyph glyph-name="Ecircumflex" unicode="&#xca;" horiz-adv-x="1044" 
d="M1020 1397l-23 -166h-559l-61 -438h493l-22 -166h-496l-67 -461h735l-25 -166h-917l203 1397h739zM832 1819l153 -303h-84l-170 203l-274 -203h-96l268 303h203z" />
    <glyph glyph-name="Aacute" unicode="&#xc1;" horiz-adv-x="1067" 
d="M721 1405l272 -1405h-172l-84 438h-438l-184 -438h-187l617 1405h176zM360 586h349l-107 573zM692 1819h207l-232 -299h-114z" />
    <glyph glyph-name="Edieresis" unicode="&#xcb;" horiz-adv-x="1044" 
d="M1020 1397l-23 -166h-559l-61 -438h493l-22 -166h-496l-67 -461h735l-25 -166h-917l203 1397h739zM781 1661q0 39 28 67t66 28t66 -28t28 -67q0 -38 -28 -66t-66 -28t-66 28t-28 66zM414 1661q0 39 28 67t66 28t66 -28t28 -67q0 -38 -28 -66t-66 -28t-66 28t-28 66z" />
    <glyph glyph-name="Egrave" unicode="&#xc8;" horiz-adv-x="1044" 
d="M1020 1397l-23 -166h-559l-61 -438h493l-22 -166h-496l-67 -461h735l-25 -166h-917l203 1397h739zM654 1819l139 -299h-115l-231 299h207z" />
    <glyph glyph-name="Iacute" unicode="&#xcd;" horiz-adv-x="492" 
d="M469 1397l-197 -1397h-192l196 1397h193zM430 1819h207l-232 -299h-114z" />
    <glyph glyph-name="Icircumflex" unicode="&#xce;" horiz-adv-x="492" 
d="M469 1397l-197 -1397h-192l196 1397h193zM557 1819l153 -303h-84l-170 203l-274 -203h-96l268 303h203z" />
    <glyph glyph-name="Idieresis" unicode="&#xcf;" horiz-adv-x="492" 
d="M469 1397l-197 -1397h-192l196 1397h193zM506 1661q0 39 28 67t66 28t66 -28t28 -67q0 -38 -28 -66t-66 -28t-66 28t-28 66zM139 1661q0 39 28 67t66 28t66 -28t28 -67q0 -38 -28 -66t-66 -28t-66 28t-28 66z" />
    <glyph glyph-name="Igrave" unicode="&#xcc;" horiz-adv-x="492" 
d="M469 1397l-197 -1397h-192l196 1397h193zM379 1819l139 -299h-115l-231 299h207z" />
    <glyph glyph-name="Oacute" unicode="&#xd3;" horiz-adv-x="1343" 
d="M782 1415q221 0 357.5 -161.5t136.5 -424.5q0 -364 -199 -605.5t-475 -241.5q-218 0 -358 165t-140 424q0 323 190.5 583.5t487.5 260.5zM606 150q194 0 337.5 208.5t143.5 503.5q0 180 -83 282.5t-224 102.5q-216 0 -351.5 -215.5t-135.5 -486.5q0 -183 85 -289
t228 -106zM854 1819h207l-232 -299h-114z" />
    <glyph glyph-name="Ocircumflex" unicode="&#xd4;" horiz-adv-x="1343" 
d="M782 1415q221 0 357.5 -161.5t136.5 -424.5q0 -364 -199 -605.5t-475 -241.5q-218 0 -358 165t-140 424q0 323 190.5 583.5t487.5 260.5zM606 150q194 0 337.5 208.5t143.5 503.5q0 180 -83 282.5t-224 102.5q-216 0 -351.5 -215.5t-135.5 -486.5q0 -183 85 -289
t228 -106zM982 1819l153 -303h-84l-170 203l-274 -203h-96l268 303h203z" />
    <glyph glyph-name="apple" unicode="&#xf000;" horiz-adv-x="1618" 
 />
    <glyph glyph-name="Ograve" unicode="&#xd2;" horiz-adv-x="1343" 
d="M782 1415q221 0 357.5 -161.5t136.5 -424.5q0 -364 -199 -605.5t-475 -241.5q-218 0 -358 165t-140 424q0 323 190.5 583.5t487.5 260.5zM606 150q194 0 337.5 208.5t143.5 503.5q0 180 -83 282.5t-224 102.5q-216 0 -351.5 -215.5t-135.5 -486.5q0 -183 85 -289
t228 -106zM803 1819l139 -299h-115l-231 299h207z" />
    <glyph glyph-name="Uacute" unicode="&#xda;" horiz-adv-x="1300" 
d="M1311 1397l-121 -862q-38 -272 -187 -412.5t-395 -140.5q-218 0 -348.5 118t-130.5 315q0 41 6 83l127 899h184l-129 -914q-4 -29 -4 -56q0 -129 85 -203t220 -74q117 0 206.5 55.5t123.5 138.5t57 250l113 803h193zM837 1819h207l-232 -299h-114z" />
    <glyph glyph-name="Ucircumflex" unicode="&#xdb;" horiz-adv-x="1300" 
d="M1311 1397l-121 -862q-38 -272 -187 -412.5t-395 -140.5q-218 0 -348.5 118t-130.5 315q0 41 6 83l127 899h184l-129 -914q-4 -29 -4 -56q0 -129 85 -203t220 -74q117 0 206.5 55.5t123.5 138.5t57 250l113 803h193zM965 1819l153 -303h-84l-170 203l-274 -203h-96
l268 303h203z" />
    <glyph glyph-name="Ugrave" unicode="&#xd9;" horiz-adv-x="1300" 
d="M1311 1397l-121 -862q-38 -272 -187 -412.5t-395 -140.5q-218 0 -348.5 118t-130.5 315q0 41 6 83l127 899h184l-129 -914q-4 -29 -4 -56q0 -129 85 -203t220 -74q117 0 206.5 55.5t123.5 138.5t57 250l113 803h193zM787 1819l139 -299h-115l-231 299h207z" />
    <glyph glyph-name="dotlessi" unicode="&#x131;" horiz-adv-x="385" 
d="M350 920l-129 -920h-174l129 920h174z" />
    <glyph glyph-name="circumflex" unicode="&#x2c6;" horiz-adv-x="682" 
d="M590 1372l153 -303h-84l-170 203l-274 -203h-96l268 303h203z" />
    <glyph glyph-name="tilde" unicode="&#x2dc;" horiz-adv-x="682" 
d="M672 1335h80q0 -99 -46.5 -166t-121.5 -67q-28 0 -138 39t-145 39q-61 0 -70 -76h-81q2 111 46.5 172t118.5 61q39 0 146 -38.5t141 -38.5q59 0 70 75z" />
    <glyph glyph-name="macron" unicode="&#x2c9;" horiz-adv-x="682" 
d="M774 1300l-18 -131h-660l19 131h659z" />
    <glyph glyph-name="breve" unicode="&#x2d8;" horiz-adv-x="682" 
d="M637 1350h100q-79 -263 -289 -263q-105 0 -170 75t-59 188h96q3 -61 42.5 -96t99.5 -35q108 0 180 131z" />
    <glyph glyph-name="dotaccent" unicode="&#x2d9;" horiz-adv-x="682" 
d="M356 1239q0 49 35 84t84 35q48 0 83 -35t35 -84t-35 -84t-83 -35q-49 0 -84 35t-35 84z" />
    <glyph glyph-name="ring" unicode="&#x2da;" horiz-adv-x="682" 
d="M256 1223q0 79 56.5 135.5t136.5 56.5q79 0 135.5 -56.5t56.5 -135.5q0 -80 -56.5 -136.5t-135.5 -56.5q-80 0 -136.5 56.5t-56.5 136.5zM561 1219q0 45 -33.5 78.5t-78.5 33.5q-46 0 -79.5 -33.5t-33.5 -78.5q0 -46 33.5 -79.5t79.5 -33.5q45 0 78.5 33.5t33.5 79.5z
" />
    <glyph glyph-name="cedilla" unicode="&#xb8;" horiz-adv-x="682" 
d="M369 14l-19 -49q94 -41 94 -139q0 -75 -62 -125.5t-155 -50.5q-66 0 -139 14l25 94q56 -14 86 -14q96 0 96 78q0 43 -55 72l57 120h72z" />
    <glyph glyph-name="hungarumlaut" unicode="&#x2dd;" horiz-adv-x="682" 
d="M639 1372h207l-232 -299h-114zM313 1372h207l-231 -299h-115z" />
    <glyph glyph-name="ogonek" unicode="&#x2db;" horiz-adv-x="682" 
d="M451 -227l-21 -140q-61 -16 -127 -16q-94 0 -159.5 56t-65.5 134q0 86 76 207h157q-59 -103 -59 -151q0 -43 35 -73t86 -30q31 0 78 13z" />
    <glyph glyph-name="caron" unicode="&#x2c7;" horiz-adv-x="682" 
d="M313 1069l-153 303h84l170 -203l274 203h96l-268 -303h-203z" />
    <glyph glyph-name="Lslash" unicode="&#x141;" horiz-adv-x="854" 
d="M627 920l-277 -230l-80 -534h574l-23 -156h-749l75 543l-147 -123l27 182l147 125l94 670h185l-76 -523l276 232z" />
    <glyph glyph-name="lslash" unicode="&#x142;" horiz-adv-x="385" 
d="M471 795l-154 -115l-96 -680h-174l78 551l-150 -111l15 125l153 113l101 719h174l-82 -590l153 115z" />
    <glyph glyph-name="Scaron" unicode="&#x160;" horiz-adv-x="938" 
d="M899 1360l-27 -191q-112 74 -245 74q-112 0 -179 -58t-67 -153q0 -47 32 -99t187 -176.5t204.5 -218.5t49.5 -188q0 -150 -113 -259t-301 -109q-167 0 -338 100l29 205q191 -133 328 -133q74 0 140.5 48.5t66.5 131.5q0 53 -33.5 110t-189 184t-203 220.5t-47.5 185.5
q0 162 134 271.5t316 109.5q127 0 256 -55zM502 1516l-153 303h84l170 -203l274 203h96l-268 -303h-203z" />
    <glyph glyph-name="scaron" unicode="&#x161;" horiz-adv-x="725" 
d="M662 852v-182q-159 121 -277 121q-53 0 -89 -28.5t-36 -68.5q0 -26 22.5 -55.5t142 -109.5t161 -147t41.5 -136q0 -121 -80.5 -198t-204.5 -77q-153 0 -319 121l30 168q172 -137 283 -137q52 0 85.5 29t33.5 73q0 33 -24.5 67.5t-142.5 116.5t-156 146t-38 129
q0 119 79 191.5t210 72.5q138 0 279 -96zM313 1069l-153 303h84l170 -203l274 203h96l-268 -303h-203z" />
    <glyph glyph-name="Zcaron" horiz-adv-x="1194" 
d="M1325 1397l-1018 -1223h828l-25 -174h-1176l1014 1223h-794l24 174h1147zM629 1516l-153 303h84l170 -203l274 203h96l-268 -303h-203z" />
    <glyph glyph-name="Zcaron" unicode="&#x17d;" horiz-adv-x="1194" 
d="M1325 1397l-1018 -1223h828l-25 -174h-1176l1014 1223h-794l24 174h1147zM629 1516l-153 303h84l170 -203l274 203h96l-268 -303h-203z" />
    <glyph glyph-name="zcaron" horiz-adv-x="938" 
d="M915 920l-610 -766h535l-33 -154h-834l600 766h-464l20 154h786zM442 1069l-153 303h84l170 -203l274 203h96l-268 -303h-203z" />
    <glyph glyph-name="zcaron" unicode="&#x17e;" horiz-adv-x="938" 
d="M915 920l-610 -766h535l-33 -154h-834l600 766h-464l20 154h786zM442 1069l-153 303h84l170 -203l274 203h96l-268 -303h-203z" />
    <glyph glyph-name="brokenbar" unicode="&#xa6;" horiz-adv-x="532" 
d="M221 700v697h156v-697h-156zM221 -471v831h156v-831h-156z" />
    <glyph glyph-name="sfthyphen" unicode="&#xad;" horiz-adv-x="512" 
d="M512 543l-24 -175h-488l25 175h487z" />
    <glyph glyph-name="macron" unicode="&#xaf;" horiz-adv-x="1024" 
d="M266 1496v102h1155v-102h-1155z" />
    <glyph glyph-name="Eth" unicode="&#xd0;" horiz-adv-x="1343" 
d="M279 1397h165q355 0 587.5 -171t232.5 -530q0 -317 -188 -506.5t-533 -189.5h-463l88 616h-162l25 166h159zM442 1231l-63 -449h319l-22 -166h-320l-63 -450h168q231 0 343.5 49t186.5 176.5t74 310.5q0 529 -623 529z" />
    <glyph glyph-name="eth" unicode="&#xf0;" horiz-adv-x="918" 
d="M895 1335l-182 -96q81 -121 125.5 -277.5t44.5 -295.5q0 -297 -135 -496t-340 -199q-155 0 -244.5 111t-89.5 303q0 236 127.5 399.5t308.5 163.5q104 0 170 -61l4 4q-26 133 -119 270l-186 -100l-51 82l176 92q-35 41 -72 65l107 115q64 -38 116 -100l191 100zM412 109
q112 0 201 141.5t89 300.5q0 260 -190 260q-108 0 -185 -135t-77 -318q0 -100 48 -174.5t114 -74.5z" />
    <glyph glyph-name="Yacute" unicode="&#xdd;" horiz-adv-x="1004" 
d="M1141 1397l-490 -701l-98 -696h-184l98 696l-328 701h195l237 -512l357 512h213zM684 1819h207l-232 -299h-114z" />
    <glyph glyph-name="yacute" unicode="&#xfd;" horiz-adv-x="768" 
d="M819 920l-659 -1391h-185l250 526l-178 865h174l127 -633l289 633h182zM506 1372h207l-232 -299h-114z" />
    <glyph glyph-name="Thorn" unicode="&#xde;" horiz-adv-x="918" 
d="M252 1397h190l-41 -295h50q215 0 333.5 -100.5t118.5 -294.5q0 -162 -117 -287t-329 -125h-168l-41 -295h-193zM379 936l-66 -475h136q126 0 197 73t71 179q0 100 -66.5 161.5t-189.5 61.5h-82z" />
    <glyph glyph-name="thorn" unicode="&#xfe;" horiz-adv-x="1004" 
d="M27 -471l262 1868h174l-68 -477q70 28 156 28q162 0 271.5 -122t109.5 -306q0 -219 -148.5 -384t-406.5 -165h-115l-61 -442h-174zM377 791l-94 -672h84q177 0 282 119.5t105 281.5q0 140 -74 218.5t-188 78.5q-61 0 -115 -26z" />
    <glyph glyph-name="minus" unicode="&#x2212;" horiz-adv-x="1196" 
d="M145 807h967v-168h-967v168z" />
    <glyph glyph-name="multiply" unicode="&#xd7;" horiz-adv-x="1196" 
d="M193 410l315 315l-315 315l120 121l316 -315l313 313l121 -121l-313 -313l313 -313l-121 -121l-313 313l-316 -315z" />
    <glyph glyph-name="onesuperior" unicode="&#xb9;" horiz-adv-x="662" 
d="M543 1415l-135 -735h-132l134 735h133z" />
    <glyph glyph-name="twosuperior" unicode="&#xb2;" horiz-adv-x="662" 
d="M188 1239l19 123q96 53 196 53q94 0 153.5 -48.5t59.5 -123.5q0 -85 -79.5 -193t-237.5 -272h307l-14 -98h-531q428 443 428 547q0 84 -106 84q-86 0 -195 -72z" />
    <glyph glyph-name="threesuperior" unicode="&#xb3;" horiz-adv-x="662" 
d="M219 1262l17 118q89 35 182 35q106 0 169.5 -52.5t63.5 -139.5q0 -116 -151 -170q102 -45 102 -162q0 -94 -84.5 -157.5t-212.5 -63.5q-102 0 -211 43l15 100q102 -45 192 -45q77 0 121.5 35t44.5 94q0 111 -154 111l15 92q178 18 178 125q0 41 -31 66.5t-82 25.5
q-85 0 -174 -55z" />
    <glyph glyph-name="onehalf" unicode="&#xbd;" horiz-adv-x="1729" 
d="M543 1415l-135 -735h-132l134 735h133zM1360 1415l-1110 -1470h-142l1112 1470h140zM1036 561l19 123q96 53 196 53q94 0 153.5 -48.5t59.5 -123.5q0 -85 -79.5 -193t-237.5 -272h307l-14 -98h-531q428 443 428 547q0 84 -106 84q-86 0 -195 -72z" />
    <glyph glyph-name="onequarter" unicode="&#xbc;" horiz-adv-x="1729" 
d="M543 1415l-135 -735h-132l134 735h133zM1360 1415l-1110 -1470h-142l1112 1470h140zM1361 739l-76 -428h119l-12 -88h-123l-41 -221h-129l43 221h-309v47l444 469h84zM1011 311h147l50 211z" />
    <glyph glyph-name="threequarters" unicode="&#xbe;" horiz-adv-x="1729" 
d="M275 1262l17 118q89 35 182 35q106 0 169.5 -52.5t63.5 -139.5q0 -116 -151 -170q102 -45 102 -162q0 -94 -84.5 -157.5t-212.5 -63.5q-102 0 -211 43l15 100q102 -45 192 -45q77 0 121.5 35t44.5 94q0 111 -154 111l15 92q178 18 178 125q0 41 -31 66.5t-82 25.5
q-85 0 -174 -55zM1496 1415l-1110 -1470h-142l1112 1470h140zM1497 739l-76 -428h119l-12 -88h-123l-41 -221h-129l43 221h-309v47l444 469h84zM1147 311h147l50 211z" />
    <glyph glyph-name="foursuperior" unicode="&#xf003;" horiz-adv-x="662" 
d="M637 1417l-76 -428h119l-12 -88h-123l-41 -221h-129l43 221h-309v47l444 469h84zM287 989h147l50 211z" />
    <glyph glyph-name="periodcentered" unicode="&#xb7;" horiz-adv-x="683" 
d="M676 586q-43 0 -74.5 32t-31.5 75q0 44 31.5 76t75.5 32t76 -31.5t32 -73.5q0 -45 -32.5 -77.5t-76.5 -32.5z" />
    <glyph glyph-name="Amacron" unicode="&#x100;" horiz-adv-x="1067" 
d="M721 1405l272 -1405h-172l-84 438h-438l-184 -438h-187l617 1405h176zM360 586h349l-107 573zM972 1626l-18 -131h-660l19 131h659z" />
    <glyph glyph-name="amacron" unicode="&#x101;" 
d="M913 920l-129 -920h-174l17 106l-4 5q-121 -129 -248 -129q-126 0 -214.5 106.5t-88.5 257.5q0 262 164.5 432t459.5 170q120 0 217 -28zM647 266l76 531q-28 2 -54 2q-205 0 -312 -130.5t-107 -291.5q0 -111 51.5 -181.5t130.5 -70.5q63 0 138 62.5t77 78.5zM950 1301
l-18 -131h-660l19 131h659z" />
    <glyph glyph-name="Abreve" unicode="&#x102;" horiz-adv-x="1067" 
d="M721 1405l272 -1405h-172l-84 438h-438l-184 -438h-187l617 1405h176zM360 586h349l-107 573zM852 1786h100q-79 -263 -289 -263q-105 0 -170 75t-59 188h96q3 -61 42.5 -96t99.5 -35q108 0 180 131z" />
    <glyph glyph-name="abreve" unicode="&#x103;" 
d="M913 920l-129 -920h-174l17 106l-4 5q-121 -129 -248 -129q-126 0 -214.5 106.5t-88.5 257.5q0 262 164.5 432t459.5 170q120 0 217 -28zM647 266l76 531q-28 2 -54 2q-205 0 -312 -130.5t-107 -291.5q0 -111 51.5 -181.5t130.5 -70.5q63 0 138 62.5t77 78.5zM808 1350
h100q-79 -263 -289 -263q-105 0 -170 75t-59 188h96q3 -61 42.5 -96t99.5 -35q108 0 180 131z" />
    <glyph glyph-name="Aogonek" unicode="&#x104;" horiz-adv-x="1067" 
d="M995 0q-51 -90 -51 -137q0 -43 35 -73t86 -30q29 0 78 13l-21 -140q-65 -16 -127 -16q-94 0 -159.5 55.5t-65.5 134.5q0 80 66 193h-15l-84 438h-438l-184 -438h-187l619 1405h176zM709 586l-109 573l-240 -573h349z" />
    <glyph glyph-name="aogonek" unicode="&#x105;" 
d="M762 0h-14q-52 -94 -52 -139t37 -73t84 -28q37 0 78 13l-18 -140q-78 -16 -125 -16q-101 0 -165.5 57.5t-64.5 130.5q0 86 66 195l16 113q-125 -125 -252 -125t-214 104.5t-87 247.5q0 275 169 441.5t452 166.5q129 0 221 -28zM627 270l75 527q-99 0 -122 -3
q-71 -10 -129 -38t-108.5 -81.5t-80 -131.5t-29.5 -174q0 -107 51.5 -175.5t127.5 -68.5q28 0 56 9t55 27t64.5 58t39.5 51z" />
    <glyph glyph-name="Cacute" unicode="&#x106;" horiz-adv-x="1130" 
d="M1188 1415l-37 -176h-102q-362 0 -556 -194t-194 -470q0 -190 100 -303.5t267 -113.5q86 0 202.5 46.5t214.5 125.5l-30 -226q-217 -122 -414 -122q-237 0 -388 162.5t-151 418.5q0 376 261.5 614t693.5 238h133zM903 1794h207l-232 -299h-114z" />
    <glyph glyph-name="cacute" unicode="&#x107;" horiz-adv-x="788" 
d="M731 205l-20 -168q-120 -66 -256 -66q-185 0 -295.5 115.5t-110.5 308.5q0 233 167.5 393t428.5 160q66 0 158 -16l-23 -154q-65 15 -133 15q-181 0 -300.5 -116t-119.5 -271q0 -130 67.5 -204.5t184.5 -74.5q124 0 252 78zM611 1372h207l-232 -299h-114z" />
    <glyph glyph-name="Ccircumflex" unicode="&#x108;" horiz-adv-x="1130" 
d="M1188 1415l-37 -176h-102q-362 0 -556 -194t-194 -470q0 -190 100 -303.5t267 -113.5q86 0 202.5 46.5t214.5 125.5l-30 -226q-217 -122 -414 -122q-237 0 -388 162.5t-151 418.5q0 376 261.5 614t693.5 238h133zM1050 1795l153 -303h-84l-170 203l-274 -203h-96l268 303
h203z" />
    <glyph glyph-name="ccircumflex" unicode="&#x109;" horiz-adv-x="788" 
d="M731 205l-20 -168q-120 -66 -256 -66q-185 0 -295.5 115.5t-110.5 308.5q0 233 167.5 393t428.5 160q66 0 158 -16l-23 -154q-65 15 -133 15q-181 0 -300.5 -116t-119.5 -271q0 -130 67.5 -204.5t184.5 -74.5q124 0 252 78zM724 1372l153 -303h-84l-170 203l-274 -203
h-96l268 303h203z" />
    <glyph glyph-name="Cdot" unicode="&#x10a;" horiz-adv-x="1130" 
d="M1188 1415l-37 -176h-102q-362 0 -556 -194t-194 -470q0 -190 100 -303.5t267 -113.5q86 0 202.5 46.5t214.5 125.5l-30 -226q-217 -122 -414 -122q-237 0 -388 162.5t-151 418.5q0 376 261.5 614t693.5 238h133zM825 1587q0 49 35 84t84 35q48 0 83 -35t35 -84t-35 -84
t-83 -35q-49 0 -84 35t-35 84z" />
    <glyph glyph-name="cdot" unicode="&#x10b;" horiz-adv-x="788" 
d="M731 205l-20 -168q-120 -66 -256 -66q-185 0 -295.5 115.5t-110.5 308.5q0 233 167.5 393t428.5 160q66 0 158 -16l-23 -154q-65 15 -133 15q-181 0 -300.5 -116t-119.5 -271q0 -130 67.5 -204.5t184.5 -74.5q124 0 252 78zM501 1214q0 49 35 84t84 35q48 0 83 -35
t35 -84t-35 -84t-83 -35q-49 0 -84 35t-35 84z" />
    <glyph glyph-name="Ccaron" unicode="&#x10c;" horiz-adv-x="1130" 
d="M1188 1415l-37 -176h-102q-362 0 -556 -194t-194 -470q0 -190 100 -303.5t267 -113.5q86 0 202.5 46.5t214.5 125.5l-30 -226q-217 -122 -414 -122q-237 0 -388 162.5t-151 418.5q0 376 261.5 614t693.5 238h133zM856 1493l-153 303h84l170 -203l274 203h96l-268 -303
h-203z" />
    <glyph glyph-name="ccaron" unicode="&#x10d;" horiz-adv-x="788" 
d="M731 205l-20 -168q-120 -66 -256 -66q-185 0 -295.5 115.5t-110.5 308.5q0 233 167.5 393t428.5 160q66 0 158 -16l-23 -154q-65 15 -133 15q-181 0 -300.5 -116t-119.5 -271q0 -130 67.5 -204.5t184.5 -74.5q124 0 252 78zM501 1069l-153 303h84l170 -203l274 203h96
l-268 -303h-203z" />
    <glyph glyph-name="Dcaron" unicode="&#x10e;" horiz-adv-x="1343" 
d="M80 0l199 1397h165q388 0 604 -186.5t216 -514.5q0 -316 -190 -506t-539 -190h-455zM442 1229l-149 -1063h168q239 0 354 57.5t182.5 181.5t67.5 297q0 248 -168 387.5t-391 139.5h-64zM530 1493l-153 303h84l170 -203l274 203h96l-268 -303h-203z" />
    <glyph glyph-name="dcaron" unicode="&#x10f;" horiz-adv-x="1195" 
d="M979 1397l-197 -1397q-101 -29 -235 -29q-233 0 -358.5 111t-125.5 315q0 200 163 375.5t442 175.5h73l64 449h174zM627 119l94 684h-45q-195 0 -314.5 -118.5t-119.5 -283.5q0 -137 79 -211.5t226 -74.5q53 0 80 4zM1010 1009q135 44 135 176q-81 34 -81 108
q0 53 37.5 87t87.5 34q60 0 97 -46t37 -116q0 -109 -83.5 -203.5t-242.5 -130.5z" />
    <glyph glyph-name="Dslash" unicode="&#x110;" horiz-adv-x="1343" 
d="M279 1397h165q355 0 587.5 -171t232.5 -530q0 -317 -188 -506.5t-533 -189.5h-463l88 616h-162l25 166h159zM442 1231l-63 -449h319l-22 -166h-320l-63 -450h168q231 0 343.5 49t186.5 176.5t74 310.5q0 529 -623 529z" />
    <glyph glyph-name="dmacron" unicode="&#x111;" horiz-adv-x="960" 
d="M955 1208h174l-14 -106h-175l-159 -1102q-103 -28 -233 -28q-237 0 -360.5 113t-123.5 301q0 217 166.5 389t439.5 172l72 -1l22 156h-213l15 106h215l26 189h175zM722 802q-227 3 -351.5 -111t-124.5 -298q0 -128 77 -204.5t223 -76.5q41 0 79 7z" />
    <glyph glyph-name="Emacron" unicode="&#x112;" horiz-adv-x="1044" 
d="M1020 1397l-23 -166h-559l-61 -438h493l-22 -166h-496l-67 -461h735l-25 -166h-917l203 1397h739zM995 1626l-18 -131h-660l19 131h659z" />
    <glyph glyph-name="emacron" unicode="&#x113;" horiz-adv-x="897" 
d="M795 240l-25 -166q-140 -103 -307 -103q-174 0 -279.5 121.5t-105.5 323.5q0 225 126.5 378.5t309.5 153.5q140 0 233 -107.5t93 -277.5q0 -42 -6 -86h-574q-8 -46 -8 -88q0 -127 69.5 -200.5t174.5 -73.5q128 0 299 125zM287 598h385q0 96 -43.5 151.5t-122.5 55.5
q-150 0 -219 -207zM892 1301l-18 -131h-660l19 131h659z" />
    <glyph glyph-name="Ebreve" unicode="&#x114;" horiz-adv-x="1044" 
d="M1020 1397l-23 -166h-559l-61 -438h493l-22 -166h-496l-67 -461h735l-25 -166h-917l203 1397h739zM868 1786h100q-79 -263 -289 -263q-105 0 -170 75t-59 188h96q3 -61 42.5 -96t99.5 -35q108 0 180 131z" />
    <glyph glyph-name="ebreve" unicode="&#x115;" horiz-adv-x="897" 
d="M795 240l-25 -166q-140 -103 -307 -103q-174 0 -279.5 121.5t-105.5 323.5q0 225 126.5 378.5t309.5 153.5q140 0 233 -107.5t93 -277.5q0 -42 -6 -86h-574q-8 -46 -8 -88q0 -127 69.5 -200.5t174.5 -73.5q128 0 299 125zM287 598h385q0 96 -43.5 151.5t-122.5 55.5
q-150 0 -219 -207zM751 1350h100q-79 -263 -289 -263q-105 0 -170 75t-59 188h96q3 -61 42.5 -96t99.5 -35q108 0 180 131z" />
    <glyph glyph-name="Edot" unicode="&#x116;" horiz-adv-x="1044" 
d="M1020 1397l-23 -166h-559l-61 -438h493l-22 -166h-496l-67 -461h735l-25 -166h-917l203 1397h739zM599 1587q0 49 35 84t84 35q48 0 83 -35t35 -84t-35 -84t-83 -35q-49 0 -84 35t-35 84z" />
    <glyph glyph-name="edot" unicode="&#x117;" horiz-adv-x="897" 
d="M795 240l-25 -166q-140 -103 -307 -103q-174 0 -279.5 121.5t-105.5 323.5q0 225 126.5 378.5t309.5 153.5q140 0 233 -107.5t93 -277.5q0 -42 -6 -86h-574q-8 -46 -8 -88q0 -127 69.5 -200.5t174.5 -73.5q128 0 299 125zM287 598h385q0 96 -43.5 151.5t-122.5 55.5
q-150 0 -219 -207zM428 1214q0 49 35 84t84 35q48 0 83 -35t35 -84t-35 -84t-83 -35q-49 0 -84 35t-35 84z" />
    <glyph glyph-name="Eogonek" unicode="&#x118;" horiz-adv-x="1044" 
d="M823 0q-51 -90 -51 -137q0 -43 35 -73t86 -30q29 0 78 13l-21 -140q-65 -16 -127 -16q-94 0 -159.5 55.5t-65.5 134.5q0 80 68 193h-588l205 1397h739l-27 -166h-555l-63 -434h495l-24 -170h-494l-71 -461h739l-27 -166h-172z" />
    <glyph glyph-name="eogonek" unicode="&#x119;" horiz-adv-x="896" 
d="M575 -15q-43 -65 -43 -128q0 -39 36.5 -67.5t84.5 -28.5q31 0 78 12l-19 -140q-65 -16 -126 -16q-102 0 -165 58.5t-63 130.5q0 78 53 169q-149 18 -241.5 136.5t-92.5 296.5q0 227 124 383.5t307 156.5q145 0 239 -106t94 -275q0 -45 -7 -90h-576q-4 -56 -4 -91
q0 -119 66.5 -195t159.5 -76q134 0 316 141l-26 -183q-86 -63 -195 -88zM286 599h386q0 103 -47 156t-117 53q-154 0 -222 -209z" />
    <glyph glyph-name="Ecaron" unicode="&#x11a;" horiz-adv-x="1044" 
d="M1020 1397l-23 -166h-559l-61 -438h493l-22 -166h-496l-67 -461h735l-25 -166h-917l203 1397h739zM580 1493l-153 303h84l170 -203l274 203h96l-268 -303h-203z" />
    <glyph glyph-name="ecaron" unicode="&#x11b;" horiz-adv-x="897" 
d="M795 240l-25 -166q-140 -103 -307 -103q-174 0 -279.5 121.5t-105.5 323.5q0 225 126.5 378.5t309.5 153.5q140 0 233 -107.5t93 -277.5q0 -42 -6 -86h-574q-8 -46 -8 -88q0 -127 69.5 -200.5t174.5 -73.5q128 0 299 125zM287 598h385q0 96 -43.5 151.5t-122.5 55.5
q-150 0 -219 -207zM431 1069l-153 303h84l170 -203l274 203h96l-268 -303h-203z" />
    <glyph glyph-name="Gcircumflex" unicode="&#x11c;" horiz-adv-x="1237" 
d="M1182 606l-72 -502q-227 -122 -451 -122q-269 0 -428 176.5t-159 437.5q0 332 249.5 575.5t708.5 243.5q90 0 242 -18l-23 -168q-165 18 -248 18q-343 0 -537 -193.5t-194 -451.5q0 -200 113 -326t291 -126q133 0 268 67l33 242h-199l21 147h385zM1064 1795l153 -303h-84
l-170 203l-274 -203h-96l268 303h203z" />
    <glyph glyph-name="gcircumflex" unicode="&#x11d;" horiz-adv-x="874" 
d="M911 920l-18 -136h-178q61 -86 61 -182q0 -110 -49.5 -194t-121 -118.5t-184.5 -55t-143 -41t-30 -48.5q0 -21 26 -38.5t187.5 -56.5t226 -104.5t64.5 -154.5q0 -112 -106 -187t-269 -75q-175 0 -287.5 68t-112.5 170q0 133 265 190q-160 59 -160 162q0 53 49 99.5
t133 70.5q-166 79 -166 264q0 155 100.5 261t241.5 106h471zM430 379q79 0 129.5 64.5t50.5 150.5q0 81 -46.5 132.5t-117.5 51.5q-70 0 -126 -65t-56 -148q0 -81 47 -133.5t119 -52.5zM391 -340q89 0 142 32t53 83q0 50 -87 90.5t-118 40.5q-39 0 -138.5 -41.5t-99.5 -93.5
q0 -51 66.5 -81t181.5 -30zM693 1372l153 -303h-84l-170 203l-274 -203h-96l268 303h203z" />
    <glyph glyph-name="Gbreve" unicode="&#x11e;" horiz-adv-x="1237" 
d="M1182 606l-72 -502q-227 -122 -451 -122q-269 0 -428 176.5t-159 437.5q0 332 249.5 575.5t708.5 243.5q90 0 242 -18l-23 -168q-165 18 -248 18q-343 0 -537 -193.5t-194 -451.5q0 -200 113 -326t291 -126q133 0 268 67l33 242h-199l21 147h385zM1117 1786h100
q-79 -263 -289 -263q-105 0 -170 75t-59 188h96q3 -61 42.5 -96t99.5 -35q108 0 180 131z" />
    <glyph glyph-name="gbreve" unicode="&#x11f;" horiz-adv-x="874" 
d="M911 920l-18 -136h-178q61 -86 61 -182q0 -110 -49.5 -194t-121 -118.5t-184.5 -55t-143 -41t-30 -48.5q0 -21 26 -38.5t187.5 -56.5t226 -104.5t64.5 -154.5q0 -112 -106 -187t-269 -75q-175 0 -287.5 68t-112.5 170q0 133 265 190q-160 59 -160 162q0 53 49 99.5
t133 70.5q-166 79 -166 264q0 155 100.5 261t241.5 106h471zM430 379q79 0 129.5 64.5t50.5 150.5q0 81 -46.5 132.5t-117.5 51.5q-70 0 -126 -65t-56 -148q0 -81 47 -133.5t119 -52.5zM391 -340q89 0 142 32t53 83q0 50 -87 90.5t-118 40.5q-39 0 -138.5 -41.5t-99.5 -93.5
q0 -51 66.5 -81t181.5 -30zM737 1350h100q-79 -263 -289 -263q-105 0 -170 75t-59 188h96q3 -61 42.5 -96t99.5 -35q108 0 180 131z" />
    <glyph glyph-name="Gdot" unicode="&#x120;" horiz-adv-x="1237" 
d="M1182 606l-72 -502q-227 -122 -451 -122q-269 0 -428 176.5t-159 437.5q0 332 249.5 575.5t708.5 243.5q90 0 242 -18l-23 -168q-165 18 -248 18q-343 0 -537 -193.5t-194 -451.5q0 -200 113 -326t291 -126q133 0 268 67l33 242h-199l21 147h385zM861 1587q0 49 35 84
t84 35q48 0 83 -35t35 -84t-35 -84t-83 -35q-49 0 -84 35t-35 84z" />
    <glyph glyph-name="gdot" unicode="&#x121;" horiz-adv-x="874" 
d="M911 920l-18 -136h-178q61 -86 61 -182q0 -110 -49.5 -194t-121 -118.5t-184.5 -55t-143 -41t-30 -48.5q0 -21 26 -38.5t187.5 -56.5t226 -104.5t64.5 -154.5q0 -112 -106 -187t-269 -75q-175 0 -287.5 68t-112.5 170q0 133 265 190q-160 59 -160 162q0 53 49 99.5
t133 70.5q-166 79 -166 264q0 155 100.5 261t241.5 106h471zM430 379q79 0 129.5 64.5t50.5 150.5q0 81 -46.5 132.5t-117.5 51.5q-70 0 -126 -65t-56 -148q0 -81 47 -133.5t119 -52.5zM391 -340q89 0 142 32t53 83q0 50 -87 90.5t-118 40.5q-39 0 -138.5 -41.5t-99.5 -93.5
q0 -51 66.5 -81t181.5 -30zM435 1214q0 49 35 84t84 35q48 0 83 -35t35 -84t-35 -84t-83 -35q-49 0 -84 35t-35 84z" />
    <glyph glyph-name="Gcedilla" unicode="&#x122;" horiz-adv-x="1237" 
d="M1272 1397l-23 -168q-165 18 -248 18q-343 0 -537 -193.5t-194 -451.5q0 -200 113 -326t291 -126q133 0 268 67l33 242h-199l21 147h385l-72 -502q-208 -114 -424 -124l-6 -17q94 -35 94 -137q0 -75 -62.5 -125.5t-154.5 -50.5q-66 0 -139 14l24 94q57 -14 86 -14
q45 0 71 21t26 57q0 41 -56 72l43 90q-253 19 -396.5 193t-143.5 419q0 210 112 404.5t327.5 304.5t518.5 110q90 0 242 -18z" />
    <glyph glyph-name="gcedilla" unicode="&#x123;" horiz-adv-x="874" 
d="M911 920l-18 -136h-178q61 -86 61 -182q0 -110 -49.5 -194t-121 -118.5t-184.5 -55t-143 -41t-30 -48.5q0 -21 26 -38.5t187.5 -56.5t226 -104.5t64.5 -154.5q0 -112 -106 -187t-269 -75q-175 0 -287.5 68t-112.5 170q0 133 265 190q-160 59 -160 162q0 53 49 99.5
t133 70.5q-166 79 -166 264q0 155 100.5 261t241.5 106h471zM430 379q79 0 129.5 64.5t50.5 150.5q0 81 -46.5 132.5t-117.5 51.5q-70 0 -126 -65t-56 -148q0 -81 47 -133.5t119 -52.5zM391 -340q89 0 142 32t53 83q0 50 -87 90.5t-118 40.5q-39 0 -138.5 -41.5t-99.5 -93.5
q0 -51 66.5 -81t181.5 -30zM583.025 1003.99q-145.982 11.999 -191.477 50.4941t-45.4941 100.487q0 79.9902 58.9922 132.484q58.9932 52.4932 161.98 52.4932q69.9912 0 134.983 -13.998l-23.9971 -94.9883q-53.9932 13.998 -90.9893 13.998q-48.9932 0 -70.9912 -21.9971
q-21.9971 -21.9971 -21.9971 -46.9941q0 -51.9941 88.9893 -69.9912v-101.988z" />
    <glyph glyph-name="Hcircumflex" unicode="&#x124;" horiz-adv-x="1430" 
d="M1407 1397l-197 -1397h-192l88 618h-756l-86 -618h-192l196 1397h191l-84 -604h755l84 604h193zM989 1795l153 -303h-84l-170 203l-274 -203h-96l268 303h203z" />
    <glyph glyph-name="hcircumflex" unicode="&#x125;" 
d="M414 1397l-88 -625l4 -4q155 180 319 180q101 0 157.5 -68.5t56.5 -184.5q0 -33 -5 -68l-88 -627h-174l88 637q3 24 3 45q0 135 -107 135q-78 0 -177 -100.5t-102 -118.5l-84 -598h-174l197 1397h174zM736 1839l153 -303h-84l-170 203l-274 -203h-96l268 303h203z" />
    <glyph glyph-name="Hbar" unicode="&#x126;" horiz-adv-x="1429" 
d="M1368 1123h191l-18 -134h-192l-136 -989h-193l89 618h-758l-84 -618h-195l138 989h-178l14 134h183l38 274h195l-39 -274h754l36 274h193zM403 989l-28 -199h757l27 199h-756z" />
    <glyph glyph-name="hbar" unicode="&#x127;" horiz-adv-x="960" 
d="M388 1200h284l-18 -106h-281l-46 -326q158 179 329 179q85 0 146.5 -63.5t61.5 -180.5q0 -49 -9 -118l-83 -585h-176l85 597q7 48 7 86q0 69 -34.5 99t-71.5 30q-109 0 -278 -215l-88 -597h-174l156 1094h-190l18 106h187l28 197h174z" />
    <glyph glyph-name="Itilde" unicode="&#x128;" horiz-adv-x="492" 
d="M469 1397l-197 -1397h-192l196 1397h193zM571 1747h80q0 -99 -46.5 -166t-121.5 -67q-28 0 -138 39t-145 39q-61 0 -70 -76h-81q2 111 46.5 172t118.5 61q39 0 146 -38.5t141 -38.5q59 0 70 75z" />
    <glyph glyph-name="itilde" unicode="&#x129;" horiz-adv-x="385" 
d="M350 920l-129 -920h-174l129 920h174zM532 1335h80q0 -99 -46.5 -166t-121.5 -67q-28 0 -138 39t-145 39q-61 0 -70 -76h-81q2 111 46.5 172t118.5 61q39 0 146 -38.5t141 -38.5q59 0 70 75z" />
    <glyph glyph-name="Imacron" unicode="&#x12a;" horiz-adv-x="492" 
d="M469 1397l-197 -1397h-192l196 1397h193zM760 1626l-18 -131h-660l19 131h659z" />
    <glyph glyph-name="imacron" unicode="&#x12b;" horiz-adv-x="385" 
d="M350 920l-129 -920h-174l129 920h174zM677 1301l-18 -131h-660l19 131h659z" />
    <glyph glyph-name="Ibreve" unicode="&#x12c;" horiz-adv-x="492" 
d="M469 1397l-197 -1397h-192l196 1397h193zM607 1786h100q-79 -263 -289 -263q-105 0 -170 75t-59 188h96q3 -61 42.5 -96t99.5 -35q108 0 180 131z" />
    <glyph glyph-name="ibreve" unicode="&#x12d;" horiz-adv-x="385" 
d="M350 920l-129 -920h-174l129 920h174zM484 1350h100q-79 -263 -289 -263q-105 0 -170 75t-59 188h96q3 -61 42.5 -96t99.5 -35q108 0 180 131z" />
    <glyph glyph-name="Iogonek" unicode="&#x12e;" horiz-adv-x="492" 
d="M238 0q-52 -90 -52 -137q0 -43 35 -73t86 -30q29 0 78 13l-20 -140q-66 -16 -127 -16q-95 0 -160.5 55.5t-65.5 134.5q0 80 68 193l194 1397h193l-193 -1397h-36z" />
    <glyph glyph-name="iogonek" unicode="&#x12f;" horiz-adv-x="384" 
d="M302 1115q-41 0 -70.5 29t-29.5 68t29 67.5t70 28.5q42 0 71.5 -28.5t29.5 -67.5t-29.5 -68t-70.5 -29zM205 0q-52 -89 -52 -140q0 -43 37 -71t84 -28q31 0 78 12l-19 -140q-66 -16 -126 -16q-103 0 -165.5 58.5t-62.5 129.5q0 82 66 195l131 920h173l-130 -920h-14z" />
    <glyph glyph-name="Idotaccent" unicode="&#x130;" horiz-adv-x="492" 
d="M469 1397l-197 -1397h-192l196 1397h193zM269 1587q0 49 35 84t84 35q48 0 83 -35t35 -84t-35 -84t-83 -35q-49 0 -84 35t-35 84z" />
    <glyph glyph-name="IJ" unicode="&#x132;" horiz-adv-x="981" 
d="M468 1397l-194 -1397h-194l194 1397h194zM969 1397l-203 -1431q-22 -153 -58 -242.5t-117.5 -142.5t-198.5 -53q-66 0 -129 12l-50 180q76 -18 145 -18q89 0 142 41t75 200l207 1454h187z" />
    <glyph glyph-name="ij" unicode="&#x133;" horiz-adv-x="875" 
d="M396 1209q0 -42 -29.5 -71.5t-70.5 -29.5q-42 0 -71.5 29.5t-29.5 71.5q0 41 29.5 70.5t71.5 29.5q41 0 70.5 -29.5t29.5 -70.5zM855 1207q0 -42 -29.5 -71.5t-71.5 -29.5q-41 0 -71 29.5t-30 71.5q0 41 30 71t71 30q42 0 71.5 -30t29.5 -71zM344 920l-130 -920h-174
l131 920h173zM804 920l-114 -920q-23 -183 -50 -269t-101 -144.5t-184 -58.5q-93 0 -183 44l48 143q63 -19 100 -19q75 0 112 30.5t50.5 84.5t29.5 189l122 920h170z" />
    <glyph glyph-name="Jcircumflex" unicode="&#x134;" horiz-adv-x="492" 
d="M475 1397l-211 -1499q-52 -369 -360 -369q-66 0 -133 12l-43 172q75 -16 135 -16q104 0 153.5 51.5t65.5 161.5l209 1487h184zM490 1795l153 -303h-84l-170 203l-274 -203h-96l268 303h203z" />
    <glyph glyph-name="jcircumflex" unicode="&#x135;" horiz-adv-x="384" 
d="M418 1373l154 -304h-84l-170 202l-273 -202h-97l267 304h203zM362 920l-133 -1034q-16 -129 -45 -196.5t-100.5 -115t-171.5 -47.5q-58 0 -112 20l22 153q41 -10 76 -10q78 0 110.5 47t47.5 163l131 1020h175z" />
    <glyph glyph-name="Kcedilla" unicode="&#x136;" horiz-adv-x="1153" 
d="M1174 1397l-644 -645l625 -752h-219l-576 731l-102 -731h-188l196 1397h189l-93 -598l5 -4l594 602h213zM448 -78q146 -12 191.5 -50.5t45.5 -100.5q0 -80 -59 -132.5t-162 -52.5q-70 0 -135 14l24 95q54 -14 91 -14q49 0 71 22t22 47q0 52 -89 70v102z" />
    <glyph glyph-name="kcedilla" unicode="&#x137;" horiz-adv-x="938" 
d="M418 1397l-126 -881l390 404h221l-422 -435l451 -485h-221l-424 467l-66 -467h-172l195 1397h174zM337 -78q146 -12 191.5 -50.5t45.5 -100.5q0 -80 -59 -132.5t-162 -52.5q-70 0 -135 14l24 95q54 -14 91 -14q49 0 71 22t22 47q0 52 -89 70v102z" />
    <glyph glyph-name="kgreenlandic" unicode="&#x138;" horiz-adv-x="939" 
d="M351 920l-61 -400l393 400h233l-422 -435l444 -485h-227l-421 466l-70 -466h-173l132 920h172z" />
    <glyph glyph-name="Lacute" unicode="&#x139;" horiz-adv-x="854" 
d="M453 1397l-183 -1241h574l-23 -156h-749l196 1397h185zM671 1794h207l-232 -299h-114z" />
    <glyph glyph-name="lacute" unicode="&#x13a;" horiz-adv-x="385" 
d="M418 1397l-197 -1397h-174l197 1397h174zM354 1797h207l-232 -299h-114z" />
    <glyph glyph-name="Lcedilla" unicode="&#x13b;" horiz-adv-x="854" 
d="M453 1397l-183 -1241h574l-23 -156h-749l196 1397h185zM327 -78q146 -12 191.5 -50.5t45.5 -100.5q0 -80 -59 -132.5t-162 -52.5q-70 0 -135 14l24 95q54 -14 91 -14q49 0 71 22t22 47q0 52 -89 70v102z" />
    <glyph glyph-name="lcedilla" unicode="&#x13c;" horiz-adv-x="385" 
d="M418 1397l-197 -1397h-174l197 1397h174zM9 -78q146 -12 191.5 -50.5t45.5 -100.5q0 -80 -59 -132.5t-162 -52.5q-70 0 -135 14l24 95q54 -14 91 -14q49 0 71 22t22 47q0 52 -89 70v102z" />
    <glyph glyph-name="Lcaron" unicode="&#x13d;" horiz-adv-x="854" 
d="M453 1397l-183 -1241h574l-23 -156h-749l196 1397h185zM593 1493l-153 303h84l170 -203l274 203h96l-268 -303h-203z" />
    <glyph glyph-name="lcaron" unicode="&#x13e;" horiz-adv-x="619" 
d="M418 1397l-197 -1397h-174l197 1397h174zM442 1009q135 44 135 176q-81 34 -81 108q0 53 37.5 87t87.5 34q60 0 97 -46t37 -116q0 -109 -83.5 -203.5t-242.5 -130.5z" />
    <glyph glyph-name="Ldot" unicode="&#x13f;" horiz-adv-x="854" 
d="M453 1397l-183 -1241h574l-23 -156h-749l196 1397h185zM625 577q-43 0 -74.5 32t-31.5 75q0 44 31.5 76t75.5 32t76 -31.5t32 -73.5q0 -45 -32.5 -77.5t-76.5 -32.5z" />
    <glyph glyph-name="ldot" unicode="&#x140;" horiz-adv-x="597" 
d="M422 1397l-197 -1397h-174l197 1397h174zM533 586q-43 0 -74.5 32t-31.5 75q0 44 31.5 76t75.5 32t76 -31.5t32 -73.5q0 -45 -32.5 -77.5t-76.5 -32.5z" />
    <glyph glyph-name="Nacute" unicode="&#x143;" horiz-adv-x="1409" 
d="M1389 1397l-197 -1397h-100l-695 1020l-143 -1020h-174l196 1397h95l698 -1028l145 1028h175zM950 1794h207l-232 -299h-114z" />
    <glyph glyph-name="nacute" unicode="&#x144;" 
d="M365 920l-23 -162l4 -4q147 180 305 180q107 0 166 -78.5t59 -202.5q0 -35 -6 -73l-88 -580h-172l84 586q5 31 5 57q0 72 -30 110t-75 38q-26 0 -58.5 -13t-69.5 -40t-91.5 -82t-57.5 -70l-84 -586h-172l129 920h175zM575 1372h207l-232 -299h-114z" />
    <glyph glyph-name="Ncedilla" unicode="&#x145;" horiz-adv-x="1409" 
d="M1389 1397l-197 -1397h-100l-695 1020l-143 -1020h-174l196 1397h95l698 -1028l145 1028h175zM537 -78q146 -12 191.5 -50.5t45.5 -100.5q0 -80 -59 -132.5t-162 -52.5q-70 0 -135 14l24 95q54 -14 91 -14q49 0 71 22t22 47q0 52 -89 70v102z" />
    <glyph glyph-name="ncedilla" unicode="&#x146;" 
d="M365 920l-23 -162l4 -4q147 180 305 180q107 0 166 -78.5t59 -202.5q0 -35 -6 -73l-88 -580h-172l84 586q5 31 5 57q0 72 -30 110t-75 38q-26 0 -58.5 -13t-69.5 -40t-91.5 -82t-57.5 -70l-84 -586h-172l129 920h175zM297 -78q146 -12 191.5 -50.5t45.5 -100.5
q0 -80 -59 -132.5t-162 -52.5q-70 0 -135 14l24 95q54 -14 91 -14q49 0 71 22t22 47q0 52 -89 70v102z" />
    <glyph glyph-name="Ncaron" unicode="&#x147;" horiz-adv-x="1409" 
d="M1389 1397l-197 -1397h-100l-695 1020l-143 -1020h-174l196 1397h95l698 -1028l145 1028h175zM765 1493l-153 303h84l170 -203l274 203h96l-268 -303h-203z" />
    <glyph glyph-name="ncaron" unicode="&#x148;" 
d="M365 920l-23 -162l4 -4q147 180 305 180q107 0 166 -78.5t59 -202.5q0 -35 -6 -73l-88 -580h-172l84 586q5 31 5 57q0 72 -30 110t-75 38q-26 0 -58.5 -13t-69.5 -40t-91.5 -82t-57.5 -70l-84 -586h-172l129 920h175zM480 1069l-153 303h84l170 -203l274 203h96
l-268 -303h-203z" />
    <glyph glyph-name="napostrophe" unicode="&#x149;" horiz-adv-x="1301" 
d="M696 920l-23 -162l4 -4q147 180 305 180q107 0 166 -78.5t59 -202.5q0 -35 -6 -73l-88 -580h-172l84 586q5 31 5 57q0 72 -30 110t-75 38q-26 0 -58.5 -13t-69.5 -40t-91.5 -82t-57.5 -70l-84 -586h-172l129 920h175zM122 924l12 90q135 44 135 176q-80 35 -80 104
q0 54 36.5 87.5t92.5 33.5q55 0 92.5 -46t37.5 -116q0 -113 -87.5 -204t-238.5 -125z" />
    <glyph glyph-name="Eng" unicode="&#x14a;" horiz-adv-x="1415" 
d="M696 -460l-50 180q76 -18 144 -18q106 0 149.5 53.5t62.5 187.5l104 739q22 154 22 244q0 137 -85.5 232.5t-235.5 95.5q-229 0 -399 -244l-143 -1010h-194l194 1397h194l-17 -150q192 169 417 169q204 0 334.5 -135.5t130.5 -351.5q0 -73 -19 -203l-107 -760
q-21 -149 -56.5 -239.5t-117 -144.5t-207.5 -54q-59 0 -121 12z" />
    <glyph glyph-name="eng" unicode="&#x14b;" horiz-adv-x="960" 
d="M329 754q154 180 307 180q108 0 169 -78.5t61 -187.5q0 -45 -10 -115l-89 -622q-21 -149 -49 -230t-95.5 -127t-165.5 -46q-53 0 -132 16l25 159q46 -15 83 -15q68 0 102 46t56 218l6 48h1l75 553q9 68 9 105q0 58 -29.5 95.5t-73.5 37.5q-120 0 -276 -205l-84 -586h-173
l131 920h175z" />
    <glyph glyph-name="Omacron" unicode="&#x14c;" horiz-adv-x="1343" 
d="M782 1415q221 0 357.5 -161.5t136.5 -424.5q0 -364 -199 -605.5t-475 -241.5q-218 0 -358 165t-140 424q0 323 190.5 583.5t487.5 260.5zM606 150q194 0 337.5 208.5t143.5 503.5q0 180 -83 282.5t-224 102.5q-216 0 -351.5 -215.5t-135.5 -486.5q0 -183 85 -289
t228 -106zM1136 1626l-18 -131h-660l19 131h659z" />
    <glyph glyph-name="omacron" unicode="&#x14d;" horiz-adv-x="918" 
d="M514 948q155 0 248.5 -109.5t93.5 -291.5q0 -252 -126 -414t-310 -162q-162 0 -254 109t-92 303q0 241 127 403t313 162zM514 811q-107 0 -184.5 -132.5t-77.5 -313.5q0 -108 46.5 -176t115.5 -68q109 0 186.5 124t77.5 312q0 116 -45 185t-119 69zM899 1301l-18 -131
h-660l19 131h659z" />
    <glyph glyph-name="Obreve" unicode="&#x14e;" horiz-adv-x="1343" 
d="M782 1415q221 0 357.5 -161.5t136.5 -424.5q0 -364 -199 -605.5t-475 -241.5q-218 0 -358 165t-140 424q0 323 190.5 583.5t487.5 260.5zM606 150q194 0 337.5 208.5t143.5 503.5q0 180 -83 282.5t-224 102.5q-216 0 -351.5 -215.5t-135.5 -486.5q0 -183 85 -289
t228 -106zM1027 1786h100q-79 -263 -289 -263q-105 0 -170 75t-59 188h96q3 -61 42.5 -96t99.5 -35q108 0 180 131z" />
    <glyph glyph-name="obreve" unicode="&#x14f;" horiz-adv-x="918" 
d="M514 948q155 0 248.5 -109.5t93.5 -291.5q0 -252 -126 -414t-310 -162q-162 0 -254 109t-92 303q0 241 127 403t313 162zM514 811q-107 0 -184.5 -132.5t-77.5 -313.5q0 -108 46.5 -176t115.5 -68q109 0 186.5 124t77.5 312q0 116 -45 185t-119 69zM743 1350h100
q-79 -263 -289 -263q-105 0 -170 75t-59 188h96q3 -61 42.5 -96t99.5 -35q108 0 180 131z" />
    <glyph glyph-name="Odblacute" unicode="&#x150;" horiz-adv-x="1343" 
d="M782 1415q221 0 357.5 -161.5t136.5 -424.5q0 -364 -199 -605.5t-475 -241.5q-218 0 -358 165t-140 424q0 323 190.5 583.5t487.5 260.5zM606 150q194 0 337.5 208.5t143.5 503.5q0 180 -83 282.5t-224 102.5q-216 0 -351.5 -215.5t-135.5 -486.5q0 -183 85 -289
t228 -106zM1054 1795h207l-232 -299h-114zM728 1795h207l-231 -299h-115z" />
    <glyph glyph-name="odblacute" unicode="&#x151;" horiz-adv-x="918" 
d="M514 948q155 0 248.5 -109.5t93.5 -291.5q0 -252 -126 -414t-310 -162q-162 0 -254 109t-92 303q0 241 127 403t313 162zM514 811q-107 0 -184.5 -132.5t-77.5 -313.5q0 -108 46.5 -176t115.5 -68q109 0 186.5 124t77.5 312q0 116 -45 185t-119 69zM761 1374h207
l-232 -299h-114zM435 1374h207l-231 -299h-115z" />
    <glyph glyph-name="Racute" unicode="&#x154;" horiz-adv-x="1087" 
d="M270 1397h252q277 0 376 -110t99 -269q0 -123 -75 -214.5t-211 -127.5q62 -40 116 -154l250 -522h-200l-160 332q-76 157 -129 220.5t-162 63.5h-74l-86 -616h-192zM438 1231l-61 -449h98q159 0 241.5 66.5t82.5 179.5q0 203 -252 203h-109zM690 1794h207l-232 -299h-114
z" />
    <glyph glyph-name="racute" unicode="&#x155;" horiz-adv-x="641" 
d="M379 920l-27 -175l4 -4q82 117 130 155t114 38q41 0 76 -14v-197q-55 31 -107 31q-51 0 -91 -25.5t-97 -109t-59 -101.5l-72 -518h-174l129 920h174zM495 1372h207l-232 -299h-114z" />
    <glyph glyph-name="Rcedilla" unicode="&#x156;" horiz-adv-x="1087" 
d="M270 1397h252q277 0 376 -110t99 -269q0 -123 -75 -214.5t-211 -127.5q62 -40 116 -154l250 -522h-200l-160 332q-76 157 -129 220.5t-162 63.5h-74l-86 -616h-192zM438 1231l-61 -449h98q159 0 241.5 66.5t82.5 179.5q0 203 -252 203h-109zM407 -78q146 -12 191.5 -50.5
t45.5 -100.5q0 -80 -59 -132.5t-162 -52.5q-70 0 -135 14l24 95q54 -14 91 -14q49 0 71 22t22 47q0 52 -89 70v102z" />
    <glyph glyph-name="rcedilla" unicode="&#x157;" horiz-adv-x="641" 
d="M379 920l-27 -175l4 -4q82 117 130 155t114 38q41 0 76 -14v-197q-55 31 -107 31q-51 0 -91 -25.5t-97 -109t-59 -101.5l-72 -518h-174l129 920h174zM49 -78q146 -12 191.5 -50.5t45.5 -100.5q0 -80 -59 -132.5t-162 -52.5q-70 0 -135 14l24 95q54 -14 91 -14q49 0 71 22
t22 47q0 52 -89 70v102z" />
    <glyph glyph-name="Rcaron" unicode="&#x158;" horiz-adv-x="1087" 
d="M270 1397h252q277 0 376 -110t99 -269q0 -123 -75 -214.5t-211 -127.5q62 -40 116 -154l250 -522h-200l-160 332q-76 157 -129 220.5t-162 63.5h-74l-86 -616h-192zM438 1231l-61 -449h98q159 0 241.5 66.5t82.5 179.5q0 203 -252 203h-109zM544 1493l-153 303h84
l170 -203l274 203h96l-268 -303h-203z" />
    <glyph glyph-name="rcaron" unicode="&#x159;" horiz-adv-x="641" 
d="M379 920l-27 -175l4 -4q82 117 130 155t114 38q41 0 76 -14v-197q-55 31 -107 31q-51 0 -91 -25.5t-97 -109t-59 -101.5l-72 -518h-174l129 920h174zM347 1069l-153 303h84l170 -203l274 203h96l-268 -303h-203z" />
    <glyph glyph-name="Sacute" unicode="&#x15a;" horiz-adv-x="938" 
d="M899 1360l-27 -191q-112 74 -245 74q-112 0 -179 -58t-67 -153q0 -47 32 -99t187 -176.5t204.5 -218.5t49.5 -188q0 -150 -113 -259t-301 -109q-167 0 -338 100l29 205q191 -133 328 -133q74 0 140.5 48.5t66.5 131.5q0 53 -33.5 110t-189 184t-203 220.5t-47.5 185.5
q0 162 134 271.5t316 109.5q127 0 256 -55zM717 1794h207l-232 -299h-114z" />
    <glyph glyph-name="sacute" unicode="&#x15b;" horiz-adv-x="725" 
d="M662 852v-182q-159 121 -277 121q-53 0 -89 -28.5t-36 -68.5q0 -26 22.5 -55.5t142 -109.5t161 -147t41.5 -136q0 -121 -80.5 -198t-204.5 -77q-153 0 -319 121l30 168q172 -137 283 -137q52 0 85.5 29t33.5 73q0 33 -24.5 67.5t-142.5 116.5t-156 146t-38 129
q0 119 79 191.5t210 72.5q138 0 279 -96zM463 1372h207l-232 -299h-114z" />
    <glyph glyph-name="Scircumflex" unicode="&#x15c;" horiz-adv-x="938" 
d="M899 1360l-27 -191q-112 74 -245 74q-112 0 -179 -58t-67 -153q0 -47 32 -99t187 -176.5t204.5 -218.5t49.5 -188q0 -150 -113 -259t-301 -109q-167 0 -338 100l29 205q191 -133 328 -133q74 0 140.5 48.5t66.5 131.5q0 53 -33.5 110t-189 184t-203 220.5t-47.5 185.5
q0 162 134 271.5t316 109.5q127 0 256 -55zM790 1795l153 -303h-84l-170 203l-274 -203h-96l268 303h203z" />
    <glyph glyph-name="scircumflex" unicode="&#x15d;" horiz-adv-x="725" 
d="M662 852v-182q-159 121 -277 121q-53 0 -89 -28.5t-36 -68.5q0 -26 22.5 -55.5t142 -109.5t161 -147t41.5 -136q0 -121 -80.5 -198t-204.5 -77q-153 0 -319 121l30 168q172 -137 283 -137q52 0 85.5 29t33.5 73q0 33 -24.5 67.5t-142.5 116.5t-156 146t-38 129
q0 119 79 191.5t210 72.5q138 0 279 -96zM591 1372l153 -303h-84l-170 203l-274 -203h-96l268 303h203z" />
    <glyph glyph-name="Scommaaccent" unicode="&#x15e;" horiz-adv-x="938" 
d="M899 1360l-27 -191q-114 74 -245 74q-113 0 -179.5 -57.5t-66.5 -153.5q0 -90 123 -196l196 -171q76 -67 115 -148t39 -167q0 -154 -114 -260t-265 -106l-4 -19q94 -43 94 -139q0 -76 -62.5 -126t-154.5 -50q-67 0 -139 14l24 94q58 -14 86 -14q97 0 97 78q0 47 -56 72
l41 88q-149 12 -299 100l29 205q193 -133 328 -133q77 0 142 49t65 131q0 45 -25.5 93t-65.5 87.5t-260 230.5q-122 134 -122 289q0 162 133 271.5t317 109.5q129 0 256 -55z" />
    <glyph glyph-name="scommaaccent" unicode="&#x15f;" horiz-adv-x="725" 
d="M662 852v-182q-158 121 -277 121q-56 0 -90.5 -29t-34.5 -68q0 -51 94 -119l133 -97q57 -41 84 -77t41.5 -75t14.5 -80q0 -124 -81 -199.5t-194 -75.5l-2 -6q94 -43 94 -139q0 -76 -62.5 -126t-154.5 -50q-67 0 -139 14l25 94q57 -14 86 -14q96 0 96 78q0 49 -55 72
l39 81q-109 15 -256 117l30 168q172 -137 283 -137q51 0 85 28.5t34 73.5q0 62 -95 131l-155 118q-48 37 -79.5 93t-31.5 117q0 119 79 191.5t210 72.5q139 0 279 -96z" />
    <glyph glyph-name="Tcedilla" unicode="&#x162;" horiz-adv-x="1044" 
d="M1141 1397l-25 -174h-393l-172 -1223h-193l172 1223h-393l25 174h979zM322 -78q146 -12 191.5 -50.5t45.5 -100.5q0 -80 -59 -132.5t-162 -52.5q-70 0 -135 14l24 95q54 -14 91 -14q49 0 71 22t22 47q0 52 -89 70v102z" />
    <glyph glyph-name="tcedilla" unicode="&#x163;" horiz-adv-x="575" 
d="M584 920l-19 -136h-184l-70 -397q-25 -145 -25 -170q0 -48 22 -69t75 -21q72 0 168 55l-10 -170q-96 -41 -191 -41v-6q94 -41 94 -139q0 -75 -62 -125.5t-155 -50.5q-66 0 -139 14l25 94q56 -14 86 -14q44 0 70 21t26 57q0 69 -55 72l26 86q-160 52 -160 197q0 21 26 173
l75 434h-162l21 136h167l35 188h172l-32 -188h176z" />
    <glyph glyph-name="Tcaron" unicode="&#x164;" horiz-adv-x="1044" 
d="M1141 1397l-25 -174h-393l-172 -1223h-193l172 1223h-393l25 174h979zM593 1493l-153 303h84l170 -203l274 203h96l-268 -303h-203z" />
    <glyph glyph-name="tcaron" unicode="&#x165;" horiz-adv-x="853" 
d="M584 920l-19 -136h-184l-88 -503q-7 -38 -7 -64q0 -90 97 -90q72 0 168 55l-10 -170q-96 -41 -191 -41q-113 0 -178.5 57.5t-65.5 151.5q0 23 5 47l96 557h-162l21 136h167l35 188h172l-32 -188h176zM670 1005q135 44 135 176q-81 34 -81 108q0 53 37.5 87t87.5 34
q60 0 97 -46t37 -116q0 -109 -83.5 -203.5t-242.5 -130.5z" />
    <glyph glyph-name="Tbar" unicode="&#x166;" horiz-adv-x="1045" 
d="M653 730h379l-25 -134h-373l-85 -596h-190l84 596h-350l20 134h350l69 491h-395l27 176h971l-27 -176h-385z" />
    <glyph glyph-name="tbar" unicode="&#x167;" horiz-adv-x="576" 
d="M345 578h199l-18 -127h-203l-22 -126q-15 -84 -15 -125q0 -73 101 -73q80 0 164 60l-11 -174q-95 -41 -190 -41q-118 0 -180.5 59.5t-62.5 143.5q0 36 18 138l25 138h-157l18 127h161l35 207h-163l22 135h167l34 188h173l-32 -188h177l-22 -135h-181z" />
    <glyph glyph-name="Utilde" unicode="&#x168;" horiz-adv-x="1300" 
d="M1311 1397l-121 -862q-38 -272 -187 -412.5t-395 -140.5q-218 0 -348.5 118t-130.5 315q0 41 6 83l127 899h184l-129 -914q-4 -29 -4 -56q0 -129 85 -203t220 -74q117 0 206.5 55.5t123.5 138.5t57 250l113 803h193zM1026 1747h80q0 -99 -46.5 -166t-121.5 -67
q-28 0 -138 39t-145 39q-61 0 -70 -76h-81q2 111 46.5 172t118.5 61q39 0 146 -38.5t141 -38.5q59 0 70 75z" />
    <glyph glyph-name="utilde" unicode="&#x169;" 
d="M898 920l-131 -920h-172l16 156q-159 -170 -303 -170q-93 0 -157.5 66.5t-64.5 189.5q0 35 5 71l86 607h174l-86 -607q-4 -30 -4 -56q0 -138 102 -138q107 0 277 203l84 598h174zM817 1335h80q0 -99 -46.5 -166t-121.5 -67q-28 0 -138 39t-145 39q-61 0 -70 -76h-81
q2 111 46.5 172t118.5 61q39 0 146 -38.5t141 -38.5q59 0 70 75z" />
    <glyph glyph-name="Umacron" unicode="&#x16a;" horiz-adv-x="1300" 
d="M1311 1397l-121 -862q-38 -272 -187 -412.5t-395 -140.5q-218 0 -348.5 118t-130.5 315q0 41 6 83l127 899h184l-129 -914q-4 -29 -4 -56q0 -129 85 -203t220 -74q117 0 206.5 55.5t123.5 138.5t57 250l113 803h193zM1164 1626l-18 -131h-660l19 131h659z" />
    <glyph glyph-name="umacron" unicode="&#x16b;" 
d="M898 920l-131 -920h-172l16 156q-159 -170 -303 -170q-93 0 -157.5 66.5t-64.5 189.5q0 35 5 71l86 607h174l-86 -607q-4 -30 -4 -56q0 -138 102 -138q107 0 277 203l84 598h174zM920 1301l-18 -131h-660l19 131h659z" />
    <glyph glyph-name="Ubreve" unicode="&#x16c;" horiz-adv-x="1300" 
d="M1311 1397l-121 -862q-38 -272 -187 -412.5t-395 -140.5q-218 0 -348.5 118t-130.5 315q0 41 6 83l127 899h184l-129 -914q-4 -29 -4 -56q0 -129 85 -203t220 -74q117 0 206.5 55.5t123.5 138.5t57 250l113 803h193zM1016 1786h100q-79 -263 -289 -263q-105 0 -170 75
t-59 188h96q3 -61 42.5 -96t99.5 -35q108 0 180 131z" />
    <glyph glyph-name="ubreve" unicode="&#x16d;" 
d="M898 920l-131 -920h-172l16 156q-159 -170 -303 -170q-93 0 -157.5 66.5t-64.5 189.5q0 35 5 71l86 607h174l-86 -607q-4 -30 -4 -56q0 -138 102 -138q107 0 277 203l84 598h174zM758 1350h100q-79 -263 -289 -263q-105 0 -170 75t-59 188h96q3 -61 42.5 -96t99.5 -35
q108 0 180 131z" />
    <glyph glyph-name="Uring" unicode="&#x16e;" horiz-adv-x="1300" 
d="M1311 1397l-121 -862q-38 -272 -187 -412.5t-395 -140.5q-218 0 -348.5 118t-130.5 315q0 41 6 83l127 899h184l-129 -914q-4 -29 -4 -56q0 -129 85 -203t220 -74q117 0 206.5 55.5t123.5 138.5t57 250l113 803h193zM636 1696q0 79 56.5 135.5t136.5 56.5
q79 0 135.5 -56.5t56.5 -135.5q0 -80 -56.5 -136.5t-135.5 -56.5q-80 0 -136.5 56.5t-56.5 136.5zM941 1692q0 45 -33.5 78.5t-78.5 33.5q-46 0 -79.5 -33.5t-33.5 -78.5q0 -46 33.5 -79.5t79.5 -33.5q45 0 78.5 33.5t33.5 79.5z" />
    <glyph glyph-name="uring" unicode="&#x16f;" 
d="M898 920l-131 -920h-172l16 156q-159 -170 -303 -170q-93 0 -157.5 66.5t-64.5 189.5q0 35 5 71l86 607h174l-86 -607q-4 -30 -4 -56q0 -138 102 -138q107 0 277 203l84 598h174zM392 1224q0 79 56.5 135.5t136.5 56.5q79 0 135.5 -56.5t56.5 -135.5q0 -80 -56.5 -136.5
t-135.5 -56.5q-80 0 -136.5 56.5t-56.5 136.5zM697 1220q0 45 -33.5 78.5t-78.5 33.5q-46 0 -79.5 -33.5t-33.5 -78.5q0 -46 33.5 -79.5t79.5 -33.5q45 0 78.5 33.5t33.5 79.5z" />
    <glyph glyph-name="Udblacute" unicode="&#x170;" horiz-adv-x="1300" 
d="M1311 1397l-121 -862q-38 -272 -187 -412.5t-395 -140.5q-218 0 -348.5 118t-130.5 315q0 41 6 83l127 899h184l-129 -914q-4 -29 -4 -56q0 -129 85 -203t220 -74q117 0 206.5 55.5t123.5 138.5t57 250l113 803h193zM1081 1795h207l-232 -299h-114zM755 1795h207
l-231 -299h-115z" />
    <glyph glyph-name="udblacute" unicode="&#x171;" 
d="M898 920l-131 -920h-172l16 156q-159 -170 -303 -170q-93 0 -157.5 66.5t-64.5 189.5q0 35 5 71l86 607h174l-86 -607q-4 -30 -4 -56q0 -138 102 -138q107 0 277 203l84 598h174zM783 1374h207l-232 -299h-114zM457 1374h207l-231 -299h-115z" />
    <glyph glyph-name="Uogonek" unicode="&#x172;" horiz-adv-x="1300" 
d="M1305 1397l-121 -862q-71 -508 -512 -549q-43 -74 -43 -123q0 -43 34.5 -73t86.5 -30q28 0 77 13l-20 -140q-66 -16 -127 -16q-94 0 -159.5 56.5t-65.5 133.5q0 87 61 179q-176 24 -284.5 137t-108.5 291q0 41 6 84l127 899h184l-129 -914q-4 -29 -4 -57
q0 -129 85.5 -202.5t219.5 -73.5q117 0 205 53t125 150.5t57 240.5l113 803h193z" />
    <glyph glyph-name="uogonek" unicode="&#x173;" horiz-adv-x="960" 
d="M748 0q-52 -89 -52 -140q0 -43 37 -71t84 -28q31 0 78 12l-19 -140q-65 -16 -126 -16q-103 0 -165.5 58.5t-62.5 129.5q0 82 66 195l23 157q-165 -166 -309 -166q-99 0 -160.5 66.5t-61.5 174.5q0 44 19 169l73 519h173l-77 -561q-11 -78 -11 -114q0 -60 30.5 -91
t69.5 -31q115 0 277 199l85 598h173l-130 -920h-14z" />
    <glyph glyph-name="Wcircumflex" unicode="&#x174;" horiz-adv-x="1898" 
d="M2019 1397l-676 -1409h-71l-271 991l-475 -991h-73l-330 1409h176l231 -989l471 989h72l273 -1006l479 1006h194zM1182 1795l153 -303h-84l-170 203l-274 -203h-96l268 303h203z" />
    <glyph glyph-name="wcircumflex" unicode="&#x175;" horiz-adv-x="1260" 
d="M1325 920l-473 -938h-82l-123 602l-311 -602h-80l-190 938h170l114 -619l299 619h86l115 -619l305 619h170zM835 1372l153 -303h-84l-170 203l-274 -203h-96l268 303h203z" />
    <glyph glyph-name="Ycircumflex" unicode="&#x176;" horiz-adv-x="1004" 
d="M1141 1397l-490 -701l-98 -696h-184l98 696l-328 701h195l237 -512l357 512h213zM777 1795l153 -303h-84l-170 203l-274 -203h-96l268 303h203z" />
    <glyph glyph-name="ycircumflex" unicode="&#x177;" horiz-adv-x="768" 
d="M819 920l-659 -1391h-185l250 526l-178 865h174l127 -633l289 633h182zM610 1372l153 -303h-84l-170 203l-274 -203h-96l268 303h203z" />
    <glyph glyph-name="Zacute" unicode="&#x179;" horiz-adv-x="1194" 
d="M1325 1397l-1018 -1223h828l-25 -174h-1176l1014 1223h-794l24 174h1147zM825 1794h207l-232 -299h-114z" />
    <glyph glyph-name="zacute" unicode="&#x17a;" horiz-adv-x="938" 
d="M915 920l-610 -766h535l-33 -154h-834l600 766h-464l20 154h786zM565 1372h207l-232 -299h-114z" />
    <glyph glyph-name="Zdot" unicode="&#x17b;" horiz-adv-x="1194" 
d="M1325 1397l-1018 -1223h828l-25 -174h-1176l1014 1223h-794l24 174h1147zM680 1587q0 49 35 84t84 35q48 0 83 -35t35 -84t-35 -84t-83 -35q-49 0 -84 35t-35 84z" />
    <glyph glyph-name="zdot" unicode="&#x17c;" horiz-adv-x="938" 
d="M915 920l-610 -766h535l-33 -154h-834l600 766h-464l20 154h786zM461 1214q0 49 35 84t84 35q48 0 83 -35t35 -84t-35 -84t-83 -35q-49 0 -84 35t-35 84z" />
    <glyph glyph-name="longs" unicode="&#x17f;" horiz-adv-x="555" 
d="M895 1373l-25 -173q-94 52 -188 52q-95 0 -162 -55.5t-90 -135.5t-51 -298l-98 -763h-171l101 800q37 291 86.5 392.5t147.5 162.5t226 61q101 0 224 -43z" />
    <glyph glyph-name="Aringacute" unicode="&#x1fa;" horiz-adv-x="1067" 
d="M999 2114l-341 -309h-107l151 309h297zM739 1339l255 -1339h-174l-81 437h-438l-184 -437h-189l595 1339q-91 60 -91 168q0 89 62 149.5t144 60.5q79 0 143 -57t64 -146q0 -114 -106 -175zM638 1397q46 0 79.5 33.5t33.5 79.5t-34.5 80t-81.5 34q-46 0 -78 -33t-32 -81
q0 -47 33.5 -80t79.5 -33zM604 1154l-240 -568h346z" />
    <glyph glyph-name="aringacute" unicode="&#x1fb;" 
d="M913 924l-129 -920h-174l17 106l-4 5q-121 -129 -248 -129q-126 0 -214.5 106.5t-88.5 257.5q0 262 164.5 432t459.5 170q120 0 217 -28zM647 270l76 531q-28 2 -54 2q-205 0 -312 -130.5t-107 -291.5q0 -111 51.5 -181.5t130.5 -70.5q63 0 138 62.5t77 78.5zM441 1224
q0 79 56.5 135.5t136.5 56.5q79 0 135.5 -56.5t56.5 -135.5q0 -80 -56.5 -136.5t-135.5 -56.5q-80 0 -136.5 56.5t-56.5 136.5zM746 1220q0 45 -33.5 78.5t-78.5 33.5q-46 0 -79.5 -33.5t-33.5 -78.5q0 -46 33.5 -79.5t79.5 -33.5q45 0 78.5 33.5t33.5 79.5zM730 1803h207
l-232 -299h-114z" />
    <glyph glyph-name="AEacute" unicode="&#x1fc;" horiz-adv-x="1706" 
d="M1640 1397l-22 -166h-535l-61 -432h502l-23 -166h-502l-65 -467h729l-23 -166h-913l88 633h-311l-348 -633h-199l797 1397h886zM901 1243h-63l-254 -463h252zM1145 1794h207l-232 -299h-114z" />
    <glyph glyph-name="aeacute" unicode="&#x1fd;" horiz-adv-x="1323" 
d="M1204 244l-24 -178q-149 -95 -299 -95q-211 0 -312 174q-155 -174 -309 -174q-107 0 -171 60t-64 159q0 252 510 345q18 60 18 111q0 70 -34 110.5t-93 40.5q-134 0 -303 -170l29 196q152 125 307 125q138 0 205 -125q119 125 284 125q133 0 220.5 -116.5t87.5 -287.5
q0 -52 -9 -104h-547q-12 -53 -12 -100q0 -106 60.5 -165.5t156.5 -59.5q131 0 299 129zM717 561h373q4 95 -41 169.5t-131 74.5q-79 0 -135.5 -63t-65.5 -181zM494 217l26 191q-151 -30 -234 -86t-83 -123q0 -37 26 -60.5t66 -23.5q91 0 199 102zM727 1372h207l-232 -299
h-114z" />
    <glyph glyph-name="Oslashacute" unicode="&#x1fe;" horiz-adv-x="1343" 
d="M1122 1274l133 160l78 -93l-139 -165q82 -134 82 -347q0 -364 -199 -605.5t-475 -241.5q-181 0 -311 116l-154 -182l-78 84l154 184q-109 163 -109 387q0 323 190.5 583.5t487.5 260.5q200 0 340 -141zM334 330l676 809q-75 108 -230 108q-216 0 -351.5 -215.5
t-135.5 -486.5q0 -106 41 -215zM1067 1024l-668 -795q74 -79 207 -79q194 0 337.5 208.5t143.5 503.5q0 89 -20 162zM913 1794h207l-232 -299h-114z" />
    <glyph glyph-name="oslashacute" unicode="&#x1ff;" horiz-adv-x="918" 
d="M881 879l-80 -95q55 -101 55 -237q0 -252 -126 -414t-310 -162q-148 0 -238 92l-84 -96l-61 68l90 104q-53 101 -53 244q0 241 127 403t313 162q142 0 231 -92l76 88zM260 293l377 438q-45 80 -123 80q-107 0 -184.5 -132.5t-77.5 -313.5q0 -42 8 -72zM672 633l-377 -438
q46 -74 119 -74q109 0 186.5 124t77.5 312q0 42 -6 76zM568 1372h207l-232 -299h-114z" />
    <glyph glyph-name="tonos" unicode="&#x384;" horiz-adv-x="682" 
d="M528 1452l-127 -387h-102l45 387h184z" />
    <glyph glyph-name="dieresistonos" unicode="&#x385;" horiz-adv-x="682" 
d="M528 1497l-127 -387h-102l45 387h184zM608 1124q-39 0 -66.5 27t-27.5 66q0 38 26.5 65t65.5 27q41 0 68.5 -27t27.5 -65q0 -37 -27.5 -65t-66.5 -28zM145 1124q-39 0 -66.5 27t-27.5 66q0 38 26.5 65t65.5 27q41 0 69 -27t28 -63q0 -39 -28 -67t-67 -28z" />
    <glyph glyph-name="Alphatonos" unicode="&#x386;" horiz-adv-x="1130" 
d="M818 1405l272 -1405h-172l-84 438h-438l-184 -438h-187l617 1405h176zM457 586h349l-107 573zM390 1419l-127 -387h-102l45 387h184z" />
    <glyph glyph-name="anoteleia" unicode="&#x387;" horiz-adv-x="576" 
d="M445 825q0 -51 -36 -87t-86 -36t-86 36t-36 87t35.5 86.5t86.5 35.5q50 0 86 -35.5t36 -86.5z" />
    <glyph glyph-name="Epsilontonos" unicode="&#x388;" horiz-adv-x="1186" 
d="M1093 1397l-23 -166h-559l-61 -438h493l-22 -166h-496l-67 -461h735l-25 -166h-917l203 1397h739zM229 1419l-127 -387h-102l45 387h184z" />
    <glyph glyph-name="Etatonos" unicode="&#x389;" horiz-adv-x="1548" 
d="M1507 1397l-197 -1397h-192l88 618h-756l-86 -618h-192l196 1397h191l-84 -604h755l84 604h193zM251 1419l-127 -387h-102l45 387h184z" />
    <glyph glyph-name="Iotatonos" unicode="&#x38a;" horiz-adv-x="606" 
d="M567 1397l-197 -1397h-192l196 1397h193zM260 1419l-127 -387h-102l45 387h184z" />
    <glyph glyph-name="Omicrontonos" unicode="&#x38c;" horiz-adv-x="1366" 
d="M782 1415q221 0 357.5 -161.5t136.5 -424.5q0 -364 -199 -605.5t-475 -241.5q-218 0 -358 165t-140 424q0 323 190.5 583.5t487.5 260.5zM606 150q194 0 337.5 208.5t143.5 503.5q0 180 -83 282.5t-224 102.5q-216 0 -351.5 -215.5t-135.5 -486.5q0 -183 85 -289
t228 -106zM229 1419l-127 -387h-102l45 387h184z" />
    <glyph glyph-name="Upsilontonos" unicode="&#x38e;" horiz-adv-x="1227" 
d="M1301 1397l-490 -701l-98 -696h-184l98 696l-328 701h195l237 -512l357 512h213zM178 1419l-127 -387h-102l45 387h184z" />
    <glyph glyph-name="Omegatonos" unicode="&#x38f;" horiz-adv-x="1393" 
d="M45 178h311q-252 191 -252 500q0 319 240 559q178 178 432 178q253 0 405 -189q132 -164 132 -378q0 -249 -121 -424q-92 -133 -277 -246h306l-29 -178h-471l29 180q203 165 287 308q85 147 85 337q0 156 -61 265q-87 155 -279 155q-221 0 -366 -191q-128 -170 -127 -374
q0 -156 68 -286q49 -94 159 -214l-29 -180h-471zM229 1419l-127 -387h-102l45 387h184z" />
    <glyph glyph-name="iotadieresistonos" unicode="&#x390;" horiz-adv-x="481" 
d="M356 920l-90 -631q-6 -43 -6 -74q0 -80 80 -80q38 0 100 27l-22 -150q-109 -41 -156 -41q-85 0 -139 52q-51 49 -51 120q0 29 5 62t5 31l98 684h176zM479 1497l-127 -387h-102l45 387h184zM559 1124q-39 0 -66.5 27t-27.5 66q0 38 26.5 65t65.5 27q41 0 68.5 -27
t27.5 -65q0 -37 -27.5 -65t-66.5 -28zM96 1124q-39 0 -66.5 27t-27.5 66q0 38 26.5 65t65.5 27q41 0 69 -27t28 -63q0 -39 -28 -67t-67 -28z" />
    <glyph glyph-name="Alpha" unicode="&#x391;" horiz-adv-x="1067" 
d="M721 1405l272 -1405h-172l-84 438h-438l-184 -438h-187l617 1405h176zM360 586h349l-107 573z" />
    <glyph glyph-name="Beta" unicode="&#x392;" horiz-adv-x="1044" 
d="M274 1397h205q215 0 329 -95t114 -260q0 -182 -193 -276q289 -100 289 -375q0 -174 -140 -282.5t-364 -108.5h-434zM436 1237l-55 -399h100q115 0 183.5 57.5t68.5 151.5q0 193 -239 193q-27 0 -58 -3zM358 682l-73 -526h211q161 0 247 63t86 180q0 119 -99 201t-236 82
h-136z" />
    <glyph glyph-name="Gamma" unicode="&#x393;" horiz-adv-x="854" 
d="M954 1397l-26 -176h-484l-184 -1221h-188l207 1397h675z" />
    <glyph glyph-name="Delta" unicode="&#x394;" horiz-adv-x="1067" 
d="M717 1405l280 -1405h-1069l613 1405h176zM780 176l-182 936l-399 -936h581z" />
    <glyph glyph-name="Epsilon" unicode="&#x395;" horiz-adv-x="1044" 
d="M1020 1397l-23 -166h-559l-61 -438h493l-22 -166h-496l-67 -461h735l-25 -166h-917l203 1397h739z" />
    <glyph glyph-name="Zeta" unicode="&#x396;" horiz-adv-x="1194" 
d="M1325 1397l-1018 -1223h828l-25 -174h-1176l1014 1223h-794l24 174h1147z" />
    <glyph glyph-name="Eta" unicode="&#x397;" horiz-adv-x="1430" 
d="M1407 1397l-197 -1397h-192l88 618h-756l-86 -618h-192l196 1397h191l-84 -604h755l84 604h193z" />
    <glyph glyph-name="Theta" unicode="&#x398;" horiz-adv-x="1343" 
d="M936 614h-520l26 176h518zM1276 854q0 -390 -196 -634q-190 -236 -478 -236q-209 0 -350 157q-148 163 -148 422q0 349 188 598q196 260 492 260q225 0 358.5 -155.5t133.5 -411.5zM1079 870q0 182 -79 284.5t-216 102.5q-202 0 -342.5 -205t-140.5 -495q0 -201 87 -308
q82 -102 222 -102q196 0 332.5 207.5t136.5 515.5z" />
    <glyph glyph-name="Iota" unicode="&#x399;" horiz-adv-x="492" 
d="M469 1397l-197 -1397h-192l196 1397h193z" />
    <glyph glyph-name="Kappa" unicode="&#x39a;" horiz-adv-x="1153" 
d="M1174 1397l-644 -645l625 -752h-219l-576 731l-102 -731h-188l196 1397h189l-93 -598l5 -4l594 602h213z" />
    <glyph glyph-name="Lambda" unicode="&#x39b;" horiz-adv-x="1067" 
d="M-72 0l609 1405h176l282 -1405h-188l-211 1094l-467 -1094h-201z" />
    <glyph glyph-name="Mu" unicode="&#x39c;" horiz-adv-x="1665" 
d="M1522 1397v-1397h-185l-1 1064l-564 -1064l-246 1069l-344 -1069h-184l461 1397h159l218 -946l501 946h185z" />
    <glyph glyph-name="Nu" unicode="&#x39d;" horiz-adv-x="1409" 
d="M1389 1397l-197 -1397h-100l-695 1020l-143 -1020h-174l196 1397h95l698 -1028l145 1028h175z" />
    <glyph glyph-name="Xi" unicode="&#x39e;" horiz-adv-x="1272" 
d="M1286 1221h-1067l27 176h1067zM995 612h-665l22 176h670zM1108 0h-1069l27 176h1064z" />
    <glyph glyph-name="Omicron" unicode="&#x39f;" horiz-adv-x="1343" 
d="M782 1415q221 0 357.5 -161.5t136.5 -424.5q0 -364 -199 -605.5t-475 -241.5q-218 0 -358 165t-140 424q0 323 190.5 583.5t487.5 260.5zM606 150q194 0 337.5 208.5t143.5 503.5q0 180 -83 282.5t-224 102.5q-216 0 -351.5 -215.5t-135.5 -486.5q0 -183 85 -289
t228 -106z" />
    <glyph glyph-name="Pi" unicode="&#x3a0;" horiz-adv-x="1430" 
d="M72 0l202 1397h1133l-205 -1397h-184l174 1231h-754l-178 -1231h-188z" />
    <glyph glyph-name="Rho" unicode="&#x3a1;" horiz-adv-x="918" 
d="M252 1397h240q216 0 334 -100t118 -296q0 -161 -117 -286t-329 -125h-168l-82 -590h-193zM420 1231l-66 -475h135q126 0 196.5 72.5t70.5 179.5q0 101 -66 162t-188 61h-82z" />
    <glyph glyph-name="Sigma" unicode="&#x3a3;" horiz-adv-x="1106" 
d="M510 1221l276 -476l-432 -569h627l-25 -176h-962l573 762l-372 635h905l-27 -176h-563z" />
    <glyph glyph-name="Tau" unicode="&#x3a4;" horiz-adv-x="1044" 
d="M1141 1397l-25 -174h-393l-172 -1223h-193l172 1223h-393l25 174h979z" />
    <glyph glyph-name="Upsilon" unicode="&#x3a5;" horiz-adv-x="1004" 
d="M1141 1397l-490 -701l-98 -696h-184l98 696l-328 701h195l237 -512l357 512h213z" />
    <glyph glyph-name="Phi" unicode="&#x3a6;" horiz-adv-x="1566" 
d="M1001 1397l-28 -180q228 -13 377 -144.5t149 -324.5q0 -236 -164 -384q-174 -157 -477 -157h-37l-31 -207h-186l29 207q-228 6 -377 136q-152 132 -152 335q0 237 178 391q171 148 502 148l27 180h190zM946 1036l-96 -651q3 0 16 -1t16 -1q181 0 300.5 100t119.5 254
q0 129 -99 212t-257 87zM657 383l101 655q-227 -6 -346 -103q-111 -91 -111 -249q0 -128 88 -208q93 -83 268 -95z" />
    <glyph glyph-name="Chi" unicode="&#x3a7;" horiz-adv-x="1366" 
d="M1440 1397l-598 -678l454 -719h-219l-362 575l-500 -575h-252l649 739l-413 658h211l331 -514l455 514h244z" />
    <glyph glyph-name="Psi" unicode="&#x3a8;" horiz-adv-x="1546" 
d="M983 1397l-117 -797q118 10 225.5 97t170 233t108.5 467h186q-61 -505 -225 -726.5t-491 -252.5l-64 -418h-188l61 424q-213 37 -338 194.5t-125 411.5q0 133 39 367h187q-37 -189 -37 -389q0 -165 89.5 -279t211.5 -129l119 797h188z" />
    <glyph glyph-name="Omega" unicode="&#x3a9;" horiz-adv-x="1380" 
d="M45 178h311q-252 191 -252 500q0 319 240 559q178 178 432 178q253 0 405 -189q132 -164 132 -378q0 -249 -121 -424q-92 -133 -277 -246h306l-29 -178h-471l29 180q203 165 287 308q85 147 85 337q0 156 -61 265q-87 155 -279 155q-221 0 -366 -191q-128 -170 -127 -374
q0 -156 68 -286q49 -94 159 -214l-29 -180h-471z" />
    <glyph glyph-name="Iotadieresis" unicode="&#x3aa;" horiz-adv-x="492" 
d="M469 1397l-197 -1397h-192l196 1397h193zM495 1565q0 39 28 67t66 28t66 -28t28 -67q0 -38 -28 -66t-66 -28t-66 28t-28 66zM128 1565q0 39 28 67t66 28t66 -28t28 -67q0 -38 -28 -66t-66 -28t-66 28t-28 66z" />
    <glyph glyph-name="Upsilondieresis" unicode="&#x3ab;" horiz-adv-x="1004" 
d="M1141 1397l-490 -701l-98 -696h-184l98 696l-328 701h195l237 -512l357 512h213zM749 1565q0 39 28 67t66 28t66 -28t28 -67q0 -38 -28 -66t-66 -28t-66 28t-28 66zM382 1565q0 39 28 67t66 28t66 -28t28 -67q0 -38 -28 -66t-66 -28t-66 28t-28 66z" />
    <glyph glyph-name="alphatonos" unicode="&#x3ac;" horiz-adv-x="1016" 
d="M111 565q137 383 602 383q84 0 198 -18l-92 -666q-6 -44 -6 -57q0 -82 76 -82q22 0 84 18l-19 -143q-65 -25 -135 -25q-128 0 -178 113q-86 -61 -119 -77q-73 -38 -149 -38q-131 0 -216 109.5t-85 273.5q0 101 39 209zM641 254l78 545h-37q-311 0 -403 -281
q-27 -81 -27 -160q0 -100 49.5 -167.5t128.5 -67.5q63 0 120 42q27 21 91 89zM735 1452l-127 -387h-102l45 387h184z" />
    <glyph glyph-name="epsilontonos" unicode="&#x3ad;" horiz-adv-x="809" 
d="M147 692q0 102 94 176q99 78 253 78q150 0 303 -69l-21 -148q-152 82 -278 82q-72 0 -123 -37q-56 -40 -56 -104q0 -107 207 -107q12 0 42.5 1t43.5 1l-18 -139q-17 0 -57 1t-58 1q-130 0 -203 -51q-67 -47 -67 -121q0 -59 55.5 -97t155.5 -38q136 0 282 69l-20 -157
q-157 -62 -279 -62q-170 0 -276 86q-98 79 -98 193q0 174 245 258q-127 71 -127 184zM671 1452l-127 -387h-102l45 387h184z" />
    <glyph glyph-name="etatonos" unicode="&#x3ae;" horiz-adv-x="983" 
d="M359 772q167 176 320 176q100 0 159.5 -70t59.5 -180q0 -14 -10 -86l-154 -1081h-174l148 1034q10 72 10 129q0 48 -29.5 83.5t-73.5 35.5q-73 0 -156 -77l-124 -132l-88 -604h-172l96 680q6 43 6 61q0 43 -41 43q-39 0 -71 -12l20 150q84 26 150 26q131 0 131 -112
q0 -27 -7 -64zM761 1452l-127 -387h-102l45 387h184z" />
    <glyph glyph-name="iotatonos" unicode="&#x3af;" horiz-adv-x="481" 
d="M356 920l-90 -631q-6 -43 -6 -74q0 -80 80 -80q38 0 100 27l-22 -150q-109 -41 -156 -41q-85 0 -139 52q-51 49 -51 120q0 29 5 62t5 31l98 684h176zM479 1452l-127 -387h-102l45 387h184z" />
    <glyph glyph-name="upsilondieresistonos" unicode="&#x3b0;" 
d="M168 920h174l-66 -459q-12 -86 -12 -142q0 -91 42 -145.5t114 -54.5q184 0 229 309l72 492h172l-70 -492q-4 -45 -39 -176q-100 -283 -364 -283q-150 0 -244 99q-92 96 -92 241q0 23 10 94zM708 1497l-127 -387h-102l45 387h184zM788 1124q-39 0 -66.5 27t-27.5 66
q0 38 26.5 65t65.5 27q41 0 68.5 -27t27.5 -65q0 -37 -27.5 -65t-66.5 -28zM325 1124q-39 0 -66.5 27t-27.5 66q0 38 26.5 65t65.5 27q41 0 69 -27t28 -63q0 -39 -28 -67t-67 -28z" />
    <glyph glyph-name="alpha" unicode="&#x3b1;" horiz-adv-x="1016" 
d="M111 565q137 383 602 383q84 0 198 -18l-92 -666q-6 -44 -6 -57q0 -82 76 -82q22 0 84 18l-19 -143q-65 -25 -135 -25q-128 0 -178 113q-86 -61 -119 -77q-73 -38 -149 -38q-131 0 -216 109.5t-85 273.5q0 101 39 209zM641 254l78 545h-37q-311 0 -403 -281
q-27 -81 -27 -160q0 -100 49.5 -167.5t128.5 -67.5q63 0 120 42q27 21 91 89z" />
    <glyph glyph-name="beta" unicode="&#x3b2;" horiz-adv-x="1024" 
d="M946 459q0 -204 -124.5 -345t-303.5 -141q-119 0 -237 82l-78 -524h-172l190 1325q12 60 51 256q24 121 116 206q105 97 253 97q155 0 251 -93q91 -89 91 -224q0 -220 -223 -307q186 -103 186 -332zM559 866h31q112 0 178 69q59 62 59 152q0 82 -49 136q-52 57 -137 57
q-114 0 -169 -107q-40 -78 -69 -276l-100 -688q94 -94 207 -94q117 0 186.5 97.5t69.5 260.5q0 238 -225 275z" />
    <glyph glyph-name="gamma" unicode="&#x3b3;" horiz-adv-x="922" 
d="M348 -471q-40 0 -68 42.5t-28 96.5q0 91 49 190q33 58 66 115q-33 341 -154 684q-27 77 -34 89q-19 32 -54 32q-14 0 -55 -20l-29 133q84 57 162 57q112 0 182 -250q28 -99 39 -150q27 -116 43 -243q138 277 328 615h178q-128 -204 -248 -437l-264 -510q16 -91 16 -176
q0 -125 -38 -199q-36 -69 -91 -69z" />
    <glyph glyph-name="delta" unicode="&#x3b4;" horiz-adv-x="918" 
d="M874 1358l-59 -133q-137 57 -254 57q-141 0 -141 -65q0 -43 113 -137q149 -124 210 -206q113 -152 113 -337q0 -238 -127.5 -400t-316.5 -162q-152 0 -244 105q-98 110 -98 305q0 228 104 369q111 148 315 168q-219 143 -219 303q0 91 80 143q76 49 199 49q167 0 325 -59
zM676 573q0 108 -50 174q-46 62 -112 62q-112 0 -188 -130t-76 -317q0 -123 50 -191q45 -60 114 -60q106 0 182 127q80 133 80 335z" />
    <glyph glyph-name="epsilon" unicode="&#x3b5;" horiz-adv-x="809" 
d="M147 692q0 102 94 176q99 78 253 78q150 0 303 -69l-21 -148q-152 82 -278 82q-72 0 -123 -37q-56 -40 -56 -104q0 -107 207 -107q12 0 42.5 1t43.5 1l-18 -139q-17 0 -57 1t-58 1q-130 0 -203 -51q-67 -47 -67 -121q0 -59 55.5 -97t155.5 -38q136 0 282 69l-20 -157
q-157 -62 -279 -62q-170 0 -276 86q-98 79 -98 193q0 174 245 258q-127 71 -127 184z" />
    <glyph glyph-name="zeta" unicode="&#x3b6;" horiz-adv-x="963" 
d="M293 -428l74 139q114 -30 165 -30q100 0 156 54q49 49 49 120q0 120 -235 120q-420 0 -420 332q0 352 395 787q-179 37 -282 235l145 88l90 -110q74 -68 191 -74q204 160 327 160q101 0 101 -80q0 -69 -100 -133q-104 -67 -265 -93q-192 -168 -315 -419
q-107 -218 -107 -367q0 -156 246 -156q189 0 280 -51q115 -63 115 -221q0 -142 -109.5 -242t-261.5 -100q-128 0 -239 41z" />
    <glyph glyph-name="eta" unicode="&#x3b7;" horiz-adv-x="983" 
d="M359 772q167 176 320 176q100 0 159.5 -70t59.5 -180q0 -14 -10 -86l-154 -1081h-174l148 1034q10 72 10 129q0 48 -29.5 83.5t-73.5 35.5q-73 0 -156 -77l-124 -132l-88 -604h-172l96 680q6 43 6 61q0 43 -41 43q-39 0 -71 -12l20 150q84 26 150 26q131 0 131 -112
q0 -27 -7 -64z" />
    <glyph glyph-name="theta" unicode="&#x3b8;" horiz-adv-x="983" 
d="M416 -25q-139 0 -237 117q-105 126 -105 334q0 352 127 655q140 336 397 336q155 0 253.5 -128t98.5 -333q0 -162 -49 -387q-130 -594 -485 -594zM729 627h-461q-14 -139 -14 -207q0 -309 174 -309q164 0 252 297q39 132 49 219zM291 766h461q18 99 18 221q0 143 -54 220
q-48 69 -126 69q-202 0 -299 -510z" />
    <glyph glyph-name="iota" unicode="&#x3b9;" horiz-adv-x="481" 
d="M356 920l-90 -631q-6 -43 -6 -74q0 -80 80 -80q38 0 100 27l-22 -150q-109 -41 -156 -41q-85 0 -139 52q-51 49 -51 120q0 29 5 62t5 31l98 684h176z" />
    <glyph glyph-name="kappa" unicode="&#x3ba;" horiz-adv-x="942" 
d="M366 920l-59 -406l268 307q9 13 31 37q65 51 86 63q48 27 102 27q69 0 158 -35l-53 -143q-48 14 -72 14q-67 0 -131 -73l-197 -228l340 -483h-204l-328 475l-72 -475h-174l131 920h174z" />
    <glyph glyph-name="lambda" unicode="&#x3bb;" horiz-adv-x="864" 
d="M334 334l-156 -334h-188l125 272q229 501 291 678q-32 165 -79.5 245t-129.5 99l82 125q121 -19 190 -125q63 -98 96 -295q91 -536 118 -640q50 -185 142 -222l-55 -166q-122 21 -188 131q-51 84 -80 248q-22 145 -43 289q-16 -71 -125 -305z" />
    <glyph glyph-name="mu" unicode="&#x3bc;" horiz-adv-x="1026" 
d="M457 -27q-145 0 -209 150l-84 -592h-174l198 1389h177l-80 -541q-2 -14 -2 -64q0 -82 48.5 -133t135.5 -51q159 0 190 217l84 572h174l-84 -584q-10 -71 -10 -100q0 -99 78 -99q42 0 100 23l-20 -150q-92 -37 -154 -37q-110 0 -157 95q-115 -95 -211 -95z" />
    <glyph glyph-name="nu" unicode="&#x3bd;" horiz-adv-x="850" 
d="M281 -27l-230 947h176l154 -625q240 328 240 469q0 49 -37 110l176 74q63 -51 63 -145q0 -99 -56 -218q-42 -87 -151 -251q-165 -249 -260 -361h-75z" />
    <glyph glyph-name="xi" unicode="&#x3be;" 
d="M305 -434l70 137q90 -20 137 -20q94 0 150.5 48.5t56.5 123.5q0 76 -57 101q-43 19 -156 19q-438 0 -438 355q0 172 102 308q110 146 317 220q-120 81 -120 189q0 40 16 90q-167 49 -219 176l131 106q81 -120 221 -137q61 45 160 82q112 43 201 43q139 0 139 -78
q0 -60 -95 -114q-88 -51 -198.5 -66t-127.5 -20q-48 -16 -48 -62q0 -63 66 -104t178 -41h112l-20 -140h-74q-269 0 -420 -127q-141 -119 -141 -309q0 -99 46 -142q55 -52 195 -52q209 0 300 -62q96 -64 96 -215q0 -146 -106 -242q-109 -100 -283 -100q-88 0 -191 33z" />
    <glyph glyph-name="omicron" unicode="&#x3bf;" horiz-adv-x="918" 
d="M514 948q155 0 248.5 -109.5t93.5 -291.5q0 -252 -126 -414t-310 -162q-162 0 -254 109t-92 303q0 241 127 403t313 162zM514 811q-107 0 -184.5 -132.5t-77.5 -313.5q0 -108 46.5 -176t115.5 -68q109 0 186.5 124t77.5 312q0 116 -45 185t-119 69z" />
    <glyph glyph-name="pi1" unicode="&#x3c0;" horiz-adv-x="1130" 
d="M169 0l107 766h-22.5h-22.5q-71 0 -178 -53l25 161q114 48 207 48h831l-22 -156h-153l-109 -766h-174l109 766h-317l-109 -766h-172z" />
    <glyph glyph-name="rho" unicode="&#x3c1;" 
d="M158 -469h-172l143 971q30 204 156 326q121 116 282 116q153 0 242.5 -109.5t89.5 -302.5q0 -243 -128 -400t-318 -157q-127 0 -217 78zM547 809q-141 0 -211 -195q-55 -152 -55 -303q0 -94 52 -149q49 -51 124 -51q117 0 195 142q73 135 73 322q0 106 -49.5 170
t-128.5 64z" />
    <glyph glyph-name="sigma1" unicode="&#x3c2;" horiz-adv-x="1028" 
d="M316 -434l68 137q86 -20 141 -20q88 0 147.5 49t59.5 123q0 81 -73 106q-38 12 -142 12q-220 0 -326 84q-117 93 -117 305q0 237 167 410q173 178 425 178q197 0 320 -116l-84 -142q-106 94 -256 94q-163 0 -279 -125q-112 -123 -112 -288q0 -127 47 -171q51 -48 203 -48
q206 0 295 -60q94 -63 94 -215q0 -175 -129 -269q-105 -77 -250 -77q-92 0 -199 33z" />
    <glyph glyph-name="sigma" unicode="&#x3c3;" horiz-adv-x="999" 
d="M995 920l-16 -140h-242q115 -128 115 -293q0 -205 -125 -357q-129 -157 -311 -157q-153 0 -246 106q-96 110 -96 300q0 226 126 380q131 161 336 161h459zM414 109q112 0 189 130q75 126 75 300q0 101 -44 171q-47 74 -122 74q-113 0 -188 -136q-70 -127 -70 -298
q0 -109 48 -177q46 -64 112 -64z" />
    <glyph glyph-name="tau" unicode="&#x3c4;" horiz-adv-x="870" 
d="M389 764h-96q-134 0 -242 -55l21 159q111 52 233 52h555l-20 -156h-275l-110 -764h-174z" />
    <glyph glyph-name="upsilon" unicode="&#x3c5;" 
d="M168 920h174l-66 -459q-12 -86 -12 -142q0 -91 42 -145.5t114 -54.5q184 0 229 309l72 492h172l-70 -492q-4 -45 -39 -176q-100 -283 -364 -283q-150 0 -244 99q-92 96 -92 241q0 23 10 94z" />
    <glyph glyph-name="phi" unicode="&#x3c6;" horiz-adv-x="1146" 
d="M527 -471h-172l61 442q-164 40 -245 135q-97 114 -97 287q0 219 125 372q135 166 363 179l71 467h173l-70 -467q150 -19 246 -129q102 -117 102 -293q0 -212 -126 -367q-137 -169 -363 -184zM715 793l-100 -672q135 21 214 138q75 112 75 271q0 227 -189 263zM439 123
l100 672q-124 -14 -204 -130t-80 -284q0 -214 184 -258z" />
    <glyph glyph-name="chi" unicode="&#x3c7;" horiz-adv-x="999" 
d="M94 811l84 139q96 -10 154 -74q44 -50 82 -155l86 -242l291 441h178l-404 -623l150 -416q44 -123 69 -153q31 -40 113 -56l-63 -145q-118 7 -180 73q-45 47 -83 158l-122 359l-369 -557h-172l475 733l-125 348q-29 81 -71 117q-16 14 -93 53z" />
    <glyph glyph-name="psi" unicode="&#x3c8;" horiz-adv-x="1112" 
d="M606 1413h172l-184 -1294q137 33 183 146q30 75 79 415l35 240h174l-72 -488q-34 -230 -113 -328q-95 -118 -311 -131l-63 -442h-174l63 442q-303 63 -303 369q0 27 8 82l74 496h174l-69 -488q-7 -43 -7 -90q0 -178 144 -223z" />
    <glyph glyph-name="omega" unicode="&#x3c9;" horiz-adv-x="1589" 
d="M1098 135q104 0 171 84q72 91 72 250q0 210 -129 475h189q121 -228 121 -463q0 -231 -137 -377q-125 -133 -293 -133q-99 0 -184 49q-95 55 -140 154q-131 -203 -317 -203q-158 0 -265 125q-104 121 -104 291q0 276 223 557h207q-250 -326 -250 -561q0 -105 56 -176.5
t137 -71.5q161 0 237 213q16 43 41 230h176q-22 -154 -22 -211q0 -96 59.5 -164t151.5 -68z" />
    <glyph glyph-name="iotadieresis" unicode="&#x3ca;" horiz-adv-x="481" 
d="M356 920l-90 -631q-6 -43 -6 -74q0 -80 80 -80q38 0 100 27l-22 -150q-109 -41 -156 -41q-85 0 -139 52q-51 49 -51 120q0 29 5 62t5 31l98 684h176zM404 1216q0 39 28 67t66 28t66 -28t28 -67q0 -38 -28 -66t-66 -28t-66 28t-28 66zM37 1216q0 39 28 67t66 28t66 -28
t28 -67q0 -38 -28 -66t-66 -28t-66 28t-28 66z" />
    <glyph glyph-name="upsilondieresis" unicode="&#x3cb;" 
d="M168 920h174l-66 -459q-12 -86 -12 -142q0 -91 42 -145.5t114 -54.5q184 0 229 309l72 492h172l-70 -492q-4 -45 -39 -176q-100 -283 -364 -283q-150 0 -244 99q-92 96 -92 241q0 23 10 94zM660 1216q0 39 28 67t66 28t66 -28t28 -67q0 -38 -28 -66t-66 -28t-66 28
t-28 66zM293 1216q0 39 28 67t66 28t66 -28t28 -67q0 -38 -28 -66t-66 -28t-66 28t-28 66z" />
    <glyph glyph-name="omicrontonos" unicode="&#x3cc;" horiz-adv-x="918" 
d="M514 948q155 0 248.5 -109.5t93.5 -291.5q0 -252 -126 -414t-310 -162q-162 0 -254 109t-92 303q0 241 127 403t313 162zM514 811q-107 0 -184.5 -132.5t-77.5 -313.5q0 -108 46.5 -176t115.5 -68q109 0 186.5 124t77.5 312q0 116 -45 185t-119 69zM705 1452l-127 -387
h-102l45 387h184z" />
    <glyph glyph-name="upsilontonos" unicode="&#x3cd;" 
d="M168 921h174l-66 -459q-12 -86 -12 -142q0 -91 42 -145.5t114 -54.5q184 0 229 309l72 492h172l-70 -492q-4 -45 -39 -176q-100 -283 -364 -283q-150 0 -244 99q-92 96 -92 241q0 23 10 94zM731 1452l-127 -387h-102l45 387h184z" />
    <glyph glyph-name="omegatonos" unicode="&#x3ce;" horiz-adv-x="1589" 
d="M1098 135q104 0 171 84q72 91 72 250q0 210 -129 475h189q121 -228 121 -463q0 -231 -137 -377q-125 -133 -293 -133q-99 0 -184 49q-95 55 -140 154q-131 -203 -317 -203q-158 0 -265 125q-104 121 -104 291q0 276 223 557h207q-250 -326 -250 -561q0 -105 56 -176.5
t137 -71.5q161 0 237 213q16 43 41 230h176q-22 -154 -22 -211q0 -96 59.5 -164t151.5 -68zM1046 1452l-127 -387h-102l45 387h184z" />
    <glyph glyph-name="afii10023" unicode="&#x401;" horiz-adv-x="1044" 
d="M1020 1397l-23 -166h-559l-61 -438h493l-22 -166h-496l-67 -461h735l-25 -166h-917l203 1397h739zM781 1661q0 39 28 67t66 28t66 -28t28 -67q0 -38 -28 -66t-66 -28t-66 28t-28 66zM414 1661q0 39 28 67t66 28t66 -28t28 -67q0 -38 -28 -66t-66 -28t-66 28t-28 66z" />
    <glyph glyph-name="afii10051" unicode="&#x402;" horiz-adv-x="1339" 
d="M162 1397h979l-25 -174h-393l-53 -383q122 108 311 108q142 0 241 -100t99 -254q0 -241 -157 -420q-153 -174 -347 -174l19 166q86 0 186 111q117 128 117 292q0 117 -82 175q-62 44 -152 44q-59 0 -130 -27q-91 -36 -132 -97l-92 -664h-193l172 1223h-393z" />
    <glyph glyph-name="afii10052" unicode="&#x403;" horiz-adv-x="930" 
d="M275 1397h739l-23 -166h-559l-176 -1231h-184zM757 1853h207l-232 -299h-114z" />
    <glyph glyph-name="afii10053" unicode="&#x404;" horiz-adv-x="1130" 
d="M328 786h626l-28 -165h-627v-46q0 -190 99.5 -303.5t267.5 -113.5q103 0 208 38q128 46 209 134l-30 -226q-48 -61 -173 -95q-103 -27 -214 -27q-269 0 -420 162q-146 156 -146 419q0 364 251 601q265 251 704 251h133l-37 -176h-102q-586 0 -721 -453z" />
    <glyph glyph-name="afii10054" unicode="&#x405;" horiz-adv-x="938" 
d="M899 1360l-27 -191q-112 74 -245 74q-112 0 -179 -58t-67 -153q0 -47 32 -99t187 -176.5t204.5 -218.5t49.5 -188q0 -150 -113 -259t-301 -109q-167 0 -338 100l29 205q191 -133 328 -133q74 0 140.5 48.5t66.5 131.5q0 53 -33.5 110t-189 184t-203 220.5t-47.5 185.5
q0 162 134 271.5t316 109.5q127 0 256 -55z" />
    <glyph glyph-name="afii10055" unicode="&#x406;" horiz-adv-x="492" 
d="M469 1397l-197 -1397h-192l196 1397h193z" />
    <glyph glyph-name="afii10056" unicode="&#x407;" horiz-adv-x="492" 
d="M469 1397l-197 -1397h-192l196 1397h193zM506 1661q0 39 28 67t66 28t66 -28t28 -67q0 -38 -28 -66t-66 -28t-66 28t-28 66zM139 1661q0 39 28 67t66 28t66 -28t28 -67q0 -38 -28 -66t-66 -28t-66 28t-28 66z" />
    <glyph glyph-name="afii10057" unicode="&#x408;" horiz-adv-x="492" 
d="M475 1397l-211 -1499q-52 -369 -360 -369q-66 0 -133 12l-43 172q75 -16 135 -16q104 0 153.5 51.5t65.5 161.5l209 1487h184z" />
    <glyph glyph-name="afii10058" unicode="&#x409;" horiz-adv-x="1526" 
d="M551 1403h176l94 -588h158q264 0 396 -121q110 -100 110 -258q0 -181 -142 -307q-146 -129 -362 -129h-203q-163 1085 -182 1106l-483 -1106h-187zM926 156h28q156 0 245 71t89 195q0 237 -327 237h-111zM955 -1z" />
    <glyph glyph-name="afii10059" unicode="&#x40a;" horiz-adv-x="2005" 
d="M1214 1397h199l-84 -602h129q266 0 397 -111q109 -93 109 -248q0 -181 -142 -307q-145 -129 -362 -129h-442l88 639h-752l-90 -639h-192l196 1397h191l-84 -602h755zM1407 639h-100l-70 -483h205q157 0 247 74q87 71 87 192q0 217 -369 217z" />
    <glyph glyph-name="afii10060" unicode="&#x40b;" horiz-adv-x="1358" 
d="M162 1397h979l-25 -174h-393l-61 -435q105 160 350 160q136 0 229 -91q99 -97 99 -254q0 -32 -5 -66l-73 -537h-195l74 526q4 31 4 58q0 204 -223 204q-71 0 -142 -35q-94 -46 -143 -141l-86 -612h-193l172 1223h-393z" />
    <glyph glyph-name="afii10061" unicode="&#x40c;" horiz-adv-x="1272" 
d="M72 0l196 1403h193l-80 -574h57q126 0 187 36q86 50 174 212q98 183 199 255q98 71 247 71h31l-33 -166q-124 0 -191 -62q-46 -44 -116 -186q-100 -200 -254 -254q133 -67 268 -325l215 -410h-223l-168 360q-147 316 -358 316h-58l-94 -676h-192zM778 1790h207l-232 -299
h-114z" />
    <glyph glyph-name="afii10062" unicode="&#x40e;" horiz-adv-x="1227" 
d="M289 1397l313 -912l524 912h197l-678 -1166q-70 -120 -161.5 -179.5t-235.5 -59.5q-135 0 -234 69l74 158q86 -59 182 -59q138 0 209 123l-391 1114h201zM878 1758h100q-79 -263 -289 -263q-105 0 -170 75t-59 188h96q3 -61 42.5 -96t99.5 -35q108 0 180 131z" />
    <glyph glyph-name="afii10145" unicode="&#x40f;" horiz-adv-x="1367" 
d="M1344 1397l-197 -1397h-442l-39 -248h-185l45 248h-454l196 1397h191l-168 -1223h690l170 1223h193z" />
    <glyph glyph-name="afii10017" unicode="&#x410;" horiz-adv-x="1067" 
d="M721 1405l272 -1405h-172l-84 438h-438l-184 -438h-187l617 1405h176zM360 586h349l-107 573z" />
    <glyph glyph-name="afii10018" unicode="&#x411;" horiz-adv-x="1051" 
d="M72 0l194 1397h744l-23 -174h-559l-57 -408h133q271 0 403 -141q103 -111 103 -283q0 -176 -141 -283.5t-363 -107.5h-434zM486 659h-138l-71 -503h211q333 0 333 243q0 133 -101 201q-88 59 -234 59z" />
    <glyph glyph-name="afii10019" unicode="&#x412;" horiz-adv-x="1044" 
d="M274 1397h205q215 0 329 -95t114 -260q0 -182 -193 -276q289 -100 289 -375q0 -174 -140 -282.5t-364 -108.5h-434zM436 1237l-55 -399h100q115 0 183.5 57.5t68.5 151.5q0 193 -239 193q-27 0 -58 -3zM358 682l-73 -526h211q161 0 247 63t86 180q0 119 -99 201t-236 82
h-136z" />
    <glyph glyph-name="afii10020" unicode="&#x413;" horiz-adv-x="930" 
d="M275 1397h739l-23 -166h-559l-176 -1231h-184z" />
    <glyph glyph-name="afii10021" unicode="&#x414;" horiz-adv-x="1290" 
d="M125 166l571 1239h176l224 -1239h161l-43 -414h-161l24 248h-983l-51 -248h-170l88 414h164zM754 1159h-4l-443 -993h617z" />
    <glyph glyph-name="afii10022" unicode="&#x415;" horiz-adv-x="1044" 
d="M1020 1397l-23 -166h-559l-61 -438h493l-22 -166h-496l-67 -461h735l-25 -166h-917l203 1397h739z" />
    <glyph glyph-name="afii10024" unicode="&#x416;" horiz-adv-x="2173" 
d="M1028 829h57l80 574h193l-80 -574h57q126 0 187 36q86 50 174 212q98 183 199 255q98 71 247 71h31l-33 -166q-124 0 -191 -62q-47 -45 -116 -186q-42 -86 -108 -160q-74 -82 -142 -104q117 -55 260 -319l219 -406h-223l-172 350q-160 326 -354 326h-58l-94 -676h-192
l94 676h-55q-85 0 -214 -102q-114 -89 -225 -226l-282 -348h-250l338 401q247 294 401 332q-145 78 -186 256q-35 154 -80.5 201t-155.5 47l15 166h16q150 0 229 -70q81 -73 125 -256q36 -148 109 -203q60 -45 180 -45z" />
    <glyph glyph-name="afii10025" unicode="&#x417;" horiz-adv-x="1128" 
d="M477 627h-201l27 166h215q163 0 257 79q85 72 85 179q0 198 -270 198q-74 0 -166 -23q-100 -25 -160 -65l27 193q141 61 327 61q177 0 300 -85q135 -93 135 -251q0 -148 -102 -254q-90 -92 -212 -114q234 -100 234 -336q0 -139 -116 -253q-142 -140 -390 -140
q-97 0 -223.5 23.5t-194.5 53.5l25 166q159 -78 389 -78q138 0 227.5 63t89.5 169q0 108 -79 176q-83 72 -224 72z" />
    <glyph glyph-name="afii10026" unicode="&#x418;" horiz-adv-x="1430" 
d="M1296 1397h111l-197 -1397h-192l153 1042l-989 -1042h-110l196 1397h191l-152 -1073z" />
    <glyph glyph-name="afii10027" unicode="&#x419;" horiz-adv-x="1430" 
d="M1296 1397h111l-197 -1397h-192l153 1042l-989 -1042h-110l196 1397h191l-152 -1073zM1073 1758h100q-79 -263 -289 -263q-105 0 -170 75t-59 188h96q3 -61 42.5 -96t99.5 -35q108 0 180 131z" />
    <glyph glyph-name="afii10028" unicode="&#x41a;" horiz-adv-x="1272" 
d="M72 0l196 1403h193l-80 -574h57q126 0 187 36q86 50 174 212q98 183 199 255q98 71 247 71h31l-33 -166q-124 0 -191 -62q-46 -44 -116 -186q-100 -200 -254 -254q133 -67 268 -325l215 -410h-223l-168 360q-147 316 -358 316h-58l-94 -676h-192z" />
    <glyph glyph-name="afii10029" unicode="&#x41b;" horiz-adv-x="1067" 
d="M545 1405h176l272 -1405h-188l-205 1151h-4l-473 -1151h-195z" />
    <glyph glyph-name="afii10030" unicode="&#x41c;" horiz-adv-x="1665" 
d="M1522 1397v-1397h-185l-1 1064l-564 -1064l-246 1069l-344 -1069h-184l461 1397h159l218 -946l501 946h185z" />
    <glyph glyph-name="afii10031" unicode="&#x41d;" horiz-adv-x="1430" 
d="M1407 1397l-197 -1397h-192l88 618h-756l-86 -618h-192l196 1397h191l-84 -604h755l84 604h193z" />
    <glyph glyph-name="afii10032" unicode="&#x41e;" horiz-adv-x="1343" 
d="M782 1415q221 0 357.5 -161.5t136.5 -424.5q0 -364 -199 -605.5t-475 -241.5q-218 0 -358 165t-140 424q0 323 190.5 583.5t487.5 260.5zM606 150q194 0 337.5 208.5t143.5 503.5q0 180 -83 282.5t-224 102.5q-216 0 -351.5 -215.5t-135.5 -486.5q0 -183 85 -289
t228 -106z" />
    <glyph glyph-name="afii10033" unicode="&#x41f;" horiz-adv-x="1430" 
d="M268 1397h1139l-197 -1397h-192l174 1223h-758l-170 -1223h-192z" />
    <glyph glyph-name="afii10034" unicode="&#x420;" horiz-adv-x="918" 
d="M252 1397h240q216 0 334 -100t118 -296q0 -161 -117 -286t-329 -125h-168l-82 -590h-193zM420 1231l-66 -475h135q126 0 196.5 72.5t70.5 179.5q0 101 -66 162t-188 61h-82z" />
    <glyph glyph-name="afii10035" unicode="&#x421;" horiz-adv-x="1130" 
d="M1188 1415l-37 -176h-102q-362 0 -556 -194t-194 -470q0 -190 100 -303.5t267 -113.5q86 0 202.5 46.5t214.5 125.5l-30 -226q-217 -122 -414 -122q-237 0 -388 162.5t-151 418.5q0 376 261.5 614t693.5 238h133z" />
    <glyph glyph-name="afii10036" unicode="&#x422;" horiz-adv-x="1044" 
d="M1141 1397l-25 -174h-393l-172 -1223h-193l172 1223h-393l25 174h979z" />
    <glyph glyph-name="afii10037" unicode="&#x423;" horiz-adv-x="1227" 
d="M289 1397l313 -912l524 912h197l-678 -1166q-70 -120 -161.5 -179.5t-235.5 -59.5q-135 0 -234 69l74 158q86 -59 182 -59q138 0 209 123l-391 1114h201z" />
    <glyph glyph-name="afii10038" unicode="&#x424;" horiz-adv-x="1609" 
d="M804 1268l19 135h192l-18 -135q230 0 380 -122q165 -133 165 -370q0 -268 -218 -448q-206 -170 -485 -170l-22 -158h-191l23 158q-231 0 -380 121q-165 134 -165 370q0 269 216 448q206 171 484 171zM972 1108l-110 -791q202 0 346.5 137.5t144.5 340.5q0 145 -97 228
q-100 85 -284 85zM671 317l111 791q-203 0 -345 -136q-145 -138 -145 -341q0 -146 97 -228q99 -86 282 -86z" />
    <glyph glyph-name="afii10039" unicode="&#x425;" horiz-adv-x="1366" 
d="M1440 1397l-598 -678l454 -719h-219l-362 575l-500 -575h-252l649 739l-413 658h211l331 -514l455 514h244z" />
    <glyph glyph-name="afii10040" unicode="&#x426;" horiz-adv-x="1427" 
d="M1323 -248h-182l33 248h-1102l196 1397h191l-168 -1223h690l170 1223h193l-170 -1223h208zM955 -1z" />
    <glyph glyph-name="afii10041" unicode="&#x427;" horiz-adv-x="1206" 
d="M990 1397h193l-197 -1397h-192l69 498h-155q-280 0 -410 83q-145 93 -145 312q0 64 8 125l51 381h190l-43 -330q-14 -110 -14 -170q0 -110 77 -170q72 -57 198 -57h268z" />
    <glyph glyph-name="afii10042" unicode="&#x428;" horiz-adv-x="1782" 
d="M291 174h454l172 1223h191l-168 -1223h455l172 1223h192l-192 -1397h-1495l196 1397h191zM721 -1zM1371 -1z" />
    <glyph glyph-name="afii10043" unicode="&#x429;" horiz-adv-x="1843" 
d="M291 174h454l172 1223h191l-168 -1223h455l172 1223h192l-170 -1223h209l-57 -422h-187l33 248h-1515l196 1397h191zM721 -1zM1371 -1z" />
    <glyph glyph-name="afii10044" unicode="&#x42a;" horiz-adv-x="1151" 
d="M6 1237l23 160h530l-82 -586h127q265 0 397 -119q109 -99 109 -256q0 -181 -142 -307q-145 -129 -362 -129h-434l172 1237h-338zM586 655h-129l-72 -499h203q157 0 247 74q87 71 87 192q0 233 -336 233z" />
    <glyph glyph-name="afii10045" unicode="&#x42b;" horiz-adv-x="1539" 
d="M1323 1397h193l-197 -1397h-192zM72 0l194 1397h193l-82 -582h127q264 0 397 -121q109 -100 109 -258q0 -181 -142 -307q-145 -129 -362 -129h-434zM486 659h-131l-72 -503h205q157 0 246 74q87 71 87 192q0 237 -335 237z" />
    <glyph glyph-name="afii10046" unicode="&#x42c;" horiz-adv-x="1051" 
d="M72 0l194 1397h193l-82 -582h127q264 0 397 -121q109 -100 109 -258q0 -181 -142 -307q-145 -129 -362 -129h-434zM486 659h-132l-69 -503h203q157 0 246 74q87 71 87 192q0 237 -335 237z" />
    <glyph glyph-name="afii10047" unicode="&#x42d;" horiz-adv-x="1214" 
d="M197 -18h-134l37 176h103q314 0 508 153q158 125 215 330h-578l23 166h581v14q0 191 -99.5 304.5t-266.5 113.5q-89 0 -206.5 -48.5t-211.5 -123.5l31 225q214 123 413 123q238 0 388.5 -162.5t150.5 -418.5q0 -374 -254 -609q-263 -243 -700 -243z" />
    <glyph glyph-name="afii10048" unicode="&#x42e;" horiz-adv-x="1778" 
d="M539 571v74h-185l-90 -645h-192l196 1397h193l-84 -598h190q62 256 219 424q181 192 431 192q222 0 357.5 -162t135.5 -424q0 -367 -202 -612q-196 -235 -472 -235q-219 0 -358 165t-139 424zM1522 862q0 182 -85 285q-82 100 -223 100q-227 0 -367 -239
q-120 -206 -120 -463q0 -184 85 -289.5t228 -105.5q197 0 339.5 208.5t142.5 503.5z" />
    <glyph glyph-name="afii10049" unicode="&#x42f;" horiz-adv-x="1192" 
d="M-98 0l278 350q97 122 147 171q79 77 160 106q-276 93 -276 360q0 183 167 301q159 113 380 113h411l-196 -1401h-193l82 596h-55q-114 0 -208 -65q-98 -67 -232 -240l-226 -291h-239zM686 760h201l65 475h-209q-144 0 -233.5 -72.5t-89.5 -185.5q0 -217 266 -217z" />
    <glyph glyph-name="afii10065" unicode="&#x430;" 
d="M913 920l-129 -920h-174l17 106l-4 5q-121 -129 -248 -129q-126 0 -214.5 106.5t-88.5 257.5q0 262 164.5 432t459.5 170q120 0 217 -28zM647 266l76 531q-28 2 -54 2q-205 0 -312 -130.5t-107 -291.5q0 -111 51.5 -181.5t130.5 -70.5q63 0 138 62.5t77 78.5z" />
    <glyph glyph-name="afii10066" unicode="&#x431;" 
d="M942 1403h74l-51 -172h-84q-193 0 -335 -71q-183 -92 -243 -288l-37 -120h2q130 196 330 196q132 0 218.5 -119.5t86.5 -300.5q0 -220 -114 -375q-133 -182 -373 -182q-163 0 -253.5 122t-90.5 333q0 454 198 702q221 275 672 275zM725 532q0 265 -188 265
q-104 0 -190 -105q-97 -118 -97 -297q0 -280 205 -280q119 0 195 121q75 118 75 296z" />
    <glyph glyph-name="afii10067" unicode="&#x432;" horiz-adv-x="840" 
d="M436 0h-375l123 895q157 53 297 53q127 0 208 -60q87 -64 87 -173q0 -81 -48 -147q-44 -61 -106 -83q154 -51 154 -227q0 -116 -101 -189q-96 -69 -239 -69zM305 553h98q195 0 195 129q0 113 -162 113q-57 0 -94 -21zM428 432h-135l-37 -278h119q223 0 223 139
q0 60 -47.5 99.5t-122.5 39.5z" />
    <glyph glyph-name="afii10068" unicode="&#x433;" horiz-adv-x="655" 
d="M190 920h541l-25 -152h-364l-107 -768h-174z" />
    <glyph glyph-name="afii10069" unicode="&#x434;" 
d="M607 0l14 78q-72 -78 -194 -78q-161 0 -255 100q-98 103 -98 285q0 224 145 378q175 185 507 185h194l-125 -831q-42 -284 -180 -439q-133 -149 -325 -149q-195 0 -314 100v219q66 -82 136 -115q81 -38 223 -38q101 0 181 101q70 88 91 204zM636 227l90 578
q-226 12 -354 -112q-119 -117 -119 -318q0 -230 239 -230q31 0 77 25.5t67 56.5z" />
    <glyph glyph-name="afii10070" unicode="&#x435;" horiz-adv-x="897" 
d="M795 240l-25 -166q-140 -103 -307 -103q-174 0 -279.5 121.5t-105.5 323.5q0 225 126.5 378.5t309.5 153.5q140 0 233 -107.5t93 -277.5q0 -42 -6 -86h-574q-8 -46 -8 -88q0 -127 69.5 -200.5t174.5 -73.5q128 0 299 125zM287 598h385q0 96 -43.5 151.5t-122.5 55.5
q-150 0 -219 -207z" />
    <glyph glyph-name="afii10072" unicode="&#x436;" horiz-adv-x="1526" 
d="M702 532l54 394h180l-57 -394h43q92 0 204 166l154 228h205l-170 -246q-126 -182 -221 -215q104 -63 168 -199l124 -266h-196l-64 145q-115 265 -233 265h-33l-57 -410h-174l57 410h-18q-129 0 -316 -254l-114 -156h-211l211 272q112 145 237 209q-84 40 -143 187
l-105 258h187l88 -228q64 -166 160 -166h40z" />
    <glyph glyph-name="afii10073" unicode="&#x437;" horiz-adv-x="799" 
d="M270 399h-57l20 142h84q252 0 252 137q0 106 -149 106q-213 0 -316 -96l23 170q122 96 315 96q147 0 234.5 -63.5t87.5 -171.5q0 -85 -70 -155q-65 -64 -155 -87q188 -53 188 -207q0 -145 -136 -224q-114 -66 -280 -66q-64 0 -166 24q-114 28 -155 62l26 182
q48 -45 152 -74q89 -24 160 -24q192 0 192 131q0 78 -92 104q-50 14 -158 14z" />
    <glyph glyph-name="afii10074" unicode="&#x438;" horiz-adv-x="981" 
d="M801 920h112l-129 -920h-174l88 584l-524 -584h-113l129 920h175l-101 -625z" />
    <glyph glyph-name="afii10075" unicode="&#x439;" horiz-adv-x="981" 
d="M801 920h112l-129 -920h-174l88 584l-524 -584h-113l129 920h175l-101 -625zM782 1350h100q-79 -263 -289 -263q-105 0 -170 75t-59 188h96q3 -61 42.5 -96t99.5 -35q108 0 180 131z" />
    <glyph glyph-name="afii10076" unicode="&#x43a;" horiz-adv-x="933" 
d="M188 926h180l-58 -385h43q99 0 205 157l154 228h196l-178 -258q-104 -151 -205 -197q39 -25 91 -87t75 -112l127 -272h-192l-64 150q-114 268 -237 268h-33l-57 -418h-174z" />
    <glyph glyph-name="afii10077" unicode="&#x43b;" horiz-adv-x="897" 
d="M639 0l-164 631l-350 -631h-184l555 958h77l261 -958h-195z" />
    <glyph glyph-name="afii10078" unicode="&#x43c;" horiz-adv-x="1204" 
d="M211 940h184l201 -588l356 588h185l-70 -940h-172l45 666l-393 -666l-223 666l-136 -666h-172z" />
    <glyph glyph-name="afii10079" unicode="&#x43d;" horiz-adv-x="948" 
d="M739 920h174l-129 -920h-174l58 408h-375l-57 -408h-175l129 920h175l-50 -359h373z" />
    <glyph glyph-name="afii10080" unicode="&#x43e;" horiz-adv-x="918" 
d="M514 948q155 0 248.5 -109.5t93.5 -291.5q0 -252 -126 -414t-310 -162q-162 0 -254 109t-92 303q0 241 127 403t313 162zM514 811q-107 0 -184.5 -132.5t-77.5 -313.5q0 -108 46.5 -176t115.5 -68q109 0 186.5 124t77.5 312q0 116 -45 185t-119 69z" />
    <glyph glyph-name="afii10081" unicode="&#x43f;" 
d="M365 920l-23 -162l4 -4q147 180 305 180q107 0 166 -78.5t59 -202.5q0 -35 -6 -73l-88 -580h-172l84 586q5 31 5 57q0 72 -30 110t-75 38q-26 0 -58.5 -13t-69.5 -40t-91.5 -82t-57.5 -70l-84 -586h-172l129 920h175z" />
    <glyph glyph-name="afii10082" unicode="&#x440;" horiz-adv-x="1004" 
d="M428 1153l-33 -233q70 28 156 28q162 0 271.5 -122t109.5 -306q0 -219 -148.5 -384t-406.5 -165h-115l-61 -442h-174l163 1163q-56 -40 -101.5 -104t-51.5 -64q-8 0 -8 13q0 46 52.5 132.5t125.5 145.5l47 338h174zM377 791l-94 -672h84q177 0 282 119.5t105 281.5
q0 140 -74 218.5t-188 78.5q-61 0 -115 -26z" />
    <glyph glyph-name="afii10083" unicode="&#x441;" horiz-adv-x="788" 
d="M731 205l-20 -168q-120 -66 -256 -66q-185 0 -295.5 115.5t-110.5 308.5q0 233 167.5 393t428.5 160q66 0 158 -16l-23 -154q-65 15 -133 15q-181 0 -300.5 -116t-119.5 -271q0 -130 67.5 -204.5t184.5 -74.5q124 0 252 78z" />
    <glyph glyph-name="afii10084" unicode="&#x442;" horiz-adv-x="1516" 
d="M350 920l-24 -160q161 174 321 174q178 0 209 -207q168 207 344 207q98 0 157.5 -67t59.5 -188q0 -38 -6 -83l-84 -596h-174l86 604q5 31 5 58q0 135 -99 135q-25 0 -55 -10.5t-67 -34.5t-100.5 -87t-66.5 -81l-84 -584h-174l82 582q7 43 7 77q0 138 -109 138
q-69 0 -171.5 -96.5t-105.5 -116.5l-82 -584h-174l131 920h174z" />
    <glyph glyph-name="afii10085" unicode="&#x443;" horiz-adv-x="768" 
d="M819 920l-659 -1391h-185l250 526l-178 865h174l127 -633l289 633h182z" />
    <glyph glyph-name="afii10086" unicode="&#x444;" horiz-adv-x="1403" 
d="M745 119h52q134 0 248 130q118 134 118 302q0 254 -172 254q-117 0 -160 -64zM926 1397l-72 -518q70 69 176 69q148 0 229.5 -105.5t81.5 -291.5q0 -222 -165 -398q-171 -182 -398 -182h-53l-62 -442h-174l72 512q-70 -70 -176 -70q-148 0 -229.5 106t-81.5 292
q0 221 165 398q171 181 398 181h51l64 449h174zM668 805h-52q-134 0 -248 -130q-118 -134 -118 -302q0 -254 172 -254q116 0 160 63z" />
    <glyph glyph-name="afii10087" unicode="&#x445;" horiz-adv-x="874" 
d="M907 920l-370 -455l233 -465h-186l-168 344l-266 -344h-213l401 487l-217 433h186l146 -310l239 310h215z" />
    <glyph glyph-name="afii10088" unicode="&#x446;" horiz-adv-x="991" 
d="M739 920h174l-106 -766h151l-45 -355h-161l26 201h-717l129 920h175l-107 -766h375zM604 -1z" />
    <glyph glyph-name="afii10089" unicode="&#x447;" horiz-adv-x="881" 
d="M672 920h174l-129 -920h-174l47 350q-61 -22 -148 -22q-151 0 -251 70q-109 77 -109 214q0 63 37 308h174q-35 -219 -35 -299q0 -150 211 -150q93 0 143 27z" />
    <glyph glyph-name="afii10090" unicode="&#x448;" horiz-adv-x="1343" 
d="M1183 0h-1122l129 920h174l-108 -766h301l104 766h174l-106 -766h301l104 766h174zM528 -1zM1001 -1z" />
    <glyph glyph-name="afii10091" unicode="&#x449;" horiz-adv-x="1403" 
d="M1155 -201l28 201h-1122l129 920h174l-108 -766h301l104 766h174l-106 -766h301l104 766h174l-104 -766h166l-47 -355h-168zM528 -1zM1001 -1z" />
    <glyph glyph-name="afii10092" unicode="&#x44a;" horiz-adv-x="930" 
d="M23 922h411l-53 -379q37 34 109 58q66 22 116 22q124 0 197 -78q65 -72 65 -178q0 -144 -109 -251q-117 -116 -296 -116h-324l109 772h-248zM326 154h108q123 0 195 65q61 56 61 129q0 135 -151 135q-48 0 -100 -23q-55 -25 -79 -61z" />
    <glyph glyph-name="afii10093" unicode="&#x44b;" horiz-adv-x="1196" 
d="M987 920h174l-133 -920h-174zM188 920h179l-54 -377q87 80 215 80q119 0 193 -78q69 -74 69 -178q0 -144 -109 -251q-117 -116 -296 -116h-324zM258 154h98q123 0 195 65q61 56 61 129q0 135 -151 135q-112 0 -168 -84z" />
    <glyph glyph-name="afii10094" unicode="&#x44c;" horiz-adv-x="853" 
d="M190 920h175l-52 -377q87 80 213 80q125 0 198 -78q67 -72 67 -178q0 -144 -110 -251q-117 -116 -296 -116h-324zM258 154h98q123 0 195 65q61 56 61 129q0 135 -151 135q-112 0 -168 -84z" />
    <glyph glyph-name="afii10095" unicode="&#x44d;" horiz-adv-x="813" 
d="M264 553h326q-9 113 -75.5 176.5t-174.5 63.5q-121 0 -252 -78l21 168q122 65 256 65q185 0 295 -115t110 -309q0 -256 -161.5 -404.5t-434.5 -148.5q-66 0 -158 17l23 153q66 -14 133 -14q332 0 401 272h-327z" />
    <glyph glyph-name="afii10096" unicode="&#x44e;" horiz-adv-x="1262" 
d="M364 920l-53 -381h121q37 183 154 297t272 114q156 0 249 -109.5t93 -291.5q0 -254 -128 -417q-124 -159 -308 -159q-163 0 -255 109t-92 303v33h-122l-60 -418h-174l129 920h174zM596 367q0 -109 46 -176.5t115 -67.5q111 0 188 124t77 312q0 116 -44.5 185t-119.5 69
q-110 0 -187 -136q-75 -132 -75 -310z" />
    <glyph glyph-name="afii10097" unicode="&#x44f;" horiz-adv-x="944" 
d="M909 920l-129 -920h-174l51 356h-30q-167 0 -295 -166l-148 -190h-215l189 233q94 117 182 156q-158 77 -158 234q0 139 125 222q111 75 268 75h334zM537 477h135l41 289h-140q-213 0 -213 -150q0 -139 177 -139z" />
    <glyph glyph-name="afii10071" unicode="&#x451;" horiz-adv-x="897" 
d="M795 240l-25 -166q-140 -103 -307 -103q-174 0 -279.5 121.5t-105.5 323.5q0 225 126.5 378.5t309.5 153.5q140 0 233 -107.5t93 -277.5q0 -42 -6 -86h-574q-8 -46 -8 -88q0 -127 69.5 -200.5t174.5 -73.5q128 0 299 125zM287 598h385q0 96 -43.5 151.5t-122.5 55.5
q-150 0 -219 -207zM648 1214q0 39 28 67t66 28t66 -28t28 -67q0 -38 -28 -66t-66 -28t-66 28t-28 66zM281 1214q0 39 28 67t66 28t66 -28t28 -67q0 -38 -28 -66t-66 -28t-66 28t-28 66z" />
    <glyph glyph-name="afii10099" unicode="&#x452;" 
d="M598 -117l102 756q3 23 3 44q0 134 -107 134q-119 0 -279 -219l-84 -598h-172l158 1120h-160l20 133h158l23 144h170l-21 -144h391l-20 -133h-389l-51 -358q160 186 325 186q104 0 161 -73q53 -67 53 -181q0 -32 -5 -67l-104 -762q-22 -159 -82 -236q-78 -100 -242 -100
q-95 0 -154 39l23 153q68 -28 133 -28q124 0 150 190z" />
    <glyph glyph-name="afii10100" unicode="&#x453;" horiz-adv-x="655" 
d="M190 920h541l-25 -152h-364l-107 -768h-174zM527 1325h207l-232 -299h-114z" />
    <glyph glyph-name="afii10101" unicode="&#x454;" horiz-adv-x="788" 
d="M252 539h401l-20 -133h-406q0 -131 67.5 -205t184.5 -74q121 0 252 78l-20 -168q-123 -66 -256 -66q-186 0 -296 115.5t-110 308.5q0 231 162 389q169 164 434 164q66 0 158 -16l-23 -154q-66 15 -133 15q-142 0 -250 -74q-102 -69 -145 -180z" />
    <glyph glyph-name="afii10102" unicode="&#x455;" horiz-adv-x="725" 
d="M662 852v-182q-159 121 -277 121q-53 0 -89 -28.5t-36 -68.5q0 -26 22.5 -55.5t142 -109.5t161 -147t41.5 -136q0 -121 -80.5 -198t-204.5 -77q-153 0 -319 121l30 168q172 -137 283 -137q52 0 85.5 29t33.5 73q0 33 -24.5 67.5t-142.5 116.5t-156 146t-38 129
q0 119 79 191.5t210 72.5q138 0 279 -96z" />
    <glyph glyph-name="afii10103" unicode="&#x456;" horiz-adv-x="385" 
d="M195 1208q0 42 29.5 71.5t70.5 29.5t70.5 -29.5t29.5 -71.5q0 -41 -29.5 -70.5t-70.5 -29.5t-70.5 29.5t-29.5 70.5zM350 920l-129 -920h-174l129 920h174z" />
    <glyph glyph-name="afii10104" unicode="&#x457;" horiz-adv-x="385" 
d="M350 920l-129 -920h-174l129 920h174zM394 1214q0 39 28 67t66 28t66 -28t28 -67q0 -38 -28 -66t-66 -28t-66 28t-28 66zM27 1214q0 39 28 67t66 28t66 -28t28 -67q0 -38 -28 -66t-66 -28t-66 28t-28 66z" />
    <glyph glyph-name="afii10105" unicode="&#x458;" horiz-adv-x="385" 
d="M293 1309q41 0 70.5 -29.5t29.5 -71.5q0 -41 -29.5 -70.5t-70.5 -29.5t-70.5 29.5t-29.5 70.5q0 42 29.5 71.5t70.5 29.5zM41 -137l135 1057h174l-141 -1106q-18 -139 -102 -212t-216 -73q-57 0 -102 18l23 154q43 -10 77 -10q130 0 152 172z" />
    <glyph glyph-name="afii10106" unicode="&#x459;" horiz-adv-x="1227" 
d="M573 958l115 -417q89 82 199 82q127 0 205 -78q73 -73 73 -178q0 -140 -109 -244q-130 -123 -360 -123h-57l-164 631l-350 -631h-184l555 958h77zM713 444l78 -286q94 15 149 76q47 52 47 114q0 135 -151 135q-65 0 -123 -39z" />
    <glyph glyph-name="afii10107" unicode="&#x45a;" horiz-adv-x="1399" 
d="M913 920l-51 -365q88 68 197 68q127 0 205 -78q73 -73 73 -178q0 -144 -109 -251q-117 -116 -296 -116h-324l60 408h-375l-57 -408h-175l129 920h175l-50 -359h373l51 359h174zM807 154h96q123 0 195 65q61 56 61 129q0 135 -151 135q-116 0 -166 -75z" />
    <glyph glyph-name="afii10108" unicode="&#x45b;" 
d="M219 1118h-158l23 154h155l19 125h174l-19 -125h393l-20 -154h-393l-49 -346l4 -4q155 180 319 180q104 0 161 -72q53 -68 53 -181q0 -33 -5 -68l-88 -627h-174l88 637q3 24 3 45q0 135 -107 135q-119 0 -279 -219l-84 -598h-174z" />
    <glyph glyph-name="afii10109" unicode="&#x45c;" horiz-adv-x="933" 
d="M188 926h180l-58 -385h43q99 0 205 157l154 228h196l-178 -258q-104 -151 -205 -197q39 -25 91 -87t75 -112l127 -272h-192l-64 150q-114 268 -237 268h-33l-57 -418h-174zM538 1317h207l-232 -299h-114z" />
    <glyph glyph-name="afii10110" unicode="&#x45e;" horiz-adv-x="768" 
d="M819 920l-659 -1391h-185l250 526l-178 865h174l127 -633l289 633h182zM659 1350h100q-79 -263 -289 -263q-105 0 -170 75t-59 188h96q3 -61 42.5 -96t99.5 -35q108 0 180 131z" />
    <glyph glyph-name="afii10193" unicode="&#x45f;" horiz-adv-x="948" 
d="M739 920h174l-129 -920h-272l-27 -201h-161l30 201h-293l129 920h175l-107 -766h375zM604 -1z" />
    <glyph glyph-name="afii10050" unicode="&#x490;" horiz-adv-x="930" 
d="M860 1542h168l-47 -311h-549l-176 -1231h-184l203 1397h563z" />
    <glyph glyph-name="afii10098" unicode="&#x491;" horiz-adv-x="655" 
d="M602 1034h139l-41 -270h-358l-107 -764h-174l129 920h395z" />
    <glyph glyph-name="Wgrave" unicode="&#x1e80;" horiz-adv-x="1898" 
d="M2019 1397l-676 -1409h-71l-271 991l-475 -991h-73l-330 1409h176l231 -989l471 989h72l273 -1006l479 1006h194zM1045 1796l139 -299h-115l-231 299h207z" />
    <glyph glyph-name="wgrave" unicode="&#x1e81;" horiz-adv-x="1260" 
d="M1325 920l-473 -938h-82l-123 602l-311 -602h-80l-190 938h170l114 -619l299 619h86l115 -619l305 619h170zM731 1372l139 -299h-115l-231 299h207z" />
    <glyph glyph-name="Wacute" unicode="&#x1e82;" horiz-adv-x="1898" 
d="M2019 1397l-676 -1409h-71l-271 991l-475 -991h-73l-330 1409h176l231 -989l471 989h72l273 -1006l479 1006h194zM1120 1794h207l-232 -299h-114z" />
    <glyph glyph-name="wacute" unicode="&#x1e83;" horiz-adv-x="1260" 
d="M1325 920l-473 -938h-82l-123 602l-311 -602h-80l-190 938h170l114 -619l299 619h86l115 -619l305 619h170zM732 1372h207l-232 -299h-114z" />
    <glyph glyph-name="Wdieresis" unicode="&#x1e84;" horiz-adv-x="1898" 
d="M2019 1397l-676 -1409h-71l-271 991l-475 -991h-73l-330 1409h176l231 -989l471 989h72l273 -1006l479 1006h194zM1101 1591q0 39 28 67t66 28t66 -28t28 -67q0 -38 -28 -66t-66 -28t-66 28t-28 66zM734 1591q0 39 28 67t66 28t66 -28t28 -67q0 -38 -28 -66t-66 -28
t-66 28t-28 66z" />
    <glyph glyph-name="wdieresis" unicode="&#x1e85;" horiz-adv-x="1260" 
d="M1325 920l-473 -938h-82l-123 602l-311 -602h-80l-190 938h170l114 -619l299 619h86l115 -619l305 619h170zM792 1187q0 39 28 67t66 28t66 -28t28 -67q0 -38 -28 -66t-66 -28t-66 28t-28 66zM425 1187q0 39 28 67t66 28t66 -28t28 -67q0 -38 -28 -66t-66 -28t-66 28
t-28 66z" />
    <glyph glyph-name="Ygrave" unicode="&#x1ef2;" horiz-adv-x="1004" 
d="M1141 1397l-490 -701l-98 -696h-184l98 696l-328 701h195l237 -512l357 512h213zM630 1796l139 -299h-115l-231 299h207z" />
    <glyph glyph-name="ygrave" unicode="&#x1ef3;" horiz-adv-x="768" 
d="M819 920l-659 -1391h-185l250 526l-178 865h174l127 -633l289 633h182zM466 1372l139 -299h-115l-231 299h207z" />
    <glyph glyph-name="afii00208" unicode="&#x2015;" horiz-adv-x="1536" 
d="M1466 583v-130h-1396v130h1396z" />
    <glyph glyph-name="underscoredbl" unicode="&#x2017;" horiz-adv-x="1131" 
d="M-12 -216v102h1155v-102h-1155zM-12 -448v102h1155v-102h-1155z" />
    <glyph glyph-name="quotereversed" unicode="&#x201b;" horiz-adv-x="405" 
d="M307 957l-49 -78q-103 134 -103 268q0 107 58.5 186t138.5 79q49 0 86.5 -38t37.5 -90q0 -49 -31.5 -81t-84.5 -32q-21 0 -44 7q-45 -53 -45 -110q0 -55 36 -111z" />
    <glyph glyph-name="minute" unicode="&#x2032;" horiz-adv-x="391" 
d="M112 894l157 522h209l-100 -248l-156 -274h-110z" />
    <glyph glyph-name="second" unicode="&#x2033;" horiz-adv-x="725" 
d="M112 894l157 522h209l-100 -248l-156 -274h-110zM450 894l157 522h209l-100 -248l-157 -274h-109z" />
    <glyph glyph-name="exclamdbl" unicode="&#x203c;" horiz-adv-x="1003" 
d="M193 339q26 184 54 667q17 281 56.5 345.5t85.5 64.5q81 0 81 -116q0 -99 -86 -439q-55 -220 -93 -420q-13 -65 -21 -102h-77zM676 339q26 184 54 667q16 281 56 345.5t85 64.5q82 0 82 -116q0 -99 -86 -439q-56 -220 -94 -420q-12 -65 -20 -102h-77zM195 -28
q-46 0 -78.5 32.5t-32.5 76.5q0 46 32.5 78.5t77.5 32.5q48 0 81 -33t33 -76q0 -44 -33.5 -77.5t-79.5 -33.5zM678 -28q-46 0 -78.5 32.5t-32.5 76.5q0 46 32 78.5t78 32.5q47 0 80.5 -33t33.5 -76q0 -44 -33.5 -77.5t-79.5 -33.5z" />
    <glyph glyph-name="radicalex" unicode="&#x203e;" horiz-adv-x="1135" 
d="M-42 1869h1219v-74h-1219v74z" />
    <glyph glyph-name="fraction1" unicode="&#x2044;" horiz-adv-x="427" 
d="M839 1416l-1109 -1471h-142l1112 1471h139z" />
    <glyph glyph-name="nsuperior" unicode="&#x207f;" horiz-adv-x="640" 
d="M285 1115l-11 -74q97 83 190 83q67 0 108.5 -42t41.5 -109q0 -25 -5 -62l-54 -351h-136l47 305q9 61 9 93q0 72 -56 72q-61 0 -165 -119l-54 -351h-135l86 555h134z" />
    <glyph glyph-name="franc" unicode="&#x20a3;" horiz-adv-x="853" 
d="M312 434h264l-20 -134h-263l-43 -300h-186l43 300h-135l17 134h138l139 963h667l-24 -166h-484l-62 -435h446l-24 -169h-446z" />
    <glyph glyph-name="afii08941" unicode="&#x20a4;" horiz-adv-x="960" 
d="M441 501h257l-35 -139h-269l-55 -170q33 4 58 4q50 0 153 -17q99 -17 156 -17q118 0 231 56l-29 -191q-90 -46 -226 -46q-50 0 -148 16q-124 19 -218 19q-123 0 -230 -33h-12l131 379h-154l42 139h160l47 165h-179l49 144h183q1 4 21 51l20 49q107 266 230.5 386
t282.5 120q59 0 129 -19l-23 -179q-58 22 -106 22q-104 0 -187 -95t-176 -335h226l-46 -144h-227z" />
    <glyph glyph-name="peseta" unicode="&#x20a7;" horiz-adv-x="1977" 
d="M263 1397h195q156 0 257.5 -30t172.5 -121.5t71 -227.5q0 -127 -61 -229t-161.5 -150.5t-287.5 -48.5h-106l-80 -590h-194zM434 1232l-68 -477q26 -1 57 -1q129 0 197 24t107 89t39 151q0 68 -43.5 125t-106 73t-182.5 16zM1360 745l-19 -117h-145l-65 -373
q-11 -59 -11 -86q0 -59 70 -59q75 0 143 53l-10 -151q-87 -34 -156 -34q-99 0 -149 50.5t-50 111.5q0 31 14 113l65 375h-130l19 117h134l27 150h148l-27 -150h142zM1913 683v-157q-133 102 -227 102q-42 0 -67.5 -20t-25.5 -48q0 -39 110 -117q107 -76 145.5 -124
t38.5 -122q0 -93 -66 -156t-171 -63q-121 0 -257 98l25 145q146 -114 234 -114q38 0 62.5 22.5t24.5 54.5q0 27 -20.5 53.5t-113.5 92.5q-97 69 -125.5 119t-28.5 104q0 91 62.5 150.5t168.5 59.5q112 0 231 -80z" />
    <glyph glyph-name="afii61248" unicode="&#x2105;" horiz-adv-x="1406" 
d="M618 1403l-18 -123q-55 11 -89 11q-111 0 -183 -71t-72 -172q0 -63 36 -110.5t112 -47.5q86 0 172 75l-21 -153q-82 -46 -169 -46q-135 0 -202 83t-67 197q0 151 108 260.5t294 109.5q48 0 99 -13zM1285 1416l-923 -1435h-153l923 1435h153zM1059 -19q-95 0 -159.5 69
t-64.5 205q0 168 87 272t207 104q99 0 161.5 -73.5t62.5 -194.5q0 -173 -86 -277.5t-208 -104.5zM1060 92q68 0 112 84.5t44 192.5q0 61 -23 102.5t-67 41.5q-63 0 -108.5 -80t-45.5 -206q0 -64 27 -99.5t61 -35.5z" />
    <glyph glyph-name="afii61289" unicode="&#x2113;" horiz-adv-x="661" 
d="M24 587l215 161l136 444q58 189 130 244.5t157 55.5q95 0 148 -58t53 -129q0 -100 -89.5 -228t-365.5 -355l-154 -500q-11 -34 -11 -53q0 -38 7.5 -47.5t27.5 -9.5q66 0 231 110l-39 -169q-124 -79 -223 -79q-78 0 -126.5 45.5t-48.5 123.5q0 70 34 181l69 221l-90 -68z
M480 953q153 145 198 217t45 129q0 74 -56 74q-58 0 -107 -158z" />
    <glyph glyph-name="afii61352" unicode="&#x2116;" horiz-adv-x="2228" 
d="M1096 324l112 854q14 107 101 183q92 81 217 81h157l-24 -180h-121q-70 0 -104 -35.5t-45 -118.5l-156 -1108h-98l-748 1047l-149 -1047h-189l195 1403h108zM1868 879q-83 0 -148 -63q-73 -70 -73 -179q0 -66 41 -111q49 -53 139 -53q83 0 154 70t71 149q0 187 -184 187z
M1894 1010q126 0 209 -86q80 -83 80 -205q0 -151 -120 -264q-116 -109 -259 -109q-125 0 -208 79.5t-83 199.5q0 156 114.5 270.5t266.5 114.5zM1462 137l15 107h634l-14 -107h-635z" />
    <glyph glyph-name="estimated" unicode="&#x212e;" horiz-adv-x="1229" 
d="M321 531v-371q120 -121 298 -121q254 0 395 246l72 -43q-118 -170 -231.5 -223t-235.5 -53q-232 0 -380.5 158.5t-148.5 406.5q0 252 149.5 408.5t379.5 156.5q214 0 366 -142t163 -423h-827zM917 605v297q-124 121 -300 121q-175 0 -296 -122v-296h596z" />
    <glyph glyph-name="oneeighth" unicode="&#x215b;" horiz-adv-x="1728" 
d="M538 1416l-133 -737h-134l134 737h133zM1477 1416l-1109 -1471h-142l1112 1471h139zM1522 379q100 -45 100 -147q0 -97 -82 -169.5t-215 -72.5q-108 0 -175.5 58t-67.5 144q0 145 169 201q-86 47 -86 135q0 86 74.5 147.5t184.5 61.5q100 0 164.5 -54t64.5 -131
q0 -124 -131 -173zM1398 431q57 0 90.5 36t33.5 81q0 35 -26.5 61.5t-75.5 26.5q-54 0 -89.5 -34t-35.5 -80q0 -41 28 -66t75 -25zM1337 89q61 0 107 40t46 97q0 106 -120 106q-68 0 -111.5 -42t-43.5 -97q0 -51 36.5 -77.5t85.5 -26.5z" />
    <glyph glyph-name="threeeighths" unicode="&#x215c;" horiz-adv-x="1728" 
d="M234 1381q92 35 176 35q103 0 170.5 -50.5t67.5 -137.5q0 -120 -152 -175q103 -46 103 -155q0 -94 -79.5 -161t-213.5 -67q-106 0 -216 43l16 100q107 -45 192 -45q80 0 122.5 36t42.5 92q0 52 -37.5 81t-93.5 29q-8 0 -22 -1l15 96q183 17 183 124q0 46 -35.5 69
t-80.5 23q-90 0 -178 -55zM1490 1416l-1109 -1471h-147l1117 1471h139zM1252 393q-86 47 -86 135q0 86 74.5 147.5t184.5 61.5q102 0 165.5 -54.5t63.5 -130.5q0 -42 -20 -80.5t-42 -52.5q-58 -37 -58 -39t35 -29q54 -42 54 -119q0 -98 -82 -170t-215 -72q-108 0 -175.5 58
t-67.5 144q0 148 169 201zM1399 431q57 0 90.5 36t33.5 81q0 35 -26.5 61.5t-75.5 26.5q-54 0 -89.5 -34t-35.5 -80q0 -41 28 -66t75 -25zM1338 89q61 0 107 40t46 97q0 106 -120 106q-68 0 -111.5 -42t-43.5 -97q0 -50 35.5 -77t86.5 -27z" />
    <glyph glyph-name="fiveeighths" unicode="&#x215d;" horiz-adv-x="1728" 
d="M1501 1416l-1109 -1471h-142l1113 1471h138zM661 1406l-20 -101h-236l-31 -167q87 0 160.5 -56t73.5 -155q0 -105 -85.5 -181t-234.5 -76q-126 0 -211 58l44 97q83 -56 169 -56q81 0 131 44t50 109q0 58 -42 89t-114 31q-37 0 -90 -10l77 374h359zM1522 379
q100 -45 100 -147q0 -97 -82 -169.5t-214 -72.5q-108 0 -175.5 58t-67.5 144q0 148 168 201q-86 47 -86 135q0 86 74.5 147.5t185.5 61.5q99 0 163.5 -54t64.5 -131q0 -124 -131 -173zM1399 431q56 0 90 36t34 81q0 35 -27 61.5t-75 26.5q-55 0 -90.5 -34t-35.5 -80
q0 -41 28.5 -66t75.5 -25zM1338 89q60 0 106 40t46 97q0 106 -120 106q-67 0 -111 -42t-44 -97q0 -50 36 -77t87 -27z" />
    <glyph glyph-name="seveneighths" unicode="&#x215e;" horiz-adv-x="1728" 
d="M1465 1416l-1108 -1471h-142l1112 1471h138zM711 1406l-389 -736h-137l338 634h-329l17 102h500zM1522 379q100 -45 100 -147q0 -97 -81.5 -169.5t-214.5 -72.5q-109 0 -176 59t-67 143q0 148 169 201q-86 47 -86 135q0 86 74.5 147.5t184.5 61.5q99 0 164 -54t65 -131
q0 -124 -132 -173zM1399 431q57 0 90.5 36t33.5 81q0 35 -27 61.5t-75 26.5q-54 0 -89.5 -34t-35.5 -80q0 -41 28 -66t75 -25zM1338 89q60 0 106 40t46 97q0 106 -120 106q-67 0 -111 -42t-44 -97q0 -50 36 -77t87 -27z" />
    <glyph glyph-name="arrowleft" unicode="&#x2190;" horiz-adv-x="2048" 
d="M492 157q-121 135 -209 205.5t-204 131.5v46q116 61 203 130.5t210 205.5h76q-46 -96 -77.5 -147.5t-88.5 -124.5h1566v-175h-1566q55 -69 88 -122.5t78 -149.5h-76z" />
    <glyph glyph-name="arrowup" unicode="&#x2191;" horiz-adv-x="1024" 
d="M153 926q135 122 205.5 209.5t131.5 203.5h45q61 -116 130.5 -202.5t206.5 -210.5v-76q-97 46 -148.5 78t-123.5 88v-1445h-175v1445q-69 -54 -122.5 -87t-149.5 -79v76z" />
    <glyph glyph-name="arrowright" unicode="&#x2192;" horiz-adv-x="2048" 
d="M1555 876q122 -135 209.5 -205t203.5 -132v-45q-116 -61 -202.5 -130.5t-210.5 -206.5h-76q46 97 78 148.5t88 123.5h-1566v175h1566q-54 69 -87 122.5t-79 149.5h76z" />
    <glyph glyph-name="arrowdown" unicode="&#x2193;" horiz-adv-x="1024" 
d="M871 -16q-135 -122 -205.5 -209.5t-131.5 -203.5h-45q-61 116 -131 202.5t-206 210.5v76q97 -46 148.5 -78t123.5 -88v1445h175v-1445q69 54 122.5 87t149.5 79v-76z" />
    <glyph glyph-name="arrowboth" unicode="&#x2194;" horiz-adv-x="2048" 
d="M402 604h1243q-54 68 -87 122t-79 150h76q122 -135 209.5 -205t203.5 -132v-45q-116 -61 -202.5 -130.5t-210.5 -206.5h-76q46 97 77.5 148t88.5 124h-1243q55 -69 88 -122.5t78 -149.5h-76q-121 135 -209 205.5t-204 131.5v46q116 61 203 130.5t210 205.5h76
q-46 -96 -77.5 -147.5t-88.5 -124.5z" />
    <glyph glyph-name="arrowupdn" unicode="&#x2195;" horiz-adv-x="1024" 
d="M600 1139v-1243q68 54 122 87.5t150 79.5v-77q-135 -121 -205.5 -208.5t-131.5 -204.5h-45q-61 116 -131 203t-206 210v77q96 -47 147.5 -78t124.5 -89v1243q-69 -54 -122.5 -87t-149.5 -79v76q135 122 205.5 209.5t131.5 204.5h45q61 -117 130.5 -203.5t206.5 -210.5
v-76q-97 46 -148.5 78t-123.5 88z" />
    <glyph glyph-name="arrowupdnbse" unicode="&#x21a8;" horiz-adv-x="1024" 
d="M599 1139v-1243q68 54 122 87.5t150 79.5v-77q-135 -121 -205.5 -208.5t-131.5 -204.5h-45q-61 116 -131 203t-206 210v77q96 -47 147.5 -78t124.5 -89v1243q-69 -54 -122.5 -87t-149.5 -79v76q135 122 205.5 209.5t131.5 204.5h45q61 -117 130.5 -203.5t206.5 -210.5
v-76q-97 46 -148.5 78t-123.5 88zM152 -502h719v-175h-719v175z" />
    <glyph glyph-name="orthogonal" unicode="&#x221f;" horiz-adv-x="2048" 
d="M123 0v1782h135v-1647h1667v-135h-1802z" />
    <glyph glyph-name="intersection" unicode="&#x2229;" horiz-adv-x="1472" 
d="M317 0h-135v545q0 278 13.5 392t81 222.5t200 182.5t283.5 74q153 0 285 -74.5t197.5 -178t81 -218.5t15.5 -400v-545h-134v552q0 241 -12 345t-60.5 187.5t-152.5 142t-220 58.5t-220.5 -59.5t-151.5 -140.5t-59 -186t-12 -347v-552z" />
    <glyph glyph-name="equivalence" unicode="&#x2261;" horiz-adv-x="1195" 
d="M1082 1014h-968v168h968v-168zM1082 638h-968v167h968v-167zM1082 261h-968v168h968v-168z" />
    <glyph glyph-name="house" unicode="&#x2302;" horiz-adv-x="1229" 
d="M153 0v634l461 519l462 -519v-634h-923zM234 81h761v519l-381 427l-380 -427v-519z" />
    <glyph glyph-name="revlogicalnot" unicode="&#x2310;" horiz-adv-x="1195" 
d="M113 257v606h968v-168h-798v-438h-170z" />
    <glyph glyph-name="integraltp" unicode="&#x2320;" horiz-adv-x="1237" 
d="M691 -515h-145v1811q0 219 89.5 330t202.5 111q67 0 102.5 -32.5t35.5 -76.5q0 -40 -25.5 -66t-62.5 -26q-30 0 -57 15q-18 10 -41.5 46.5t-46.5 36.5q-17 0 -31 -12q-10 -8 -14 -27q-7 -33 -7 -139v-1971z" />
    <glyph glyph-name="integralbt" unicode="&#x2321;" horiz-adv-x="1237" 
d="M546 1737h145v-1811q0 -219 -89.5 -330t-202.5 -111q-67 0 -102.5 32.5t-35.5 76.5q0 40 25.5 66t61.5 26q31 0 59 -16q18 -10 41 -46t46 -36q17 0 31 11q10 8 14 29q7 32 7 138v1971z" />
    <glyph glyph-name="SF100000" unicode="&#x2500;" horiz-adv-x="1451" 
d="M1473 534h-1496v175h1496v-175z" />
    <glyph glyph-name="SF110000" unicode="&#x2502;" horiz-adv-x="1451" 
d="M638 -621v2485h175v-2485h-175z" />
    <glyph glyph-name="SF010000" unicode="&#x250c;" horiz-adv-x="1451" 
d="M1474 709v-175h-661v-1155h-175v1330h836z" />
    <glyph glyph-name="SF030000" unicode="&#x2510;" horiz-adv-x="1451" 
d="M637 534h-660v175h835v-1330h-175v1155z" />
    <glyph glyph-name="SF020000" unicode="&#x2514;" horiz-adv-x="1451" 
d="M638 534v1330h175v-1155h661v-175h-836z" />
    <glyph glyph-name="SF040000" unicode="&#x2518;" horiz-adv-x="1451" 
d="M812 534h-835v175h660v1155h175v-1330z" />
    <glyph glyph-name="SF080000" unicode="&#x251c;" horiz-adv-x="1451" 
d="M638 -621v2485h175v-1155h661v-175h-661v-1155h-175z" />
    <glyph glyph-name="SF090000" unicode="&#x2524;" horiz-adv-x="1451" 
d="M637 -621v1155h-660v175h660v1155h175v-2485h-175z" />
    <glyph glyph-name="SF060000" unicode="&#x252c;" horiz-adv-x="1451" 
d="M637 534h-660v175h1496v-175h-661v-1155h-175v1155z" />
    <glyph glyph-name="SF070000" unicode="&#x2534;" horiz-adv-x="1451" 
d="M1473 534h-1496v175h660v1155h175v-1155h661v-175z" />
    <glyph glyph-name="SF050000" unicode="&#x253c;" horiz-adv-x="1451" 
d="M637 534h-660v175h660v1155h175v-1155h661v-175h-661v-1155h-175v1155z" />
    <glyph glyph-name="SF430000" unicode="&#x2550;" horiz-adv-x="1451" 
d="M1473 724h-1496v175h1496v-175zM1473 344h-1496v175h1496v-175z" />
    <glyph glyph-name="SF240000" unicode="&#x2551;" horiz-adv-x="1451" 
d="M829 -621v2485h175v-2485h-175zM448 -621v2485h175v-2485h-175z" />
    <glyph glyph-name="SF510000" unicode="&#x2552;" horiz-adv-x="1451" 
d="M638 -621v1520h836v-175h-661v-205h661v-175h-661v-965h-175z" />
    <glyph glyph-name="SF520000" unicode="&#x2553;" horiz-adv-x="1451" 
d="M448 -621v1330h1027v-175h-471v-1155h-175v1155h-206v-1155h-175z" />
    <glyph glyph-name="SF390000" unicode="&#x2554;" horiz-adv-x="1451" 
d="M623 -621h-175v1520h1026v-175h-851v-1345zM1004 344v-965h-175v1140h645v-175h-470z" />
    <glyph glyph-name="SF220000" unicode="&#x2555;" horiz-adv-x="1451" 
d="M637 344h-660v175h660v205h-660v175h835v-1520h-175v965z" />
    <glyph glyph-name="SF210000" unicode="&#x2556;" horiz-adv-x="1451" 
d="M448 -621v1155h-471v175h1026v-1330h-175v1155h-206v-1155h-174z" />
    <glyph glyph-name="SF250000" unicode="&#x2557;" horiz-adv-x="1451" 
d="M828 -621v1345h-851v175h1026v-1520h-175zM447 344h-470v175h645v-1140h-175v965z" />
    <glyph glyph-name="SF500000" unicode="&#x2558;" horiz-adv-x="1451" 
d="M638 344v1520h175v-965h661v-175h-661v-205h661v-175h-836z" />
    <glyph glyph-name="SF490000" unicode="&#x2559;" horiz-adv-x="1451" 
d="M1475 534h-1027v1330h175v-1155h206v1155h175v-1155h471v-175z" />
    <glyph glyph-name="SF380000" unicode="&#x255a;" horiz-adv-x="1451" 
d="M623 1864v-1345h850v-175h-1025v1520h175zM1004 899h470v-175h-645v1140h175v-965z" />
    <glyph glyph-name="SF280000" unicode="&#x255b;" horiz-adv-x="1451" 
d="M812 344h-835v175h660v205h-660v175h660v965h175v-1520z" />
    <glyph glyph-name="SF270000" unicode="&#x255c;" horiz-adv-x="1451" 
d="M1003 534h-1026v175h470v1155h175v-1155h206v1155h175v-1330z" />
    <glyph glyph-name="SF260000" unicode="&#x255d;" horiz-adv-x="1451" 
d="M828 1864h175v-1520h-1026v175h851v1345zM447 899v965h175v-1140h-645v175h470z" />
    <glyph glyph-name="SF360000" unicode="&#x255e;" horiz-adv-x="1451" 
d="M638 -621v2485h175v-965h661v-175h-661v-205h661v-175h-661v-965h-175z" />
    <glyph glyph-name="SF370000" unicode="&#x255f;" horiz-adv-x="1451" 
d="M829 -621v2485h175v-1155h470v-175h-470v-1155h-175zM448 -621v2485h175v-2485h-175z" />
    <glyph glyph-name="SF420000" unicode="&#x2560;" horiz-adv-x="1451" 
d="M448 -621v2485h175v-2485h-175zM829 724v1140h175v-965h470v-175h-645zM829 -621v1140h645v-175h-470v-965h-175z" />
    <glyph glyph-name="SF190000" unicode="&#x2561;" horiz-adv-x="1451" 
d="M637 344h-660v175h660v205h-660v175h660v965h175v-2485h-175v965z" />
    <glyph glyph-name="SF200000" unicode="&#x2562;" horiz-adv-x="1451" 
d="M447 -621l1 1155h-471v175h470v1155h175v-2485h-175zM828 -621v2485h175v-2485h-175z" />
    <glyph glyph-name="SF230000" unicode="&#x2563;" horiz-adv-x="1451" 
d="M828 -621v2485h175v-2485h-175zM622 1864v-1140h-645v175h470v965h175zM447 344h-470v175h645v-1140h-175v965z" />
    <glyph glyph-name="SF470000" unicode="&#x2564;" horiz-adv-x="1451" 
d="M1473 724h-1496v175h1496v-175zM637 344h-660v175h1496v-175h-661v-965h-175v965z" />
    <glyph glyph-name="SF480000" unicode="&#x2565;" horiz-adv-x="1451" 
d="M447 -621v1155h-470v175h1496v-175h-470v-1155h-175v1155h-206v-1155h-175z" />
    <glyph glyph-name="SF410000" unicode="&#x2566;" horiz-adv-x="1451" 
d="M1473 724h-1496v175h1496v-175zM447 344h-470v175h645v-1140h-175v965zM828 -621v1140h645v-175h-470v-965h-175z" />
    <glyph glyph-name="SF450000" unicode="&#x2567;" horiz-adv-x="1451" 
d="M1473 724h-1496v175h660v965h175v-965h661v-175zM1473 344h-1496v175h1496v-175z" />
    <glyph glyph-name="SF460000" unicode="&#x2568;" horiz-adv-x="1451" 
d="M1473 534h-1496v175h470v1155h175v-1155h206v1155h175v-1155h470v-175z" />
    <glyph glyph-name="SF400000" unicode="&#x2569;" horiz-adv-x="1451" 
d="M622 724h-645v175h470v965h175v-1140zM1473 724h-645v1140h175v-965h470v-175zM1473 344h-1496v175h1496v-175z" />
    <glyph glyph-name="SF540000" unicode="&#x256a;" horiz-adv-x="1451" 
d="M637 344h-660v175h660v205h-660v175h660v965h175v-965h661v-175h-661v-205h661v-175h-661v-965h-175v965z" />
    <glyph glyph-name="SF530000" unicode="&#x256b;" horiz-adv-x="1451" 
d="M447 -621v1155h-470v175h470v1155h175v-1155h206v1155h175v-1155h470v-175h-470v-1155h-175v1155h-206v-1155h-175z" />
    <glyph glyph-name="SF440000" unicode="&#x256c;" horiz-adv-x="1451" 
d="M1003 899h470v-175h-645v1140h175v-965zM447 899v965h175v-1140h-645v175h470zM447 344h-470v175h645v-1140h-175v965zM1003 344v-965h-175v1140h645v-175h-470z" />
    <glyph glyph-name="upblock" unicode="&#x2580;" horiz-adv-x="1451" 
d="M1473 621h-1496v1243h1496v-1243z" />
    <glyph glyph-name="dnblock" unicode="&#x2584;" horiz-adv-x="1451" 
d="M1473 -621h-1496v1242h1496v-1242z" />
    <glyph glyph-name="block" unicode="&#x2588;" horiz-adv-x="1451" 
d="M-23 -621v2485h1496v-2485h-1496z" />
    <glyph glyph-name="lfblock" unicode="&#x258c;" horiz-adv-x="1451" 
d="M-23 -621v2485h748v-2485h-748z" />
    <glyph glyph-name="rtblock" unicode="&#x2590;" horiz-adv-x="1451" 
d="M726 -621v2485h748v-2485h-748z" />
    <glyph glyph-name="ltshade" unicode="&#x2591;" horiz-adv-x="1451" 
d="M0 1864h121v-125h-121v125zM482 1864h121v-125h-121v125zM965 1864h121v-125h-121v125zM241 1615h121v-125h-121v125zM723 1615h121v-125h-121v125zM1206 1615h121v-125h-121v125zM965 1366h121v-125h-121v125zM482 1366h121v-125h-121v125zM0 1366h121v-125h-121v125z
M1206 1117h121v-125h-121v125zM723 1117h121v-125h-121v125zM241 1117h121v-125h-121v125zM0 867h121v-125h-121v125zM482 867h121v-125h-121v125zM965 867h121v-125h-121v125zM1206 618h121v-125h-121v125zM723 618h121v-125h-121v125zM241 618h121v-125h-121v125zM0 369
h121v-125h-121v125zM482 369h121v-125h-121v125zM965 369h121v-125h-121v125zM241 120h121v-125h-121v125zM723 120h121v-125h-121v125zM1206 120h121v-125h-121v125zM965 -130h121v-125h-121v125zM482 -130h121v-125h-121v125zM0 -130h121v-125h-121v125zM241 -379h121
v-125h-121v125zM723 -379h121v-125h-121v125zM1206 -379h121v-125h-121v125z" />
    <glyph glyph-name="shade" unicode="&#x2592;" horiz-adv-x="1451" 
d="M121 1864h120v-125h-120v125zM362 1864h120v-125h-120v125zM603 1864h121v-125h-121v125zM844 1864h121v-125h-121v125zM1086 1864h120v-125h-120v125zM1327 1864h120v-125h-120v125zM0 1615h121v-125h-121v125zM241 1615h121v-125h-121v125zM482 1615h121v-125h-121v125
zM724 1615h120v-125h-120v125zM965 1615h121v-125h-121v125zM1206 1615h121v-125h-121v125zM121 1366h120v-125h-120v125zM362 1366h120v-125h-120v125zM603 1366h121v-125h-121v125zM844 1366h121v-125h-121v125zM1086 1366h120v-125h-120v125zM1327 1366h120v-125h-120
v125zM241 1116h121v-124h-121v124zM482 1116h121v-124h-121v124zM724 1116h120v-124h-120v124zM965 1116h121v-124h-121v124zM1206 1116h121v-124h-121v124zM0 1116h121v-124h-121v124zM121 867h120v-125h-120v125zM362 867h120v-125h-120v125zM603 867h121v-125h-121v125z
M844 867h121v-125h-121v125zM1086 867h120v-125h-120v125zM1327 867h120v-125h-120v125zM0 618h121v-125h-121v125zM482 618h121v-125h-121v125zM724 618h120v-125h-120v125zM965 618h121v-125h-121v125zM1206 618h121v-125h-121v125zM241 618h121v-125h-121v125zM1327 369
h120v-125h-120v125zM1086 369h120v-125h-120v125zM844 369h121v-125h-121v125zM603 369h121v-125h-121v125zM362 369h120v-125h-120v125zM121 369h120v-125h-120v125zM0 119h121v-124h-121v124zM241 119h121v-124h-121v124zM482 119h121v-124h-121v124zM724 119h120v-124
h-120v124zM965 119h121v-124h-121v124zM1206 119h121v-124h-121v124zM1327 -130h120v-125h-120v125zM1086 -130h120v-125h-120v125zM844 -130h121v-125h-121v125zM603 -130h121v-125h-121v125zM362 -130h120v-125h-120v125zM121 -130h120v-125h-120v125zM0 -379h121v-125
h-121v125zM241 -379h121v-125h-121v125zM482 -379h121v-125h-121v125zM724 -379h120v-125h-120v125zM965 -380l121 1v-125h-121v124zM1206 -379h121v-125h-121v125z" />
    <glyph glyph-name="dkshade" unicode="&#x2593;" horiz-adv-x="1451" 
d="M1447 1490v-374h-120v-124h120v-374h-120v-125h120v-374h-120v-124h120v-374h-120v-125h120v-124h-1447v373h121v125h-121v374h121v125h-121v373h121v125h-121v374h121v125h-121v373h121v125h120v-125h121v125h120v-125h121v125h121v-125h120v125h121v-125h121v125h120
v-125h121v125h120v-249h-120v-125h120zM121 1615v-125h120v125h-120zM362 1615v-125h120v125h-120zM603 1615v-125h121v125h-121zM844 1615v-125h121v125h-121zM1086 1615v-125h120v125h-120zM1327 1366h-121v-125h121v125zM1086 1366h-121v-125h121v125zM844 1366h-120
v-125h120v125zM603 1366h-121v-125h121v125zM362 1366h-121v-125h121v125zM121 1116v-124h120v124h-120zM362 1116v-124h120v124h-120zM603 1116v-124h121v124h-121zM844 1116v-124h121v124h-121zM1086 1116v-124h120v124h-120zM362 867h-121v-125h121v125zM482 867v-125
h121v125h-121zM724 867v-125h120v125h-120zM965 867v-125h121v125h-121zM1206 867v-125h121v125h-121zM121 618v-125h120v125h-120zM603 618v-125h121v125h-121zM482 493v125h-120v-125h120zM844 618v-125h121v125h-121zM1086 618v-125h120v125h-120zM1327 244v125h-121
v-125h121zM1086 244v125h-121v-125h121zM844 244v125h-120v-125h120zM603 244v125h-121v-125h121zM362 244v125h-121v-125h121zM121 119v-124h120v124h-120zM362 119v-124h120v124h-120zM603 119v-124h121v124h-121zM844 119v-124h121v124h-121zM1086 119v-124h120v124h-120
zM1327 -255v125h-121v-125h121zM1086 -255v125h-121v-125h121zM844 -255v125h-120v-125h120zM603 -255v125h-121v-125h121zM362 -255v125h-121v-125h121zM121 -379v-125h120v125h-120zM362 -379v-125h120v125h-120zM603 -379v-125h121v125h-121zM844 -379v-125h121v125h-121
zM1086 -379v-125h120v125h-120z" />
    <glyph glyph-name="filledbox" unicode="&#x25a0;" horiz-adv-x="1237" 
d="M146 944h944v-944h-944v944z" />
    <glyph glyph-name="H22073" unicode="&#x25a1;" horiz-adv-x="1237" 
d="M146 944h944v-944h-944v944zM222 868v-792h792v792h-792z" />
    <glyph glyph-name="H18543" unicode="&#x25aa;" horiz-adv-x="726" 
d="M594 909v-464h-463v463z" />
    <glyph glyph-name="H18551" unicode="&#x25ab;" horiz-adv-x="726" 
d="M594 909v-464h-463v463zM518 833l-311 -1v-311h311v312z" />
    <glyph glyph-name="filledrect" unicode="&#x25ac;" horiz-adv-x="2048" 
d="M340 386h1368v-386h-1368v386z" />
    <glyph glyph-name="triagup" unicode="&#x25b2;" horiz-adv-x="2027" 
d="M304 0l710 1419l710 -1419h-1420z" />
    <glyph glyph-name="triagrt" unicode="&#x25ba;" horiz-adv-x="2027" 
d="M288 1417l1451 -724l-1451 -724v1448z" />
    <glyph glyph-name="triagdn" unicode="&#x25bc;" horiz-adv-x="2027" 
d="M1724 1388l-710 -1419l-710 1419h1420z" />
    <glyph glyph-name="triaglf" unicode="&#x25c4;" horiz-adv-x="2027" 
d="M1739 1417v-1448l-1451 724z" />
    <glyph glyph-name="circle" unicode="&#x25cb;" horiz-adv-x="1237" 
d="M619 1018q110 0 216 -57t165 -163t59 -220q0 -183 -129 -312t-311 -129q-183 0 -312 129t-129 312q0 115 59 220.5t165 162.5t217 57zM619 942q-93 0 -180 -47t-136 -135t-49 -182q0 -151 107 -258t258 -107t257.5 107t106.5 258q0 94 -49 182t-136 135t-179 47z" />
    <glyph glyph-name="H18533" unicode="&#x25cf;" horiz-adv-x="1237" 
d="M619 1018q110 0 216 -57t165 -163t59 -220q0 -183 -129 -312t-311 -129q-183 0 -312 129t-129 312q0 115 59 220.5t165 162.5t217 57z" />
    <glyph glyph-name="invbullet" unicode="&#x25d8;" horiz-adv-x="1237" 
d="M128 0v980h980v-980h-980zM618 692q-84 0 -143 -59t-59 -143q0 -83 59.5 -142.5t142.5 -59.5q84 0 143 59.5t59 142.5q0 84 -59 143t-143 59z" />
    <glyph glyph-name="invcircle" unicode="&#x25d9;" horiz-adv-x="1237" 
d="M42 0v1155h1155v-1155h-1155zM619 1018q-111 0 -216.5 -57t-164.5 -163t-59 -221q0 -182 129 -311t311 -129q183 0 312 129t129 311q0 115 -59 221t-164.5 163t-217.5 57zM620 942q91 0 178.5 -47t136.5 -134.5t49 -183.5q0 -151 -106.5 -257.5t-257.5 -106.5
q-152 0 -258.5 106.5t-106.5 257.5q0 96 49 183.5t136.5 134.5t179.5 47z" />
    <glyph glyph-name="openbullet" unicode="&#x25e6;" horiz-adv-x="726" 
d="M363 928q104 0 177.5 -73.5t73.5 -177.5t-73.5 -177.5t-177.5 -73.5t-177.5 73.5t-73.5 177.5t73 177.5t178 73.5zM363 852q-73 0 -124 -51.5t-51 -123.5q0 -73 51.5 -124t123.5 -51t123.5 51t51.5 124q0 72 -51 123.5t-124 51.5z" />
    <glyph glyph-name="smileface" unicode="&#x263a;" horiz-adv-x="2048" 
d="M1024 1156q160 0 313 -82.5t239 -236t86 -319.5q0 -165 -84.5 -316.5t-236.5 -236t-317 -84.5q-166 0 -317.5 84.5t-236 236t-84.5 316.5q0 166 85.5 319.5t238.5 236t314 82.5zM1024 1063q-137 0 -267.5 -70.5t-204 -201.5t-73.5 -273q0 -141 72 -270.5t202 -201.5
t271 -72t271 72t202 201.5t72 270.5q0 142 -73.5 273t-204 201.5t-267.5 70.5zM779 731q34 0 57.5 -23.5t23.5 -57.5q0 -33 -23.5 -57t-57.5 -24q-33 0 -57 24t-24 57q0 34 24 57.5t57 23.5zM1268 731q34 0 57.5 -23.5t23.5 -57.5q0 -33 -23.5 -57t-57.5 -24q-33 0 -57 24
t-24 57q0 34 23.5 57.5t57.5 23.5zM730 313l62 36q79 -144 232 -144t231 144l63 -36q-50 -95 -123.5 -145t-170.5 -50q-98 0 -171 50t-123 145z" />
    <glyph glyph-name="invsmileface" unicode="&#x263b;" horiz-adv-x="2048" 
d="M1024 1156q160 0 313 -82.5t239 -236t86 -319.5q0 -165 -84.5 -316.5t-236.5 -236t-317 -84.5q-166 0 -317.5 84.5t-236 236t-84.5 316.5q0 166 85.5 319.5t238.5 236t314 82.5zM779 731q-33 0 -57 -23.5t-24 -57.5q0 -33 24 -57t57 -24q34 0 57.5 24t23.5 57
q0 34 -23.5 57.5t-57.5 23.5zM1268 731q-34 0 -57.5 -23.5t-23.5 -57.5q0 -33 24 -57t57 -24q34 0 57.5 24t23.5 57q0 34 -23.5 57.5t-57.5 23.5zM730 313q50 -95 123 -145t171 -50q97 0 170.5 50t123.5 145l-63 36q-78 -144 -231 -144t-232 144z" />
    <glyph glyph-name="sun" unicode="&#x263c;" horiz-adv-x="1877" 
d="M902 1621h76v-337q102 -7 181.5 -38.5t167.5 -102.5l290 284l52 -53l-286 -286q73 -95 103 -169q38 -96 41 -185h335v-69h-335q-19 -193 -143 -351l285 -291l-57 -50l-283 282q-98 -72 -171 -100.5t-180 -40.5v-337h-76v337q-112 15 -188.5 46t-156.5 92l-294 -278
l-51 51l285 286q-66 84 -100 166t-45 188h-336v69h336q9 106 42 185.5t102 163.5l-284 287l48 57l292 -282q101 70 179.5 100.5t170.5 38.5v337zM937 1211q-129 0 -252 -66t-191.5 -189.5t-68.5 -256.5t67.5 -255t189.5 -190t255 -68t255 68t190 190t68 255t-69 256.5
t-192 189.5t-252 66z" />
    <glyph glyph-name="female" unicode="&#x2640;" horiz-adv-x="1536" 
d="M796 461v-402h459v-59h-459v-439h-59v439h-460v59h460v402q-103 0 -225.5 65.5t-195 191t-72.5 265.5q0 136 69.5 261t193.5 194t261 69q136 0 260.5 -69.5t193.5 -194t69 -260.5q0 -209 -143.5 -360.5t-351.5 -161.5zM767 1451q-118 0 -230.5 -60.5t-175.5 -173.5
t-63 -235q0 -195 137.5 -332.5t331.5 -137.5q195 0 332.5 137.5t137.5 332.5q0 122 -63 235t-175.5 173.5t-231.5 60.5z" />
    <glyph glyph-name="male" unicode="&#x2642;" horiz-adv-x="1536" 
d="M1216 1620l36 -16l163 -666l-57 -15l-142 581l-358 -768q148 -75 224 -202t76 -272q0 -136 -69 -260.5t-193.5 -194t-261.5 -69.5q-136 0 -260.5 69.5t-193.5 194t-69 260.5q0 217 153.5 370t372.5 153q78 0 166 -27l360 771l-537 -265l-24 53zM634 731
q-118 0 -230.5 -60.5t-175.5 -173.5t-63 -235q0 -195 137.5 -332.5t331.5 -137.5q195 0 332.5 137.5t137.5 332.5q0 122 -63 235t-175.5 173.5t-231.5 60.5z" />
    <glyph glyph-name="spade" unicode="&#x2660;" horiz-adv-x="1344" 
d="M673 1231q26 -108 80 -193t192.5 -210.5t175.5 -193t37 -136.5q0 -95 -64 -159t-154 -64q-82 0 -154 57q-54 42 -101 133q1 -147 38.5 -233.5t119.5 -136t219 -58.5l7 -37h-792l7 37q184 0 285.5 107.5t97.5 320.5q-45 -95 -111.5 -142.5t-149.5 -47.5q-90 0 -155 65
t-65 154q0 74 32 133q45 83 146.5 166t149.5 137q74 83 107.5 148t51.5 153z" />
    <glyph glyph-name="club" unicode="&#x2663;" horiz-adv-x="1344" 
d="M1098 0h-848l8 34q165 35 219 69q81 51 132.5 151t51.5 210q0 16 -1 47q-61 -124 -148.5 -181t-178.5 -57q-116 0 -197 81t-81 199q0 116 74 195.5t165 81.5q63 -2 166 -53q-42 69 -54.5 105t-12.5 77q0 115 79 193.5t198 78.5q117 0 197.5 -78.5t80.5 -189.5
q0 -88 -69 -186q84 40 101 45q27 8 61 8q100 0 173.5 -78.5t73.5 -194.5q0 -120 -80.5 -201.5t-196.5 -82.5q-77 4 -134.5 33t-107.5 80q-35 37 -87 125q4 -159 48.5 -251.5t136.5 -153.5q62 -41 223 -72z" />
    <glyph glyph-name="heart" unicode="&#x2665;" horiz-adv-x="1344" 
d="M674 -24q-31 118 -88.5 221.5t-222.5 321.5q-121 160 -149 203q-46 70 -66.5 128.5t-20.5 118.5q0 111 74 186t180 76q113 -1 194 -79q61 -58 99 -173q32 112 92 171q83 81 191 81q109 0 184.5 -74t75.5 -176q0 -91 -43.5 -188t-170.5 -257q-164 -207 -239 -340
q-59 -105 -90 -220z" />
    <glyph glyph-name="diamond" unicode="&#x2666;" horiz-adv-x="1344" 
d="M671 1234q88 -154 218 -327q150 -200 242 -303q-74 -78 -242 -302q-136 -182 -218 -326q-27 52 -74 121q-81 120 -201 279q-26 35 -183 228q101 115 260 328q118 158 198 302z" />
    <glyph glyph-name="musicalnote" unicode="&#x266a;" horiz-adv-x="1024" 
d="M486 1363h38q172 0 227 -14q79 -20 139 -77q45 -42 71 -118.5t26 -178.5v-103h-99v43q0 68 -28.5 115.5t-84.5 72.5q-73 32 -162 32h-28v-835q0 -121 -32 -188.5t-110 -108t-170 -40.5q-109 0 -172.5 61.5t-63.5 161.5q0 105 76 176.5t199 71.5q78 0 174 -46v975z" />
    <glyph glyph-name="musicalnotedbl" unicode="&#x266b;" horiz-adv-x="1536" 
d="M534 1271l796 248v-1108q0 -124 -31.5 -187t-107 -104t-170.5 -41q-109 0 -174 62.5t-65 161.5q0 100 77 172.5t199 72.5q40 0 70.5 -7t99.5 -36v724l-595 -185v-836q0 -121 -32 -188.5t-110 -107.5t-170 -40q-109 0 -172.5 61.5t-63.5 160.5q0 105 76 176.5t199 71.5
q78 0 174 -46v975z" />
    <glyph glyph-name="fi1" unicode="&#xf001;" horiz-adv-x="981" 
d="M612 920l-22 -154h-195l-172 -1153h-170l170 1153h-135l23 154h133q33 258 132.5 376.5t285.5 118.5q131 0 213.5 -71t82.5 -189h-165q-24 111 -138 111q-109 0 -159.5 -70t-79.5 -276h196zM930 920l-135 -920h-174l135 920h174z" />
    <glyph glyph-name="fl1" unicode="&#xf002;" horiz-adv-x="981" 
d="M618 920l-28 -154h-193l-174 -1153h-170l170 1153h-133l23 154h131q33 254 128 374.5t277 120.5q58 0 101 -18l-21 -142q-35 11 -78 11q-203 0 -233 -346h200zM999 1397l-206 -1397h-175l207 1397h174z" />
    <glyph glyph-name="commaaccent" unicode="&#xf004;" horiz-adv-x="683" 
d="M78 -483q135 44 135 176q-81 34 -81 108q0 53 37.5 87t87.5 34q60 0 97 -46t37 -116q0 -109 -83.5 -203.5t-242.5 -130.5z" />
    <glyph glyph-name="undercommaaccent" unicode="&#xf005;" horiz-adv-x="683" 
d="M207 -78q146 -12 191.5 -50.5t45.5 -100.5q0 -80 -59 -132.5t-162 -52.5q-70 0 -135 14l24 95q54 -14 91 -14q49 0 71 22t22 47q0 52 -89 70v102z" />
    <glyph glyph-name="glyph660" horiz-adv-x="938" 
d="M899 1360l-27 -191q-112 74 -245 74q-112 0 -179 -58t-67 -153q0 -47 32 -99t187 -176.5t204.5 -218.5t49.5 -188q0 -150 -113 -259t-301 -109q-167 0 -338 100l29 205q191 -133 328 -133q74 0 140.5 48.5t66.5 131.5q0 53 -33.5 110t-189 184t-203 220.5t-47.5 185.5
q0 162 134 271.5t316 109.5q127 0 256 -55zM263 -483q135 44 135 176q-81 34 -81 108q0 53 37.5 87t87.5 34q60 0 97 -46t37 -116q0 -109 -83.5 -203.5t-242.5 -130.5z" />
    <glyph glyph-name="glyph661" horiz-adv-x="725" 
d="M662 852v-182q-159 121 -277 121q-53 0 -89 -28.5t-36 -68.5q0 -26 22.5 -55.5t142 -109.5t161 -147t41.5 -136q0 -121 -80.5 -198t-204.5 -77q-153 0 -319 121l30 168q172 -137 283 -137q52 0 85.5 29t33.5 73q0 33 -24.5 67.5t-142.5 116.5t-156 146t-38 129
q0 119 79 191.5t210 72.5q138 0 279 -96zM123 -483q135 44 135 176q-81 34 -81 108q0 53 37.5 87t87.5 34q60 0 97 -46t37 -116q0 -109 -83.5 -203.5t-242.5 -130.5z" />
    <glyph glyph-name="currency" unicode="&#xa4;" horiz-adv-x="1130" 
d="M948 463l137 -137l-116 -117l-138 137q-106 -72 -235 -72t-236 72l-137 -137l-117 117l138 137q-72 105 -72 235q0 126 72 236l-138 137l117 117l137 -137q105 71 236 71q126 0 235 -71l138 137l116 -117l-137 -137q72 -103 72 -236q0 -129 -72 -235zM856 698
q0 107 -76.5 183.5t-183.5 76.5t-183.5 -76.5t-76.5 -183.5t76.5 -183.5t183.5 -76.5t183.5 76.5t76.5 183.5z" />
    <glyph glyph-name="uni0492" unicode="&#x492;" horiz-adv-x="930" 
d="M1014 1397l-23 -166h-559l-63 -443h249l-22 -165h-252l-88 -623h-184l90 623h-137l22 165h139l88 609h740z" />
    <glyph glyph-name="uni0493" unicode="&#x493;" horiz-adv-x="655" 
d="M731 920l-24 -152h-365l-33 -236h207l-22 -151h-205l-53 -381h-175l54 381h-113l23 151h110l55 388h541z" />
    <glyph glyph-name="uni049A" unicode="&#x49a;" horiz-adv-x="1272" 
d="M1276 1403l-33 -166q-123 0 -178 -50.5t-129 -197.5q-99 -201 -254 -254q67 -34 134.5 -116.5t135.5 -211.5l121 -233h129l-57 -422h-182l32 248h-53l-168 360q-49 106 -105 176t-119 105t-134 35h-58l-94 -676h-192l194 1397h195l-80 -568h57q91 0 145.5 16.5t109.5 76
t106 155.5q97 180 196.5 253t249.5 73h31z" />
    <glyph glyph-name="uni049B" unicode="&#x49b;" horiz-adv-x="934" 
d="M907 926l-156 -226q-62 -91 -95 -127t-66 -61.5t-66 -40.5q29 -18 68 -59t62.5 -77.5t90.5 -180.5h103l-45 -355h-162l27 201h-41q-93 212 -126 273t-80 103t-95 42h-33l-57 -418h-175l127 926h181l-60 -385h43q49 0 99 37.5t101 111.5l161 236h194z" />
    <glyph glyph-name="uni04A2" unicode="&#x4a2;" horiz-adv-x="1489" 
d="M1444 174l-60 -422h-182l33 248h-217l88 618h-756l-86 -618h-192l196 1397h191l-84 -604h755l84 604h193l-172 -1223h209zM1430 0z" />
    <glyph glyph-name="uni04A3" unicode="&#x4a3;" horiz-adv-x="989" 
d="M956 154l-45 -355h-159l24 201h-166l58 408h-375l-57 -408h-175l129 920h175l-50 -359h373l51 359h174l-106 -766h149zM948 0z" />
    <glyph glyph-name="uni04AE" unicode="&#x4ae;" horiz-adv-x="1004" 
d="M1141 1397l-490 -701l-98 -696h-184l98 696l-328 701h195l237 -512l357 512h213z" />
    <glyph glyph-name="uni04AF" unicode="&#x4af;" horiz-adv-x="768" 
d="M842 920l-432 -920l-68 -471h-172l66 471l-162 920h172l108 -662l312 662h176z" />
    <glyph glyph-name="uni04B0" unicode="&#x4b0;" horiz-adv-x="1004" 
d="M1141 1397l-490 -701l-4 -32h371l-23 -166h-372l-70 -498h-184l69 498h-370l22 166h373l4 32l-328 701h195l237 -512l357 512h213z" />
    <glyph glyph-name="uni04B1" unicode="&#x4b1;" horiz-adv-x="768" 
d="M842 920l-432 -920h274l-22 -152h-273l-47 -319h-172l45 319h-260l20 152h261l-162 920h172l108 -662l312 662h176z" />
    <glyph glyph-name="uni04BA" unicode="&#x4ba;" horiz-adv-x="1180" 
d="M391 901h125q293 0 424 -92.5t131 -302.5q0 -79 -9 -145l-48 -361h-191q58 440 58 500q0 109 -76 168t-201 59h-237l-103 -727h-192l196 1397h193z" />
    <glyph glyph-name="uni04BB" unicode="&#x4bb;" 
d="M414 1397l-88 -625l4 -4q155 180 319 180q101 0 157.5 -68.5t56.5 -184.5q0 -33 -5 -68l-88 -627h-174l88 637q3 24 3 45q0 135 -107 135q-78 0 -177 -100.5t-102 -118.5l-84 -598h-174l197 1397h174z" />
    <glyph glyph-name="uni04C0" unicode="&#x4c0;" horiz-adv-x="492" 
d="M469 1397l-197 -1397h-192l196 1397h193z" />
    <glyph glyph-name="uni04D8" unicode="&#x4d8;" horiz-adv-x="1253" 
d="M199 1292q208 123 442 123q260 0 404.5 -154.5t144.5 -426.5q0 -341 -178 -596.5t-449 -255.5q-211 0 -335 149.5t-124 423.5q0 69 17 182h870q6 21 6 90q0 198 -95.5 305t-278.5 107q-239 0 -455 -164zM965 571h-668q0 -95 15 -177.5t79 -159t184 -76.5q137 0 241 113.5
t149 299.5z" />
    <glyph glyph-name="afii10846" unicode="&#x4d9;" horiz-adv-x="897" 
d="M156 846q139 102 307 102q175 0 280 -123t105 -321q0 -230 -127 -381.5t-309 -151.5q-146 0 -236 105t-90 280q0 66 4 93h580q4 19 4 88q0 128 -70 201t-174 73q-128 0 -299 -125zM643 322h-389q0 -107 41 -160t123 -53q71 0 136 59t89 154z" />
    <glyph glyph-name="uni04E8" unicode="&#x4e8;" horiz-adv-x="1343" 
d="M782 1415q223 0 358.5 -163t135.5 -423q0 -367 -200.5 -607t-473.5 -240q-217 0 -357.5 164.5t-140.5 424.5q0 322 190 583t488 261zM1087 862q6 109 -39 210q-39 86 -108 130.5t-160 44.5q-168 0 -286 -128.5t-172 -336.5h761zM1059 616h-764l-2 -71q0 -177 83.5 -286
t229.5 -109q155 0 277.5 132.5t175.5 333.5z" />
    <glyph glyph-name="uni04E9" unicode="&#x4e9;" horiz-adv-x="918" 
d="M514 948q153 0 247.5 -109t94.5 -292q0 -259 -129.5 -417.5t-306.5 -158.5q-162 0 -254 109t-92 303q0 177 67 308.5t163 194t210 62.5zM678 557q0 113 -44.5 183.5t-119.5 70.5q-83 0 -147.5 -80t-92.5 -188h404v14zM659 389h-407v-24q0 -107 46.5 -175.5t115.5 -68.5
q90 0 155.5 81.5t89.5 186.5z" />
    <glyph glyph-name="uni10D0" unicode="&#x10d0;" horiz-adv-x="910" 
d="M832 377q-23 -162 -149 -283q-129 -123 -286 -123q-142 0 -235 103q-90 100 -90 244q0 129 77 241l147 -78q-45 -65 -45 -147q0 -87 43 -147q46 -66 123 -66q95 0 169 96q70 90 70 188q0 77 -72 164q-67 76 -134 151q-73 94 -73 189q0 19 3 39h178q-8 -60 62 -140
t139 -158q77 -106 77 -220q0 -26 -4 -53z" />
    <glyph glyph-name="uni10D1" unicode="&#x10d1;" horiz-adv-x="918" 
d="M856 547q0 -221 -105 -385q-122 -191 -331 -191q-174 0 -265 123q-81 109 -81 289q0 241 127 403q103 132 246 156q1 69 -52 108q-91 67 -101 79q-54 67 -54 203q0 34 3 73l1 12h182l-1 -12q-3 -36 -3 -65q0 -75 24 -110q13 -19 60 -49q50 -33 82 -74q51 -67 40 -176
q79 -26 135 -92q93 -109 93 -292zM678 557q0 96 -34 165q-43 89 -130 89q-128 0 -203 -168q-59 -133 -59 -278q0 -89 36 -158q45 -86 126 -86q133 0 207 161q57 125 57 275z" />
    <glyph glyph-name="uni10D2" unicode="&#x10d2;" horiz-adv-x="918" 
d="M779 765q0 -163 -210 -287q64 -28 109 -81q93 -109 93 -292q0 -221 -105 -385q-122 -191 -331 -191q-174 0 -265 123q-81 109 -81 289q0 241 127 403q11 15 55 60q58 61 202 124.5t193 110.5q41 40 41 77q0 75 -101 75q-118 0 -311 -121l51 182q168 96 306 96
q97 0 157 -42q70 -48 70 -141zM593 115q0 96 -34 165q-44 89 -130 89q-128 0 -203 -168q-59 -133 -59 -278q0 -89 36 -158q45 -86 126 -86q133 0 207 161q57 125 57 275z" />
    <glyph glyph-name="uni10D3" unicode="&#x10d3;" horiz-adv-x="1512" 
d="M1390 547q0 -221 -105 -385q-122 -191 -331 -191q-174 0 -265 123q-81 109 -81 289q0 160 57 287q-11 39 -32 72q-45 69 -119 69q-128 0 -203 -168q-59 -133 -59 -278q0 -244 206 -363q77 -45 430 -150q277 -83 373 -209q39 -51 40 -114h-176q0 23 -32 50
q-196 167 -560 167q-184 0 -370 -43l-31 133q57 14 260 42h3q-321 164 -321 505q0 216 109 379q125 186 331 186q167 0 257 -120q116 120 277 120q166 0 259 -120q83 -109 83 -281zM1212 557q0 96 -34 165q-43 89 -130 89q-128 0 -203 -168q-59 -133 -59 -278q0 -89 36 -158
q45 -86 126 -86q133 0 207 161q57 125 57 275z" />
    <glyph glyph-name="uni10D4" unicode="&#x10d4;" horiz-adv-x="773" 
d="M679 453l-57 -429q-35 -260 -132 -376q-100 -119 -286 -119q-126 0 -208 66q-88 71 -88 194h165q24 -111 138 -111q130 0 186 114q31 64 53 232l59 447q21 159 9 216q-24 112 -153 112q-114 0 -169 -111h-165q34 120 140 192q100 68 229 68q186 0 252 -118
q40 -72 40 -203q0 -75 -13 -174z" />
    <glyph glyph-name="uni10D5" unicode="&#x10d5;" horiz-adv-x="773" 
d="M688 543q0 -87 -71 -157q-64 -62 -154 -85q166 -47 166 -207q0 -18 -7 -70q-35 -260 -132 -376q-100 -119 -286 -119q-126 0 -208 66q-88 71 -88 194h165q24 -111 138 -111q130 0 186 114q31 64 53 232l11 81q0 78 -91 104q-50 14 -158 14h-57l20 142h84q120 0 190 48
q64 44 67 113q15 143 -11 203q-31 70 -140 70q-114 0 -169 -111h-165q34 120 140 192q100 68 229 68q186 0 252 -118q40 -72 40 -197q0 -41 -4 -90z" />
    <glyph glyph-name="uni10D6" unicode="&#x10d6;" horiz-adv-x="1283" 
d="M1283 528q0 -243 -154 -400t-429 -157q-106 0 -167 77q-55 70 -55 179q0 34 5 71l61 450q-80 -41 -168 -41q-134 0 -223 88t-89 218q0 24 3 48q21 146 141 250t267 104q131 0 212.5 -85.5t81.5 -215.5q0 -26 -4 -53l-29 -215q100 102 224 102q158 0 247 -136
q76 -117 76 -284zM586 1106q0 165 -133 165q-89 0 -148 -81q-55 -74 -55 -166q0 -73 38 -121q41 -52 110 -52q89 0 143 86q45 74 45 169zM1105 532q0 111 -43 181q-52 84 -156 84q-58 0 -118 -30q-70 -36 -77 -87l-54 -371q-4 -27 -4 -56q0 -138 104 -138q145 0 246.5 113.5
t101.5 303.5z" />
    <glyph glyph-name="uni10D7" unicode="&#x10d7;" horiz-adv-x="1511" 
d="M1449 547q0 -189 -80 -347q-94 -183 -259 -229l-19 160q91 51 140 189q40 113 40 237q0 96 -34 165q-43 89 -130 89q-107 0 -184 -132q-60 -102 -70 -213q-17 -197 -123 -333q-126 -162 -310 -162q-174 0 -265 123q-81 109 -81 289q0 216 109 379q125 186 331 186
q156 0 249 -109q16 -19 34 -49q126 158 310 158q166 0 259 -120q83 -109 83 -281zM678 557q0 96 -34 165q-43 89 -130 89q-128 0 -203 -168q-59 -133 -59 -278q0 -89 36 -158q45 -86 126 -86q133 0 207 161q57 125 57 275z" />
    <glyph glyph-name="uni10D8" unicode="&#x10d8;" horiz-adv-x="918" 
d="M856 547q0 -189 -80 -347q-94 -183 -259 -229l-19 160q91 51 140 189q40 113 40 237q0 96 -34 165q-43 89 -130 89q-128 0 -203 -168q-59 -133 -59 -278q0 -64 22 -131q25 -77 66 -113l-65 -150q-101 48 -155 175q-46 109 -46 237q0 216 109 379q125 186 331 186
q166 0 259 -120q83 -109 83 -281z" />
    <glyph glyph-name="uni10D9" unicode="&#x10d9;" horiz-adv-x="744" 
d="M659 543q0 -87 -72 -157q-63 -62 -153 -85q166 -47 166 -207q0 -18 -7 -70q-35 -260 -132 -376q-100 -119 -286 -119q-126 0 -208 66q-88 71 -88 194h165q24 -111 138 -111q130 0 185 114q31 64 54 232l11 81q0 78 -91 104q-50 14 -158 14h-57l20 142h84q120 0 190 48
q63 44 67 113q15 143 -11 203q-31 70 -140 70l35 149q186 0 252 -118q40 -72 40 -197q0 -41 -4 -90z" />
    <glyph glyph-name="uni10DA" unicode="&#x10da;" horiz-adv-x="2105" 
d="M2042 547q0 -189 -80 -347q-94 -183 -259 -229l-19 160q91 51 140 189q40 113 40 237q0 96 -34 165q-43 89 -130 89q-107 0 -184 -132q-55 -94 -71 -208q-1 -9 -4 -28h-178q2 22 6 63q2 17 2 51q0 96 -34 165q-43 89 -130 89q-107 0 -184 -132q-55 -94 -71 -208
q-1 -9 -4 -28h-178q2 22 6 63q2 17 2 51q0 96 -34 165q-43 89 -130 89q-128 0 -203 -168q-59 -133 -59 -278q0 -219 244 -339q71 -35 502 -162q314 -93 412 -221q41 -53 41 -108v-6h-176q0 23 -32 50q-105 89 -280 133q-147 37 -324 37q-233 0 -435 -59l-31 133
q79 14 295 46q-394 177 -394 514q0 216 109 379q125 186 331 186q156 0 249 -109q16 -19 34 -49q126 158 310 158q156 0 249 -109q16 -19 34 -49q126 158 310 158q166 0 259 -120q83 -109 83 -281z" />
    <glyph glyph-name="uni10DB" unicode="&#x10db;" 
d="M911 920l-94 -671q-39 -278 -320 -278q-192 0 -307 101q-127 112 -127 325q0 239 186 399q178 152 420 152h73q21 189 -5 248q-31 70 -140 70q-114 0 -169 -111h-165q34 120 140 192q100 68 229 68q159 0 230 -85q63 -77 63 -236q0 -77 -14 -174zM721 803h-45
q-182 0 -305 -109q-129 -114 -129 -293q0 -286 255 -286q132 0 152 151z" />
    <glyph glyph-name="uni10DC" unicode="&#x10dc;" 
d="M1001 1399l-24 -174h-398q-167 0 -213 -311l-10 -68q147 102 224 102q159 0 247 -136q76 -116 76 -284q0 -243 -154 -400t-429 -157q-105 0 -166 77q-56 71 -56 179q0 33 3 55l89 656q26 188 109 309q105 152 280 152h422zM725 532q0 111 -43 181q-52 84 -156 84
q-60 0 -124 -34q-53 -28 -67 -66l-61 -423q-1 -7 -1 -21q0 -138 104 -138q146 0 247 112.5t101 304.5z" />
    <glyph glyph-name="uni10DD" unicode="&#x10dd;" horiz-adv-x="1512" 
d="M1449 547q0 -189 -80 -347q-94 -183 -259 -229l-19 160q91 51 140 189q40 113 40 237q0 96 -34 165q-43 89 -130 89q-107 0 -184 -132q-55 -94 -71 -208q-1 -9 -4 -28h-178q2 22 6 63q2 17 2 51q0 96 -34 165q-43 89 -130 89q-128 0 -203 -168q-59 -133 -59 -278
q0 -64 22 -131q25 -77 66 -113l-65 -150q-101 48 -155 175q-46 109 -46 237q0 216 109 379q125 186 331 186q156 0 249 -109q16 -19 34 -49q126 158 310 158q166 0 259 -120q83 -109 83 -281z" />
    <glyph glyph-name="uni10DE" unicode="&#x10de;" horiz-adv-x="798" 
d="M780 1027q0 -3 -2 -42q-5 -90 -72 -157q-61 -61 -153 -85q166 -47 166 -207q0 -19 -7 -70q-32 -231 -109 -344q-102 -151 -309 -151q-127 0 -208 66q-88 71 -88 194h165q23 -111 138 -111q108 0 159 69.5t80 276.5l11 81q0 88 -120 110q-40 8 -186 8l20 142q161 0 226 23
q117 41 117 170q0 141 -118.5 141t-201.5 59q-93 66 -93 177q0 21 2 38h172q-1 -7 -1 -18q0 -58 48 -89q41 -26 102 -26q262 0 262 -255z" />
    <glyph glyph-name="uni10DF" unicode="&#x10df;" horiz-adv-x="988" 
d="M960 948l-123 -924q-35 -260 -132 -376q-100 -119 -286 -119q-126 0 -208 66q-88 71 -88 194h165q24 -111 138 -111q130 0 186 114q31 64 53 232l105 788h-173l15 -124q3 -25 3 -37q0 -121 -96.5 -214t-218.5 -93q-93 0 -164 67q-74 69 -74 168q0 55 22 109l147 -41
q-10 -24 -10 -46q0 -43 29 -71t72 -28q52 0 93 40t41 91q0 6 -1 14l-38 301h543z" />
    <glyph glyph-name="uni10E0" unicode="&#x10e0;" horiz-adv-x="1512" 
d="M1449 547q0 -189 -80 -347q-94 -183 -259 -229l-19 160q91 51 140 189q40 113 40 237q0 96 -34 165q-43 89 -130 89q-107 0 -184 -132q-55 -94 -71 -208q-1 -9 -4 -28h-178q2 22 6 63q2 17 2 51q0 96 -34 165q-43 89 -130 89q-128 0 -203 -168q-59 -133 -59 -278
q0 -64 22 -131q25 -77 66 -113l-65 -150q-101 48 -155 175q-46 109 -46 237q0 755 590 845q256 39 318 53q239 55 272 136l131 -40q1 -100 -183 -179q-134 -58 -284 -79q-308 -44 -363 -60q-141 -42 -204 -157q82 46 173 46q146 0 239 -109q16 -19 34 -49q126 158 310 158
q166 0 259 -120q83 -109 83 -281z" />
    <glyph glyph-name="uni10E1" unicode="&#x10e1;" horiz-adv-x="1019" 
d="M920 512q0 -14 -2 -28q-32 -216 -163 -350q-159 -163 -435 -163q-105 0 -166 77q-56 71 -56 179q0 34 5 71l149 1099h178l-153 -1088q-4 -28 -4 -56q0 -138 104 -138q162 0 265 119q91 105 91 236q0 53 -43.5 122.5t-43.5 130.5q0 125 97 225l150 -86q-73 -56 -73 -109
q0 -30 50 -105t50 -136z" />
    <glyph glyph-name="uni10E2" unicode="&#x10e2;" horiz-adv-x="1356" 
d="M1242 231q0 -279 -209 -490.5t-487 -211.5q-227 0 -375.5 149t-148.5 376q0 185 112 360q105 164 273 263l41 -42q-99 -105 -172 -261q-79 -169 -79 -300q0 -167 103 -280q105 -117 269 -117q206 0 354 168q144 162 144 373q0 106 -48 202.5t-133 150.5q2 -13 2 -26
q0 -86 -61 -141.5t-148 -55.5q-69 0 -114 34q-50 38 -50 105q0 96 77 157q-45 38 -45 101q0 85 61.5 144t146.5 59q69 0 116 -37q50 -40 50 -108q0 -76 -51 -130q166 -40 266 -153q106 -120 106 -289zM836 789q0 75 -93 75q-46 0 -78.5 -30t-32.5 -76q0 -68 91 -68
q113 0 113 99zM804 531q0 75 -93 75q-46 0 -78.5 -30t-32.5 -76q0 -68 90 -68q114 0 114 99z" />
    </font>
</defs>
</svg>
