<?xml version="1.0" standalone="no"?>
<!DOCTYPE svg PUBLIC "-//W3C//DTD SVG 1.1//EN" "http://www.w3.org/Graphics/SVG/1.1/DTD/svg11.dtd" >
<svg>
<metadata>
Created by FontForge 20120731 at Mon Mar 25 17:33:57 2019
 By www-data
(c)2018, Kotak Kuning Studio Co.
</metadata>
<defs>
<font id="GadreyShadowRegular" horiz-adv-x="349" >
  <font-face 
    font-family="Gadrey Shadow"
    font-weight="400"
    font-stretch="normal"
    units-per-em="1000"
    panose-1="0 0 0 0 0 0 0 0 0 0"
    ascent="800"
    descent="-200"
    x-height="568"
    cap-height="691"
    bbox="-90.7302 -136 547.062 705"
    underline-thickness="50"
    underline-position="-100"
    unicode-range="U+000A-00AD"
  />
<missing-glyph horiz-adv-x="527" 
d="M50 700h427v-700h-427v700zM78 680l185 -309l186 309h-371zM251 350l-180 300v-601zM264 329l-185 -308h370zM276 350l181 -303v605z" />
    <glyph glyph-name=".notdef" horiz-adv-x="527" 
d="M50 700h427v-700h-427v700zM78 680l185 -309l186 309h-371zM251 350l-180 300v-601zM264 329l-185 -308h370zM276 350l181 -303v605z" />
    <glyph glyph-name=".null" horiz-adv-x="0" 
 />
    <glyph glyph-name=".null" horiz-adv-x="0" 
 />
    <glyph glyph-name="nonmarkingreturn" horiz-adv-x="333" 
 />
    <glyph glyph-name="controlLF" unicode="&#xa;" horiz-adv-x="0" 
 />
    <glyph glyph-name="controlCR" unicode="&#xd;" horiz-adv-x="0" 
 />
    <glyph glyph-name="space" unicode=" " horiz-adv-x="274" 
 />
    <glyph glyph-name="exclam" unicode="!" horiz-adv-x="178" 
d="M164 92q13 -26 13 -56q0 -52 -36 -88t-87 -36h-20q-52 0 -88 36t-36 88q0 30 14 56q-4 15 -4 30l2 365v85q0 51 36.5 87.5t87.5 36.5t87 -36.5t36 -87.5v-86l-2 -365q0 -15 -3 -29zM17 486l-2 -364q0 -12 8.5 -20.5t20.5 -8.5q7 0 14 4t10.5 10.5t3.5 14.5l2 364v86
q0 12 -8 20.5t-20 8.5t-20.5 -8.5t-8.5 -20.5v-86zM54 7q12 0 20 8.5t8 20t-8 20t-20 8.5h-20q-12 0 -20.5 -8.5t-8.5 -20t8.5 -20t20.5 -8.5h20z" />
    <glyph glyph-name="ampersand" unicode="&#x26;" horiz-adv-x="409" 
d="M212 459l-58 -87l-40 81q-15 30 1 60q14 27 43 32q3 0 5.5 0.5t5.5 0.5q31 0 46 -28q16 -31 -3 -59zM88 169l59 89l59 -120l-26 -53q-15 -30 -48 -36q-31 -5 -52 16l-4 4q-32 37 12 100zM375 138l19 -38q22 -46 5.5 -94.5t-62.5 -70.5q-26 -13 -54 -13q-24 0 -45 8
q-37 -23 -80 -31l-20 -2q-9 -1 -17 -1q-86 0 -147 60q-7 6 -13 13q-10 12 -19.5 27t-20 43.5t-12 59t11 72.5t41.5 84l46 69l-30 62q-23 46 -22.5 98t24.5 98q23 46 63.5 75.5t90.5 37.5q17 3 35 3q56 0 104.5 -29.5t75.5 -79.5q27 -51 24.5 -108.5t-34.5 -105.5l-16 -23
q8 -3 16 -7q46 -22 62.5 -70.5t-5.5 -94.5zM308 58l-39 80l41 84q5 10 1.5 21.5t-14.5 16.5t-22 1.5t-16 -14.5l-22 -44l-54 110l77 114q17 27 18.5 58.5t-13.5 59.5q-10 18 -24.5 31t-33 20t-38.5 7q-10 0 -20 -2q-58 -9 -85 -62q-28 -56 -1 -111l55 -111l-77 -116
q-28 -40 -33 -76.5t3 -56.5t22 -37l7 -7q38 -37 90 -33q6 1 11 2q30 5 53.5 22.5t36.5 44.5l6 13l20 -40q5 -11 16.5 -14.5t22 1.5t14.5 16t-2 22z" />
    <glyph glyph-name="quotesingle" unicode="'" horiz-adv-x="168" 
d="M166 551q3 -20 0 -40l-14 -89q-4 -20 -14 -38t-25 -30.5t-34 -20t-40 -7.5q-9 0 -19 2q-36 6 -62 32t-32 62l-14 88q-9 53 22.5 96t83.5 52q10 2 21 2q47 0 83 -31t44 -78zM72 525q1 6 0 11q-2 14 -13.5 22t-25.5 6q-6 -1 -12 -4.5t-9.5 -9t-5.5 -12t-1 -13.5l15 -88
q2 -13 16 -16q8 -1 14 4t8 12z" />
    <glyph glyph-name="quotesingle" unicode="&#x2019;" horiz-adv-x="168" 
d="M166 551q3 -20 0 -40l-14 -89q-4 -20 -14 -38t-25 -30.5t-34 -20t-40 -7.5q-9 0 -19 2q-36 6 -62 32t-32 62l-14 88q-9 53 22.5 96t83.5 52q10 2 21 2q47 0 83 -31t44 -78zM72 525q1 6 0 11q-2 14 -13.5 22t-25.5 6q-6 -1 -12 -4.5t-9.5 -9t-5.5 -12t-1 -13.5l15 -88
q2 -13 16 -16q8 -1 14 4t8 12z" />
    <glyph glyph-name="quotesingle" unicode="&#x2018;" horiz-adv-x="168" 
d="M166 551q3 -20 0 -40l-14 -89q-4 -20 -14 -38t-25 -30.5t-34 -20t-40 -7.5q-9 0 -19 2q-36 6 -62 32t-32 62l-14 88q-9 53 22.5 96t83.5 52q10 2 21 2q47 0 83 -31t44 -78zM72 525q1 6 0 11q-2 14 -13.5 22t-25.5 6q-6 -1 -12 -4.5t-9.5 -9t-5.5 -12t-1 -13.5l15 -88
q2 -13 16 -16q8 -1 14 4t8 12z" />
    <glyph glyph-name="comma" unicode="," horiz-adv-x="175" 
d="M143 150.5q35 -40.5 31 -93.5q-2 -21 -10 -40l-34 -82q-14 -32 -42.5 -51.5t-63.5 -19.5q-23 0 -44 9q-34 15 -53 46t-17 68l7 89q2 25 13 47t28 38t40 25t47 9h10q53 -4 88 -44.5zM76 54q3 5 3 10q1 14 -8 24.5t-23 11.5t-24.5 -8t-11.5 -23l-7 -89q-1 -14 12 -19
q7 -3 14.5 0t10.5 10z" />
    <glyph glyph-name="period" unicode="." horiz-adv-x="182" 
d="M54 129q34 0 63.5 -17t47 -46.5t17.5 -64.5t-17.5 -64.5t-47 -46.5t-63.5 -17h-16q-53 0 -90.5 37.5t-37.5 90.5t37.5 90.5t90.5 37.5h16zM54 -33q13 0 23 9.5t10 23.5t-10 23.5t-23 9.5h-16q-13 0 -23 -9.5t-10 -23.5t10 -23.5t23 -9.5h16z" />
    <glyph glyph-name="zero" unicode="0" horiz-adv-x="351" 
d="M104 65l93 379l1 -318q0 -28 -19.5 -47.5t-47.5 -19.5q-14 0 -27 6zM129 548q17 0 33 -8l-98 -400l-2 341q0 28 19.5 47.5t47.5 19.5zM351 135v-17l-1 -1q-3 -88 -67 -149t-152 -61t-151.5 61t-67.5 149v1v8l-2 354q0 60 29.5 110.5t80 80t109.5 29.5q79 0 140 -51
t76 -128q3 -15 4 -30l1 -356h1zM256 126h-1h1l-2 365q0 4 -2 9q-7 45 -42 75t-81 30q-51 0 -87.5 -36.5t-36.5 -87.5l2 -355q0 -51 36.5 -87.5t88 -36.5t88 36.5t36.5 87.5z" />
    <glyph glyph-name="one" unicode="1" horiz-adv-x="201" 
d="M120 688q36 -13 58.5 -45t22.5 -71l-1 -86l-2 -461q0 -50 -36.5 -86t-87.5 -36t-87 36.5t-36 87.5l2 401q-39 33 -42.5 84t29.5 90l43 51q37 43 94 43q22 0 43 -8zM105 486v86q1 20 -18 27t-32 -8l-43 -51q-8 -9 -7 -20.5t10 -19.5q16 -14 33 -3l-2 -471q0 -8 3.5 -14.5
t10 -10t14.5 -3.5q12 0 20.5 8t8.5 20z" />
    <glyph glyph-name="two" unicode="2" horiz-adv-x="340" 
d="M220 159q50 -2 85 -37.5t35 -85.5q0 -52 -36.5 -88t-87.5 -36h-182q-32 0 -59 14.5t-44 40.5q-37 56 -11 117l96 226q-30 4 -54 21.5t-38 44t-14 56.5v47q0 60 29.5 111t80 81t109.5 30q9 0 18 -1q35 -3 66.5 -17t57 -37t41.5 -54q26 -47 27.5 -101t-21.5 -102zM216 7
q12 0 20.5 8.5t8.5 20t-8.5 20t-20.5 8.5h-139l154 365q30 59 -2 117q-30 54 -90 59q-5 1 -10 1q-51 0 -87.5 -37.5t-36.5 -89.5v-47q0 -12 8.5 -20t20 -8t20 8t8.5 20v47q0 29 19.5 49.5t47.5 20.5h6q29 -3 44 -31q18 -32 1 -64q0 -1 -1 -2l-172 -405q-6 -14 2.5 -27
t24.5 -13h182z" />
    <glyph glyph-name="three" unicode="3" horiz-adv-x="353" 
d="M327 323q15 -34 20 -71q1 -10 1 -20v-104q0 -91 -64 -155t-154.5 -64t-155 64t-64.5 155q0 51 36 87.5t88 36.5h2q-26 33 -26 76v6v1q0 9 2 17q-29 5 -52 22.5t-36.5 43.5t-13.5 56q0 90 64.5 154.5t154.5 64.5q59 0 109.5 -28t81 -76.5t32.5 -105.5v-2v-7l1 -47
q0 -56 -26 -104zM253 238q-6 55 -45 89q50 37 50 99l-1 48q0 50 -38 87t-90 37q-51 0 -87.5 -36.5t-36.5 -87.5q0 -12 8.5 -20.5t20 -8.5t20 8.5t8.5 20.5q0 27 19.5 47t47.5 20q29 0 50 -20t21 -47v0l1 -48q0 -28 -20 -47.5t-47 -19.5q-12 0 -20.5 -8.5t-8.5 -20.5v-1v-1
q0 -12 8.5 -20.5t20.5 -8.5q27 0 44.5 -23t17.5 -52v-96q0 -28 -19.5 -47.5t-47.5 -19.5t-47.5 19.5t-19.5 47.5q0 12 -8.5 20.5t-20 8.5t-20 -8.5t-8.5 -20.5q0 -51 36.5 -87.5t87.5 -36.5q34 0 62.5 16.5t45 45t16.5 62.5v104v6z" />
    <glyph glyph-name="four" unicode="4" horiz-adv-x="374" 
d="M208 202h-128l130 252zM360 229q14 -26 14 -56t-14 -57l-1 -91q0 -50 -36 -86.5t-87 -36.5q-52 1 -88 37.5t-36 87.5v23h-79q-32 0 -60 16t-45 43t-18 59.5t14 61.5l204 399q16 31 45.5 49t64.5 18q15 0 29 -4q42 -10 68.5 -43.5t26.5 -76.5v-86zM265 149q14 8 14 24
t-14 25l2 288v86q0 10 -6 18t-16 10q-22 5 -32 -15l-205 -399q-7 -14 1 -27.5t24 -13.5h175l-1 -119q0 -6 2.5 -11t6 -9t9 -6t11.5 -2q12 0 20 8t8 20z" />
    <glyph glyph-name="five" unicode="5" 
d="M300 480q48 -61 48 -138v-214q0 -91 -64 -155t-154.5 -64t-155 64t-64.5 155q0 64 53 101q-53 37 -53 101v239q0 52 36 88t88 36h181q51 0 87 -36t36 -88q0 -53 -38 -89zM253 128v214q0 51 -36 87.5t-88 36.5q-36 0 -67 -20v95h153q12 0 20 8.5t8 20t-8 20t-20 8.5h-181
q-12 0 -20.5 -8.5t-8.5 -20.5v-239q0 -12 8.5 -20t20 -8t20 8t8.5 20v12q0 27 19.5 47t47.5 20t47.5 -20t19.5 -47v-214q0 -28 -19.5 -47.5t-47.5 -19.5t-47.5 19.5t-19.5 47.5q0 12 -8.5 20.5t-20 8.5t-20 -8.5t-8.5 -20.5q0 -51 36.5 -87.5t88 -36.5t87.5 36.5t36 87.5z
" />
    <glyph glyph-name="six" unicode="6" horiz-adv-x="351" 
d="M131.5 410q27.5 0 47.5 -19.5t20 -47.5v-212q0 -28 -20 -47.5t-47.5 -19.5t-47.5 19.5t-20 47.5v1v1l-1 202q1 4 1 8q0 28 20 47.5t47.5 19.5zM334 427q17 -40 17 -84v-212q0 -90 -64.5 -154.5t-155.5 -64.5q-78 0 -139.5 51t-75.5 128q-4 15 -4 30l-2 356v17v1
q4 88 67.5 149t151.5 61q91 0 155 -64t64 -155q0 -31 -14 -59zM256 131v212q0 51 -36.5 87.5t-88.5 36.5q-37 0 -69 -21v40q0 28 19.5 47.5t47.5 19.5t47.5 -19.5t19.5 -47.5q0 -12 8.5 -20.5t20.5 -8.5t20 8.5t8 20.5q0 51 -36 87.5t-87.5 36.5t-88 -36.5t-36.5 -87.5v0
l2 -364q0 -5 2 -10q7 -45 41.5 -75t80.5 -30q52 0 88.5 36.5t36.5 87.5z" />
    <glyph glyph-name="seven" unicode="7" horiz-adv-x="350" 
d="M326 654q37 -51 17 -111l-185 -556q-13 -38 -45.5 -61t-72.5 -24q-20 0 -39 7q-48 16 -71 62t-7 94l131 393h-20q-52 0 -88 36.5t-36 87.5t36 87t88 36h191q64 0 101 -51zM253 573q4 13 -4.5 25t-23.5 12h-191q-12 0 -20.5 -8.5t-8.5 -20t8.5 -20t20.5 -8.5h152
l-173 -518q-3 -11 2 -21.5t16 -14.5q5 -1 9 -1q21 0 27 19z" />
    <glyph glyph-name="eight" unicode="8" horiz-adv-x="353" 
d="M200 484l1 -49q0 -19 -9 -35t-24.5 -25.5t-33.5 -9.5q-6 0 -12 -2q-25 3 -42.5 22.5t-17.5 46.5v52q0 28 19.5 48.5t47.5 20.5q19 0 35.5 -9.5t26 -25.5t9.5 -34zM326 330q16 -35 21 -73q1 -11 1 -21v-106q0 -91 -64 -156t-154.5 -65t-155 65t-64.5 156v106q0 52 23 98
q-23 46 -23 98v52q0 91 64.5 156t154.5 65t155 -61.5t68 -150.5v-1v-8l1 -48q0 -57 -27 -106zM253 243q-6 56 -45 91q50 38 50 101l-1 49q0 51 -38 88.5t-90 37.5q-51 0 -87.5 -37t-36.5 -89v-52q0 -60 46 -98q-46 -38 -46 -98v-106q0 -52 36.5 -89t88 -37t87.5 37t36 89
v106v7zM134 306q27 0 44.5 -24t17.5 -54v-98q0 -28 -19.5 -48.5t-47.5 -20.5t-47.5 20.5t-19.5 48.5v106q0 19 9 35t24.5 25.5t33.5 9.5h2h1.5h1.5z" />
    <glyph glyph-name="nine" unicode="9" horiz-adv-x="351" 
d="M196 486l0.5 -0.5t0.5 -1.5l1 -202q-2 -4 -2 -8q0 -27 -19.5 -47t-47.5 -20t-47.5 20t-19.5 47v212q0 28 19.5 47.5t47.5 19.5t47.5 -19.5t19.5 -47.5zM351 140v-17l-1 -1q-3 -88 -67 -149t-152 -61q-90 0 -154.5 64.5t-64.5 154.5q0 32 15 59q-17 40 -17 84v212
q0 91 64.5 155t154.5 64q79 0 140 -51t76 -128q3 -15 4 -30l1 -356h1zM255 131v0l-1 365q0 4 -2 9q-7 45 -42 75t-81 30q-33 0 -62 -16.5t-45.5 -45t-16.5 -62.5v-212q0 -51 36.5 -87.5t87.5 -36.5q38 0 69 21v-40q0 -28 -19.5 -47.5t-47 -19.5t-47.5 19.5t-20 47.5
q0 12 -8.5 20.5t-20 8.5t-20 -8.5t-8.5 -20.5q0 -51 36.5 -87.5t88 -36.5t87.5 36.5t36 87.5z" />
    <glyph glyph-name="question" unicode="?" horiz-adv-x="340" 
d="M312 592q26 -47 27.5 -101t-21.5 -102l-130 -306q9 -23 9 -47q0 -52 -36 -88t-87 -36h-21q-51 0 -87 36t-36 88q0 35 18 65q-6 35 8 69l60 140q-45 7 -75.5 41.5t-30.5 80.5v47q0 92 64.5 157t154.5 65q9 0 18 -1q52 -4 96 -33t69 -75zM74 7q11 0 19.5 8.5t8.5 20
t-8.5 20t-19.5 8.5h-21q-11 0 -19.5 -8.5t-8.5 -20t8.5 -20t19.5 -8.5h21zM231 429q30 59 -2 117q-30 54 -90 59q-5 1 -10 1q-51 0 -87.5 -37.5t-36.5 -89.5v-47q0 -12 8.5 -20t20 -8t20 8t8.5 20v47q0 29 19.5 49.5t47.5 20.5h6q29 -3 44 -31q18 -32 1 -64q0 -1 -1 -2
l-135 -319q-5 -11 -0.5 -22t15.5 -16q5 -2 11 -2q19 0 26 18z" />
    <glyph glyph-name="A" unicode="A" horiz-adv-x="350" 
d="M129 549q28 0 47.5 -20t19.5 -47v-268q-30 20 -66.5 20t-67.5 -20v268q0 27 19.5 47t47.5 20zM129.5 701q90.5 0 154.5 -64.5t64 -154.5v-458q0 -51 -36 -87.5t-87 -36.5q-59 0 -96 46q-37 -46 -95 -46q-52 0 -88 36.5t-36 87.5v458q0 90 64.5 154.5t155 64.5zM253 24
v458q0 51 -36 87.5t-87.5 36.5t-88 -36.5t-36.5 -87.5v-458q0 -12 8.5 -20.5t20 -8.5t20 8.5t8.5 20.5v85q0 28 19.5 48t47.5 20t47.5 -20t19.5 -48v-85q0 -12 8.5 -20.5t20.5 -8.5t20 8.5t8 20.5z" />
    <glyph glyph-name="A" unicode="&#xc5;" horiz-adv-x="350" 
d="M129 549q28 0 47.5 -20t19.5 -47v-268q-30 20 -66.5 20t-67.5 -20v268q0 27 19.5 47t47.5 20zM129.5 701q90.5 0 154.5 -64.5t64 -154.5v-458q0 -51 -36 -87.5t-87 -36.5q-59 0 -96 46q-37 -46 -95 -46q-52 0 -88 36.5t-36 87.5v458q0 90 64.5 154.5t155 64.5zM253 24
v458q0 51 -36 87.5t-87.5 36.5t-88 -36.5t-36.5 -87.5v-458q0 -12 8.5 -20.5t20 -8.5t20 8.5t8.5 20.5v85q0 28 19.5 48t47.5 20t47.5 -20t19.5 -48v-85q0 -12 8.5 -20.5t20.5 -8.5t20 8.5t8 20.5z" />
    <glyph glyph-name="A" unicode="&#xc4;" horiz-adv-x="350" 
d="M129 549q28 0 47.5 -20t19.5 -47v-268q-30 20 -66.5 20t-67.5 -20v268q0 27 19.5 47t47.5 20zM129.5 701q90.5 0 154.5 -64.5t64 -154.5v-458q0 -51 -36 -87.5t-87 -36.5q-59 0 -96 46q-37 -46 -95 -46q-52 0 -88 36.5t-36 87.5v458q0 90 64.5 154.5t155 64.5zM253 24
v458q0 51 -36 87.5t-87.5 36.5t-88 -36.5t-36.5 -87.5v-458q0 -12 8.5 -20.5t20 -8.5t20 8.5t8.5 20.5v85q0 28 19.5 48t47.5 20t47.5 -20t19.5 -48v-85q0 -12 8.5 -20.5t20.5 -8.5t20 8.5t8 20.5z" />
    <glyph glyph-name="A" unicode="&#xc3;" horiz-adv-x="350" 
d="M129 549q28 0 47.5 -20t19.5 -47v-268q-30 20 -66.5 20t-67.5 -20v268q0 27 19.5 47t47.5 20zM129.5 701q90.5 0 154.5 -64.5t64 -154.5v-458q0 -51 -36 -87.5t-87 -36.5q-59 0 -96 46q-37 -46 -95 -46q-52 0 -88 36.5t-36 87.5v458q0 90 64.5 154.5t155 64.5zM253 24
v458q0 51 -36 87.5t-87.5 36.5t-88 -36.5t-36.5 -87.5v-458q0 -12 8.5 -20.5t20 -8.5t20 8.5t8.5 20.5v85q0 28 19.5 48t47.5 20t47.5 -20t19.5 -48v-85q0 -12 8.5 -20.5t20.5 -8.5t20 8.5t8 20.5z" />
    <glyph glyph-name="A" unicode="&#xc2;" horiz-adv-x="350" 
d="M129 549q28 0 47.5 -20t19.5 -47v-268q-30 20 -66.5 20t-67.5 -20v268q0 27 19.5 47t47.5 20zM129.5 701q90.5 0 154.5 -64.5t64 -154.5v-458q0 -51 -36 -87.5t-87 -36.5q-59 0 -96 46q-37 -46 -95 -46q-52 0 -88 36.5t-36 87.5v458q0 90 64.5 154.5t155 64.5zM253 24
v458q0 51 -36 87.5t-87.5 36.5t-88 -36.5t-36.5 -87.5v-458q0 -12 8.5 -20.5t20 -8.5t20 8.5t8.5 20.5v85q0 28 19.5 48t47.5 20t47.5 -20t19.5 -48v-85q0 -12 8.5 -20.5t20.5 -8.5t20 8.5t8 20.5z" />
    <glyph glyph-name="A" unicode="&#xc1;" horiz-adv-x="350" 
d="M129 549q28 0 47.5 -20t19.5 -47v-268q-30 20 -66.5 20t-67.5 -20v268q0 27 19.5 47t47.5 20zM129.5 701q90.5 0 154.5 -64.5t64 -154.5v-458q0 -51 -36 -87.5t-87 -36.5q-59 0 -96 46q-37 -46 -95 -46q-52 0 -88 36.5t-36 87.5v458q0 90 64.5 154.5t155 64.5zM253 24
v458q0 51 -36 87.5t-87.5 36.5t-88 -36.5t-36.5 -87.5v-458q0 -12 8.5 -20.5t20 -8.5t20 8.5t8.5 20.5v85q0 28 19.5 48t47.5 20t47.5 -20t19.5 -48v-85q0 -12 8.5 -20.5t20.5 -8.5t20 8.5t8 20.5z" />
    <glyph glyph-name="A" unicode="&#xc0;" horiz-adv-x="350" 
d="M129 549q28 0 47.5 -20t19.5 -47v-268q-30 20 -66.5 20t-67.5 -20v268q0 27 19.5 47t47.5 20zM129.5 701q90.5 0 154.5 -64.5t64 -154.5v-458q0 -51 -36 -87.5t-87 -36.5q-59 0 -96 46q-37 -46 -95 -46q-52 0 -88 36.5t-36 87.5v458q0 90 64.5 154.5t155 64.5zM253 24
v458q0 51 -36 87.5t-87.5 36.5t-88 -36.5t-36.5 -87.5v-458q0 -12 8.5 -20.5t20 -8.5t20 8.5t8.5 20.5v85q0 28 19.5 48t47.5 20t47.5 -20t19.5 -48v-85q0 -12 8.5 -20.5t20.5 -8.5t20 8.5t8 20.5z" />
    <glyph glyph-name="B" unicode="B" horiz-adv-x="354" 
d="M134 410q-28 0 -47.5 19.5t-19.5 47.5t19.5 47.5t47.5 19.5t47.5 -19.5t19.5 -47.5t-19.5 -47.5t-47.5 -19.5zM129.5 348q27.5 0 47.5 -19.5t20 -47.5v-155q0 -28 -20 -47.5t-47.5 -19.5t-47.5 19.5t-20 47.5v155q0 28 20 47.5t47.5 19.5zM353 477q0 -54 -26 -102
q22 -45 22 -94v-155q0 -90 -64.5 -154.5t-155.5 -64.5q-28 0 -55 7q-20 -7 -40 -7q-52 0 -88 36.5t-36 87.5v546q0 51 36 87.5t88 36.5q26 0 49 -11q25 6 51 6q59 0 109.5 -29.5t80 -80t29.5 -109.5zM254 281q0 59 -46 96q50 38 50 100q0 51 -36.5 87.5t-87.5 36.5
q-40 0 -72 -23q0 8 -4 14t-10.5 10t-13.5 4q-12 0 -20.5 -8.5t-8.5 -20.5v-546q0 -12 8.5 -20.5t20.5 -8.5q21 0 27 21q31 -21 68 -21q52 0 88.5 36.5t36.5 87.5v155z" />
    <glyph glyph-name="C" unicode="C" 
d="M348 481v-85q0 -37 -20 -68q20 -30 20 -67v-135q0 -90 -64 -154.5t-154.5 -64.5t-155 64.5t-64.5 154.5v365q0 15 4 30q14 77 75 128.5t140 51.5q60 0 110.5 -29.5t79.5 -80t29 -110.5zM253 396v85q0 52 -36 88.5t-88 36.5q-46 0 -81 -30.5t-41 -75.5q-2 -5 -2 -9v-365
q0 -51 36.5 -87.5t88 -36.5t87.5 36.5t36 87.5v135q0 12 -8 20t-20 8t-20.5 -8t-8.5 -20v-135q0 -27 -19.5 -47t-47.5 -20t-47.5 20t-19.5 47v355q0 28 19.5 48t47.5 20t47.5 -20t19.5 -48v-85q0 -12 8.5 -20.5t20.5 -8.5t20 8.5t8 20.5z" />
    <glyph glyph-name="C" unicode="&#xc7;" 
d="M348 481v-85q0 -37 -20 -68q20 -30 20 -67v-135q0 -90 -64 -154.5t-154.5 -64.5t-155 64.5t-64.5 154.5v365q0 15 4 30q14 77 75 128.5t140 51.5q60 0 110.5 -29.5t79.5 -80t29 -110.5zM253 396v85q0 52 -36 88.5t-88 36.5q-46 0 -81 -30.5t-41 -75.5q-2 -5 -2 -9v-365
q0 -51 36.5 -87.5t88 -36.5t87.5 36.5t36 87.5v135q0 12 -8 20t-20 8t-20.5 -8t-8.5 -20v-135q0 -27 -19.5 -47t-47.5 -20t-47.5 20t-19.5 47v355q0 28 19.5 48t47.5 20t47.5 -20t19.5 -48v-85q0 -12 8.5 -20.5t20.5 -8.5t20 8.5t8 20.5z" />
    <glyph glyph-name="D" unicode="D" 
d="M129.5 549q27.5 0 47.5 -20t20 -48v-344q0 -28 -20 -47.5t-47.5 -19.5t-47.5 19.5t-20 47.5v344q0 28 20 48t47.5 20zM129 701q91 0 155.5 -64.5t64.5 -155.5v-344q0 -91 -64.5 -155.5t-155.5 -64.5q-19 0 -38 4q-27 -14 -57 -14q-52 0 -88 36t-36 87v547q0 34 16.5 62.5
t45 45t62.5 16.5q21 0 40 -7q27 7 55 7zM254 137v344q0 52 -36.5 88.5t-88.5 36.5q-37 0 -68 -21q-6 21 -27 21q-12 0 -20.5 -8.5t-8.5 -20.5v-547q0 -11 8.5 -19.5t20 -8.5t20 8.5t8.5 19.5v2q31 -20 67 -20q52 0 88.5 36.5t36.5 88.5z" />
    <glyph glyph-name="E" unicode="E" 
d="M348 481v-85q0 -42 -24 -75q24 -33 24 -74v-118q0 -91 -64 -155t-154.5 -64t-155 64t-64.5 155v362q0 15 4 30q14 77 75 128.5t140 51.5q60 0 110.5 -29.5t79.5 -80t29 -110.5zM253 396v85q0 52 -36 88.5t-88 36.5q-46 0 -81 -30.5t-41 -75.5q-2 -5 -2 -9v-362
q0 -51 36.5 -87.5t87.5 -36.5q34 0 62.5 16.5t45 45t16.5 62.5v118q0 12 -8 20.5t-20 8.5t-20.5 -8.5t-8.5 -20.5v-118q0 -28 -19.5 -47.5t-47.5 -19.5t-47.5 19.5t-19.5 47.5v151h86q12 0 20.5 8.5t8.5 20.5t-8.5 20t-20.5 8h-86v144q0 28 19.5 48t47.5 20t47.5 -20
t19.5 -48v-85q0 -12 8.5 -20.5t20.5 -8.5t20 8.5t8 20.5z" />
    <glyph glyph-name="E" unicode="&#xcb;" 
d="M348 481v-85q0 -42 -24 -75q24 -33 24 -74v-118q0 -91 -64 -155t-154.5 -64t-155 64t-64.5 155v362q0 15 4 30q14 77 75 128.5t140 51.5q60 0 110.5 -29.5t79.5 -80t29 -110.5zM253 396v85q0 52 -36 88.5t-88 36.5q-46 0 -81 -30.5t-41 -75.5q-2 -5 -2 -9v-362
q0 -51 36.5 -87.5t87.5 -36.5q34 0 62.5 16.5t45 45t16.5 62.5v118q0 12 -8 20.5t-20 8.5t-20.5 -8.5t-8.5 -20.5v-118q0 -28 -19.5 -47.5t-47.5 -19.5t-47.5 19.5t-19.5 47.5v151h86q12 0 20.5 8.5t8.5 20.5t-8.5 20t-20.5 8h-86v144q0 28 19.5 48t47.5 20t47.5 -20
t19.5 -48v-85q0 -12 8.5 -20.5t20.5 -8.5t20 8.5t8 20.5z" />
    <glyph glyph-name="E" unicode="&#xca;" 
d="M348 481v-85q0 -42 -24 -75q24 -33 24 -74v-118q0 -91 -64 -155t-154.5 -64t-155 64t-64.5 155v362q0 15 4 30q14 77 75 128.5t140 51.5q60 0 110.5 -29.5t79.5 -80t29 -110.5zM253 396v85q0 52 -36 88.5t-88 36.5q-46 0 -81 -30.5t-41 -75.5q-2 -5 -2 -9v-362
q0 -51 36.5 -87.5t87.5 -36.5q34 0 62.5 16.5t45 45t16.5 62.5v118q0 12 -8 20.5t-20 8.5t-20.5 -8.5t-8.5 -20.5v-118q0 -28 -19.5 -47.5t-47.5 -19.5t-47.5 19.5t-19.5 47.5v151h86q12 0 20.5 8.5t8.5 20.5t-8.5 20t-20.5 8h-86v144q0 28 19.5 48t47.5 20t47.5 -20
t19.5 -48v-85q0 -12 8.5 -20.5t20.5 -8.5t20 8.5t8 20.5z" />
    <glyph glyph-name="E" unicode="&#xc9;" 
d="M348 481v-85q0 -42 -24 -75q24 -33 24 -74v-118q0 -91 -64 -155t-154.5 -64t-155 64t-64.5 155v362q0 15 4 30q14 77 75 128.5t140 51.5q60 0 110.5 -29.5t79.5 -80t29 -110.5zM253 396v85q0 52 -36 88.5t-88 36.5q-46 0 -81 -30.5t-41 -75.5q-2 -5 -2 -9v-362
q0 -51 36.5 -87.5t87.5 -36.5q34 0 62.5 16.5t45 45t16.5 62.5v118q0 12 -8 20.5t-20 8.5t-20.5 -8.5t-8.5 -20.5v-118q0 -28 -19.5 -47.5t-47.5 -19.5t-47.5 19.5t-19.5 47.5v151h86q12 0 20.5 8.5t8.5 20.5t-8.5 20t-20.5 8h-86v144q0 28 19.5 48t47.5 20t47.5 -20
t19.5 -48v-85q0 -12 8.5 -20.5t20.5 -8.5t20 8.5t8 20.5z" />
    <glyph glyph-name="E" unicode="&#xc8;" 
d="M348 481v-85q0 -42 -24 -75q24 -33 24 -74v-118q0 -91 -64 -155t-154.5 -64t-155 64t-64.5 155v362q0 15 4 30q14 77 75 128.5t140 51.5q60 0 110.5 -29.5t79.5 -80t29 -110.5zM253 396v85q0 52 -36 88.5t-88 36.5q-46 0 -81 -30.5t-41 -75.5q-2 -5 -2 -9v-362
q0 -51 36.5 -87.5t87.5 -36.5q34 0 62.5 16.5t45 45t16.5 62.5v118q0 12 -8 20.5t-20 8.5t-20.5 -8.5t-8.5 -20.5v-118q0 -28 -19.5 -47.5t-47.5 -19.5t-47.5 19.5t-19.5 47.5v151h86q12 0 20.5 8.5t8.5 20.5t-8.5 20t-20.5 8h-86v144q0 28 19.5 48t47.5 20t47.5 -20
t19.5 -48v-85q0 -12 8.5 -20.5t20.5 -8.5t20 8.5t8 20.5z" />
    <glyph glyph-name="F" unicode="F" 
d="M129 701q91 0 155 -64.5t64 -155.5v-85q0 -45 -28.5 -79.5t-71.5 -42.5q-10 -32 -34 -55t-57 -31v-157q0 -51 -36 -87.5t-87.5 -36.5t-87.5 36.5t-36 87.5v460q0 15 4 30q14 77 75 128.5t140 51.5zM253 396v85q0 52 -36 88.5t-88 36.5q-46 0 -81 -30.5t-41 -75.5
q-2 -5 -2 -9v-460q0 -12 8.5 -20.5t20 -8.5t20 8.5t8.5 20.5v249h67q12 0 20.5 8.5t8.5 20.5t-8.5 20t-20.5 8h-67v144q0 28 19.5 48t47.5 20t47.5 -20t19.5 -48v-85q0 -12 8.5 -20.5t20.5 -8.5t20 8.5t8 20.5z" />
    <glyph glyph-name="G" unicode="G" 
d="M348 481v-85q0 -37 -20 -68q20 -30 20 -67v-135q0 -90 -64 -154.5t-154.5 -64.5t-155 64.5t-64.5 154.5v365q0 15 4 30q14 77 75 128.5t140 51.5q60 0 110.5 -29.5t79.5 -80t29 -110.5zM253 396v85q0 52 -36 88.5t-88 36.5q-46 0 -81 -30.5t-41 -75.5q-2 -5 -2 -9v-365
q0 -51 36.5 -87.5t87.5 -36.5q25 0 48 10t40 26.5t26.5 39.5t9.5 48v135q0 12 -8 20t-20 8h-85q-12 0 -20.5 -8t-8.5 -20t8.5 -20.5t20.5 -8.5h56v-106q0 -27 -19.5 -47t-47.5 -20t-47.5 20t-19.5 47v355q0 28 19.5 48t47.5 20t47.5 -20t19.5 -48v-85q0 -12 8.5 -20.5
t20.5 -8.5t20 8.5t8 20.5z" />
    <glyph glyph-name="H" unicode="H" 
d="M225 701q51 0 87.5 -36.5t36.5 -87.5v-547q0 -51 -36.5 -87t-87.5 -36q-59 0 -96 45q-37 -45 -95 -45q-52 0 -88 36t-36 87v547q0 51 36 87.5t88 36.5q58 0 95 -46q37 46 96 46zM254 30v547q0 12 -8.5 20.5t-20.5 8.5t-20 -8.5t-8 -20.5v-135q-31 20 -67.5 20t-67.5 -20
v135q0 12 -8.5 20.5t-20 8.5t-20 -8.5t-8.5 -20.5v-547q0 -11 8.5 -19.5t20 -8.5t20 8.5t8.5 19.5v307v1q0 28 20 47.5t47.5 19.5t47.5 -19.5t20 -47.5v-308q0 -11 8 -19.5t20 -8.5t20.5 8.5t8.5 19.5z" />
    <glyph glyph-name="I" unicode="I" horiz-adv-x="158" 
d="M33.5 691q51.5 0 87.5 -36.5t36 -87.5v-536q0 -51 -36 -87.5t-87.5 -36.5t-87.5 36.5t-36 87.5v536q0 51 36 87.5t87.5 36.5zM62 31v536q0 12 -8.5 20.5t-20 8.5t-20 -8.5t-8.5 -20.5v-536q0 -12 8.5 -20.5t20 -8.5t20 8.5t8.5 20.5z" />
    <glyph glyph-name="I" unicode="&#xcf;" horiz-adv-x="158" 
d="M33.5 691q51.5 0 87.5 -36.5t36 -87.5v-536q0 -51 -36 -87.5t-87.5 -36.5t-87.5 36.5t-36 87.5v536q0 51 36 87.5t87.5 36.5zM62 31v536q0 12 -8.5 20.5t-20 8.5t-20 -8.5t-8.5 -20.5v-536q0 -12 8.5 -20.5t20 -8.5t20 8.5t8.5 20.5z" />
    <glyph glyph-name="I" unicode="&#xce;" horiz-adv-x="158" 
d="M33.5 691q51.5 0 87.5 -36.5t36 -87.5v-536q0 -51 -36 -87.5t-87.5 -36.5t-87.5 36.5t-36 87.5v536q0 51 36 87.5t87.5 36.5zM62 31v536q0 12 -8.5 20.5t-20 8.5t-20 -8.5t-8.5 -20.5v-536q0 -12 8.5 -20.5t20 -8.5t20 8.5t8.5 20.5z" />
    <glyph glyph-name="I" unicode="&#xcd;" horiz-adv-x="158" 
d="M33.5 691q51.5 0 87.5 -36.5t36 -87.5v-536q0 -51 -36 -87.5t-87.5 -36.5t-87.5 36.5t-36 87.5v536q0 51 36 87.5t87.5 36.5zM62 31v536q0 12 -8.5 20.5t-20 8.5t-20 -8.5t-8.5 -20.5v-536q0 -12 8.5 -20.5t20 -8.5t20 8.5t8.5 20.5z" />
    <glyph glyph-name="I" unicode="&#xcc;" horiz-adv-x="158" 
d="M33.5 691q51.5 0 87.5 -36.5t36 -87.5v-536q0 -51 -36 -87.5t-87.5 -36.5t-87.5 36.5t-36 87.5v536q0 51 36 87.5t87.5 36.5zM62 31v536q0 12 -8.5 20.5t-20 8.5t-20 -8.5t-8.5 -20.5v-536q0 -12 8.5 -20.5t20 -8.5t20 8.5t8.5 20.5z" />
    <glyph glyph-name="J" unicode="J" 
d="M225 700q51 0 87 -36t36 -87v-451q0 -90 -64 -154.5t-154.5 -64.5t-155 64.5t-64.5 154.5q0 52 36 88t88 36q37 0 67 -20v347q0 51 36.5 87t87.5 36zM253 126v451q0 11 -8 19.5t-20 8.5t-20.5 -8.5t-8.5 -19.5v-451q0 -27 -19.5 -47t-47.5 -20t-47.5 20t-19.5 47
q0 12 -8.5 20.5t-20 8.5t-20 -8.5t-8.5 -20.5q0 -51 36.5 -87.5t88 -36.5t87.5 36.5t36 87.5z" />
    <glyph glyph-name="K" unicode="K" horiz-adv-x="363" 
d="M260 389q27 -20 47 -47t30.5 -60.5t10.5 -68.5v-182q0 -51 -36 -87.5t-87 -36.5q-59 0 -96 46q-37 -46 -95 -46q-52 0 -88 36.5t-36 87.5v536q0 51 36 87.5t88 36.5q31 0 58 -15t44 -40l3 5q37 50 100 50q40 0 73 -24q41 -31 48.5 -81.5t-22.5 -91.5zM253 31v182
q0 51 -36 87.5t-88 36.5q-13 0 -27 -3l160 216q7 10 5 21.5t-11.5 18.5t-21 5.5t-18.5 -11.5l-154 -208v191q0 12 -8.5 20.5t-20 8.5t-20 -8.5t-8.5 -20.5v-536q0 -12 8.5 -20.5t20 -8.5t20 8.5t8.5 20.5v182q0 28 19.5 47.5t47.5 19.5t47.5 -19.5t19.5 -47.5v-182
q0 -12 8.5 -20.5t20.5 -8.5t20 8.5t8 20.5z" />
    <glyph glyph-name="L" unicode="L" horiz-adv-x="310" 
d="M186 154q51 0 87.5 -36t36.5 -87t-36.5 -87.5t-87.5 -36.5h-57q-90 0 -154.5 64.5t-64.5 154.5v451q0 51 36 87t87.5 36t87.5 -36t36 -87v-423h29zM186 2q12 0 20.5 8.5t8.5 20.5t-8.5 20t-20.5 8h-57q-28 0 -47.5 20t-19.5 47v451q0 11 -8.5 19.5t-20 8.5t-20 -8.5
t-8.5 -19.5v-451q0 -51 36.5 -87.5t87.5 -36.5h57z" />
    <glyph glyph-name="M" unicode="M" horiz-adv-x="388" 
d="M387 577l1 -546q0 -51 -36.5 -87.5t-87.5 -36.5q-39 0 -70.5 22t-44.5 58q-14 -36 -45.5 -58t-69.5 -22q-52 0 -88 36.5t-36 87.5l1 546q0 46 30.5 81t75.5 41q8 1 17 1q38 0 69.5 -21.5t45.5 -56.5q1 4 3 7q2 6 5.5 11t6.5 10q3 4 7.5 8.5l8.5 8.5t9 8t10 7q4 3 10 5
q6 3 11 5l12 4q6 1 11 2l10 2h11h7h4q3 -1 6 -1q4 -1 7 -1q5 -1 9 -2l6 -2l5 -2l8 -4q6 -2 11 -5t10 -7q5 -3 9 -8q4 -3 8 -7.5t8 -9.5t7 -9q3 -6 5 -11q3 -6 5 -11t4 -12q1 -5 2 -11q1 -5 1.5 -10t0.5 -10zM264 2q12 0 20.5 8.5t8.5 20.5l-1 546v1q0 2 -0.5 3t-0.5 2.5
t-0.5 3t-1.5 3t-1.5 2.5t-1.5 2t-1.5 2t-2 2t-2.5 1.5t-2 1.5t-2 1.5t-3 0.5q0 1 -0.5 1h-1.5h-1q-1 0 -2.5 0.5t-2.5 0.5h-1v0h-1h-1h-3q-1 -1 -2.5 -1t-2.5 -0.5t-2.5 -1.5t-2.5 -1.5t-2.5 -1.5t-2.5 -1.5t-2 -2t-1.5 -2.5t-1.5 -2t-1.5 -2t-0.5 -3l-0.5 -0.5t-0.5 -1.5
l-86 -306l-88 306q-3 11 -12 16.5t-19.5 4t-17.5 -9.5t-7 -18l-1 -546q0 -8 4 -14.5t10.5 -10.5t13.5 -4h1q11 0 19.5 8.5t8.5 20.5v344l61 -209q6 -21 27.5 -21t27.5 21l57 205l1 -340q0 -12 8 -20.5t20 -8.5z" />
    <glyph glyph-name="N" unicode="N" horiz-adv-x="340" 
d="M216 700q51 0 87.5 -36t36.5 -87v-546q0 -46 -29.5 -80.5t-74.5 -41.5q-10 -2 -20 -2q-55 0 -91 40q-37 -40 -91 -40q-52 0 -88 36.5t-36 87.5l1 546q0 45 29 79.5t75 42.5q9 1 19 1q55 0 91 -40q37 40 91 40zM245 30v547q0 11 -8.5 19.5t-20.5 8.5t-20 -8.5t-8 -19.5
v-371l-127 380q-3 10 -12 15t-19 4q-7 -1 -12.5 -5t-8.5 -10t-3 -13l-1 -546q0 -12 8.5 -20.5t19.5 -8.5h1q11 0 19.5 8.5t8.5 20.5v370l127 -380q7 -19 27 -19h5q10 2 17 10t7 18z" />
    <glyph glyph-name="N" unicode="&#xd1;" horiz-adv-x="340" 
d="M216 700q51 0 87.5 -36t36.5 -87v-546q0 -46 -29.5 -80.5t-74.5 -41.5q-10 -2 -20 -2q-55 0 -91 40q-37 -40 -91 -40q-52 0 -88 36.5t-36 87.5l1 546q0 45 29 79.5t75 42.5q9 1 19 1q55 0 91 -40q37 40 91 40zM245 30v547q0 11 -8.5 19.5t-20.5 8.5t-20 -8.5t-8 -19.5
v-371l-127 380q-3 10 -12 15t-19 4q-7 -1 -12.5 -5t-8.5 -10t-3 -13l-1 -546q0 -12 8.5 -20.5t19.5 -8.5h1q11 0 19.5 8.5t8.5 20.5v370l127 -380q7 -19 27 -19h5q10 2 17 10t7 18z" />
    <glyph glyph-name="O" unicode="O" horiz-adv-x="351" 
d="M196 481l0.5 -1l0.5 -1l1 -353q0 -28 -19.5 -47.5t-47.5 -19.5q-18 0 -33.5 9t-24.5 24.5t-9 33.5v0l-2 355q0 28 19.5 47.5t47.5 19.5t47.5 -19.5t19.5 -47.5zM351 135v-17l-1 -1q-3 -88 -66.5 -149t-152 -61t-152 61t-67.5 149v1v8l-2 354q0 91 64.5 155.5t154.5 64.5
q79 0 140 -51t76 -128q3 -15 4 -30l1 -356h1zM255 126v0l-1 365q0 4 -2 9q-7 45 -42 75t-81 30q-51 0 -87.5 -36.5t-36.5 -87.5l2 -355q0 -51 36.5 -87.5t87.5 -36.5q34 0 62.5 16.5t45 45.5t16.5 62z" />
    <glyph glyph-name="O" unicode="&#xd8;" horiz-adv-x="351" 
d="M196 481l0.5 -1l0.5 -1l1 -353q0 -28 -19.5 -47.5t-47.5 -19.5q-18 0 -33.5 9t-24.5 24.5t-9 33.5v0l-2 355q0 28 19.5 47.5t47.5 19.5t47.5 -19.5t19.5 -47.5zM351 135v-17l-1 -1q-3 -88 -66.5 -149t-152 -61t-152 61t-67.5 149v1v8l-2 354q0 91 64.5 155.5t154.5 64.5
q79 0 140 -51t76 -128q3 -15 4 -30l1 -356h1zM255 126v0l-1 365q0 4 -2 9q-7 45 -42 75t-81 30q-51 0 -87.5 -36.5t-36.5 -87.5l2 -355q0 -51 36.5 -87.5t87.5 -36.5q34 0 62.5 16.5t45 45.5t16.5 62z" />
    <glyph glyph-name="O" unicode="&#xd6;" horiz-adv-x="351" 
d="M196 481l0.5 -1l0.5 -1l1 -353q0 -28 -19.5 -47.5t-47.5 -19.5q-18 0 -33.5 9t-24.5 24.5t-9 33.5v0l-2 355q0 28 19.5 47.5t47.5 19.5t47.5 -19.5t19.5 -47.5zM351 135v-17l-1 -1q-3 -88 -66.5 -149t-152 -61t-152 61t-67.5 149v1v8l-2 354q0 91 64.5 155.5t154.5 64.5
q79 0 140 -51t76 -128q3 -15 4 -30l1 -356h1zM255 126v0l-1 365q0 4 -2 9q-7 45 -42 75t-81 30q-51 0 -87.5 -36.5t-36.5 -87.5l2 -355q0 -51 36.5 -87.5t87.5 -36.5q34 0 62.5 16.5t45 45.5t16.5 62z" />
    <glyph glyph-name="O" unicode="&#xd5;" horiz-adv-x="351" 
d="M196 481l0.5 -1l0.5 -1l1 -353q0 -28 -19.5 -47.5t-47.5 -19.5q-18 0 -33.5 9t-24.5 24.5t-9 33.5v0l-2 355q0 28 19.5 47.5t47.5 19.5t47.5 -19.5t19.5 -47.5zM351 135v-17l-1 -1q-3 -88 -66.5 -149t-152 -61t-152 61t-67.5 149v1v8l-2 354q0 91 64.5 155.5t154.5 64.5
q79 0 140 -51t76 -128q3 -15 4 -30l1 -356h1zM255 126v0l-1 365q0 4 -2 9q-7 45 -42 75t-81 30q-51 0 -87.5 -36.5t-36.5 -87.5l2 -355q0 -51 36.5 -87.5t87.5 -36.5q34 0 62.5 16.5t45 45.5t16.5 62z" />
    <glyph glyph-name="O" unicode="&#xd4;" horiz-adv-x="351" 
d="M196 481l0.5 -1l0.5 -1l1 -353q0 -28 -19.5 -47.5t-47.5 -19.5q-18 0 -33.5 9t-24.5 24.5t-9 33.5v0l-2 355q0 28 19.5 47.5t47.5 19.5t47.5 -19.5t19.5 -47.5zM351 135v-17l-1 -1q-3 -88 -66.5 -149t-152 -61t-152 61t-67.5 149v1v8l-2 354q0 91 64.5 155.5t154.5 64.5
q79 0 140 -51t76 -128q3 -15 4 -30l1 -356h1zM255 126v0l-1 365q0 4 -2 9q-7 45 -42 75t-81 30q-51 0 -87.5 -36.5t-36.5 -87.5l2 -355q0 -51 36.5 -87.5t87.5 -36.5q34 0 62.5 16.5t45 45.5t16.5 62z" />
    <glyph glyph-name="O" unicode="&#xd3;" horiz-adv-x="351" 
d="M196 481l0.5 -1l0.5 -1l1 -353q0 -28 -19.5 -47.5t-47.5 -19.5q-18 0 -33.5 9t-24.5 24.5t-9 33.5v0l-2 355q0 28 19.5 47.5t47.5 19.5t47.5 -19.5t19.5 -47.5zM351 135v-17l-1 -1q-3 -88 -66.5 -149t-152 -61t-152 61t-67.5 149v1v8l-2 354q0 91 64.5 155.5t154.5 64.5
q79 0 140 -51t76 -128q3 -15 4 -30l1 -356h1zM255 126v0l-1 365q0 4 -2 9q-7 45 -42 75t-81 30q-51 0 -87.5 -36.5t-36.5 -87.5l2 -355q0 -51 36.5 -87.5t87.5 -36.5q34 0 62.5 16.5t45 45.5t16.5 62z" />
    <glyph glyph-name="O" unicode="&#xd2;" horiz-adv-x="351" 
d="M196 481l0.5 -1l0.5 -1l1 -353q0 -28 -19.5 -47.5t-47.5 -19.5q-18 0 -33.5 9t-24.5 24.5t-9 33.5v0l-2 355q0 28 19.5 47.5t47.5 19.5t47.5 -19.5t19.5 -47.5zM351 135v-17l-1 -1q-3 -88 -66.5 -149t-152 -61t-152 61t-67.5 149v1v8l-2 354q0 91 64.5 155.5t154.5 64.5
q79 0 140 -51t76 -128q3 -15 4 -30l1 -356h1zM255 126v0l-1 365q0 4 -2 9q-7 45 -42 75t-81 30q-51 0 -87.5 -36.5t-36.5 -87.5l2 -355q0 -51 36.5 -87.5t87.5 -36.5q34 0 62.5 16.5t45 45.5t16.5 62z" />
    <glyph glyph-name="P" unicode="P" horiz-adv-x="350" 
d="M131 548q27 0 47 -19.5t20 -47.5v-212q0 -27 -20 -47t-47.5 -20t-47.5 20t-20 47l2 221v3q4 24 22.5 39.5t43.5 15.5zM131 700q59 0 109.5 -29.5t80 -80t29.5 -109.5v-212q0 -83 -55.5 -145t-137.5 -72v-22q0 -51 -36.5 -87t-86.5 -36h-1q-51 0 -87 36.5t-36 87.5l2 434
q-1 8 -1 16q0 10 1 22l1 74q0 51 36 87t87 36q21 0 41 -7q26 7 54 7zM255 269v212q0 51 -36.5 87.5t-87.5 36.5q-37 0 -68 -20q-6 20 -27 20q-12 0 -20 -8.5t-8 -19.5v-80q-2 -9 -2 -16q0 -3 1 -7l-2 -443q0 -12 8.5 -20.5t19.5 -8.5h1q11 0 19.5 8.5t8.5 19.5l1 135
q31 -20 68 -20q51 0 87.5 36.5t36.5 87.5z" />
    <glyph glyph-name="Q" unicode="Q" horiz-adv-x="367" 
d="M196 481l0.5 -1l0.5 -1l1 -353v-7l-46 48q-8 9 -20 9t-20.5 -8t-8.5 -20t8 -20l56 -59q-17 -10 -36 -10q-27 0 -47 19.5t-20 47.5v0l-2 355q0 28 19.5 47.5t47.5 19.5t47.5 -19.5t19.5 -47.5zM348 96q20 -31 19 -68q-1 -51 -38 -87q-36 -34 -86 -34q-24 0 -47 10
q-32 -10 -65 -10q-88 0 -151.5 61t-67.5 149v1v8l-2 354q0 91 64.5 155.5t154.5 64.5q79 0 140 -51t76 -128q3 -15 4 -30l1 -356h1v-17l-1 -1q0 -11 -2 -21zM263 10q9 8 9 20t-8 20l-21 22q12 26 12 54v0l-1 365q0 4 -2 9q-7 45 -42 75t-81 30q-51 0 -87.5 -36.5
t-36.5 -87.5l2 -355q0 -51 36.5 -87.5t87.5 -36.5q42 0 76 26l16 -17q8 -9 20 -9t20 8z" />
    <glyph glyph-name="R" unicode="R" horiz-adv-x="352" 
d="M132 548q28 0 47.5 -19.5t19.5 -47.5v-174q0 -27 -19.5 -47t-47.5 -20t-47.5 20t-19.5 47q0 4 -1 8v164l0.5 1l0.5 1q0 28 19.5 47.5t47.5 19.5zM351 481v-174q0 -50 -22 -95q22 -46 22 -96v-85q0 -52 -36 -88t-87 -36q-60 0 -98 47q-37 -47 -96 -47q-52 0 -88 36.5
t-36 87.5l2 460l1 86q0 51 36 87t87 36q21 0 41 -7q27 7 55 7q90 0 154.5 -64t64.5 -155zM256 307v174q0 51 -36.5 87.5t-87.5 36.5q-37 0 -69 -21q-6 21 -27 21q-12 0 -20 -8.5t-8 -19.5v-86l-3 -460q0 -12 8.5 -20.5t19.5 -8.5h1q11 0 19.5 8.5t8.5 19.5l1 174
q31 -21 69 -21q28 0 47.5 -19.5t19.5 -47.5v-85q0 -12 8.5 -20.5t20 -8.5t20 8.5t8.5 20.5v85q0 58 -45 96q45 37 45 95z" />
    <glyph glyph-name="S" unicode="S" 
d="M348 436q0 -27 -11 -51t-30.5 -41.5t-44.5 -25.5l52 -97q26 -48 26 -102t-26 -102q-26 -47 -70 -76t-97 -33q-9 -1 -18 -1q-90 0 -154.5 64.5t-64.5 154.5v47q0 27 11 51.5t30.5 41.5t44.5 25l-52 96q-25 48 -25 102t26 102q25 47 69.5 76t96.5 33q9 1 18 1
q60 0 110.5 -29.5t79.5 -80t29 -109.5v-46zM253 436v46q0 51 -36 87.5t-88 36.5q-5 0 -10 -1q-19 -1 -36 -8.5t-31 -20.5t-24 -30q-31 -57 0 -114l152 -283q16 -30 0 -60q-15 -27 -45 -30h-6q-28 0 -47.5 19.5t-19.5 47.5v47q0 12 -8.5 20.5t-20 8.5t-20 -8.5t-8.5 -20.5
v-47q0 -51 36.5 -87.5t87.5 -36.5h10q29 3 53 18.5t38 41.5q31 57 0 114l-152 283q-16 29 1 60q15 27 45 30h5q28 0 47.5 -20t19.5 -47v-46q0 -11 8.5 -19.5t20.5 -8.5t20 8.5t8 19.5z" />
    <glyph glyph-name="T" unicode="T" horiz-adv-x="415" 
d="M291 701q51 0 87.5 -36.5t36.5 -87.5t-36.5 -87t-87.5 -36h-11l-3 -429q0 -50 -36 -86.5t-87 -36.5q-52 1 -88 37.5t-36 87.5l3 427q-51 0 -87 36t-36 87t36 87.5t88 36.5h257zM291 549q8 0 14.5 3.5t10 10t3.5 14.5q0 12 -8 20.5t-20 8.5h-257q-12 0 -20.5 -8.5
t-8.5 -20.5t8.5 -20t20.5 -8h94v-63l-3 -460q0 -12 8.5 -20t20 -8t20 8t8.5 20l3 460v63h106z" />
    <glyph glyph-name="U" unicode="U" 
d="M225 701q51 0 87 -36.5t36 -87.5v-546q0 -51 -36 -87.5t-87 -36.5q-21 0 -42 7q-26 -6 -54 -6q-90 0 -154.5 64t-64.5 155v450q0 51 36 87.5t88 36.5q58 0 95 -46q37 46 96 46zM253 127v450q0 12 -8 20.5t-20 8.5t-20.5 -8.5t-8.5 -20.5v-450q0 -28 -19.5 -47.5
t-47.5 -19.5t-47.5 19.5t-19.5 47.5v450q0 12 -8.5 20.5t-20 8.5t-20 -8.5t-8.5 -20.5v-450q0 -51 36.5 -87.5t87.5 -36.5q37 0 69 20q5 -21 27 -21q12 0 20 8.5t8 20.5v96z" />
    <glyph glyph-name="U" unicode="&#xdc;" 
d="M225 701q51 0 87 -36.5t36 -87.5v-546q0 -51 -36 -87.5t-87 -36.5q-21 0 -42 7q-26 -6 -54 -6q-90 0 -154.5 64t-64.5 155v450q0 51 36 87.5t88 36.5q58 0 95 -46q37 46 96 46zM253 127v450q0 12 -8 20.5t-20 8.5t-20.5 -8.5t-8.5 -20.5v-450q0 -28 -19.5 -47.5
t-47.5 -19.5t-47.5 19.5t-19.5 47.5v450q0 12 -8.5 20.5t-20 8.5t-20 -8.5t-8.5 -20.5v-450q0 -51 36.5 -87.5t87.5 -36.5q37 0 69 20q5 -21 27 -21q12 0 20 8.5t8 20.5v96z" />
    <glyph glyph-name="U" unicode="&#xdb;" 
d="M225 701q51 0 87 -36.5t36 -87.5v-546q0 -51 -36 -87.5t-87 -36.5q-21 0 -42 7q-26 -6 -54 -6q-90 0 -154.5 64t-64.5 155v450q0 51 36 87.5t88 36.5q58 0 95 -46q37 46 96 46zM253 127v450q0 12 -8 20.5t-20 8.5t-20.5 -8.5t-8.5 -20.5v-450q0 -28 -19.5 -47.5
t-47.5 -19.5t-47.5 19.5t-19.5 47.5v450q0 12 -8.5 20.5t-20 8.5t-20 -8.5t-8.5 -20.5v-450q0 -51 36.5 -87.5t87.5 -36.5q37 0 69 20q5 -21 27 -21q12 0 20 8.5t8 20.5v96z" />
    <glyph glyph-name="U" unicode="&#xda;" 
d="M225 701q51 0 87 -36.5t36 -87.5v-546q0 -51 -36 -87.5t-87 -36.5q-21 0 -42 7q-26 -6 -54 -6q-90 0 -154.5 64t-64.5 155v450q0 51 36 87.5t88 36.5q58 0 95 -46q37 46 96 46zM253 127v450q0 12 -8 20.5t-20 8.5t-20.5 -8.5t-8.5 -20.5v-450q0 -28 -19.5 -47.5
t-47.5 -19.5t-47.5 19.5t-19.5 47.5v450q0 12 -8.5 20.5t-20 8.5t-20 -8.5t-8.5 -20.5v-450q0 -51 36.5 -87.5t87.5 -36.5q37 0 69 20q5 -21 27 -21q12 0 20 8.5t8 20.5v96z" />
    <glyph glyph-name="U" unicode="&#xd9;" 
d="M225 701q51 0 87 -36.5t36 -87.5v-546q0 -51 -36 -87.5t-87 -36.5q-21 0 -42 7q-26 -6 -54 -6q-90 0 -154.5 64t-64.5 155v450q0 51 36 87.5t88 36.5q58 0 95 -46q37 46 96 46zM253 127v450q0 12 -8 20.5t-20 8.5t-20.5 -8.5t-8.5 -20.5v-450q0 -28 -19.5 -47.5
t-47.5 -19.5t-47.5 19.5t-19.5 47.5v450q0 12 -8.5 20.5t-20 8.5t-20 -8.5t-8.5 -20.5v-450q0 -51 36.5 -87.5t87.5 -36.5q37 0 69 20q5 -21 27 -21q12 0 20 8.5t8 20.5v96z" />
    <glyph glyph-name="V" unicode="V" horiz-adv-x="411" 
d="M388.5 641.5q28.5 -42.5 19.5 -92.5l-98 -519l-2 -6q-13 -53 -55.5 -87t-96.5 -34h-3q-54 1 -96.5 35.5t-54.5 88.5q0 3 -1 5l-89 519q-9 51 20.5 92.5t80.5 50.5q10 2 21 2q45 0 79.5 -29t41.5 -74l5 -26l5 28q6 29 23 52t43 36t55 13q12 0 24 -2q50 -10 78.5 -52.5z
M314 567q3 11 -4 21t-18 12q-8 2 -15 -0.5t-12 -8.5t-7 -14l-98 -518q-1 -4 -4 -4q-4 1 -5 4l-89 518q-2 12 -12 18.5t-21.5 4.5t-18.5 -11.5t-5 -21.5l90 -519v-1q3 -14 11.5 -25t21 -17t27.5 -7h1q22 0 38.5 13.5t21.5 34.5v1z" />
    <glyph glyph-name="W" unicode="W" horiz-adv-x="548" 
d="M540 582l7 -450q2 -91 -61 -156t-154 -67h-4q-49 0 -92 21q-45 -23 -96 -24h-3q-89 0 -153 62q-65 63 -66 154l-8 450q-1 51 34.5 87.5t86.5 37.5h3q57 0 94 -44q36 46 94 48h3q57 0 94 -44q36 45 94 47h3q50 0 86.5 -35.5t37.5 -86.5zM417.5 42q35.5 37 34.5 89l-7 450
q0 11 -8.5 19.5t-20.5 8.5t-20 -8.5t-8 -20.5l7 -450q1 -28 -18.5 -48t-47.5 -20.5t-48 19t-20 46.5l-8 450q0 12 -8 20.5t-20 8.5h-1q-11 -1 -19.5 -9.5t-8.5 -19.5l8 -451q0 -18 -8.5 -33.5t-24 -25t-33.5 -9.5q-28 0 -48 19t-20 47l-8 450q0 12 -8.5 20t-19.5 8h-1
q-12 0 -20 -8.5t-8 -20.5l8 -450q0 -51 37 -87q37 -35 87 -35h2q58 1 95 47q4 -5 8 -9q36 -35 86 -35h2q52 1 87.5 38z" />
    <glyph glyph-name="X" unicode="X" horiz-adv-x="359" 
d="M266 301l84 -228q18 -48 -3.5 -94.5t-69.5 -64.5q-20 -8 -42 -8q-30 0 -57 14t-44 38q-17 -24 -43.5 -38t-56.5 -14q-23 0 -43 8q-48 18 -69.5 64.5t-3.5 94.5l84 228l-84 228q-18 48 3.5 94.5t69.5 64.5q20 8 43 8q30 0 56.5 -14t43.5 -38q12 16 27.5 27.5t34.5 18
t39 6.5q22 0 43 -8q47 -18 68.5 -64.5t3.5 -94.5zM261 40l-97 261l97 261q4 11 -0.5 22t-16 15t-22 -1t-14.5 -16l-74 -199l-74 199q-4 11 -14.5 16t-21.5 1t-16 -15t-1 -22l97 -261l-97 -261q-3 -8 -1.5 -15.5t6 -13t12.5 -8.5q5 -2 10 -2q19 0 26 19l74 199l74 -199
q7 -19 27 -19q5 0 9 2q12 4 16.5 14.5t0.5 22.5z" />
    <glyph glyph-name="Y" unicode="Y" horiz-adv-x="351" 
d="M349 572l2 -451l-1 -1q-2 -88 -66 -150.5t-153 -62.5q-90 0 -154.5 64.5t-64.5 154.5q0 31 15 59q-17 40 -17 84v303q0 51 36 87.5t88 36.5q58 0 95 -46q37 45 95 45q52 0 88 -36t37 -87zM256 126h-1l-1 446q-1 12 -9 20t-20 8t-20.5 -8.5t-7.5 -19.5l1 -294q-2 -5 -2 -9
q0 -27 -19.5 -47t-47.5 -20t-47.5 20t-19.5 47v303q0 12 -8.5 20.5t-20 8.5t-20 -8.5t-8.5 -20.5v-303q0 -51 36.5 -87.5t87.5 -36.5q38 0 69 21v-40q0 -28 -19.5 -47.5t-47 -19.5t-47.5 19.5t-20 47.5q0 12 -8.5 20.5t-20 8.5t-20 -8.5t-8.5 -20.5q0 -51 36.5 -87.5
t88 -36.5t88 36.5t36.5 87.5z" />
    <glyph glyph-name="Y" unicode="&#xdd;" horiz-adv-x="351" 
d="M349 572l2 -451l-1 -1q-2 -88 -66 -150.5t-153 -62.5q-90 0 -154.5 64.5t-64.5 154.5q0 31 15 59q-17 40 -17 84v303q0 51 36 87.5t88 36.5q58 0 95 -46q37 45 95 45q52 0 88 -36t37 -87zM256 126h-1l-1 446q-1 12 -9 20t-20 8t-20.5 -8.5t-7.5 -19.5l1 -294q-2 -5 -2 -9
q0 -27 -19.5 -47t-47.5 -20t-47.5 20t-19.5 47v303q0 12 -8.5 20.5t-20 8.5t-20 -8.5t-8.5 -20.5v-303q0 -51 36.5 -87.5t87.5 -36.5q38 0 69 21v-40q0 -28 -19.5 -47.5t-47 -19.5t-47.5 19.5t-20 47.5q0 12 -8.5 20.5t-20 8.5t-20 -8.5t-8.5 -20.5q0 -51 36.5 -87.5
t88 -36.5t88 36.5t36.5 87.5z" />
    <glyph glyph-name="Z" unicode="Z" horiz-adv-x="415" 
d="M291 156q34 0 62.5 -16.5t45 -45t16.5 -61.5q0 -51 -36.5 -87.5t-87.5 -36.5h-257q-32 0 -60 15.5t-45 42.5t-19 58.5t12 60.5l174 368h-62q-51 0 -87.5 36t-36.5 87t36.5 87.5t87.5 36.5h257q32 0 59.5 -15.5t45 -42.5t19 -58.5t-11.5 -60.5l-174 -368h62zM291 4
q12 0 20.5 8.5t8.5 20.5t-8.5 20t-20.5 8h-212l238 504q7 14 -1.5 27.5t-24.5 13.5h-257q-12 0 -20.5 -8.5t-8.5 -20.5t8.5 -20t20.5 -8h212l-238 -504q-7 -14 1.5 -27.5t24.5 -13.5h257z" />
    <glyph glyph-name="a" unicode="a" horiz-adv-x="351" 
d="M129 262q28 0 47.5 -19.5t19.5 -47.5q0 -3 1 -6v-61v-1q-1 0 -1 -1q0 -28 -19.5 -47.5t-47.5 -19.5t-47.5 19.5t-19.5 47.5v69q0 28 19.5 47.5t47.5 19.5zM351 333l-1 -1l-2 -223l1 -78q0 -51 -36.5 -87.5t-87.5 -36.5q-21 0 -41 7q-27 -7 -55 -7q-90 0 -154.5 64.5
t-64.5 154.5v69q0 44 17 85q-15 27 -15 58q0 60 29.5 110.5t80 80t109.5 29.5q89 0 153 -62.5t66 -151.5l1 -1v-10zM256 338h-1q0 52 -36 88.5t-87.5 36.5t-88 -36.5t-36.5 -88.5q0 -11 8.5 -19.5t20 -8.5t20 8.5t8.5 19.5q0 28 20 48t47 20q19 0 34 -9t24 -24.5t9 -34.5
v-39q-31 20 -69 20q-51 0 -87.5 -36t-36.5 -88v-69q0 -51 36.5 -87.5t87.5 -36.5q38 0 69 21q6 -21 27 -21q12 0 20.5 8.5t8.5 20.5l-1 85h1z" />
    <glyph glyph-name="a" unicode="&#xe5;" horiz-adv-x="351" 
d="M129 262q28 0 47.5 -19.5t19.5 -47.5q0 -3 1 -6v-61v-1q-1 0 -1 -1q0 -28 -19.5 -47.5t-47.5 -19.5t-47.5 19.5t-19.5 47.5v69q0 28 19.5 47.5t47.5 19.5zM351 333l-1 -1l-2 -223l1 -78q0 -51 -36.5 -87.5t-87.5 -36.5q-21 0 -41 7q-27 -7 -55 -7q-90 0 -154.5 64.5
t-64.5 154.5v69q0 44 17 85q-15 27 -15 58q0 60 29.5 110.5t80 80t109.5 29.5q89 0 153 -62.5t66 -151.5l1 -1v-10zM256 338h-1q0 52 -36 88.5t-87.5 36.5t-88 -36.5t-36.5 -88.5q0 -11 8.5 -19.5t20 -8.5t20 8.5t8.5 19.5q0 28 20 48t47 20q19 0 34 -9t24 -24.5t9 -34.5
v-39q-31 20 -69 20q-51 0 -87.5 -36t-36.5 -88v-69q0 -51 36.5 -87.5t87.5 -36.5q38 0 69 21q6 -21 27 -21q12 0 20.5 8.5t8.5 20.5l-1 85h1z" />
    <glyph glyph-name="a" unicode="&#xe4;" horiz-adv-x="351" 
d="M129 262q28 0 47.5 -19.5t19.5 -47.5q0 -3 1 -6v-61v-1q-1 0 -1 -1q0 -28 -19.5 -47.5t-47.5 -19.5t-47.5 19.5t-19.5 47.5v69q0 28 19.5 47.5t47.5 19.5zM351 333l-1 -1l-2 -223l1 -78q0 -51 -36.5 -87.5t-87.5 -36.5q-21 0 -41 7q-27 -7 -55 -7q-90 0 -154.5 64.5
t-64.5 154.5v69q0 44 17 85q-15 27 -15 58q0 60 29.5 110.5t80 80t109.5 29.5q89 0 153 -62.5t66 -151.5l1 -1v-10zM256 338h-1q0 52 -36 88.5t-87.5 36.5t-88 -36.5t-36.5 -88.5q0 -11 8.5 -19.5t20 -8.5t20 8.5t8.5 19.5q0 28 20 48t47 20q19 0 34 -9t24 -24.5t9 -34.5
v-39q-31 20 -69 20q-51 0 -87.5 -36t-36.5 -88v-69q0 -51 36.5 -87.5t87.5 -36.5q38 0 69 21q6 -21 27 -21q12 0 20.5 8.5t8.5 20.5l-1 85h1z" />
    <glyph glyph-name="a" unicode="&#xe3;" horiz-adv-x="351" 
d="M129 262q28 0 47.5 -19.5t19.5 -47.5q0 -3 1 -6v-61v-1q-1 0 -1 -1q0 -28 -19.5 -47.5t-47.5 -19.5t-47.5 19.5t-19.5 47.5v69q0 28 19.5 47.5t47.5 19.5zM351 333l-1 -1l-2 -223l1 -78q0 -51 -36.5 -87.5t-87.5 -36.5q-21 0 -41 7q-27 -7 -55 -7q-90 0 -154.5 64.5
t-64.5 154.5v69q0 44 17 85q-15 27 -15 58q0 60 29.5 110.5t80 80t109.5 29.5q89 0 153 -62.5t66 -151.5l1 -1v-10zM256 338h-1q0 52 -36 88.5t-87.5 36.5t-88 -36.5t-36.5 -88.5q0 -11 8.5 -19.5t20 -8.5t20 8.5t8.5 19.5q0 28 20 48t47 20q19 0 34 -9t24 -24.5t9 -34.5
v-39q-31 20 -69 20q-51 0 -87.5 -36t-36.5 -88v-69q0 -51 36.5 -87.5t87.5 -36.5q38 0 69 21q6 -21 27 -21q12 0 20.5 8.5t8.5 20.5l-1 85h1z" />
    <glyph glyph-name="a" unicode="&#xe2;" horiz-adv-x="351" 
d="M129 262q28 0 47.5 -19.5t19.5 -47.5q0 -3 1 -6v-61v-1q-1 0 -1 -1q0 -28 -19.5 -47.5t-47.5 -19.5t-47.5 19.5t-19.5 47.5v69q0 28 19.5 47.5t47.5 19.5zM351 333l-1 -1l-2 -223l1 -78q0 -51 -36.5 -87.5t-87.5 -36.5q-21 0 -41 7q-27 -7 -55 -7q-90 0 -154.5 64.5
t-64.5 154.5v69q0 44 17 85q-15 27 -15 58q0 60 29.5 110.5t80 80t109.5 29.5q89 0 153 -62.5t66 -151.5l1 -1v-10zM256 338h-1q0 52 -36 88.5t-87.5 36.5t-88 -36.5t-36.5 -88.5q0 -11 8.5 -19.5t20 -8.5t20 8.5t8.5 19.5q0 28 20 48t47 20q19 0 34 -9t24 -24.5t9 -34.5
v-39q-31 20 -69 20q-51 0 -87.5 -36t-36.5 -88v-69q0 -51 36.5 -87.5t87.5 -36.5q38 0 69 21q6 -21 27 -21q12 0 20.5 8.5t8.5 20.5l-1 85h1z" />
    <glyph glyph-name="a" unicode="&#xe1;" horiz-adv-x="351" 
d="M129 262q28 0 47.5 -19.5t19.5 -47.5q0 -3 1 -6v-61v-1q-1 0 -1 -1q0 -28 -19.5 -47.5t-47.5 -19.5t-47.5 19.5t-19.5 47.5v69q0 28 19.5 47.5t47.5 19.5zM351 333l-1 -1l-2 -223l1 -78q0 -51 -36.5 -87.5t-87.5 -36.5q-21 0 -41 7q-27 -7 -55 -7q-90 0 -154.5 64.5
t-64.5 154.5v69q0 44 17 85q-15 27 -15 58q0 60 29.5 110.5t80 80t109.5 29.5q89 0 153 -62.5t66 -151.5l1 -1v-10zM256 338h-1q0 52 -36 88.5t-87.5 36.5t-88 -36.5t-36.5 -88.5q0 -11 8.5 -19.5t20 -8.5t20 8.5t8.5 19.5q0 28 20 48t47 20q19 0 34 -9t24 -24.5t9 -34.5
v-39q-31 20 -69 20q-51 0 -87.5 -36t-36.5 -88v-69q0 -51 36.5 -87.5t87.5 -36.5q38 0 69 21q6 -21 27 -21q12 0 20.5 8.5t8.5 20.5l-1 85h1z" />
    <glyph glyph-name="a" unicode="&#xe0;" horiz-adv-x="351" 
d="M129 262q28 0 47.5 -19.5t19.5 -47.5q0 -3 1 -6v-61v-1q-1 0 -1 -1q0 -28 -19.5 -47.5t-47.5 -19.5t-47.5 19.5t-19.5 47.5v69q0 28 19.5 47.5t47.5 19.5zM351 333l-1 -1l-2 -223l1 -78q0 -51 -36.5 -87.5t-87.5 -36.5q-21 0 -41 7q-27 -7 -55 -7q-90 0 -154.5 64.5
t-64.5 154.5v69q0 44 17 85q-15 27 -15 58q0 60 29.5 110.5t80 80t109.5 29.5q89 0 153 -62.5t66 -151.5l1 -1v-10zM256 338h-1q0 52 -36 88.5t-87.5 36.5t-88 -36.5t-36.5 -88.5q0 -11 8.5 -19.5t20 -8.5t20 8.5t8.5 19.5q0 28 20 48t47 20q19 0 34 -9t24 -24.5t9 -34.5
v-39q-31 20 -69 20q-51 0 -87.5 -36t-36.5 -88v-69q0 -51 36.5 -87.5t87.5 -36.5q38 0 69 21q6 -21 27 -21q12 0 20.5 8.5t8.5 20.5l-1 85h1z" />
    <glyph glyph-name="b" unicode="b" 
d="M157 555q53 -6 97 -36.5t69.5 -78t25.5 -102.5v-212q0 -90 -64.5 -154.5t-155.5 -64.5q-78 0 -139.5 51t-75.5 128q-4 15 -4 31v460q0 51 36 87.5t87.5 36.5t87.5 -36.5t36 -87.5v-22zM254 126v212q0 51 -36.5 87.5t-88.5 36.5q-36 0 -67 -20v135q0 12 -8.5 20.5t-20 8.5
t-20 -8.5t-8.5 -20.5v-460q0 -5 2 -10q7 -45 41.5 -75t80.5 -30q52 0 88.5 36.5t36.5 87.5zM129.5 405q27.5 0 47.5 -19.5t20 -47.5v-212q0 -28 -20 -47.5t-47.5 -19.5t-47.5 19.5t-20 47.5v212q0 28 20 47.5t47.5 19.5z" />
    <glyph glyph-name="c" unicode="c" 
d="M348 338v-39q0 -38 -21 -69q21 -31 21 -69v-35q0 -90 -64 -154.5t-154.5 -64.5t-155 64.5t-64.5 154.5v212q0 90 64.5 154.5t155 64.5t154.5 -64.5t64 -154.5zM253 299v39q0 51 -36 87.5t-87.5 36.5t-88 -36.5t-36.5 -87.5v-212q0 -51 36.5 -87.5t88 -36.5t87.5 36.5
t36 87.5v35q0 12 -8 20t-20 8t-20.5 -8t-8.5 -20v-35q0 -28 -19.5 -47.5t-47.5 -19.5t-47.5 19.5t-19.5 47.5v212q0 28 19.5 47.5t47.5 19.5t47.5 -19.5t19.5 -47.5v-39q0 -12 8.5 -20.5t20.5 -8.5t20 8.5t8 20.5z" />
    <glyph glyph-name="c" unicode="&#xe7;" 
d="M348 338v-39q0 -38 -21 -69q21 -31 21 -69v-35q0 -90 -64 -154.5t-154.5 -64.5t-155 64.5t-64.5 154.5v212q0 90 64.5 154.5t155 64.5t154.5 -64.5t64 -154.5zM253 299v39q0 51 -36 87.5t-87.5 36.5t-88 -36.5t-36.5 -87.5v-212q0 -51 36.5 -87.5t88 -36.5t87.5 36.5
t36 87.5v35q0 12 -8 20t-20 8t-20.5 -8t-8.5 -20v-35q0 -28 -19.5 -47.5t-47.5 -19.5t-47.5 19.5t-19.5 47.5v212q0 28 19.5 47.5t47.5 19.5t47.5 -19.5t19.5 -47.5v-39q0 -12 8.5 -20.5t20.5 -8.5t20 8.5t8 20.5z" />
    <glyph glyph-name="d" unicode="d" horiz-adv-x="350" 
d="M225 701q51 0 87.5 -36.5t36.5 -87.5v-460q0 -16 -4 -31q-15 -77 -76 -128t-140 -51q-90 0 -154.5 64.5t-64.5 154.5v212q0 83 55 145t136 72v22q0 51 36.5 87.5t87.5 36.5zM254 117v460q0 12 -8.5 20.5t-20.5 8.5t-20 -8.5t-8 -20.5v-135q-31 20 -68 20
q-51 0 -87.5 -36.5t-36.5 -87.5v-212q0 -51 36.5 -87.5t87.5 -36.5q46 0 81 30t42 75q2 5 2 10zM129 405q28 0 47.5 -19.5t19.5 -47.5h1v-212h-1q0 -28 -19.5 -47.5t-47.5 -19.5t-47.5 19.5t-19.5 47.5v212q0 28 19.5 47.5t47.5 19.5z" />
    <glyph glyph-name="e" unicode="e" horiz-adv-x="351" 
d="M198 338v-2q0 -2 1 -5q-1 -3 -1 -5q0 -27 -19.5 -47t-47 -20t-47.5 20t-20 47v2v1v8v1q0 28 20 48t47.5 20t47 -20t19.5 -48zM351 338v-2v-4.5v-5.5q0 -63 -35 -117q32 -35 32 -83q0 -90 -64 -154.5t-155 -64.5q-88 0 -152 61.5t-67 149.5v1v16l2 214q0 15 4 30
q14 77 75.5 128t139.5 51q91 0 155.5 -64.5t64.5 -155.5zM255 336v2q0 52 -36 88.5t-88 36.5q-46 0 -80.5 -30.5t-41.5 -75.5q-2 -5 -2 -9l-2 -222v0q0 -51 36.5 -87.5t88 -36.5t87.5 36.5t36 87.5q0 12 -8 20.5t-20 8.5t-20.5 -8.5t-8.5 -20.5q0 -28 -19.5 -47.5
t-47.5 -19.5t-47.5 19.5t-19.5 47.5l1 97q31 -21 68 -21q52 0 88 36.5t36 87.5v5v5z" />
    <glyph glyph-name="e" unicode="&#xeb;" horiz-adv-x="351" 
d="M198 338v-2q0 -2 1 -5q-1 -3 -1 -5q0 -27 -19.5 -47t-47 -20t-47.5 20t-20 47v2v1v8v1q0 28 20 48t47.5 20t47 -20t19.5 -48zM351 338v-2v-4.5v-5.5q0 -63 -35 -117q32 -35 32 -83q0 -90 -64 -154.5t-155 -64.5q-88 0 -152 61.5t-67 149.5v1v16l2 214q0 15 4 30
q14 77 75.5 128t139.5 51q91 0 155.5 -64.5t64.5 -155.5zM255 336v2q0 52 -36 88.5t-88 36.5q-46 0 -80.5 -30.5t-41.5 -75.5q-2 -5 -2 -9l-2 -222v0q0 -51 36.5 -87.5t88 -36.5t87.5 36.5t36 87.5q0 12 -8 20.5t-20 8.5t-20.5 -8.5t-8.5 -20.5q0 -28 -19.5 -47.5
t-47.5 -19.5t-47.5 19.5t-19.5 47.5l1 97q31 -21 68 -21q52 0 88 36.5t36 87.5v5v5z" />
    <glyph glyph-name="e" unicode="&#xea;" horiz-adv-x="351" 
d="M198 338v-2q0 -2 1 -5q-1 -3 -1 -5q0 -27 -19.5 -47t-47 -20t-47.5 20t-20 47v2v1v8v1q0 28 20 48t47.5 20t47 -20t19.5 -48zM351 338v-2v-4.5v-5.5q0 -63 -35 -117q32 -35 32 -83q0 -90 -64 -154.5t-155 -64.5q-88 0 -152 61.5t-67 149.5v1v16l2 214q0 15 4 30
q14 77 75.5 128t139.5 51q91 0 155.5 -64.5t64.5 -155.5zM255 336v2q0 52 -36 88.5t-88 36.5q-46 0 -80.5 -30.5t-41.5 -75.5q-2 -5 -2 -9l-2 -222v0q0 -51 36.5 -87.5t88 -36.5t87.5 36.5t36 87.5q0 12 -8 20.5t-20 8.5t-20.5 -8.5t-8.5 -20.5q0 -28 -19.5 -47.5
t-47.5 -19.5t-47.5 19.5t-19.5 47.5l1 97q31 -21 68 -21q52 0 88 36.5t36 87.5v5v5z" />
    <glyph glyph-name="e" unicode="&#xe9;" horiz-adv-x="351" 
d="M198 338v-2q0 -2 1 -5q-1 -3 -1 -5q0 -27 -19.5 -47t-47 -20t-47.5 20t-20 47v2v1v8v1q0 28 20 48t47.5 20t47 -20t19.5 -48zM351 338v-2v-4.5v-5.5q0 -63 -35 -117q32 -35 32 -83q0 -90 -64 -154.5t-155 -64.5q-88 0 -152 61.5t-67 149.5v1v16l2 214q0 15 4 30
q14 77 75.5 128t139.5 51q91 0 155.5 -64.5t64.5 -155.5zM255 336v2q0 52 -36 88.5t-88 36.5q-46 0 -80.5 -30.5t-41.5 -75.5q-2 -5 -2 -9l-2 -222v0q0 -51 36.5 -87.5t88 -36.5t87.5 36.5t36 87.5q0 12 -8 20.5t-20 8.5t-20.5 -8.5t-8.5 -20.5q0 -28 -19.5 -47.5
t-47.5 -19.5t-47.5 19.5t-19.5 47.5l1 97q31 -21 68 -21q52 0 88 36.5t36 87.5v5v5z" />
    <glyph glyph-name="e" unicode="&#xe8;" horiz-adv-x="351" 
d="M198 338v-2q0 -2 1 -5q-1 -3 -1 -5q0 -27 -19.5 -47t-47 -20t-47.5 20t-20 47v2v1v8v1q0 28 20 48t47.5 20t47 -20t19.5 -48zM351 338v-2v-4.5v-5.5q0 -63 -35 -117q32 -35 32 -83q0 -90 -64 -154.5t-155 -64.5q-88 0 -152 61.5t-67 149.5v1v16l2 214q0 15 4 30
q14 77 75.5 128t139.5 51q91 0 155.5 -64.5t64.5 -155.5zM255 336v2q0 52 -36 88.5t-88 36.5q-46 0 -80.5 -30.5t-41.5 -75.5q-2 -5 -2 -9l-2 -222v0q0 -51 36.5 -87.5t88 -36.5t87.5 36.5t36 87.5q0 12 -8 20.5t-20 8.5t-20.5 -8.5t-8.5 -20.5q0 -28 -19.5 -47.5
t-47.5 -19.5t-47.5 19.5t-19.5 47.5l1 97q31 -21 68 -21q52 0 88 36.5t36 87.5v5v5z" />
    <glyph glyph-name="f" unicode="f" horiz-adv-x="350" 
d="M129 558q91 0 155 -64.5t64 -154.5q0 -44 -27 -77.5t-69 -43.5q-5 -39 -31 -68t-64 -38v-81q0 -51 -36 -87.5t-87.5 -36.5t-87.5 36.5t-36 87.5v318q0 14 4 29q14 78 75 129t140 51zM225 310q12 0 20 8.5t8 20.5q0 51 -36 87.5t-88 36.5q-46 0 -81 -30t-41 -75
q-2 -5 -2 -9v-318q0 -12 8.5 -20.5t20 -8.5t20 8.5t8.5 20.5v173h67q12 0 20.5 8.5t8.5 20.5t-8.5 20t-20.5 8h-67v78q0 28 19.5 47.5t47.5 19.5t47.5 -19.5t19.5 -47.5q0 -12 8.5 -20.5t20.5 -8.5z" />
    <glyph glyph-name="g" unicode="g" horiz-adv-x="351" 
d="M351 127v-8l-1 -1q-3 -88 -66.5 -149.5t-152.5 -61.5q-90 0 -154.5 64.5t-64.5 154.5q0 31 15 59q-17 40 -17 84v69q0 60 29.5 110.5t80 80t109.5 29.5q79 0 140 -51t76 -128q3 -15 4 -30l1 -214h1v-8zM255 126v0l-1 222q-1 4 -2 9q-7 45 -42 75.5t-81 30.5
q-33 0 -62 -17t-45.5 -45.5t-16.5 -62.5v-69q0 -51 36.5 -87.5t87.5 -36.5q38 0 69 21v-40q0 -18 -9 -33.5t-24 -24.5t-34 -9q-27 0 -47 19.5t-20 47.5q0 12 -8.5 20.5t-20 8.5t-20 -8.5t-8.5 -20.5q0 -51 36.5 -87.5t87.5 -36.5q34 0 62.5 16.5t45 45.5t16.5 62zM196 338
l0.5 -0.5t0.5 -1.5v-60q-1 -4 -1 -7q0 -27 -19.5 -47t-47.5 -20t-47.5 20t-19.5 47v69q0 28 19.5 48t47.5 20t47.5 -20t19.5 -48z" />
    <glyph glyph-name="h" unicode="h" 
d="M157 555q81 -10 136.5 -72t55.5 -145v-308q0 -51 -36.5 -87t-87.5 -36q-59 0 -96 46q-37 -46 -95 -46q-52 0 -88 36t-36 87v547q0 51 36 87.5t87.5 36.5t87.5 -36.5t36 -87.5v-22zM254 30v308q0 51 -36.5 87.5t-88.5 36.5q-36 0 -67 -20v135q0 12 -8.5 20.5t-20 8.5
t-20 -8.5t-8.5 -20.5v-547q0 -11 8.5 -19.5t20 -8.5t20 8.5t8.5 19.5v307v1q0 28 20 47.5t47.5 19.5t47.5 -19.5t20 -47.5v-308q0 -11 8 -19.5t20 -8.5t20.5 8.5t8.5 19.5z" />
    <glyph glyph-name="i" unicode="i" horiz-adv-x="158" 
d="M157 537v-8q0 -26 -11 -50q11 -24 11 -51v-397q0 -51 -36 -87.5t-87.5 -36.5t-87.5 36.5t-36 87.5v397q0 27 11 51q-11 24 -11 50v8q0 51 36 87t87.5 36t87.5 -36t36 -87zM62 31v397q0 12 -8.5 20.5t-20 8.5t-20 -8.5t-8.5 -20.5v-397q0 -12 8.5 -20.5t20 -8.5t20 8.5
t8.5 20.5zM62 529v8q0 12 -8.5 20t-20 8t-20 -8t-8.5 -20v-8q0 -12 8.5 -20.5t20 -8.5t20 8.5t8.5 20.5z" />
    <glyph glyph-name="i" unicode="&#xef;" horiz-adv-x="158" 
d="M157 537v-8q0 -26 -11 -50q11 -24 11 -51v-397q0 -51 -36 -87.5t-87.5 -36.5t-87.5 36.5t-36 87.5v397q0 27 11 51q-11 24 -11 50v8q0 51 36 87t87.5 36t87.5 -36t36 -87zM62 31v397q0 12 -8.5 20.5t-20 8.5t-20 -8.5t-8.5 -20.5v-397q0 -12 8.5 -20.5t20 -8.5t20 8.5
t8.5 20.5zM62 529v8q0 12 -8.5 20t-20 8t-20 -8t-8.5 -20v-8q0 -12 8.5 -20.5t20 -8.5t20 8.5t8.5 20.5z" />
    <glyph glyph-name="i" unicode="&#xee;" horiz-adv-x="158" 
d="M157 537v-8q0 -26 -11 -50q11 -24 11 -51v-397q0 -51 -36 -87.5t-87.5 -36.5t-87.5 36.5t-36 87.5v397q0 27 11 51q-11 24 -11 50v8q0 51 36 87t87.5 36t87.5 -36t36 -87zM62 31v397q0 12 -8.5 20.5t-20 8.5t-20 -8.5t-8.5 -20.5v-397q0 -12 8.5 -20.5t20 -8.5t20 8.5
t8.5 20.5zM62 529v8q0 12 -8.5 20t-20 8t-20 -8t-8.5 -20v-8q0 -12 8.5 -20.5t20 -8.5t20 8.5t8.5 20.5z" />
    <glyph glyph-name="i" unicode="&#xed;" horiz-adv-x="158" 
d="M157 537v-8q0 -26 -11 -50q11 -24 11 -51v-397q0 -51 -36 -87.5t-87.5 -36.5t-87.5 36.5t-36 87.5v397q0 27 11 51q-11 24 -11 50v8q0 51 36 87t87.5 36t87.5 -36t36 -87zM62 31v397q0 12 -8.5 20.5t-20 8.5t-20 -8.5t-8.5 -20.5v-397q0 -12 8.5 -20.5t20 -8.5t20 8.5
t8.5 20.5zM62 529v8q0 12 -8.5 20t-20 8t-20 -8t-8.5 -20v-8q0 -12 8.5 -20.5t20 -8.5t20 8.5t8.5 20.5z" />
    <glyph glyph-name="i" unicode="&#xec;" horiz-adv-x="158" 
d="M157 537v-8q0 -26 -11 -50q11 -24 11 -51v-397q0 -51 -36 -87.5t-87.5 -36.5t-87.5 36.5t-36 87.5v397q0 27 11 51q-11 24 -11 50v8q0 51 36 87t87.5 36t87.5 -36t36 -87zM62 31v397q0 12 -8.5 20.5t-20 8.5t-20 -8.5t-8.5 -20.5v-397q0 -12 8.5 -20.5t20 -8.5t20 8.5
t8.5 20.5zM62 529v8q0 12 -8.5 20t-20 8t-20 -8t-8.5 -20v-8q0 -12 8.5 -20.5t20 -8.5t20 8.5t8.5 20.5z" />
    <glyph glyph-name="j" unicode="j" 
d="M348 537v-8q0 -26 -10 -50q10 -24 10 -51v-302q0 -90 -64 -154.5t-154.5 -64.5t-155 64.5t-64.5 154.5q0 52 36 88t88 36q37 0 67 -20v198q0 27 11 51q-11 24 -11 50v8q0 51 36.5 87t87.5 36t87 -36t36 -87zM253 126v302q0 12 -8 20.5t-20 8.5t-20.5 -8.5t-8.5 -20.5
v-302q0 -27 -19.5 -47t-47.5 -20t-47.5 20t-19.5 47q0 12 -8.5 20.5t-20 8.5t-20 -8.5t-8.5 -20.5q0 -51 36.5 -87.5t88 -36.5t87.5 36.5t36 87.5zM253 529v8q0 12 -8 20t-20 8t-20.5 -8t-8.5 -20v-8q0 -12 8.5 -20.5t20.5 -8.5t20 8.5t8 20.5z" />
    <glyph glyph-name="k" unicode="k" horiz-adv-x="363" 
d="M277 288q71 -65 71 -160v-97q0 -51 -36 -87.5t-87 -36.5q-59 0 -96 46q-37 -46 -95 -46q-52 0 -88 36.5t-36 87.5v536q0 51 36 87.5t87.5 36.5t87.5 -36.5t36 -87.5v-30q35 30 82 30q40 0 73 -24q41 -30 48.5 -80.5t-22.5 -92.5zM262 427q7 9 5 21t-11.5 19t-21 5
t-18.5 -11l-154 -208v314q0 12 -8.5 20.5t-20 8.5t-20 -8.5t-8.5 -20.5v-536q0 -12 8.5 -20.5t20 -8.5t20 8.5t8.5 20.5v97q0 27 19.5 47t47.5 20t47.5 -20t19.5 -47v-97q0 -12 8.5 -20.5t20.5 -8.5t20 8.5t8 20.5v97q0 50 -35 86t-86 38z" />
    <glyph glyph-name="l" unicode="l" horiz-adv-x="253" 
d="M157 151q42 -9 69 -43t27 -77q0 -51 -36.5 -87.5t-87.5 -36.5q-90 0 -154.5 64.5t-64.5 154.5v451q0 51 36 87t87.5 36t87.5 -36t36 -87v-426zM129 2q12 0 20.5 8.5t8.5 20.5t-8.5 20t-20.5 8q-28 0 -47.5 20t-19.5 47v451q0 11 -8.5 19.5t-20 8.5t-20 -8.5t-8.5 -19.5
v-451q0 -51 36.5 -87.5t87.5 -36.5z" />
    <glyph glyph-name="m" unicode="m" horiz-adv-x="540" 
d="M321 567q90 0 154.5 -64t64.5 -155v-317q0 -51 -36.5 -87.5t-87.5 -36.5q-58 0 -95 46q-38 -46 -96.5 -46t-95.5 46q-37 -46 -95 -46q-52 0 -88 36.5t-36 87.5v413q0 51 36 87.5t88 36.5q21 0 41 -8q27 7 54 7q51 0 96 -22q45 22 96 22zM445 31v317q0 51 -36.5 87.5
t-87.5 36.5q-59 0 -96 -45q-37 45 -96 45q-37 0 -68 -20q-6 21 -27 21q-12 0 -20.5 -8.5t-8.5 -20.5v-413q0 -12 8.5 -20.5t20 -8.5t20 8.5t8.5 20.5v317q0 28 19.5 47.5t47.5 19.5t47.5 -19.5t19.5 -47.5v-317q0 -12 8.5 -20.5t20.5 -8.5t20 8.5t8 20.5v317q0 28 20 47.5
t47.5 19.5t47.5 -19.5t20 -47.5v-317q0 -12 8 -20.5t20 -8.5t20.5 8.5t8.5 20.5z" />
    <glyph glyph-name="n" unicode="n" 
d="M129 577q91 0 155 -64.5t64 -155.5v-326q0 -51 -36 -87.5t-87 -36.5q-59 0 -96 46q-37 -46 -95 -46q-52 0 -88 36.5t-36 87.5v423q0 51 36 87t88 36q21 0 41 -7q27 7 54 7zM253 31v326q0 52 -36 88.5t-88 36.5q-37 0 -68 -21q-6 21 -27 21q-12 0 -20.5 -8.5t-8.5 -19.5
v-423q0 -12 8.5 -20.5t20 -8.5t20 8.5t8.5 20.5v326q0 28 19.5 48t47.5 20t47.5 -20t19.5 -48v-326q0 -12 8.5 -20.5t20.5 -8.5t20 8.5t8 20.5z" />
    <glyph glyph-name="n" unicode="&#xf1;" 
d="M129 577q91 0 155 -64.5t64 -155.5v-326q0 -51 -36 -87.5t-87 -36.5q-59 0 -96 46q-37 -46 -95 -46q-52 0 -88 36.5t-36 87.5v423q0 51 36 87t88 36q21 0 41 -7q27 7 54 7zM253 31v326q0 52 -36 88.5t-88 36.5q-37 0 -68 -21q-6 21 -27 21q-12 0 -20.5 -8.5t-8.5 -19.5
v-423q0 -12 8.5 -20.5t20 -8.5t20 8.5t8.5 20.5v326q0 28 19.5 48t47.5 20t47.5 -20t19.5 -48v-326q0 -12 8.5 -20.5t20.5 -8.5t20 8.5t8 20.5z" />
    <glyph glyph-name="o" unicode="o" horiz-adv-x="351" 
d="M196 357l1 -1v-1l1 -229q0 -28 -19.5 -47.5t-47 -19.5t-47.5 19.5t-20 47.5v0l-2 231q0 28 19.5 48t47.5 20t47.5 -20t19.5 -48zM351 132v-11l-1 -1q-2 -88 -66 -150.5t-153 -62.5q-88 0 -151.5 61t-67.5 149v1v8l-2 230q0 92 64 156.5t155 64.5q79 0 140 -51t76 -128
q3 -15 4 -30l1 -235zM256 126h-1h1l-2 241q-1 4 -2 9q-7 45 -42 75.5t-81 30.5q-51 0 -87.5 -36.5t-36.5 -88.5l2 -231q0 -51 36.5 -87.5t87.5 -36.5q34 0 62.5 16.5t45.5 45.5t17 62z" />
    <glyph glyph-name="o" unicode="&#xf8;" horiz-adv-x="351" 
d="M196 357l1 -1v-1l1 -229q0 -28 -19.5 -47.5t-47 -19.5t-47.5 19.5t-20 47.5v0l-2 231q0 28 19.5 48t47.5 20t47.5 -20t19.5 -48zM351 132v-11l-1 -1q-2 -88 -66 -150.5t-153 -62.5q-88 0 -151.5 61t-67.5 149v1v8l-2 230q0 92 64 156.5t155 64.5q79 0 140 -51t76 -128
q3 -15 4 -30l1 -235zM256 126h-1h1l-2 241q-1 4 -2 9q-7 45 -42 75.5t-81 30.5q-51 0 -87.5 -36.5t-36.5 -88.5l2 -231q0 -51 36.5 -87.5t87.5 -36.5q34 0 62.5 16.5t45.5 45.5t17 62z" />
    <glyph glyph-name="o" unicode="&#xf6;" horiz-adv-x="351" 
d="M196 357l1 -1v-1l1 -229q0 -28 -19.5 -47.5t-47 -19.5t-47.5 19.5t-20 47.5v0l-2 231q0 28 19.5 48t47.5 20t47.5 -20t19.5 -48zM351 132v-11l-1 -1q-2 -88 -66 -150.5t-153 -62.5q-88 0 -151.5 61t-67.5 149v1v8l-2 230q0 92 64 156.5t155 64.5q79 0 140 -51t76 -128
q3 -15 4 -30l1 -235zM256 126h-1h1l-2 241q-1 4 -2 9q-7 45 -42 75.5t-81 30.5q-51 0 -87.5 -36.5t-36.5 -88.5l2 -231q0 -51 36.5 -87.5t87.5 -36.5q34 0 62.5 16.5t45.5 45.5t17 62z" />
    <glyph glyph-name="o" unicode="&#xf5;" horiz-adv-x="351" 
d="M196 357l1 -1v-1l1 -229q0 -28 -19.5 -47.5t-47 -19.5t-47.5 19.5t-20 47.5v0l-2 231q0 28 19.5 48t47.5 20t47.5 -20t19.5 -48zM351 132v-11l-1 -1q-2 -88 -66 -150.5t-153 -62.5q-88 0 -151.5 61t-67.5 149v1v8l-2 230q0 92 64 156.5t155 64.5q79 0 140 -51t76 -128
q3 -15 4 -30l1 -235zM256 126h-1h1l-2 241q-1 4 -2 9q-7 45 -42 75.5t-81 30.5q-51 0 -87.5 -36.5t-36.5 -88.5l2 -231q0 -51 36.5 -87.5t87.5 -36.5q34 0 62.5 16.5t45.5 45.5t17 62z" />
    <glyph glyph-name="o" unicode="&#xf4;" horiz-adv-x="351" 
d="M196 357l1 -1v-1l1 -229q0 -28 -19.5 -47.5t-47 -19.5t-47.5 19.5t-20 47.5v0l-2 231q0 28 19.5 48t47.5 20t47.5 -20t19.5 -48zM351 132v-11l-1 -1q-2 -88 -66 -150.5t-153 -62.5q-88 0 -151.5 61t-67.5 149v1v8l-2 230q0 92 64 156.5t155 64.5q79 0 140 -51t76 -128
q3 -15 4 -30l1 -235zM256 126h-1h1l-2 241q-1 4 -2 9q-7 45 -42 75.5t-81 30.5q-51 0 -87.5 -36.5t-36.5 -88.5l2 -231q0 -51 36.5 -87.5t87.5 -36.5q34 0 62.5 16.5t45.5 45.5t17 62z" />
    <glyph glyph-name="o" unicode="&#xf3;" horiz-adv-x="351" 
d="M196 357l1 -1v-1l1 -229q0 -28 -19.5 -47.5t-47 -19.5t-47.5 19.5t-20 47.5v0l-2 231q0 28 19.5 48t47.5 20t47.5 -20t19.5 -48zM351 132v-11l-1 -1q-2 -88 -66 -150.5t-153 -62.5q-88 0 -151.5 61t-67.5 149v1v8l-2 230q0 92 64 156.5t155 64.5q79 0 140 -51t76 -128
q3 -15 4 -30l1 -235zM256 126h-1h1l-2 241q-1 4 -2 9q-7 45 -42 75.5t-81 30.5q-51 0 -87.5 -36.5t-36.5 -88.5l2 -231q0 -51 36.5 -87.5t87.5 -36.5q34 0 62.5 16.5t45.5 45.5t17 62z" />
    <glyph glyph-name="o" unicode="&#xf2;" horiz-adv-x="351" 
d="M196 357l1 -1v-1l1 -229q0 -28 -19.5 -47.5t-47 -19.5t-47.5 19.5t-20 47.5v0l-2 231q0 28 19.5 48t47.5 20t47.5 -20t19.5 -48zM351 132v-11l-1 -1q-2 -88 -66 -150.5t-153 -62.5q-88 0 -151.5 61t-67.5 149v1v8l-2 230q0 92 64 156.5t155 64.5q79 0 140 -51t76 -128
q3 -15 4 -30l1 -235zM256 126h-1h1l-2 241q-1 4 -2 9q-7 45 -42 75.5t-81 30.5q-51 0 -87.5 -36.5t-36.5 -88.5l2 -231q0 -51 36.5 -87.5t87.5 -36.5q34 0 62.5 16.5t45.5 45.5t17 62z" />
    <glyph glyph-name="p" unicode="p" horiz-adv-x="350" 
d="M131 415q27 0 47 -19.5t20 -47.5v-79q0 -27 -20 -47t-47 -20q-26 0 -45 17t-22 43l1 95v3q2 16 11.5 28.5t23.5 19.5t31 7zM131 567q90 0 154.5 -64t64.5 -155v-79q0 -83 -55.5 -145t-137.5 -72v-22q0 -51 -36.5 -87t-86.5 -36h-1q-51 0 -87 36.5t-36 87.5l2 227
q-1 6 -1 11q0 6 1 12v52q-1 7 -1 15q0 10 1 22l1 74q0 51 36 87t87 36q21 0 41 -7q26 7 54 7zM255 269v79q0 51 -36.5 87.5t-87.5 36.5q-37 0 -68 -20q-6 20 -27 20q-12 0 -20 -8.5t-8 -19.5v-80q-2 -9 -2 -16q0 -3 1 -7v-66q-1 -3 -1 -6q0 -2 1 -9l-2 -229q0 -12 8.5 -20.5
t19.5 -8.5h1q7 0 13.5 4t10.5 10.5t4 13.5l1 135q31 -20 68 -20q51 0 87.5 36.5t36.5 87.5z" />
    <glyph glyph-name="q" unicode="q" horiz-adv-x="367" 
d="M196 357l0.5 -0.5t0.5 -1.5l1 -229v-7l-46 48q-8 9 -20 9t-20.5 -8t-8.5 -20t8 -20l56 -59q-17 -10 -36 -10q-27 0 -47 19.5t-20 47.5v0l-2 231q0 28 19.5 48t47.5 20t47.5 -20t19.5 -48zM348 96q20 -31 19 -68q-1 -51 -38 -87q-36 -34 -86 -34q-24 0 -47 10
q-32 -10 -65 -10q-88 0 -151.5 61t-67.5 149v1v8l-2 230q0 92 64 156.5t155 64.5q79 0 140 -51t76 -128q3 -15 4 -30l1 -235l1 -1v-11l-1 -1q0 -12 -2 -24zM263 10q9 8 9 20t-8 20l-21 22q13 26 13 54h-1h1l-2 241q-1 4 -2 9q-7 45 -42 75.5t-81 30.5q-51 0 -87.5 -36.5
t-36.5 -88.5l2 -231q0 -52 36.5 -88t87.5 -36q42 0 76 26l16 -17q8 -9 20 -9t20 8z" />
    <glyph glyph-name="r" unicode="r" horiz-adv-x="352" 
d="M132 415q28 0 47.5 -19.5t19.5 -47.5v-41q0 -27 -19.5 -47t-47.5 -20t-47.5 20t-19.5 47q0 2 -1 5v34l0.5 1l0.5 1q0 28 19.5 47.5t47.5 19.5zM351 348v-41q0 -50 -22 -95q22 -46 22 -96v-86q0 -51 -36 -87t-87 -36q-60 0 -98 47q-37 -47 -96 -47q-52 0 -88 36.5
t-36 87.5l2 327l1 86q0 51 36 87t87 36q21 0 41 -7q27 7 55 7q90 0 154.5 -64t64.5 -155zM256 307v41q0 51 -36.5 87.5t-87.5 36.5q-37 0 -69 -21q-6 21 -27 21q-12 0 -20 -8.5t-8 -19.5v-86l-3 -327q0 -12 8.5 -20.5t19.5 -8.5h1q11 0 19.5 8.5t8.5 19.5l1 174
q32 -21 69 -21q28 0 47.5 -19.5t19.5 -47.5v-86q0 -11 8.5 -19.5t20 -8.5t20 8.5t8.5 19.5v86q0 58 -45 96q45 37 45 95z" />
    <glyph glyph-name="s" unicode="s" 
d="M348 349v-46q0 -48 -33 -84q25 -48 24.5 -101.5t-25.5 -100.5q-26 -47 -70 -76t-97 -33q-9 -1 -18 -1q-90 0 -154.5 64.5t-64.5 154.5v47q0 48 33 84q-25 47 -24.5 100.5t26.5 100.5q25 47 69.5 76t96.5 33q9 1 18 1q91 0 155 -64.5t64 -154.5zM253 303v46q0 51 -36 87.5
t-88 36.5q-5 0 -10 -1q-29 -2 -53 -18t-38 -41q-31 -57 0 -114q2 -4 5 -7l149 -146q13 -29 -2 -57q-15 -27 -45 -30h-6q-28 0 -47.5 19.5t-19.5 47.5v47q0 12 -8.5 20.5t-20 8.5t-20 -8.5t-8.5 -20.5v-47q0 -51 36.5 -87.5t87.5 -36.5h10q29 3 53 18.5t38 41.5q31 57 0 114
q-2 4 -5 7l-149 146q-13 29 3 56q15 28 45 30q2 1 5 1q28 0 47.5 -20t19.5 -47v-46q0 -11 8.5 -19.5t20.5 -8.5t20 8.5t8 19.5z" />
    <glyph glyph-name="s" unicode="&#xdf;" 
d="M348 349v-46q0 -48 -33 -84q25 -48 24.5 -101.5t-25.5 -100.5q-26 -47 -70 -76t-97 -33q-9 -1 -18 -1q-90 0 -154.5 64.5t-64.5 154.5v47q0 48 33 84q-25 47 -24.5 100.5t26.5 100.5q25 47 69.5 76t96.5 33q9 1 18 1q91 0 155 -64.5t64 -154.5zM253 303v46q0 51 -36 87.5
t-88 36.5q-5 0 -10 -1q-29 -2 -53 -18t-38 -41q-31 -57 0 -114q2 -4 5 -7l149 -146q13 -29 -2 -57q-15 -27 -45 -30h-6q-28 0 -47.5 19.5t-19.5 47.5v47q0 12 -8.5 20.5t-20 8.5t-20 -8.5t-8.5 -20.5v-47q0 -51 36.5 -87.5t87.5 -36.5h10q29 3 53 18.5t38 41.5q31 57 0 114
q-2 4 -5 7l-149 146q-13 29 3 56q15 28 45 30q2 1 5 1q28 0 47.5 -20t19.5 -47v-46q0 -11 8.5 -19.5t20.5 -8.5t20 8.5t8 19.5z" />
    <glyph glyph-name="t" unicode="t" horiz-adv-x="334" 
d="M209 151q42 -9 69 -43t27 -77q0 -51 -36.5 -87.5t-87.5 -36.5q-90 0 -154.5 64.5t-64.5 154.5v208q-52 37 -52 100.5t52 100.5v42q0 51 36.5 87t87.5 36t87 -36t36 -87v-19h1q51 0 87 -36t36 -87t-36 -87.5t-87 -36.5h-1v-160zM181 2q12 0 20.5 8.5t8.5 20.5t-8.5 20
t-20.5 8q-27 0 -47 20t-20 47v280h96q11 0 19.5 8.5t8.5 20.5t-8.5 20t-19.5 8h-96v114q0 11 -8.5 19.5t-20 8.5t-20 -8.5t-8.5 -19.5v-114h-23q-12 0 -20.5 -8t-8.5 -20t8.5 -20.5t20.5 -8.5h23v-280q0 -51 36.5 -87.5t87.5 -36.5z" />
    <glyph glyph-name="u" unicode="u" 
d="M225 577q51 0 87 -36t36 -87v-423q0 -51 -36 -87.5t-87 -36.5q-21 0 -42 7q-26 -6 -54 -6q-90 0 -154.5 64t-64.5 155v327q0 51 36 87t88 36q58 0 95 -45q37 45 96 45zM253 127v327q0 11 -8 19.5t-20 8.5t-20.5 -8.5t-8.5 -19.5v-327q0 -28 -19.5 -47.5t-47.5 -19.5
t-47.5 19.5t-19.5 47.5v327q0 11 -8.5 19.5t-20 8.5t-20 -8.5t-8.5 -19.5v-327q0 -51 36.5 -87.5t87.5 -36.5q37 0 69 20q5 -21 27 -21q12 0 20 8.5t8 20.5v96z" />
    <glyph glyph-name="u" unicode="&#xfc;" 
d="M225 577q51 0 87 -36t36 -87v-423q0 -51 -36 -87.5t-87 -36.5q-21 0 -42 7q-26 -6 -54 -6q-90 0 -154.5 64t-64.5 155v327q0 51 36 87t88 36q58 0 95 -45q37 45 96 45zM253 127v327q0 11 -8 19.5t-20 8.5t-20.5 -8.5t-8.5 -19.5v-327q0 -28 -19.5 -47.5t-47.5 -19.5
t-47.5 19.5t-19.5 47.5v327q0 11 -8.5 19.5t-20 8.5t-20 -8.5t-8.5 -19.5v-327q0 -51 36.5 -87.5t87.5 -36.5q37 0 69 20q5 -21 27 -21q12 0 20 8.5t8 20.5v96z" />
    <glyph glyph-name="u" unicode="&#xfb;" 
d="M225 577q51 0 87 -36t36 -87v-423q0 -51 -36 -87.5t-87 -36.5q-21 0 -42 7q-26 -6 -54 -6q-90 0 -154.5 64t-64.5 155v327q0 51 36 87t88 36q58 0 95 -45q37 45 96 45zM253 127v327q0 11 -8 19.5t-20 8.5t-20.5 -8.5t-8.5 -19.5v-327q0 -28 -19.5 -47.5t-47.5 -19.5
t-47.5 19.5t-19.5 47.5v327q0 11 -8.5 19.5t-20 8.5t-20 -8.5t-8.5 -19.5v-327q0 -51 36.5 -87.5t87.5 -36.5q37 0 69 20q5 -21 27 -21q12 0 20 8.5t8 20.5v96z" />
    <glyph glyph-name="u" unicode="&#xfa;" 
d="M225 577q51 0 87 -36t36 -87v-423q0 -51 -36 -87.5t-87 -36.5q-21 0 -42 7q-26 -6 -54 -6q-90 0 -154.5 64t-64.5 155v327q0 51 36 87t88 36q58 0 95 -45q37 45 96 45zM253 127v327q0 11 -8 19.5t-20 8.5t-20.5 -8.5t-8.5 -19.5v-327q0 -28 -19.5 -47.5t-47.5 -19.5
t-47.5 19.5t-19.5 47.5v327q0 11 -8.5 19.5t-20 8.5t-20 -8.5t-8.5 -19.5v-327q0 -51 36.5 -87.5t87.5 -36.5q37 0 69 20q5 -21 27 -21q12 0 20 8.5t8 20.5v96z" />
    <glyph glyph-name="u" unicode="&#xf9;" 
d="M225 577q51 0 87 -36t36 -87v-423q0 -51 -36 -87.5t-87 -36.5q-21 0 -42 7q-26 -6 -54 -6q-90 0 -154.5 64t-64.5 155v327q0 51 36 87t88 36q58 0 95 -45q37 45 96 45zM253 127v327q0 11 -8 19.5t-20 8.5t-20.5 -8.5t-8.5 -19.5v-327q0 -28 -19.5 -47.5t-47.5 -19.5
t-47.5 19.5t-19.5 47.5v327q0 11 -8.5 19.5t-20 8.5t-20 -8.5t-8.5 -19.5v-327q0 -51 36.5 -87.5t87.5 -36.5q37 0 69 20q5 -21 27 -21q12 0 20 8.5t8 20.5v96z" />
    <glyph glyph-name="v" unicode="v" horiz-adv-x="411" 
d="M316 569q50 -13 76.5 -57t13.5 -93l-98 -396q-13 -53 -55.5 -86.5t-96.5 -33.5h-3q-54 1 -96.5 35.5t-54.5 88.5l-89 394q-11 50 16 93.5t77 54.5q14 3 28 3q43 0 76.5 -27t43.5 -69l6 -25l7 27q10 42 43.5 68t75.5 26q16 0 30 -3zM314 442q3 11 -3 21t-17.5 13t-21.5 -3
t-13 -17l-99 -397q0 -3 -4 -4q-4 1 -5 5l-90 395q-2 11 -12 17.5t-21.5 4t-18 -12.5t-3.5 -22l89 -395q5 -21 21.5 -34.5t38.5 -14.5h1q22 0 38.5 13.5t21.5 34.5z" />
    <glyph glyph-name="w" unicode="w" horiz-adv-x="548" 
d="M540 460l7 -327q2 -92 -61 -157t-154 -67h-4q-48 0 -92 21q-45 -23 -96 -24h-3q-87 0 -151 60.5t-68 147.5v2v6l-8 325q-1 52 34.5 89t86.5 38h2q57 0 95 -44q3 4 8 9q35 37 86 38h3q58 0 94 -44q37 46 94 47h3q33 0 61.5 -16t45 -43.5t17.5 -60.5zM417.5 42
q35.5 37 34.5 89l-7 326q-1 12 -9 20t-20 8t-20.5 -8.5t-7.5 -20.5l7 -326q1 -28 -18.5 -48t-47.5 -21q-18 0 -33.5 8.5t-25 24t-9.5 33.5v1l-8 326q0 12 -8.5 20t-20.5 8t-20 -8.5t-8 -20.5l8 -327q0 -27 -19 -47t-47 -21h-1q-28 0 -47.5 19.5t-19.5 46.5v0l-8 327
q0 12 -8.5 20t-20.5 8t-20 -9t-8 -20l8 -327v0v0q1 -51 37 -86.5t87 -35.5h2q51 1 87 38q4 4 8 9q37 -44 94 -44h2q52 1 87.5 38z" />
    <glyph glyph-name="x" unicode="x" horiz-adv-x="359" 
d="M346 83q22 -46 5 -94.5t-63 -70.5q-25 -12 -53 -12q-30 0 -57 14t-44 38q-17 -24 -44 -38t-56 -14t-54 12q-46 22 -63 70.5t5 94.5l75 156l-75 156q-22 46 -5 94.5t63 70.5q25 12 54 12t56 -13.5t44 -38.5q17 25 44 38.5t57 13.5q28 0 53 -12q46 -22 63 -70.5t-5 -94.5
l-75 -156zM260 42l-94 197l94 197q5 11 1.5 22t-14.5 16t-22 1.5t-16 -14.5l-75 -156l-75 156q-5 11 -16 14.5t-21.5 -1.5t-14.5 -16t1 -22l94 -197l-94 -197q-5 -11 -1 -22t14 -16q6 -3 13 -3q18 0 25 16l75 156l75 -156q8 -16 26 -16q6 0 12 3q11 5 14.5 16t-1.5 22z" />
    <glyph glyph-name="y" unicode="y" horiz-adv-x="351" 
d="M351 135v-16l-1 -2q-3 -87 -66.5 -148.5t-152.5 -61.5q-90 0 -154.5 64.5t-64.5 154.5q0 31 15 59q-17 40 -17 84v189q0 51 36 87.5t88 36.5q58 0 95 -46q4 4 8 9q36 36 87 36q52 0 88 -36t37 -87l1 -323h1zM256 126h-1h1l-2 332q-1 12 -9 20t-20 8t-20.5 -8.5
t-7.5 -19.5l1 -181q-2 -4 -2 -8q0 -27 -19.5 -47t-47.5 -20t-47.5 20t-19.5 47v189q0 12 -8.5 20.5t-20 8.5t-20 -8.5t-8.5 -20.5v-189q0 -51 36.5 -87.5t87.5 -36.5q38 0 69 21v-40q0 -28 -19.5 -47.5t-47 -19.5t-47.5 19.5t-20 47.5q0 12 -8.5 20.5t-20 8.5t-20 -8.5
t-8.5 -20.5q0 -51 36.5 -87.5t88 -36.5t88 36.5t36.5 87.5z" />
    <glyph glyph-name="y" unicode="&#xff;" horiz-adv-x="351" 
d="M351 135v-16l-1 -2q-3 -87 -66.5 -148.5t-152.5 -61.5q-90 0 -154.5 64.5t-64.5 154.5q0 31 15 59q-17 40 -17 84v189q0 51 36 87.5t88 36.5q58 0 95 -46q4 4 8 9q36 36 87 36q52 0 88 -36t37 -87l1 -323h1zM256 126h-1h1l-2 332q-1 12 -9 20t-20 8t-20.5 -8.5
t-7.5 -19.5l1 -181q-2 -4 -2 -8q0 -27 -19.5 -47t-47.5 -20t-47.5 20t-19.5 47v189q0 12 -8.5 20.5t-20 8.5t-20 -8.5t-8.5 -20.5v-189q0 -51 36.5 -87.5t87.5 -36.5q38 0 69 21v-40q0 -28 -19.5 -47.5t-47 -19.5t-47.5 19.5t-20 47.5q0 12 -8.5 20.5t-20 8.5t-20 -8.5
t-8.5 -20.5q0 -51 36.5 -87.5t88 -36.5t88 36.5t36.5 87.5z" />
    <glyph glyph-name="y" unicode="&#xfd;" horiz-adv-x="351" 
d="M351 135v-16l-1 -2q-3 -87 -66.5 -148.5t-152.5 -61.5q-90 0 -154.5 64.5t-64.5 154.5q0 31 15 59q-17 40 -17 84v189q0 51 36 87.5t88 36.5q58 0 95 -46q4 4 8 9q36 36 87 36q52 0 88 -36t37 -87l1 -323h1zM256 126h-1h1l-2 332q-1 12 -9 20t-20 8t-20.5 -8.5
t-7.5 -19.5l1 -181q-2 -4 -2 -8q0 -27 -19.5 -47t-47.5 -20t-47.5 20t-19.5 47v189q0 12 -8.5 20.5t-20 8.5t-20 -8.5t-8.5 -20.5v-189q0 -51 36.5 -87.5t87.5 -36.5q38 0 69 21v-40q0 -28 -19.5 -47.5t-47 -19.5t-47.5 19.5t-20 47.5q0 12 -8.5 20.5t-20 8.5t-20 -8.5
t-8.5 -20.5q0 -51 36.5 -87.5t88 -36.5t88 36.5t36.5 87.5z" />
    <glyph glyph-name="z" unicode="z" horiz-adv-x="415" 
d="M291 156q51 0 87.5 -36t36.5 -87t-36.5 -87.5t-87.5 -36.5h-257q-34 0 -63 17.5t-45.5 46.5t-15.5 63t19 62l139 223h-34q-52 0 -88 36t-36 87t36 87.5t88 36.5h257q34 0 63 -17t45 -46.5t15.5 -63.5t-18.5 -62l-139 -223h34zM291 4q12 0 20 8.5t8 20.5t-8 20t-20 8h-206
l230 368q9 14 1 29t-25 15h-257q-12 0 -20.5 -8.5t-8.5 -20.5t8.5 -20t20.5 -8h206l-231 -368q-9 -14 -0.5 -29t25.5 -15h257z" />
    <glyph glyph-name="nonbreakingspace" unicode="&#xa0;" horiz-adv-x="274" 
 />
    <glyph glyph-name="softhyphen" unicode="&#xad;" horiz-adv-x="0" 
 />
  </font>
</defs>
</svg>
