<svg xmlns="http://www.w3.org/2000/svg">
<defs>
<font id="JoyMultiplication" horiz-adv-x="1400" >
  <font-face 
    font-family="Joy Multiplication"
    font-weight="400"
    font-stretch="normal"
    units-per-em="2048"
    panose-1="2 0 5 0 0 0 0 0 0 0"
    ascent="1638"
    descent="-410"
    x-height="1400"
    cap-height="1400"
    bbox="31 -200 1869 1550"
    underline-thickness="150"
    underline-position="-142"
    unicode-range="U+001D-007E"
  />
<missing-glyph horiz-adv-x="1600" 
d="M776 1396h32q335 0 564 -300q124 -187 124 -380v-40q0 -314 -288 -548q-194 -128 -388 -128h-32q-335 0 -564 300q-124 187 -124 380v40q0 314 288 548q194 128 388 128zM196 880h4q688 -4 1084 -4h116q-94 264 -292 364q-138 84 -296 84h-32q-268 0 -468 -228
q-88 -113 -116 -216zM764 1252l28 -28l32 28q5 0 32 -32q-6 0 -28 -28v-4q0 -6 28 -28q0 6 28 28h4q6 0 28 -28v-4q0 -6 -28 -28h-4l-32 28l-24 -28q28 -30 28 -36l-32 -28l-32 28l-32 -28l-28 32l28 32q-25 28 -28 28l-32 -28q-5 0 -32 32l32 28l32 -28l28 32q-6 0 -28 28
q0 5 32 32zM792 1220l-28 -32l32 -28q0 2 24 28v4q0 6 -28 28zM792 1156l-28 -32q26 -24 28 -24q6 0 28 28q0 6 -28 28zM420 1008h12l28 -8v-8l-8 -12q-22 4 -32 4q-16 -4 -16 -24q0 -17 20 -24q26 8 28 8l12 -16q-13 -10 -36 -16q-52 9 -52 48q8 48 44 48zM472 1008h20
q8 -1 8 -8v-28h28v36h28v-92h-28v32h-28v-32h-28v92zM576 1008h64v-24h-44v-12h44v-16q0 -8 -8 -8l-8 4l-8 -4l-20 4v-12h40q8 -1 8 -8v-16h-76v84q1 8 8 8zM700 1008q52 -7 52 -44l-8 -32q8 -1 8 -8q0 -6 -16 -16q-10 8 -12 8q-22 -4 -32 -4q-33 0 -44 48q0 48 52 48z
M768 1008h12q8 -1 8 -8v-40q3 -24 12 -24h8q6 0 12 12v52l4 8l8 -4h4l8 4l4 -8v-48q-5 -40 -40 -40h-8q-36 0 -40 48v40q1 8 8 8zM864 1008h8l24 -4q8 4 12 4q8 -4 12 -4q8 4 12 4v-20q0 -8 -8 -8q-7 4 -16 4v-4l-8 4h-12v-12h44v-16q0 -8 -8 -8h-36v-12h12q4 0 4 4l8 -4h8
q4 0 4 4q8 -4 12 -4v-20h-20l-24 -4q-7 4 -20 4v-4q-8 4 -12 4v72zM952 1008l28 -4v4q48 -7 48 -32q-3 -28 -20 -28l24 -32l-8 -4h-16q-3 0 -32 32h-4v-16l4 -8l-8 -4h-24v4q0 8 4 8l-4 28l4 40h-4q4 12 8 12zM1040 1004h72v-16q0 -8 -8 -8h-36v-8h40v-24h-40v-12h44v-16

<glyph glyph-name=".notdef" horiz-adv-x="1600" 
d="M776 1396h32q335 0 564 -300q124 -187 124 -380v-40q0 -314 -288 -548q-194 -128 -388 -128h-32q-335 0 -564 300q-124 187 -124 380v40q0 314 288 548q194 128 388 128zM196 880h4q688 -4 1084 -4h116q-94 264 -292 364q-138 84 -296 84h-32q-268 0 -468 -228
q-88 -113 -116 -216zM764 1252l28 -28l32 28q5 0 32 -32q-6 0 -28 -28v-4q0 -6 28 -28q0 6 28 28h4q6 0 28 -28v-4q0 -6 -28 -28h-4l-32 28l-24 -28q28 -30 28 -36l-32 -28l-32 28l-32 -28l-28 32l28 32q-25 28 -28 28l-32 -28q-5 0 -32 32l32 28l32 -28l28 32q-6 0 -28 28
q0 5 32 32zM792 1220l-28 -32l32 -28q0 2 24 28v4q0 6 -28 28zM792 1156l-28 -32q26 -24 28 -24q6 0 28 28q0 6 -28 28zM420 1008h12l28 -8v-8l-8 -12q-22 4 -32 4q-16 -4 -16 -24q0 -17 20 -24q26 8 28 8l12 -16q-13 -10 -36 -16q-52 9 -52 48q8 48 44 48zM472 1008h20
q8 -1 8 -8v-28h28v36h28v-92h-28v32h-28v-32h-28v92zM576 1008h64v-24h-44v-12h44v-16q0 -8 -8 -8l-8 4l-8 -4l-20 4v-12h40q8 -1 8 -8v-16h-76v84q1 8 8 8zM700 1008q52 -7 52 -44l-8 -32q8 -1 8 -8q0 -6 -16 -16q-10 8 -12 8q-22 -4 -32 -4q-33 0 -44 48q0 48 52 48z
M768 1008h12q8 -1 8 -8v-40q3 -24 12 -24h8q6 0 12 12v52l4 8l8 -4h4l8 4l4 -8v-48q-5 -40 -40 -40h-8q-36 0 -40 48v40q1 8 8 8zM864 1008h8l24 -4q8 4 12 4q8 -4 12 -4q8 4 12 4v-20q0 -8 -8 -8q-7 4 -16 4v-4l-8 4h-12v-12h44v-16q0 -8 -8 -8h-36v-12h12q4 0 4 4l8 -4h8
q4 0 4 4q8 -4 12 -4v-20h-20l-24 -4q-7 4 -20 4v-4q-8 4 -12 4v72zM952 1008l28 -4v4q48 -7 48 -32q-3 -28 -20 -28l24 -32l-8 -4h-16q-3 0 -32 32h-4v-16l4 -8l-8 -4h-24v4q0 8 4 8l-4 28l4 40h-4q4 12 8 12zM1040 1004h72v-16q0 -8 -8 -8h-36v-8h40v-24h-40v-12h44v-16
q0 -8 -8 -8h-56q-8 0 -8 8v84zM1124 1004h48q36 0 40 -48q0 -42 -64 -44h-16q-8 0 -8 8v84zM676 956q6 -20 28 -20q20 6 20 28q-8 18 -16 20h-16q-16 -6 -16 -28zM972 984v-20h20q8 0 8 8v4q0 8 -8 8h-20zM1152 980v-44h4q22 0 28 16v16q0 6 -12 12h-20zM308 680v-8
q13 -68 64 -68h40q20 10 20 32v16q-16 0 -16 20q0 40 76 40q0 5 16 8v-4q-75 -248 -96 -252h-8q-9 0 -12 20q0 7 20 44q-20 36 -52 36h-12q-64 -9 -64 -64v-8q0 -58 72 -84q21 -4 40 -4h16q125 0 164 172q24 53 84 228q-19 12 -52 12h-24q-31 0 -60 -36q-51 -22 -156 -36
q-60 -21 -60 -64zM896 460l-4 8v12q0 19 32 136q-10 40 -44 40h-28q-17 0 -64 -20v8l4 8q-16 8 -44 8h-40q-35 0 -48 -44q-64 -198 -64 -208q24 -12 68 -12q60 0 60 60q41 132 56 132q12 0 12 4q16 -6 16 -12q-36 -93 -36 -124v-8q0 -39 56 -48q40 0 108 36l-8 -24
q16 -16 56 -16q68 0 68 32q22 160 76 160h12q8 -1 8 -8v-4q0 -27 -52 -52l-4 -20q0 -104 84 -104q87 0 144 108l-16 12h-8q-35 -60 -80 -60h-8q-24 10 -24 36v16l56 36q20 37 20 56v8q0 41 -60 48q-16 0 -84 -24q0 4 -4 4q60 154 60 160q-19 12 -60 12h-36q-30 0 -40 -68
q-11 -12 -80 -236q-45 -48 -60 -48zM308 312v-4q203 -236 476 -236h32q251 0 448 204q24 28 24 32q-502 4 -748 4h-232zM616 244h40v-8h-32v-20h32v-8h-32v-16h28q8 -1 8 -8h-44v60zM680 244h20q6 0 12 -12h-4l-24 4q-8 -1 -8 -8v-8q40 -4 40 -20q-6 -20 -28 -20
q-24 8 -24 16l8 4q0 -9 20 -12l16 8q0 12 -40 20v16q0 6 12 12zM716 244h48v-8h-20v-52h-8v52h-20v8zM816 244q12 0 24 -16q0 -19 -40 -24l-4 -8q1 -8 8 -8h32v-8h-28l-20 4v4q0 28 28 28h12q0 4 4 12l-12 8h-12l-16 -12v8q4 12 24 12zM872 244h4q6 0 16 -16v-32
q-6 -16 -28 -16q-20 6 -20 28v8q0 28 28 28zM920 244v-56h12q0 -8 -8 -8h-20v8h8v44h-8v8q9 0 16 4zM940 244h36q8 -1 8 -8h-36v-16h24q8 -2 16 -20q-6 -20 -28 -20q-20 3 -20 12v8l16 -12h12q6 0 12 12q0 6 -12 12h-28v32zM852 224v-24q0 -6 12 -12h8q6 0 12 12v24
q0 6 -12 12h-8q-6 0 -12 -12z" />
    <glyph glyph-name=".null" horiz-adv-x="0" 
 />
    <glyph glyph-name=".null" horiz-adv-x="0" 
 />
    <glyph glyph-name="nonmarkingreturn" horiz-adv-x="508" 
 />
    <glyph glyph-name="space" unicode=" " horiz-adv-x="508" 
 />
    <glyph glyph-name="space" unicode="&#xa0;" horiz-adv-x="508" 
 />
    <glyph glyph-name="exclam" unicode="!" horiz-adv-x="500" 
d="M100 0v300h300v-300h-300zM100 500v900h300v-900h-300z" />
    <glyph glyph-name="quotedbl" unicode="&#x22;" horiz-adv-x="900" 
d="M100 900v500h300v-500h-300zM500 900v500h300v-500h-300z" />
    <glyph glyph-name="numbersign" unicode="#" 
d="M300 600v200h-200v300h200v300h300v-300h200v300h300v-300h200v-300h-200v-200h200v-300h-200v-300h-300v300h-200v-300h-300v300h-200v300h200zM600 800v-200h200v200h-200z" />
    <glyph glyph-name="dollar" unicode="$" 
d="M500 1100q-100 0 -100 -100q0 -46 150 -104v204h-50zM100 400v150l300 -100v-50q0 -100 100 -100h50v295q-450 115 -450 405q0 400 400 400h50v150h300v-150h50q400 0 400 -400v-150l-300 100v50q0 100 -100 100h-50v-295q450 -115 450 -405q0 -400 -400 -400h-50v-150
h-300v150h-50q-400 0 -400 400zM900 300q100 0 100 100q0 46 -150 104v-204h50z" />
    <glyph glyph-name="percent" unicode="%" 
d="M985 1400h360l-930 -1400h-360zM500 1000h-400v400h400v-400zM1300 0h-400v400h400v-400z" />
    <glyph glyph-name="ampersand" unicode="&#x26;" horiz-adv-x="1500" 
d="M500 0q-400 0 -400 400v50q0 155 60 250q-60 95 -60 250v50q0 400 400 400h400q400 0 400 -400h-300q0 100 -100 100h-400q-100 0 -100 -100v-50q0 -100 100 -100h950l-100 -300h-50v-150q0 -100 100 -100v-300q-155 0 -250 60q-95 -60 -250 -60h-400zM400 400
q0 -100 100 -100h400q100 0 100 100v150h-500q-100 0 -100 -100v-50z" />
    <glyph glyph-name="quotesingle" unicode="'" horiz-adv-x="500" 
d="M100 900v500h300v-500h-300z" />
    <glyph glyph-name="parenleft" unicode="(" horiz-adv-x="800" 
d="M500 200h200v-300h-200q-400 0 -400 400v800q0 400 400 400h200v-300h-200q-100 0 -100 -100v-800q0 -100 100 -100z" />
    <glyph glyph-name="parenright" unicode=")" horiz-adv-x="800" 
d="M300 200q100 0 100 100v800q0 100 -100 100h-200v300h200q400 0 400 -400v-800q0 -400 -400 -400h-200v300h200z" />
    <glyph glyph-name="asterisk" unicode="*" horiz-adv-x="700" 
d="M500 1000v-100h-300v100h-100v300h100v100h300v-100h100v-300h-100z" />
    <glyph glyph-name="plus" unicode="+" horiz-adv-x="1100" 
d="M700 850h300v-300h-300v-300h-300v300h-300v300h300v300h300v-300z" />
    <glyph glyph-name="comma" unicode="," horiz-adv-x="500" 
d="M100 -200v500h300v-500h-300z" />
    <glyph glyph-name="hyphen" unicode="-" horiz-adv-x="1100" 
d="M1000 550h-900v300h900v-300z" />
    <glyph glyph-name="hyphen" unicode="&#xad;" horiz-adv-x="1100" 
d="M1000 550h-900v300h900v-300z" />
    <glyph glyph-name="period" unicode="." horiz-adv-x="500" 
d="M100 0v300h300v-300h-300z" />
    <glyph glyph-name="slash" unicode="/" 
d="M985 1400h360l-930 -1400h-360z" />
    <glyph glyph-name="zero" unicode="0" 
d="M900 300q100 0 100 100v600q0 100 -100 100h-400q-100 0 -100 -100v-600q0 -100 100 -100h400zM1300 400q0 -400 -400 -400h-400q-400 0 -400 400v600q0 400 400 400h400q400 0 400 -400v-600z" />
    <glyph glyph-name="one" unicode="1" horiz-adv-x="600" 
d="M500 0h-300v1100h-150l100 300h350v-1400z" />
    <glyph glyph-name="two" unicode="2" 
d="M400 1000v-50l-300 -100v150q0 400 400 400h400q400 0 400 -400q0 -290 -450 -405t-450 -195v-100h600v150l300 100v-550h-1200v400q0 290 450 405t450 195q0 100 -100 100h-400q-100 0 -100 -100z" />
    <glyph glyph-name="three" unicode="3" 
d="M400 1000v-50l-300 -100v150q0 400 400 400h400q400 0 400 -400v-50q0 -155 -60 -250q60 -95 60 -250v-50q0 -400 -400 -400h-400q-400 0 -400 400v150l300 -100v-50q0 -100 100 -100h400q100 0 100 100v50q0 100 -100 100h-350l-100 300h450q100 0 100 100v50
q0 100 -100 100h-400q-100 0 -100 -100z" />
    <glyph glyph-name="four" unicode="4" 
d="M70 300l100 1100h300l-73 -800h503v800h300v-800h100v-300h-100v-300h-300v300h-830z" />
    <glyph glyph-name="five" unicode="5" 
d="M100 400v150l300 -100v-50q0 -100 100 -100h400q100 0 100 100v150q0 100 -100 100h-800v750h1200v-300h-900v-150h500q400 0 400 -400v-150q0 -400 -400 -400h-400q-400 0 -400 400z" />
    <glyph glyph-name="six" unicode="6" 
d="M900 300q100 0 100 100v50q0 100 -100 100h-500v-150q0 -100 100 -100h400zM1300 400q0 -400 -400 -400h-400q-400 0 -400 400v600q0 400 400 400h400q400 0 400 -400v-60l-300 40v20q0 100 -100 100h-400q-100 0 -100 -100v-150h500q400 0 400 -400v-50z" />
    <glyph glyph-name="seven" unicode="7" horiz-adv-x="1300" 
d="M840 1100h-740v300h1100v-300h-1l-739 -1100h-359z" />
    <glyph glyph-name="eight" unicode="8" 
d="M900 300q100 0 100 100v50q0 100 -100 100h-400q-100 0 -100 -100v-50q0 -100 100 -100h400zM1000 1000q0 100 -100 100h-400q-100 0 -100 -100v-50q0 -100 100 -100h400q100 0 100 100v50zM1300 400q0 -400 -400 -400h-400q-400 0 -400 400v50q0 155 60 250
q-60 95 -60 250v50q0 400 400 400h400q400 0 400 -400v-50q0 -155 -60 -250q60 -95 60 -250v-50z" />
    <glyph glyph-name="nine" unicode="9" 
d="M500 1100q-100 0 -100 -100v-50q0 -100 100 -100h500v150q0 100 -100 100h-400zM100 1000q0 400 400 400h400q400 0 400 -400v-600q0 -400 -400 -400h-400q-400 0 -400 400v60l300 -40v-20q0 -100 100 -100h400q100 0 100 100v150h-500q-400 0 -400 400v50z" />
    <glyph glyph-name="colon" unicode=":" horiz-adv-x="500" 
d="M100 0v300h300v-300h-300zM100 724v300h300v-300h-300z" />
    <glyph glyph-name="semicolon" unicode=";" horiz-adv-x="500" 
d="M100 -200v500h300v-500h-300zM100 724v300h300v-300h-300z" />
    <glyph glyph-name="semicolon" unicode="&#x37e;" horiz-adv-x="500" 
d="M100 -200v500h300v-500h-300zM100 724v300h300v-300h-300z" />
    <glyph glyph-name="less" unicode="&#x3c;" 
d="M1300 971l-707 -271l707 -271v-321l-1200 459v266l1200 459v-321z" />
    <glyph glyph-name="equal" unicode="=" horiz-adv-x="1100" 
d="M1000 800h-900v300h900v-300zM1000 300h-900v300h900v-300z" />
    <glyph glyph-name="greater" unicode="&#x3e;" 
d="M100 971v321l1200 -459v-266l-1200 -459v321l707 271z" />
    <glyph glyph-name="question" unicode="?" 
d="M400 300v-300h-300v300h300zM900 1100h-800v300h800q400 0 400 -400v-50q0 -400 -400 -400h-500v-50h-300v350h800q100 0 100 100v50q0 100 -100 100z" />
    <glyph glyph-name="at" unicode="@" 
d="M620 300h160l-80 207zM400 1000v-437l167 437h266l167 -437v437q0 100 -100 100h-400q-100 0 -100 -100zM1300 400q0 -400 -400 -400h-400q-400 0 -400 400v600q0 400 400 400h400q400 0 400 -400v-600z" />
    <glyph glyph-name="A" unicode="A" 
d="M856 500l-156 407l-156 -407h312zM971 200h-542l-77 -200h-321l536 1400h266l536 -1400h-321z" />
    <glyph glyph-name="B" unicode="B" 
d="M900 300q100 0 100 100v50q0 100 -100 100h-500v-250h500zM1000 1000q0 100 -100 100h-500v-250h500q100 0 100 100v50zM1300 400q0 -400 -400 -400h-800v1400h800q400 0 400 -400v-50q0 -155 -60 -250q60 -95 60 -250v-50z" />
    <glyph glyph-name="C" unicode="C" 
d="M1000 400v100l300 100v-200q0 -400 -400 -400h-400q-400 0 -400 400v600q0 400 400 400h400q400 0 400 -400v-200l-300 100v100q0 100 -100 100h-400q-100 0 -100 -100v-600q0 -100 100 -100h400q100 0 100 100z" />
    <glyph glyph-name="D" unicode="D" 
d="M1300 400q0 -400 -400 -400h-800v1400h800q400 0 400 -400v-600zM900 300q100 0 100 100v600q0 100 -100 100h-500v-800h500z" />
    <glyph glyph-name="E" unicode="E" horiz-adv-x="1300" 
d="M400 300h850l-100 -300h-1050v1400h1100v-300h-800v-250h700l-100 -300h-600v-250z" />
    <glyph glyph-name="F" unicode="F" horiz-adv-x="1300" 
d="M1200 1400v-300h-800v-250h750l-100 -300h-650v-550h-300v1400h1100z" />
    <glyph glyph-name="G" unicode="G" 
d="M500 1400h850l-100 -300h-750q-100 0 -100 -100v-600q0 -100 100 -100h500v250h-300l-100 300h700v-850h-800q-400 0 -400 400v600q0 400 400 400z" />
    <glyph glyph-name="H" unicode="H" 
d="M400 550v-550h-300v1400h300v-550h600v550h300v-1400h-300v550h-600z" />
    <glyph glyph-name="I" unicode="I" horiz-adv-x="500" 
d="M100 0v1400h300v-1400h-300z" />
    <glyph glyph-name="J" unicode="J" 
d="M1000 400v1000h300v-1000q0 -400 -400 -400h-400q-400 0 -400 400v200l300 -100v-100q0 -100 100 -100h400q100 0 100 100z" />
    <glyph glyph-name="K" unicode="K" 
d="M620 850l365 550h360l-465 -700l465 -700h-360l-365 550h-220v-550h-300v1400h300v-550h220z" />
    <glyph glyph-name="L" unicode="L" horiz-adv-x="1200" 
d="M100 1400h300v-1100h750l-100 -300h-950v1400z" />
    <glyph glyph-name="M" unicode="M" horiz-adv-x="1600" 
d="M400 880v-880h-300v1400h315l385 -579l385 579h315v-1400h-300v880l-400 -602z" />
    <glyph glyph-name="N" unicode="N" 
d="M400 880v-880h-300v1400h315l585 -880v880h300v-1400h-315z" />
    <glyph glyph-name="O" unicode="O" 
d="M900 300q100 0 100 100v600q0 100 -100 100h-400q-100 0 -100 -100v-600q0 -100 100 -100h400zM1300 400q0 -400 -400 -400h-400q-400 0 -400 400v600q0 400 400 400h400q400 0 400 -400v-600z" />
    <glyph glyph-name="P" unicode="P" 
d="M900 1400q400 0 400 -400v-50q0 -400 -400 -400h-500v-550h-300v1400h800zM1000 1000q0 100 -100 100h-500v-250h500q100 0 100 100v50z" />
    <glyph glyph-name="Q" unicode="Q" 
d="M963 316q37 23 37 84v600q0 100 -100 100h-400q-100 0 -100 -100v-600q0 -100 100 -100h126l-116 200h347zM1300 400q0 -268 -180 -357l83 -143h-346l-58 100h-299q-400 0 -400 400v600q0 400 400 400h400q400 0 400 -400v-600z" />
    <glyph glyph-name="R" unicode="R" 
d="M900 1400q400 0 400 -400v-50q0 -347 -301 -393l322 -557h-346l-318 550h-257v-550h-300v1400h800zM1000 1000q0 100 -100 100h-500v-250h500q100 0 100 100v50z" />
    <glyph glyph-name="S" unicode="S" 
d="M100 400v150l300 -100v-50q0 -100 100 -100h400q100 0 100 100q0 80 -450 195t-450 405q0 400 400 400h400q400 0 400 -400v-150l-300 100v50q0 100 -100 100h-400q-100 0 -100 -100q0 -80 450 -195t450 -405q0 -400 -400 -400h-400q-400 0 -400 400z" />
    <glyph glyph-name="T" unicode="T" horiz-adv-x="1300" 
d="M800 1100v-1100h-300v1100h-400v300h1100v-300h-400z" />
    <glyph glyph-name="U" unicode="U" 
d="M100 400v1000h300v-1000q0 -100 100 -100h400q100 0 100 100v1000h300v-1000q0 -400 -400 -400h-400q-400 0 -400 400z" />
    <glyph glyph-name="V" unicode="V" 
d="M1048 1400h321l-536 -1400h-266l-536 1400h321l348 -907z" />
    <glyph glyph-name="W" unicode="W" horiz-adv-x="1900" 
d="M950 1145l98 255h321l-258 -674l89 -233l348 907h321l-536 -1400h-266l-117 306l-117 -306h-266l-536 1400h321l348 -907l89 233l-258 674h321z" />
    <glyph glyph-name="X" unicode="X" 
d="M520 700l-465 700h360l285 -429l285 429h360l-465 -700l465 -700h-360l-285 429l-285 -429h-360z" />
    <glyph glyph-name="Y" unicode="Y" 
d="M850 655v-655h-300v655l-495 745h360l285 -429l285 429h360z" />
    <glyph glyph-name="Z" unicode="Z" horiz-adv-x="1300" 
d="M500 300h700v-300h-1100v300h1l699 800h-700v300h1100v-300h-1z" />
    <glyph glyph-name="bracketleft" unicode="[" horiz-adv-x="800" 
d="M700 200v-300h-600v1600h600v-300h-300v-1000h300z" />
    <glyph glyph-name="backslash" unicode="\" 
d="M415 1400l930 -1400h-360l-930 1400h360z" />
    <glyph glyph-name="bracketright" unicode="]" horiz-adv-x="800" 
d="M100 200h300v1000h-300v300h600v-1600h-600v300z" />
    <glyph glyph-name="asciicircum" unicode="^" horiz-adv-x="500" 
d="M100 900v500h300v-500h-300z" />
    <glyph glyph-name="underscore" unicode="_" horiz-adv-x="1300" 
d="M100 0v300h1100v-300h-1100z" />
    <glyph glyph-name="grave" unicode="`" horiz-adv-x="500" 
d="M100 900v500h300v-500h-300z" />
    <glyph glyph-name="a" unicode="a" 
d="M856 500l-156 407l-156 -407h312zM971 200h-542l-77 -200h-321l536 1400h266l536 -1400h-321z" />
    <glyph glyph-name="b" unicode="b" 
d="M900 300q100 0 100 100v50q0 100 -100 100h-500v-250h500zM1000 1000q0 100 -100 100h-500v-250h500q100 0 100 100v50zM1300 400q0 -400 -400 -400h-800v1400h800q400 0 400 -400v-50q0 -155 -60 -250q60 -95 60 -250v-50z" />
    <glyph glyph-name="c" unicode="c" 
d="M1000 400v100l300 100v-200q0 -400 -400 -400h-400q-400 0 -400 400v600q0 400 400 400h400q400 0 400 -400v-200l-300 100v100q0 100 -100 100h-400q-100 0 -100 -100v-600q0 -100 100 -100h400q100 0 100 100z" />
    <glyph glyph-name="d" unicode="d" 
d="M1300 400q0 -400 -400 -400h-800v1400h800q400 0 400 -400v-600zM900 300q100 0 100 100v600q0 100 -100 100h-500v-800h500z" />
    <glyph glyph-name="e" unicode="e" horiz-adv-x="1300" 
d="M400 300h850l-100 -300h-1050v1400h1100v-300h-800v-250h700l-100 -300h-600v-250z" />
    <glyph glyph-name="f" unicode="f" horiz-adv-x="1300" 
d="M1200 1400v-300h-800v-250h750l-100 -300h-650v-550h-300v1400h1100z" />
    <glyph glyph-name="g" unicode="g" 
d="M500 1400h850l-100 -300h-750q-100 0 -100 -100v-600q0 -100 100 -100h500v250h-300l-100 300h700v-850h-800q-400 0 -400 400v600q0 400 400 400z" />
    <glyph glyph-name="h" unicode="h" 
d="M400 550v-550h-300v1400h300v-550h600v550h300v-1400h-300v550h-600z" />
    <glyph glyph-name="i" unicode="i" horiz-adv-x="500" 
d="M100 0v1400h300v-1400h-300z" />
    <glyph glyph-name="j" unicode="j" 
d="M1000 400v1000h300v-1000q0 -400 -400 -400h-400q-400 0 -400 400v200l300 -100v-100q0 -100 100 -100h400q100 0 100 100z" />
    <glyph glyph-name="k" unicode="k" 
d="M620 850l365 550h360l-465 -700l465 -700h-360l-365 550h-220v-550h-300v1400h300v-550h220z" />
    <glyph glyph-name="l" unicode="l" horiz-adv-x="1200" 
d="M100 1400h300v-1100h750l-100 -300h-950v1400z" />
    <glyph glyph-name="m" unicode="m" horiz-adv-x="1600" 
d="M400 880v-880h-300v1400h315l385 -579l385 579h315v-1400h-300v880l-400 -602z" />
    <glyph glyph-name="n" unicode="n" 
d="M400 880v-880h-300v1400h315l585 -880v880h300v-1400h-315z" />
    <glyph glyph-name="o" unicode="o" 
d="M900 300q100 0 100 100v600q0 100 -100 100h-400q-100 0 -100 -100v-600q0 -100 100 -100h400zM1300 400q0 -400 -400 -400h-400q-400 0 -400 400v600q0 400 400 400h400q400 0 400 -400v-600z" />
    <glyph glyph-name="p" unicode="p" 
d="M900 1400q400 0 400 -400v-50q0 -400 -400 -400h-500v-550h-300v1400h800zM1000 1000q0 100 -100 100h-500v-250h500q100 0 100 100v50z" />
    <glyph glyph-name="q" unicode="q" 
d="M963 316q37 23 37 84v600q0 100 -100 100h-400q-100 0 -100 -100v-600q0 -100 100 -100h126l-116 200h347zM1300 400q0 -268 -180 -357l83 -143h-346l-58 100h-299q-400 0 -400 400v600q0 400 400 400h400q400 0 400 -400v-600z" />
    <glyph glyph-name="r" unicode="r" 
d="M900 1400q400 0 400 -400v-50q0 -347 -301 -393l322 -557h-346l-318 550h-257v-550h-300v1400h800zM1000 1000q0 100 -100 100h-500v-250h500q100 0 100 100v50z" />
    <glyph glyph-name="s" unicode="s" 
d="M100 400v150l300 -100v-50q0 -100 100 -100h400q100 0 100 100q0 80 -450 195t-450 405q0 400 400 400h400q400 0 400 -400v-150l-300 100v50q0 100 -100 100h-400q-100 0 -100 -100q0 -80 450 -195t450 -405q0 -400 -400 -400h-400q-400 0 -400 400z" />
    <glyph glyph-name="t" unicode="t" horiz-adv-x="1300" 
d="M800 1100v-1100h-300v1100h-400v300h1100v-300h-400z" />
    <glyph glyph-name="u" unicode="u" 
d="M100 400v1000h300v-1000q0 -100 100 -100h400q100 0 100 100v1000h300v-1000q0 -400 -400 -400h-400q-400 0 -400 400z" />
    <glyph glyph-name="v" unicode="v" 
d="M1048 1400h321l-536 -1400h-266l-536 1400h321l348 -907z" />
    <glyph glyph-name="w" unicode="w" horiz-adv-x="1900" 
d="M950 1145l98 255h321l-258 -674l89 -233l348 907h321l-536 -1400h-266l-117 306l-117 -306h-266l-536 1400h321l348 -907l89 233l-258 674h321z" />
    <glyph glyph-name="x" unicode="x" 
d="M520 700l-465 700h360l285 -429l285 429h360l-465 -700l465 -700h-360l-285 429l-285 -429h-360z" />
    <glyph glyph-name="y" unicode="y" 
d="M850 655v-655h-300v655l-495 745h360l285 -429l285 429h360z" />
    <glyph glyph-name="z" unicode="z" horiz-adv-x="1300" 
d="M500 300h700v-300h-1100v300h1l699 800h-700v300h1100v-300h-1z" />
    <glyph glyph-name="braceleft" unicode="{" horiz-adv-x="900" 
d="M700 200h100v-300h-100q-400 0 -400 400v150q0 100 -100 100h-100v300h100q100 0 100 100v150q0 400 400 400h100v-300h-100q-100 0 -100 -100v-150q0 -155 -60 -250q60 -95 60 -250v-150q0 -100 100 -100z" />
    <glyph glyph-name="bar" unicode="|" horiz-adv-x="500" 
d="M100 -100v1600h300v-1600h-300z" />
    <glyph glyph-name="braceright" unicode="}" horiz-adv-x="900" 
d="M200 200q100 0 100 100v150q0 155 60 250q-60 95 -60 250v150q0 100 -100 100h-100v300h100q400 0 400 -400v-150q0 -100 100 -100h100v-300h-100q-100 0 -100 -100v-150q0 -400 -400 -400h-100v300h100z" />
    <glyph glyph-name="asciitilde" unicode="~" horiz-adv-x="1100" 
d="M1000 550h-900v300h900v-300z" />
    </font>
</defs>
</svg>
