<?xml version="1.0" standalone="no"?>
<!DOCTYPE svg PUBLIC "-//W3C//DTD SVG 1.1//EN" "http://www.w3.org/Graphics/SVG/1.1/DTD/svg11.dtd" >
<svg>
<metadata>
Created by FontForge 20120731 at Mon Mar 25 17:34:49 2019
 By www-data
Roar DediT. 2019. All Rights Reserved
</metadata>
<defs>
<font id="Roar-Bold" horiz-adv-x="1108" >
  <font-face 
    font-family="Roar"
    font-weight="700"
    font-stretch="normal"
    units-per-em="2048"
    panose-1="2 0 8 0 0 0 0 0 0 0"
    ascent="1638"
    descent="-410"
    x-height="989"
    cap-height="1430"
    bbox="-950 -603 2275 1707"
    underline-thickness="150"
    underline-position="-142"
    unicode-range="U+001D-2265"
  />
<missing-glyph horiz-adv-x="1024" 
d="M200 0v1434h824v-1434h-824zM250 50h724v1334h-724v-1334zM400 1143c23 21 44 36 63 47c41 23 85 35 132 35c71 0 127 -17 168 -52s61 -78 61 -129c0 -31 -7 -63 -22 -96s-45 -76 -88 -129c-41 -53 -74 -96 -98 -131c-25 -35 -37 -70 -37 -104c0 -25 9 -71 26 -138h-82
c-25 70 -38 121 -38 154c0 49 27 120 82 215c54 95 81 168 81 219c0 41 -9 70 -28 89s-42 28 -70 28c-19 0 -35 -4 -50 -12c-16 -9 -49 -35 -100 -79v83zM480 331l58 59c9 8 19 12 29 12c9 0 19 -5 30 -14l56 -60c5 -7 8 -14 8 -19c0 -7 -3 -14 -10 -21l-56 -62
c-11 -11 -21 -17 -28 -17c-11 0 -21 4 -29 13l-62 71c-5 6 -7 12 -7 17c0 7 4 14 11 21z" />
    <glyph glyph-name=".notdef" horiz-adv-x="1024" 
d="M200 0v1434h824v-1434h-824zM250 50h724v1334h-724v-1334zM400 1143c23 21 44 36 63 47c41 23 85 35 132 35c71 0 127 -17 168 -52s61 -78 61 -129c0 -31 -7 -63 -22 -96s-45 -76 -88 -129c-41 -53 -74 -96 -98 -131c-25 -35 -37 -70 -37 -104c0 -25 9 -71 26 -138h-82
c-25 70 -38 121 -38 154c0 49 27 120 82 215c54 95 81 168 81 219c0 41 -9 70 -28 89s-42 28 -70 28c-19 0 -35 -4 -50 -12c-16 -9 -49 -35 -100 -79v83zM480 331l58 59c9 8 19 12 29 12c9 0 19 -5 30 -14l56 -60c5 -7 8 -14 8 -19c0 -7 -3 -14 -10 -21l-56 -62
c-11 -11 -21 -17 -28 -17c-11 0 -21 4 -29 13l-62 71c-5 6 -7 12 -7 17c0 7 4 14 11 21z" />
    <glyph glyph-name=".null" horiz-adv-x="0" 
 />
    <glyph glyph-name=".null" horiz-adv-x="0" 
 />
    <glyph glyph-name="nonmarkingreturn" horiz-adv-x="508" 
 />
    <glyph glyph-name="space" unicode=" " horiz-adv-x="508" 
 />
    <glyph glyph-name="space" unicode="&#xa0;" horiz-adv-x="508" 
 />
    <glyph glyph-name="exclam" unicode="!" horiz-adv-x="720" 
d="M565 257c18 -14 44 -12 77 5c7 4 14 10 22 18s15 16 21 24s9 14 9 18c0 2 2 5 4 9c2 5 5 9 9 13c3 3 6 8 8 16c2 7 3 19 4 35c1 17 1 40 1 70c1 59 3 119 5 180c3 61 5 110 9 147c1 13 2 31 4 53c2 23 4 46 6 68s4 47 5 74c1 26 2 48 2 64c0 18 1 34 2 50c1 15 3 26 5 33
c3 12 3 31 1 56c-2 26 -6 51 -11 77s-11 46 -18 60c-10 20 -20 36 -31 47c-10 11 -27 23 -49 36c-27 16 -55 26 -83 29c-13 1 -23 2 -30 2s-13 -2 -19 -4c-5 -3 -11 -7 -19 -13c-34 -27 -51 -62 -53 -105c0 -9 1 -22 3 -41c2 -18 5 -37 8 -56c4 -25 7 -53 8 -84
c1 -30 1 -72 0 -126c-1 -40 -2 -80 -1 -119s2 -67 4 -87c2 -18 4 -39 7 -63c2 -25 5 -46 7 -64c2 -19 4 -37 6 -55s3 -32 4 -41c2 -16 7 -45 15 -88s17 -86 26 -127c9 -42 15 -68 19 -79c2 -5 3 -10 4 -13c0 -4 -1 -5 -2 -6c-1 0 -1 -1 1 -4c2 -2 5 -5 10 -9zM646 6
c17 -1 37 7 61 22c14 9 24 17 30 24s10 18 14 31c9 38 -1 69 -30 92s-70 32 -123 29c-16 -2 -28 -4 -37 -7c-9 -4 -18 -9 -26 -17c-30 -27 -42 -48 -36 -60c1 -3 2 -5 2 -7c0 -3 -1 -4 -2 -5c-10 -8 -1 -27 26 -55c30 -29 71 -45 121 -47z" />
    <glyph glyph-name="quotedbl" unicode="&#x22;" horiz-adv-x="806" 
d="M603 1098c2 0 9 0 21 1c13 0 32 19 58 56s41 87 46 148c4 44 2 88 -7 134c-8 45 -24 80 -47 106c-34 34 -68 52 -101 55c-31 2 -61 -9 -91 -33c-30 -27 -46 -58 -49 -94c-3 -37 8 -79 35 -126c11 -20 21 -40 28 -60s11 -36 10 -47c0 -11 3 -25 9 -42c6 -16 14 -32 24 -47
c22 -32 43 -49 64 -51zM169 1089c7 0 15 1 23 2c75 11 123 98 144 260c2 19 4 35 4 50c0 18 -4 37 -10 56c-6 18 -25 44 -55 76c-48 52 -91 78 -130 78c-28 0 -54 -13 -77 -40c-24 -27 -36 -63 -36 -107c0 -41 11 -90 33 -146s38 -109 48 -161c5 -31 14 -50 25 -59
c7 -6 17 -9 31 -9z" />
    <glyph glyph-name="numbersign" unicode="#" horiz-adv-x="1492" 
d="M660 600c-14 0 -27 1 -38 3c-16 4 -25 15 -25 34c0 14 3 24 9 32c11 14 21 36 28 67c14 66 51 100 112 100c10 0 21 -1 33 -3c52 -6 78 -23 78 -53c0 -22 -11 -55 -34 -99c-11 -24 -21 -42 -29 -53c-9 -11 -20 -18 -33 -21c-24 -5 -57 -7 -101 -7zM735 52
c15 0 30 9 44 26c21 26 49 79 85 160c1 4 3 7 5 11c9 22 19 48 29 78c20 57 34 89 42 94c5 1 14 2 28 2c16 0 39 -1 68 -3c47 -4 100 -6 159 -6c28 -3 50 -4 67 -4c6 0 15 1 26 1c12 1 20 4 25 11c5 6 10 17 13 31l1 4c3 7 6 18 9 34c7 31 11 54 11 70c0 3 -1 6 -3 10
c-4 6 -48 12 -133 16l-61 5c-76 4 -116 8 -120 12c-1 1 -2 4 -2 8c0 20 10 56 30 107c21 52 40 84 58 96c9 7 24 11 46 13s58 3 107 3c112 0 178 8 199 25c11 10 17 24 17 43c0 26 -10 47 -30 64c-41 35 -106 52 -195 52c-57 0 -85 2 -85 8s14 40 42 103s42 109 42 138
c0 31 -9 59 -28 83s-41 36 -66 36c-12 0 -23 -4 -32 -12c-15 -13 -46 -67 -92 -164c-54 -115 -89 -177 -105 -185c-12 -3 -35 -5 -71 -5l-138 7l57 133c37 87 56 150 56 190c0 36 -12 61 -35 76c-15 10 -32 15 -49 15c-48 0 -78 -23 -91 -68c-15 -71 -59 -191 -131 -359
l-76 11c-31 2 -63 6 -96 10s-58 7 -76 10c-19 3 -32 5 -41 5c-15 0 -22 -12 -22 -35c-1 -11 -2 -21 -2 -30c0 -34 12 -58 38 -72c25 -13 62 -22 113 -26l30 -4c40 -6 59 -16 59 -29c0 -9 -3 -21 -10 -35c-6 -15 -14 -34 -21 -57c-12 -41 -19 -72 -22 -93
c-3 -19 -6 -32 -11 -40c-4 -8 -16 -12 -34 -12c-14 0 -33 1 -59 4c-32 4 -65 7 -100 7c-10 0 -23 -1 -39 -2c-17 -1 -29 -6 -38 -15c-14 -13 -21 -32 -21 -56c0 -16 7 -27 20 -36c13 -8 36 -16 69 -23c34 -7 89 -24 166 -52l-20 -86c-19 -43 -29 -98 -29 -167
c-3 -11 -5 -21 -5 -29c0 -37 30 -56 89 -59c8 -2 14 -3 19 -3c6 0 10 2 13 6c4 4 7 16 10 36c10 39 20 75 31 108c34 110 61 172 78 187c14 9 39 13 74 13c20 0 40 -2 60 -5c25 -5 37 -12 37 -21c0 -10 -7 -35 -21 -74c-12 -34 -22 -67 -30 -99c-18 -82 -27 -138 -27 -168
c0 -18 18 -27 54 -28h41z" />
    <glyph glyph-name="dollar" unicode="$" horiz-adv-x="1298" 
d="M580 846c-3 -6 -15 -10 -34 -11c-19 -2 -40 -1 -63 4c-22 6 -41 16 -55 32c-15 15 -19 38 -14 67c14 52 34 94 58 126c25 32 60 47 105 46c9 0 16 -4 19 -13c4 -9 7 -25 7 -49c1 -23 0 -57 -1 -101c-1 -24 -2 -42 -3 -54c-2 -12 -4 -20 -6 -25s-4 -9 -6 -11
c-2 -3 -4 -6 -7 -11zM922 350c-76 -40 -130 -59 -162 -56s-42 39 -30 107c-4 50 -4 86 1 107c6 21 16 34 31 37c15 4 35 4 60 2c14 -2 29 -2 45 -3c25 -1 50 -12 73 -34c24 -21 37 -47 39 -76c2 -30 -17 -58 -57 -84zM529 -5l25 -129c31 -40 59 -56 86 -49c26 7 46 28 60 63
c15 35 19 74 13 118c11 9 33 18 68 26c34 9 71 17 111 25c35 7 64 13 88 19c69 37 126 72 172 105c16 10 32 21 48 32c42 57 64 122 65 194s-19 143 -58 214c-31 50 -75 93 -135 127c-60 35 -120 54 -182 57c-25 0 -47 -1 -66 -2c-27 -3 -47 -1 -59 4c-12 6 -17 24 -15 53
s9 78 23 146c-6 60 1 99 21 117c19 18 44 24 72 18c29 -5 55 -13 77 -24c43 -20 79 -38 107 -55c32 -19 59 -32 81 -38s44 -2 66 13s49 45 81 90c7 38 -5 75 -38 113c-32 37 -79 71 -140 102s-129 56 -206 76c-28 9 -48 14 -60 15c-8 1 -13 2 -16 4c-4 2 0 17 12 45
c11 28 10 54 -4 76s-37 35 -70 40s-67 1 -102 -13c-2 -2 -4 -3 -4 -4c0 -2 0 -4 1 -7c0 -3 1 -11 2 -21c0 -11 -1 -29 -5 -54s-7 -40 -10 -45c-2 -5 -6 -8 -11 -9c-120 -23 -214 -64 -284 -124s-126 -153 -168 -280c-5 -36 -9 -62 -11 -79c-2 -18 -3 -31 -2 -39
c0 -9 1 -19 3 -29c2 -13 4 -35 7 -67c28 -79 66 -137 115 -173s100 -59 154 -68c11 -1 22 -1 31 -2c31 -1 53 -4 66 -7s20 -10 23 -21c2 -11 1 -28 -1 -53c-1 -10 -2 -21 -2 -33c-7 -50 -10 -88 -8 -113c1 -18 0 -30 -3 -37c-2 -6 -10 -8 -22 -4c-13 4 -33 12 -62 25
c-26 12 -62 27 -106 46c-34 54 -75 91 -124 111c-50 20 -93 25 -131 12c-37 -12 -55 -40 -52 -83c2 -44 39 -103 109 -178c15 -13 28 -25 40 -35c30 -27 56 -49 77 -65s50 -35 86 -55c36 -21 92 -51 167 -91z" />
    <glyph glyph-name="percent" unicode="%" horiz-adv-x="1232" 
d="M981 188c-4 0 -15 1 -31 5c-16 3 -25 24 -28 63l-1 10c0 70 21 105 62 105c11 0 23 -4 35 -11c26 -15 42 -24 47 -29c10 -10 16 -24 16 -42c0 -7 -2 -15 -4 -25s-12 -24 -28 -43c-23 -22 -45 -33 -68 -33zM988 23c26 0 47 1 62 4c14 3 29 10 45 21s36 29 61 52
s47 46 65 68c18 23 29 40 33 52c1 9 2 19 2 29c0 21 -4 49 -13 82s-23 66 -42 98c-20 33 -38 49 -55 49c-13 0 -34 15 -63 46c-30 30 -61 46 -95 46c-46 0 -97 -29 -152 -87c-27 -28 -46 -58 -58 -90c-12 -31 -17 -69 -17 -114c0 -87 32 -159 97 -217c17 -15 35 -26 53 -31
s44 -8 77 -8zM315 7c26 0 54 10 85 31c33 24 114 126 244 303l43 60c25 32 55 76 92 132c36 57 66 106 89 148c33 62 73 129 119 199s77 124 91 161c15 37 43 91 87 163c44 71 65 126 65 164c0 29 -15 44 -45 44c-31 0 -74 -34 -128 -102l-110 -130
c-70 -79 -118 -142 -143 -190c-24 -42 -63 -100 -118 -172c-62 -83 -105 -149 -130 -198c-25 -48 -68 -117 -129 -206c-58 -86 -103 -162 -134 -229c-24 -55 -37 -97 -37 -124c0 -6 1 -11 2 -16c9 -25 28 -38 57 -38zM585 972c74 0 142 38 203 113c39 48 58 88 58 120
c0 22 -7 47 -20 76c-26 55 -58 96 -97 125c-40 29 -84 44 -133 44c-33 0 -62 -8 -88 -23s-51 -39 -76 -73c-35 -47 -52 -99 -52 -154c0 -43 11 -84 33 -123s57 -70 103 -91c22 -9 45 -14 69 -14zM553 1121c-19 0 -28 23 -28 70c0 58 24 87 72 87c16 0 26 -3 31 -9
c4 -6 7 -19 7 -38c0 -13 -3 -28 -9 -43s-14 -27 -22 -36c-21 -21 -38 -31 -51 -31z" />
    <glyph glyph-name="ampersand" unicode="&#x26;" horiz-adv-x="1773" 
d="M1389 1021c6 -20 -2 -43 -25 -67c-23 -25 -50 -50 -83 -76c-43 -33 -76 -65 -98 -95c-9 0 -26 12 -51 35c-25 24 -50 51 -73 84c-24 32 -38 61 -42 89c-3 40 4 73 22 97s41 42 69 54c28 11 55 18 82 20c26 2 53 -6 81 -23c28 -16 52 -36 74 -59s36 -43 44 -59zM1355 279
c-22 -17 -56 -28 -101 -35c-45 -6 -91 -7 -138 0c-47 6 -86 20 -116 43c-16 15 -23 36 -19 64c3 28 14 56 31 83c18 28 39 49 65 63c26 15 53 16 80 5c11 -8 22 -17 33 -25c41 -29 78 -60 110 -91c32 -32 50 -68 55 -107zM1198 2c75 0 147 13 214 40c68 27 123 53 167 78
c5 3 10 6 14 8c13 5 25 3 38 -6c12 -10 25 -22 37 -35c8 -10 17 -18 25 -25c7 -8 15 -11 22 -12c36 -5 66 5 92 28c26 24 40 53 42 89c1 35 -15 69 -51 100c-1 1 -2 3 -2 4c-3 3 -4 6 -5 7c-1 2 -1 3 0 5l4 4c5 2 13 10 23 22c11 12 25 32 41 62c53 97 80 178 81 243
s-23 119 -73 161c-41 35 -82 42 -123 23s-76 -64 -105 -134c-12 -32 -19 -63 -22 -94c-2 -24 -6 -44 -12 -60s-18 -26 -36 -28c-15 7 -35 21 -59 41c-25 21 -49 44 -73 69s-43 47 -58 67c-14 20 -20 33 -16 39c0 1 1 2 1 3c1 0 1 1 1 2c1 1 1 3 2 4c1 2 3 4 7 7
c3 3 8 7 16 11c7 5 17 11 29 18c44 25 81 54 113 87c31 32 61 67 89 103c18 23 37 46 57 69c26 34 29 82 9 144c-21 61 -55 120 -102 178c-48 58 -99 98 -153 122c-16 6 -42 14 -81 23c-38 9 -82 14 -131 16c-50 2 -99 -5 -146 -20c-48 -15 -89 -44 -124 -86
c-82 -44 -134 -106 -156 -187s-16 -165 18 -253s94 -165 181 -230l-155 -122c-65 -96 -94 -189 -85 -280c10 -91 52 -165 128 -223c76 -57 182 -85 317 -82z" />
    <glyph glyph-name="quotesingle" unicode="'" horiz-adv-x="406" 
d="M263 1065c2 0 11 1 25 3c15 2 36 26 63 74c27 47 40 108 40 183c0 52 -7 105 -21 158s-37 93 -67 121c-45 38 -88 57 -127 57c-38 0 -73 -17 -105 -50c-34 -35 -51 -74 -51 -117c0 -45 19 -94 55 -147c16 -22 29 -45 40 -69s17 -42 17 -55s5 -29 15 -49
c9 -20 20 -38 34 -55c29 -36 57 -54 82 -54z" />
    <glyph glyph-name="parenleft" unicode="(" horiz-adv-x="859" 
d="M557 -386c37 0 68 15 94 44c14 16 21 36 21 59c0 26 -12 72 -36 140c-83 237 -125 463 -125 677c0 46 7 144 20 294c14 149 92 313 235 490c66 79 99 141 99 184c0 52 -45 77 -135 77c-29 0 -59 -7 -89 -22c-29 -14 -71 -47 -124 -97c-40 -36 -77 -75 -111 -116
c-35 -41 -59 -75 -72 -101s-30 -55 -49 -88c-19 -32 -54 -122 -104 -268l-21 -168c-19 -104 -28 -207 -28 -309c0 -42 30 -166 90 -375c59 -208 134 -337 223 -387c42 -23 79 -34 112 -34z" />
    <glyph glyph-name="parenright" unicode=")" horiz-adv-x="1038" 
d="M338 -422c71 4 145 43 221 118c52 51 102 110 150 176c73 97 138 192 195 284c105 170 154 337 145 499c-1 31 -5 62 -10 94c1 14 2 30 1 46c-7 129 -56 266 -148 413c-55 87 -126 162 -212 224c-181 121 -308 180 -382 176l-17 -2c-76 -17 -112 -53 -109 -109
c2 -54 58 -129 166 -225c114 -120 190 -230 228 -330c22 -60 36 -129 40 -206c2 -51 1 -104 -4 -161c-3 -57 -9 -102 -17 -137s-24 -73 -49 -115c-24 -42 -63 -102 -116 -180c-82 -122 -143 -211 -182 -265c-55 -75 -82 -119 -82 -133l2 -12c7 -67 30 -111 67 -132
c38 -17 76 -25 113 -23z" />
    <glyph glyph-name="asterisk" unicode="*" horiz-adv-x="1092" 
d="M910 984c15 0 26 5 34 17s14 27 20 45c8 15 12 27 12 36c0 14 -4 30 -11 49c-3 13 -5 22 -5 27c0 3 2 4 5 4c4 0 16 -4 36 -11c30 -15 53 -22 69 -22l5 1c17 2 32 5 45 8c13 2 21 5 24 8s4 6 4 9c0 6 -4 14 -11 24c-8 11 -29 32 -62 66c-51 21 -77 36 -77 44s13 17 37 28
c14 7 31 16 52 29c11 4 24 21 39 50c15 30 23 50 23 62c0 13 -11 19 -33 19c-13 0 -30 -2 -51 -5l-14 -2c-9 -12 -23 -23 -39 -35c-17 -12 -31 -18 -43 -18c-15 0 -23 12 -23 37c0 19 7 49 19 88c-13 16 -32 31 -56 43c-18 9 -33 13 -46 13c-20 0 -38 -11 -53 -32
c-11 -14 -17 -29 -18 -45c18 -51 27 -83 27 -96c0 -9 -3 -13 -9 -13c-1 0 -4 0 -11 2c-6 1 -26 20 -61 58c-23 25 -48 38 -74 38c-13 0 -26 -3 -39 -9c-17 -9 -25 -20 -25 -33c0 -8 2 -18 6 -30c13 -34 30 -57 54 -70c17 -4 36 -11 56 -20c36 -16 54 -31 54 -43
c0 -4 -4 -9 -12 -13c-7 -5 -33 -8 -77 -8c-47 -45 -70 -78 -70 -98c0 -13 8 -23 23 -31c10 -6 22 -9 36 -9c20 0 48 6 84 17c17 12 32 18 44 18c3 0 6 -1 11 -2c4 -1 7 -7 7 -17c1 -11 -4 -29 -14 -53l3 -14c1 -29 11 -54 28 -75c24 -24 50 -36 77 -36z" />
    <glyph glyph-name="plus" unicode="+" 
d="M611 204c21 0 38 5 50 15s22 29 31 57c7 20 13 46 18 76c4 30 7 58 7 82c0 117 60 176 181 178c134 0 203 39 205 117c0 39 -21 71 -63 96c-41 24 -96 37 -163 37c-28 0 -54 1 -81 3c-26 2 -41 7 -45 15s-6 20 -6 37c0 27 -3 64 -9 111s-13 81 -22 102
c-8 20 -45 31 -111 31c-20 0 -34 -3 -45 -7c-10 -4 -19 -13 -25 -27c-7 -14 -14 -51 -21 -112c-13 -52 -25 -89 -37 -113c-11 -24 -28 -39 -51 -47c-22 -8 -56 -13 -102 -16c-81 -9 -137 -28 -167 -58c-18 -18 -27 -37 -27 -56c0 -15 8 -34 23 -60s61 -52 137 -78
c54 -18 90 -35 108 -53s27 -46 27 -82c0 -42 8 -84 24 -125c17 -42 37 -72 62 -92c11 -8 26 -15 46 -21s38 -9 56 -10z" />
    <glyph glyph-name="comma" unicode="," horiz-adv-x="625" 
d="M432 -348c4 0 13 2 29 5c15 4 49 33 103 88c41 40 67 74 77 102c6 16 9 36 9 59c0 19 -2 40 -6 63c-13 97 -38 168 -76 215c-37 46 -89 69 -154 69c-46 0 -77 -5 -94 -16c-28 -17 -42 -56 -42 -117c0 -42 8 -82 22 -119c15 -37 23 -77 23 -121c0 -17 -2 -33 -6 -48
c-3 -15 -5 -29 -5 -42c0 -35 13 -65 38 -90c29 -32 57 -48 82 -48z" />
    <glyph glyph-name="hyphen" unicode="-" horiz-adv-x="774" 
d="M432 377c126 0 215 8 266 24c51 17 77 46 80 88c1 7 1 14 1 20c0 24 -7 43 -23 57c-20 18 -73 27 -160 27c-52 0 -120 -2 -203 -7c-156 -8 -250 -18 -283 -28c-32 -10 -48 -31 -48 -61c0 -62 71 -100 212 -113c51 -5 104 -7 158 -7z" />
    <glyph glyph-name="hyphen" unicode="&#xad;" horiz-adv-x="774" 
d="M432 377c126 0 215 8 266 24c51 17 77 46 80 88c1 7 1 14 1 20c0 24 -7 43 -23 57c-20 18 -73 27 -160 27c-52 0 -120 -2 -203 -7c-156 -8 -250 -18 -283 -28c-32 -10 -48 -31 -48 -61c0 -62 71 -100 212 -113c51 -5 104 -7 158 -7z" />
    <glyph glyph-name="period" unicode="." horiz-adv-x="501" 
d="M314 -13c51 0 89 22 113 65c16 29 24 62 24 101c0 26 -3 54 -10 85c-11 41 -28 69 -51 86c-35 28 -62 42 -80 42c-6 0 -11 -1 -15 -4s-8 -5 -14 -5c-1 0 -3 1 -5 3c-3 2 -6 3 -9 3c-15 0 -36 -19 -64 -57s-41 -84 -41 -138c0 -15 1 -30 3 -46c3 -26 18 -54 45 -84
c17 -19 31 -32 42 -38c16 -9 36 -13 62 -13z" />
    <glyph glyph-name="slash" unicode="/" horiz-adv-x="641" 
d="M-18 -51c17 3 46 18 86 46c41 28 87 107 139 237c43 109 109 262 198 459c156 336 225 551 208 648c-8 42 -25 75 -52 96c-26 22 -56 30 -90 24c-30 -6 -71 -46 -122 -121c-52 -75 -106 -170 -164 -285c-126 -252 -224 -502 -294 -750c-35 -127 -50 -206 -44 -238l3 -18
c2 -11 10 -26 24 -45c32 -43 68 -61 108 -53z" />
    <glyph glyph-name="zero" unicode="0" horiz-adv-x="1303" 
d="M591 218c-1 1 -4 1 -9 1c-5 -1 -10 -2 -16 -4c-29 -6 -60 6 -93 37c-34 30 -59 70 -78 119c-15 42 -25 84 -30 127s-6 98 -3 165c1 49 4 87 7 115c4 28 10 57 18 85c6 22 11 43 17 64c5 21 9 36 11 47c14 61 40 114 78 158c37 44 74 65 111 64c22 -2 40 -4 54 -5
c13 -1 27 -2 40 -3c7 0 14 -2 22 -6c9 -5 20 -14 34 -27c13 -13 33 -32 57 -56c117 -117 186 -218 206 -305c8 -31 11 -62 11 -92c0 -31 -5 -50 -13 -57c-2 -1 -4 -4 -5 -7c-2 -4 -2 -8 -2 -12c0 -5 -1 -8 -2 -11c-2 -3 -3 -5 -5 -5s-5 -3 -9 -8c-4 -6 -8 -13 -13 -21
c-22 -42 -50 -85 -83 -129c-32 -44 -61 -76 -85 -95c-10 -8 -22 -18 -36 -29c-13 -11 -25 -22 -35 -31c-19 -17 -39 -31 -60 -42s-39 -16 -52 -16c-4 0 -8 -1 -12 -4c-5 -2 -9 -5 -12 -8c-3 -4 -5 -6 -8 -8c-2 -2 -4 -2 -5 -1zM589 2c35 -8 76 -9 121 -5c46 5 87 15 124 30
c12 6 31 18 56 36c25 19 50 39 75 60s44 39 56 52c19 23 36 46 51 69c14 23 24 43 30 59c3 9 7 18 13 29s12 20 18 28s13 17 20 29c6 11 12 21 16 31c5 9 9 16 13 23c3 6 6 9 8 9c1 0 4 3 7 8s6 11 9 18c5 10 11 23 20 38s18 28 26 40c9 12 15 19 18 21c2 1 4 3 5 5s2 5 2 7
c0 3 2 10 7 21s11 24 18 39c28 56 36 115 23 174c-5 24 -15 50 -28 80c-13 29 -27 55 -42 78c-8 12 -23 30 -44 54c-22 25 -44 50 -67 75c-24 26 -43 45 -57 58c-10 9 -26 22 -47 39s-44 34 -67 51c-23 18 -44 33 -62 45c-18 13 -27 19 -30 19c-2 0 -4 1 -7 3
c-4 2 -7 4 -10 7s-9 7 -19 12c-9 4 -19 8 -30 12s-23 10 -38 18s-28 16 -40 25c-52 40 -109 57 -170 48c-48 -4 -87 -13 -116 -25c-30 -13 -59 -33 -88 -61c-13 -13 -23 -22 -29 -30c-6 -7 -10 -14 -12 -21c-1 -6 -2 -15 -2 -26c0 -15 -4 -33 -13 -55
c-9 -23 -25 -59 -50 -108c-59 -119 -92 -202 -99 -250c-1 -8 -4 -19 -7 -33l-9 -42c-9 -40 -17 -86 -24 -137s-9 -87 -8 -108c9 -108 41 -207 95 -297c22 -33 55 -69 100 -108c45 -38 89 -69 132 -90c30 -15 55 -26 74 -33c20 -7 46 -14 78 -21z" />
    <glyph glyph-name="one" unicode="1" horiz-adv-x="746" 
d="M543 1423c14 0 24 -1 31 -1c7 -1 12 -1 16 -2c4 0 10 0 16 -1c7 0 18 -1 33 -1c21 8 39 8 55 0s28 -18 35 -32c8 -14 9 -26 5 -35c10 -60 7 -145 -11 -258c-24 -168 -38 -404 -41 -709c0 -19 1 -46 5 -81c3 -35 7 -70 12 -105s8 -62 8 -82c1 -19 -2 -35 -8 -47
c-5 -12 -15 -24 -28 -37c-21 -22 -43 -35 -66 -39c-24 -5 -52 -2 -87 8c-9 3 -21 11 -35 23c-13 13 -26 27 -38 43c-12 15 -21 33 -27 55c-6 23 -10 56 -12 101s-4 109 -4 192s2 175 4 278c3 103 4 164 1 183c7 23 10 42 8 58s-14 35 -35 55c-16 15 -35 29 -57 42
c-23 12 -43 21 -62 25c-23 4 -37 32 -43 84l40 65l147 157c15 12 27 22 35 31c7 8 9 13 6 14h-2c0 1 -1 1 -1 1c2 1 5 3 8 4v0h1v0v0v0s-1 0 -2 -1c0 0 -1 -1 -2 -1v0v0c5 2 8 4 10 6l4 2c1 0 1 1 1 1h1c1 0 1 1 2 1h1s-1 0 -1 -1c0 0 -1 0 -1 -1v0c-1 0 0 0 0 0
c6 2 10 3 12 4s4 2 5 2s3 1 5 1s5 -1 9 -1c12 -1 24 -2 36 -1h11z" />
    <glyph glyph-name="two" unicode="2" 
d="M170 -3c107 -6 217 -7 331 -3s225 19 334 46c9 4 20 11 32 19s22 16 31 24c9 9 19 20 29 33c9 11 16 19 21 24c3 3 5 7 7 14c1 7 2 14 3 22c1 7 2 14 3 20c2 6 3 10 6 13l17 22l-16 17c-6 7 -16 12 -30 15c-14 2 -36 3 -66 2s-73 -4 -127 -9c-42 -4 -76 -7 -102 -8
c-26 -2 -45 -3 -58 -2c-14 0 -22 1 -27 4c-4 2 -6 6 -6 10s2 11 7 20c5 10 11 19 18 29c7 9 15 20 25 33c9 14 22 33 39 58s40 60 70 104c37 55 62 93 75 114c14 21 21 32 21 35c0 1 1 3 3 7c2 3 5 6 8 10c30 33 63 80 99 143c35 62 58 113 70 153c2 10 4 26 6 49
c1 22 2 46 2 71c0 27 -1 48 -2 62s-3 25 -7 34s-10 19 -18 32c-9 15 -22 32 -37 50c-15 19 -29 35 -43 49c-14 15 -22 22 -26 22c-1 0 -5 2 -10 6c-5 5 -11 10 -17 16c-6 7 -14 13 -23 19c-10 6 -19 11 -27 13c-8 3 -16 6 -23 9s-12 6 -15 8c-12 8 -39 15 -80 20
c-42 5 -86 7 -133 7s-84 -3 -114 -9c-34 -8 -69 -18 -105 -29c-35 -12 -57 -21 -66 -27c-3 -2 -8 -5 -15 -8s-15 -6 -22 -9c-8 -2 -16 -6 -25 -11s-16 -10 -22 -15c-5 -5 -11 -10 -17 -15s-11 -8 -15 -10c-5 -4 -17 -13 -36 -29c-18 -16 -38 -33 -58 -52
c-20 -18 -36 -32 -46 -43c-16 -17 -30 -36 -42 -57c-11 -22 -17 -40 -17 -54c1 -89 40 -137 115 -144c13 0 34 4 63 12c30 9 59 18 88 30c30 11 50 21 63 29c6 5 12 10 18 13c5 4 8 5 9 5s5 3 13 9c7 6 16 14 25 23c87 80 144 121 172 123c18 0 37 3 55 9c18 5 29 11 32 17
c3 4 11 7 25 8c15 1 30 1 46 -1c17 -2 29 -5 37 -10c26 -17 37 -52 35 -106c-3 -55 -19 -122 -50 -203c-7 -20 -17 -41 -29 -66c-11 -24 -22 -45 -33 -64c-11 -18 -18 -29 -21 -31c-2 -1 -4 -2 -5 -4s-2 -4 -2 -6c0 -3 -4 -12 -13 -26s-19 -27 -29 -40c-3 -3 -6 -7 -11 -14
c-6 -6 -11 -12 -16 -19c-12 -15 -27 -32 -45 -51l-51 -51c-16 -15 -25 -22 -28 -22c-2 0 -4 -1 -5 -3c-2 -3 -3 -5 -3 -8c0 -4 -2 -8 -7 -12c-5 -5 -11 -9 -18 -13s-14 -8 -20 -13c-7 -5 -12 -10 -15 -14s-6 -7 -10 -10c-3 -3 -6 -4 -8 -4s-8 -3 -16 -7s-17 -10 -27 -17
c-21 -14 -41 -26 -57 -35c-17 -9 -28 -13 -32 -13c-3 1 -9 0 -17 -4c-7 -4 -15 -9 -23 -15s-14 -13 -20 -19c-16 -27 -23 -60 -19 -101c3 -41 12 -80 26 -118c14 -37 29 -65 44 -82z" />
    <glyph glyph-name="three" unicode="3" 
d="M190 164c-6 -4 -6 -14 1 -31c6 -17 19 -37 36 -58c18 -21 41 -40 70 -56c27 -1 57 -4 89 -10c35 -6 71 -10 109 -12s75 5 113 19c51 4 107 21 170 51c62 29 121 69 178 118c57 50 103 108 137 173c35 65 50 136 45 212c-2 17 -7 31 -15 44c-7 13 -22 30 -42 51
c-62 63 -139 102 -233 117c-50 7 -79 18 -88 31c-10 12 -15 21 -14 25c0 5 6 7 17 7c5 0 9 1 12 3c4 2 6 4 6 6c0 3 4 9 12 18s18 19 30 30s24 22 37 34c12 12 22 21 29 28c6 6 15 14 25 22c11 8 20 14 30 20c9 6 18 12 28 20c9 7 17 14 23 20c5 6 14 15 27 26
c12 10 24 21 38 31c40 32 59 63 55 93c-3 30 -29 63 -77 99c-23 18 -46 32 -67 44c-22 11 -49 21 -80 31c-24 7 -45 13 -63 17s-30 6 -34 4c-4 -1 -7 -1 -10 -1c-2 1 -3 3 -3 5c0 3 -22 4 -65 6c-44 2 -93 3 -149 3c-57 1 -107 1 -151 0s-69 -2 -75 -5c-3 -1 -11 -2 -25 -4
c-13 -1 -29 -3 -48 -4c-11 0 -20 -1 -27 -3c-7 -1 -14 -2 -20 -4c-7 -2 -16 -3 -27 -5c-15 -3 -29 -5 -40 -6c-12 -2 -19 -3 -20 -3c-4 -1 -9 -7 -16 -19s-13 -25 -19 -39c-6 -15 -9 -25 -9 -32c0 -17 6 -36 18 -59c11 -22 26 -43 44 -62c19 -20 41 -32 65 -36s53 -6 87 -5
c25 0 54 0 87 -2c40 -1 82 0 128 3c35 3 66 4 93 4c26 0 43 -4 50 -12s-2 -22 -26 -43c-4 -4 -15 -13 -33 -28s-39 -32 -63 -51c-24 -18 -46 -35 -67 -50c-20 -14 -34 -23 -42 -25s-19 -2 -32 -1c-13 0 -26 2 -39 5c-17 4 -29 6 -36 5c-8 0 -12 -2 -15 -7
c-2 -4 -6 -9 -13 -18c-6 -8 -14 -16 -22 -25l-29 -32l4 -95c1 -29 3 -51 4 -67c2 -15 5 -29 10 -40c4 -11 11 -24 20 -40c19 -32 40 -54 63 -65s54 -14 93 -9c15 1 28 4 38 6c11 3 17 6 19 8s5 4 9 6c5 1 9 2 14 2s12 1 19 3s14 5 19 8c8 3 25 6 50 8s51 2 78 2
c27 -1 48 -3 62 -6c21 -5 39 -17 54 -35c16 -18 21 -41 17 -69c-4 -27 -25 -57 -63 -90c-49 -34 -97 -53 -146 -57c-48 -4 -97 -3 -145 3c-34 3 -68 5 -102 5s-67 -6 -100 -17c-19 -10 -32 -23 -40 -39c-7 -16 -13 -33 -17 -51c-3 -17 -9 -33 -15 -48z" />
    <glyph glyph-name="four" unicode="4" horiz-adv-x="1201" 
d="M993 -11c12 0 22 6 30 18c14 26 24 41 29 45c6 3 12 11 17 23c2 5 7 15 15 30c7 15 17 46 28 94c1 7 3 15 5 24c2 8 3 17 3 25l-2 31c0 16 3 30 10 42c5 7 8 14 11 19s6 13 9 23c1 5 3 10 6 15c5 12 7 26 7 42c0 15 2 28 6 38c4 11 6 22 6 35c0 8 0 17 -2 26
c-1 14 -2 28 -2 43c0 14 3 28 10 41c14 66 20 126 20 180v32c0 30 2 62 6 96c-1 9 -1 19 -1 30c0 22 1 49 5 81c3 37 5 73 5 108c0 28 -5 46 -14 54l-3 3c-41 30 -74 52 -97 65s-48 20 -75 20c-14 0 -29 -2 -44 -5c-39 -8 -58 -16 -58 -25c0 -4 -6 -13 -19 -27
c-18 -22 -26 -63 -26 -124c0 -31 3 -63 9 -95c5 -22 7 -48 7 -78c0 -49 -4 -100 -13 -154c-6 -38 -13 -63 -20 -75c-2 -3 -9 -5 -22 -8c-10 -2 -42 -6 -95 -11c-13 -1 -21 -2 -22 -3c-7 -4 -41 -8 -102 -12c-82 -8 -131 -12 -147 -12s-26 1 -32 4c-5 2 -11 6 -17 12
c-13 11 -20 21 -20 28c0 28 24 96 73 203l5 10c4 10 9 20 14 29c11 18 36 49 76 92c37 41 61 76 71 104s16 58 17 91c1 14 2 27 5 39s4 24 4 36s-4 25 -11 40c-3 15 -18 28 -45 40c-39 16 -81 25 -126 25c-67 0 -107 -20 -119 -59c-6 -27 -18 -61 -37 -100
c-24 -51 -48 -93 -74 -126c-9 -10 -13 -17 -13 -21c0 -8 -3 -14 -8 -17c-5 -4 -9 -12 -12 -26c-7 -22 -15 -43 -24 -63c-15 -35 -27 -63 -35 -86c-5 -13 -12 -28 -19 -47c-8 -19 -16 -37 -23 -52c-18 -36 -27 -72 -27 -109c0 -36 8 -72 25 -108c50 -121 143 -181 278 -181
c111 0 214 1 307 5l88 3c25 0 39 -1 44 -2c18 -5 28 -38 30 -98s11 -123 28 -188c10 -58 26 -95 47 -114c17 -12 34 -18 50 -18z" />
    <glyph glyph-name="five" unicode="5" 
d="M371 -11c23 0 60 5 110 14c30 5 53 11 68 17s34 17 56 34c23 17 48 34 77 51c17 9 45 25 83 48c41 26 62 42 62 47c1 6 22 28 61 65c37 32 58 54 63 65c20 45 43 84 69 116c20 27 38 55 54 86c15 31 24 69 26 116c2 10 3 20 3 30c0 35 -14 71 -40 108s-65 72 -115 104
c-51 32 -104 57 -159 76c-56 19 -106 28 -150 28c-8 5 -20 8 -36 8c-10 0 -26 -2 -48 -5s-51 -10 -85 -22s-57 -26 -69 -41l14 63c10 81 17 123 21 125c66 -2 122 -5 166 -10c68 -6 127 -9 177 -9c37 0 81 1 132 4c17 9 30 13 38 13c4 1 12 4 24 10c35 20 59 38 74 56
c8 11 16 27 25 50c17 42 26 70 26 83c0 11 -6 21 -16 30c-7 7 -12 11 -13 12c-7 4 -23 6 -48 6l-58 -1c-127 -7 -229 -10 -307 -10c-14 0 -33 0 -57 1c-25 1 -45 5 -60 12c-4 1 -7 2 -10 2c-8 0 -14 -1 -20 -2c-9 -3 -22 -4 -40 -4c-40 0 -76 5 -108 15c-16 6 -32 9 -47 9
c-10 0 -25 2 -45 5c-13 3 -26 4 -38 4c-6 0 -14 -1 -25 -2s-26 -9 -45 -24c-1 1 -2 2 -4 2c-8 0 -17 -4 -27 -13c-15 -12 -22 -30 -22 -53c0 -26 7 -62 22 -108c17 -55 26 -107 26 -156c0 -48 -8 -93 -24 -136c-4 -10 -6 -20 -8 -31c-1 -7 -1 -16 -1 -25
c5 -20 20 -59 44 -116c5 -17 8 -41 8 -71c0 -65 8 -127 25 -185c11 -28 44 -46 98 -54c40 0 68 31 84 93l8 32c3 10 11 24 24 41l7 10c0 2 4 10 14 24s22 30 37 48c36 43 65 66 87 68c104 -2 172 -17 205 -45c20 -17 30 -38 30 -61c0 -51 -42 -116 -126 -194
c-56 -52 -121 -103 -195 -152c-12 -17 -41 -40 -86 -70c-29 -18 -46 -31 -51 -39c-18 -29 -31 -59 -38 -90c-4 -17 -11 -38 -21 -62c1 -3 5 -7 12 -12c21 -19 46 -28 77 -28h5z" />
    <glyph glyph-name="six" unicode="6" horiz-adv-x="1181" 
d="M472 284c-20 0 -34 2 -44 6c-5 3 -11 7 -17 14c-6 6 -17 24 -33 52l26 6c15 2 37 15 68 37c25 20 45 34 60 41c16 7 33 17 50 32c22 15 38 24 49 28c10 3 18 8 25 15s15 10 26 10c10 0 32 9 66 28c15 7 30 14 46 21c29 12 55 18 79 18c20 0 37 -4 49 -12
c9 -5 14 -13 14 -22c0 -11 -7 -24 -20 -40c-40 -39 -67 -62 -80 -69s-21 -13 -25 -20c-5 -7 -18 -18 -40 -33c-21 -15 -42 -27 -63 -38c-17 -9 -34 -18 -50 -28c-6 -5 -26 -14 -61 -27c-42 -13 -84 -19 -125 -19zM576 54c29 0 52 4 68 12c12 4 24 6 36 6c22 0 54 9 97 27
c44 19 79 38 106 59c29 23 62 54 99 92c38 39 66 70 84 95c24 34 43 65 58 93c15 29 22 48 22 57c0 10 6 22 18 38s18 29 18 39c0 13 -7 31 -19 54s-25 43 -39 60s-31 31 -52 40c-29 14 -85 28 -168 43c-27 5 -72 7 -135 7h-139c-21 0 -37 -3 -50 -10c-5 -3 -13 -7 -25 -12
c-37 -15 -62 -27 -74 -36c-35 -23 -53 -40 -53 -51c0 -4 -12 -18 -38 -42c-20 -19 -32 -29 -35 -29s-5 6 -5 20c0 142 62 275 188 400c50 51 96 84 138 97c24 7 56 11 96 11c22 0 77 -4 166 -12c22 22 43 44 65 65c0 67 -1 106 -3 117c-3 11 -7 22 -14 33
c-23 39 -55 69 -94 90c-26 11 -57 17 -95 17c-12 0 -35 -2 -69 -4c-58 -5 -132 -37 -220 -98c-35 -24 -61 -44 -78 -61c-17 -20 -33 -35 -47 -46c-30 -25 -67 -67 -111 -126s-82 -117 -115 -176c-36 -67 -62 -123 -76 -168c-14 -44 -21 -88 -21 -133v-14
c0 -64 19 -139 55 -223c12 -23 31 -54 59 -93c27 -38 51 -66 70 -85c33 -30 72 -58 117 -84c46 -25 86 -42 121 -51c44 -12 75 -18 94 -18z" />
    <glyph glyph-name="seven" unicode="7" horiz-adv-x="997" 
d="M308 -36c44 0 73 6 88 18c26 22 50 47 70 77c9 13 20 28 33 45c6 6 16 17 28 33c27 33 46 60 57 79l143 245c18 40 32 69 42 87c10 19 20 41 30 67c3 6 9 9 17 10c14 0 25 0 34 -1c10 -1 28 -1 54 -1c11 1 23 6 37 16l49 155c-10 12 -25 18 -45 18l-12 -1
c-12 0 -21 0 -29 1c-7 1 -14 5 -22 12c0 2 -1 4 -1 7c0 8 6 26 16 55l11 29c31 78 46 157 46 237c0 64 -14 112 -43 146l-39 37c-42 41 -96 63 -160 66l-36 4c-48 3 -75 5 -81 6h-13l-4 -1v-1c0 -1 0 -1 -1 -2c0 0 -4 0 -11 -1c-13 0 -25 1 -35 2c-20 0 -38 1 -54 3l-85 5
c-35 -6 -62 -13 -80 -19s-51 -12 -98 -16c-39 -4 -63 -8 -74 -13c-22 -14 -34 -32 -34 -54c0 -16 8 -33 24 -52c40 -43 100 -65 181 -65c38 0 76 2 116 5c40 4 96 6 167 6c26 0 62 -7 107 -21c6 -10 9 -28 9 -53c0 -29 -4 -61 -12 -98c-7 -31 -16 -55 -27 -72
c-5 -7 -11 -23 -18 -48c-6 -22 -15 -43 -25 -62c-13 -27 -25 -41 -34 -41c-4 0 -11 1 -21 2c-16 2 -35 3 -57 3l-44 -1c-81 -10 -124 -16 -129 -19c-5 -2 -10 -6 -14 -11c-8 -9 -13 -21 -15 -34c0 -6 1 -12 2 -17c13 -33 30 -58 51 -75c26 -21 66 -38 121 -49
c10 -2 19 -4 27 -7c8 -2 12 -5 12 -9c0 -5 -2 -13 -7 -23c-11 -25 -23 -45 -35 -58c-4 -6 -14 -24 -28 -54c-13 -30 -26 -54 -38 -72c-9 -14 -18 -31 -27 -51c-9 -21 -19 -43 -30 -66c-58 -119 -87 -205 -87 -258c0 -12 2 -24 4 -35c9 -10 18 -15 29 -15z" />
    <glyph glyph-name="eight" unicode="8" horiz-adv-x="1335" 
d="M863 778c-2 0 -3 1 -3 3s-2 4 -4 7c-6 4 -25 14 -59 31c-16 8 -41 25 -74 50c-34 25 -66 51 -96 77c-30 27 -48 46 -54 59c-3 6 -6 15 -8 27c-7 19 -10 37 -10 51c0 8 2 14 5 17c4 3 10 6 18 10c44 20 97 30 158 30c28 0 55 -2 81 -4c21 -2 39 -2 55 -3
c16 0 33 -4 53 -13c19 -8 44 -22 76 -40c4 -4 9 -9 13 -16c3 -6 5 -12 6 -17c0 -3 -2 -5 -4 -6c-3 -1 -9 -20 -18 -55c-5 -16 -16 -37 -34 -61c-10 -14 -17 -25 -22 -35c-4 -9 -16 -22 -34 -36c-12 -9 -17 -15 -17 -18c0 -9 -3 -15 -8 -18c-2 -2 -4 -4 -4 -7c0 -4 0 -6 1 -8
c-1 -14 -6 -22 -17 -25zM596 242c-28 0 -59 8 -92 23c-18 8 -28 14 -32 19s-10 8 -17 8c-8 0 -20 7 -37 21c-40 32 -69 64 -86 96c-12 22 -17 47 -17 75c0 25 4 57 12 95c8 41 23 76 43 106c20 29 43 47 68 55c13 4 44 7 91 9c48 1 76 4 84 7c2 1 4 1 7 1
c17 0 55 -26 113 -78c35 -32 65 -64 91 -96c26 -31 40 -55 44 -69c0 -7 2 -15 5 -24c5 -23 8 -43 8 -60c0 -12 -3 -22 -8 -30c-16 -17 -23 -27 -23 -30c0 -6 -29 -27 -87 -62c-32 -19 -63 -35 -96 -47c-32 -13 -56 -19 -71 -19zM658 10c8 1 19 2 34 4c14 1 29 2 44 4
c15 1 33 4 53 9s38 11 54 17s26 11 30 16c0 0 1 1 3 1c1 0 3 -1 5 -1c2 -1 5 -1 8 -1c13 0 38 13 74 40c68 51 116 103 144 158c15 28 27 50 38 66c10 12 15 43 17 94c0 50 -3 76 -8 80s-15 18 -31 42c-15 24 -28 44 -38 60c-9 10 -13 20 -13 29c0 4 1 10 4 18
c3 9 18 26 46 54c12 12 46 52 103 120c15 15 27 35 38 61c8 23 16 39 23 49s13 27 19 52c7 31 11 62 11 92c0 40 -15 84 -45 130c-17 26 -30 39 -39 39c-5 0 -14 6 -27 20c-9 8 -27 20 -53 35c-71 38 -115 58 -134 60c-10 0 -28 4 -55 12c-24 7 -57 11 -99 11
c-37 0 -63 0 -80 -1c-16 0 -51 -2 -104 -6l-12 -1c-84 -7 -134 -15 -149 -22c-14 -5 -42 -14 -85 -27c-56 -18 -108 -45 -157 -79c-74 -53 -111 -102 -111 -148c0 -23 8 -47 26 -72c32 -45 48 -79 48 -103c0 -4 0 -8 -1 -11c-8 -15 -26 -37 -54 -67c-31 -33 -54 -64 -68 -93
s-25 -49 -33 -59c-8 -11 -18 -32 -29 -65c-9 -24 -13 -44 -13 -59c0 -55 14 -118 43 -190c20 -53 41 -95 63 -126c20 -27 41 -54 64 -81c26 -30 39 -45 41 -45l1 1c2 0 12 -6 29 -17c26 -20 52 -38 78 -55c26 -16 42 -24 49 -24s16 -5 29 -14c2 -2 4 -3 8 -3c5 0 13 2 23 6
c11 3 22 5 34 5c7 0 23 -2 48 -6c45 -6 76 -10 93 -10z" />
    <glyph glyph-name="nine" unicode="9" 
d="M475 744c-30 0 -50 4 -58 12c-2 2 -4 7 -8 13c-7 17 -11 32 -11 45c0 11 4 29 13 53c17 51 40 85 70 101c8 5 17 11 26 20c34 31 64 46 89 46c10 0 19 -2 29 -5c32 -15 54 -22 65 -22h1c6 0 12 -7 17 -21c4 -14 9 -30 12 -48c4 -19 6 -34 8 -46c0 -3 1 -6 1 -9
c1 -2 1 -4 1 -6c0 -4 0 -7 -2 -11c-2 -7 -17 -19 -45 -37c-30 -22 -57 -37 -79 -45c-20 -7 -32 -12 -35 -15c-7 -4 -18 -9 -32 -15c-15 -7 -36 -10 -62 -10zM527 -34l61 2c50 2 90 4 118 7c29 3 54 8 75 15s45 18 73 33c78 38 136 79 175 121c38 43 63 94 75 153
c7 41 11 92 11 152c0 112 -12 233 -35 363c-11 55 -16 94 -16 117c0 16 2 33 6 53c6 36 10 67 10 94c-2 38 -4 66 -6 85s-6 35 -12 49c-7 13 -17 30 -32 51c-19 32 -36 54 -49 67c-29 28 -76 52 -141 75c-50 17 -87 25 -114 25c-6 0 -11 -1 -14 -2c-7 -4 -28 -9 -63 -14
c-35 -4 -57 -8 -65 -11s-17 -4 -27 -4c-17 -2 -53 -20 -108 -55c-69 -43 -122 -78 -158 -106c-36 -29 -62 -58 -77 -88s-26 -68 -35 -114c-4 -22 -6 -46 -6 -70c0 -31 4 -71 13 -120s25 -94 50 -137l18 -35c3 -8 17 -25 44 -50s53 -44 78 -55c31 -15 75 -22 132 -22
c28 0 60 3 95 10c35 6 65 25 90 57c25 35 45 57 58 68c13 10 21 19 24 27c9 -6 16 -10 21 -14s9 -7 11 -10c1 -2 2 -4 2 -6s0 -3 -1 -5s-1 -4 -1 -6c0 -5 3 -11 7 -17c32 -100 48 -180 48 -238c0 -8 -2 -29 -5 -62c-2 -33 -23 -69 -62 -107c-9 -7 -20 -12 -33 -18
c-13 -5 -25 -8 -37 -10c-11 -2 -23 -4 -35 -7s-22 -5 -29 -8c-16 -6 -41 -12 -76 -18c-32 -6 -65 -10 -99 -10c-44 0 -78 7 -101 21c-53 37 -91 65 -113 84c-23 18 -41 31 -54 37c-8 3 -17 5 -28 5c-6 0 -14 0 -22 -2c-4 -3 -9 -5 -16 -8c-28 -11 -42 -29 -42 -52
c0 -4 1 -12 2 -24c2 -12 15 -37 41 -73c14 -16 31 -34 51 -52c48 -44 80 -69 96 -74c8 -1 18 -8 30 -20c12 -13 22 -21 29 -25c11 -7 48 -13 110 -19c19 -2 39 -3 58 -3z" />
    <glyph glyph-name="colon" unicode=":" horiz-adv-x="625" 
d="M470 5c1 0 16 0 43 1c28 1 59 26 94 76c23 33 35 59 35 77l-1 13c-1 10 -15 32 -43 67c-37 47 -84 80 -139 98c-26 9 -51 13 -75 13c-25 0 -50 -5 -72 -16c-36 -22 -54 -57 -54 -104c0 -3 0 -18 1 -45s22 -64 63 -110c46 -47 95 -70 148 -70zM470 631c1 0 16 0 43 1
c28 1 59 26 94 76c23 33 35 58 35 76l-1 14c-1 9 -15 31 -43 66c-37 47 -84 80 -139 99c-26 9 -51 13 -75 13c-25 0 -50 -5 -72 -16c-36 -22 -54 -57 -54 -105c0 -3 0 -18 1 -45s22 -64 63 -110c46 -46 95 -69 148 -69z" />
    <glyph glyph-name="semicolon" unicode=";" horiz-adv-x="625" 
d="M379 -303c4 0 13 1 28 4c14 3 46 31 95 82c38 36 62 67 71 94c5 14 8 32 8 52c0 18 -2 38 -6 60c-11 89 -34 155 -69 198s-82 64 -143 64c-42 0 -71 -5 -86 -15c-16 -9 -27 -29 -34 -59c-3 -14 -4 -29 -4 -46c0 -39 7 -76 20 -111c14 -35 21 -72 21 -111
c0 -17 -2 -32 -5 -46c-3 -13 -5 -26 -5 -38c0 -32 12 -60 35 -84c27 -29 51 -44 74 -44zM445 602c17 0 39 3 64 9c26 6 46 22 61 48c20 38 30 74 30 110c0 12 -3 32 -8 61s-28 60 -69 93c-48 39 -90 58 -128 58c-34 0 -71 -14 -111 -43c-43 -33 -64 -77 -64 -134
c0 -53 21 -100 63 -142c45 -40 99 -60 162 -60z" />
    <glyph glyph-name="semicolon" unicode="&#x37e;" horiz-adv-x="625" 
d="M379 -303c4 0 13 1 28 4c14 3 46 31 95 82c38 36 62 67 71 94c5 14 8 32 8 52c0 18 -2 38 -6 60c-11 89 -34 155 -69 198s-82 64 -143 64c-42 0 -71 -5 -86 -15c-16 -9 -27 -29 -34 -59c-3 -14 -4 -29 -4 -46c0 -39 7 -76 20 -111c14 -35 21 -72 21 -111
c0 -17 -2 -32 -5 -46c-3 -13 -5 -26 -5 -38c0 -32 12 -60 35 -84c27 -29 51 -44 74 -44zM445 602c17 0 39 3 64 9c26 6 46 22 61 48c20 38 30 74 30 110c0 12 -3 32 -8 61s-28 60 -69 93c-48 39 -90 58 -128 58c-34 0 -71 -14 -111 -43c-43 -33 -64 -77 -64 -134
c0 -53 21 -100 63 -142c45 -40 99 -60 162 -60z" />
    <glyph glyph-name="less" unicode="&#x3c;" 
d="M1136 155c31 2 52 15 63 38c5 9 7 17 7 26c-1 19 -29 51 -84 96c-54 44 -140 100 -258 166c-143 81 -215 126 -215 135c-1 8 9 24 30 45c47 50 99 92 156 127c62 38 128 84 198 138c71 55 118 97 143 126c24 33 35 69 32 108c-2 32 -12 59 -31 84c-18 24 -42 35 -73 33
c-28 -2 -78 -25 -150 -71s-138 -97 -198 -151c-55 -51 -118 -104 -189 -159c-66 -52 -109 -94 -128 -125c-17 -33 -23 -71 -20 -115c2 -39 11 -69 27 -89c15 -16 54 -46 117 -89c143 -98 296 -195 458 -291c45 -23 83 -34 115 -32z" />
    <glyph glyph-name="equal" unicode="=" 
d="M448 1699c9 0 14 2 14 4c-1 3 -2 4 -4 4h-14s-11 -2 -11 -4s5 -4 15 -4zM565 728c16 0 55 1 118 2c63 2 144 13 244 34c99 20 169 46 209 77c19 15 28 27 28 36s-7 22 -21 38c-25 37 -80 61 -164 73c-48 6 -112 10 -193 10c-60 0 -129 -2 -207 -6
c-225 -9 -349 -20 -372 -33c-18 -15 -27 -34 -27 -57c0 -4 0 -14 2 -31c2 -16 16 -35 40 -57c32 -23 75 -44 131 -62c56 -16 126 -24 212 -24zM943 403c55 0 100 11 135 32c35 20 53 50 53 90c0 20 -7 38 -21 54c-14 15 -38 31 -74 49c-28 15 -55 26 -80 32s-61 9 -108 9
s-132 -3 -253 -9c-184 -8 -296 -18 -337 -31c-22 -7 -38 -17 -48 -29c-18 -18 -26 -32 -26 -41c0 -12 15 -34 47 -64c18 -20 37 -34 55 -43c19 -9 49 -15 89 -20c50 -5 183 -12 402 -22z" />
    <glyph glyph-name="greater" unicode="&#x3e;" 
d="M208 188c40 0 115 46 225 139c34 28 77 61 129 98s102 70 149 99c48 29 87 56 117 80c31 24 47 40 49 49c3 9 4 17 4 25c0 51 -46 110 -138 179c-67 51 -130 108 -191 170c-70 72 -138 128 -204 167c-60 35 -104 53 -132 53l-8 -1c-33 -7 -50 -27 -50 -58
c0 -15 4 -34 13 -55c12 -30 58 -75 137 -137c51 -41 105 -89 162 -145c77 -79 115 -124 115 -136c-2 -8 -14 -22 -36 -42c-55 -49 -106 -86 -154 -112c-50 -29 -101 -61 -152 -97c-70 -47 -105 -98 -105 -152c0 -22 6 -45 17 -68c6 -14 14 -27 24 -39c10 -11 19 -17 29 -17z
" />
    <glyph glyph-name="question" unicode="?" horiz-adv-x="840" 
d="M372 1c9 0 22 2 38 5s31 13 47 28c15 16 23 36 23 62c0 43 -15 80 -45 111s-65 47 -105 47c-41 0 -72 -11 -93 -32c-19 -19 -29 -42 -29 -69c0 -3 1 -14 2 -31s17 -41 47 -71c33 -33 71 -50 115 -50zM365 332c16 0 28 2 36 7s14 19 20 41c5 22 12 57 20 106
c22 114 85 222 190 324c112 109 169 212 169 310c0 70 -30 133 -88 189c-42 40 -86 69 -135 86c-48 16 -111 25 -191 25c-156 0 -272 -45 -348 -133c-48 -58 -72 -120 -72 -187c0 -19 4 -41 11 -67s26 -43 57 -51c14 -5 27 -7 38 -7c18 0 35 7 51 19s37 48 63 106
c18 41 36 72 54 92c17 20 38 35 64 45c44 18 82 27 114 27c13 0 31 -3 55 -10c24 -6 37 -30 37 -72c0 -10 -11 -35 -33 -75s-50 -85 -82 -133c-58 -86 -99 -163 -122 -231c-24 -67 -35 -143 -35 -225c0 -84 27 -141 82 -172c16 -10 31 -14 45 -14z" />
    <glyph glyph-name="at" unicode="@" horiz-adv-x="2111" 
d="M547 1059c129 148 255 249 376 304c122 54 244 72 366 54s249 -61 379 -130c46 -33 102 -84 167 -152c65 -69 120 -144 166 -226c34 -104 53 -186 60 -248c7 -61 5 -130 -4 -206c-1 -5 -3 -10 -4 -15c-11 -38 -23 -78 -37 -119c-14 -42 -27 -73 -40 -93
c-40 -52 -93 -102 -162 -149c-68 -48 -128 -77 -179 -87c-39 -5 -81 -4 -126 5c-45 8 -81 21 -108 38c-16 13 -46 11 -89 -7c-173 -63 -322 -48 -447 46c-57 42 -97 83 -119 121c-22 39 -39 97 -52 175c17 173 54 305 109 395c56 90 126 149 211 179c85 29 181 41 287 33
c15 -11 28 -16 36 -14c9 2 22 13 41 32c9 9 19 16 32 21c12 6 22 8 32 8c17 -1 34 -7 50 -19c16 -11 25 -27 26 -47c2 -18 2 -48 -1 -89c-4 -42 -8 -83 -14 -123s-12 -66 -17 -78c-6 -14 -13 -49 -21 -105c-9 -55 -16 -112 -22 -169c-5 -57 -7 -95 -5 -113
c11 -56 34 -86 71 -89c38 -2 84 22 139 74c44 45 74 103 90 175s19 139 9 200c-1 79 -28 158 -79 235c-52 78 -118 143 -199 195s-167 79 -258 82c-81 5 -159 -14 -235 -59s-144 -104 -202 -177c-59 -73 -103 -150 -133 -230s-40 -153 -29 -218c-20 -143 -3 -267 53 -372
s138 -184 248 -235c109 -52 235 -68 377 -49c71 12 123 23 156 34s63 26 91 46c48 33 88 52 121 56c34 4 66 -6 99 -30c114 -79 76 -158 -116 -235c-159 -67 -324 -93 -496 -76c-108 -12 -220 7 -336 58s-216 125 -300 223c-84 99 -132 213 -144 344c-50 298 11 573 182 826
zM1238 792c-9 0 -23 -3 -42 -10c-70 -26 -131 -73 -182 -142s-82 -144 -93 -226c-3 -44 2 -81 17 -112s32 -52 53 -63c19 -11 45 -22 76 -33c32 -10 61 -9 88 4c12 6 22 10 28 11c7 1 12 1 15 0c2 -1 3 -1 4 0c1 0 1 1 1 4v11c-2 14 -3 49 -3 107c1 57 6 151 17 280
c21 65 33 110 37 134c4 25 -1 37 -16 35z" />
    <glyph glyph-name="A" unicode="A" horiz-adv-x="1099" 
d="M721 475c-8 -3 -21 -6 -40 -8c-18 -3 -37 -5 -57 -7c-36 -3 -62 -4 -77 -3c-15 0 -25 3 -28 7c-2 4 2 21 14 52c12 30 28 65 47 104c6 13 13 28 19 43c6 16 11 29 14 39c13 47 29 72 46 75c5 1 8 1 12 1c3 0 5 -1 6 -2c5 -9 12 -33 23 -72c11 -38 22 -77 31 -117
c10 -39 15 -65 16 -77c0 -8 0 -14 -1 -18s-3 -7 -7 -9s-10 -5 -18 -8zM875 13c7 -4 15 -7 22 -11c17 -11 35 -18 53 -19c19 -2 45 8 77 30c12 10 18 20 17 29c0 10 -3 20 -8 32c-4 9 -8 19 -10 31c-2 4 -4 9 -5 16c-2 7 -3 13 -3 19c-3 20 -6 36 -9 49s-8 26 -13 38
c-3 7 -6 13 -8 20c-2 6 -3 10 -3 12c0 3 -3 11 -7 23c-5 13 -10 29 -17 46s-14 34 -20 50c-3 6 -5 14 -8 25s-5 22 -8 34c0 2 0 4 -1 5c-2 10 -3 18 -4 23c-1 6 -2 10 -3 13c0 3 -1 5 -1 7c-1 2 -2 4 -3 7v1c-3 9 -7 21 -11 35s-8 27 -11 39c-2 7 -3 14 -5 20
c-1 6 -2 13 -4 21c-2 9 -4 20 -6 35c-1 7 -3 14 -4 22c-2 8 -4 14 -5 19c-4 12 -7 25 -9 38c-2 14 -4 32 -6 54c-1 11 -3 22 -5 35c-2 12 -4 22 -6 29c-8 27 -15 53 -21 78s-10 45 -12 61c-2 8 -4 18 -6 30c-3 12 -6 22 -9 32c-4 13 -9 28 -14 44c-6 16 -14 40 -27 73
c-8 23 -14 40 -17 51c-4 12 -7 22 -9 30c-2 5 -4 11 -7 18s-7 13 -10 18c-4 5 -7 10 -9 14c-3 5 -4 8 -4 10c0 5 -6 14 -20 27c-13 14 -29 27 -46 40c-17 14 -33 24 -47 31c-18 9 -32 15 -42 17c-11 3 -24 4 -41 3c-28 -1 -50 -4 -67 -9c-17 -6 -32 -15 -44 -27
c-10 -8 -17 -16 -20 -22s-4 -15 -4 -27c-1 -18 4 -33 13 -45c5 -7 9 -14 10 -20s1 -16 -1 -28c-1 -9 -2 -18 -4 -29c-2 -10 -4 -18 -6 -25s-3 -14 -4 -21c-1 -8 -2 -13 -2 -17c0 -5 -1 -9 -2 -14s-2 -9 -4 -13s-5 -11 -8 -21c-3 -11 -6 -22 -9 -35s-7 -28 -12 -46
c-5 -17 -9 -34 -14 -48c-4 -14 -8 -28 -12 -41c-3 -12 -5 -21 -6 -27c-4 -28 -15 -62 -31 -101c-5 -12 -9 -24 -13 -35c-4 -12 -7 -20 -8 -26s-3 -13 -6 -22c-3 -8 -6 -16 -9 -23c-4 -7 -6 -14 -8 -20c-3 -6 -4 -10 -4 -12c0 -3 -2 -11 -5 -24c-4 -13 -9 -27 -13 -41
c-5 -15 -9 -26 -12 -34c-2 -4 -4 -9 -5 -15c-2 -5 -3 -10 -4 -15c0 -4 -2 -11 -6 -21s-8 -20 -13 -30c-5 -11 -10 -20 -13 -29c-4 -8 -5 -13 -5 -16c0 -2 -1 -6 -4 -14c-2 -8 -5 -16 -8 -25c-4 -9 -7 -19 -11 -28c-3 -10 -6 -17 -8 -22s-4 -10 -6 -14c-2 -5 -3 -8 -5 -10
c-1 -2 -3 -7 -7 -16c-3 -9 -6 -19 -10 -31c-3 -11 -8 -23 -13 -36c-5 -12 -9 -22 -13 -30c-18 -32 -30 -68 -36 -107c-1 -10 -1 -18 0 -25c2 -7 5 -15 11 -25c19 -36 54 -49 103 -37c14 2 25 6 36 13c10 6 26 19 46 37c13 13 25 24 34 33c10 10 14 15 14 16c0 2 2 6 6 12
c4 7 9 14 14 23c6 8 12 19 19 32s13 26 17 38c11 27 22 45 34 53c5 4 9 7 13 8c4 2 10 3 17 3s18 -1 32 -2c14 -2 33 -5 57 -8c10 -1 20 -2 30 -2s18 1 23 2c6 1 16 3 30 4c15 1 30 3 47 3c21 1 39 3 54 6c15 2 29 6 43 12c11 4 20 7 26 9s10 2 13 1c3 0 6 -2 8 -5
c3 -3 5 -7 7 -11s3 -8 3 -12s2 -11 5 -20c3 -8 7 -18 11 -27c15 -37 27 -67 37 -91c9 -24 14 -38 14 -42c0 -3 1 -7 4 -14s7 -15 11 -23c5 -9 9 -18 15 -28c5 -9 9 -18 13 -25z" />
    <glyph glyph-name="B" unicode="B" horiz-adv-x="1232" 
d="M490 883c-4 -3 -10 -4 -18 -6c-7 -1 -15 -2 -23 -2s-15 1 -19 3c-6 2 -9 9 -10 23c-1 13 0 36 4 70c3 29 5 55 7 80s3 41 3 49c0 4 2 8 5 14c3 5 7 10 12 15c4 4 8 6 11 6c1 0 4 1 10 4c5 2 11 4 17 7c7 3 13 6 20 8c8 2 13 3 17 3s9 1 15 2c7 1 12 2 18 4
c11 3 33 4 65 5s64 0 98 -1c33 -1 57 -4 71 -7c8 -1 13 -3 15 -6c2 -2 2 -7 0 -14c-2 -16 -9 -32 -20 -48s-29 -36 -54 -61c-35 -35 -69 -63 -103 -83c-14 -9 -26 -16 -37 -22c-10 -6 -16 -9 -17 -9s-3 -2 -8 -4c-4 -2 -9 -5 -15 -9c-5 -3 -11 -6 -16 -8c-5 -3 -9 -5 -12 -5
c-2 0 -5 -1 -9 -1c-3 -1 -7 -2 -10 -2c-3 -1 -6 -1 -9 -2c-4 -1 -6 -2 -8 -3zM477 257c-6 -3 -11 -5 -17 -8c-5 -2 -10 -5 -13 -6c-3 -2 -6 -3 -9 -4c-4 -1 -6 -1 -9 -1c-2 1 -2 2 -2 5c-3 0 -5 18 -4 54c0 21 -1 44 -2 72c-1 27 -2 53 -3 76c-2 24 -3 39 -4 48
c-1 5 -1 11 -1 19s1 16 2 23c0 9 2 15 3 18c1 4 3 6 6 7s7 1 14 1c6 0 11 0 16 -2c5 -1 9 -2 10 -4c2 -2 5 -3 9 -4c4 0 11 0 21 1c9 1 23 3 42 6c34 7 71 31 111 72c15 16 26 28 34 36c9 8 15 14 18 16c4 2 6 3 7 1c1 -1 6 -3 14 -4c7 -1 17 -2 28 -2c12 -1 28 -2 46 -5
c18 -2 35 -5 49 -8c15 -2 24 -5 26 -6c1 -1 3 -1 7 -1c3 1 7 2 12 3c6 2 11 2 15 1c3 -1 7 -4 12 -8c3 -4 5 -7 7 -12c2 -4 3 -8 3 -11c-1 -10 -8 -26 -24 -48c-15 -22 -33 -46 -55 -72c-21 -25 -43 -47 -63 -66c-11 -9 -21 -17 -30 -26c-10 -8 -17 -15 -21 -19
s-9 -7 -14 -10s-9 -5 -12 -6c-4 0 -9 -3 -16 -6l-21 -12c-8 -5 -14 -9 -20 -12c-5 -3 -8 -5 -9 -5s-5 -2 -13 -7c-8 -4 -17 -9 -28 -16c-24 -15 -47 -28 -69 -40c-22 -13 -40 -22 -53 -28zM200 38c6 -9 17 -15 31 -16s30 0 47 2c24 3 45 2 63 -2c16 -1 28 0 36 1
c9 1 15 3 19 5c5 3 8 5 12 9s10 8 18 13c8 4 21 9 39 14c3 0 7 0 12 1s9 3 14 4c9 4 13 4 11 0c-1 -1 1 -2 5 -3c4 0 10 0 17 1c6 1 13 2 20 3c6 1 11 3 15 5c2 1 7 2 13 4c6 1 13 3 20 4s15 3 24 5c10 3 18 6 25 8c7 3 15 6 24 8c10 3 18 4 25 6c7 1 16 3 28 8
c12 4 23 9 34 14c11 6 21 10 29 14c8 3 13 5 15 5c1 0 4 1 8 3c4 3 8 5 12 8c5 4 9 6 12 7c3 2 4 2 4 1s4 0 12 4s18 9 29 16c12 7 23 15 34 23c8 5 15 10 21 14s9 6 10 6c3 0 10 5 21 15c12 10 25 23 40 38c14 14 28 29 41 43c64 71 106 125 126 162c20 36 27 73 20 108
c-1 13 -2 23 -3 30s-2 13 -3 16c-1 4 -2 7 -3 9s-3 4 -4 6c-3 3 -7 8 -14 16c-6 8 -14 17 -22 27s-15 19 -21 26s-10 11 -11 12c-1 0 -4 2 -8 6c-4 3 -9 7 -14 11c-5 5 -11 9 -17 12c-6 4 -12 6 -16 7s-8 3 -12 5s-7 4 -9 6c-2 3 -4 5 -8 6c-3 2 -6 2 -8 2c-3 0 -6 1 -9 3
c-3 1 -6 3 -8 6c-2 2 -4 4 -7 5s-5 1 -7 0c-3 0 -5 -1 -8 0c-4 0 -7 1 -9 3c-3 2 -8 4 -14 6c-6 3 -12 6 -18 8s-11 4 -15 5c-1 0 -2 1 -3 1c-1 1 -3 1 -3 2c-1 0 -2 0 -4 1c-1 1 -3 1 -5 1c-1 1 -3 1 -5 2h-5c-2 1 -3 1 -4 2s-2 2 -2 3c0 2 3 6 7 12c5 6 11 12 18 19
s13 13 19 18c5 5 9 7 11 7s5 2 11 6c5 4 11 9 17 15c30 27 53 50 68 68s27 35 34 51c8 15 12 27 14 36c2 10 2 23 0 42c-1 17 -3 31 -6 41s-9 23 -18 38c-7 10 -12 19 -17 26s-8 11 -9 11c-2 0 -6 3 -12 9c-7 6 -15 13 -25 22c-9 8 -20 17 -31 25c-12 8 -22 14 -30 18
s-15 8 -21 11c-5 3 -8 6 -8 7c0 2 -3 4 -9 7c-6 2 -13 5 -20 7c-8 2 -14 3 -19 3c-3 0 -7 1 -10 2c-4 2 -7 4 -9 6c-3 2 -7 4 -13 6s-12 3 -19 3c-7 1 -13 2 -18 3s-8 2 -9 3c-2 2 -5 4 -9 5c-5 2 -9 3 -12 3c-4 0 -6 -1 -6 -3c0 -3 -7 -3 -21 0c-8 2 -19 3 -35 4
c-15 1 -32 1 -49 1s-31 0 -44 -1c-12 -1 -19 -3 -21 -5c-1 -1 -5 -3 -13 -4c-7 -2 -16 -2 -26 -3c-9 0 -18 -1 -26 -2s-12 -2 -14 -3s-4 -1 -7 -1c-2 1 -5 1 -7 3c-2 1 -4 2 -7 2c-2 0 -5 -1 -6 -2c-2 -2 -5 -3 -10 -4c-4 -2 -10 -3 -15 -4s-12 -2 -21 -3
c-8 -1 -17 -2 -24 -4h-1c-24 -3 -43 -4 -57 -2c-1 0 -4 1 -8 4c-4 2 -8 6 -12 9c-4 4 -9 7 -13 9s-7 3 -9 2s-4 0 -6 1c-1 2 -3 5 -4 8c-2 7 -7 11 -14 11c-3 0 -6 0 -8 2c-3 1 -5 2 -6 3c-1 2 -2 3 -4 4c-1 0 -3 0 -4 -1c-1 0 -3 0 -6 1s-6 2 -9 5c-3 2 -6 4 -10 5
c-3 2 -6 3 -9 3s-7 0 -11 2c-5 1 -9 2 -14 4c-9 3 -21 6 -35 9c-15 2 -29 3 -43 3c-19 0 -34 -2 -47 -7c-12 -4 -25 -13 -38 -24c-8 -8 -13 -13 -17 -18c-4 -4 -6 -9 -7 -14c-1 -4 -2 -10 -1 -18c0 -9 1 -17 2 -24c2 -7 6 -15 11 -24c6 -9 14 -21 26 -37
c7 -10 13 -19 19 -27s9 -13 11 -16s4 -6 7 -11s7 -10 10 -14c7 -11 13 -32 18 -62c4 -30 6 -61 6 -92c-1 -50 3 -125 11 -225c2 -21 3 -42 5 -61c1 -19 2 -32 2 -40s0 -14 1 -19c1 -6 2 -9 3 -10s2 -5 3 -12c1 -8 1 -16 2 -27c0 -10 1 -19 2 -27c0 -8 1 -13 2 -15
s2 -6 3 -12c1 -7 2 -14 2 -22c1 -23 3 -45 5 -68s5 -41 8 -55c4 -22 8 -57 12 -104s6 -90 7 -128v-62l-25 -27c-11 -10 -17 -18 -20 -23s-3 -9 -1 -12s4 -5 7 -7c2 -2 4 -3 6 -3c7 0 15 -5 23 -14s13 -18 15 -28z" />
    <glyph glyph-name="C" unicode="C" horiz-adv-x="1188" 
d="M521 3c79 -9 162 -8 248 4c86 11 159 31 219 59c21 11 49 34 83 67c33 33 60 65 80 95c30 46 35 77 16 95c-3 4 -6 6 -10 7s-9 2 -17 1c-7 -1 -17 -3 -31 -5c-14 -3 -28 -6 -45 -10c-16 -3 -30 -6 -41 -9s-22 -6 -32 -9c-11 -2 -18 -4 -23 -5s-12 -3 -20 -5
c-9 -3 -18 -6 -26 -8c-9 -3 -18 -6 -28 -8c-11 -3 -19 -5 -27 -6c-7 -1 -18 -3 -34 -7c-15 -3 -31 -7 -47 -11c-18 -5 -33 -9 -45 -12c-12 -2 -25 -5 -39 -7s-33 -4 -57 -6c-16 -2 -38 -3 -67 -3c-28 -1 -55 -1 -81 -1c-25 0 -41 1 -47 2c-3 1 -8 3 -14 4c-7 2 -13 3 -20 5
c-6 1 -12 3 -17 5c-5 3 -9 5 -10 6c-1 2 -3 3 -6 5c-3 1 -7 1 -10 1c-8 0 -21 8 -38 22c-17 15 -30 30 -40 45c-4 6 -7 14 -11 24c-3 9 -6 18 -8 26c-17 87 -18 149 -2 184c4 8 7 17 9 25c3 9 4 16 4 21c2 18 17 51 44 100c28 50 59 97 93 143c32 41 62 77 91 108
c29 30 48 45 55 45c2 0 6 2 12 5s12 7 19 12c6 5 13 9 21 14c7 4 14 7 19 8c5 2 13 5 23 9s20 8 30 13c10 4 23 8 37 12c15 4 29 6 41 7c12 2 24 3 36 5c11 2 20 5 26 7s12 4 20 5c7 2 13 2 18 2c14 0 33 7 57 19c23 13 41 27 53 41c11 14 18 31 22 52c3 22 3 40 -2 55
c-2 4 -8 12 -17 23c-10 12 -21 25 -34 38c-26 29 -52 49 -78 58c-25 9 -65 14 -119 13h-3c-35 1 -62 0 -82 -2c-21 -3 -44 -9 -69 -20c-26 -11 -65 -29 -116 -53c-2 -1 -4 -2 -5 -3c-66 -33 -139 -94 -219 -181c-19 -22 -41 -48 -64 -80c-23 -31 -43 -60 -60 -86
c-17 -27 -26 -44 -26 -50c0 -3 -1 -7 -3 -12c-2 -6 -4 -10 -7 -15c-9 -13 -20 -36 -34 -70s-25 -65 -34 -94c-5 -16 -9 -31 -11 -44s-3 -31 -3 -53s1 -54 3 -97c3 -99 19 -168 50 -206c4 -6 9 -14 14 -23c4 -8 8 -16 11 -23c21 -50 59 -98 115 -145c55 -47 106 -76 154 -86
c8 -1 15 -3 20 -5c6 -2 8 -4 8 -5c0 -5 12 -10 35 -16c24 -5 54 -11 93 -16z" />
    <glyph glyph-name="D" unicode="D" horiz-adv-x="1578" 
d="M442 214c-3 1 -5 1 -8 1c-12 2 -20 3 -25 4s-7 3 -8 6c0 3 0 7 2 14c4 11 6 33 6 67c1 8 3 19 6 34l9 45c6 29 10 59 13 92c3 32 6 79 8 141c2 27 3 50 5 70c2 19 3 30 5 32c2 3 3 9 3 19c1 9 0 18 -1 28s-3 18 -5 24c-2 3 -2 7 -2 11c0 3 2 7 4 9c5 6 5 11 -1 17
c-6 5 -6 7 0 7c5 0 7 28 5 83v59c0 16 1 24 2 26c0 1 1 8 2 20c2 13 2 28 3 46s2 34 4 48c1 14 3 23 5 27c5 8 28 16 69 22c41 7 92 12 155 15c18 0 39 1 63 3c24 1 46 2 65 4c45 2 81 4 109 3c28 0 56 -3 84 -7c14 -3 28 -5 42 -7c14 -1 25 -3 31 -3c7 -1 12 -2 17 -4
s8 -3 9 -5c0 -2 2 -4 4 -5c2 -2 4 -2 7 -2c15 0 35 -13 60 -38c24 -24 45 -53 62 -86c8 -17 14 -37 20 -61c5 -24 8 -46 8 -65c0 -57 -15 -109 -45 -157c-30 -47 -83 -101 -158 -162c-13 -11 -25 -21 -36 -30s-19 -15 -23 -19c-4 -3 -9 -7 -15 -11c-6 -5 -12 -9 -18 -13
c-6 -3 -13 -8 -21 -13c-7 -5 -14 -9 -19 -13c-110 -72 -168 -109 -175 -109c-3 0 -9 -3 -21 -9c-11 -6 -24 -14 -38 -23l-45 -27c-15 -8 -27 -15 -36 -18c-8 -4 -18 -9 -29 -15s-20 -12 -29 -18c-8 -5 -18 -12 -29 -19c-12 -7 -22 -13 -32 -18c-8 -4 -18 -7 -29 -8
c-14 -1 -27 -5 -39 -12zM236 4c1 -1 3 -2 6 -2s7 0 11 1s12 3 24 5s25 4 39 5c56 7 88 13 96 20c2 2 7 3 14 4s16 2 25 2c22 0 38 1 48 3c10 1 18 4 25 8c4 2 13 5 28 9c15 5 32 9 50 13c19 4 36 8 50 11c14 4 23 6 26 7s7 2 13 3c5 2 11 3 16 3c9 2 26 7 53 18
c26 10 56 22 89 37c33 14 64 28 92 42c26 13 51 26 74 39c22 14 47 30 74 49l24 15s14 9 19 11c7 3 24 15 52 37c29 21 74 57 137 106c62 48 107 94 135 136c29 43 50 97 64 162c5 23 9 41 11 55c2 15 4 30 4 47c1 9 1 16 3 22c1 6 2 9 3 9c3 1 4 3 5 7c0 4 0 9 -1 13
c-1 5 -3 8 -5 10c-2 1 -3 3 -4 5s0 4 1 5c1 2 1 4 1 7s-1 5 -3 8c-1 2 -2 7 -3 14s-1 15 0 23c0 20 -5 41 -16 64c-4 10 -8 19 -11 26c-3 8 -5 13 -5 15c0 4 -3 13 -11 26c-7 13 -15 26 -24 38c-8 12 -15 19 -19 21c-1 1 -2 2 -3 4c-1 1 -2 3 -2 5c0 5 -8 15 -23 29
c-15 15 -31 29 -48 41c-16 13 -28 20 -35 21c-3 0 -7 2 -13 5c-5 3 -11 6 -16 11c-5 4 -10 8 -15 10c-4 3 -7 4 -8 3c-2 -1 -4 0 -8 2c-4 1 -8 4 -12 7c-5 4 -11 7 -18 11s-14 7 -21 10s-13 5 -19 8s-10 6 -13 8s-6 4 -9 5s-5 2 -8 2c-8 1 -36 11 -84 32c-6 3 -14 6 -22 8
s-14 3 -19 3s-13 1 -25 4s-24 6 -36 10c-13 5 -26 8 -40 10s-36 3 -67 4h-138c-57 0 -106 -1 -148 -1c-41 -1 -65 -2 -72 -2c-6 -1 -14 -3 -24 -4c-9 -2 -19 -3 -28 -4c-21 -4 -34 -3 -41 3c-2 2 -5 3 -7 4s-2 1 -2 -1c0 -1 -1 -2 -3 -1c-1 0 -3 1 -6 2c-9 4 -31 7 -66 9
s-71 3 -107 2c-35 0 -59 -3 -69 -6c-5 -3 -12 -5 -22 -8s-20 -6 -30 -8c-31 -8 -55 -22 -73 -44c-17 -22 -25 -47 -22 -75c1 -7 4 -18 9 -30c5 -13 11 -25 18 -37c10 -17 20 -30 30 -39c9 -9 19 -16 27 -21c12 -6 20 -14 24 -24c3 -10 7 -26 11 -48s7 -43 10 -63
c2 -19 3 -31 1 -35c-1 -1 -1 -3 -1 -6c1 -2 1 -4 3 -7c1 -3 2 -21 3 -54c0 -33 1 -72 1 -117s-1 -88 -2 -129c0 -41 -1 -72 -3 -93c-4 -61 -9 -106 -12 -134c-4 -29 -9 -52 -15 -70c-4 -11 -6 -27 -8 -49c-2 -21 -3 -42 -3 -63c1 -21 2 -36 5 -46c-10 -34 -18 -61 -26 -79
c-7 -18 -13 -31 -18 -38s-9 -11 -12 -13c-1 -1 -2 -3 -2 -3c-1 -1 -1 -3 0 -4c0 -2 1 -5 3 -9c2 -5 6 -14 10 -27c11 0 21 -3 31 -8s17 -10 21 -16c5 -5 4 -9 -2 -12c-2 -1 0 -1 5 -1s12 1 21 1c12 1 24 2 37 2c12 1 23 0 32 0c9 -1 14 -3 14 -6c0 -1 -1 -1 -1 -2v0v1v1v1z
" />
    <glyph glyph-name="E" unicode="E" horiz-adv-x="1423" 
d="M570 5c4 -3 15 -5 34 -5c19 -1 40 0 64 2c24 1 45 3 64 6s30 6 35 9c1 1 4 3 7 4c2 0 5 1 8 1s7 1 11 3c5 2 9 5 13 8s10 6 17 8c7 3 14 5 21 6c6 1 13 3 19 5c7 3 11 5 14 8c3 2 8 6 13 9c6 4 11 8 17 11s18 10 36 22c19 12 39 25 61 40s42 28 60 40c19 12 30 19 36 23
c7 4 17 11 28 20s26 22 45 38c3 3 7 6 10 8c4 2 6 3 8 3c1 0 5 3 13 8c7 5 15 12 24 19c8 8 16 15 24 20c7 5 11 8 12 8c3 0 4 1 3 3c-1 1 -1 3 0 7c2 3 4 7 7 10c12 15 10 30 -5 45c-5 6 -19 9 -42 8c-14 -1 -29 -2 -44 -4c-16 -2 -30 -4 -43 -7c-12 -3 -20 -6 -24 -9
c-2 -1 -7 -3 -14 -4c-7 -2 -15 -3 -23 -4c-21 -1 -48 -10 -83 -27c-15 -6 -28 -12 -38 -17c-11 -4 -17 -7 -18 -7s-3 -1 -6 -3s-5 -5 -8 -8s-7 -5 -12 -8c-4 -2 -9 -3 -13 -3s-7 0 -11 -1s-7 -2 -8 -4c-4 -3 -11 -7 -22 -13s-23 -12 -34 -17c-11 -6 -18 -8 -21 -8
c-1 0 -4 -2 -7 -4s-6 -4 -9 -7s-6 -6 -9 -8c-4 -2 -7 -3 -9 -3c-7 0 -14 -1 -23 -3c-8 -2 -15 -4 -22 -7c-7 -4 -12 -6 -14 -9s-6 -5 -10 -6c-5 -2 -10 -3 -16 -3c-5 0 -11 0 -18 -1c-6 -1 -11 -3 -15 -4c-17 -6 -44 -9 -79 -11s-66 -1 -92 2c-11 2 -20 4 -25 5
c-6 2 -11 4 -14 7s-6 7 -9 12c-2 4 -6 9 -11 16c-5 6 -10 12 -15 17s-9 10 -13 15c-3 4 -5 8 -6 10c0 2 -1 5 -3 9c-1 4 -3 9 -5 14c-4 9 -8 21 -12 35c-3 14 -6 27 -7 38c0 4 -1 7 -3 10c-1 3 -3 5 -5 6s-4 3 -5 7s-1 7 0 11c1 3 2 5 5 5c5 0 5 2 0 7c-2 3 -4 8 -6 15
c-1 7 -3 14 -3 22c-1 7 -2 14 -1 19c0 5 1 7 3 6c3 -1 6 0 11 3s10 8 13 12c4 5 6 9 5 12s0 4 2 2c5 -4 28 1 68 16c9 4 18 6 27 9c9 2 16 3 21 3s10 0 13 1c4 1 5 2 5 3c0 2 2 3 7 5c4 2 10 4 17 6c62 15 95 25 99 29c2 2 5 3 10 4c4 1 9 1 15 1s13 2 22 4c10 2 19 4 27 7
c9 3 18 6 28 8s19 3 25 3c7 0 13 1 18 2c6 2 9 4 11 6l6 6c2 1 4 1 5 1s3 0 6 1c4 0 7 1 11 2c4 2 9 3 16 5s13 4 20 6c6 1 12 4 17 6c6 2 10 5 13 7c2 1 6 3 11 5s11 4 16 5c19 5 46 22 81 50s67 58 95 91c11 13 18 23 21 30c3 6 4 14 3 23c0 6 -1 11 -2 16s-2 9 -2 10
c-3 3 -13 5 -29 4c-17 -1 -35 -3 -54 -7c-7 -2 -15 -3 -22 -3c-8 -1 -13 -1 -17 0s-9 1 -15 1c-5 -1 -11 -2 -16 -3c-7 -3 -17 -5 -30 -7s-35 -4 -65 -7c-5 -1 -12 -2 -23 -5c-10 -2 -21 -5 -32 -8s-22 -6 -35 -9c-12 -3 -22 -5 -29 -6c-8 -1 -15 -3 -20 -5s-9 -4 -10 -6
c-1 -3 -2 -4 -3 -5c-2 -1 -3 -1 -5 0c-1 1 -2 1 -3 0c-1 0 -2 -1 -2 -2c0 -2 -3 -3 -9 -4c-7 -1 -15 -2 -25 -2c-31 0 -66 -9 -106 -26c-5 -2 -13 -4 -23 -7c-11 -3 -22 -5 -34 -7s-22 -4 -31 -6s-14 -4 -16 -5c-2 -2 -7 -3 -15 -3c-8 -1 -17 -1 -28 -1c-10 0 -18 1 -23 2
c-6 0 -9 1 -11 3c-1 2 -2 4 -2 8c-1 12 0 24 1 37c1 12 2 20 4 23c1 2 2 6 2 13c1 6 2 13 2 21s1 16 2 22c1 7 3 12 5 14c1 2 3 5 4 6v4c-1 2 -1 7 -1 17c1 10 2 21 4 33s4 24 6 34c1 10 3 16 5 18c1 2 2 4 3 7c1 2 1 5 1 7c-1 4 -1 8 1 14c1 6 2 11 4 16c2 4 4 6 5 6
c3 0 7 1 12 3c5 3 11 5 15 8c5 3 7 6 7 8c0 0 1 1 3 1c1 1 3 1 5 1c4 1 7 1 11 2l23 6h4h7h10s6 1 8 1l17 4l22 8l24 8l32 1l21 3l20 4l27 6l7 2l30 -3l20 2l20 4l16 1l24 2l20 4l35 3l36 1c13 1 23 2 31 4c7 1 14 2 20 2c2 2 6 3 11 4c6 1 11 1 17 1h13h2l43 28l49 19
l27 19l27 31l27 10l9 2l73 80l13 12l-10 40c-1 0 -3 1 -6 2c-3 2 -6 4 -9 7c-7 6 -13 8 -18 5l-6 -3s-3 -2 -4 -2c-15 -2 -28 -4 -39 -7c-10 -3 -17 -5 -20 -7l-12 -2l-42 -2c-11 -2 -26 -3 -45 -5s-38 -3 -56 -4s-33 -2 -46 -4c-13 -1 -20 -2 -22 -3s-3 -1 -5 -1l-6 3
c-3 1 -7 3 -12 4s-11 1 -18 0c-6 0 -11 -2 -16 -3c-5 -2 -8 -3 -10 -5s-6 -3 -12 -5l-18 -3c-15 -1 -30 -1 -45 -1c-8 1 -15 1 -22 0c-6 0 -10 0 -12 -2c-1 0 -3 0 -7 2l-9 3h-11c-13 -2 -27 -3 -42 -3c-9 0 -18 0 -25 -1s-12 -2 -14 -3c-2 -2 -4 -3 -7 -4s-5 -2 -8 -2h-8
c-2 0 -4 1 -7 1s-7 1 -13 1c-6 1 -13 1 -23 0c-2 -1 -5 -2 -10 -2c-4 -1 -10 -1 -16 -1c-5 -1 -10 -1 -14 -1c-17 -2 -29 -3 -38 -3s-17 1 -25 2c-9 1 -24 2 -43 1c-19 0 -50 -2 -93 -8c-3 3 -6 5 -10 7c-3 2 -5 3 -6 3c-2 0 -4 1 -6 3s-4 5 -5 8c-2 2 -5 4 -9 6
c-4 1 -9 3 -14 3c-4 1 -8 2 -10 2s-4 0 -8 1c-3 1 -6 1 -8 2c-3 1 -4 2 -4 3s-2 2 -5 3s-7 1 -12 2c-4 1 -8 1 -12 1c-4 1 -7 1 -9 1c-4 2 -7 4 -10 4c-3 1 -5 1 -6 -1c-1 -1 -3 -2 -8 -3c-4 -1 -9 -2 -15 -3s-11 -2 -16 -3c-5 0 -9 0 -10 1c-14 -4 -26 -8 -35 -13
c-10 -4 -21 -11 -34 -20c-8 -11 -13 -20 -15 -27c-1 -7 -2 -17 0 -31c1 -20 5 -35 11 -42c3 -3 5 -6 6 -8c0 -3 -1 -6 -4 -10c-4 -4 -9 -10 -17 -18c-23 -23 -32 -45 -29 -67c4 -22 21 -47 52 -76l41 -39l-7 -112c-4 -66 -6 -131 -7 -197c-1 -65 0 -112 3 -140
c4 -36 7 -61 9 -76c3 -14 5 -22 7 -23c1 -1 3 -3 3 -6c1 -3 2 -6 2 -10c0 -8 3 -22 9 -42c6 -21 13 -42 21 -64s16 -42 23 -57c8 -16 13 -25 16 -25c2 -1 4 -2 7 -6c2 -3 4 -8 5 -13c2 -5 6 -13 12 -23s13 -20 21 -30s15 -19 20 -27c6 -8 8 -13 8 -14c0 -2 1 -4 4 -7
c2 -3 5 -6 9 -8c3 -3 8 -6 13 -10c5 -5 11 -9 15 -13c7 -7 17 -14 31 -24c13 -9 32 -21 57 -37c5 -3 9 -5 14 -7c4 -2 7 -4 9 -4c3 0 5 -1 9 -3s7 -4 11 -6c16 -11 45 -19 86 -24c7 -1 13 -2 19 -4c5 -1 9 -3 11 -4z" />
    <glyph glyph-name="F" unicode="F" horiz-adv-x="1105" 
d="M154 -17c31 -11 59 -10 85 3c7 4 12 8 17 11c4 4 7 7 7 9c1 2 3 7 7 15c4 7 9 16 15 25c8 13 14 26 19 42c6 16 11 36 16 61c1 8 3 17 5 28c8 39 17 82 25 129c9 47 13 81 13 103c0 6 0 12 -1 18c-2 12 -2 22 -1 31c0 8 5 13 12 12h15c7 -1 16 -1 25 -1h24s11 1 11 2
c2 2 9 4 22 6c12 2 28 4 46 6c16 2 28 2 37 3c9 0 18 1 27 2c10 1 22 3 36 6c15 3 36 8 63 14c49 12 94 28 135 47c41 20 86 47 135 81c13 19 22 36 27 51s8 28 7 40c0 12 -2 22 -6 31s-9 16 -14 22c-6 6 -11 10 -15 13c-5 3 -9 5 -11 6c-2 0 -1 0 1 -2c-21 0 -40 0 -58 -2
c-17 -1 -37 -4 -61 -7c-14 -2 -30 -5 -49 -7l-121 -16l-105 -13c-7 -2 -14 -3 -22 -5c-7 -2 -12 -4 -17 -5c-13 -4 -29 -8 -47 -13c-18 -4 -35 -7 -49 -9s-22 -3 -23 -2c-1 2 -2 5 -2 10c0 4 0 10 1 16c5 33 9 59 10 76c2 18 2 39 0 63c-1 16 -2 34 -2 53c-1 18 -1 33 -1 45
c1 12 0 23 0 35c-1 11 -2 19 -4 25c-4 16 -4 32 -2 48s7 28 14 35s21 12 44 16s64 8 121 12c26 2 52 4 77 6c25 3 44 4 56 6c51 6 116 12 195 19c17 2 37 4 61 7c23 2 44 5 63 7c19 3 38 12 57 26c38 27 43 72 15 135c-6 1 -13 3 -21 6c-9 3 -18 6 -27 8c-12 5 -29 8 -50 10
c-22 2 -57 4 -105 5h-64s-43 -1 -60 -1c-17 -1 -27 -2 -29 -2c-2 -1 -6 -1 -14 -2h-26c-19 -1 -47 -2 -84 -6c-37 -3 -74 -7 -113 -12c-12 -2 -27 -3 -44 -3c-17 -1 -32 0 -46 1s-27 1 -39 1c-13 -1 -22 -2 -27 -4c-7 -3 -15 -4 -23 -3s-21 5 -39 12c-12 4 -23 9 -34 13
c-10 4 -17 7 -20 10c-3 2 -9 4 -18 7s-18 5 -28 8c-15 4 -26 5 -33 4s-16 -5 -25 -11c-7 -5 -13 -10 -19 -17c-5 -7 -9 -14 -11 -20s-5 -12 -9 -19c-4 -8 -7 -14 -11 -19c-8 -12 -11 -27 -8 -43c3 -17 10 -29 22 -37c4 -3 8 -5 11 -8c2 -3 4 -6 4 -8s0 -4 2 -7
c1 -4 3 -7 6 -10c4 -6 9 -16 13 -29s8 -27 10 -41c2 -15 3 -26 2 -35c0 -7 0 -12 1 -17s2 -8 5 -10c2 -1 3 -3 5 -8c1 -4 1 -9 1 -15s-1 -19 -2 -40c-1 -20 -2 -42 -4 -67c-1 -29 -3 -52 -3 -69c-1 -17 -2 -33 -2 -48v-57c1 -16 -1 -29 -3 -36c-3 -8 -10 -18 -21 -30
l-12 -120c10 -22 16 -45 19 -68c2 -24 3 -57 1 -99c0 -7 0 -14 1 -21c0 -6 1 -11 2 -13c2 -4 1 -26 -3 -66c-3 -26 -6 -60 -10 -103c-2 -34 -3 -63 -3 -86c1 -23 3 -37 7 -40c2 -2 3 -4 4 -8v-13c-1 -8 1 -19 5 -32c5 -13 10 -26 16 -37c7 -11 13 -18 18 -20z" />
    <glyph glyph-name="G" unicode="G" horiz-adv-x="1252" 
d="M584 -2c38 -3 72 -3 104 1c31 5 70 15 118 30c26 9 54 22 84 38c31 17 55 33 74 48c53 48 99 97 137 146c37 49 66 90 87 122c5 8 9 14 13 20c12 17 20 31 23 41c4 9 6 23 5 39c2 44 -13 80 -45 108l-88 105c-15 13 -45 29 -91 47c-4 1 -9 4 -17 7c-7 3 -14 6 -22 9
c-7 4 -18 7 -32 11s-28 7 -41 10c-20 3 -46 5 -81 6c-35 2 -68 2 -101 1c-32 0 -54 -2 -66 -5c-6 -2 -16 -4 -30 -7c-15 -3 -30 -6 -47 -9c-16 -3 -30 -6 -42 -9c-13 -3 -20 -5 -22 -7c-2 -1 -5 -3 -10 -5c-4 -1 -9 -3 -14 -4c-6 -1 -12 -5 -21 -10c-8 -5 -16 -11 -23 -18
c-11 -9 -18 -17 -21 -22c-3 -6 -4 -12 -2 -19c1 -4 1 -9 0 -14c0 -4 -2 -8 -4 -10c-14 -12 0 -14 43 -4c45 8 99 7 163 -3s120 -27 168 -50c27 -14 54 -32 82 -53c27 -22 49 -43 66 -64c6 -8 11 -14 13 -19c3 -4 4 -9 4 -13s-2 -9 -4 -16c-6 -15 -28 -42 -65 -79
c-17 -16 -32 -31 -46 -45l-29 -29s-10 -9 -15 -13c-5 -3 -10 -5 -13 -5s-6 0 -8 -1c-3 -1 -4 -2 -5 -4c-2 -3 -8 -8 -20 -15c-11 -8 -23 -15 -35 -21c-13 -7 -21 -10 -24 -10c-2 0 -5 -1 -8 -2c-2 -1 -4 -3 -5 -5c-1 -1 -4 -3 -7 -4c-4 -1 -8 -2 -11 -2c-4 0 -8 -1 -12 -2
s-7 -2 -9 -4c-5 -4 -14 -8 -28 -11c-14 -4 -30 -7 -47 -9s-32 -3 -47 -2c-30 1 -64 17 -100 49c-36 31 -70 77 -102 137c-2 15 -3 39 -4 73c0 34 0 67 1 98s3 49 5 55c1 2 3 9 5 20c2 12 3 25 5 41c2 15 5 32 9 49c3 18 7 32 11 43s8 23 12 36c3 13 6 25 8 34s6 21 12 37
c5 15 11 29 18 43c25 54 45 94 58 120c14 26 26 46 36 58s22 24 36 35c5 4 10 9 17 14c7 6 13 11 18 16c33 29 62 50 87 61c24 10 43 17 55 21c12 3 27 6 44 7c16 2 28 2 38 1c10 -2 21 -5 33 -11c21 -9 44 -13 68 -13c17 0 29 1 36 3c8 3 16 9 26 17c15 13 25 23 32 30
s11 15 12 21c1 7 1 16 0 28c-2 21 -10 39 -24 54c-13 15 -28 28 -45 40s-30 19 -37 19c-3 0 -6 0 -10 2c-3 1 -6 3 -9 6c-5 4 -23 7 -52 8c-30 1 -64 0 -103 -3s-77 -7 -112 -13c-38 -6 -67 -12 -87 -18c-21 -6 -46 -17 -77 -32c-85 -41 -135 -72 -150 -92
c-2 -4 -4 -7 -7 -9s-6 -4 -8 -4c-3 0 -4 0 -6 -1s-3 -2 -3 -3c0 -2 -3 -7 -10 -15s-15 -18 -25 -29s-18 -20 -25 -28c-6 -8 -10 -13 -10 -15c0 -1 -3 -6 -8 -14c-4 -8 -11 -18 -18 -29s-13 -21 -18 -30s-7 -15 -7 -17s-1 -5 -2 -8s-3 -5 -4 -7c-4 -4 -8 -19 -15 -44
c-6 -24 -12 -52 -18 -84c-2 -11 -5 -25 -8 -42s-6 -33 -9 -48c-2 -14 -5 -28 -7 -39c-1 -12 -2 -19 -3 -22c0 -3 0 -8 -1 -16c-2 -8 -3 -17 -5 -26c-3 -20 -5 -52 -6 -96c0 -44 1 -80 3 -109c5 -45 13 -88 24 -130s23 -71 35 -89c4 -5 9 -12 14 -21c5 -8 9 -16 13 -24
c11 -19 33 -46 67 -81s65 -63 93 -84c12 -9 24 -17 38 -24c13 -8 24 -13 33 -17c9 -3 16 -6 23 -9s12 -5 14 -7c6 -4 18 -8 39 -13c20 -6 42 -11 67 -15c25 -5 46 -8 64 -10z" />
    <glyph glyph-name="H" unicode="H" horiz-adv-x="1086" 
d="M205 6c5 -4 8 -6 11 -7c2 -2 6 -1 9 1c4 1 9 5 16 10s13 9 18 12c6 3 10 5 13 5s6 4 7 13s1 18 0 28s-4 17 -8 21c-7 6 -5 9 8 9c5 0 8 6 10 18c1 12 2 27 1 44c0 17 -1 35 -2 52c-2 26 -2 44 -1 53c-2 106 2 183 12 232c1 7 3 12 5 16c3 4 9 8 17 11c9 2 23 4 43 6
s47 4 83 5c35 2 80 4 135 6c34 1 59 0 75 -3c12 -1 22 -2 28 0c33 8 52 7 59 -5c7 -11 9 -38 5 -82c1 -63 7 -134 18 -213s24 -140 38 -184c12 -33 27 -45 45 -37c0 0 2 1 5 2c2 0 6 1 10 2c6 1 12 2 18 4c6 1 12 3 16 5c5 1 7 3 7 5c0 4 1 7 3 11s4 6 7 8c7 4 13 12 18 22
c5 11 8 21 8 31c0 5 1 10 2 14c2 5 4 9 6 11c3 3 6 9 9 19s6 21 9 34c2 10 4 25 5 42c1 26 5 52 10 78c4 16 6 32 7 49v42v19c1 6 1 12 1 18c-1 5 0 10 0 14c0 3 1 6 2 6c2 2 4 6 5 11c1 6 1 13 1 20v5c-1 8 -1 17 -1 27c1 11 2 21 4 31c5 18 8 32 9 42s1 18 0 26
s-1 19 1 32c4 35 8 67 11 96s5 64 7 106s4 101 7 176c1 45 2 79 3 103c0 10 0 18 1 25v18v12v7v4l-1 1s-1 0 -1 -1h-2c0 0 -1 0 -2 1c-1 0 -2 2 -3 4s-2 4 -3 8c0 37 -4 65 -12 83c-8 19 -27 35 -56 48c-77 36 -139 35 -186 -2c-8 -6 -14 -13 -17 -21c-4 -7 -6 -18 -8 -32
c0 -5 -1 -9 -2 -12c0 -2 -1 -5 -2 -7s-2 -5 -3 -9s-1 -11 -1 -21s0 -25 1 -45c4 -7 5 -16 5 -27c0 -12 2 -25 7 -39c0 -3 1 -5 1 -8c1 -24 2 -42 3 -55v-36c-1 -2 -1 -5 -1 -8c-2 -20 -3 -59 -5 -116c0 -9 0 -18 -1 -27c-1 -57 -2 -95 -4 -113c-3 -18 -8 -28 -16 -31
c-8 -4 -19 -4 -34 -2c-7 1 -15 1 -23 2c-18 1 -32 1 -42 1s-18 -1 -25 -1c-8 -1 -18 -1 -28 -1c-11 0 -27 1 -48 4c-10 1 -25 3 -46 4c-20 1 -42 2 -64 2c-31 1 -52 2 -65 4c-12 1 -20 5 -25 10c-2 2 -5 6 -7 13c-1 6 -3 16 -4 30s-2 35 -3 61c-1 27 -2 61 -3 104
c-3 114 -4 192 -4 234v43c0 10 -1 17 -1 22c-1 5 -2 8 -4 10c-1 1 -3 3 -6 4s-7 3 -11 6c-5 3 -11 9 -17 16c-21 27 -40 45 -57 52c-17 8 -44 11 -82 11h-50c-11 -1 -19 -3 -24 -6c-6 -3 -12 -7 -19 -14c-38 -34 -39 -79 -5 -137c1 -2 2 -3 3 -5c0 -1 1 -2 2 -3
c0 -1 0 -2 1 -2v-1c-1 0 -1 0 -1 -1c0 0 -1 0 -2 -1c0 -1 -1 -2 -2 -4c0 -2 -1 -4 -1 -8c-1 -3 -1 -8 -1 -14s1 -13 1 -22c4 -40 7 -92 10 -155s6 -155 8 -274c1 -55 4 -111 8 -167s11 -126 21 -208c3 -27 7 -58 11 -95c4 -36 8 -68 11 -97c1 -18 4 -38 9 -61
c4 -23 14 -43 28 -58c14 -16 36 -22 64 -19z" />
    <glyph glyph-name="I" unicode="I" horiz-adv-x="492" 
d="M281 53c11 0 27 5 50 15c22 9 39 41 52 94c13 88 20 142 21 164l12 96l6 63l12 113c5 34 9 83 12 147c4 96 10 164 18 202c4 16 6 30 6 42c0 4 0 6 -1 8v6c0 7 2 13 7 17c6 8 9 16 9 25l-1 26c0 24 2 36 7 36l5 -1c0 1 -1 3 -2 6s-4 24 -7 62c-5 71 -19 118 -42 142
c-5 7 -8 12 -8 15c0 8 -8 19 -24 36c-16 16 -35 30 -57 41c-27 14 -47 21 -60 22c-37 0 -66 -2 -86 -7c-51 -12 -83 -43 -95 -94c-2 -8 -3 -15 -3 -21c0 -9 13 -26 38 -52c15 -16 26 -31 33 -45s11 -36 12 -67c0 -52 0 -101 -1 -145c-1 -106 -3 -167 -6 -183
c-4 -13 -6 -65 -8 -156c-1 -36 -2 -69 -2 -99c0 -20 -2 -33 -5 -40c-3 -3 -5 -29 -5 -78l2 -146c1 -49 2 -86 4 -111c1 -24 5 -43 11 -57c6 -13 16 -27 29 -42c22 -22 44 -34 67 -34z" />
    <glyph glyph-name="J" unicode="J" horiz-adv-x="618" 
d="M457 5c27 0 45 6 53 17c6 7 9 13 9 17c0 5 3 11 7 19c3 4 7 17 10 38c5 57 8 122 8 194l-1 40c0 24 -1 58 -1 103c0 88 1 169 3 241c2 38 3 72 3 103c0 52 -1 82 -4 91c-1 4 -2 8 -2 13v2c2 3 3 22 3 56c0 82 -3 132 -10 153c-5 16 -7 32 -7 48c0 15 2 30 6 44
c3 9 4 18 4 28l-1 14c-2 12 -4 21 -4 27c0 7 -2 12 -7 16c-4 4 -7 8 -7 13s-4 16 -12 32c-3 6 -6 12 -8 18s-3 9 -4 11c-1 10 -15 24 -40 43c-14 10 -35 14 -64 14c-26 0 -44 -3 -54 -10l-4 -1c-17 -9 -64 -18 -139 -26c-5 2 -12 3 -20 3c-17 0 -38 -3 -61 -9l-12 -2
c-18 0 -28 -13 -28 -38v-12c0 -14 2 -28 6 -43c10 -35 28 -69 53 -102c28 -38 47 -56 57 -56c6 0 10 -3 15 -8c4 -5 9 -7 13 -7c2 0 9 -2 21 -6c5 14 20 21 44 21h13c0 1 -1 1 -3 2c5 1 7 2 8 2l-2 2c-2 1 -4 2 -6 2l-3 1h7l8 -1c8 -3 12 -36 12 -101l-1 -38
c0 -165 2 -315 6 -451c2 -67 3 -113 3 -140c0 -23 -3 -46 -7 -71c-7 -40 -13 -59 -19 -59c-20 0 -40 3 -59 9s-39 13 -59 22c-21 8 -43 16 -67 24c-10 0 -22 -11 -36 -31c-10 -18 -27 -37 -51 -56c0 -2 4 -7 11 -13c7 -7 11 -11 11 -12h-1c0 -1 8 -4 23 -9
c20 -7 38 -16 54 -26c26 -15 43 -25 53 -29c16 -8 27 -15 34 -22c6 -7 19 -15 38 -24l92 -44c40 -24 79 -36 116 -36z" />
    <glyph glyph-name="K" unicode="K" horiz-adv-x="1122" 
d="M196 -17c7 0 14 2 22 6c19 8 29 17 33 28c3 11 4 37 4 78c0 52 -1 80 -4 87c-4 6 -5 23 -5 51v24l2 71c2 54 4 94 6 120c3 27 4 40 4 41c1 0 2 1 2 1l2 2v3c3 14 6 27 7 40c0 6 1 12 1 17c1 5 1 8 1 10c0 1 1 3 2 3s2 0 2 -1c1 0 2 -1 4 -1c8 0 14 1 18 2c4 2 8 2 11 2
c7 0 13 -3 20 -9s16 -14 28 -26c22 -23 40 -38 54 -44c14 -7 36 -10 65 -10c24 0 44 -6 61 -19c18 -13 34 -28 49 -46c28 -29 61 -56 99 -82c32 -21 87 -70 167 -146c6 -6 14 -12 23 -20c20 -13 41 -31 61 -55c15 -18 28 -34 40 -48c12 -15 20 -24 23 -29c4 -2 11 -4 21 -6
c19 -1 32 -6 37 -13c13 -5 26 -8 38 -8c34 0 59 14 75 42c5 8 7 17 7 25c0 12 -3 24 -11 36c-16 38 -35 67 -56 88c-27 33 -63 72 -107 116c-113 115 -177 172 -193 172c-5 0 -26 16 -63 46c-16 13 -30 22 -42 28c-15 8 -25 15 -31 22c-5 8 -11 11 -17 11c-7 0 -16 5 -29 16
c-12 10 -28 20 -47 31c-24 15 -37 31 -37 46c0 4 2 8 5 12c4 4 8 12 14 23s11 22 17 33c6 12 9 21 11 27c4 12 15 28 31 49c17 22 34 40 51 56c15 13 26 27 33 42c5 14 11 20 16 20c6 0 10 4 13 12c3 7 19 25 48 52c26 23 46 42 61 57c12 12 27 26 44 40c41 33 69 52 85 56
c16 5 34 15 52 29c18 15 31 30 39 47c8 16 12 34 12 54c0 3 0 10 -1 23c0 12 -7 27 -19 44c-14 20 -32 37 -54 52c-29 19 -54 28 -77 28c-6 0 -12 -1 -18 -3s-17 -8 -33 -19c-24 -15 -39 -27 -46 -36c-6 -9 -15 -16 -25 -23c-16 -10 -57 -49 -124 -116
c-69 -69 -104 -106 -104 -110c0 -5 -4 -12 -13 -22c-9 -9 -14 -17 -14 -22s-3 -9 -11 -12c-27 -10 -49 -26 -66 -49c-11 -15 -22 -28 -34 -38c-9 -7 -31 -29 -67 -66c-27 -30 -46 -46 -56 -50c-4 -2 -19 -4 -46 -6l-1 158c0 61 2 98 4 111c2 10 3 22 3 37
c0 71 -11 124 -35 159c-27 35 -61 59 -101 72c-17 6 -32 9 -44 9c-9 0 -17 -1 -24 -5c-2 -2 -5 -7 -8 -16c-4 -16 -7 -30 -7 -41c-3 -20 -5 -43 -5 -71l-1 -465c0 -210 4 -335 11 -375c1 -1 1 -1 2 -1l1 2l1 -2c0 -4 1 -7 1 -10c0 -89 4 -134 11 -137c4 -2 5 -3 5 -5
c0 0 -1 -1 -4 -1h-1c-4 0 -6 -4 -6 -12c0 -4 1 -10 2 -17l7 -82l-3 -47c0 -27 1 -50 1 -68c4 -43 12 -65 26 -65l6 1l-1 -2c1 0 2 1 5 2c2 2 5 2 9 2c9 0 16 -3 21 -11c2 -2 4 -3 6 -3c4 0 8 0 11 1c4 1 7 2 10 2s6 0 8 -2c7 -2 13 -4 19 -4z" />
    <glyph glyph-name="L" unicode="L" horiz-adv-x="824" 
d="M519 -5c29 0 58 4 86 10c29 7 48 11 57 11c6 0 17 4 32 13c33 19 64 43 93 70c28 27 42 59 42 94c0 41 -10 66 -30 74c-8 3 -21 5 -39 5l-26 -1c-37 -2 -57 -5 -62 -9c-10 -5 -27 -11 -51 -17c-8 -2 -20 -6 -33 -10c-35 -12 -54 -19 -57 -22c-11 -8 -26 -11 -43 -11
c-21 0 -43 3 -65 11c-29 2 -54 27 -76 77c-21 50 -36 93 -43 131c-8 37 -12 83 -12 138c0 28 1 63 2 106c2 43 3 82 5 118c1 35 3 54 4 57s2 17 3 42c2 24 3 55 4 91c4 86 9 140 15 164c6 19 8 38 8 57c0 36 -9 71 -28 107c-30 67 -87 101 -171 101c-10 0 -22 -6 -36 -16
c-24 -20 -36 -37 -36 -52c0 -11 5 -44 15 -100c4 -27 7 -107 8 -239c2 -137 3 -210 5 -221c1 -4 2 -18 4 -44c4 -48 6 -92 6 -132c0 -28 -1 -56 -3 -86c-1 -25 -2 -44 -2 -60l1 -24c6 -27 9 -51 11 -72c3 -18 8 -36 14 -54c4 -9 6 -17 9 -25c2 -8 4 -14 5 -18
c3 -17 12 -46 29 -88c16 -37 41 -75 77 -114c26 -28 50 -46 72 -53l94 3c13 0 22 -1 29 -2c28 -7 55 -10 83 -10z" />
    <glyph glyph-name="M" unicode="M" horiz-adv-x="1271" 
d="M1051 11l10 2c32 6 48 15 48 26c0 3 10 14 29 34c1 0 1 0 1 1c12 7 20 24 24 50c3 16 10 37 20 62c9 19 16 42 19 70c2 21 6 40 13 57c7 16 11 35 12 55c2 23 5 43 9 61c4 27 9 128 14 303l3 125c2 152 5 248 11 288c6 34 9 63 9 88c0 8 0 21 -2 39s-10 39 -24 64
c-8 16 -21 31 -38 45s-34 24 -50 30c-17 5 -39 8 -67 8c-6 0 -20 0 -42 -1c-23 0 -48 -4 -77 -12c-22 -8 -41 -19 -58 -34s-26 -28 -26 -39v-3c6 -20 8 -41 8 -64c0 -24 -2 -44 -8 -62c-5 -18 -11 -37 -17 -57s-18 -46 -35 -78s-32 -56 -46 -73c-11 -14 -23 -30 -36 -49
c-6 -11 -26 -33 -61 -67c-35 -33 -55 -50 -60 -50c-1 0 -9 -6 -26 -17c-12 -10 -19 -15 -22 -15c-4 0 -13 23 -26 69c-10 34 -18 70 -25 109c-4 21 -8 36 -12 45c-4 6 -6 16 -6 28c0 6 -2 17 -6 31c-3 6 -9 29 -20 68c-4 15 -8 29 -12 43c-5 14 -12 30 -21 48l-15 30
c-4 10 -9 19 -15 29c-14 23 -40 44 -77 62c-42 21 -79 32 -110 32c-9 0 -21 -6 -36 -17c-12 -8 -20 -18 -26 -30c-6 -11 -19 -19 -41 -24c-30 -10 -50 -18 -60 -26c-12 -10 -18 -26 -18 -49c0 -14 8 -36 23 -67c15 -30 28 -53 40 -69c18 -22 29 -78 34 -167
c1 -11 2 -21 3 -30l7 -156c4 -129 10 -248 16 -357s12 -174 16 -194c0 -6 2 -18 6 -36c0 -17 5 -39 13 -65c6 -18 16 -31 31 -41s28 -15 39 -15l14 1c38 6 59 16 65 29c4 9 9 22 13 39c11 43 16 72 16 87s3 26 7 34s7 49 8 124c2 43 4 88 7 134c9 112 15 168 20 168
c2 0 15 -8 39 -24c34 -22 61 -37 82 -44c26 -9 64 -13 114 -13c22 0 40 4 54 12c16 7 26 13 30 18s10 9 18 12c9 3 21 15 36 36c14 20 33 45 57 75c26 32 50 63 71 93c22 31 36 46 42 46c2 0 3 -1 5 -3s3 -3 4 -5s1 -4 1 -5l-1 -3c-2 -4 -3 -15 -3 -33c0 -54 2 -95 5 -121
c3 -36 6 -228 8 -576c2 -43 4 -69 6 -79c3 -11 8 -18 15 -22c4 -2 7 -6 12 -10c4 -5 10 -8 18 -8z" />
    <glyph glyph-name="N" unicode="N" horiz-adv-x="1137" 
d="M183 48c9 -13 17 -21 23 -25s13 -6 22 -5c8 1 19 5 32 14c13 8 25 17 36 27s16 18 16 23c0 3 1 8 4 15s6 16 10 24c3 9 7 21 10 35c4 15 6 28 8 42c1 8 1 15 2 20s2 9 3 12s1 4 2 5l2 2c1 0 2 -1 2 -1c1 -1 2 -1 2 -1c1 0 1 1 2 2c0 1 1 3 1 6s0 7 1 13v22
c2 34 4 75 6 125s3 97 4 140c1 98 5 150 10 157c3 8 33 -18 90 -76c23 -24 46 -48 70 -73c23 -25 41 -45 53 -59s25 -30 40 -48c16 -17 29 -33 41 -45c11 -13 22 -25 32 -37s17 -21 22 -27c4 -6 11 -15 20 -26c9 -12 18 -24 28 -35c22 -29 33 -49 33 -61c0 -5 1 -12 2 -22
c1 -11 3 -20 5 -30s4 -22 7 -36s5 -27 7 -39c3 -12 5 -20 9 -25c3 -5 7 -10 13 -14c4 -4 9 -8 14 -14c7 -6 12 -11 16 -14c2 -3 5 -5 6 -7c2 -1 3 -2 5 -2h7c5 1 15 1 31 0c4 0 9 6 15 17c7 11 12 23 17 36s7 22 7 26c0 5 4 17 11 34s14 34 23 51c8 17 16 30 22 38
c9 11 13 28 13 51c1 9 2 20 4 32c2 11 4 21 7 29c3 9 7 24 12 46c4 23 9 47 13 72c4 26 7 49 10 68c2 19 3 30 2 33c-1 2 -1 5 0 10c1 4 3 9 6 15s6 20 9 43s6 49 8 77c3 28 5 53 6 75s1 35 -1 39c-1 2 -1 7 0 16s3 20 5 32c4 18 6 44 7 79c1 36 0 71 -1 106
c-2 36 -5 62 -8 81c-7 30 -18 65 -33 105c-14 40 -32 76 -53 109s-45 54 -70 64c-12 4 -24 8 -36 11c-11 2 -19 4 -24 4c-7 0 -18 -4 -33 -10c-15 -7 -30 -14 -45 -22c-15 -9 -25 -16 -31 -23c-11 -13 -17 -31 -17 -54c-1 -23 4 -44 14 -65c13 -29 22 -69 27 -122
s6 -97 3 -133c-1 -16 -3 -39 -4 -69c-2 -30 -3 -60 -4 -90c-4 -141 -10 -215 -16 -220c-2 0 -10 9 -25 25c-14 16 -32 36 -53 60s-41 46 -59 67c-18 20 -31 33 -38 40c-23 21 -47 44 -72 69c-24 24 -44 45 -59 61c-19 22 -40 49 -63 82c-24 34 -39 59 -46 76
c-3 6 -5 20 -7 41s-4 45 -4 70c-1 34 -3 59 -5 77c-3 18 -6 33 -11 43c-10 21 -27 43 -52 66c-24 23 -45 37 -64 44c-13 3 -30 5 -50 4c-20 0 -39 -1 -57 -4c-17 -3 -29 -7 -35 -12c-3 -3 -6 -5 -9 -7s-6 -3 -8 -3c-1 0 -4 -3 -8 -8s-8 -12 -12 -20c-6 -12 -10 -21 -10 -28
c-1 -6 2 -16 6 -29c3 -8 7 -17 12 -27c4 -10 9 -18 13 -25c10 -15 13 -33 11 -53c-1 -13 -4 -22 -8 -30s-12 -16 -24 -26s-20 -19 -23 -25c-4 -7 -5 -17 -5 -31c0 -12 1 -22 4 -31c3 -8 7 -17 14 -25c15 -19 27 -41 34 -67c8 -26 14 -68 18 -126c3 -59 7 -145 10 -259
c0 -19 1 -37 1 -54c2 -95 7 -175 14 -241c8 -66 27 -148 56 -247z" />
    <glyph glyph-name="O" unicode="O" horiz-adv-x="1367" 
d="M747 210c-22 -8 -42 -12 -60 -13c-17 0 -36 4 -57 11c-38 15 -73 47 -105 96s-55 106 -68 170c-18 93 -27 194 -26 302s12 192 31 254c7 20 18 38 31 53c14 14 26 22 36 21c11 -2 36 -7 74 -16c39 -10 78 -21 117 -35c39 -13 63 -27 73 -40c3 -3 12 -9 27 -18
c16 -8 33 -19 52 -32c19 -12 34 -25 45 -39c31 -42 53 -76 66 -103c7 -12 14 -25 21 -37s13 -21 17 -27c12 -18 20 -38 24 -58s7 -41 8 -61c1 -11 2 -21 4 -31c0 -14 -9 -39 -28 -75c-19 -37 -41 -74 -66 -113c-25 -38 -46 -68 -63 -89c-11 -14 -21 -26 -28 -36
c-8 -11 -13 -17 -14 -19c-2 -5 -9 -11 -22 -19c-12 -9 -27 -17 -43 -26c-16 -8 -32 -15 -46 -20zM678 10c36 -8 80 -10 133 -4c53 7 97 18 134 35l36 18s27 14 39 20c69 34 138 121 207 261c13 26 27 53 43 82c17 28 31 51 42 68c25 34 42 63 51 85c10 22 15 44 15 65
c0 24 -3 50 -9 77c-6 28 -13 51 -22 71c-5 9 -8 17 -11 24s-5 11 -5 12c0 2 -4 9 -12 22c-9 14 -19 29 -31 47c-19 28 -37 53 -55 76s-43 54 -75 93c-15 18 -38 41 -68 71s-59 58 -87 84c-28 25 -47 41 -55 46c-7 4 -16 9 -27 15c-11 7 -21 14 -32 21c-12 8 -29 16 -49 25
c-21 9 -41 16 -61 22c-20 7 -35 10 -44 10c-4 0 -8 1 -11 2c-4 1 -6 3 -7 5c-2 3 -6 5 -11 9c-6 4 -12 7 -19 11c-36 18 -86 26 -148 25c-63 -1 -163 -18 -301 -50c-5 -9 -10 -19 -16 -30c-5 -11 -9 -21 -12 -30s-7 -18 -11 -27c-3 -9 -7 -16 -10 -21
c-8 -13 -18 -41 -30 -84c-13 -44 -24 -90 -35 -139c-7 -35 -13 -76 -17 -122s-5 -88 -5 -126s3 -63 8 -74c2 -4 4 -13 7 -27s5 -29 8 -46c11 -89 21 -141 29 -158c2 -6 6 -14 10 -26s7 -24 11 -36c19 -65 61 -131 126 -198c88 -95 184 -155 288 -181c18 -4 36 -9 53 -13
c17 -5 29 -8 36 -10z" />
    <glyph glyph-name="P" unicode="P" horiz-adv-x="1183" 
d="M503 846c-20 -17 -33 -26 -39 -28c-5 -2 -8 2 -8 12c0 5 -1 8 -2 12s-3 6 -5 7c-2 2 -3 13 -5 33c-1 20 -2 44 -2 73v15c0 30 0 53 2 67s7 25 16 32s23 15 43 24c3 1 7 3 10 5c28 12 64 24 109 33c45 10 87 16 127 20c39 3 65 1 78 -5c4 -4 8 -8 12 -15c4 -6 7 -13 9 -19
s2 -11 1 -14c-2 -3 -10 -9 -23 -19s-29 -22 -46 -34s-32 -23 -46 -32c-14 -10 -22 -14 -23 -14c-2 0 -6 -3 -13 -8s-15 -10 -24 -17c-8 -7 -16 -13 -22 -19c-7 -6 -11 -9 -12 -11s-2 -4 -4 -5s-4 -1 -6 -1c-3 0 -8 -3 -16 -9c-7 -6 -16 -13 -26 -22c-9 -8 -18 -16 -26 -22
c-8 -5 -13 -8 -15 -8s-8 -3 -16 -9c-9 -6 -18 -13 -28 -22zM345 20c45 -3 74 2 86 16c6 7 8 28 5 62c-1 14 -2 29 -4 45c-1 16 -2 29 -3 39c0 10 -2 21 -4 34s-4 24 -6 33c-5 22 -5 43 0 65c2 9 4 22 5 37c1 16 1 31 1 45c-2 54 5 90 19 111c5 8 19 20 39 36
c21 17 44 32 69 46s47 22 65 23c7 0 15 3 23 10c9 7 17 14 24 21c10 10 17 16 23 19s16 9 31 19c13 8 25 16 38 23c13 8 22 12 27 12c17 0 35 5 54 17s37 23 52 35c10 7 18 13 24 17c7 4 14 7 21 10s13 4 16 4c28 33 50 55 66 66s30 17 40 20c6 3 13 6 19 10
c7 4 14 10 22 19s17 23 28 41c0 5 5 10 13 17c8 6 18 13 30 21c26 15 38 52 37 109c-2 57 -9 92 -21 106c-11 13 -19 20 -22 20c-3 19 -11 35 -22 48c-12 13 -32 31 -58 52c-16 12 -35 28 -57 47c-46 9 -90 16 -133 21c-42 5 -70 6 -82 4c-5 -1 -13 -2 -24 -1
c-12 1 -23 2 -36 5c-16 3 -30 4 -43 4c-13 -1 -28 -4 -46 -8c-13 -4 -26 -6 -38 -9c-13 -2 -22 -3 -27 -3c-9 0 -26 -2 -51 -6c-24 -4 -48 -9 -70 -13c-23 -5 -37 -9 -44 -12c-19 -12 -46 -8 -81 12c-33 17 -58 30 -78 38c-19 9 -35 14 -48 16s-26 2 -41 0
c-78 -11 -113 -44 -106 -101c5 -28 8 -48 10 -61c1 -13 0 -24 -2 -32c-3 -8 -8 -18 -16 -30c-6 -10 -12 -20 -17 -29s-9 -16 -10 -20c-3 -7 -3 -16 0 -26c2 -11 6 -20 11 -29c5 -8 11 -14 17 -16c4 -1 11 -4 18 -9c8 -5 16 -10 23 -16c11 -9 18 -17 22 -26s7 -22 9 -41
c2 -13 4 -24 5 -34c2 -10 3 -17 3 -19c1 -2 1 -5 1 -8v-7c-3 -16 -3 -52 -2 -108c1 -57 4 -118 7 -185c4 -66 8 -123 14 -169c0 -6 1 -16 3 -30c1 -15 3 -30 4 -46c2 -17 5 -38 10 -62c4 -25 9 -47 15 -68c5 -21 11 -41 15 -61c5 -20 9 -35 11 -45c7 -34 22 -63 43 -86
c22 -22 46 -35 74 -39z" />
    <glyph glyph-name="Q" unicode="Q" horiz-adv-x="1354" 
d="M1204 996c0 -1 0 -3 -1 -4s-3 -1 -4 -1s-3 0 -4 1s-1 3 -1 4s0 3 1 4s3 1 4 1s3 0 4 -1s1 -3 1 -4zM584 191c-9 -3 -20 -5 -32 -7c-13 -2 -24 -3 -34 -3c-11 0 -20 0 -26 2c-6 1 -11 5 -17 11c-6 7 -15 17 -25 32c-2 1 -3 3 -4 4l-27 36c-6 9 -10 17 -14 24s-8 17 -14 30
c0 1 -1 3 -2 4c-14 30 -23 62 -27 94s-5 81 -3 146c2 88 7 139 14 155c3 8 5 17 7 26c2 10 2 18 2 24s0 11 1 15c0 4 1 6 3 6c1 0 3 3 5 7c3 4 5 9 7 15s3 11 4 16s1 8 0 9s0 4 2 8s5 9 9 15c9 13 12 24 10 33c-2 4 -2 7 -2 10c1 3 2 4 4 4s4 2 6 5c3 4 5 9 7 14
c6 15 16 34 31 56c14 22 30 42 46 59c8 9 14 16 20 24c5 7 8 11 8 14c0 2 0 3 2 4c1 0 3 0 5 -1s7 -1 13 2s14 7 21 12c34 23 69 21 106 -8c12 -9 35 -25 70 -46c39 -24 79 -50 120 -77c40 -28 66 -50 78 -68c7 -12 13 -21 19 -30c6 -8 10 -13 12 -15c2 -1 5 -5 9 -12
s8 -15 12 -24s9 -19 14 -29c6 -10 11 -18 15 -24s2 -16 -4 -30c-7 -13 -16 -28 -26 -44s-19 -31 -27 -45c-7 -14 -11 -26 -11 -36c1 -11 1 -19 0 -24c-1 -4 -4 -7 -9 -8c-3 -1 -7 -1 -10 0c-4 1 -7 2 -9 4c-6 6 -12 12 -20 18c-7 6 -14 11 -21 15c-6 4 -10 6 -13 7
c-2 0 -6 1 -12 4c-6 2 -12 5 -19 9c-7 3 -18 7 -32 11c-15 4 -29 7 -44 9c-14 3 -28 5 -42 7s-25 4 -31 5c-16 2 -34 -1 -53 -10c-19 -8 -37 -21 -53 -37c-11 -11 -18 -20 -21 -26c-3 -7 -3 -15 -1 -24c3 -18 15 -37 34 -57c20 -19 42 -35 68 -47c2 0 4 -1 5 -2
c13 -5 23 -10 30 -13s14 -8 22 -13c7 -4 18 -12 33 -22c2 -1 3 -2 5 -4c12 -7 20 -14 26 -19s9 -9 11 -14c1 -5 2 -11 2 -18c0 -11 -2 -20 -7 -27s-15 -18 -32 -32c-22 -20 -42 -36 -60 -49c-17 -12 -30 -19 -36 -21c-3 0 -8 -2 -15 -5c-7 -2 -15 -6 -23 -9
c-9 -4 -18 -8 -30 -13c-11 -5 -21 -9 -30 -12zM555 8c19 -1 36 -2 52 -2c16 -1 26 0 32 1c5 1 9 1 14 2s9 1 11 1c3 0 5 1 7 2c1 1 2 2 2 4c0 1 2 2 5 2c4 1 9 1 14 0s14 0 24 2c11 2 22 5 32 9c11 4 21 7 31 10c9 2 15 4 18 4s7 1 11 2c3 2 7 5 9 8c3 3 6 5 10 7s8 3 11 3
s7 1 12 3c4 2 8 4 11 7s6 6 9 8c4 2 6 3 8 3s7 2 16 7c8 6 17 12 27 20c22 17 39 27 51 30c11 3 22 0 31 -9c23 -19 41 -33 54 -43s24 -19 35 -26c6 -5 12 -9 18 -13c5 -4 8 -6 9 -8c4 -5 11 -9 22 -14c10 -4 19 -6 27 -6c4 0 10 2 17 5c8 4 15 8 21 13c11 7 17 14 20 20
c2 5 3 14 1 26c-5 44 -21 104 -48 180c-7 19 -13 37 -18 53s-8 27 -8 32c-2 16 4 33 17 52s38 46 74 79c43 40 73 74 90 103c17 30 28 66 33 108c7 44 6 82 -3 115c-9 34 -30 76 -63 129c-6 8 -21 25 -48 53c-26 27 -57 57 -92 91c-35 33 -67 64 -97 91c-11 9 -20 18 -28 25
c-7 7 -12 11 -13 13c-5 5 -14 10 -24 14c-11 3 -20 4 -28 3c-6 -2 -10 -2 -13 -1c-3 2 -6 5 -7 10c-1 4 -3 7 -5 10s-4 4 -6 4s-7 2 -14 6s-14 9 -23 14c-8 6 -16 11 -23 15s-12 7 -15 8s-9 6 -20 15s-23 20 -37 33c-47 45 -87 70 -122 76c-8 1 -21 -1 -39 -4
c-17 -4 -36 -9 -55 -15s-34 -12 -45 -19c-18 -9 -37 -14 -57 -13c-9 0 -17 0 -25 -1c-8 -2 -14 -3 -18 -5s-13 -4 -26 -7c-13 -2 -28 -4 -44 -6c-33 -4 -57 -8 -72 -14s-25 -14 -30 -25c-6 -11 -7 -17 -5 -20s7 -1 14 6c14 14 19 14 14 1c-1 -3 -1 -6 0 -8s2 -3 5 -3
c5 0 7 -5 5 -17c3 -1 5 -2 6 -3c2 0 3 -1 4 -1h2c1 -1 2 -1 4 -2c1 -1 3 -2 5 -4c9 -5 15 -4 17 2c2 4 4 3 4 -4c1 -8 3 -10 8 -8c6 4 6 1 0 -9c-5 -10 -5 -16 1 -17c5 -1 5 -7 -1 -16l-3 -3c-1 0 -2 -1 -2 -1l-1 -1v0v-1h-1c0 -1 -1 -1 -1 -1c-1 -1 -2 -1 -3 -2l-3 -3
c-1 -4 -3 -11 -7 -19c-5 -9 -11 -17 -17 -26c-7 -9 -13 -17 -17 -24c-5 -8 -7 -13 -7 -15c0 -3 -1 -5 -3 -8s-4 -5 -6 -7c-3 -1 -7 -6 -12 -13c-5 -6 -9 -14 -14 -23s-9 -16 -13 -23c-4 -6 -6 -10 -7 -11s-3 -4 -5 -7c-2 -4 -5 -7 -7 -12c-3 -5 -5 -9 -5 -12s2 -5 5 -6
s5 -2 5 -5c0 -2 -2 -6 -5 -11c-3 -3 -6 -8 -9 -14s-6 -12 -9 -17c-3 -6 -5 -10 -8 -12c-3 -3 -5 -4 -7 -2c-1 1 -2 0 -2 -4c-1 -3 0 -8 1 -15s1 -12 1 -14c1 -3 0 -4 -1 -1c-2 4 -6 5 -10 0c-5 -4 -10 -11 -15 -21c-5 -9 -9 -20 -13 -31c-3 -12 -5 -22 -5 -31v-22l10 17
l10 17l-2 -17c0 -5 -3 -10 -7 -17c-4 -6 -9 -11 -15 -16c-16 -12 -29 -37 -36 -75s-11 -96 -11 -173c-1 -57 2 -102 9 -136s20 -67 40 -100c38 -67 77 -119 119 -155c41 -36 96 -67 164 -91c11 -4 20 -8 29 -12s15 -7 18 -9s11 -4 26 -7c14 -2 30 -4 49 -5z" />
    <glyph glyph-name="R" unicode="R" horiz-adv-x="1222" 
d="M-261 615c-4 0 -5 4 -5 11c0 6 1 10 5 10c3 0 5 -4 5 -10c0 -7 -2 -11 -5 -11zM-264 646c-3 0 -4 2 -4 6s0 7 2 9c1 3 2 4 3 4s2 -3 2 -8c-1 -7 -2 -11 -3 -11zM285 703c-17 0 -26 16 -26 48c0 17 3 38 7 64c13 78 19 148 19 211c1 28 6 56 15 83s20 48 33 62
c34 31 82 47 142 47c12 0 29 -2 50 -5c29 -4 44 -21 44 -51c0 -28 -11 -70 -33 -127c-22 -56 -52 -115 -91 -177c-39 -63 -77 -107 -112 -134c-20 -14 -36 -21 -48 -21zM78 -2c47 0 85 3 112 8c20 3 33 17 39 44c3 16 5 41 5 75c0 21 -1 45 -2 73l-1 68c0 89 5 161 16 214
l23 100l204 -239c83 -98 151 -170 202 -217s97 -74 138 -82c13 -2 26 -4 40 -4c31 0 65 7 102 19c78 23 118 46 118 68c0 18 -22 39 -65 61c-37 22 -90 65 -160 129c-71 63 -136 127 -197 192s-92 105 -92 120c0 10 12 28 36 55c23 26 52 53 87 80c139 111 209 220 209 329
c0 64 -25 126 -75 186c-47 58 -112 98 -197 121c-84 23 -207 34 -368 34h-68c-92 0 -162 -5 -210 -15s-77 -37 -86 -80c-4 -20 -7 -46 -7 -78c0 -36 3 -80 9 -132c11 -123 22 -258 33 -405c13 -175 26 -332 39 -469c13 -138 28 -218 44 -241c12 -9 36 -14 72 -14z" />
    <glyph glyph-name="S" unicode="S" horiz-adv-x="1085" 
d="M338 2c241 0 412 15 515 44c74 20 118 52 132 96c2 5 3 11 3 17c0 22 -12 49 -37 81s-64 65 -116 101c-52 35 -109 65 -172 89c-113 40 -197 92 -251 155s-81 140 -81 232c0 61 11 108 33 141c32 46 100 69 205 69c37 0 80 -2 128 -7s91 -8 128 -8c35 0 72 4 112 10
c84 15 126 79 126 194v119l-160 14c-102 8 -196 24 -281 47c-39 10 -73 16 -102 16c-4 0 -15 0 -33 -1s-44 -10 -80 -27c-142 -70 -246 -160 -310 -268c-40 -70 -61 -141 -61 -213c0 -41 7 -81 19 -122c31 -89 79 -172 144 -249c65 -78 137 -137 216 -179l145 -74l-91 -20
c-62 -15 -120 -36 -173 -64c-57 -30 -100 -44 -129 -44c-16 0 -29 -8 -37 -24c-8 -15 -12 -32 -12 -49c0 -3 0 -10 1 -22s8 -25 22 -39c13 -10 78 -15 197 -15z" />
    <glyph glyph-name="T" unicode="T" horiz-adv-x="1344" 
d="M825 -22c7 0 19 5 36 14c17 10 46 54 87 131c23 40 40 77 50 112c9 35 14 85 14 152c0 66 -3 167 -10 302l-19 432l170 53c83 27 144 58 182 94c26 25 39 49 39 72c0 11 -3 22 -9 33c-10 12 -48 18 -113 18c-41 0 -93 -2 -156 -7c-55 -5 -108 -7 -159 -7
c-91 0 -158 6 -201 18c-36 10 -67 15 -91 15c-4 0 -14 0 -28 -1c-15 -2 -34 -11 -58 -29c-20 -13 -55 -25 -106 -38c-51 -12 -105 -21 -163 -27c-79 -7 -134 -16 -165 -27s-47 -27 -49 -48c-1 -8 -2 -17 -2 -24c0 -48 30 -90 90 -127c61 -37 161 -64 302 -82
c39 -3 69 -10 92 -19c22 -9 40 -29 53 -60c24 -55 52 -216 84 -484c14 -103 29 -194 44 -273s27 -129 36 -148c16 -30 32 -45 50 -45z" />
    <glyph glyph-name="U" unicode="U" horiz-adv-x="1335" 
d="M784 -7c60 0 131 14 212 43c90 28 152 64 186 108c34 43 54 113 61 210c12 125 29 242 51 351c13 78 20 157 20 238c0 41 -4 104 -11 187c-7 84 -29 150 -65 199c-48 55 -106 83 -173 83c-53 0 -103 -20 -150 -58l-84 -72l61 -121c22 -43 39 -100 50 -172
c12 -72 21 -175 28 -307l17 -358l-89 -46c-26 -13 -59 -24 -98 -33s-75 -13 -107 -13c-35 0 -62 3 -82 8c-20 6 -39 18 -56 36c-17 19 -39 47 -64 84c-25 38 -43 73 -55 106s-19 80 -22 142c-3 51 -4 144 -4 278c-2 259 -9 403 -23 432c-20 28 -49 51 -86 69
c-45 20 -90 31 -136 31c-31 0 -58 -7 -79 -20c-13 -12 -20 -67 -20 -165c0 -159 13 -335 39 -529c13 -96 27 -169 43 -220c33 -94 92 -183 175 -269c142 -148 294 -222 457 -222h4z" />
    <glyph glyph-name="V" unicode="V" horiz-adv-x="1706" 
d="M986 25c22 0 48 6 78 20s46 33 50 59c2 14 11 35 29 64c17 28 38 58 63 88c48 59 102 141 164 245c61 104 117 207 167 309s82 180 95 234c6 26 12 50 19 73c15 48 23 89 23 122c0 32 -12 63 -36 94c-61 69 -114 104 -157 104c-29 0 -53 -15 -73 -43
c-20 -29 -33 -72 -39 -130c-3 -19 -16 -63 -40 -133s-54 -149 -90 -238c-36 -90 -74 -173 -114 -250c-40 -78 -78 -133 -114 -166c-16 -15 -30 -23 -44 -23c-16 0 -31 12 -43 36l-3 -1c-7 0 -21 12 -44 37c-22 25 -48 57 -76 96s-51 75 -68 109c-115 164 -216 301 -304 412
c-129 162 -227 244 -295 244c-33 0 -61 -18 -85 -52c-14 -18 -21 -39 -21 -63c0 -10 3 -27 8 -52c5 -24 30 -72 75 -143c44 -71 112 -168 203 -291c66 -91 131 -185 197 -282c65 -98 114 -176 148 -234s66 -108 97 -150s54 -66 70 -72c41 -16 83 -23 124 -23h36z" />
    <glyph glyph-name="W" unicode="W" horiz-adv-x="2243" 
d="M1051 36l35 1c29 1 50 11 63 31s27 56 43 108c8 26 18 57 30 92c0 17 3 36 10 58c17 53 42 79 74 79c5 0 11 0 16 -2c30 -15 62 -36 97 -65c34 -28 80 -81 137 -159c44 -82 88 -123 131 -123c3 0 16 2 41 4s70 53 136 151c31 47 70 116 119 206s95 182 139 274
c62 130 105 235 129 315c16 54 24 100 24 140c0 20 -4 46 -12 79s-35 69 -81 108c-41 38 -82 63 -123 75c-26 8 -55 12 -86 12c-19 0 -38 -1 -58 -4c-21 -4 -32 -22 -32 -52c0 -34 4 -73 12 -118c10 -56 15 -100 15 -130c0 -32 -13 -91 -38 -177s-53 -170 -84 -252
c-43 -115 -69 -173 -78 -173c-13 0 -46 25 -100 75c-44 42 -76 72 -96 91c-68 54 -112 92 -132 115c-16 18 -31 31 -46 41s-39 18 -72 26c-11 3 -22 4 -31 4c-25 0 -48 -9 -67 -29s-39 -49 -58 -88c-1 -3 -3 -6 -5 -9c-20 -37 -42 -102 -66 -196c-14 -52 -22 -79 -26 -79
c-6 0 -75 98 -207 293l-88 127c-107 156 -192 271 -256 345c-88 102 -164 152 -228 152c-39 0 -75 -18 -109 -56c-17 -24 -25 -51 -25 -81c0 -32 15 -78 44 -137s90 -144 181 -254c27 -24 56 -55 87 -94c31 -38 63 -81 98 -127c93 -124 170 -215 230 -275
c76 -80 133 -158 172 -235c17 -35 35 -59 55 -72c17 -10 45 -15 86 -15z" />
    <glyph glyph-name="X" unicode="X" horiz-adv-x="1470" 
d="M325 39c61 0 102 19 123 57c4 7 8 12 12 16l13 22c12 26 27 47 47 64c8 11 24 28 46 52l50 54l5 7c11 13 21 30 30 49c2 2 4 4 6 5l4 4s2 2 3 2c1 1 2 1 2 1c0 1 0 1 1 2v1l2 3c2 2 4 4 6 5c22 20 41 30 55 30c2 0 7 -1 16 -3s25 -14 51 -38l17 -14
c30 -16 91 -64 184 -143s145 -118 158 -118h3c8 7 18 10 28 11c11 0 25 7 44 21c19 13 36 28 51 44c15 15 23 27 23 33l-10 49c-4 22 -13 33 -27 34c-20 2 -62 51 -127 148l-32 44l-87 101c-44 52 -68 85 -72 100c0 11 12 32 34 62c23 31 48 62 77 93c28 32 52 54 72 68
c29 19 58 35 85 47c35 17 70 40 104 69c55 47 87 93 96 138c2 12 2 28 2 48c0 41 -1 72 -4 94c-2 14 -6 26 -13 34c-26 36 -63 63 -111 82c-19 8 -35 11 -49 11c-9 0 -17 -1 -24 -4c-12 -6 -27 -9 -45 -9s-49 -20 -92 -62c-130 -126 -205 -208 -227 -247
c-13 -22 -26 -39 -39 -48c-14 -10 -24 -24 -32 -43l-77 -46l-63 53c-22 24 -33 39 -33 45c-2 18 -43 72 -124 162c-46 51 -98 91 -154 121c-25 13 -47 25 -67 36c-20 12 -34 19 -41 23c-12 6 -29 11 -51 15c-23 4 -46 6 -70 6c-23 -1 -42 -3 -55 -9c-42 -21 -63 -47 -63 -80
c0 -20 5 -42 14 -66c6 -18 14 -30 22 -37c10 -10 18 -25 22 -45s14 -41 30 -63c10 -12 37 -41 81 -87c127 -134 209 -219 246 -255c7 -7 17 -20 31 -38c39 -53 58 -91 58 -114c0 -14 -3 -28 -10 -41c-4 -8 -7 -18 -9 -29c-7 -30 -14 -50 -23 -61c-12 -14 -33 -47 -62 -98
c-79 -139 -125 -245 -137 -317c0 -34 25 -51 76 -51z" />
    <glyph glyph-name="Y" unicode="Y" horiz-adv-x="1176" 
d="M452 19c2 0 9 1 23 2c13 2 44 28 93 78c12 14 26 29 44 47c22 24 35 40 39 49c6 12 14 24 26 36c12 13 20 23 25 30c10 15 19 28 27 38c14 16 26 34 36 54c8 14 20 30 38 48c19 19 35 42 49 69c13 29 26 50 39 64c21 23 39 46 55 68c15 22 23 38 25 47c0 4 6 15 20 35
s23 37 29 52c16 32 27 54 34 66c10 18 18 33 25 47c0 2 1 6 5 13c13 27 30 54 51 82c25 35 39 57 40 67c2 17 9 40 21 69c13 35 24 72 35 109c8 28 13 49 13 60l-1 11c-3 31 -11 53 -26 68c-11 11 -25 22 -42 33l-21 15c-29 20 -52 30 -68 30c-9 0 -17 -2 -25 -6
s-15 -7 -20 -8s-9 -2 -13 -4s-7 -5 -11 -11s-8 -16 -12 -29c-5 -13 -12 -30 -20 -50c-9 -21 -18 -40 -26 -58c-9 -18 -17 -35 -23 -51c-7 -16 -11 -26 -13 -31c-2 -6 -6 -13 -10 -22c-5 -10 -10 -19 -15 -28c-6 -9 -12 -21 -19 -36c-8 -15 -14 -29 -20 -42
c-6 -14 -12 -25 -16 -35c-5 -10 -9 -15 -11 -17c-2 -1 -4 -2 -7 -2c-11 0 -31 20 -57 60c-24 33 -59 76 -104 129c-51 58 -79 87 -84 89s-17 14 -38 37c-22 22 -35 35 -40 38c-3 0 -16 5 -38 17c-19 10 -45 19 -78 29c-41 12 -70 18 -87 18c-12 0 -25 -3 -39 -9
c-35 -15 -52 -33 -52 -57c0 -15 5 -32 15 -53c5 -12 12 -24 21 -35c14 -18 68 -69 163 -153l48 -41c75 -62 114 -99 118 -111c5 -12 14 -22 26 -30c26 -22 51 -48 73 -78s33 -54 35 -70c0 -10 -13 -41 -38 -91c-22 -43 -34 -70 -38 -82c0 -3 -8 -17 -24 -44
c-13 -19 -25 -43 -37 -72c-8 -20 -16 -40 -26 -58c-8 -14 -19 -35 -31 -61c-33 -68 -50 -107 -51 -116c0 -4 -6 -19 -18 -44c-19 -48 -28 -86 -28 -117c0 -34 12 -52 36 -52z" />
    <glyph glyph-name="Z" unicode="Z" horiz-adv-x="1278" 
d="M127 193c25 -63 57 -108 96 -135c38 -27 83 -44 135 -50c51 -6 110 -9 174 -7c19 0 38 -1 58 -1c12 1 23 1 32 1c10 -1 15 -2 17 -3s6 -1 13 0s15 3 24 5c6 2 13 2 23 2c10 -1 20 -2 29 -3c12 -1 20 -2 25 -2c7 1 14 2 21 5c8 3 13 5 17 9c4 3 9 6 14 8s10 2 14 2
c7 -1 26 0 56 3c31 3 61 6 92 11c31 4 52 9 62 15c5 4 12 9 20 15c10 9 20 17 32 25c11 8 23 13 36 16c11 4 27 14 49 30c22 17 42 35 60 55s26 36 26 49s-17 17 -50 14c-12 -3 -21 -4 -27 -4h-18c-7 1 -18 1 -33 1c-11 -1 -23 -1 -35 -2s-22 -2 -29 -4c-8 -1 -20 -2 -36 -3
c-16 -2 -32 -3 -49 -4c-17 -2 -32 -3 -45 -4c-12 -2 -20 -3 -22 -4s-9 -2 -23 -4c-13 -1 -35 -3 -67 -6c-31 -3 -75 -7 -130 -12c-39 -3 -84 -4 -135 -3c-52 2 -91 4 -119 9l-46 7l4 28c3 19 19 52 47 97c30 47 65 96 106 147c18 24 35 42 50 56c9 9 20 20 30 32
c11 12 23 28 37 49c9 7 20 17 34 29c13 12 25 23 35 34c10 10 16 17 17 20c1 6 12 16 34 32c14 10 33 25 57 43c17 15 31 28 43 39c12 12 18 19 19 23c1 3 2 6 4 9s5 5 7 6c3 2 8 5 14 11c7 6 13 12 20 19c7 8 14 15 21 22s13 13 17 16c14 12 30 22 49 31c10 6 19 11 27 16
c7 4 11 9 12 13s2 8 4 12c1 3 3 6 6 7c5 3 8 15 9 34c2 20 2 41 0 64s-5 42 -10 56c-8 20 -17 37 -26 51s-17 22 -22 23c-2 1 -4 4 -8 10c-4 5 -8 12 -13 20c-7 11 -12 19 -16 25c-17 22 -37 38 -61 48c-25 11 -56 21 -95 31c-15 4 -32 9 -50 14c-30 10 -58 17 -86 20
c-27 2 -54 4 -80 4c-30 1 -58 3 -85 7c-22 0 -43 1 -61 2c-17 1 -34 1 -51 2c-20 -3 -46 -5 -77 -5c-48 2 -91 -3 -130 -12c-26 -9 -51 -15 -74 -19c-22 -4 -38 -6 -46 -5c-2 0 -7 -2 -14 -6s-14 -8 -21 -13c-8 -5 -14 -8 -17 -11c-14 -11 -22 -27 -24 -48
c-1 -21 4 -40 16 -59c19 -29 40 -51 64 -66s56 -19 96 -12c9 2 21 3 36 2c15 0 30 0 44 -1h27c2 0 5 -1 9 -2c5 -1 15 -3 32 -4c16 -1 43 0 81 3c146 -1 265 -9 359 -23c3 -3 7 -5 10 -7c15 -8 24 -16 28 -22s3 -16 -2 -31c-5 -10 -16 -24 -34 -43s-36 -38 -56 -57
c-23 -22 -38 -37 -44 -46l-183 -176l-147 -136c-25 -21 -48 -45 -69 -71c-19 -22 -39 -44 -61 -65c-4 -4 -10 -11 -19 -21c-8 -10 -16 -21 -24 -32c-25 -32 -44 -71 -58 -116c-15 -44 -15 -88 -2 -129z" />
    <glyph glyph-name="underscore" unicode="_" horiz-adv-x="1071" 
d="M653 -227c205 6 328 21 370 44c31 17 46 35 45 53c0 15 -18 31 -53 47c-71 31 -269 42 -595 31c-215 -7 -342 -18 -380 -33c-24 -12 -36 -24 -35 -38c0 -6 6 -16 18 -30s45 -28 99 -43c54 -14 117 -22 189 -22c61 1 120 -2 177 -9c30 -3 85 -3 165 0z" />
    <glyph glyph-name="grave" unicode="`" horiz-adv-x="1024" 
d="M1022 1068c8 2 15 6 20 13c5 6 6 24 5 52c0 9 -1 18 -3 28c-9 34 -44 83 -107 146c-99 96 -176 137 -233 123c-34 -8 -53 -40 -58 -94c-1 -13 -1 -26 2 -38c2 -8 8 -20 16 -33c8 -14 29 -35 63 -64c80 -69 150 -111 210 -127c36 -9 64 -11 85 -6z" />
    <glyph glyph-name="a" unicode="a" horiz-adv-x="925" 
d="M356 249c-73 -35 -125 -30 -156 14c-5 6 -9 13 -11 19c-2 7 -3 17 -3 32c0 14 1 37 2 67s3 53 4 70c2 16 5 30 9 41c4 12 11 25 19 40c3 6 6 12 10 19c3 7 6 12 9 17c26 51 69 99 129 145c14 10 32 20 54 30c23 9 41 15 54 17c11 1 19 1 25 -1s12 -5 17 -11
c4 -4 7 -8 8 -14c2 -5 3 -14 3 -26s-1 -30 -2 -55c-2 -24 -3 -51 -4 -83c-1 -31 -2 -59 -2 -84c-1 -25 -2 -44 -3 -57c0 -14 -2 -24 -4 -31s-6 -13 -10 -19c-15 -22 -38 -46 -68 -72s-56 -45 -80 -58zM603 14c4 -2 8 -3 10 -3c3 0 6 2 10 5c3 4 9 10 16 19
c19 22 35 50 48 85c12 35 27 93 44 172c2 9 5 19 7 31c3 11 5 20 7 27c1 8 4 22 7 43c3 20 6 42 8 65c21 167 37 264 48 290c26 50 33 98 21 142c-13 45 -41 78 -84 101c-9 5 -20 8 -32 11s-23 5 -32 6c-10 0 -16 -1 -18 -3c-1 -2 -4 -3 -10 -5s-13 -3 -21 -4
c-6 -1 -14 0 -22 3c-7 2 -14 4 -21 5c-8 1 -14 -1 -20 -4c-14 -9 -24 -15 -31 -18c-8 -2 -15 -3 -21 -1c-5 2 -17 3 -35 4c-18 2 -38 3 -60 4c-25 1 -43 1 -56 1c-12 -1 -22 -2 -30 -4c-7 -3 -15 -6 -25 -12c-9 -5 -20 -11 -33 -20c-12 -9 -24 -17 -34 -25
c-10 -9 -21 -17 -33 -26s-21 -15 -29 -21c-21 -14 -48 -39 -81 -73c-32 -34 -57 -63 -74 -87c-17 -26 -33 -57 -49 -91s-26 -61 -29 -79c-12 -69 -10 -128 3 -179c29 -109 77 -189 145 -240c22 -18 43 -32 63 -44c20 -11 46 -23 76 -35c12 -5 25 -9 39 -11
c13 -1 31 -2 54 -2c40 0 73 4 99 13c25 8 49 22 72 42l38 32l12 -15c3 -5 6 -10 9 -16c2 -5 3 -10 3 -15c1 -6 3 -14 8 -24s10 -19 17 -28c6 -9 11 -14 16 -16z" />
    <glyph glyph-name="b" unicode="b" horiz-adv-x="1189" 
d="M471 378c-26 -18 -48 -32 -65 -42c-18 -11 -39 -25 -63 -41c-11 0 -19 6 -24 18s-4 24 2 37c2 6 5 14 8 24c3 11 6 22 8 33c5 34 8 71 9 109c1 29 3 53 5 73c3 20 8 31 16 31c2 1 5 3 11 7c5 4 11 9 18 14l18 15c5 4 10 7 14 9c8 5 20 11 38 18c17 8 35 14 54 19
c56 10 101 9 134 -3c34 -12 62 -27 84 -44c7 -4 13 -9 20 -12c6 -7 0 -22 -20 -47c-20 -24 -44 -50 -74 -77c-29 -27 -55 -48 -77 -62c-11 -7 -21 -14 -30 -21c-9 -8 -14 -13 -17 -17c-2 -4 -5 -7 -8 -9c-4 -3 -7 -4 -10 -4c-2 0 -9 -3 -18 -8c-10 -6 -21 -12 -33 -20z
M250 -15c12 5 21 8 26 9c5 2 8 3 9 3c1 1 2 1 2 1h1s0 1 1 1s2 1 4 2s5 2 10 5c4 2 10 4 18 8c39 1 75 8 109 20c33 13 74 37 125 71c15 11 29 20 41 27s18 10 20 10s4 1 8 3c3 2 6 4 10 7c37 31 73 56 107 77c33 20 56 31 68 31c4 0 10 2 18 7s17 12 25 19c8 8 19 17 31 28
c13 10 24 20 35 28c24 20 53 46 86 79s62 66 88 97c15 19 25 34 30 46s6 29 6 50c0 30 -6 57 -18 81c-13 24 -36 53 -70 88c-56 54 -137 101 -243 140s-206 58 -299 58c-19 0 -38 -1 -56 -3c-15 -1 -27 -2 -37 -2s-17 1 -20 4c-4 6 -4 28 -2 65c2 33 2 76 2 129
c-1 42 0 81 2 119c2 47 2 79 -1 98c-13 54 -36 90 -69 108c-32 18 -63 26 -93 25c-47 -7 -79 -37 -98 -90s-29 -117 -31 -191s-2 -147 1 -217c4 -79 3 -140 -1 -181c-43 -67 -53 -139 -29 -217c5 -15 9 -33 12 -54c3 -20 6 -50 7 -88c2 -38 3 -91 5 -159v-96
c-1 -38 0 -71 2 -99c3 -28 10 -57 23 -89c4 -16 12 -28 24 -35c11 -6 32 -11 63 -14c12 -1 23 -3 32 -4c9 -2 14 -3 16 -5z" />
    <glyph glyph-name="c" unicode="c" horiz-adv-x="889" 
d="M277 -25c19 -4 45 -4 78 -3c34 2 66 6 97 12c32 6 53 14 66 23c3 3 5 4 8 5c3 0 5 0 6 -1c2 -2 4 -2 8 0c3 1 7 4 11 7c12 12 34 25 66 42c5 2 11 6 17 10s11 7 15 10c26 21 44 36 55 45c10 10 16 18 18 23c2 4 4 7 6 10c3 3 5 4 7 4s4 1 6 3c1 2 2 5 2 8s1 6 3 9
c3 4 6 6 9 8c6 4 10 12 12 25c3 13 4 27 3 42s-3 27 -7 37s-10 14 -17 11c-19 -7 -44 -19 -76 -35c-45 -22 -94 -44 -147 -66c-53 -21 -100 -34 -143 -37c-46 -1 -80 -1 -100 3c-20 3 -35 10 -47 21c-6 5 -10 9 -13 13c-2 4 -2 9 -1 16c0 8 3 19 7 34c12 50 32 91 60 122
c4 4 8 10 13 17c5 6 10 13 14 18c4 6 11 14 20 24c10 9 21 19 32 27c11 9 21 17 31 25c9 7 16 12 20 15c3 3 8 6 14 10c7 4 13 8 19 11c60 32 96 52 108 62c4 3 15 9 33 19s38 21 61 32c22 12 43 22 61 31c5 2 9 5 12 7c3 3 5 5 5 6c0 2 1 3 4 4c2 1 5 2 9 2
c14 0 30 11 46 32c16 22 27 45 33 72c3 23 -4 50 -20 81c-17 30 -36 52 -59 65c-32 16 -67 26 -105 31c-38 6 -67 5 -86 -4c-4 -2 -12 -5 -23 -11l-38 -19s-28 -13 -41 -18s-23 -7 -29 -8s-13 -3 -21 -7c-8 -3 -14 -7 -20 -11c-6 -5 -16 -11 -29 -19c-13 -7 -26 -15 -40 -22
c-57 -30 -121 -76 -190 -139c-17 -16 -37 -37 -61 -63c-23 -27 -44 -52 -63 -76s-30 -40 -33 -49c-1 -4 -3 -7 -5 -10s-4 -4 -6 -4s-3 -3 -5 -9c-1 -6 -1 -14 -1 -23s-1 -21 -2 -36s-2 -30 -3 -43c-10 -98 30 -200 119 -306c20 -22 53 -45 97 -68s84 -39 120 -47z" />
    <glyph glyph-name="d" unicode="d" horiz-adv-x="1237" 
d="M462 240c-16 -7 -37 -9 -61 -9c-25 1 -46 5 -62 14c-27 11 -45 26 -56 46c-10 19 -15 49 -15 89c-3 47 5 87 23 121c18 35 42 77 70 127c29 50 54 83 75 98c20 15 39 19 56 10s40 -29 69 -59c59 -61 110 -124 153 -190c42 -66 68 -122 77 -168c4 -17 5 -27 1 -32
c-3 -5 -14 -10 -32 -14c-11 -3 -20 -5 -28 -6s-13 0 -15 1c-1 1 -4 2 -8 1s-9 -2 -13 -5c-6 -2 -18 -5 -37 -8c-19 -2 -41 -4 -65 -6c-24 -1 -49 -3 -74 -5s-44 -4 -58 -5zM208 -25c16 -2 46 -3 88 -3c42 1 82 2 122 5c39 3 63 6 72 9c6 3 12 6 20 8s15 3 20 3
c6 0 13 2 23 7c10 4 20 10 29 17c9 6 17 12 26 17c9 4 15 7 18 7c5 0 13 3 27 8c13 5 28 12 44 20s31 15 44 21c13 5 22 8 25 8s10 -4 20 -10s22 -14 34 -23c84 -63 140 -79 168 -48c4 4 8 7 12 10c5 3 9 4 13 4c20 0 24 44 13 133c-3 23 -5 49 -6 78s-1 55 1 78
c1 22 3 42 4 60c1 17 2 28 3 33c0 4 2 15 5 31c4 16 8 34 13 55c4 20 8 38 12 55c3 16 5 26 5 31c0 4 2 15 6 32s8 37 14 58c17 65 31 120 44 165c12 44 21 135 28 272c3 65 -2 116 -13 153c-12 37 -30 66 -54 86c-25 21 -56 40 -92 58c-26 12 -57 16 -94 13
c-38 -4 -70 -14 -97 -31c-16 -10 -26 -18 -29 -25c-4 -7 -4 -17 -2 -31c2 -10 6 -24 11 -43c6 -18 12 -36 19 -54c3 -7 5 -12 7 -15c2 -4 4 -6 6 -6c1 -1 3 -1 4 0c1 0 2 1 2 2c1 1 1 1 2 1v-2v-7s-1 -8 -1 -14c0 -9 -1 -24 -2 -42c-2 -37 -4 -70 -6 -100
c-1 -30 -3 -49 -4 -58c-4 -33 -8 -66 -13 -98l-25 -128c-1 -19 -3 -35 -5 -48c-3 -13 -5 -20 -8 -22c-3 0 -11 5 -23 15c-12 9 -26 22 -42 38c-30 29 -56 53 -76 71c-21 18 -34 27 -38 27c-1 0 -10 4 -25 11c-16 7 -34 16 -56 27c-76 40 -140 59 -192 57
c-83 -1 -130 -12 -142 -33c-42 -25 -87 -86 -137 -185c-49 -98 -81 -201 -94 -310s-14 -172 -1 -191s36 -44 68 -75c22 -22 44 -50 66 -83s48 -57 76 -72c29 -15 50 -24 63 -27z" />
    <glyph glyph-name="e" unicode="e" horiz-adv-x="981" 
d="M410 495c-17 -12 -35 -13 -53 -5c-19 8 -35 21 -49 37c-13 17 -20 30 -20 41c0 6 1 13 2 21s3 15 5 20c4 9 16 23 36 43c21 19 43 39 67 59s44 35 60 45c14 9 24 18 30 25l5 5c13 7 29 9 46 6c17 -2 32 -8 43 -15c12 -8 15 -16 11 -24c7 -7 2 -28 -14 -62
c-16 -33 -41 -68 -74 -102c-9 -9 -18 -18 -26 -27c-29 -29 -52 -52 -69 -67zM309 24c11 -4 28 -6 51 -7s46 0 68 1c23 2 39 5 50 9c5 2 11 5 20 8c8 4 16 7 25 11c8 4 16 7 24 9c8 3 13 4 17 4c3 0 5 1 8 2c2 2 3 3 3 6c0 2 1 4 3 5c2 2 5 2 7 2c3 0 10 3 21 7s23 10 36 16
c13 7 24 12 34 17c11 4 17 7 20 7c2 0 7 2 14 7c8 4 16 9 24 16c9 6 17 12 24 16c7 5 11 7 14 7c6 1 18 6 35 14c17 9 33 18 48 29c16 10 24 18 25 24c15 -5 24 -2 29 10s6 27 3 46c-2 19 -6 35 -13 49c-6 14 -14 20 -21 18c-2 0 -6 -2 -11 -5l-20 -10
c-13 -8 -27 -15 -40 -22c-13 -6 -21 -10 -25 -10c-10 -2 -23 -8 -37 -18c-10 -6 -21 -12 -33 -18s-24 -9 -38 -9c-8 -3 -21 -6 -40 -10c-20 -3 -40 -5 -61 -7l-76 -5c-6 4 -10 7 -14 8c-3 2 -6 3 -8 4c-3 1 -5 2 -7 4c-2 1 -5 3 -9 6l-15 15c11 8 24 18 39 29
c14 11 27 22 39 32c11 10 17 16 17 19c0 2 4 6 12 13s16 14 27 23c8 8 17 15 24 22c8 6 13 11 16 14c5 7 10 14 13 22c4 8 6 14 6 18c0 5 1 10 4 15s6 9 10 11l8 4c5 2 11 5 16 8c6 4 10 9 12 16c2 6 5 12 9 19c3 7 7 13 10 18c4 5 6 8 7 8c4 0 8 4 13 12s10 17 14 28
s7 22 8 31c1 8 3 18 7 28c4 11 8 20 12 28c10 18 19 41 28 71c8 30 13 54 13 71c0 6 -2 14 -6 23c-4 10 -8 18 -14 26c-7 9 -18 20 -33 31c-15 12 -30 23 -45 32s-26 13 -33 14c-3 0 -8 2 -16 4c-9 3 -17 7 -26 11c-24 10 -54 18 -91 24c-37 5 -69 7 -97 5
c-52 -6 -118 -37 -196 -92c-116 -82 -194 -151 -234 -207c-40 -57 -57 -121 -50 -193c1 -17 1 -32 0 -45c0 -13 -1 -21 -3 -24c-5 -6 -9 -11 -10 -15c-2 -4 -3 -7 -3 -11c0 -3 -2 -8 -4 -14c-3 -6 -8 -14 -17 -25c-6 -7 -11 -13 -16 -20c-4 -7 -6 -12 -6 -16s3 -13 8 -26
s11 -28 18 -43c13 -14 24 -25 34 -33c10 -9 19 -16 28 -23c13 -9 27 -21 44 -37c16 -15 38 -39 64 -71c23 -12 47 -25 74 -39c27 -13 51 -25 71 -34c21 -10 31 -14 31 -11c0 1 3 0 9 -1c5 -1 12 -4 20 -6z" />
    <glyph glyph-name="f" unicode="f" horiz-adv-x="956" 
d="M203 40c6 -13 17 -21 32 -25c15 -3 30 -3 44 0c15 4 26 10 33 18c0 2 2 8 5 17c3 8 8 18 13 29c12 26 21 65 26 116s8 124 7 217c1 75 0 128 -2 160c-1 26 -1 49 0 68c1 20 4 46 11 78c12 9 33 13 64 13c30 1 60 0 88 -2c14 -1 26 -2 35 -2s14 0 15 1c15 29 23 61 25 96
c3 26 8 50 15 74c1 1 1 2 1 2c0 5 0 8 -1 11c-1 2 -5 4 -11 5c-6 2 -16 2 -30 3c-14 0 -33 1 -58 1c-4 1 -8 1 -12 1c-38 0 -64 6 -78 17c-13 11 -20 33 -20 65c0 9 5 27 15 54c11 26 22 52 35 77c12 26 22 43 30 52c3 3 7 8 10 14c3 5 6 11 8 17c3 5 6 10 11 15s10 9 16 11
s11 5 17 9s11 8 15 11c4 4 7 7 12 8c4 1 11 0 20 -2s23 -5 41 -11c98 -31 173 -17 224 44c13 16 22 38 26 68c5 30 4 54 -4 71c-18 34 -40 60 -66 79c-26 18 -57 31 -92 37c-36 7 -76 11 -120 11h-27c-24 1 -50 1 -78 0c-27 -1 -49 -5 -64 -12c-21 -12 -49 -37 -85 -75
c-37 -38 -66 -72 -87 -104c-19 -31 -34 -54 -44 -71c-10 -16 -18 -29 -22 -39c-5 -9 -8 -19 -11 -29c-3 -9 -6 -17 -9 -24c-3 -8 -6 -13 -8 -15c-1 -3 -3 -8 -6 -16c-2 -9 -4 -18 -6 -28c-1 -10 -4 -20 -7 -31s-7 -19 -10 -26c-3 -6 -6 -13 -8 -21c-2 -7 -3 -14 -3 -18
c-1 -24 -9 -42 -25 -56c-15 -13 -37 -20 -63 -20h-2c-15 0 -32 -1 -49 -4c-18 -4 -33 -13 -44 -29c-4 -9 -8 -25 -10 -49c-3 -24 -4 -49 -5 -75c0 -25 0 -45 1 -58c2 -16 8 -25 18 -29c11 -4 24 -7 40 -7c13 -1 27 -2 43 -5c15 -3 30 -10 44 -21c17 -12 28 -28 33 -47
c4 -19 7 -44 8 -75c1 -30 5 -70 11 -117c4 -31 8 -60 13 -89c5 -28 8 -48 11 -60s6 -26 9 -43s6 -33 8 -47c4 -34 10 -70 16 -109c7 -38 12 -65 18 -79z" />
    <glyph glyph-name="g" unicode="g" horiz-adv-x="1041" 
d="M380 275c-16 -9 -33 -16 -50 -23c-18 -6 -33 -10 -46 -12s-22 -3 -29 -2c-6 0 -11 1 -14 4c-4 2 -7 7 -9 13c-11 23 -17 60 -17 111c-1 51 4 103 16 156c11 54 30 96 57 126c38 40 79 71 123 93s85 29 122 21c38 -7 66 -36 85 -85c22 -31 20 -79 -6 -142
c-29 -73 -58 -125 -89 -158s-78 -67 -143 -102zM179 -506c41 6 75 9 105 8c27 -1 57 1 91 5c64 9 121 33 170 73s88 82 117 127s46 79 50 103c20 20 41 52 62 97c21 44 32 89 34 134c2 7 4 29 6 64s3 76 4 123l35 165l39 87c5 13 9 24 12 33c5 15 9 27 11 35c3 8 5 16 6 23
c2 8 4 18 7 32c2 10 4 24 7 40c10 13 16 26 20 39c3 13 5 33 6 58c1 19 2 36 4 51c3 24 4 45 2 63s-12 35 -29 50c-1 1 -2 2 -3 2c-19 17 -34 30 -47 38c-12 9 -28 15 -45 18c-18 4 -44 6 -79 9c-18 1 -40 4 -65 9c-26 4 -49 9 -70 14c-47 12 -108 19 -183 19
c-62 1 -111 -4 -146 -14c-36 -10 -70 -28 -104 -56c-12 -10 -23 -19 -35 -27c-12 -9 -22 -15 -28 -18c-34 -20 -70 -61 -109 -122c-9 -14 -18 -29 -26 -43c-9 -14 -15 -24 -19 -30c-21 -38 -33 -95 -37 -171s2 -140 18 -191c29 -84 58 -142 85 -177c7 -8 14 -17 21 -25
c6 -9 11 -15 14 -19c4 -7 13 -15 26 -25s26 -19 40 -27c13 -8 23 -12 29 -13c4 0 8 -2 14 -4s11 -5 16 -8c7 -4 18 -7 31 -8s25 -1 37 0s19 4 22 7c1 3 3 4 7 6c3 1 7 2 11 2c3 0 14 5 31 14s37 21 58 35c42 26 80 42 113 48c33 5 52 -2 58 -20c2 -8 4 -15 6 -22
c4 -13 8 -28 11 -45c2 -18 2 -42 -1 -72c-5 -38 -14 -68 -27 -88c-13 -21 -31 -43 -53 -65c-3 -4 -7 -8 -11 -12c-19 -45 -53 -74 -99 -88c-47 -14 -97 -23 -151 -26c-46 -3 -87 -10 -124 -20c-39 6 -66 8 -83 7c-17 0 -28 -4 -32 -11s-6 -17 -6 -31c0 -7 -1 -15 -2 -24
c-6 -13 -11 -28 -14 -44c-3 -17 -4 -32 -3 -45c0 -13 3 -20 7 -22c20 -7 38 -13 56 -16c17 -4 37 -5 60 -4c19 0 36 -1 50 -2c13 -1 21 -2 22 -3z" />
    <glyph glyph-name="h" unicode="h" horiz-adv-x="1040" 
d="M161 24c30 0 52 20 67 61c9 26 22 84 38 173c-4 16 -6 33 -6 52c0 24 4 61 11 113c7 44 12 92 15 145c7 43 21 68 42 77c18 8 43 12 76 12l23 -1l133 2c15 -1 25 -3 32 -7s13 -11 20 -20c12 -14 18 -30 18 -49c0 -9 0 -19 -2 -31c-6 -59 -15 -112 -27 -159
c-14 -58 -26 -145 -37 -261c-5 -39 -8 -59 -9 -60s-1 -3 -1 -4l1 -6c4 -16 14 -23 29 -23c32 0 91 25 178 76l44 23c8 18 20 55 36 110c15 50 30 100 47 150c16 49 32 83 47 101c9 14 13 30 13 49v4c2 33 10 59 24 78l3 30c5 29 8 61 8 98c0 32 -8 59 -24 83
c-20 22 -46 46 -78 70c-22 17 -62 38 -118 64c-32 14 -62 23 -92 25l-70 10c-54 7 -104 10 -150 10l-66 -1c-44 0 -68 3 -73 10v15c0 85 11 174 32 266c11 51 17 95 17 129c0 33 -12 56 -37 70c-25 15 -41 29 -50 42c-7 10 -15 18 -25 25c-14 9 -41 13 -80 13
c-11 0 -22 -1 -33 -3s-26 -9 -44 -20c-30 -15 -49 -35 -56 -60c-3 -12 -5 -28 -5 -49c0 -22 2 -50 6 -84c3 -30 4 -61 4 -95c0 -37 -3 -86 -7 -147c-5 -61 -12 -115 -22 -160c-6 -28 -20 -56 -41 -84c-16 -33 -25 -70 -27 -109c-1 -15 -1 -30 -1 -46c0 -27 1 -55 3 -84
c1 -19 2 -39 3 -60c9 -20 15 -38 19 -54s7 -38 8 -65c1 -28 1 -131 1 -310l38 -47c11 -13 25 -26 40 -39c37 -32 72 -48 105 -48z" />
    <glyph glyph-name="i" unicode="i" horiz-adv-x="404" 
d="M125 15c6 1 13 3 22 8c23 13 34 23 34 28s3 9 10 10c7 0 16 14 27 43c11 26 17 50 20 72l9 44c1 16 5 35 12 57c9 22 14 43 14 62l-1 15c0 13 2 28 7 45c4 17 9 31 16 40c7 10 11 24 13 43s3 38 4 59c1 30 3 54 8 73c-1 24 -2 46 -2 68c0 26 1 51 3 73c2 19 3 38 3 55
s-2 37 -4 60c-3 23 -14 48 -35 75s-42 45 -63 55s-48 18 -82 23c-15 3 -29 4 -42 4c-35 0 -62 -10 -82 -30c-28 -28 -42 -52 -42 -73c0 -18 6 -43 19 -75c5 -13 9 -27 13 -41c3 -13 6 -24 7 -33c3 -16 5 -38 6 -66s1 -56 1 -84c-1 -27 -2 -48 -3 -62c-3 -26 -5 -48 -5 -66
l1 -44c5 -126 17 -229 36 -310c20 -86 44 -128 73 -128h3zM220 1105c11 0 20 2 28 5c8 4 18 12 30 24c15 13 24 23 28 32c4 8 5 27 5 55c0 18 -4 32 -12 41c-29 34 -53 56 -73 66c-12 7 -28 12 -49 15c-21 4 -34 6 -39 6c-10 0 -23 -4 -41 -12c-32 -16 -48 -37 -48 -63
c0 -20 11 -44 31 -71l30 -40c9 -13 23 -26 43 -39s42 -19 67 -19z" />
    <glyph glyph-name="j" unicode="j" horiz-adv-x="460" 
d="M-571 -497c18 0 49 3 93 9c55 6 88 13 97 19c7 7 21 14 41 22c19 9 38 25 57 47c19 23 33 47 43 73s21 69 31 130c16 92 29 147 38 165c6 6 10 30 11 73l3 56c2 46 7 75 14 89c6 11 9 28 9 51c0 8 0 16 -1 26s-1 20 -1 30c0 22 1 35 3 40c5 17 7 39 7 68
c3 94 6 167 11 219c2 24 3 47 3 69c0 34 -2 72 -8 117c-6 44 -16 79 -31 105c-19 28 -46 55 -81 81s-64 41 -88 44c-71 0 -119 -22 -145 -66c-5 -8 -8 -26 -8 -56c0 -24 4 -83 11 -179c10 -127 15 -211 15 -254v-118c0 -84 2 -175 5 -274c1 -25 1 -56 1 -94
c-1 -24 -5 -44 -13 -59l-2 -6c-6 -16 -10 -28 -10 -37c0 -10 -9 -22 -29 -39c-15 -14 -31 -23 -46 -25h-38c-41 1 -80 9 -117 24c-30 13 -66 21 -108 25c-6 5 -16 8 -30 10c-10 2 -28 2 -53 2c-28 0 -45 -2 -49 -6c-4 -12 -7 -25 -10 -40c-2 -15 -4 -25 -4 -31
c0 -2 1 -3 3 -5c2 -1 4 -10 7 -28c8 -36 19 -55 32 -57c12 -22 43 -49 93 -81c24 -14 46 -30 64 -46c10 -8 27 -20 49 -33c22 -14 45 -26 67 -38c29 -14 50 -22 64 -22zM-280 1083c16 0 30 2 39 5c10 4 20 11 32 21c25 23 37 48 37 75c0 12 -5 30 -14 57
c-9 26 -42 55 -99 85c-23 12 -43 18 -59 18l-20 -2c-50 -9 -76 -21 -76 -37c0 -7 -2 -11 -8 -11c-9 0 -13 -9 -13 -26c0 -68 32 -124 96 -168c18 -11 46 -17 85 -17z" />
    <glyph glyph-name="k" unicode="k" horiz-adv-x="900" 
d="M229 -10c22 0 40 13 54 41c4 12 6 22 6 29s-2 15 -4 22c-2 8 -4 18 -6 32c-1 10 -2 29 -2 58c5 79 8 119 11 122h1c5 0 21 -12 48 -36c29 -27 64 -50 104 -70c29 -15 54 -30 77 -46c18 -12 39 -26 64 -41c25 -14 45 -28 62 -42c27 -22 48 -33 63 -33c7 0 15 2 23 7
c17 7 27 11 30 11c8 2 22 10 41 23c18 13 31 19 37 19l2 -1c5 0 12 7 20 21c9 14 17 22 26 25c10 5 14 9 14 12c0 1 0 2 -2 2c-8 5 -20 17 -33 34c-35 46 -73 78 -114 99c-133 53 -244 130 -331 230c20 35 49 66 86 93c14 9 21 16 21 21c0 2 -3 5 -9 7c8 16 18 31 32 48
c13 16 26 31 39 43c12 12 22 18 29 19c5 0 13 6 24 16c12 9 23 21 35 33c12 13 21 25 27 35c10 17 15 37 15 59c-1 55 -33 96 -96 126c-32 14 -62 22 -91 22c-41 0 -76 -14 -104 -41c-26 -25 -55 -70 -89 -135c-6 -9 -11 -14 -15 -14c-5 0 -8 17 -8 51c0 30 2 66 4 107
c3 41 7 71 12 90c5 20 8 45 8 75c0 113 -38 191 -115 234c-30 15 -61 23 -95 23c-10 0 -23 -2 -36 -6c-13 -5 -30 -16 -49 -35c-14 -13 -24 -24 -29 -33c-5 -8 -8 -19 -8 -32c0 -11 4 -33 11 -67c7 -116 19 -330 34 -643c10 -198 18 -308 25 -329c3 -10 6 -60 8 -150
c2 -87 6 -131 13 -131c3 0 6 2 9 6c10 8 18 12 25 12l10 -1c34 -14 63 -21 86 -21z" />
    <glyph glyph-name="l" unicode="l" horiz-adv-x="332" 
d="M168 -34c11 3 20 21 27 55c9 46 14 99 14 157c0 33 -2 65 -6 97c-1 16 -2 37 -2 63c0 117 7 220 20 309c11 64 18 116 21 156s5 96 5 169c0 74 -8 162 -23 266l-9 71c-2 21 -7 45 -16 73c-8 28 -12 46 -12 53c-1 33 -25 57 -72 72c-13 5 -25 12 -34 19
c-14 10 -29 15 -46 15c-2 0 -9 -1 -20 -1c-11 -1 -24 -8 -41 -20l-28 -23l18 -43l-2 -5c-5 -5 -8 -31 -8 -77c0 -64 4 -104 12 -121c5 -10 10 -21 13 -33c4 -20 6 -56 6 -107l-1 -66c-1 -41 -2 -76 -2 -104s0 -44 1 -46c1 -3 2 -19 3 -48v-170c0 -87 4 -159 13 -215
c3 -24 4 -43 4 -58c0 -16 -2 -33 -5 -52c-2 -9 -3 -17 -3 -25c0 -4 3 -22 9 -54c7 -47 12 -81 16 -101l4 -31c0 -11 4 -33 12 -68l11 -60c3 -17 23 -28 60 -33c12 -2 24 -5 35 -9s20 -5 26 -5z" />
    <glyph glyph-name="m" unicode="m" horiz-adv-x="1150" 
d="M182 11c40 0 65 3 75 10c9 7 18 28 26 61c8 34 12 73 13 119c1 45 4 83 6 115c2 7 3 26 3 56l-2 87c-2 48 -4 85 -4 111s2 46 4 62c2 15 6 31 12 46c6 16 17 29 35 41c16 9 30 13 43 13c12 0 22 -3 30 -9c11 -9 18 -45 21 -107l18 -379l15 -87c6 -18 10 -34 11 -49
c2 -15 5 -26 10 -34c23 -26 45 -39 66 -39c3 0 11 1 24 4s29 16 47 39s33 47 44 72c7 9 13 28 19 55c12 58 19 118 22 181c0 25 3 62 9 110c3 18 4 36 4 55c0 33 -1 55 -3 67c0 22 1 38 1 46s2 20 4 36l54 -17c12 -13 20 -33 24 -59c4 -27 8 -68 11 -124c3 -38 4 -73 4 -106
c0 -64 -4 -128 -14 -192c-3 -25 -5 -44 -5 -57c0 -14 2 -24 5 -30c3 -7 6 -12 9 -16c3 -3 5 -6 7 -6l35 1c17 0 32 -1 46 -2l29 -2c22 0 39 4 50 10c12 7 18 23 18 48c0 10 -1 21 -3 33c8 7 17 46 27 115c5 34 10 59 14 75c3 10 5 21 5 31l-1 7c0 12 2 21 4 28
c3 7 5 14 7 21c2 6 2 11 2 15c0 3 1 7 3 10c2 4 4 8 7 11c4 4 5 16 5 37c0 12 0 26 -2 43v29l1 37c0 13 -3 25 -10 36c-15 26 -23 54 -25 82c-1 24 -7 47 -18 70c-14 30 -53 56 -117 78c-81 30 -129 49 -144 57c-40 22 -89 35 -146 37l-46 1c-24 0 -78 -3 -162 -8
c-50 -3 -79 -7 -85 -12c-8 -5 -28 -11 -59 -18c-18 -5 -44 -12 -77 -21c-22 -8 -47 -12 -77 -14c-35 -2 -60 -5 -75 -8c-14 -3 -27 -8 -37 -16c-38 -26 -57 -56 -57 -92c0 -23 8 -49 24 -76l23 -40c11 -215 17 -333 20 -355c4 -32 8 -53 12 -62c2 -5 4 -11 6 -19
c17 -79 33 -131 47 -155c4 -6 10 -15 19 -28c23 -31 41 -50 55 -56c8 -2 19 -3 34 -3z" />
    <glyph glyph-name="n" unicode="n" horiz-adv-x="905" 
d="M252 -23c4 26 6 50 7 72c0 22 1 54 1 94c0 176 12 327 38 453c11 56 23 84 35 84c4 0 10 4 17 10c5 8 29 11 73 11c43 0 65 -1 65 -5c0 -3 2 -5 6 -5l7 1c5 0 11 -4 17 -12c6 -9 9 -15 9 -21c0 -5 -3 -13 -8 -24c-7 -18 -10 -32 -10 -42s-9 -39 -25 -86
c-15 -47 -22 -117 -22 -209c0 -94 6 -160 19 -197c19 -52 46 -78 81 -78c23 0 44 10 64 29c6 6 14 25 26 58c15 42 27 67 35 77c8 13 15 33 20 60c7 49 11 78 11 88l5 10c18 41 37 74 58 97c16 20 25 42 25 65c0 7 -1 13 -2 19c-2 9 -2 18 -2 26c0 10 2 19 7 28
c9 20 16 35 21 47c4 11 7 24 7 39c0 8 -2 34 -4 79l-37 33c-18 18 -31 36 -39 55c-3 9 -7 17 -13 24s-18 14 -34 21c-26 10 -49 20 -67 29c-6 4 -19 9 -38 14c-41 11 -84 19 -128 24c-29 2 -47 5 -56 9c-6 4 -17 5 -33 5l-29 -2c-20 0 -44 8 -73 22c-25 12 -48 18 -70 20
c-18 2 -38 3 -61 3c-28 0 -46 1 -54 3c-12 2 -21 2 -27 2s-10 -1 -14 -4s-10 -8 -16 -16l-18 -19l-41 -10c0 -46 -2 -76 -5 -90c-3 -13 -8 -29 -16 -47c-14 -33 -20 -55 -20 -67c0 -6 2 -15 7 -28s12 -27 20 -42c10 -17 17 -33 23 -48c7 -23 12 -81 15 -173
c7 -221 20 -349 37 -384c5 -10 15 -23 31 -39c22 -23 43 -40 63 -50c8 -4 19 -7 32 -9c12 -3 39 -4 80 -4z" />
    <glyph glyph-name="o" unicode="o" horiz-adv-x="910" 
d="M333 167c-2 -2 -7 -4 -15 -5c-9 -2 -17 -2 -27 -1c-10 0 -17 1 -23 4c-12 5 -25 18 -39 38c-15 20 -26 42 -35 66c-8 19 -12 35 -14 50c-1 14 -1 35 2 63c3 41 6 74 9 97s6 41 11 54c4 13 9 24 16 35c3 4 6 11 10 19s7 15 9 23c9 25 26 44 49 56c24 13 48 15 73 8
c10 -3 24 -12 41 -25c18 -13 36 -28 53 -44c18 -17 31 -31 41 -44c50 -74 66 -141 48 -202c-7 -18 -23 -42 -49 -71s-52 -55 -81 -79c-28 -24 -48 -36 -60 -36c-4 0 -8 0 -12 -1c-3 -2 -6 -3 -7 -5zM805 307c16 39 26 76 30 111c5 35 2 78 -10 128c-11 50 -32 116 -63 199
c0 -4 -1 -5 -4 -2s-8 9 -15 18c-12 17 -31 39 -57 66c-17 17 -32 32 -47 45s-25 20 -30 23c-5 2 -10 5 -14 10c-5 4 -8 9 -10 14c-4 8 -12 17 -24 27c-12 9 -24 18 -37 26s-21 11 -25 11c-2 0 -5 1 -9 4c-4 2 -7 4 -11 7c-7 6 -21 10 -43 13c-21 3 -43 4 -68 3
c-24 0 -44 -3 -59 -8c-11 -3 -21 -5 -31 -8c-10 -2 -16 -3 -21 -3c-12 -1 -31 -8 -58 -21c-26 -14 -53 -31 -80 -53c-28 -21 -49 -44 -64 -68c-45 -75 -79 -163 -103 -262c-5 -23 -7 -57 -8 -100c0 -44 3 -80 7 -109c6 -28 16 -57 30 -89c14 -31 28 -56 43 -74
c5 -6 10 -12 13 -17c4 -5 6 -8 6 -9c0 -5 7 -15 21 -29s30 -30 49 -46c19 -17 36 -31 53 -43s28 -18 33 -18c2 0 7 -2 15 -6c9 -3 18 -8 28 -13c28 -14 62 -24 104 -30c41 -6 71 -6 91 0c7 3 15 5 25 8c9 3 18 4 27 5c8 2 15 3 22 5s12 4 15 7c3 2 7 4 13 6c5 2 10 4 16 5
c19 4 43 22 74 55s76 90 135 170c9 13 18 23 25 31c8 8 13 11 16 11z" />
    <glyph glyph-name="p" unicode="p" horiz-adv-x="1053" 
d="M410 294c-11 -7 -24 -14 -39 -20s-28 -11 -40 -15c-12 -3 -19 -5 -20 -5c-8 -1 -14 9 -16 31s-2 60 0 114c-1 27 -4 54 -8 82c-6 37 -9 72 -8 104c2 32 14 57 37 74c24 17 63 27 117 31s98 8 131 12c70 9 119 -10 148 -57c28 -48 4 -116 -72 -205
c-15 -11 -24 -17 -26 -17c-3 0 -7 -2 -13 -6c-5 -4 -11 -9 -16 -15c-6 -6 -12 -11 -18 -15c-7 -4 -12 -6 -16 -6s-7 -1 -10 -3s-4 -4 -4 -7c0 -2 -3 -6 -10 -10c-7 -5 -15 -9 -24 -13c-10 -4 -24 -11 -42 -21c-17 -11 -34 -21 -51 -33zM145 -589c10 -4 23 -7 39 -10
c16 -2 31 -3 45 -4c20 0 35 1 44 5c10 4 19 11 27 23c13 15 19 37 17 68c-1 30 -9 76 -24 136c-3 13 -6 23 -7 29s-2 11 -1 14c0 3 1 7 3 12c2 6 6 20 10 41s9 58 13 109c6 72 14 118 25 139c11 20 32 25 61 15c16 -4 51 6 104 31c53 24 84 38 92 39c33 9 85 39 155 89
s119 100 147 149c28 50 47 82 58 99c11 16 19 34 23 55c12 67 17 135 15 202s-16 127 -42 179c-56 66 -110 108 -162 128c-83 33 -144 53 -183 59c-40 6 -87 9 -141 8c-37 -1 -64 -1 -82 -2s-34 -2 -46 -4c-13 -2 -30 -6 -50 -10c-23 -5 -59 -13 -107 -22
c-22 -5 -41 -8 -58 -9c-18 -2 -29 -2 -33 -1c-5 2 -10 2 -16 1c-5 -2 -10 -5 -15 -9c-4 -4 -11 -8 -19 -14c-9 -6 -18 -11 -26 -15c-29 -14 -49 -36 -59 -66c-11 -31 -16 -79 -14 -146c1 -80 9 -158 23 -232c15 -74 24 -176 29 -306c2 -83 2 -162 0 -238
c-5 -121 -1 -252 10 -394c3 -14 13 -31 29 -52c17 -21 36 -40 57 -59c22 -18 41 -31 59 -37z" />
    <glyph glyph-name="q" unicode="q" horiz-adv-x="905" 
d="M397 220c-35 -15 -68 -8 -98 21c-12 10 -22 21 -28 33c-6 11 -12 28 -18 50c-18 68 -20 137 -5 209c19 89 63 147 132 172l37 13l24 -23c22 -23 43 -59 63 -106s30 -85 30 -115v-22l-50 4c-59 4 -102 5 -128 1c-27 -3 -46 -12 -60 -26c-23 -21 -34 -40 -32 -55
c2 -16 16 -33 44 -53c10 -7 21 -16 33 -26c13 -10 23 -19 32 -27c8 -8 16 -14 23 -20c7 -5 11 -8 13 -8c5 0 7 -1 7 -4s-2 -6 -5 -9c-4 -4 -8 -7 -14 -9zM359 8c17 -3 37 1 61 12c24 10 50 24 78 39c45 27 89 47 131 60c34 -29 69 -42 104 -39c35 2 65 14 91 36
c25 22 39 47 43 77c0 5 -5 13 -13 23c-9 10 -19 20 -31 31c-13 12 -23 22 -33 33c-9 10 -12 18 -11 24c3 6 5 10 8 13c4 3 7 6 10 8c4 3 8 7 12 12c4 4 6 12 8 22c2 11 3 26 2 45c-2 57 -6 101 -11 131c-6 31 -18 62 -38 94c-9 14 -26 37 -50 67c-25 30 -49 58 -73 85
c-24 26 -39 42 -47 47c-4 2 -10 9 -17 20c-8 11 -15 23 -22 37c-23 47 -51 80 -85 101s-81 34 -139 38c-45 4 -80 1 -105 -7c-25 -9 -50 -27 -74 -55c-105 -112 -157 -181 -157 -205c0 -4 -1 -9 -3 -15c-2 -7 -5 -14 -7 -21c-12 -26 -20 -46 -25 -62c-6 -15 -11 -34 -17 -57
c-9 -35 -13 -69 -11 -101c1 -33 7 -58 17 -77c4 -7 8 -16 12 -26s7 -19 8 -28c2 -12 8 -31 17 -56c10 -24 19 -48 30 -71c10 -22 18 -37 23 -44c4 -3 8 -9 13 -15l15 -21s14 -16 27 -27c13 -12 27 -23 42 -34c34 -25 68 -45 101 -60c33 -14 71 -26 116 -34z" />
    <glyph glyph-name="r" unicode="r" horiz-adv-x="811" 
d="M140 17c51 -37 95 -41 132 -13c10 7 17 13 20 20c3 6 5 16 5 30c0 9 -2 21 -4 35s-5 27 -9 39c-5 15 -8 37 -9 66c-2 29 -2 76 -2 140c1 112 4 191 10 237c5 47 16 77 30 90c5 5 12 10 21 14s18 8 27 10s15 2 20 1c1 -1 5 1 12 3c7 3 15 7 24 12c9 4 18 8 26 11
c9 3 15 5 18 5s11 -5 24 -15c14 -9 29 -21 45 -36c18 -15 31 -26 41 -34c10 -7 20 -12 28 -15c9 -2 20 -4 33 -5c18 -2 32 -2 41 0c8 3 18 8 29 16c23 18 37 43 41 75c5 31 -1 64 -16 98c-12 28 -29 51 -51 68c-21 18 -59 40 -112 65c-49 26 -95 41 -136 45
c-41 5 -96 1 -163 -11c-17 -3 -29 -4 -37 -5c-9 0 -17 1 -24 4s-16 8 -27 16c-82 49 -146 48 -195 -4c-8 -9 -14 -17 -17 -22c-4 -6 -5 -12 -3 -19c1 -6 4 -15 9 -27c7 -16 10 -36 11 -60s-1 -44 -6 -62c-2 -7 -5 -17 -8 -32c-3 -14 -6 -29 -8 -44c-3 -16 -5 -29 -5 -39
c-1 -10 0 -20 2 -30c2 -11 6 -25 12 -42c35 -113 60 -257 74 -434c2 -26 5 -45 8 -56c4 -12 11 -24 21 -35c6 -9 16 -19 29 -30c13 -12 26 -22 39 -30z" />
    <glyph glyph-name="s" unicode="s" horiz-adv-x="741" 
d="M124 140c-29 -49 -27 -85 6 -109s80 -37 141 -39s120 5 177 21c57 17 96 41 116 73c11 12 18 26 21 41c2 16 3 31 1 45c-1 7 -1 14 -2 22c0 14 -2 28 -4 42s-8 26 -15 36c-3 2 -9 8 -20 16s-22 16 -34 24c-12 9 -22 15 -29 19c-32 20 -64 47 -95 81s-52 65 -62 92
c-12 31 -20 66 -24 103c-3 38 8 70 35 96c16 14 29 24 40 30c12 5 26 10 44 13c23 2 50 1 81 -5c19 -3 38 -5 56 -6s33 1 45 7c7 4 14 7 20 9c6 3 10 4 12 4c7 -2 14 -1 19 3c6 4 12 12 20 23c5 7 9 14 12 22c4 7 5 12 5 15s1 8 3 14c1 6 3 12 5 17c7 16 10 28 10 36
c-1 8 -5 16 -13 24c-11 10 -28 17 -52 21c-10 1 -21 4 -32 7c-12 3 -22 7 -30 11c-8 3 -15 6 -22 9c-7 2 -12 4 -15 4s-8 1 -15 2c-7 2 -14 5 -22 7c-33 12 -69 22 -109 29s-73 9 -100 7c-43 -3 -73 -7 -91 -11s-33 -10 -46 -18c-30 -18 -52 -37 -66 -57
c-15 -20 -26 -49 -35 -86c-3 -14 -7 -30 -12 -48c-5 -19 -10 -35 -14 -49c-4 -15 -6 -26 -8 -34c-1 -8 -2 -14 -1 -19s3 -10 5 -15c3 -6 6 -13 9 -23c2 -9 4 -18 5 -27c19 -114 67 -217 145 -310c4 -4 13 -11 27 -21c13 -9 25 -18 37 -28c12 -9 19 -17 21 -23
c3 -28 -6 -50 -26 -66c-21 -15 -44 -25 -70 -30c-25 -4 -43 -5 -54 -1z" />
    <glyph glyph-name="t" unicode="t" horiz-adv-x="958" 
d="M520 20c28 -10 51 -17 68 -20c18 -3 38 -4 62 -2c134 9 225 91 273 247c14 47 5 88 -26 123c-29 33 -73 19 -133 -43c-99 -105 -175 -110 -227 -14c-13 23 -25 57 -35 99c-9 43 -16 84 -19 125c-4 41 -2 71 5 90c2 8 5 17 8 27c2 10 4 19 5 26c1 9 4 17 9 25
c5 7 15 15 29 25c13 9 34 21 60 36c27 15 49 29 64 40s29 24 42 40c12 15 28 37 47 66c9 14 15 24 16 31c2 7 1 15 -4 23c-5 10 -10 17 -16 22c-6 4 -16 7 -30 7c-13 0 -33 0 -61 -2l-77 -5l-11 39c-11 45 -11 76 0 93c11 20 19 45 23 76c4 25 9 46 17 63c8 30 14 53 16 70
c3 16 2 31 -1 44c-4 13 -10 30 -20 50c-37 84 -96 125 -175 125c-64 0 -116 -22 -156 -68c-13 -13 -21 -26 -26 -36c-4 -11 -7 -26 -7 -44c-1 -13 0 -29 2 -47c3 -18 5 -35 9 -50c4 -16 6 -32 6 -48c0 -15 -2 -35 -7 -59c-2 -14 -4 -31 -6 -50c-3 -19 -6 -36 -8 -51
c-3 -15 -5 -28 -5 -39c-1 -11 -1 -17 0 -19c1 0 0 -3 -1 -9c0 -5 -2 -11 -3 -18c-2 -7 -4 -14 -7 -19c-2 -6 -5 -9 -8 -10c-5 0 -16 -3 -33 -8c-18 -5 -37 -11 -58 -18c-81 -27 -120 -61 -117 -104c0 -10 0 -19 3 -26c2 -7 8 -14 18 -23c9 -8 24 -20 46 -35
c100 -76 145 -126 135 -152c-1 -3 -1 -16 0 -38c2 -22 4 -49 8 -80c7 -61 17 -116 31 -164c14 -49 29 -82 45 -100c5 -5 10 -11 13 -16c3 -6 5 -10 5 -12c0 -3 3 -8 7 -17c5 -8 11 -17 18 -27s14 -20 20 -29c5 -9 9 -16 11 -20c1 -4 5 -8 11 -13s12 -10 19 -13
c8 -4 15 -8 23 -13s14 -9 18 -12c5 -4 15 -9 31 -17c16 -7 34 -14 54 -22z" />
    <glyph glyph-name="u" unicode="u" horiz-adv-x="1012" 
d="M384 -25c20 -5 49 -7 88 -4c39 2 72 7 99 14c47 16 89 41 126 73c36 33 74 71 112 116c9 9 17 19 26 29c48 61 72 132 73 211c0 2 1 9 4 19c3 11 6 23 11 37c5 17 11 40 16 68s10 55 13 80c3 26 5 45 4 57c-3 37 -5 65 -8 84s-7 35 -12 48c-6 13 -14 29 -26 49
c-10 17 -20 33 -29 46s-15 22 -19 25c-40 28 -89 45 -147 52c-18 1 -32 2 -41 2c-10 0 -18 -1 -24 -4c-7 -3 -15 -9 -24 -16c-37 -29 -52 -65 -47 -110c1 -8 4 -20 10 -38c5 -17 11 -35 18 -54c10 -25 17 -49 21 -72c5 -23 8 -56 11 -97c3 -47 4 -87 2 -121s-5 -62 -8 -83
v-4c0 -10 -5 -26 -15 -47c-9 -21 -30 -44 -61 -68c-11 -8 -21 -16 -30 -24s-16 -14 -19 -18c-3 -3 -7 -6 -12 -9c-4 -2 -9 -3 -13 -3c-3 0 -7 -1 -11 -2c-3 -2 -5 -3 -7 -5c-1 -2 -5 -4 -11 -7c-7 -2 -14 -4 -22 -5c-8 -2 -16 -3 -24 -5s-14 -3 -17 -4c-9 -1 -26 10 -50 33
c-16 15 -27 29 -34 42c-7 12 -14 31 -21 57c-11 40 -18 80 -21 121c-4 41 -3 72 2 94c2 9 5 21 7 37c3 15 5 30 6 44c2 14 4 28 6 40s5 20 7 24s3 8 4 11c1 4 1 6 0 7c-1 2 0 8 4 19c3 11 8 25 15 40c28 66 31 120 7 163c-11 22 -25 39 -40 53c-16 13 -37 25 -63 35
c-16 7 -31 11 -43 13c-13 2 -26 3 -39 1c-42 -3 -71 -15 -88 -35s-26 -56 -30 -107c-3 -39 -5 -69 -8 -89c-3 -21 -7 -44 -12 -71c-2 -11 -4 -29 -6 -53s-4 -49 -4 -74c-2 -36 -1 -63 1 -82s6 -39 13 -60c5 -16 10 -35 17 -57c6 -21 12 -41 16 -59c5 -17 11 -34 16 -49
c6 -16 11 -27 16 -33c4 -6 7 -11 10 -16s4 -8 4 -9c0 -4 6 -14 18 -31c12 -18 25 -35 38 -53c14 -17 25 -30 33 -37c35 -31 67 -56 95 -77c29 -20 49 -32 62 -36c8 -3 17 -5 28 -8c10 -3 19 -6 27 -8z" />
    <glyph glyph-name="v" unicode="v" horiz-adv-x="1308" 
d="M750 15c57 -37 100 -45 127 -23c13 10 26 30 38 58c13 28 23 58 29 89c3 13 6 23 8 31c3 8 6 11 8 10c3 -2 7 -1 13 4c5 4 11 10 16 17c6 8 10 16 13 25c6 17 16 38 29 62c14 25 27 44 37 57c5 6 9 11 11 17c2 5 3 9 2 11c-1 3 -2 4 -1 6c1 1 2 2 4 2s5 3 9 8s7 12 11 20
s9 17 17 28c7 10 15 20 23 28s15 15 21 22c5 7 8 12 9 14c1 8 6 20 13 35s19 39 36 71c48 90 72 157 70 200c-1 31 -4 55 -8 71s-12 34 -25 56c-9 18 -19 32 -29 41c-9 10 -22 19 -38 27c-13 6 -24 11 -36 15c-11 4 -20 7 -25 7s-11 2 -18 4c-6 2 -12 5 -16 8
c-6 5 -14 7 -23 7c-10 -1 -25 -3 -44 -8c-22 -5 -37 -11 -45 -17c-9 -6 -17 -17 -25 -33c-5 -11 -11 -25 -16 -41c-5 -17 -9 -33 -11 -47c-6 -33 -14 -71 -25 -114s-21 -79 -32 -107c-4 -12 -8 -26 -13 -42s-10 -31 -13 -45c-4 -13 -8 -25 -12 -36s-8 -19 -11 -22
s-5 -7 -6 -11c-1 -5 -1 -9 0 -12c1 -4 1 -8 0 -12c0 -5 -2 -9 -4 -12c-6 -9 -14 -7 -25 6s-28 42 -51 86c-12 22 -24 45 -37 66c-12 22 -22 38 -30 49c-7 11 -16 24 -25 40c-10 15 -18 30 -25 43c-13 24 -33 51 -59 82c-27 30 -53 58 -78 81c-26 24 -44 36 -56 38
c-3 0 -9 3 -16 7c-8 5 -15 10 -22 17s-15 13 -25 17c-9 5 -18 8 -25 8c-7 1 -14 2 -19 4c-6 2 -10 5 -12 8c-4 6 -16 9 -36 7c-19 -1 -41 -6 -64 -13c-24 -7 -44 -16 -60 -27c-20 -13 -34 -27 -42 -43s-12 -39 -13 -71c-1 -15 -1 -26 -1 -34c1 -8 3 -15 6 -19s8 -9 15 -13
c7 -5 16 -12 28 -23c11 -10 22 -20 33 -31c10 -11 20 -20 28 -27c8 -8 14 -12 16 -12c11 -2 32 -19 62 -51s62 -70 96 -114s62 -84 84 -122c11 -17 20 -36 30 -57c9 -21 16 -39 20 -53c19 -59 50 -119 95 -179c44 -61 91 -107 140 -139z" />
    <glyph glyph-name="w" unicode="w" horiz-adv-x="1897" 
d="M958 1022c6 0 11 -2 15 -4c5 -3 10 -6 17 -7c6 -2 12 -3 16 -3c5 0 13 -2 24 -5c12 -4 23 -8 35 -13c15 -6 28 -14 38 -23c9 -8 19 -21 29 -37c12 -20 21 -36 26 -51c4 -14 8 -35 11 -63c21 -20 40 -39 59 -60c18 -20 32 -38 42 -55c8 -12 16 -25 26 -39s18 -26 26 -36
c8 -9 18 -24 31 -44s26 -40 38 -61c24 -40 41 -66 52 -78c12 -12 19 -13 24 -4c2 3 3 7 4 11c0 4 0 8 -1 11c-1 4 -1 7 -1 11c1 5 3 8 6 11c2 4 5 11 9 21c3 11 6 23 9 36c2 13 6 27 10 43c3 15 7 28 10 39c9 28 17 62 25 103s13 77 17 108c1 14 4 29 8 45s8 29 13 40
c6 15 13 26 21 32s22 13 42 18c18 6 31 9 40 10s17 -1 22 -5c5 -2 10 -5 17 -7c6 -1 12 -2 16 -2c5 0 13 -2 24 -5c11 -4 23 -8 35 -13c15 -6 28 -14 38 -23c9 -9 19 -21 29 -37c13 -20 21 -37 26 -52c5 -14 9 -36 12 -66c3 -41 -15 -104 -55 -192c-15 -31 -25 -54 -31 -69
c-6 -14 -10 -26 -10 -33c-1 -3 -4 -7 -9 -14c-4 -7 -10 -14 -17 -22c-8 -8 -14 -17 -21 -28c-7 -10 -11 -19 -14 -27s-6 -14 -10 -19c-3 -6 -6 -8 -8 -8s-3 -1 -3 -2c-1 -2 0 -3 1 -6c1 -2 1 -5 -1 -11c-2 -5 -5 -10 -9 -16c-10 -13 -21 -32 -32 -55
c-12 -24 -20 -44 -25 -60c-2 -9 -6 -17 -10 -24c-5 -8 -10 -14 -15 -18s-9 -5 -12 -4c-2 1 -4 -2 -6 -10c-3 -7 -5 -17 -6 -29c-5 -30 -12 -59 -23 -86c-10 -27 -21 -46 -33 -56c-24 -22 -65 -17 -121 14c-47 28 -94 69 -139 124c-46 55 -78 109 -98 163
c-5 14 -13 30 -23 49s-20 37 -30 53c-23 33 -51 69 -84 108c-1 -1 -1 -1 -1 -2c-2 -2 -4 -4 -5 -6c-8 -8 -14 -17 -21 -28c-7 -10 -11 -19 -14 -27s-6 -14 -10 -19c-3 -5 -6 -8 -8 -8c-1 0 -3 -1 -3 -2c-1 -2 0 -3 1 -5c1 -3 1 -6 -1 -11s-5 -11 -9 -16
c-10 -14 -21 -32 -32 -56c-12 -24 -20 -44 -25 -60c-2 -8 -6 -16 -10 -24c-5 -8 -10 -14 -15 -18s-9 -5 -12 -4c-2 1 -4 -2 -6 -10c-3 -7 -5 -17 -6 -29c-5 -30 -12 -59 -23 -86c-10 -27 -21 -46 -32 -56c-25 -22 -66 -17 -121 14c-48 28 -95 70 -140 124
c-45 55 -78 109 -98 163c-5 14 -12 30 -22 49c-10 20 -21 37 -31 53c-23 34 -52 70 -86 110c-34 39 -67 74 -97 103c-31 29 -51 44 -60 44c-2 0 -7 3 -16 10c-8 6 -18 14 -28 24c-11 10 -22 19 -33 28s-20 16 -27 20c-7 3 -12 7 -15 11s-6 10 -7 17c0 8 -1 18 -1 33
c0 31 3 54 9 68c6 15 19 29 37 42c15 11 33 21 55 29s42 13 60 16c18 2 30 0 34 -6c2 -2 6 -4 11 -6c6 -2 12 -3 19 -3c6 0 14 -2 24 -6c9 -4 17 -9 24 -15s15 -10 22 -14s12 -6 16 -6c9 0 27 -11 53 -32c26 -22 52 -46 78 -74c27 -27 47 -52 60 -74c8 -11 16 -25 26 -39
s19 -26 26 -35c8 -10 18 -25 31 -45s26 -40 38 -60c24 -41 41 -67 53 -79c11 -12 19 -13 23 -4c2 3 4 7 4 11s0 8 -1 11c-1 4 -1 7 0 12c0 4 2 7 5 11c2 3 5 10 9 21c3 10 6 22 9 35c2 13 6 27 10 43c3 15 7 28 10 39c5 14 9 31 13 50c-3 2 -5 3 -7 5c-7 3 -12 7 -15 11
c-4 4 -6 10 -7 17c-1 8 -1 18 -1 33c0 31 3 54 9 68c6 15 18 29 37 42c5 4 10 8 17 11c4 24 10 43 17 59c6 15 13 26 21 32c8 7 22 13 42 19c22 7 38 10 47 9z" />
    <glyph glyph-name="x" unicode="x" horiz-adv-x="1185" 
d="M312 15c-2 -15 -2 -26 -1 -32c2 -6 5 -9 9 -9c4 -1 10 0 18 2c10 3 23 5 39 7l18 6c8 2 17 6 26 9c9 4 17 8 24 11s10 5 10 6l53 56c4 8 12 19 22 31c6 7 12 16 20 26c1 1 1 2 2 3c10 14 20 28 30 43c4 4 7 7 8 9c2 2 3 4 4 5c2 2 4 5 8 9c9 10 21 14 36 12
c16 -3 40 -12 73 -27c23 -11 52 -26 87 -45c40 -22 77 -41 111 -58c35 -17 55 -23 62 -20c3 2 6 4 10 6c5 2 9 2 13 3c7 1 18 7 33 18c14 11 27 24 38 37c12 13 17 22 16 27c-1 4 -2 9 -4 16s-3 15 -5 22c-1 5 -2 12 -2 19s-1 13 -1 18c-1 6 -4 8 -7 8c-9 0 -24 8 -45 24
s-41 33 -61 51s-33 32 -41 40c-8 9 -18 19 -31 31c-15 14 -28 28 -41 42s-20 24 -22 33c0 8 6 23 21 46c14 22 31 45 50 68c19 24 36 41 51 52c8 6 19 13 31 21c12 7 23 13 33 19c27 14 54 33 79 57c26 24 44 47 56 69c8 14 13 29 15 43c1 13 1 34 -1 62c-2 22 -4 38 -6 48
c-2 11 -5 20 -10 27c-5 6 -13 14 -24 23c-13 11 -31 21 -52 29c-22 9 -43 15 -63 19s-35 3 -44 -1c-4 -2 -10 -4 -17 -6c-7 -1 -13 -2 -18 -2c-13 0 -36 -17 -70 -52c-42 -44 -79 -85 -110 -122c-31 -38 -51 -64 -59 -79c-4 -7 -9 -14 -14 -22c-6 -7 -11 -12 -15 -16
s-9 -9 -13 -15c-5 -7 -8 -13 -11 -20l-8 -22l-27 26c-8 7 -14 14 -19 21c-5 6 -8 11 -8 13c0 12 -34 53 -102 122c-38 38 -79 68 -125 90c-19 9 -37 18 -53 26c-17 8 -28 13 -33 16c-10 4 -26 7 -51 7c-24 1 -48 0 -73 -2c-25 -3 -43 -7 -54 -12c-7 -4 -14 -9 -21 -15
c-8 -7 -14 -14 -18 -20c-6 -10 -11 -23 -13 -39s-2 -31 -1 -45c2 -15 6 -25 12 -30c3 -3 7 -8 10 -15c4 -6 7 -13 8 -20c2 -7 6 -15 10 -23c5 -9 11 -17 16 -24c8 -9 30 -31 66 -66s74 -71 113 -109c40 -37 69 -65 88 -82c6 -5 15 -15 26 -29c10 -14 21 -29 32 -45
c16 -23 26 -41 30 -52c4 -12 4 -25 1 -40c-1 -10 -4 -20 -7 -29s-6 -16 -9 -20c-8 -10 -20 -31 -36 -63s-31 -67 -45 -105c-15 -38 -24 -72 -27 -101z" />
    <glyph glyph-name="y" unicode="y" horiz-adv-x="1127" 
d="M548 -78c0 4 10 13 29 28c22 16 41 47 58 92c8 22 18 41 30 58c8 11 16 27 26 48c15 29 25 45 29 47c5 2 9 4 12 6l6 8c0 4 2 8 5 13c3 6 14 17 31 35c36 41 60 72 70 93c15 27 35 50 60 69c5 8 15 20 29 35c30 32 46 54 47 67c6 8 12 15 17 21c13 14 25 29 36 44
c19 23 43 46 72 69c34 27 54 51 60 72c10 27 14 53 14 78c0 18 -4 42 -12 71c-8 30 -29 57 -64 82c-31 21 -58 31 -80 31c-5 0 -9 -1 -13 -2c-7 -4 -16 -6 -25 -8c-10 -1 -38 -29 -84 -83c-45 -55 -70 -88 -73 -100c0 -4 -9 -18 -28 -41s-29 -36 -29 -38
c-2 -8 -8 -20 -17 -36l-18 -36c-31 -60 -52 -98 -62 -113c-14 -20 -23 -30 -29 -31c-5 2 -22 19 -50 54c-29 34 -43 53 -44 58c0 6 -8 18 -23 38c-15 21 -23 33 -23 39v1c0 5 -11 24 -34 56l-39 57c-40 57 -66 86 -77 86c-6 2 -9 4 -10 7c-6 12 -32 26 -78 43
c-23 8 -44 12 -63 12c-14 0 -29 -1 -43 -4c-15 -3 -22 -7 -24 -12c0 -6 -6 -12 -17 -20c-12 -8 -18 -15 -18 -22c0 -22 10 -52 28 -89c13 -25 26 -45 40 -61c10 -11 32 -41 66 -90c29 -43 56 -77 82 -101c23 -20 45 -44 65 -72c19 -26 43 -51 74 -75c29 -22 54 -46 74 -71
c18 -22 27 -38 27 -48l-1 -4c-3 -6 -7 -14 -10 -25c-4 -11 -7 -20 -10 -27s-6 -16 -9 -26c-1 -11 -5 -19 -11 -25s-9 -13 -9 -20s-5 -19 -14 -37c-10 -18 -16 -33 -20 -47c-8 -34 -19 -73 -34 -115c6 -19 18 -29 37 -31l21 -1c12 0 23 1 33 3l17 1c5 0 7 -1 7 -2
c0 -2 -2 -5 -7 -9z" />
    <glyph glyph-name="z" unicode="z" horiz-adv-x="868" 
d="M242 -3c41 0 76 3 104 9l51 11c134 25 229 58 285 100c9 7 20 14 34 19c11 30 16 53 16 69c0 11 -2 18 -7 23c-8 7 -27 11 -57 11c-23 0 -51 -1 -86 -3s-59 -3 -74 -3c-14 0 -24 -2 -28 -4c-17 -4 -30 -5 -40 -5c-69 -4 -116 -9 -142 -15c-13 -3 -30 -5 -49 -5
c-71 0 -111 11 -120 32c-2 5 -3 13 -3 23c0 41 17 87 51 138c28 42 59 76 94 104c9 7 20 19 34 36c10 12 28 29 55 52c68 59 114 95 139 108c12 6 25 17 40 33c15 17 25 32 30 46c3 10 5 22 5 34c0 37 -17 74 -51 112c-31 33 -64 55 -100 67l-63 21c-33 13 -84 20 -153 20
l-60 -1c-31 -2 -62 -2 -93 -2c-28 -2 -44 -4 -47 -6s-11 -3 -23 -3l-23 1c-12 0 -19 -2 -22 -6s-15 -7 -35 -8c-17 -3 -34 -11 -53 -25c-32 -22 -47 -45 -47 -67c0 -20 13 -42 40 -67c27 -26 67 -44 119 -54c17 -4 31 -5 44 -5c15 0 35 3 60 9c31 7 59 10 85 10
c9 0 23 -1 43 -3c24 -3 35 -13 35 -30c0 -21 -12 -53 -36 -96c-25 -42 -56 -86 -93 -131c-38 -45 -74 -80 -109 -105c-66 -88 -99 -168 -99 -238c0 -49 17 -91 52 -125c27 -26 61 -46 100 -58c57 -16 123 -23 197 -23z" />
    <glyph glyph-name="acute" unicode="&#xb4;" horiz-adv-x="1024" 
d="M671 1068c21 -5 49 -3 84 6c61 16 131 58 211 127c34 29 55 50 63 64c8 13 13 25 16 33c2 12 3 25 2 38c-5 54 -25 86 -59 94c-56 14 -134 -27 -232 -123c-63 -63 -98 -112 -107 -146c-2 -10 -3 -19 -4 -28c-1 -28 1 -46 6 -52c5 -7 11 -11 20 -13z" />
    <glyph glyph-name="periodcentered" unicode="&#xb7;" horiz-adv-x="553" 
d="M443 561c15 0 32 3 53 8c21 4 37 17 49 39c16 30 25 60 25 89c0 10 -3 26 -7 50s-23 49 -56 75c-39 32 -73 48 -104 48c-28 0 -58 -12 -91 -35c-34 -27 -52 -63 -52 -109c0 -43 17 -82 51 -116c37 -32 81 -49 132 -49z" />
    <glyph glyph-name="periodcentered" unicode="&#x2219;" horiz-adv-x="553" 
d="M443 561c15 0 32 3 53 8c21 4 37 17 49 39c16 30 25 60 25 89c0 10 -3 26 -7 50s-23 49 -56 75c-39 32 -73 48 -104 48c-28 0 -58 -12 -91 -35c-34 -27 -52 -63 -52 -109c0 -43 17 -82 51 -116c37 -32 81 -49 132 -49z" />
    <glyph glyph-name="multiply" unicode="&#xd7;" 
d="M1132 348c15 15 23 30 24 46c2 15 -5 36 -19 61c-10 20 -24 42 -42 66c-19 25 -37 45 -54 62c-69 41 -104 82 -104 125c0 42 34 85 102 129c93 97 113 173 58 229c-28 27 -66 34 -112 21c-47 -12 -94 -43 -141 -92c-19 -19 -38 -38 -58 -55s-34 -25 -42 -22
c-9 2 -19 9 -31 21c-20 19 -48 42 -86 71c-38 28 -68 46 -88 55c-21 8 -54 -11 -100 -59c-13 -14 -22 -26 -26 -36c-4 -11 -4 -23 1 -37c6 -15 28 -46 67 -94c28 -44 46 -79 55 -104s9 -48 -1 -69c-10 -22 -30 -50 -60 -86c-50 -64 -74 -117 -74 -160c0 -25 8 -44 22 -58
c10 -10 30 -18 58 -25c29 -7 74 19 135 77s105 87 130 88c25 0 83 -51 172 -153c49 -40 90 -58 122 -54c13 3 29 9 47 19s33 21 45 34z" />
    <glyph glyph-name="divide" unicode="&#xf7;" 
d="M768 607c127 0 215 8 266 24c51 17 78 46 80 88c1 7 2 14 2 21c0 23 -8 42 -24 56c-19 18 -73 27 -159 27c-53 0 -121 -2 -204 -7c-156 -8 -250 -17 -282 -28c-32 -10 -49 -30 -49 -61c0 -62 71 -99 212 -113c52 -5 104 -7 158 -7zM783 898c15 0 32 3 53 8
c21 4 37 17 49 38c16 31 24 61 24 90c0 10 -2 26 -6 50s-23 49 -56 75c-39 32 -74 48 -104 48c-28 0 -58 -12 -91 -36c-35 -26 -52 -62 -52 -108c0 -43 17 -82 51 -116c37 -32 81 -49 132 -49zM778 208c14 0 32 3 52 8c21 4 37 17 49 39c17 30 25 60 25 89c0 10 -2 26 -6 50
s-23 49 -57 75c-38 32 -73 48 -104 48c-28 0 -58 -12 -90 -35c-35 -27 -52 -63 -52 -109c0 -43 17 -82 51 -116c36 -32 80 -49 132 -49z" />
    <glyph glyph-name="circumflex" unicode="&#x2c6;" horiz-adv-x="902" 
d="M341 1060c29 0 63 8 101 25c27 12 51 26 72 40l75 52l89 -35c73 -29 122 -44 145 -44c7 0 14 2 22 5c9 3 17 12 25 27s12 29 12 44c0 14 -6 32 -20 53c-13 21 -54 58 -122 109c-53 41 -93 68 -120 80c-26 12 -58 18 -96 18c-37 0 -67 -5 -89 -15c-22 -9 -52 -30 -89 -62
c-52 -44 -89 -78 -110 -104c-17 -20 -26 -38 -26 -56c0 -3 2 -11 5 -23s17 -32 43 -62c21 -25 39 -41 54 -48c8 -3 17 -4 29 -4z" />
    <glyph glyph-name="hungarumlaut" unicode="&#x2dd;" horiz-adv-x="1073" 
d="M548 1034c21 0 49 8 81 24c56 28 115 85 178 170c28 36 44 61 49 76c5 14 7 26 7 36c1 12 -1 24 -5 37c-17 52 -43 78 -78 79c-58 1 -125 -55 -200 -170c-48 -75 -72 -131 -73 -166c0 -10 0 -19 2 -28c5 -28 11 -45 17 -50s13 -8 22 -8zM865 1034c21 -1 48 8 81 24
c56 28 115 85 178 170c27 35 43 61 48 76c5 14 8 26 8 36c0 12 -2 24 -6 37c-16 52 -42 78 -77 79c-58 1 -125 -55 -201 -170c-47 -75 -72 -131 -73 -166c0 -10 1 -19 3 -28c5 -28 11 -45 17 -50s13 -8 22 -8z" />
    <glyph glyph-name="quoteleft" unicode="&#x2018;" horiz-adv-x="625" 
d="M482 1600c-3 0 -10 -1 -22 -4c-11 -3 -37 -32 -78 -86c-31 -39 -51 -72 -59 -101c-5 -15 -8 -35 -9 -58c0 -19 1 -40 3 -63c7 -97 23 -169 50 -216c26 -48 63 -72 111 -73c34 -1 57 4 70 14c21 16 32 55 33 116c2 42 -3 82 -12 120c-10 37 -15 78 -13 121c0 18 2 34 5 48
c3 15 5 29 5 42c1 35 -8 65 -25 90c-21 33 -41 50 -59 50z" />
    <glyph glyph-name="quoteright" unicode="&#x2019;" horiz-adv-x="625" 
d="M425 1000c3 0 10 1 21 5c12 3 37 32 76 88c30 39 49 73 57 102c4 16 6 35 6 58c0 19 -1 40 -4 64c-9 96 -28 168 -56 214c-27 47 -65 70 -113 70c-34 0 -57 -6 -69 -16c-21 -17 -31 -56 -31 -117c0 -43 6 -82 16 -119c11 -38 17 -78 17 -121c0 -18 -2 -34 -4 -49
c-3 -14 -4 -28 -4 -41c0 -35 9 -65 28 -90c21 -32 42 -48 60 -48z" />
    <glyph glyph-name="quotesinglbase" unicode="&#x201a;" horiz-adv-x="625" 
d="M432 -348c4 0 13 2 29 5c15 4 49 33 103 88c41 40 67 74 77 102c6 16 9 36 9 59c0 19 -2 40 -6 63c-13 97 -38 168 -76 215c-37 46 -89 69 -154 69c-46 0 -77 -5 -94 -16c-28 -17 -42 -56 -42 -117c0 -42 8 -82 22 -119c15 -37 23 -77 23 -121c0 -17 -2 -33 -6 -48
c-3 -15 -5 -29 -5 -42c0 -35 13 -65 38 -90c29 -32 57 -48 82 -48z" />
    <glyph glyph-name="quotedblleft" unicode="&#x201c;" horiz-adv-x="985" 
d="M631 1006c-50 0 -91 24 -123 71s-48 99 -48 156c0 72 25 149 74 231s111 123 184 123v-55c-49 -29 -78 -91 -87 -188c0 -77 43 -129 129 -157v-46zM991 1006c-50 0 -91 24 -123 71s-48 99 -48 156c0 72 25 149 74 231s111 123 184 123v-55c-49 -29 -78 -91 -87 -188
c0 -77 43 -129 129 -157v-46z" />
    <glyph glyph-name="quotedblright" unicode="&#x201d;" horiz-adv-x="985" 
d="M379 1007c2 0 9 2 21 5c11 4 37 33 76 88c30 40 49 74 56 102c5 16 7 36 7 59c0 19 -2 40 -4 63c-10 97 -28 168 -56 215c-28 46 -66 69 -114 69c-33 0 -56 -5 -69 -16c-20 -17 -30 -56 -30 -117c0 -42 5 -82 16 -119s16 -77 16 -121c0 -17 -1 -33 -3 -48
c-3 -15 -4 -29 -4 -42c0 -35 9 -65 27 -90c22 -32 42 -48 61 -48zM678 1005c3 0 10 2 21 5c12 4 37 33 76 88c31 40 50 74 57 102c4 16 6 36 6 59c0 19 -1 40 -4 63c-9 97 -28 168 -55 215c-28 46 -66 69 -114 69c-34 0 -57 -5 -69 -16c-21 -17 -31 -56 -31 -117
c0 -42 6 -82 17 -119c10 -37 16 -77 16 -121c0 -17 -1 -33 -4 -48s-4 -29 -4 -42c0 -35 9 -65 28 -90c22 -32 42 -48 60 -48z" />
    <glyph glyph-name="quotedblbase" unicode="&#x201e;" horiz-adv-x="985" 
d="M581 -347c3 0 10 2 21 5c11 4 37 33 76 88c30 40 49 74 57 102c4 16 6 36 6 59c0 19 -1 40 -4 63c-10 97 -28 169 -56 215s-65 69 -113 69c-34 0 -57 -5 -70 -16c-20 -17 -30 -56 -30 -116c0 -43 5 -83 16 -120s17 -77 17 -121c0 -17 -2 -33 -4 -48c-3 -15 -4 -28 -4 -42
c0 -35 9 -65 27 -90c22 -32 42 -48 61 -48zM880 -349c3 0 10 2 21 5c12 4 37 33 76 88c31 40 50 74 57 102c4 16 7 36 7 59c0 19 -2 40 -5 63c-9 97 -28 169 -55 215c-28 46 -66 69 -114 69c-33 0 -56 -5 -69 -16c-20 -17 -31 -56 -31 -116c0 -43 6 -83 17 -120
s16 -77 16 -121c0 -17 -1 -33 -4 -48c-2 -15 -4 -29 -4 -42c0 -35 9 -65 28 -90c22 -32 42 -48 60 -48z" />
    <glyph glyph-name="minus" unicode="&#x2212;" 
d="M743 626c164 7 262 21 295 44c25 17 37 35 36 53c0 15 -14 31 -42 47c-57 31 -215 42 -475 31c-171 -7 -272 -18 -303 -33c-19 -12 -28 -24 -28 -37c1 -7 6 -17 15 -31c10 -14 36 -28 79 -42c43 -15 93 -22 151 -22c48 1 95 -3 141 -10c23 -2 67 -3 131 0z" />
    <glyph glyph-name="approxequal" unicode="&#x2248;" 
d="M861 739c21 0 47 4 78 10c39 8 67 17 83 27c17 9 33 26 47 50c22 32 33 55 33 68c0 14 -11 30 -34 49c-15 15 -27 22 -36 22s-31 -10 -68 -31c-37 -20 -69 -31 -97 -31c-30 0 -64 12 -100 36c-66 41 -138 67 -217 78c-26 4 -50 6 -73 6c-46 0 -87 -8 -123 -24
c-24 -12 -48 -31 -73 -55c-25 -25 -46 -49 -61 -72c-16 -24 -24 -43 -24 -57c0 -30 14 -45 42 -45c29 0 73 19 133 56c60 38 108 57 144 58c38 0 79 -16 124 -49c20 -14 43 -28 70 -42c26 -15 49 -26 69 -35c30 -12 58 -19 83 -19zM862 392c20 0 46 3 78 10
c38 8 66 17 83 26c16 10 32 27 47 51c22 32 33 54 33 68c0 13 -12 29 -34 49c-16 14 -28 22 -36 22c-9 0 -32 -11 -69 -31c-36 -21 -69 -31 -97 -31c-30 0 -63 12 -99 36c-66 40 -139 66 -217 78c-26 4 -51 6 -73 6c-47 0 -88 -8 -123 -24c-24 -13 -49 -31 -74 -56
c-25 -24 -45 -48 -61 -72c-16 -23 -23 -42 -23 -56c0 -30 14 -45 42 -45s73 18 133 56c60 37 108 56 144 58c37 0 78 -17 124 -49c20 -14 43 -28 69 -43c26 -14 50 -26 70 -34c29 -13 57 -19 83 -19z" />
    <glyph glyph-name="lessequal" unicode="&#x2264;" 
d="M1102 235c31 2 52 15 63 38c5 9 7 17 7 26c-1 19 -29 51 -84 96c-54 44 -140 100 -258 166c-143 81 -215 126 -215 135c-1 8 9 24 30 45c47 50 99 92 156 127c62 38 128 84 198 138c71 55 118 97 143 126c24 33 35 69 32 108c-2 32 -12 59 -31 84c-18 24 -42 35 -73 33
c-28 -2 -78 -25 -150 -71s-138 -97 -198 -151c-55 -51 -118 -104 -189 -159c-66 -52 -109 -94 -128 -125c-17 -33 -23 -71 -20 -115c2 -39 11 -69 27 -89c15 -16 54 -46 117 -89c143 -98 296 -195 458 -291c45 -23 83 -34 115 -32zM888 41c171 6 273 21 308 44
c26 17 39 35 38 53c0 15 -15 31 -44 47c-60 31 -225 42 -497 31c-180 -7 -285 -18 -317 -33c-20 -12 -30 -24 -30 -38c1 -6 6 -16 16 -30s38 -28 82 -43c45 -14 98 -22 158 -22c51 1 100 -2 148 -9c25 -3 71 -3 138 0z" />
    <glyph glyph-name="greaterequal" unicode="&#x2265;" 
d="M794 -2c163 6 261 21 294 44c25 17 37 34 37 52c-1 16 -15 32 -43 47c-56 32 -215 42 -474 32c-172 -7 -273 -18 -303 -33c-19 -12 -29 -25 -28 -38c0 -6 5 -16 15 -30c9 -14 35 -28 78 -43c43 -14 94 -22 151 -22c49 1 96 -2 141 -9c24 -3 68 -3 132 0zM385 188
c39 0 114 46 224 139c34 28 77 61 129 98s102 70 150 99c47 29 86 56 117 80c30 24 46 40 49 49c2 9 3 17 3 25c0 51 -46 110 -138 179c-66 51 -130 108 -190 170c-70 72 -138 128 -205 167c-60 35 -104 53 -131 53l-8 -1c-34 -7 -51 -27 -51 -58c0 -15 5 -34 13 -55
c13 -30 59 -75 137 -137c51 -41 105 -89 162 -145c77 -79 116 -124 116 -136c-2 -8 -14 -22 -36 -42c-55 -49 -107 -86 -154 -112c-51 -29 -101 -61 -153 -97c-70 -47 -105 -98 -105 -152c0 -22 6 -45 18 -68c6 -14 14 -27 24 -39c9 -11 19 -17 29 -17z" />
    </font>
</defs>
</svg>
