<?xml version="1.0" standalone="no"?>
<!DOCTYPE svg PUBLIC "-//W3C//DTD SVG 1.1//EN" "http://www.w3.org/Graphics/SVG/1.1/DTD/svg11.dtd" >
<svg>
<metadata>
Created by FontForge 20120731 at Mon Mar 25 15:50:54 2019
 By www-data
Copyright (c) 2010 by David Kerkhoff. All rights reserved.
</metadata>
<defs>
<font id="SingleMalta" horiz-adv-x="562" >
  <font-face 
    font-family="Single Malta"
    font-weight="400"
    font-stretch="normal"
    units-per-em="1000"
    panose-1="0 0 0 0 0 0 0 0 0 0"
    ascent="750"
    descent="-250"
    x-height="539"
    cap-height="561"
    bbox="-31.1538 -371 812 792"
    underline-thickness="50"
    underline-position="-100"
    unicode-range="U+0020-20AC"
  />
<missing-glyph horiz-adv-x="400" 
 />
    <glyph glyph-name=".notdef" horiz-adv-x="400" 
 />
    <glyph glyph-name=".null" horiz-adv-x="0" 
 />
    <glyph glyph-name="nonmarkingreturn" horiz-adv-x="333" 
 />
    <glyph glyph-name="space" unicode=" " horiz-adv-x="400" 
 />
    <glyph glyph-name="exclam" unicode="!" horiz-adv-x="178" 
d="M69 35q0 18 9.5 31.5t28.5 13.5q17 0 28 -14t11 -31q0 -16 -11 -30t-28 -14q-19 0 -28.5 13.5t-9.5 30.5zM19 209q0 20 6 35t21 34v30t0.5 45t0.5 45.5v29.5q0 62 -7 117.5t-7 114.5q0 26 19.5 34.5t43.5 8.5q17 0 33.5 -9.5t16.5 -28.5q0 -27 -4 -52.5t-9.5 -51
t-9.5 -52t-4 -55.5q0 -32 4 -61.5t9.5 -59t9.5 -59t4 -59.5q0 -13 -8 -20.5t-20 -11t-25 -4.5t-23 -1q-19 0 -35 4t-16 27z" />
    <glyph glyph-name="quotedbl" unicode="&#x22;" horiz-adv-x="278" 
d="M-14 729q0 25 12 42.5t29 17.5q10 0 19.5 -9.5t16.5 -24t11 -31.5t4 -31q0 -17 -4.5 -36.5t-12 -36t-18.5 -27t-24 -10.5q-14 0 -21 16.5t-9.5 39.5t-2.5 48v42zM113 726q0 26 15 44t30 18t25.5 -11.5t17 -29t10 -38.5t3.5 -39q0 -28 -9.5 -50.5t-31.5 -22.5
q-10 0 -20.5 16.5t-19.5 38t-14.5 43t-5.5 31.5z" />
    <glyph glyph-name="numbersign" unicode="#" horiz-adv-x="706" 
d="M423 8q0 13 4.5 24.5t10 23t10 23t4.5 24.5q0 5 -2 14t-5.5 18t-9 15.5t-11.5 6.5h-108l-34 -27v-121q0 -1 -8.5 -4.5t-20.5 -7.5t-24.5 -8.5t-20.5 -6.5q-1 0 -3 -0.5t-4 -0.5q-20 0 -28 8.5t-8 25.5q0 14 7 24.5t15 20t15 19.5t7 24q0 12 -5.5 26.5t-22.5 14.5h-135
q-5 0 -8 5t-4.5 12t-2 14t-0.5 10q0 6 1.5 14t4.5 15.5t8.5 12.5t13.5 5h122q10 0 15.5 6t8.5 14t3.5 17.5t0.5 15.5v9t-1.5 14t-4.5 12.5t-9 5.5h-135q-5 0 -11.5 9t-13.5 20.5t-11.5 22.5t-4.5 16q0 6 2.5 14t7 15.5t11 13t13.5 5.5q13 0 25 -4.5t23.5 -10t24 -10
t27.5 -4.5q39 0 55 15t16 56q0 16 -6.5 29t-15 25t-15 24t-6.5 27q0 7 1.5 17.5t12.5 10.5h108q5 0 10 -10.5t4 -16.5q0 -2 -4.5 -10t-9 -17t-9 -17t-4.5 -10q0 -1 -0.5 -6.5t-1 -13t-0.5 -15.5v-13v-9.5t0.5 -14t1 -14t0.5 -9.5q11 -19 31.5 -30t42.5 -11q36 0 56 20t20 54
q0 15 -4.5 29t-10 27t-10 26t-4.5 27q0 7 5.5 13.5t13 11t15.5 7t13 2.5q4 0 14.5 -1.5t21 -5t18.5 -8.5t8 -12v-162q0 -5 6 -9.5t14 -8.5q9 -4 20 -9q18 0 28.5 8.5t19 19t17.5 19t23 8.5q16 0 25.5 -13.5t9.5 -27.5q0 -32 -12 -49t-30.5 -25.5t-39.5 -11.5t-39.5 -6.5
t-30.5 -11t-12 -25.5q0 -19 10 -27t25.5 -10.5t33 -2.5t33 -3.5t25.5 -13.5t10 -32q0 -20 -8.5 -37t-31.5 -17q-17 0 -31.5 7.5t-31.5 7.5q-10 0 -14.5 -5.5t-6 -13.5t-1 -16t0.5 -14q0 -15 4.5 -26t10.5 -21.5t10.5 -21.5t4.5 -25q0 -32 -21 -40.5t-48 -8.5q-11 0 -23.5 1
t-22.5 5t-16.5 12.5t-6.5 23.5zM288 286q0 -29 21 -38.5t47 -9.5q27 0 48 9.5t21 38.5v8.5t-1 11t-4.5 10t-9.5 4.5h-108q-6 0 -9 -4.5t-4 -10t-1 -11v-8.5z" />
    <glyph glyph-name="dollar" unicode="$" horiz-adv-x="644" 
d="M237 -71q0 19 8 34.5t8 35.5q0 17 -11 25t-26.5 10.5t-32 2t-26.5 -0.5q-19 0 -30.5 -7.5t-20.5 -16.5t-18.5 -16.5t-24.5 -7.5q-23 0 -32.5 18.5t-11.5 44t-0.5 53t1.5 45.5q0 11 1.5 22.5t6 20.5t12.5 15t22 6q2 0 7 -1t6 -1q19 -24 33 -41t28 -28t32 -16t44 -5
q25 0 39 7.5t20 21.5t7 35t1 47q0 11 1 32t-0.5 43.5t-8 41t-20.5 25.5l-162 74q-4 1 -8.5 7t-8.5 13t-7 13.5t-3 9.5q0 5 5 16.5t8 13.5q21 9 51.5 19t58.5 25.5t48 38t20 55.5q0 27 -8 50.5t-8 50.5q0 10 4.5 15.5t11.5 8.5t15.5 3.5t15.5 0.5q10 0 27 -1.5t34 -6
t29.5 -13t12.5 -22.5q0 -19 -7.5 -35t-7.5 -34q0 -16 11 -19t22 -3q21 0 44.5 3.5t46.5 8t44 9.5t36 9q16 -2 24.5 -11t12.5 -22t4.5 -27.5t0.5 -27.5t-0.5 -31.5t-4.5 -35t-13 -28t-26 -11.5q-15 0 -24 14.5t-18.5 32t-23.5 32t-39 14.5q-23 0 -45 -3t-39.5 -13t-28.5 -28
t-11 -48q0 -44 21.5 -72t53.5 -48t69 -37t69 -38.5t53.5 -52t21.5 -78.5q0 -15 -0.5 -27.5t-4.5 -23.5t-13 -20t-26 -15l-175 -75q-20 -9 -24.5 -28.5t-10.5 -40t-24 -36t-65 -15.5q-20 0 -36.5 9.5t-16.5 35.5zM359 137q0 -14 8 -20.5t18.5 -9t21 -2t16.5 0.5q18 0 41.5 4
t45.5 14.5t37 27.5t15 44q0 30 -24 54.5t-56.5 41.5t-67 26t-55.5 9v-190z" />
    <glyph glyph-name="quotesingle" unicode="'" horiz-adv-x="176" 
d="M21 746q0 24 16 35t44 11q19 0 30 -8.5t17 -21.5t8 -28t2 -28q0 -16 -7 -31.5t-19 -28t-29 -20t-36 -7.5q-6 0 -10.5 17.5t-8 39.5t-5.5 43t-2 27z" />
    <glyph glyph-name="parenleft" unicode="(" horiz-adv-x="374" 
d="M9 202q-2 24 -4 47.5t0 47.5t9 47t22 45l148 213q9 6 30 22t44.5 34.5t44 35t28.5 23.5q3 3 9 9.5t12 14t11 14.5t7 10q24 -1 30 -19.5t9 -38.5q1 -12 1 -22t-1.5 -19t-5 -19t-9.5 -23q-2 0 -7.5 -1.5t-7.5 -1.5q-8 -1 -15 0.5t-13.5 3.5t-13 3.5t-13.5 0.5
q-18 -2 -28 -7.5t-27 -21.5q-42 -47 -80 -91t-65.5 -92t-41 -102.5t-7.5 -121.5q4 -39 20 -88.5t44 -93t66.5 -71t86.5 -22.5q17 2 32 10t32 10q15 2 24.5 -7.5t15 -23.5t7.5 -29.5t3 -25.5q1 -7 2 -16t-0.5 -17.5t-6.5 -15t-16 -7.5h-5q-69 35 -133 71t-114 82t-83 107
t-41 146z" />
    <glyph glyph-name="parenright" unicode=")" horiz-adv-x="445" 
d="M421 202q-8 -85 -41 -146t-83 -107t-114 -82t-133 -71h-5q-11 1 -16 7.5t-6.5 15t-0.5 17.5t2 16q1 10 3 25.5t7.5 29.5t15 23.5t24.5 7.5q17 -2 32 -10t32 -10q48 -5 86.5 22.5t66.5 71t44 93t20 88.5q6 67 -7.5 121.5t-41 102.5t-65.5 92t-80 91q-17 16 -27 21.5
t-28 7.5q-15 1 -27 -4.5t-28 -3.5q-2 0 -7.5 1.5t-7.5 1.5q-6 13 -10 23t-5.5 19t-1 19t1.5 22q3 20 9 38.5t30 19.5q1 -3 6.5 -10t11.5 -14.5t12 -14t9 -9.5q7 -7 28 -23.5t44.5 -35t44.5 -34.5t30 -22l148 -213q15 -22 22 -45t9 -47t0 -47.5t-4 -47.5z" />
    <glyph glyph-name="asterisk" unicode="*" horiz-adv-x="526" 
d="M202 49q0 16 8 24t18 20q7 9 8 22t1 24q0 8 -2.5 20.5t-14.5 12.5q-9 0 -17 -6t-15.5 -14.5t-13.5 -18t-10 -15.5q-4 -7 -7.5 -15t-8 -15.5t-11 -12.5t-15.5 -5q-19 0 -35 12.5t-27 26.5q-5 5 -6 8.5t-1 8.5t4 12t9 7h48q5 4 10 6.5t9 7.5q10 13 19 24t9 28
q0 5 -0.5 11.5t-5.5 9.5q-14 8 -25 10.5t-26 2.5q-13 0 -24.5 -3.5t-24.5 -3.5q-12 0 -17 4t-10 15q0 3 -1 11.5t-2 17.5t-2 17t-1 11v13q0 9 2 17.5t13 8.5q9 0 15 -4t12 -10t11.5 -12t12.5 -9q17 -9 37.5 -13t40.5 -4q14 0 25.5 4t11.5 21q0 12 -5 23t-12.5 21.5
t-16.5 19.5t-17 16q-6 6 -16 9t-19.5 7t-16 11t-6.5 19t6.5 18.5t16.5 14.5q9 8 20.5 12t23.5 4q11 0 20 -3.5t12 -15.5q0 -2 0.5 -8.5t1 -13.5t1 -13t0.5 -9q0 -1 1 -4.5t2 -5.5q6 -14 16 -30.5t28 -16.5q14 0 17 14.5t3 24.5q0 20 -7 37q-1 2 -6.5 14t-6.5 14v10
q0 10 5.5 17.5t14 12t18 6.5t18.5 2q5 0 12.5 -1.5t15 -4.5t13 -7.5t5.5 -10.5v-5q-3 -2 -11.5 -12t-10.5 -13q-5 -7 -6 -14.5t-1 -15.5q0 -13 4.5 -28t21.5 -15q18 0 31 17.5t13 34.5t-10 27t-10 21q0 10 9 10.5t16 0.5h14q3 -1 11 -6t11 -7q21 -16 35 -39t22 -49v-9
q0 -11 -3.5 -15.5t-14.5 -4.5q-10 0 -18.5 3.5t-19.5 3.5q-17 0 -26.5 -9.5l-22.5 -22.5q-9 -10 -21.5 -22.5t-12.5 -29.5q0 -10 6.5 -15.5t15.5 -8.5t18.5 -3.5t16.5 -0.5h20.5t20.5 7l25 25q4 4 8 4h9q17 0 21 -15.5t4 -28.5q0 -9 -0.5 -20.5t-4 -22t-10.5 -17.5t-19 -7
h-5q-1 0 -5.5 1.5t-10 3t-10 3t-5.5 1.5q-3 1 -9 2.5t-7 1.5h-33h-34q-9 -3 -14 -11t-5 -16q0 -20 10 -37.5t19 -34.5q4 -7 10.5 -15t14.5 -10h44q20 -2 20 -20q0 -9 -6.5 -19.5t-16 -19.5t-21 -14.5t-20.5 -5.5q-20 0 -31 17.5t-18.5 38t-15.5 38t-22 17.5q-13 0 -17 -11.5
t-4 -21.5q0 -11 2 -20.5t2 -20.5q0 -19 -13 -28.5t-30 -9.5q-9 0 -14 0.5t-13 6.5q-3 2 -9 8.5t-7 7.5v10v0z" />
    <glyph glyph-name="plus" unicode="+" horiz-adv-x="588" 
d="M204 73q0 13 5.5 24.5t11.5 23t11.5 22.5t5.5 25q0 20 -18 33.5t-38 13.5q-17 0 -31 -7.5t-28 -17t-28.5 -17t-30.5 -7.5q-20 0 -30 15.5t-14 36.5t-4 42v33v12t0.5 19t1 19t0.5 12q5 13 13.5 15t18.5 2q17 0 30.5 -8t27 -17t27.5 -17t32 -8q26 0 41 15t15 41
q0 17 -5.5 31t-12 28t-12 28.5t-5.5 31.5q0 21 8.5 31t22 13.5t31 3t34.5 -0.5h26t37 -3.5t33 -12t14 -25.5q0 -14 -10 -25.5t-22 -23.5t-22 -26.5t-10 -33.5q0 -71 72 -71q16 0 29.5 5.5t26 11.5t26 11.5t29.5 5.5q19 0 30 -11t16 -27t6.5 -34t1.5 -33v-20.5t-2.5 -20
t-9.5 -17t-21 -11.5q-17 10 -30 16.5t-25 10.5t-24.5 5t-28.5 1q-12 0 -24 -1t-21.5 -4.5t-15 -11.5t-5.5 -23q0 -16 8 -27t17 -21.5t17 -21t8 -24.5q0 -18 -16 -29.5t-37.5 -17.5t-44.5 -8t-37 -2q-12 0 -25 1.5t-23 6.5t-16.5 14.5t-6.5 25.5z" />
    <glyph glyph-name="comma" unicode="," horiz-adv-x="214" 
d="M73 -42q0 14 -10.5 25.5t-10.5 26.5q0 20 14 27t38 7q13 0 24 -8.5t18.5 -20.5t11.5 -24.5t4 -20.5q0 -18 -11 -29.5t-28 -18.5t-36.5 -9.5t-35.5 -2.5q0 7 3.5 12.5t7.5 11.5t7.5 11.5t3.5 12.5z" />
    <glyph glyph-name="hyphen" unicode="-" horiz-adv-x="554" 
d="M25 273q0 17 3.5 30t20.5 13q20 0 37 -7t37 -19h311q11 0 18.5 10t14 21.5t13 21.5t17.5 10q14 0 21.5 -13.5t10.5 -31.5t3 -35.5v-26.5v-11v-16.5t-0.5 -16.5t-0.5 -11q-2 -11 -7.5 -12.5t-11.5 -1.5q-17 0 -30 11.5t-28 27.5h-322q-12 0 -21 -8t-16.5 -17.5t-16 -17.5
t-18.5 -8q-13 0 -20 13t-10.5 30.5t-4 35.5t-0.5 29z" />
    <glyph glyph-name="period" unicode="." horiz-adv-x="176" 
d="M32 40q0 26 6.5 36.5t35.5 10.5q22 0 39 -11.5t17 -33.5q0 -18 -14 -31.5t-34 -13.5q-26 0 -38 9t-12 34z" />
    <glyph glyph-name="slash" unicode="/" horiz-adv-x="492" 
d="M13 -18q0 2 0.5 8t0.5 8q9 2 22 6.5t25.5 11.5t22.5 15.5t15 19.5l245 574q0 1 0.5 4.5t0.5 5.5q0 10 -3.5 18.5t-8 17t-8 17t-3.5 17.5q0 14 12.5 15.5t21.5 1.5q11 0 32 -7t42 -18.5t37 -26t16 -29.5q0 -11 -11 -16.5t-26 -10t-29 -11.5t-20 -20l-245 -564
q0 -1 -0.5 -8t-0.5 -11q0 -17 6.5 -31t6.5 -30q0 -13 -11 -20.5t-22 -7.5q-15 0 -35.5 4t-39 13t-31 22.5t-12.5 31.5z" />
    <glyph glyph-name="zero" unicode="0" horiz-adv-x="554" 
d="M22 269q0 36 9 79t26.5 85.5t42 82t55.5 70t67.5 48.5t78.5 18q54 0 97.5 -30.5t74 -76.5t47.5 -99.5t17 -99.5q0 -57 -22.5 -119t-61.5 -113.5t-92.5 -85t-114.5 -33.5q-55 0 -96.5 24t-70 63t-43 88t-14.5 99zM109 182q7 -22 19 -42.5t28.5 -36.5t37 -26t44.5 -10
q50 0 90 30t67.5 74t42 95t14.5 92q0 91 -43.5 135.5t-136.5 44.5q-44 0 -75.5 -29.5t-51.5 -72t-30 -89t-10 -80.5q0 -5 0.5 -17t1 -25.5t1.5 -25.5t1 -17z" />
    <glyph glyph-name="one" unicode="1" horiz-adv-x="346" 
d="M133 47q21 22 34 38t21 31.5t11 34t3 45.5v11.5t-0.5 18t-1 18t-1.5 11.5q-4 12 -13.5 14t-20.5 2q-23 0 -41 -10t-36.5 -22.5t-39.5 -22.5t-48 -10v49l249 445q5 12 14 14t20 2q10 0 19 -2t14 -14v-74q0 -106 -9 -210.5t-9 -210.5q0 -39 9 -75.5t9 -75.5
q0 -14 -11.5 -24t-27 -16t-32.5 -9t-29 -3q-14 0 -27.5 1.5t-25 6.5t-19.5 13.5t-11 23.5z" />
    <glyph glyph-name="two" unicode="2" horiz-adv-x="440" 
d="M48 15q-18 8 -24.5 18t-6.5 26q0 2 1 7.5t1 7.5q37 40 79 90t81.5 105.5t71.5 114.5t48 118q1 2 1 7v7q0 23 -13 41.5t-39 18.5q-20 0 -35.5 -15.5t-30 -33t-29 -31t-31.5 -9.5q-13 3 -21.5 13.5t-14 24t-7.5 27.5t-2 24q0 30 22.5 48t53.5 27t64 11.5t54 2.5
q24 0 45 -11t37.5 -28.5t26 -40t9.5 -45.5q0 -20 -3.5 -43.5t-12.5 -39.5l-192 -324q0 -1 -0.5 -6.5t-0.5 -7.5q0 -16 9 -25t21.5 -14t27.5 -6.5t27 -1.5q16 0 28 5t23 11.5t22.5 11.5t26.5 5q22 0 37.5 -14.5t15.5 -38.5q0 -34 -19 -58.5t-52 -24.5q-6 0 -18.5 0.5
t-14.5 0.5q-10 1 -31 4.5t-47 8t-55 9.5t-55 9.5t-47 8t-31 5.5z" />
    <glyph glyph-name="three" unicode="3" horiz-adv-x="506" 
d="M75 159q10 0 17.5 -7.5t16.5 -18.5t20 -24.5t27.5 -24.5t40 -18.5t56.5 -7.5q27 0 54 6.5t49 20t35.5 35t13.5 52.5q0 40 -21.5 64t-53.5 36.5t-68.5 14.5t-67.5 -3q-13 3 -19.5 10.5t-8.5 17t-2 20v19.5q0 30 13.5 43.5t35 20t46.5 10t48.5 14t42 32t25.5 64.5
q1 4 -2 10t-7.5 12.5t-9.5 12t-8 7.5q-3 0 -11 0.5t-17 1t-17 1t-11 0.5q-23 0 -42.5 -7t-37.5 -16t-36 -16t-39 -7q-12 0 -26.5 6t-14.5 23v98h238q22 0 45 -10.5t42 -27.5t31 -38.5t12 -43.5q0 -6 -1.5 -19t-3.5 -15l-84 -126v-28q19 -19 39.5 -40t37 -44t27 -49t10.5 -55
q0 -49 -22 -82.5t-58 -54.5t-81 -32t-91 -15.5t-89 -5t-74 -0.5q-11 0 -22.5 7.5t-11.5 21.5v126q0 10 12 19.5t23 9.5z" />
    <glyph glyph-name="four" unicode="4" horiz-adv-x="478" 
d="M215 -28q0 19 5 35t10.5 32t10.5 33.5t5 39.5q0 4 -0.5 13.5t-0.5 21t-0.5 21.5t-0.5 14q-13 19 -35 25t-47 5.5t-50.5 -3.5t-46.5 0t-34 15.5t-13 42.5q0 5 1 15t1 12l98 293v98q0 10 10.5 16t24.5 9t28 3.5t21 0.5q8 0 18 -0.5t18.5 -3t14.5 -8t6 -16.5q0 -2 -0.5 -8
t-0.5 -7l-140 -321q-1 -1 -1 -3.5v-3.5q0 -8 4 -21.5t11 -13.5h98q12 0 18 6t8.5 14t2.5 17.5v15.5q0 26 -8 48t-8 48q0 15 7.5 22t18.5 10t24 2.5t24 -0.5h18.5t20.5 -2t17.5 -8.5t10.5 -19.5q0 -2 -2 -8t-5 -13t-5 -13t-2 -8q-1 -1 -1.5 -14.5t-0.5 -21.5q0 -28 13.5 -39
t30 -19t30.5 -19.5t14 -39.5q0 -27 -8.5 -38.5t-21.5 -15.5t-27.5 -6t-27.5 -9.5t-21.5 -26.5t-8.5 -57q0 -32 7.5 -61t7.5 -60q0 -18 -8.5 -28t-20.5 -15t-26 -6t-26 -1q-11 0 -21.5 -0.5t-19 2t-14 8.5t-5.5 20z" />
    <glyph glyph-name="five" unicode="5" horiz-adv-x="538" 
d="M48 -43q-24 7 -26.5 24t-2.5 35q0 15 3 31.5t10 30.5t19 23t31 9q2 0 10.5 -0.5t10.5 -1.5q8 -25 15.5 -43.5t18.5 -30.5t28 -18t43 -6q36 0 76 14t73.5 39t55 59.5t21.5 75.5q0 37 -19 73.5t-51 56.5h-12t-18.5 0.5t-18.5 0.5h-13q-37 0 -70.5 -8t-68.5 -8q-9 0 -19.5 5
t-19.5 12.5t-15 17.5t-6 21v247l14 14q49 -3 85.5 -1t68.5 5.5l64 7t72 3.5q29 0 41.5 -17t12.5 -46q0 -17 -10.5 -32.5t-31.5 -15.5q-3 0 -13 2t-21.5 4.5t-21.5 5t-13 2.5h-8t-16 0.5t-18 0.5h-14q-18 0 -37.5 -2t-35 -9t-26 -21t-10.5 -38q0 -10 7.5 -29t20.5 -26
q60 -2 115.5 -12.5t97.5 -37t67 -73t25 -119.5q0 -52 -29 -99t-73.5 -82.5t-98.5 -55t-104 -16.5q-9 1 -33 4.5t-50 8t-49.5 8.5t-32.5 7z" />
    <glyph glyph-name="six" unicode="6" horiz-adv-x="416" 
d="M13 172q3 22 7 55.5t8 65.5t7 55l3 23l137 324q1 15 2 28.5t5 24t12.5 17t24.5 6.5q15 0 29.5 -6t26 -16.5t19 -24t7.5 -29.5q0 -13 -9 -22.5t-21.5 -18t-25.5 -16.5t-20 -17q-12 -22 -33.5 -59.5t-41.5 -80t-35 -86.5t-15 -80q0 -13 1.5 -22.5t11.5 -20.5q22 2 52 4
t62 0.5t63.5 -8t56 -20t39.5 -37t15 -58.5q0 -37 -21 -68t-52.5 -53.5t-69 -35t-70.5 -12.5q-34 0 -65.5 14.5t-56 39.5t-39 58t-14.5 69v7zM112 122q0 -33 19 -54.5t57 -21.5q21 0 41 8t37.5 20.5t32.5 28.5t26 32q1 2 1.5 9t0.5 9q0 17 -8 28t-21 18t-28 9.5t-28 2.5
q-18 0 -31 -1.5t-25.5 -5.5t-26.5 -12t-33 -20q-11 -12 -12.5 -24t-1.5 -26z" />
    <glyph glyph-name="seven" unicode="7" horiz-adv-x="432" 
d="M106 -18q0 23 11 44t24.5 42.5t24.5 44.5t11 50q0 18 -9.5 28t-23.5 15.5t-30 9.5t-30 11t-23.5 20t-9.5 36v8t1 10.5t4.5 9.5t9.5 4h156l78 230v7q0 15 -5.5 24t-15 13.5t-21.5 6t-24 1.5q-24 0 -48 -4t-48 -9.5t-47.5 -9.5t-45.5 -4q-11 0 -20 8.5t-15 20t-9.5 23.5
t-3.5 20q0 20 13.5 32.5t33.5 12.5q45 0 84.5 -3t79.5 -6t82 -4.5t92 0.5q20 -8 25 -19t5 -26q0 -2 -0.5 -9.5t-1.5 -9.5q-9 -21 -21 -50t-23.5 -61.5t-19.5 -66t-8 -63.5q0 -24 13.5 -32.5t30 -14t30 -14t13.5 -33.5q0 -23 -10.5 -34t-26.5 -15t-35 -5t-36 -4.5
t-29.5 -12.5t-15.5 -30l-28 -193q0 -1 -5 -5.5t-8 -6.5q-6 -3 -16.5 -7t-21.5 -8t-20 -7t-11 -3q-19 -2 -37.5 9t-18.5 29z" />
    <glyph glyph-name="eight" unicode="8" horiz-adv-x="496" 
d="M78 571q0 34 14 61t39.5 46t60 29t75.5 10q36 0 70.5 -8t61.5 -24.5t43 -40.5t16 -55q0 -4 -0.5 -11t-1.5 -7l-92 -165l109 -190q0 -1 0.5 -6.5t1 -12.5t0.5 -14.5v-11.5q0 -37 -14.5 -67.5t-41.5 -52.5t-65.5 -34.5t-86.5 -12.5t-94 16.5t-82 44t-58 63.5t-22 76
q0 27 12 48t31 39.5t43 35t48 33.5q0 2 0.5 10t0.5 10q0 25 -10.5 48t-23.5 46t-23.5 46.5t-10.5 50.5zM160 571q0 -45 21.5 -70t77.5 -25q30 0 49.5 7.5t31 21t15.5 32t4 41.5q0 40 -24 62.5t-76 22.5q-99 0 -99 -92zM112 242q0 -2 -0.5 -7.5t-1 -12t-0.5 -12.5v-8
q0 -28 13 -52t35.5 -42t53 -28t64.5 -10t53.5 5.5t29.5 17t13 29.5t3 44q0 20 -5 49t-18.5 55.5t-36 45.5t-56.5 19q-22 0 -44.5 -11.5t-42 -26.5t-35.5 -30.5t-25 -24.5z" />
    <glyph glyph-name="nine" unicode="9" horiz-adv-x="464" 
d="M246 -55q1 4 3 10.5t4 7.5l72 34l1 6t2 14.5t2 17.5t2 15q3 36 4.5 68.5t0.5 64.5t-3.5 65.5t-6.5 71.5q-7 22 -17.5 26.5t-26.5 5.5q-18 1 -35 -2t-33.5 -7t-33.5 -7.5t-35 -1.5q-37 3 -64.5 19t-45 40t-25 55t-4.5 64q4 50 32.5 85t69.5 57t90 30.5t94 4.5
q28 -3 56.5 -13.5t51 -28.5t35 -43t9.5 -56q-5 -51 -17 -98.5t-17 -95.5q0 -8 -1.5 -21t-2 -26t-1 -22.5t0.5 -10.5q0 -12 1.5 -37.5t3.5 -57.5t4.5 -67.5t5 -67.5t5 -57.5t4.5 -37.5q-25 -32 -55 -40.5t-67 -6.5q-12 1 -23.5 3t-20.5 6t-14.5 12t-4.5 22zM86 449
q12 -20 33 -26t43 -8q31 -3 62.5 4t57.5 23.5t44 41.5t21 58q1 21 -4.5 34t-16.5 19.5t-26 9t-32 4.5q-31 3 -62 -2t-56.5 -18.5t-43 -36.5t-20.5 -56v-47z" />
    <glyph glyph-name="colon" unicode=":" horiz-adv-x="174" 
d="M27 28q0 20 14.5 28.5t38.5 8.5q21 0 37.5 -8.5t16.5 -28.5q0 -21 -16.5 -29t-37.5 -8q-24 0 -38.5 8.5t-14.5 28.5zM40 206q0 16 14.5 24t32.5 8q19 0 33.5 -8t14.5 -24t-14.5 -24t-33.5 -8q-18 0 -32.5 8t-14.5 24z" />
    <glyph glyph-name="semicolon" unicode=";" horiz-adv-x="202" 
d="M26 -18q0 21 10.5 37t45.5 16q21 0 35 -8t22 -20t11.5 -26.5t3.5 -26.5q0 -25 -17 -44.5t-54 -19.5q-23 0 -34.5 9.5t-16.5 23t-5.5 29.5t-0.5 30zM41 184q0 20 15 31.5t41 11.5t41.5 -11.5t15.5 -31.5t-15.5 -31.5t-41.5 -11.5t-41 11.5t-15 31.5z" />
    <glyph glyph-name="less" unicode="&#x3c;" horiz-adv-x="476" 
d="M19 241l313 226q2 3 7.5 10.5t12.5 15.5t13 14.5t9 9.5q4 3 15 7t14 3q15 -3 24 -11.5t13.5 -19t5.5 -22t1 -18.5q0 -26 -16 -40.5t-57 -17.5l-212 -148q-16 -10 -16 -25q0 -6 4 -13t12 -11l170 -99h7q11 0 20.5 3.5l19 7l19 7t21.5 3.5q15 0 24 -4t18 -17v-9t0.5 -13
t0.5 -13.5v-8.5q0 -9 1 -20.5t-1.5 -22t-10.5 -17.5t-27 -7q-4 0 -12 1t-9 1l-384 218v30z" />
    <glyph glyph-name="equal" unicode="=" horiz-adv-x="568" 
d="M183 148q-19 -10 -44 -22.5t-50 -12.5q-8 0 -14.5 1.5t-9.5 11.5q9 45 2.5 73t-17.5 51t-22 48t-11 63q0 12 5.5 21t18.5 9q14 0 23.5 -9t18 -20.5t18 -20.5t23.5 -9h296q13 0 22 9t16.5 20t16 20t21.5 9q11 0 17.5 -5t9.5 -12.5t3.5 -16.5t0.5 -16q0 -15 -4 -30.5
t-12.5 -28.5t-22.5 -21.5t-33 -8.5h-295q-7 0 -10 -6t-3 -11q0 -12 12.5 -14.5t23.5 -2.5h296q11 0 21.5 -7.5t19 -18t13.5 -22.5t5 -21q0 -17 -9 -32t-28 -15q-12 0 -20 7.5t-15 16t-15 16t-20 7.5h-248v0z" />
    <glyph glyph-name="greater" unicode="&#x3e;" horiz-adv-x="476" 
d="M464 211l-384 -218q-1 0 -9 -1t-12 -1q-19 0 -27 7t-10.5 17.5t-1.5 22t1 20.5v8.5t0.5 13.5t0.5 13v9q9 13 18 17t24 4q12 0 21.5 -3.5l19 -7l19 -7t20.5 -3.5h7l170 99q8 4 12 11t4 13q0 15 -16 25l-212 148q-41 3 -57 17.5t-16 40.5q0 7 1 18.5t5.5 22t13.5 19
t24 11.5q3 1 14 -3t15 -7q3 -3 9 -9.5t12.5 -14.5t12.5 -15.5t8 -10.5l313 -226v-30z" />
    <glyph glyph-name="question" unicode="?" horiz-adv-x="454" 
d="M195 29q0 14 9 17.5t23 3.5q18 0 24.5 -5t6.5 -21q0 -12 -5 -19.5t-21 -7.5q-15 0 -26 9t-11 23zM135 138q0 15 4 24t21 21q-13 78 -1.5 127.5t35.5 80t56 49t60.5 35.5t48 38t19.5 58v11.5t-2 15t-7.5 12.5t-15.5 5l-94 -5q-15 0 -24.5 -10t-17.5 -24.5t-17.5 -32
t-25 -32t-39.5 -24.5t-62 -10q-15 0 -32.5 1.5t-33.5 6.5t-26.5 13.5t-10.5 23.5q0 1 2.5 4.5t6 8.5t7 9.5t6.5 7.5q35 31 64 58t61.5 47t71.5 31.5t95 11.5q54 0 86.5 -11t50.5 -30t24 -45t6 -56q0 -23 -6.5 -46t-31.5 -40l-156 -114q-11 -8 -16.5 -18.5t-7.5 -21.5
t-2 -22.5v-21.5q0 -18 6 -33.5t13.5 -30.5t13.5 -29t6 -29q0 -14 -9.5 -22t-23 -12t-28 -5.5t-25.5 -1.5h-21t-15.5 2t-9.5 8t-3 17z" />
    <glyph glyph-name="at" unicode="@" horiz-adv-x="724" 
d="M11 249q0 62 28 127t79 118t121 87t154 34q60 0 115.5 -13t98 -39t68 -65t25.5 -91q0 -38 -21.5 -88.5t-57.5 -96.5t-83 -78t-97 -32q-30 0 -63.5 11.5t-61.5 30t-46.5 42.5t-18.5 49q0 19 7.5 40.5t22 39.5t36.5 29.5t52 11.5t49 -6.5t30.5 -16t18 -21.5t13.5 -22.5
t15.5 -19t24.5 -11.5q27 -6 45 12.5t28 44.5t14 52t4 37q0 74 -48.5 107t-139.5 33q-73 0 -134.5 -29.5t-106 -75.5t-69.5 -103.5t-25 -112.5q0 -47 22.5 -88.5t61.5 -73t90.5 -49.5t108.5 -18q64 0 101 17.5t58.5 38.5t34.5 38.5t28 17.5q20 0 37 -7t29.5 -19t19.5 -27
t7 -30q0 -6 -17 -15t-43.5 -19t-59.5 -19.5t-64.5 -17t-58.5 -12.5t-42 -5q-80 0 -150.5 22.5t-124 63t-84.5 96t-31 121.5zM326 263q0 -8 7 -13t17 -5q11 0 16.5 6.5t8 14.5t2.5 16.5v13.5q-16 0 -33.5 -9.5t-17.5 -23.5z" />
    <glyph glyph-name="A" unicode="A" horiz-adv-x="640" 
d="M22 36q0 2 1 9t2 8l75 64l134 424q0 2 0.5 11t0.5 13q0 24 -8.5 44t-8.5 43v8t1 10t4.5 9t10.5 4h164q2 0 7.5 -5t6.5 -8q0 -4 0.5 -15t0.5 -23t-0.5 -23.5t-0.5 -15.5l208 -527q1 -2 1.5 -9t0.5 -9q0 -17 -9 -27t-23 -14.5t-30.5 -5.5t-32.5 -1h-21t-23.5 3t-19 10
t-7.5 21q0 12 7 23t16 21.5t16 21.5t7 23q0 28 -19 42.5t-46.5 21.5t-57 8t-50.5 1q-50 0 -77.5 -10.5t-39.5 -31.5t-12.5 -52.5t4.5 -74.5q-6 -11 -19 -16.5t-28.5 -7.5t-31 -2h-26.5h-26.5t-25 2.5t-18.5 10t-7 22.5zM261 323q0 -24 5.5 -37t19 -19.5t35.5 -7.5t54 -1
q14 0 25 4t27 10q0 4 1 16t1 16q0 21 -4 46t-12 49t-19.5 45t-25.5 33l-30 26q-23 -15 -38 -36.5t-23.5 -45.5t-12 -49.5t-3.5 -48.5z" />
    <glyph glyph-name="B" unicode="B" horiz-adv-x="576" 
d="M19 91q0 7 1 21t1 16l14 12h94v385q0 19 -13 33t-28 27.5t-28 29.5t-13 39q0 17 6.5 28t26.5 11q4 0 12 -0.5t10 -1.5q113 15 189 9.5t124 -24t72 -45t33.5 -54.5t10 -52.5t0.5 -38.5q0 -21 -9.5 -43t-24 -42t-31 -38t-30.5 -31v-37q15 -12 36 -29.5t40 -38.5t32.5 -44.5
t13.5 -47.5q0 -34 -23 -59t-56 -41.5t-70.5 -25t-66.5 -9.5q-13 -1 -45 -1.5t-68.5 -0.5t-68.5 0.5t-45 1.5q-16 -8 -27.5 -11t-26.5 -3q-18 0 -26.5 12.5t-12 30t-3.5 35v27.5zM249 63q1 0 7 -0.5t14 -1l16 -1t13 -0.5q20 0 50 2.5t58.5 11.5t49 26t20.5 45q0 30 -17.5 51
t-44 34.5t-57 19.5t-56.5 6q-6 0 -19.5 -0.5t-26.5 -3t-23 -8t-10 -14.5v-141zM207 461v-37t5.5 -42.5t18 -35t38.5 -14.5q27 0 59 15.5t59 39.5t45.5 52t18.5 54q0 29 -18 48t-44 30t-56 15.5t-54 4.5q-29 0 -43.5 -12.5t-21 -32t-7 -42t-0.5 -43.5z" />
    <glyph glyph-name="C" unicode="C" horiz-adv-x="666" 
d="M18 278q0 62 35.5 117t92.5 96.5t130 66t148 24.5q38 0 56 -13.5t18 -45.5q0 -14 -8.5 -29t-31.5 -15q-26 0 -49.5 7t-50.5 7q-55 0 -100 -20.5t-77.5 -53.5t-50 -73t-17.5 -79q0 -50 18.5 -90t54 -68t86 -43.5t113.5 -15.5q38 0 69 3t57.5 12.5t50 27.5t47.5 47
q1 0 3 0.5t3 0.5q15 0 24.5 -9t17.5 -18v-9t0.5 -13t0.5 -13.5v-9.5q0 -6 -0.5 -19.5t-4 -27t-11.5 -24t-24 -10.5q-25 0 -48.5 6.5t-47.5 6.5q-35 0 -69.5 -6.5t-67.5 -6.5q-78 0 -145.5 23t-116.5 62.5t-77 92t-28 112.5z" />
    <glyph glyph-name="D" unicode="D" horiz-adv-x="642" 
d="M27 70v17.5t2 20t8 16t17 6.5q13 0 21.5 -8.5t16 -18.5t16 -18.5t22.5 -8.5q6 0 16.5 1.5t10.5 12.5v334q0 9 -1.5 20.5t-6 21.5t-11.5 16.5t-19 6.5q-17 0 -32.5 -7t-33.5 -7q-5 0 -15 1t-10 12v103q110 36 204 29.5t168.5 -42t126.5 -93t77.5 -122.5t22.5 -131
t-39 -118.5t-107.5 -84.5t-182.5 -29h-244q-9 0 -14.5 9t-8.5 21t-3.5 23.5t-0.5 16.5zM233 321v-40t0.5 -49.5t0.5 -43.5v-21q0 -9 1.5 -26t6.5 -34t15.5 -30t28.5 -13q36 0 79 17.5t80 46t61.5 65.5t24.5 77q0 43 -24 82.5t-61 70t-81 49t-84 18.5q-3 0 -10.5 0.5
t-15 -0.5t-14 -4t-7.5 -10v-31t-0.5 -47t-0.5 -46.5v-30.5z" />
    <glyph glyph-name="E" unicode="E" horiz-adv-x="558" 
d="M381 22q-54 0 -108 -7.5t-108 -7.5h-25h-46h-46h-24q-9 39 -10.5 98.5t0.5 125t5 131t3 117.5q0 9 1.5 19t6 18t12.5 13.5t21 5.5h325q13 0 21 6.5t15.5 14.5t15.5 14.5t22 6.5q6 0 14 -0.5t15.5 -3.5t12.5 -9t5 -16v-94q0 -6 -4 -9.5t-9.5 -4.5t-10.5 -1h-8
q-54 0 -104.5 8t-106.5 8h-24t-36.5 -0.5t-37 -0.5h-24.5q-13 0 -21 -7t-12.5 -17.5t-6 -22t-1.5 -21.5q0 -7 0.5 -20.5t3.5 -27t8.5 -23.5t15.5 -10h216q13 8 24 13.5t21 8.5t20 4.5t23 1.5q26 0 37 -18.5t11 -43.5q0 -9 -3 -22t-9 -24.5t-15 -20t-21 -8.5q-13 0 -25.5 4.5
t-24.5 9.5t-24.5 9.5t-25.5 4.5q-26 0 -63 2.5t-72 -2t-59.5 -21t-24.5 -53.5v-10.5t1 -21t4.5 -20.5t9.5 -9h365q13 0 21.5 -12.5t12.5 -29.5t5.5 -34t1.5 -26q0 -5 -1.5 -15t-5 -20t-9 -17.5t-12.5 -7.5q-21 0 -33.5 15t-24.5 32.5t-27.5 32.5t-42.5 15z" />
    <glyph glyph-name="F" unicode="F" horiz-adv-x="516" 
d="M16 35q0 1 0.5 3.5t0.5 3.5q1 4 5 14t8.5 21t8.5 20.5t6 13.5q-3 54 -1 97.5t5.5 83.5t7 80.5t3.5 87.5q0 21 -7 38.5t-15 33.5t-15 32t-7 35q0 12 6.5 23.5t16 20t21.5 13.5t24 5q32 0 63.5 -4.5t63 -10t63 -10t63.5 -4.5q43 0 77 8t72 8q14 0 22 -6t12.5 -15t6 -20
t1.5 -22q0 -8 -0.5 -19t-4 -20.5t-11 -16t-20.5 -6.5q-30 0 -58 5t-56.5 11t-58 11t-61.5 5q-9 0 -23.5 -0.5t-28.5 -1t-25 -1.5t-13 -1l-27 -28l-0.5 -6t-1 -14.5t-1 -16.5t-0.5 -13q0 -13 -0.5 -31.5t2.5 -36t12.5 -31t29.5 -16.5h16.5t25 -0.5t25 -0.5h16.5
q39 0 73.5 7.5t71.5 7.5q14 0 23.5 -6.5t15 -17t8 -22.5t2.5 -22q0 -8 -1 -18t-5 -18.5t-11 -14t-19 -5.5h-7q-4 1 -18 5.5t-30 9.5t-30 9t-18 4q-9 0 -33 -1t-50 -3.5t-49.5 -5t-32.5 -4.5q-12 -5 -18 -16.5t-8.5 -26t-2.5 -29v-24.5q0 -27 7.5 -43t19.5 -27.5t27 -23
t30 -30.5q-12 -16 -23.5 -24.5t-24.5 -12.5t-28 -4.5t-34 -0.5h-11t-17 0.5t-16.5 0.5h-10.5q-13 8 -21 14.5t-8 19.5z" />
    <glyph glyph-name="G" unicode="G" horiz-adv-x="620" 
d="M347 -317q0 15 6.5 25.5t16 20.5t20.5 22.5t20.5 31.5t16 46.5t6.5 68.5q0 5 -0.5 17.5t-0.5 27t-0.5 26.5t-0.5 17q-11 9 -18 12.5t-16 3.5q-23 0 -45 -5t-43.5 -11.5t-44 -11.5t-45.5 -5q-43 0 -81 18t-66.5 49t-45 72t-16.5 87q-2 79 19.5 139t59 103.5t87.5 72.5
t105.5 47t111.5 25.5t107 9.5q3 1 11 5t17.5 9.5t17.5 10t10 5.5q1 0 3 1q2 0 3 0.5t3 0.5q12 0 21 -9t15 -22t9.5 -27.5t3.5 -24.5q0 -11 -2.5 -27.5t-8 -32t-15.5 -27t-25 -11.5q-18 0 -31 8t-26 17t-28.5 17t-37.5 8q-59 0 -122.5 -24t-116 -66t-86.5 -100.5t-34 -127.5
q0 -30 10 -54t28 -41t42 -26t51 -9q12 0 32.5 1t40.5 5t35 13t15 26q0 14 -9.5 21.5t-23.5 12t-31 7t-31 8t-23.5 14.5t-9.5 27q0 8 2 16t13 12h56q18 0 48.5 2t66.5 2.5t72.5 -1.5t66.5 -9.5t49 -22.5t19 -39q0 -17 -1.5 -20.5t-6.5 -6t-13.5 -9t-22.5 -30.5
q-29 -49 -35.5 -107t-6.5 -113v-74q6 -11 20.5 -17.5t28.5 -12.5t25 -12.5t11 -17.5q0 -5 -6 -16t-8 -14q-13 -6 -33.5 -16.5t-45 -20t-50.5 -17t-48 -7.5q-10 0 -20.5 3.5t-19.5 10t-15 16.5t-6 24z" />
    <glyph glyph-name="H" unicode="H" horiz-adv-x="610" 
d="M380 0q0 32 9 59.5t9 62.5v13t-0.5 19.5t-1 20t-0.5 13.5q-4 6 -12 10.5t-17.5 7.5t-18 4.5t-13.5 1.5q-12 0 -32 -1.5t-39.5 -3t-34 -3.5t-16.5 -3l-14 -13q-3 -18 -4.5 -39t-4.5 -42.5t-10 -41.5t-20.5 -35.5t-35 -25t-54.5 -9.5q-12 0 -24.5 2t-23 6.5t-17 11
t-6.5 16.5q0 18 14.5 28t32 21t32 28t14.5 50q0 28 -8.5 50t-8.5 48q0 18 5.5 33.5t11.5 30.5t11.5 31t5.5 37v13.5t-0.5 20t-0.5 20v13.5q-6 12 -17 22t-21.5 20t-18 20.5t-7.5 22.5q0 14 10.5 21.5t25.5 11.5t31 4.5t28 0.5t25 -0.5t24 -4.5t18 -11.5t7 -20.5
q0 -38 -8 -73.5t-8 -73.5v-14v-21.5t0.5 -22t1.5 -14.5q3 -10 10.5 -20.5t18.5 -16.5h14t21 -0.5t20.5 -0.5h13.5q11 0 30.5 -0.5t38 2.5t32.5 11t14 25v206l29 23q0 1 5.5 1.5t12.5 1t14 0.5h11h34t41.5 -3t35.5 -11.5t15 -25.5q0 -10 -11.5 -17t-27 -13t-31 -12.5
t-23.5 -16.5q-16 -65 -16.5 -127t-0.5 -127v-30t0.5 -44t0.5 -43.5v-28.5q1 -1 8.5 -6.5t16.5 -13.5t16 -17t7 -17q0 -13 -11.5 -21t-27.5 -13t-33 -7t-29 -2q-26 0 -47 9.5t-21 32.5z" />
    <glyph glyph-name="I" unicode="I" horiz-adv-x="278" 
d="M35 28q11 10 23.5 23.5t24 28.5t19.5 31t9 32q0 2 0.5 7.5t0.5 7.5v52.5v80t0.5 81t0.5 53.5q-4 15 -17.5 26.5t-28.5 22t-26.5 22t-10.5 27.5t14.5 24.5t31.5 11.5t37.5 2t33.5 -2q18 -1 35 -2t30.5 -5t21 -13t6.5 -26q-1 -23 -12 -45.5t-14 -47.5q0 -2 1 -7t1 -7
q-1 -22 -1 -52.5t-0.5 -63.5t-1 -65.5t-0.5 -58v-41v-15.5l65 -69l-19 -27q-5 -6 -21 -12.5t-37 -11t-43.5 -7.5t-39.5 -2q-26 2 -47 16t-36 31z" />
    <glyph glyph-name="J" unicode="J" 
d="M30 6q-16 14 -17 29t-1 31q0 11 0.5 22t4 20t12 15t25.5 6q24 0 42 -11t35 -23.5t35 -23.5t43 -11h210q9 0 15.5 7.5t10 17.5t5.5 20t2 15v11t-1 9q-4 23 -10 55.5t-13 68t-14 70.5t-13 63t-10 46t-5 19l-48 81l15 27q1 0 8 0.5t16.5 1l19 1t14.5 0.5q13 0 33.5 1.5
t40.5 -1t34.5 -10t14.5 -25.5q0 -20 -6 -37t-12.5 -33.5t-12.5 -35t-6 -40.5q0 -38 6 -75t12.5 -74t12.5 -74t6 -75q0 -3 -0.5 -12t-0.5 -18.5t-0.5 -18.5t-0.5 -12q-12 -13 -28.5 -24t-36.5 -16h-20.5t-31.5 -0.5t-32 -0.5h-21q-48 0 -85 0.5t-74 2t-77.5 4t-95.5 7.5z" />
    <glyph glyph-name="K" unicode="K" horiz-adv-x="622" 
d="M33 -15q1 4 4.5 12t7.5 16.5t8.5 16t6.5 9.5v16.5t0.5 24.5t0.5 24.5v16.5q0 53 -1.5 97t-4.5 88t-8.5 93.5t-13.5 114.5q-3 4 -8.5 16t-12 25t-12 24.5t-7.5 16.5q-1 1 -1 3.5v3.5q0 11 8.5 22.5t19.5 11.5h163q8 0 11 -7.5t3 -13.5q0 -1 -0.5 -2t-0.5 -2v-3l-67 -67
v-231q0 -4 10.5 -14.5t15.5 -12.5q20 -5 44 17t48.5 58t47.5 79.5t42 81.5t32 63.5t17 25.5h109q3 0 7 -3t8.5 -7.5t8 -8.5t4.5 -7q2 -9 -5.5 -18.5t-17.5 -17t-19.5 -13t-11.5 -6.5l-204 -271v-55l340 -121q20 -8 24 -19.5t4 -28.5q0 -8 -1 -19.5t-14 -14.5q-3 0 -9.5 -0.5
t-14 -1t-14 -0.5h-9.5q-34 0 -60 10.5t-49 25.5t-46 33.5t-52.5 33.5t-68.5 25.5t-92 10.5q-14 0 -25 -2t-23 -13q0 -5 -1 -20.5t-1 -19.5q0 -17 5 -28.5t10.5 -22t10.5 -21t5 -24.5q0 -15 -9 -23.5t-21.5 -12.5t-27 -5t-25.5 -1q-7 0 -19.5 1t-24 5t-19.5 12.5t-5 23.5z
" />
    <glyph glyph-name="L" unicode="L" horiz-adv-x="520" 
d="M95 6q-17 2 -29 13.5t-14 28.5q1 40 1.5 100.5t-1 126t-5 126.5t-9.5 103q0 3 -4.5 13t-9.5 22t-9.5 22.5t-4.5 13.5q-1 1 -1 9v12v9t1 12t4 10.5t10 4.5h128q10 0 19.5 -12.5t9.5 -23.5q0 -9 -6.5 -20t-14.5 -20.5t-14.5 -16l-7.5 -7.5v-413q0 -14 12.5 -22.5t31 -13.5
t40.5 -7t42 -2t34.5 0.5t18.5 0.5h16.5t21 0.5t18 1l7.5 0.5l71 71q1 0 5.5 1t7.5 1q16 0 25 -9.5t13.5 -23t5.5 -28.5t1 -27q0 -17 -0.5 -37t-14.5 -34h-36q-44 0 -95 2t-100.5 4t-93.5 4.5t-74 4.5z" />
    <glyph glyph-name="M" unicode="M" horiz-adv-x="774" 
d="M600 24q0 26 7.5 49t7.5 49q0 10 1.5 33t2.5 51.5t0.5 60t-5 59.5t-14 49.5t-25.5 29.5q0 1 -2.5 1h-4.5q-8 0 -15 -5t-13.5 -11.5t-11 -13t-5.5 -10.5l-91 -235q4 -28 2 -46t-12 -28.5t-27 -14.5t-42 -4q-9 0 -22.5 0.5t-26 4t-21 12t-8.5 24.5q0 2 2 11.5t4.5 20.5
t4.5 20.5t2 12.5q0 13 -9.5 37.5t-24.5 48.5t-32.5 41.5t-32.5 17.5q-9 0 -14 -8.5t-5 -18.5v-236q0 -10 -11 -15.5t-25.5 -8t-28.5 -3t-20 -0.5q-12 0 -25 1.5t-23.5 6.5t-17 14.5t-6.5 25.5q0 11 10.5 20.5t24.5 19.5t26.5 20.5t17.5 23.5v29.5t0.5 45.5t0.5 45.5v29.5
q0 42 0.5 80t-4 73.5t-15.5 70t-35 70.5q0 13 7 20.5t16.5 12t21 6t20.5 1.5h27.5t30 -3t24.5 -11.5t10 -25.5q0 -2 -2 -7.5t-4 -12t-4.5 -12.5t-2.5 -7t-0.5 -9t-0.5 -13q0 -3 0.5 -9.5t0.5 -7.5l118 -235q1 -3 5.5 -9.5t11 -13.5t14 -12.5t15.5 -5.5q11 0 19.5 9.5
t12.5 18.5l157 339q4 9 12.5 14.5t19 8.5t21 3.5t19.5 0.5q23 0 41 -10t18 -35q0 -21 -7 -40t-7 -39q0 -2 0.5 -4t0.5 -3q1 -14 4 -44t7 -67t8 -78.5t8 -78.5t7 -67t5 -44q5 -15 16 -24.5t22 -17.5t19.5 -17.5t8.5 -25.5v-10t-1 -10q-14 -9 -26 -14.5t-23 -8.5t-23 -4
t-27 -1q-28 0 -43.5 11t-15.5 41z" />
    <glyph glyph-name="N" unicode="N" horiz-adv-x="650" 
d="M243 332h-40q-1 0 -3 -13.5t-4 -33t-4 -40t-2 -33.5q0 -9 -0.5 -32t-0.5 -48.5t0.5 -48t0.5 -31.5q1 -17 -11 -27.5t-28.5 -16.5t-35 -8t-31.5 -2q-9 0 -21 1.5t-22 5.5t-17 12t-7 22q0 20 14.5 29.5t32 16.5t32 16.5t14.5 30.5v386q0 12 -12.5 19.5t-28 15.5t-28 18
t-12.5 26q0 15 6 23.5t15.5 12.5t21 5t22.5 1q32 0 53.5 -7t42.5 -35q6 -21 22.5 -60t39.5 -85t50.5 -94t55.5 -86.5t55 -63.5t49 -25q2 0 10 1t10 1q9 38 16.5 71.5t13 65t8.5 63t3 66.5q0 24 -11 41t-23.5 31t-23.5 28.5t-11 32.5q0 15 6 23t15.5 12t21 5t22.5 1h29.5
t31.5 -4t25 -14t10 -29q0 -13 -4 -24.5t-9 -22.5q-2 -14 -5 -43t-7 -66t-8.5 -77t-8.5 -77t-7 -66t-4 -43q-1 -2 -1 -15.5v-19.5q0 -23 10.5 -37t23.5 -24.5t23.5 -21.5t10.5 -28q0 -18 -13 -27t-30.5 -12t-36.5 -3h-31q-24 0 -39.5 8t-25 22t-15 34t-9.5 44z" />
    <glyph glyph-name="O" unicode="O" horiz-adv-x="646" 
d="M12 290q0 63 27 123t74 106.5t111.5 74.5t138.5 28q78 0 130.5 -29.5t84.5 -76t46 -104.5t14 -115q0 -56 -18 -110t-54 -96.5t-89 -69t-123 -26.5q-67 0 -128.5 24t-109 65t-76 94t-28.5 112zM101 294q0 -47 16 -90t47 -75t75.5 -51t101.5 -19q59 0 101 24.5t69 62
t39.5 83.5t12.5 89q0 33 -4.5 69t-20 65t-44 48t-76.5 19q-32 0 -58.5 -2t-52.5 -7t-54 -13t-62 -20q-27 -14 -44 -35t-27.5 -46t-14.5 -51t-4 -51z" />
    <glyph glyph-name="P" unicode="P" 
d="M122 -43q0 17 10.5 27t23.5 19t23.5 21t10.5 32q0 26 -10 39.5t-24.5 20t-32 10t-32 8.5t-24.5 15t-10 31q0 20 7.5 28t18.5 9.5t24 -1t24.5 -3t20 3t10.5 16.5q0 4 0.5 15t0.5 23.5v23.5v16q0 14 1.5 38.5t-1 48t-13 41t-34.5 17.5q-11 0 -19.5 -4.5t-16.5 -10
t-16.5 -10t-19.5 -4.5q-19 0 -29 13.5t-10 31.5q0 13 -1 32.5t2 37.5t11.5 31t26.5 13q15 0 26 -3t27 -11h248q38 0 76 -17.5t68 -45.5t48.5 -63.5t18.5 -72.5q0 -57 -23 -96t-60.5 -67t-84.5 -47t-95 -35q-21 -7 -24.5 -21.5t-3.5 -31.5q0 -18 3 -32t10 -27.5t17 -27
t24 -30.5q-9 -16 -22.5 -24t-29.5 -11.5t-32.5 -4t-32.5 -0.5h-10.5t-16 0.5t-16 0.5h-10.5q-17 8 -22 16t-5 22zM240 403q0 -21 -2 -52.5t2.5 -61t18.5 -50.5t46 -21t65 13t59.5 35.5t43.5 52.5t17 64q0 35 -19 59t-47.5 38.5t-61 21t-60.5 6.5q-8 0 -17.5 0.5t-18 -1.5
t-15.5 -8t-10 -18v-16t-0.5 -23.5t-0.5 -23.5v-15z" />
    <glyph glyph-name="Q" unicode="Q" horiz-adv-x="708" 
d="M493 -6q-22 0 -42.5 -2.5t-40.5 -6t-41 -6t-43 -2.5q-65 0 -122 25.5t-100 68.5t-67.5 99.5t-24.5 118.5q0 55 23.5 111t64 101t94.5 73.5t114 28.5q3 0 11.5 -0.5t18 -1.5t18 -1.5t11.5 -0.5q51 -24 106 -55t100.5 -71.5t74.5 -91t29 -114.5q0 -30 -12 -55t-26 -49
t-26 -48t-12 -52q0 -23 19 -36t43.5 -20.5t49.5 -10t37 -3.5v-42l-73 -71q-2 -1 -9.5 -2t-11.5 -1q-20 0 -33.5 8.5t-23 21.5t-18.5 28.5t-20.5 28.5t-27.5 21.5t-40 8.5zM99 267q0 -45 15.5 -85t44 -69.5t68.5 -47t89 -17.5q18 0 35.5 1t31 6.5t21.5 17t8 31.5
q0 13 -2.5 23.5t-6 20.5t-6 20t-2.5 23q0 2 -0.5 8.5t1 14t4.5 13.5t11 6q18 0 30 -11.5t23 -25t23.5 -24.5t31.5 -11q22 0 36 12t21.5 30t10 38.5t2.5 37.5q0 56 -17 92t-48 58t-74.5 31.5t-97.5 11.5q-14 28 -28 36t-37 8q-47 0 -82 -25.5t-58.5 -63t-35.5 -81t-12 -79.5z
" />
    <glyph glyph-name="R" unicode="R" horiz-adv-x="692" 
d="M61 28q0 21 10.5 32t23 22t23 29.5t10.5 54.5q0 38 -1 71.5t-2.5 67t-4.5 69.5t-6 79q3 15 -13 20t-36.5 13.5t-38 27t-17.5 59.5v19t3 20.5t9.5 16.5t20.5 7q17 0 32 -7t33 -7q42 0 82.5 7.5t82.5 7.5q38 0 85.5 -9t89.5 -30t70.5 -55t28.5 -84v-6l-10 -25t-12.5 -30
t-11 -25.5t-5.5 -11.5l-144 -131q-4 -3 -9 -13t-4 -13q1 -4 11 -14t15 -12l314 -104q11 -4 12.5 -11t1.5 -16q0 -15 -9 -23t-22.5 -12t-28 -4.5t-24.5 -0.5q-45 0 -87 19t-84.5 41.5t-87.5 41.5t-96 19q-4 0 -16.5 -0.5t-16.5 -1.5q-3 -2 -8 -12t-5 -14q0 -2 2 -8t4 -12.5
t4.5 -12t2.5 -6.5t0.5 -6.5t0.5 -7.5q0 -17 -12.5 -27.5t-30.5 -16t-37.5 -7.5t-32.5 -2q-8 0 -18.5 0.5t-19.5 3.5t-15 10t-6 20zM192 366q0 -14 0.5 -31t4.5 -31.5t13.5 -24.5t28.5 -10h9.5t9.5 1q28 11 64.5 30t69 45t55 58.5t22.5 70.5q0 27 -18.5 46t-44.5 30t-54 16
t-48 5q-46 0 -69 -18t-32.5 -47t-10 -66t-0.5 -74z" />
    <glyph glyph-name="S" unicode="S" horiz-adv-x="608" 
d="M134 20q-20 0 -38.5 -8t-39.5 -8q-20 0 -28 11.5t-10 28t-0.5 33.5t1.5 29v14.5t0.5 21.5t0.5 21.5v14.5q8 11 16.5 20.5t23.5 9.5q9 0 28.5 -25t54 -55t85 -55t121.5 -25q17 0 44 1.5t52.5 8.5t44 21.5t18.5 40.5q0 8 -8.5 20t-19.5 23t-21 19.5t-12 9.5l-289 159
q-26 14 -36.5 37.5t-10.5 49.5q0 22 10.5 49t36.5 37l320 115q17 6 26 -4.5t13.5 -27t5.5 -33t1 -21.5q0 -8 0.5 -20.5t-1.5 -24t-8.5 -20t-20.5 -8.5q-16 0 -29.5 5t-27 10.5t-27.5 10.5t-31 5q-23 0 -51 -3.5t-52.5 -12.5t-41 -25t-16.5 -41q0 -32 28.5 -57.5t71 -48
t92 -45t92 -49.5t71 -60.5t28.5 -77.5q0 -39 -25 -62t-60 -35t-74.5 -15.5t-67.5 -3.5q-32 0 -61.5 7t-59 15.5t-59 15.5t-60.5 7z" />
    <glyph glyph-name="T" unicode="T" horiz-adv-x="558" 
d="M183 33q0 17 14 33.5t27 26.5v319q0 12 -8 18t-18.5 8.5t-21 2t-16.5 -0.5q-27 0 -47 -4t-36.5 -13t-32 -24.5t-33.5 -39.5q-28 17 -34.5 44t-6.5 56q0 16 0.5 31t13.5 28q37 -2 72.5 0t71 5t70.5 6t72 3q24 0 42.5 -1.5t38 -3.5t42.5 -4.5t56 -4.5q45 -2 72.5 -3.5
t42 -12t19 -35.5t4.5 -75q-27 0 -49.5 7.5t-45 16.5t-47 16.5t-53.5 7.5h-13t-15.5 -0.5t-13.5 -1t-7 -0.5l-26 -26v-306q14 -14 27.5 -30t13.5 -37q0 -17 -12 -25t-28.5 -12t-33.5 -4h-27h-9.5t-14 0.5t-14 1t-9.5 0.5q-12 8 -19.5 14.5t-7.5 18.5z" />
    <glyph glyph-name="U" unicode="U" horiz-adv-x="656" 
d="M465 139q-6 1 -21.5 -8.5t-37 -25t-48 -33.5t-54 -34t-55 -26.5t-51.5 -10.5q-30 0 -58 11t-49.5 30t-34.5 44t-13 53v299q-14 17 -22 30.5t-8 31.5q0 17 12.5 25t30 11t35.5 3h29h13t19 -0.5t19 -1t12 -0.5q10 -5 19.5 -12.5t9.5 -17.5v-4t-1 -3q-31 -35 -50.5 -64
t-30 -59t-14.5 -64.5t-4 -80.5v-18t0.5 -28t0.5 -28v-19q5 -35 26.5 -49.5t58.5 -14.5q57 0 108.5 31t90.5 77.5t61.5 101t22.5 100.5q0 4 -0.5 10.5t-0.5 13t-0.5 11.5t-0.5 6q0 2 -4.5 11t-9 19.5t-9 19.5t-4.5 12q-3 14 7 22t24 11.5t29.5 4t23.5 0.5q11 0 25.5 -1
t28 -4.5t23 -11.5t9.5 -22q0 -20 -11.5 -32t-31.5 -29v-324q0 -23 13 -34.5t29 -20t29 -18t13 -27.5q0 -14 -10 -21.5t-24.5 -11.5t-30.5 -4.5t-28 -0.5q-8 0 -19.5 1t-22.5 3.5t-19 7.5t-8 14v124q0 2 -4 6t-10 8t-12 7t-10 4z" />
    <glyph glyph-name="V" unicode="V" horiz-adv-x="564" 
d="M56 444q-7 4 -21 12.5t-28 19.5t-25.5 23.5t-12.5 24.5q-1 11 4.5 19.5t15 15t21 10t22.5 4.5q38 3 63.5 -12t42.5 -40.5t27 -59t17.5 -69t14 -69t16 -60t23.5 -42t36 -13.5q13 1 22 10t14 20l76 176l-10 104q-1 12 16 19t38 10.5t39 4.5t19 1q4 0 14 1t21 1.5t21 0.5h14
q14 -2 16.5 -9t2.5 -15q1 -10 -5 -18.5t-15 -15.5t-19.5 -12.5t-18.5 -10.5l-203 -473q-2 -5 -15 -10t-22 -5q-9 -1 -18 4.5t-17.5 13t-14.5 16t-8 14.5l-163 409v0z" />
    <glyph glyph-name="W" unicode="W" horiz-adv-x="778" 
d="M192 23q-62 111 -97.5 233.5t-52.5 247.5q-3 4 -9.5 14.5t-14 22.5t-13.5 22.5t-9 15.5q-1 1 -1 3v5q0 12 10 24.5t22 12.5h105l15 -15q-5 -45 -1.5 -101t11.5 -112t18 -107t17 -86q0 -1 5 -14t13 -27.5t19 -25.5t23 -8q16 4 28 19.5t19.5 35t11 40t3.5 34.5
q0 13 -5 23.5t-11.5 20.5t-11.5 20t-5 24q0 23 12.5 34.5t31.5 16t40.5 4.5h38.5h25t24 -3t18.5 -10.5t7.5 -22.5q0 -25 -8.5 -46.5t-8.5 -46.5q0 -18 5 -47.5t16.5 -58t28.5 -49t41 -20.5q22 0 37.5 19.5t25.5 50t15.5 67.5t8.5 72.5t3.5 64.5t0.5 44v17.5t-0.5 27
t-0.5 27.5v18q-18 23 -25 41t-7 43q0 15 6.5 22.5t16.5 11t22 3.5h24t29.5 -0.5t33 -5t26.5 -14t11 -26.5q0 -22 -8.5 -38t-23.5 -37l-75 -421q-3 -17 -11.5 -33.5t-21 -29.5t-29 -20.5t-35.5 -7.5q-26 0 -52 14.5t-49.5 34.5t-42.5 40.5t-29 31.5q-2 0 -4.5 0.5t-3.5 0.5
q-16 0 -26.5 -9t-19 -23t-16 -29.5t-17.5 -29.5t-23 -23t-33 -9t-38.5 7.5t-29.5 24.5z" />
    <glyph glyph-name="X" unicode="X" horiz-adv-x="630" 
d="M305 155q-24 0 -39.5 -11.5t-28 -29t-24.5 -37.5t-28 -37.5t-39 -29t-58 -11.5h-10h-15t-14.5 0.5t-9.5 0.5q-18 9 -24 17.5t-6 23.5q0 16 11.5 26t28 16.5t33 9.5l27.5 5q11 11 32 30t42 42.5t37 49.5t16 52q0 3 -0.5 11t-0.5 10q-11 19 -27.5 48t-37 59.5t-43.5 58
t-46 44.5q-9 7 -21.5 10t-24 7.5t-19 12.5t-7.5 25q0 7 3 28t4 42q18 42 35.5 53.5t34.5 1.5t34 -36.5t34 -60.5t34.5 -71t35.5 -67.5t36.5 -50.5t37.5 -20q23 0 40.5 19t31 47.5t23 62.5t18 63.5t16.5 50t17 23.5q4 0 13 0.5t19 0.5t19 0.5t12 0.5q7 0 22 1t31 -0.5
t28 -8.5t12 -22q0 -2 -0.5 -7t-1.5 -7q-6 -5 -20.5 -18t-30 -29t-29 -30.5t-18.5 -20.5q-9 -13 -22 -33t-27 -42t-28 -45t-24.5 -42t-17.5 -32t-7 -16v-69q105 -56 159 -95.5t72.5 -65.5t10.5 -40.5t-27 -22t-40 -9t-29 -1.5q-27 0 -46.5 12t-34.5 30.5t-28.5 40t-28 40
t-33 30.5t-44.5 12z" />
    <glyph glyph-name="Y" unicode="Y" horiz-adv-x="672" 
d="M-30 -84q0 20 12.5 25.5t34.5 5.5q27 0 51 -10t53 -22t66.5 -22t91.5 -10h23t34 0.5t34 0.5h23q50 14 70 49.5t20 76.5q0 10 -1.5 20.5t-6 19.5t-13 14.5t-23.5 5.5q-26 0 -49.5 -7.5t-47.5 -16.5t-48 -16.5t-50 -7.5q-21 0 -42.5 8t-39.5 21t-31 30t-19 36q0 5 -0.5 18
t-0.5 27.5v27.5v18v25v30t0.5 26t0.5 13q0 4 2.5 19.5t6 33.5t6 34t2.5 21q0 23 -10.5 34t-26.5 17t-34 8.5t-34 7t-26.5 13.5t-10.5 28q0 23 21.5 33.5t50 14t56.5 2.5t41 -1q5 0 19 -0.5t29.5 -1t29 -1t19.5 -0.5q16 -4 17 -15t1 -22q0 -44 -11.5 -86.5t-25 -84.5
t-24.5 -85t-11 -86q0 -32 17.5 -51t54.5 -19q10 0 31 5.5t46.5 15.5t52 23t48.5 29t36 33t14 35v200l-53 77q-5 8 1 16.5t16.5 15t21.5 10.5t14 4q1 1 11.5 1.5t24.5 1t29 0.5h24h16.5t26.5 -0.5t26.5 -1t17.5 -1.5q11 -4 14.5 -8.5t3.5 -12.5q0 -16 -10.5 -28.5
t-23.5 -23.5t-24.5 -23t-12.5 -27l-53 -587q0 -3 -10 -13t-24.5 -21t-29.5 -19.5t-24 -8.5h-422q-21 0 -37.5 11.5t-28 28.5t-17.5 36t-6 33z" />
    <glyph glyph-name="Z" unicode="Z" horiz-adv-x="696" 
d="M49 -1q-14 0 -23 10t-9 20q0 8 5 16.5t11 13.5l399 313q14 11 15 23t1 25q0 4 0.5 9.5t-0.5 11t-4.5 10t-11.5 5.5q-4 0 -15 0.5t-23.5 0.5h-23.5h-15q-41 0 -69 -2.5t-50.5 -11t-44.5 -25.5t-50 -46h-8q-25 0 -36.5 16.5t-15.5 38.5t-3.5 44.5t0.5 35.5v20.5t3.5 14.5
t12 9t24.5 3q22 0 36 -4.5t32 -21.5h230q69 0 105 -31t36 -76q0 -3 -0.5 -7t-0.5 -8q-1 -4 -1 -10l-307 -289q-1 0 -1.5 -4.5t-0.5 -6.5q0 -5 2.5 -14.5t14.5 -9.5h276q15 0 28 10t23.5 22.5t17 24t8.5 15.5q2 0 7.5 0.5t7.5 0.5q14 0 30 -5.5t16 -19.5v-109q0 -8 -4.5 -13
t-11 -7.5t-14.5 -3t-14 -0.5q-24 0 -47.5 3.5t-46.5 8.5h-490z" />
    <glyph glyph-name="backslash" unicode="\" horiz-adv-x="492" 
d="M483 -18q0 -18 -12.5 -31.5t-31 -22.5t-39 -13t-35.5 -4q-11 0 -22 7.5t-11 20.5q0 16 6.5 30t6.5 31q0 4 -0.5 11t-0.5 8l-245 564q-6 13 -20 20t-29 11.5t-26 10t-11 16.5q0 15 16 29.5t37 26t42 18.5t32 7q9 0 21.5 -1.5t12.5 -15.5q0 -9 -3.5 -17.5t-8 -17t-8 -17
t-3.5 -18.5q0 -2 0.5 -5.5t0.5 -4.5l245 -574q4 -11 14.5 -19.5t23 -15.5t25.5 -11.5t22 -6.5q0 -2 0.5 -8t0.5 -8z" />
    <glyph glyph-name="a" unicode="a" horiz-adv-x="640" 
d="M22 36q0 2 1 9t2 8l75 64l134 424q0 2 0.5 11t0.5 13q0 24 -8.5 44t-8.5 43v8t1 10t4.5 9t10.5 4h164q2 0 7.5 -5t6.5 -8q0 -4 0.5 -15t0.5 -23t-0.5 -23.5t-0.5 -15.5l208 -527q1 -2 1.5 -9t0.5 -9q0 -17 -9 -27t-23 -14.5t-30.5 -5.5t-32.5 -1h-21t-23.5 3t-19 10
t-7.5 21q0 12 7 23t16 21.5t16 21.5t7 23q0 28 -19 42.5t-46.5 21.5t-57 8t-50.5 1q-50 0 -77.5 -10.5t-39.5 -31.5t-12.5 -52.5t4.5 -74.5q-6 -11 -19 -16.5t-28.5 -7.5t-31 -2h-26.5h-26.5t-25 2.5t-18.5 10t-7 22.5zM261 323q0 -24 5.5 -37t19 -19.5t35.5 -7.5t54 -1
q14 0 25 4t27 10q0 4 1 16t1 16q0 21 -4 46t-12 49t-19.5 45t-25.5 33l-30 26q-23 -15 -38 -36.5t-23.5 -45.5t-12 -49.5t-3.5 -48.5z" />
    <glyph glyph-name="b" unicode="b" horiz-adv-x="576" 
d="M19 91q0 7 1 21t1 16l14 12h94v385q0 19 -13 33t-28 27.5t-28 29.5t-13 39q0 17 6.5 28t26.5 11q4 0 12 -0.5t10 -1.5q113 15 189 9.5t124 -24t72 -45t33.5 -54.5t10 -52.5t0.5 -38.5q0 -21 -9.5 -43t-24 -42t-31 -38t-30.5 -31v-37q15 -12 36 -29.5t40 -38.5t32.5 -44.5
t13.5 -47.5q0 -34 -23 -59t-56 -41.5t-70.5 -25t-66.5 -9.5q-13 -1 -45 -1.5t-68.5 -0.5t-68.5 0.5t-45 1.5q-16 -8 -27.5 -11t-26.5 -3q-18 0 -26.5 12.5t-12 30t-3.5 35v27.5zM249 63q1 0 7 -0.5t14 -1l16 -1t13 -0.5q20 0 50 2.5t58.5 11.5t49 26t20.5 45q0 30 -17.5 51
t-44 34.5t-57 19.5t-56.5 6q-6 0 -19.5 -0.5t-26.5 -3t-23 -8t-10 -14.5v-141zM207 461v-37t5.5 -42.5t18 -35t38.5 -14.5q27 0 59 15.5t59 39.5t45.5 52t18.5 54q0 29 -18 48t-44 30t-56 15.5t-54 4.5q-29 0 -43.5 -12.5t-21 -32t-7 -42t-0.5 -43.5z" />
    <glyph glyph-name="c" unicode="c" horiz-adv-x="666" 
d="M18 278q0 62 35.5 117t92.5 96.5t130 66t148 24.5q38 0 56 -13.5t18 -45.5q0 -14 -8.5 -29t-31.5 -15q-26 0 -49.5 7t-50.5 7q-55 0 -100 -20.5t-77.5 -53.5t-50 -73t-17.5 -79q0 -50 18.5 -90t54 -68t86 -43.5t113.5 -15.5q38 0 69 3t57.5 12.5t50 27.5t47.5 47
q1 0 3 0.5t3 0.5q15 0 24.5 -9t17.5 -18v-9t0.5 -13t0.5 -13.5v-9.5q0 -6 -0.5 -19.5t-4 -27t-11.5 -24t-24 -10.5q-25 0 -48.5 6.5t-47.5 6.5q-35 0 -69.5 -6.5t-67.5 -6.5q-78 0 -145.5 23t-116.5 62.5t-77 92t-28 112.5z" />
    <glyph glyph-name="d" unicode="d" horiz-adv-x="642" 
d="M27 70v17.5t2 20t8 16t17 6.5q13 0 21.5 -8.5t16 -18.5t16 -18.5t22.5 -8.5q6 0 16.5 1.5t10.5 12.5v334q0 9 -1.5 20.5t-6 21.5t-11.5 16.5t-19 6.5q-17 0 -32.5 -7t-33.5 -7q-5 0 -15 1t-10 12v103q110 36 204 29.5t168.5 -42t126.5 -93t77.5 -122.5t22.5 -131
t-39 -118.5t-107.5 -84.5t-182.5 -29h-244q-9 0 -14.5 9t-8.5 21t-3.5 23.5t-0.5 16.5zM233 321v-40t0.5 -49.5t0.5 -43.5v-21q0 -9 1.5 -26t6.5 -34t15.5 -30t28.5 -13q36 0 79 17.5t80 46t61.5 65.5t24.5 77q0 43 -24 82.5t-61 70t-81 49t-84 18.5q-3 0 -10.5 0.5
t-15 -0.5t-14 -4t-7.5 -10v-31t-0.5 -47t-0.5 -46.5v-30.5z" />
    <glyph glyph-name="e" unicode="e" horiz-adv-x="558" 
d="M381 22q-54 0 -108 -7.5t-108 -7.5h-25h-46h-46h-24q-9 39 -10.5 98.5t0.5 125t5 131t3 117.5q0 9 1.5 19t6 18t12.5 13.5t21 5.5h325q13 0 21 6.5t15.5 14.5t15.5 14.5t22 6.5q6 0 14 -0.5t15.5 -3.5t12.5 -9t5 -16v-94q0 -6 -4 -9.5t-9.5 -4.5t-10.5 -1h-8
q-54 0 -104.5 8t-106.5 8h-24t-36.5 -0.5t-37 -0.5h-24.5q-13 0 -21 -7t-12.5 -17.5t-6 -22t-1.5 -21.5q0 -7 0.5 -20.5t3.5 -27t8.5 -23.5t15.5 -10h216q13 8 24 13.5t21 8.5t20 4.5t23 1.5q26 0 37 -18.5t11 -43.5q0 -9 -3 -22t-9 -24.5t-15 -20t-21 -8.5q-13 0 -25.5 4.5
t-24.5 9.5t-24.5 9.5t-25.5 4.5q-26 0 -63 2.5t-72 -2t-59.5 -21t-24.5 -53.5v-10.5t1 -21t4.5 -20.5t9.5 -9h365q13 0 21.5 -12.5t12.5 -29.5t5.5 -34t1.5 -26q0 -5 -1.5 -15t-5 -20t-9 -17.5t-12.5 -7.5q-21 0 -33.5 15t-24.5 32.5t-27.5 32.5t-42.5 15z" />
    <glyph glyph-name="f" unicode="f" horiz-adv-x="516" 
d="M16 35q0 1 0.5 3.5t0.5 3.5q1 4 5 14t8.5 21t8.5 20.5t6 13.5q-3 54 -1 97.5t5.5 83.5t7 80.5t3.5 87.5q0 21 -7 38.5t-15 33.5t-15 32t-7 35q0 12 6.5 23.5t16 20t21.5 13.5t24 5q32 0 63.5 -4.5t63 -10t63 -10t63.5 -4.5q43 0 77 8t72 8q14 0 22 -6t12.5 -15t6 -20
t1.5 -22q0 -8 -0.5 -19t-4 -20.5t-11 -16t-20.5 -6.5q-30 0 -58 5t-56.5 11t-58 11t-61.5 5q-9 0 -23.5 -0.5t-28.5 -1t-25 -1.5t-13 -1l-27 -28l-0.5 -6t-1 -14.5t-1 -16.5t-0.5 -13q0 -13 -0.5 -31.5t2.5 -36t12.5 -31t29.5 -16.5h16.5t25 -0.5t25 -0.5h16.5
q39 0 73.5 7.5t71.5 7.5q14 0 23.5 -6.5t15 -17t8 -22.5t2.5 -22q0 -8 -1 -18t-5 -18.5t-11 -14t-19 -5.5h-7q-4 1 -18 5.5t-30 9.5t-30 9t-18 4q-9 0 -33 -1t-50 -3.5t-49.5 -5t-32.5 -4.5q-12 -5 -18 -16.5t-8.5 -26t-2.5 -29v-24.5q0 -27 7.5 -43t19.5 -27.5t27 -23
t30 -30.5q-12 -16 -23.5 -24.5t-24.5 -12.5t-28 -4.5t-34 -0.5h-11t-17 0.5t-16.5 0.5h-10.5q-13 8 -21 14.5t-8 19.5z" />
    <glyph glyph-name="g" unicode="g" horiz-adv-x="620" 
d="M347 -317q0 15 6.5 25.5t16 20.5t20.5 22.5t20.5 31.5t16 46.5t6.5 68.5q0 5 -0.5 17.5t-0.5 27t-0.5 26.5t-0.5 17q-11 9 -18 12.5t-16 3.5q-23 0 -45 -5t-43.5 -11.5t-44 -11.5t-45.5 -5q-43 0 -81 18t-66.5 49t-45 72t-16.5 87q-2 79 19.5 139t59 103.5t87.5 72.5
t105.5 47t111.5 25.5t107 9.5q3 1 11 5t17.5 9.5t17.5 10t10 5.5q1 0 3 1q2 0 3 0.5t3 0.5q12 0 21 -9t15 -22t9.5 -27.5t3.5 -24.5q0 -11 -2.5 -27.5t-8 -32t-15.5 -27t-25 -11.5q-18 0 -31 8t-26 17t-28.5 17t-37.5 8q-59 0 -122.5 -24t-116 -66t-86.5 -100.5t-34 -127.5
q0 -30 10 -54t28 -41t42 -26t51 -9q12 0 32.5 1t40.5 5t35 13t15 26q0 14 -9.5 21.5t-23.5 12t-31 7t-31 8t-23.5 14.5t-9.5 27q0 8 2 16t13 12h56q18 0 48.5 2t66.5 2.5t72.5 -1.5t66.5 -9.5t49 -22.5t19 -39q0 -17 -1.5 -20.5t-6.5 -6t-13.5 -9t-22.5 -30.5
q-29 -49 -35.5 -107t-6.5 -113v-74q6 -11 20.5 -17.5t28.5 -12.5t25 -12.5t11 -17.5q0 -5 -6 -16t-8 -14q-13 -6 -33.5 -16.5t-45 -20t-50.5 -17t-48 -7.5q-10 0 -20.5 3.5t-19.5 10t-15 16.5t-6 24z" />
    <glyph glyph-name="h" unicode="h" horiz-adv-x="610" 
d="M380 0q0 32 9 59.5t9 62.5v13t-0.5 19.5t-1 20t-0.5 13.5q-4 6 -12 10.5t-17.5 7.5t-18 4.5t-13.5 1.5q-12 0 -32 -1.5t-39.5 -3t-34 -3.5t-16.5 -3l-14 -13q-3 -18 -4.5 -39t-4.5 -42.5t-10 -41.5t-20.5 -35.5t-35 -25t-54.5 -9.5q-12 0 -24.5 2t-23 6.5t-17 11
t-6.5 16.5q0 18 14.5 28t32 21t32 28t14.5 50q0 28 -8.5 50t-8.5 48q0 18 5.5 33.5t11.5 30.5t11.5 31t5.5 37v13.5t-0.5 20t-0.5 20v13.5q-6 12 -17 22t-21.5 20t-18 20.5t-7.5 22.5q0 14 10.5 21.5t25.5 11.5t31 4.5t28 0.5t25 -0.5t24 -4.5t18 -11.5t7 -20.5
q0 -38 -8 -73.5t-8 -73.5v-14v-21.5t0.5 -22t1.5 -14.5q3 -10 10.5 -20.5t18.5 -16.5h14t21 -0.5t20.5 -0.5h13.5q11 0 30.5 -0.5t38 2.5t32.5 11t14 25v206l29 23q0 1 5.5 1.5t12.5 1t14 0.5h11h34t41.5 -3t35.5 -11.5t15 -25.5q0 -10 -11.5 -17t-27 -13t-31 -12.5
t-23.5 -16.5q-16 -65 -16.5 -127t-0.5 -127v-30t0.5 -44t0.5 -43.5v-28.5q1 -1 8.5 -6.5t16.5 -13.5t16 -17t7 -17q0 -13 -11.5 -21t-27.5 -13t-33 -7t-29 -2q-26 0 -47 9.5t-21 32.5z" />
    <glyph glyph-name="i" unicode="i" horiz-adv-x="278" 
d="M35 28q11 10 23.5 23.5t24 28.5t19.5 31t9 32q0 2 0.5 7.5t0.5 7.5v52.5v80t0.5 81t0.5 53.5q-4 15 -17.5 26.5t-28.5 22t-26.5 22t-10.5 27.5t14.5 24.5t31.5 11.5t37.5 2t33.5 -2q18 -1 35 -2t30.5 -5t21 -13t6.5 -26q-1 -23 -12 -45.5t-14 -47.5q0 -2 1 -7t1 -7
q-1 -22 -1 -52.5t-0.5 -63.5t-1 -65.5t-0.5 -58v-41v-15.5l65 -69l-19 -27q-5 -6 -21 -12.5t-37 -11t-43.5 -7.5t-39.5 -2q-26 2 -47 16t-36 31z" />
    <glyph glyph-name="j" unicode="j" 
d="M30 6q-16 14 -17 29t-1 31q0 11 0.5 22t4 20t12 15t25.5 6q24 0 42 -11t35 -23.5t35 -23.5t43 -11h210q9 0 15.5 7.5t10 17.5t5.5 20t2 15v11t-1 9q-4 23 -10 55.5t-13 68t-14 70.5t-13 63t-10 46t-5 19l-48 81l15 27q1 0 8 0.5t16.5 1l19 1t14.5 0.5q13 0 33.5 1.5
t40.5 -1t34.5 -10t14.5 -25.5q0 -20 -6 -37t-12.5 -33.5t-12.5 -35t-6 -40.5q0 -38 6 -75t12.5 -74t12.5 -74t6 -75q0 -3 -0.5 -12t-0.5 -18.5t-0.5 -18.5t-0.5 -12q-12 -13 -28.5 -24t-36.5 -16h-20.5t-31.5 -0.5t-32 -0.5h-21q-48 0 -85 0.5t-74 2t-77.5 4t-95.5 7.5z" />
    <glyph glyph-name="k" unicode="k" horiz-adv-x="622" 
d="M33 -15q1 4 4.5 12t7.5 16.5t8.5 16t6.5 9.5v16.5t0.5 24.5t0.5 24.5v16.5q0 53 -1.5 97t-4.5 88t-8.5 93.5t-13.5 114.5q-3 4 -8.5 16t-12 25t-12 24.5t-7.5 16.5q-1 1 -1 3.5v3.5q0 11 8.5 22.5t19.5 11.5h163q8 0 11 -7.5t3 -13.5q0 -1 -0.5 -2t-0.5 -2v-3l-67 -67
v-231q0 -4 10.5 -14.5t15.5 -12.5q20 -5 44 17t48.5 58t47.5 79.5t42 81.5t32 63.5t17 25.5h109q3 0 7 -3t8.5 -7.5t8 -8.5t4.5 -7q2 -9 -5.5 -18.5t-17.5 -17t-19.5 -13t-11.5 -6.5l-204 -271v-55l340 -121q20 -8 24 -19.5t4 -28.5q0 -8 -1 -19.5t-14 -14.5q-3 0 -9.5 -0.5
t-14 -1t-14 -0.5h-9.5q-34 0 -60 10.5t-49 25.5t-46 33.5t-52.5 33.5t-68.5 25.5t-92 10.5q-14 0 -25 -2t-23 -13q0 -5 -1 -20.5t-1 -19.5q0 -17 5 -28.5t10.5 -22t10.5 -21t5 -24.5q0 -15 -9 -23.5t-21.5 -12.5t-27 -5t-25.5 -1q-7 0 -19.5 1t-24 5t-19.5 12.5t-5 23.5z
" />
    <glyph glyph-name="l" unicode="l" horiz-adv-x="520" 
d="M95 6q-17 2 -29 13.5t-14 28.5q1 40 1.5 100.5t-1 126t-5 126.5t-9.5 103q0 3 -4.5 13t-9.5 22t-9.5 22.5t-4.5 13.5q-1 1 -1 9v12v9t1 12t4 10.5t10 4.5h128q10 0 19.5 -12.5t9.5 -23.5q0 -9 -6.5 -20t-14.5 -20.5t-14.5 -16l-7.5 -7.5v-413q0 -14 12.5 -22.5t31 -13.5
t40.5 -7t42 -2t34.5 0.5t18.5 0.5h16.5t21 0.5t18 1l7.5 0.5l71 71q1 0 5.5 1t7.5 1q16 0 25 -9.5t13.5 -23t5.5 -28.5t1 -27q0 -17 -0.5 -37t-14.5 -34h-36q-44 0 -95 2t-100.5 4t-93.5 4.5t-74 4.5z" />
    <glyph glyph-name="m" unicode="m" horiz-adv-x="774" 
d="M600 24q0 26 7.5 49t7.5 49q0 10 1.5 33t2.5 51.5t0.5 60t-5 59.5t-14 49.5t-25.5 29.5q0 1 -2.5 1h-4.5q-8 0 -15 -5t-13.5 -11.5t-11 -13t-5.5 -10.5l-91 -235q4 -28 2 -46t-12 -28.5t-27 -14.5t-42 -4q-9 0 -22.5 0.5t-26 4t-21 12t-8.5 24.5q0 2 2 11.5t4.5 20.5
t4.5 20.5t2 12.5q0 13 -9.5 37.5t-24.5 48.5t-32.5 41.5t-32.5 17.5q-9 0 -14 -8.5t-5 -18.5v-236q0 -10 -11 -15.5t-25.5 -8t-28.5 -3t-20 -0.5q-12 0 -25 1.5t-23.5 6.5t-17 14.5t-6.5 25.5q0 11 10.5 20.5t24.5 19.5t26.5 20.5t17.5 23.5v29.5t0.5 45.5t0.5 45.5v29.5
q0 42 0.5 80t-4 73.5t-15.5 70t-35 70.5q0 13 7 20.5t16.5 12t21 6t20.5 1.5h27.5t30 -3t24.5 -11.5t10 -25.5q0 -2 -2 -7.5t-4 -12t-4.5 -12.5t-2.5 -7t-0.5 -9t-0.5 -13q0 -3 0.5 -9.5t0.5 -7.5l118 -235q1 -3 5.5 -9.5t11 -13.5t14 -12.5t15.5 -5.5q11 0 19.5 9.5
t12.5 18.5l157 339q4 9 12.5 14.5t19 8.5t21 3.5t19.5 0.5q23 0 41 -10t18 -35q0 -21 -7 -40t-7 -39q0 -2 0.5 -4t0.5 -3q1 -14 4 -44t7 -67t8 -78.5t8 -78.5t7 -67t5 -44q5 -15 16 -24.5t22 -17.5t19.5 -17.5t8.5 -25.5v-10t-1 -10q-14 -9 -26 -14.5t-23 -8.5t-23 -4
t-27 -1q-28 0 -43.5 11t-15.5 41z" />
    <glyph glyph-name="n" unicode="n" horiz-adv-x="650" 
d="M243 332h-40q-1 0 -3 -13.5t-4 -33t-4 -40t-2 -33.5q0 -9 -0.5 -32t-0.5 -48.5t0.5 -48t0.5 -31.5q1 -17 -11 -27.5t-28.5 -16.5t-35 -8t-31.5 -2q-9 0 -21 1.5t-22 5.5t-17 12t-7 22q0 20 14.5 29.5t32 16.5t32 16.5t14.5 30.5v386q0 12 -12.5 19.5t-28 15.5t-28 18
t-12.5 26q0 15 6 23.5t15.5 12.5t21 5t22.5 1q32 0 53.5 -7t42.5 -35q6 -21 22.5 -60t39.5 -85t50.5 -94t55.5 -86.5t55 -63.5t49 -25q2 0 10 1t10 1q9 38 16.5 71.5t13 65t8.5 63t3 66.5q0 24 -11 41t-23.5 31t-23.5 28.5t-11 32.5q0 15 6 23t15.5 12t21 5t22.5 1h29.5
t31.5 -4t25 -14t10 -29q0 -13 -4 -24.5t-9 -22.5q-2 -14 -5 -43t-7 -66t-8.5 -77t-8.5 -77t-7 -66t-4 -43q-1 -2 -1 -15.5v-19.5q0 -23 10.5 -37t23.5 -24.5t23.5 -21.5t10.5 -28q0 -18 -13 -27t-30.5 -12t-36.5 -3h-31q-24 0 -39.5 8t-25 22t-15 34t-9.5 44z" />
    <glyph glyph-name="o" unicode="o" horiz-adv-x="646" 
d="M12 290q0 63 27 123t74 106.5t111.5 74.5t138.5 28q78 0 130.5 -29.5t84.5 -76t46 -104.5t14 -115q0 -56 -18 -110t-54 -96.5t-89 -69t-123 -26.5q-67 0 -128.5 24t-109 65t-76 94t-28.5 112zM101 294q0 -47 16 -90t47 -75t75.5 -51t101.5 -19q59 0 101 24.5t69 62
t39.5 83.5t12.5 89q0 33 -4.5 69t-20 65t-44 48t-76.5 19q-32 0 -58.5 -2t-52.5 -7t-54 -13t-62 -20q-27 -14 -44 -35t-27.5 -46t-14.5 -51t-4 -51z" />
    <glyph glyph-name="p" unicode="p" 
d="M122 -43q0 17 10.5 27t23.5 19t23.5 21t10.5 32q0 26 -10 39.5t-24.5 20t-32 10t-32 8.5t-24.5 15t-10 31q0 20 7.5 28t18.5 9.5t24 -1t24.5 -3t20 3t10.5 16.5q0 4 0.5 15t0.5 23.5v23.5v16q0 14 1.5 38.5t-1 48t-13 41t-34.5 17.5q-11 0 -19.5 -4.5t-16.5 -10
t-16.5 -10t-19.5 -4.5q-19 0 -29 13.5t-10 31.5q0 13 -1 32.5t2 37.5t11.5 31t26.5 13q15 0 26 -3t27 -11h248q38 0 76 -17.5t68 -45.5t48.5 -63.5t18.5 -72.5q0 -57 -23 -96t-60.5 -67t-84.5 -47t-95 -35q-21 -7 -24.5 -21.5t-3.5 -31.5q0 -18 3 -32t10 -27.5t17 -27
t24 -30.5q-9 -16 -22.5 -24t-29.5 -11.5t-32.5 -4t-32.5 -0.5h-10.5t-16 0.5t-16 0.5h-10.5q-17 8 -22 16t-5 22zM240 403q0 -21 -2 -52.5t2.5 -61t18.5 -50.5t46 -21t65 13t59.5 35.5t43.5 52.5t17 64q0 35 -19 59t-47.5 38.5t-61 21t-60.5 6.5q-8 0 -17.5 0.5t-18 -1.5
t-15.5 -8t-10 -18v-16t-0.5 -23.5t-0.5 -23.5v-15z" />
    <glyph glyph-name="q" unicode="q" horiz-adv-x="708" 
d="M493 -6q-22 0 -42.5 -2.5t-40.5 -6t-41 -6t-43 -2.5q-65 0 -122 25.5t-100 68.5t-67.5 99.5t-24.5 118.5q0 55 23.5 111t64 101t94.5 73.5t114 28.5q3 0 11.5 -0.5t18 -1.5t18 -1.5t11.5 -0.5q51 -24 106 -55t100.5 -71.5t74.5 -91t29 -114.5q0 -30 -12 -55t-26 -49
t-26 -48t-12 -52q0 -23 19 -36t43.5 -20.5t49.5 -10t37 -3.5v-42l-73 -71q-2 -1 -9.5 -2t-11.5 -1q-20 0 -33.5 8.5t-23 21.5t-18.5 28.5t-20.5 28.5t-27.5 21.5t-40 8.5zM99 267q0 -45 15.5 -85t44 -69.5t68.5 -47t89 -17.5q18 0 35.5 1t31 6.5t21.5 17t8 31.5
q0 13 -2.5 23.5t-6 20.5t-6 20t-2.5 23q0 2 -0.5 8.5t1 14t4.5 13.5t11 6q18 0 30 -11.5t23 -25t23.5 -24.5t31.5 -11q22 0 36 12t21.5 30t10 38.5t2.5 37.5q0 56 -17 92t-48 58t-74.5 31.5t-97.5 11.5q-14 28 -28 36t-37 8q-47 0 -82 -25.5t-58.5 -63t-35.5 -81t-12 -79.5z
" />
    <glyph glyph-name="r" unicode="r" horiz-adv-x="692" 
d="M61 28q0 21 10.5 32t23 22t23 29.5t10.5 54.5q0 38 -1 71.5t-2.5 67t-4.5 69.5t-6 79q3 15 -13 20t-36.5 13.5t-38 27t-17.5 59.5v19t3 20.5t9.5 16.5t20.5 7q17 0 32 -7t33 -7q42 0 82.5 7.5t82.5 7.5q38 0 85.5 -9t89.5 -30t70.5 -55t28.5 -84v-6l-10 -25t-12.5 -30
t-11 -25.5t-5.5 -11.5l-144 -131q-4 -3 -9 -13t-4 -13q1 -4 11 -14t15 -12l314 -104q11 -4 12.5 -11t1.5 -16q0 -15 -9 -23t-22.5 -12t-28 -4.5t-24.5 -0.5q-45 0 -87 19t-84.5 41.5t-87.5 41.5t-96 19q-4 0 -16.5 -0.5t-16.5 -1.5q-3 -2 -8 -12t-5 -14q0 -2 2 -8t4 -12.5
t4.5 -12t2.5 -6.5t0.5 -6.5t0.5 -7.5q0 -17 -12.5 -27.5t-30.5 -16t-37.5 -7.5t-32.5 -2q-8 0 -18.5 0.5t-19.5 3.5t-15 10t-6 20zM192 366q0 -14 0.5 -31t4.5 -31.5t13.5 -24.5t28.5 -10h9.5t9.5 1q28 11 64.5 30t69 45t55 58.5t22.5 70.5q0 27 -18.5 46t-44.5 30t-54 16
t-48 5q-46 0 -69 -18t-32.5 -47t-10 -66t-0.5 -74z" />
    <glyph glyph-name="s" unicode="s" horiz-adv-x="640" 
d="M140 24q-20 0 -39.5 -9t-42.5 -9q-20 0 -28.5 12.5t-10.5 30.5t-0.5 37t1.5 31v15.5t0.5 23.5t0.5 23v16q8 11 17 22t24 11q6 0 17 -13t28.5 -32t41 -42t55 -42t71.5 -32t89 -13q18 0 46 1.5t55 9t46 23t19 44.5q0 9 -9 22t-20.5 25t-21.5 21t-13 11l-301 172
q-27 15 -38 40.5t-11 53.5q0 12 2.5 26t8 27.5t15 24.5t23.5 16l334 125q18 7 27.5 -5t14 -30t5.5 -36t1 -23q0 -9 0.5 -22.5t-2 -26t-9 -21.5t-21.5 -9q-17 0 -31 5.5t-28 11.5t-28.5 11.5t-32.5 5.5q-24 0 -53 -4t-54.5 -14t-43 -27t-17.5 -44q0 -35 29.5 -62.5t74 -52
t96.5 -49t96.5 -53.5t74 -65.5t29.5 -84.5q0 -42 -26 -67t-63 -38t-77.5 -17t-70.5 -4q-33 0 -64 7.5t-61.5 17t-61.5 17t-63 7.5z" />
    <glyph glyph-name="t" unicode="t" horiz-adv-x="594" 
d="M199 33q0 17 14 33.5t27 26.5v319q0 12 -8 18t-18.5 8.5t-21 2t-16.5 -0.5q-27 0 -47 -4t-36.5 -13t-32 -24.5t-33.5 -39.5q-28 17 -34.5 44t-6.5 56q0 16 0.5 31t13.5 28q37 -2 72.5 0t71 5t70.5 6t72 3q24 0 42.5 -1.5t38 -3.5t42.5 -4.5t56 -4.5q45 -2 72.5 -3.5
t42 -12t19 -35.5t4.5 -75q-27 0 -49.5 7.5t-45 16.5t-47 16.5t-53.5 7.5h-13t-15.5 -0.5t-13.5 -1t-7 -0.5l-26 -26v-306q14 -14 27.5 -30t13.5 -37q0 -17 -12 -25t-28.5 -12t-33.5 -4h-27h-9.5t-14 0.5t-14 1t-9.5 0.5q-12 8 -19.5 14.5t-7.5 18.5z" />
    <glyph glyph-name="u" unicode="u" horiz-adv-x="656" 
d="M465 139q-6 1 -21.5 -8.5t-37 -25t-48 -33.5t-54 -34t-55 -26.5t-51.5 -10.5q-30 0 -58 11t-49.5 30t-34.5 44t-13 53v299q-14 17 -22 30.5t-8 31.5q0 17 12.5 25t30 11t35.5 3h29h13t19 -0.5t19 -1t12 -0.5q10 -5 19.5 -12.5t9.5 -17.5v-4t-1 -3q-31 -35 -50.5 -64
t-30 -59t-14.5 -64.5t-4 -80.5v-18t0.5 -28t0.5 -28v-19q5 -35 26.5 -49.5t58.5 -14.5q57 0 108.5 31t90.5 77.5t61.5 101t22.5 100.5q0 4 -0.5 10.5t-0.5 13t-0.5 11.5t-0.5 6q0 2 -4.5 11t-9 19.5t-9 19.5t-4.5 12q-3 14 7 22t24 11.5t29.5 4t23.5 0.5q11 0 25.5 -1
t28 -4.5t23 -11.5t9.5 -22q0 -20 -11.5 -32t-31.5 -29v-324q0 -23 13 -34.5t29 -20t29 -18t13 -27.5q0 -14 -10 -21.5t-24.5 -11.5t-30.5 -4.5t-28 -0.5q-8 0 -19.5 1t-22.5 3.5t-19 7.5t-8 14v124q0 2 -4 6t-10 8t-12 7t-10 4z" />
    <glyph glyph-name="v" unicode="v" horiz-adv-x="564" 
d="M56 444q-7 4 -21 12.5t-28 19.5t-25.5 23.5t-12.5 24.5q-1 11 4.5 19.5t15 15t21 10t22.5 4.5q38 3 63.5 -12t42.5 -40.5t27 -59t17.5 -69t14 -69t16 -60t23.5 -42t36 -13.5q13 1 22 10t14 20l76 176l-10 104q-1 12 16 19t38 10.5t39 4.5t19 1q4 0 14 1t21 1.5t21 0.5h14
q14 -2 16.5 -9t2.5 -15q1 -10 -5 -18.5t-15 -15.5t-19.5 -12.5t-18.5 -10.5l-203 -473q-2 -5 -15 -10t-22 -5q-9 -1 -18 4.5t-17.5 13t-14.5 16t-8 14.5l-163 409v0z" />
    <glyph glyph-name="w" unicode="w" horiz-adv-x="778" 
d="M192 23q-62 111 -97.5 233.5t-52.5 247.5q-3 4 -9.5 14.5t-14 22.5t-13.5 22.5t-9 15.5q-1 1 -1 3v5q0 12 10 24.5t22 12.5h105l15 -15q-5 -45 -1.5 -101t11.5 -112t18 -107t17 -86q0 -1 5 -14t13 -27.5t19 -25.5t23 -8q16 4 28 19.5t19.5 35t11 40t3.5 34.5
q0 13 -5 23.5t-11.5 20.5t-11.5 20t-5 24q0 23 12.5 34.5t31.5 16t40.5 4.5h38.5h25t24 -3t18.5 -10.5t7.5 -22.5q0 -25 -8.5 -46.5t-8.5 -46.5q0 -18 5 -47.5t16.5 -58t28.5 -49t41 -20.5q22 0 37.5 19.5t25.5 50t15.5 67.5t8.5 72.5t3.5 64.5t0.5 44v17.5t-0.5 27
t-0.5 27.5v18q-18 23 -25 41t-7 43q0 15 6.5 22.5t16.5 11t22 3.5h24t29.5 -0.5t33 -5t26.5 -14t11 -26.5q0 -22 -8.5 -38t-23.5 -37l-75 -421q-3 -17 -11.5 -33.5t-21 -29.5t-29 -20.5t-35.5 -7.5q-26 0 -52 14.5t-49.5 34.5t-42.5 40.5t-29 31.5q-2 0 -4.5 0.5t-3.5 0.5
q-16 0 -26.5 -9t-19 -23t-16 -29.5t-17.5 -29.5t-23 -23t-33 -9t-38.5 7.5t-29.5 24.5z" />
    <glyph glyph-name="x" unicode="x" horiz-adv-x="630" 
d="M305 155q-24 0 -39.5 -11.5t-28 -29t-24.5 -37.5t-28 -37.5t-39 -29t-58 -11.5h-10h-15t-14.5 0.5t-9.5 0.5q-18 9 -24 17.5t-6 23.5q0 16 11.5 26t28 16.5t33 9.5l27.5 5q11 11 32 30t42 42.5t37 49.5t16 52q0 3 -0.5 11t-0.5 10q-11 19 -27.5 48t-37 59.5t-43.5 58
t-46 44.5q-9 7 -21.5 10t-24 7.5t-19 12.5t-7.5 25q0 7 3 28t4 42q18 42 35.5 53.5t34.5 1.5t34 -36.5t34 -60.5t34.5 -71t35.5 -67.5t36.5 -50.5t37.5 -20q23 0 40.5 19t31 47.5t23 62.5t18 63.5t16.5 50t17 23.5q4 0 13 0.5t19 0.5t19 0.5t12 0.5q7 0 22 1t31 -0.5
t28 -8.5t12 -22q0 -2 -0.5 -7t-1.5 -7q-6 -5 -20.5 -18t-30 -29t-29 -30.5t-18.5 -20.5q-9 -13 -22 -33t-27 -42t-28 -45t-24.5 -42t-17.5 -32t-7 -16v-69q105 -56 159 -95.5t72.5 -65.5t10.5 -40.5t-27 -22t-40 -9t-29 -1.5q-27 0 -46.5 12t-34.5 30.5t-28.5 40t-28 40
t-33 30.5t-44.5 12z" />
    <glyph glyph-name="y" unicode="y" horiz-adv-x="672" 
d="M-30 -84q0 20 12.5 25.5t34.5 5.5q27 0 51 -10t53 -22t66.5 -22t91.5 -10h23t34 0.5t34 0.5h23q50 14 70 49.5t20 76.5q0 10 -1.5 20.5t-6 19.5t-13 14.5t-23.5 5.5q-26 0 -49.5 -7.5t-47.5 -16.5t-48 -16.5t-50 -7.5q-21 0 -42.5 8t-39.5 21t-31 30t-19 36q0 5 -0.5 18
t-0.5 27.5v27.5v18v25v30t0.5 26t0.5 13q0 4 2.5 19.5t6 33.5t6 34t2.5 21q0 23 -10.5 34t-26.5 17t-34 8.5t-34 7t-26.5 13.5t-10.5 28q0 23 21.5 33.5t50 14t56.5 2.5t41 -1q5 0 19 -0.5t29.5 -1t29 -1t19.5 -0.5q16 -4 17 -15t1 -22q0 -44 -11.5 -86.5t-25 -84.5
t-24.5 -85t-11 -86q0 -32 17.5 -51t54.5 -19q10 0 31 5.5t46.5 15.5t52 23t48.5 29t36 33t14 35v200l-53 77q-5 8 1 16.5t16.5 15t21.5 10.5t14 4q1 1 11.5 1.5t24.5 1t29 0.5h24h16.5t26.5 -0.5t26.5 -1t17.5 -1.5q11 -4 14.5 -8.5t3.5 -12.5q0 -16 -10.5 -28.5
t-23.5 -23.5t-24.5 -23t-12.5 -27l-53 -587q0 -3 -10 -13t-24.5 -21t-29.5 -19.5t-24 -8.5h-422q-21 0 -37.5 11.5t-28 28.5t-17.5 36t-6 33z" />
    <glyph glyph-name="z" unicode="z" horiz-adv-x="696" 
d="M49 -1q-14 0 -23 10t-9 20q0 8 5 16.5t11 13.5l399 313q14 11 15 23t1 25q0 4 0.5 9.5t-0.5 11t-4.5 10t-11.5 5.5q-4 0 -15 0.5t-23.5 0.5h-23.5h-15q-41 0 -69 -2.5t-50.5 -11t-44.5 -25.5t-50 -46h-8q-25 0 -36.5 16.5t-15.5 38.5t-3.5 44.5t0.5 35.5v20.5t3.5 14.5
t12 9t24.5 3q22 0 36 -4.5t32 -21.5h230q69 0 105 -31t36 -76q0 -3 -0.5 -7t-0.5 -8q-1 -4 -1 -10l-307 -289q-1 0 -1.5 -4.5t-0.5 -6.5q0 -5 2.5 -14.5t14.5 -9.5h276q15 0 28 10t23.5 22.5t17 24t8.5 15.5q2 0 7.5 0.5t7.5 0.5q14 0 30 -5.5t16 -19.5v-109q0 -8 -4.5 -13
t-11 -7.5t-14.5 -3t-14 -0.5q-24 0 -47.5 3.5t-46.5 8.5h-490z" />
    <glyph glyph-name="bar" unicode="|" horiz-adv-x="244" 
d="M33 18q0 13 8.5 23t18 19t18 19.5t8.5 25.5v476l-64 59q-1 0 -1.5 2t-0.5 3q0 11 10 17.5t18 11.5q3 0 12 0.5t19.5 0.5h19.5h12q9 0 26.5 1t35 -0.5t30.5 -7.5t13 -21q0 -16 -6.5 -28.5t-14 -24.5t-13.5 -26t-6 -33v-453q0 -11 6 -18t13.5 -13.5t14 -14t6.5 -18.5
q0 -15 -10.5 -22t-25 -8.5t-30 -0.5t-25.5 1h-13t-19.5 0.5t-20 0.5h-12.5q-9 6 -18 12.5t-9 16.5z" />
    <glyph glyph-name="exclamdown" unicode="&#xa1;" horiz-adv-x="178" 
d="M96 659q0 -18 -9.5 -31.5t-28.5 -13.5q-17 0 -28 14t-11 31q0 16 11 30t28 14q19 0 28.5 -13.5t9.5 -30.5zM146 485q0 -20 -6 -35t-21 -34v-30t-0.5 -45t-0.5 -45.5v-29.5q0 -62 7 -117.5t7 -114.5q0 -26 -19.5 -34.5t-43.5 -8.5q-17 0 -33.5 9.5t-16.5 28.5q0 27 4 52.5
t9.5 51t9.5 52t4 55.5q0 32 -4 61.5t-9.5 59t-9.5 59t-4 59.5q0 13 8 20.5t20 11t25 4.5t23 1q19 0 35 -4t16 -27z" />
    <glyph glyph-name="sterling" unicode="&#xa3;" horiz-adv-x="486" 
d="M50 2q-9 0 -16.5 12.5t-7.5 22.5q0 21 13 31t29 19t29 21t13 37q0 17 -7 26t-18 14t-23 9t-23 11.5t-18 21.5t-7 40q0 21 3.5 32.5t13 16.5t25.5 6t41 3l12 23q0 13 1.5 44.5t3.5 67t4 67.5t3 44q2 24 11 45t24 37.5t36 26t46 9.5q29 0 58.5 -15t56 -37t48.5 -46t36 -43
q1 -1 1 -3v-3q0 -17 -13 -25.5t-31 -12t-36.5 -4t-29.5 -0.5q-9 0 -18.5 2t-18 6.5t-14 12.5t-5.5 20q0 18 5 34t5 35q-47 0 -69 -12.5t-30 -36.5t-7 -59t1 -80q0 -7 0.5 -18.5t0.5 -23.5t0.5 -21t0.5 -11l12 -35q22 -1 39.5 -3.5t30 -10t19 -21t6.5 -36.5q0 -18 -5.5 -27
t-16.5 -13t-26.5 -4.5t-34.5 -1.5q-11 -11 -12 -26t-1 -29q0 -22 8.5 -34.5t23 -19t32.5 -8t37 -1.5q23 0 44.5 9.5t40 20.5t32.5 20.5t23 9.5q11 0 19 -8t13 -19.5t7.5 -23.5t2.5 -20t-1.5 -22t-6 -27.5t-12.5 -23.5t-21 -10q-11 0 -22.5 6.5t-19.5 11.5h-340z" />
    <glyph glyph-name="plusminus" unicode="&#xb1;" horiz-adv-x="596" 
d="M43 73q0 15 7 31t27 16q22 0 41 -8t42 -8q16 0 31.5 1t28.5 14q0 4 0.5 17t0.5 17q1 15 0 27q-1 10 -4.5 18.5t-10.5 8.5h-162q-6 0 -11.5 10t-9 22.5t-5.5 24.5t-2 17q0 19 6.5 30.5t26.5 11.5q26 0 49 -8t51 -8q29 0 44.5 12t15.5 44q0 18 -9 29.5t-19.5 21.5
t-19.5 21.5t-9 28.5q0 12 7.5 18.5t19.5 14.5q3 0 9.5 0.5t14.5 1t14.5 0.5h9.5h17t29.5 -2.5t28 -8.5t12.5 -18v-135q0 -2 5.5 -7.5t8.5 -5.5l5 -0.5t11.5 -0.5h13h10.5q29 0 52.5 7.5t51.5 7.5q12 0 19 -5t10 -13t3.5 -17.5t0.5 -19.5v-9.5t-1 -16t-4.5 -15t-9.5 -6.5
h-135q-11 0 -16.5 -7t-8 -16.5t-3 -19.5t-0.5 -16q0 -36 15.5 -53.5t52.5 -17.5q20 0 37 5.5t33 12.5l32 14t34 10q14 2 22 -4.5t12.5 -16.5t6 -21.5t1.5 -18.5q0 -3 0.5 -10.5t-0.5 -15t-4.5 -14t-10.5 -7.5q-16 -1 -48.5 -3.5t-74 -5t-87 -5.5t-87 -5.5t-74 -4.5t-48.5 -3
q-1 0 -6 -0.5t-11 -0.5h-12h-9q-31 0 -44.5 15.5t-13.5 47.5z" />
    <glyph glyph-name="questiondown" unicode="&#xbf;" horiz-adv-x="498" 
d="M270 668q0 -14 -9 -17.5t-23 -3.5q-18 0 -24.5 5t-6.5 21q0 12 5 19.5t21 7.5q15 0 26 -9t11 -23zM330 559q0 -15 -4 -24t-21 -21q13 -78 1.5 -127.5t-35.5 -80t-56 -49t-60.5 -35.5t-48 -38t-19.5 -58v-11.5t2 -15t7.5 -12.5t15.5 -5l94 5q15 0 24.5 10t17.5 24.5
t17.5 32t25 32t39.5 24.5t62 10q15 0 32.5 -1.5t33.5 -6.5t26.5 -13.5t10.5 -23.5q0 -1 -2.5 -4.5t-6 -8.5t-7 -9.5t-6.5 -7.5q-35 -31 -64 -58t-61.5 -47t-71.5 -31.5t-95 -11.5q-54 0 -86.5 11t-50.5 30t-24 45t-6 56q0 23 6.5 46t31.5 40l156 114q11 8 16.5 18.5
t7.5 21.5t2 22.5v21.5q0 18 -6 33.5t-13.5 30.5t-13.5 29t-6 29q0 14 9.5 22t23 12t28 5.5t25.5 1.5h21t15.5 -2t9.5 -8t3 -17z" />
    <glyph glyph-name="AE" unicode="&#xc6;" horiz-adv-x="698" 
d="M362 -3l-24 31q-3 10 -9.5 36t-14.5 54.5t-15 54.5t-10 36q-5 18 -14 27.5t-27 9.5q-37 0 -54 -19t-25 -47t-12 -61.5t-14.5 -61.5t-31.5 -47t-63 -19q-22 0 -36 11.5t-14 33.5q0 3 0.5 9t0.5 7l61 60l145 411q0 1 0.5 5.5t0.5 6.5q0 12 -6 22t-13 20t-13 20t-6 22
q0 8 1.5 15t11.5 10q38 7 82.5 10t90 4t88.5 0t77 -2q4 1 14.5 5t21.5 7.5t21.5 7t14.5 4.5q1 0 3.5 0.5t3.5 0.5q12 0 20 -8t13 -19.5t7.5 -24t2.5 -21.5q0 -10 -1 -23t-5 -24t-11.5 -19t-20.5 -8q-20 0 -31.5 10t-28.5 27h-145l-18 -9q-7 -4 -12.5 -8t-5.5 -7v-157
q0 -11 5.5 -18t13.5 -11.5t18 -6t18 -1.5q14 0 27.5 4t26.5 9t26.5 9t27.5 4q15 0 25.5 -8t17 -20.5t9.5 -27.5t3 -29q0 -9 -1.5 -19.5t-5 -19.5t-11 -15.5t-19.5 -6.5q-9 15 -18 22.5t-18.5 11t-20.5 4t-24 0.5q-38 0 -63.5 -14t-25.5 -57q0 -39 8 -63.5t25 -38t43.5 -18.5
t64.5 -5q20 0 35 8t27.5 17.5t24 17.5t26.5 8q14 0 23.5 -8.5t15.5 -20.5t8.5 -26t2.5 -25t-1.5 -23t-6 -22t-13 -16t-22.5 -6q-12 0 -22 6t-21 12h-229z" />
    <glyph glyph-name="Oslash" unicode="&#xd8;" horiz-adv-x="752" 
d="M-26 -176v9.5t2 9.5q30 0 59 4t51.5 14.5t36.5 28t14 43.5q0 2 -1 10t-1 10q-10 8 -29 30.5t-38.5 48.5t-35.5 50t-20 35q-1 1 -2 11t-1.5 23t-1 26.5t-0.5 21.5q0 92 40 154t110 99.5t165 54t205 19.5q31 17 51.5 49t20.5 61q0 12 -6 23t-13 21.5t-13 21.5t-6 24
q0 5 0.5 11.5t4 12t11.5 8.5t22 1q20 -5 50 -13.5t61.5 -20.5t59 -27.5t42.5 -34.5q-25 -15 -56.5 -37t-59 -48.5t-46 -55.5t-18.5 -57q0 -2 0.5 -10t0.5 -11q23 -28 43 -52t35 -48t23.5 -50t8.5 -57q0 -27 -12.5 -59.5t-34.5 -63t-52 -56t-64 -37.5l-302 -109l-53 -41v-109
q0 -9 -5.5 -14.5t-13.5 -8.5t-17.5 -4t-17.5 -1q-22 0 -55.5 5t-65 16t-54 28t-22.5 41zM347 63q0 -19 13 -24.5t35 -5.5q53 0 97 19.5t76 50.5t49.5 69t17.5 74v13v18.5t-0.5 18.5t-1.5 12q-1 1 -10 8.5t-20 15t-22.5 13.5t-17.5 4q-4 -2 -11.5 -7t-16 -11.5t-15.5 -13
t-10 -9.5l-160 -232q-2 -1 -2.5 -6t-0.5 -7zM98 212v-43t8 -55.5t26.5 -47.5t56.5 -20q19 0 30.5 6.5t22.5 23.5l178 273q0 1 1 10t1 14q0 16 -1.5 30.5t-17.5 27.5h-10.5t-16 0.5t-16 0.5h-10.5q-62 0 -109 -17.5t-79 -47.5t-48 -70t-16 -85z" />
    <glyph glyph-name="ae" unicode="&#xe6;" horiz-adv-x="698" 
d="M362 -3l-24 31q-3 10 -9.5 36t-14.5 54.5t-15 54.5t-10 36q-5 18 -14 27.5t-27 9.5q-37 0 -54 -19t-25 -47t-12 -61.5t-14.5 -61.5t-31.5 -47t-63 -19q-22 0 -36 11.5t-14 33.5q0 3 0.5 9t0.5 7l61 60l145 411q0 1 0.5 5.5t0.5 6.5q0 12 -6 22t-13 20t-13 20t-6 22
q0 8 1.5 15t11.5 10q38 7 82.5 10t90 4t88.5 0t77 -2q4 1 14.5 5t21.5 7.5t21.5 7t14.5 4.5q1 0 3.5 0.5t3.5 0.5q12 0 20 -8t13 -19.5t7.5 -24t2.5 -21.5q0 -10 -1 -23t-5 -24t-11.5 -19t-20.5 -8q-20 0 -31.5 10t-28.5 27h-145l-18 -9q-7 -4 -12.5 -8t-5.5 -7v-157
q0 -11 5.5 -18t13.5 -11.5t18 -6t18 -1.5q14 0 27.5 4t26.5 9t26.5 9t27.5 4q15 0 25.5 -8t17 -20.5t9.5 -27.5t3 -29q0 -9 -1.5 -19.5t-5 -19.5t-11 -15.5t-19.5 -6.5q-9 15 -18 22.5t-18.5 11t-20.5 4t-24 0.5q-38 0 -63.5 -14t-25.5 -57q0 -39 8 -63.5t25 -38t43.5 -18.5
t64.5 -5q20 0 35 8t27.5 17.5t24 17.5t26.5 8q14 0 23.5 -8.5t15.5 -20.5t8.5 -26t2.5 -25t-1.5 -23t-6 -22t-13 -16t-22.5 -6q-12 0 -22 6t-21 12h-229z" />
    <glyph glyph-name="oslash" unicode="&#xf8;" horiz-adv-x="752" 
d="M-26 -176v9.5t2 9.5q30 0 59 4t51.5 14.5t36.5 28t14 43.5q0 2 -1 10t-1 10q-10 8 -29 30.5t-38.5 48.5t-35.5 50t-20 35q-1 1 -2 11t-1.5 23t-1 26.5t-0.5 21.5q0 92 40 154t110 99.5t165 54t205 19.5q31 17 51.5 49t20.5 61q0 12 -6 23t-13 21.5t-13 21.5t-6 24
q0 5 0.5 11.5t4 12t11.5 8.5t22 1q20 -5 50 -13.5t61.5 -20.5t59 -27.5t42.5 -34.5q-25 -15 -56.5 -37t-59 -48.5t-46 -55.5t-18.5 -57q0 -2 0.5 -10t0.5 -11q23 -28 43 -52t35 -48t23.5 -50t8.5 -57q0 -27 -12.5 -59.5t-34.5 -63t-52 -56t-64 -37.5l-302 -109l-53 -41v-109
q0 -9 -5.5 -14.5t-13.5 -8.5t-17.5 -4t-17.5 -1q-22 0 -55.5 5t-65 16t-54 28t-22.5 41zM347 63q0 -19 13 -24.5t35 -5.5q53 0 97 19.5t76 50.5t49.5 69t17.5 74v13v18.5t-0.5 18.5t-1.5 12q-1 1 -10 8.5t-20 15t-22.5 13.5t-17.5 4q-4 -2 -11.5 -7t-16 -11.5t-15.5 -13
t-10 -9.5l-160 -232q-2 -1 -2.5 -6t-0.5 -7zM98 212v-43t8 -55.5t26.5 -47.5t56.5 -20q19 0 30.5 6.5t22.5 23.5l178 273q0 1 1 10t1 14q0 16 -1.5 30.5t-17.5 27.5h-10.5t-16 0.5t-16 0.5h-10.5q-62 0 -109 -17.5t-79 -47.5t-48 -70t-16 -85z" />
    <glyph glyph-name="OE" unicode="&#x152;" horiz-adv-x="822" 
d="M650 15q-21 0 -41 -4.5t-39.5 -9.5t-40 -9.5t-41.5 -4.5q-85 0 -170.5 21.5t-154.5 64.5t-112 105.5t-43 145.5q0 61 15.5 125.5t50.5 117t91.5 86.5t139.5 34q79 0 157.5 -7t157.5 -7h15t22.5 0.5t22 0.5h14.5q17 17 33 28.5t39 11.5q13 0 28 -5.5t15 -21.5v-102h-305
q-8 0 -13.5 -7.5t-9 -17.5t-5.5 -19t-2 -12q0 -34 2 -61t11.5 -46.5t30.5 -30t60 -10.5q17 0 31.5 4.5t28 9.5t27 9.5t29.5 4.5t24.5 -6t13 -15.5t5.5 -20.5t1 -21q0 -1 1 -9t0.5 -17.5t-4.5 -17.5t-13 -9q-35 3 -73.5 5t-71 -4t-54 -24.5t-21.5 -57.5q0 -21 1.5 -43
t9.5 -40t24 -29.5t46 -11.5q22 0 42 6.5t39.5 14.5t39 14.5t41.5 6.5q2 0 10.5 -0.5t10.5 -1.5q20 -28 25.5 -48.5t5.5 -48.5q0 -20 -8 -38t-37 -18q-15 0 -27 6t-24 13.5t-24 14t-27 6.5zM94 317q0 -45 15.5 -86.5t45 -73t73 -50t99.5 -18.5q50 0 70 15t20 60v27
q-3 30 -7 71.5t-9 86.5t-10 89t-9 79t-7 57t-3 23l-14 26q-2 1 -15.5 2t-20.5 1q-69 0 -113.5 -30.5t-70 -76t-35 -100t-9.5 -102.5z" />
    <glyph glyph-name="oe" unicode="&#x153;" horiz-adv-x="822" 
d="M650 15q-21 0 -41 -4.5t-39.5 -9.5t-40 -9.5t-41.5 -4.5q-85 0 -170.5 21.5t-154.5 64.5t-112 105.5t-43 145.5q0 61 15.5 125.5t50.5 117t91.5 86.5t139.5 34q79 0 157.5 -7t157.5 -7h15t22.5 0.5t22 0.5h14.5q17 17 33 28.5t39 11.5q13 0 28 -5.5t15 -21.5v-102h-305
q-8 0 -13.5 -7.5t-9 -17.5t-5.5 -19t-2 -12q0 -34 2 -61t11.5 -46.5t30.5 -30t60 -10.5q17 0 31.5 4.5t28 9.5t27 9.5t29.5 4.5t24.5 -6t13 -15.5t5.5 -20.5t1 -21q0 -1 1 -9t0.5 -17.5t-4.5 -17.5t-13 -9q-35 3 -73.5 5t-71 -4t-54 -24.5t-21.5 -57.5q0 -21 1.5 -43
t9.5 -40t24 -29.5t46 -11.5q22 0 42 6.5t39.5 14.5t39 14.5t41.5 6.5q2 0 10.5 -0.5t10.5 -1.5q20 -28 25.5 -48.5t5.5 -48.5q0 -20 -8 -38t-37 -18q-15 0 -27 6t-24 13.5t-24 14t-27 6.5zM94 317q0 -45 15.5 -86.5t45 -73t73 -50t99.5 -18.5q50 0 70 15t20 60v27
q-3 30 -7 71.5t-9 86.5t-10 89t-9 79t-7 57t-3 23l-14 26q-2 1 -15.5 2t-20.5 1q-69 0 -113.5 -30.5t-70 -76t-35 -100t-9.5 -102.5z" />
    <glyph glyph-name="Euro" unicode="&#x20ac;" horiz-adv-x="756" 
d="M178 100q-20 0 -36 -5t-31 -11.5t-30 -11.5t-32 -5q-12 0 -18 5t-8 13.5t-1.5 18.5t0.5 20q0 27 10 40.5t24.5 19.5t32 8.5t32 6t24.5 11.5t10 27q0 14 -11 21.5t-27 12.5t-35 10.5t-35 16.5t-27 29.5t-11 49.5q0 18 4 30.5t24 12.5q16 0 27.5 -9t23 -19.5t24 -19.5
t29.5 -9q16 0 37.5 21.5t50 54t65 69.5t83.5 68t104.5 50.5t128.5 15.5q3 4 9 13.5t13.5 19t17 17t19.5 7.5q19 0 29 -10.5t14 -25.5t4 -32v-30q0 -12 0.5 -27t-1.5 -28.5t-9 -22.5t-23 -9q-18 0 -33 5t-30 11t-31 11t-36 5q-29 0 -72.5 -9t-84.5 -28t-70.5 -48.5
t-29.5 -71.5q0 -12 6.5 -17.5t16 -8t20 -2.5h17.5q22 0 35.5 11t23.5 24.5t20 25t25 11.5q13 0 22.5 -10t15 -23.5t8 -29t2.5 -25.5q0 -24 -6 -39t-34 -28q-8 1 -26.5 1h-39.5h-39.5t-25.5 -1q-4 0 -14.5 -1.5t-22 -5t-20.5 -10.5t-9 -18q0 -12 7.5 -19.5t18.5 -14.5
q3 0 9.5 -0.5t14 -0.5t14 -0.5t8.5 -0.5q27 0 50.5 8t49.5 8q23 0 34 -10.5t15.5 -26t5.5 -34t6 -34t16.5 -26t36.5 -10.5q26 0 48.5 11t41.5 24.5t34.5 25t27.5 11.5q11 0 17.5 -5.5t10 -13.5t4.5 -17.5t1 -18.5q0 -13 -1 -32.5t-5.5 -38t-13.5 -31.5t-25 -13q-20 0 -39 8
t-39 8q-40 0 -78 -8t-78 -8q-44 0 -78 18t-66.5 40t-65.5 40t-75 18zM402 97q1 3 -1.5 4.5t-5 1.5t-5 -1.5t-1.5 -4.5q2 -7 6.5 -7t6.5 7z" />
  </font>
</defs>
</svg>
