<?xml version="1.0" standalone="no"?>
<!DOCTYPE svg PUBLIC "-//W3C//DTD SVG 1.1//EN" "http://www.w3.org/Graphics/SVG/1.1/DTD/svg11.dtd" >
<svg>
<metadata>
Created by FontForge 20120731 at Tue Apr  9 11:39:13 2019
 By www-data
Digitized data copyright (c) 1997 The Monotype Corporation, Inc. All rights reserved. Gill Sans is a trademark of The Monotype Corporation, Inc. which may be registered in certain jurisdictions.
</metadata>
<defs>
<font id="GillSansAltOneWGL-BoldItalic" horiz-adv-x="1130" >
  <font-face 
    font-family="Gill Sans for Oriflame"
    font-weight="700"
    font-style="italic"
    font-stretch="normal"
    units-per-em="2048"
    panose-1="2 11 8 2 2 1 4 9 2 3"
    ascent="1638"
    descent="-410"
    x-height="930"
    cap-height="1397"
    bbox="-389 -677 2477 2143"
    underline-thickness="102"
    underline-position="-103"
    slope="-8"
    unicode-range="U+0020-FB02"
  />
<missing-glyph horiz-adv-x="2048" 
d="M256 0v1536h1536v-1536h-1536zM384 128h1280v1280h-1280v-1280z" />
    <glyph glyph-name=".notdef" horiz-adv-x="2048" 
d="M256 0v1536h1536v-1536h-1536zM384 128h1280v1280h-1280v-1280z" />
    <glyph glyph-name="NULL" horiz-adv-x="0" 
 />
    <glyph glyph-name="nonmarkingreturn" horiz-adv-x="569" 
 />
    <glyph glyph-name="space" unicode=" " horiz-adv-x="569" 
 />
    <glyph glyph-name="exclam" unicode="!" horiz-adv-x="532" 
d="M326 436h-164l35 623q10 203 53.5 279.5t128.5 76.5q61 0 96 -40t35 -109q0 -90 -37 -238zM35 156q0 70 51 121t121 51t121 -51t51 -121q0 -71 -51 -121.5t-121 -50.5t-121 50.5t-51 121.5z" />
    <glyph glyph-name="quotedbl" unicode="&#x22;" horiz-adv-x="981" 
d="M895 944h-178l-49 275v247h276v-247zM180 1466h277v-247l-49 -275h-179l-49 275v247z" />
    <glyph glyph-name="numbersign" unicode="#" horiz-adv-x="1196" 
d="M-12 1031h297l77 366h232l-78 -366h315l78 366h228l-78 -366h151v-228h-196l-56 -268h252v-227h-301l-78 -367h-227l76 367h-313l-76 -367h-234l78 367h-147v227h194l56 268h-250v228zM469 803l-55 -268h313l55 268h-313z" />
    <glyph glyph-name="dollar" unicode="$" horiz-adv-x="1004" 
d="M969 1217l-29 -203q-123 81 -264 114l-51 -364q147 -84 215.5 -170.5t68.5 -206.5q0 -151 -106.5 -268t-288.5 -137l-33 -234h-159l32 242q-168 26 -327 119l36 206q163 -105 320 -127l55 398q-150 81 -217 168t-67 204q0 146 102.5 252t288.5 129l10 76h160l-13 -88
q151 -34 267 -110zM477 854l39 281q-135 -42 -135 -146q0 -71 96 -135zM586 496l-41 -301q135 49 135 161q0 87 -94 140z" />
    <glyph glyph-name="percent" unicode="%" horiz-adv-x="1473" 
d="M406 1415q136 0 232.5 -96t96.5 -234q0 -135 -97 -232t-232 -97q-136 0 -233 97t-97 232q0 138 96.5 234t233.5 96zM406 932q60 0 102.5 44.5t42.5 108.5q0 63 -43 108.5t-102 45.5q-62 0 -104 -44t-42 -110q0 -61 43.5 -107t102.5 -46zM1333 1415l-977 -1431h-170
l983 1431h164zM1118 641q137 0 233.5 -96.5t96.5 -233.5q0 -135 -97 -232t-233 -97q-135 0 -232.5 97t-97.5 232q0 137 97 233.5t233 96.5zM1118 158q61 0 103.5 44.5t42.5 108.5q0 63 -43 108.5t-103 45.5q-61 0 -103 -44t-42 -110q0 -61 43 -107t102 -46z" />
    <glyph glyph-name="ampersand" unicode="&#x26;" horiz-adv-x="1493" 
d="M1139 627h270q-76 -192 -231 -353q82 -34 182 -34h86l-94 -240q-47 -18 -112 -18q-175 0 -320 110q-190 -110 -396 -110q-213 0 -353 121t-140 303q0 179 133.5 304.5t390.5 161.5q-2 32 -2 61q0 226 125.5 354t333.5 128q151 0 247.5 -83.5t96.5 -213.5
q0 -309 -496 -395q48 -184 129 -303q103 88 150 207zM827 920q149 28 228.5 75.5t79.5 126.5q0 54 -39 88.5t-101 34.5q-84 0 -132 -58.5t-48 -162.5q0 -58 12 -104zM590 664q-252 -48 -252 -234q0 -99 67.5 -163t172.5 -64q86 0 182 47q-126 200 -170 414z" />
    <glyph glyph-name="quotesingle" unicode="'" horiz-adv-x="492" 
d="M397 944h-178l-49 275v247h276v-247z" />
    <glyph glyph-name="parenleft" unicode="(" horiz-adv-x="705" 
d="M563 1415h209q-187 -236 -291 -553.5t-104 -632.5q0 -385 131 -700h-211q-207 446 -207 784q0 544 473 1102z" />
    <glyph glyph-name="parenright" unicode=")" horiz-adv-x="705" 
d="M133 -471h-209q187 236 291 553.5t104 632.5q0 385 -131 700h211q207 -446 207 -784q0 -543 -473 -1102z" />
    <glyph glyph-name="asterisk" unicode="*" horiz-adv-x="981" 
d="M673 616q5 -18 5 -32q0 -43 -59 -43h-125q-63 0 -63 41q0 15 6 34l90 291l-24 23l-203 -209q-46 -46 -66 -46q-19 0 -37 34l-57 108q-13 25 -13 44q0 37 44 46l311 68v4l-311 70q-44 11 -44 47q0 17 9 34l61 117q19 36 35 36q21 0 68 -48l203 -209l24 23l-90 290
q-6 19 -6 33q0 43 63 43h119q66 0 66 -42q0 -14 -6 -34l-91 -290l25 -23l203 209q47 47 64 47q16 0 38 -41l51 -92q20 -36 20 -58q0 -33 -44 -42l-312 -70v-4l312 -68q44 -9 44 -46q0 -21 -16 -48l-53 -96q-24 -44 -41 -44q-16 0 -47 32l-219 225l-25 -23z" />
    <glyph glyph-name="plus" unicode="+" horiz-adv-x="1196" 
d="M113 592v262h381v381h262v-381h381v-262h-381v-381h-262v381h-381z" />
    <glyph glyph-name="comma" unicode="," horiz-adv-x="532" 
d="M-92 -297l31 125q131 30 176 147q-99 56 -99 156q0 69 49.5 116.5t122.5 47.5q81 0 139 -63t58 -152q0 -150 -133.5 -263.5t-343.5 -113.5z" />
    <glyph glyph-name="hyphen" unicode="-" horiz-adv-x="705" 
d="M692 602l-41 -283h-639l39 283h641z" />
    <glyph glyph-name="period" unicode="." horiz-adv-x="532" 
d="M23 156q0 70 50.5 121t121.5 51q70 0 121 -51t51 -121q0 -71 -51 -121.5t-121 -50.5q-71 0 -121.5 50.5t-50.5 121.5z" />
    <glyph glyph-name="slash" unicode="/" horiz-adv-x="575" 
d="M37 -18l346 1433h211l-350 -1433h-207z" />
    <glyph glyph-name="zero" unicode="0" horiz-adv-x="1087" 
d="M655 1415q178 0 279.5 -139.5t101.5 -386.5q0 -340 -153.5 -623.5t-397.5 -283.5q-175 0 -277 140t-102 386q0 354 152 630.5t397 276.5zM508 242q105 0 171 266t66 463q0 89 -30 136.5t-78 47.5q-109 0 -174.5 -241.5t-65.5 -481.5q0 -190 111 -190z" />
    <glyph glyph-name="one" unicode="1" horiz-adv-x="1087" 
d="M705 0h-289l149 1026q-150 -79 -262 -108l62 256q169 55 387 241h159z" />
    <glyph glyph-name="two" unicode="2" horiz-adv-x="1087" 
d="M901 285l-39 -285h-803v45q292 383 448.5 617.5t156.5 353.5q0 59 -43 99t-107 40q-99 0 -297 -127l39 281q137 106 311 106q173 0 280 -106.5t107 -266.5q0 -133 -75.5 -277.5t-325.5 -479.5h348z" />
    <glyph glyph-name="three" unicode="3" horiz-adv-x="1087" 
d="M211 1063l39 276q172 76 332 76q187 0 304.5 -102t117.5 -262q0 -258 -234 -338q162 -85 162 -293q0 -194 -145 -316t-375 -122q-168 0 -353 88l37 266q178 -94 307 -94q94 0 160 54.5t66 131.5q0 78 -62 125t-166 47q-49 0 -106 -10l37 266q96 -22 157 -22
q97 0 160.5 49t63.5 123q0 65 -48 107t-124 42q-123 0 -330 -92z" />
    <glyph glyph-name="four" unicode="4" horiz-adv-x="1087" 
d="M979 1415l-127 -903h152l-27 -190h-152l-45 -322h-288l45 322h-478v233l689 860h231zM254 512h309l65 472z" />
    <glyph glyph-name="five" unicode="5" horiz-adv-x="1087" 
d="M995 1397l-41 -285h-366l-33 -229q189 -21 285 -129.5t96 -282.5q0 -217 -146 -353t-380 -136q-204 0 -363 104l82 260q150 -104 277 -104q104 0 171.5 58.5t67.5 148.5q0 94 -71.5 149t-194.5 55q-75 0 -158 -12l127 756h647z" />
    <glyph glyph-name="six" unicode="6" horiz-adv-x="1087" 
d="M920 1397l-353 -545l4 -4q62 24 136 24q137 0 225 -100.5t88 -259.5q0 -223 -146.5 -376.5t-357.5 -153.5q-191 0 -308.5 120t-117.5 316q0 114 40.5 225.5t148.5 274.5l315 479h326zM522 242q82 0 144.5 75t62.5 175q0 64 -36.5 103.5t-96.5 39.5q-87 0 -151 -71
t-64 -169q0 -68 39.5 -110.5t101.5 -42.5z" />
    <glyph glyph-name="seven" unicode="7" horiz-adv-x="1087" 
d="M1065 1397l-551 -1397h-305l440 1112h-459l56 285h819z" />
    <glyph glyph-name="eight" unicode="8" horiz-adv-x="1087" 
d="M776 721q201 -92 201 -311q0 -179 -135 -303.5t-328 -124.5q-189 0 -310.5 109.5t-121.5 279.5q0 122 74 237t209 146q-138 97 -138 264q0 165 127 281t308 116q160 0 266 -96.5t106 -241.5q0 -237 -258 -356zM604 856q64 0 101.5 56t37.5 135q0 47 -28.5 77.5
t-73.5 30.5q-60 0 -99.5 -59t-39.5 -138q0 -45 28 -73.5t74 -28.5zM510 242q73 0 124.5 59.5t51.5 147.5q0 65 -39 106t-100 41q-72 0 -123 -60.5t-51 -146.5q0 -66 38 -106.5t99 -40.5z" />
    <glyph glyph-name="nine" unicode="9" horiz-adv-x="1087" 
d="M219 0l354 549l-4 4q-70 -27 -133 -27q-137 0 -227 101.5t-90 257.5q0 210 138.5 370t365.5 160q194 0 309 -118.5t115 -319.5q0 -213 -175 -477l-329 -500h-324zM549 768q93 0 150 75t57 163q0 64 -41 106.5t-103 42.5q-78 0 -140 -76.5t-62 -175.5q0 -61 38 -98
t101 -37z" />
    <glyph glyph-name="colon" unicode=":" horiz-adv-x="532" 
d="M133 774q0 70 51 121t121 51t121 -51t51 -121t-51 -121t-121 -51t-121 51t-51 121zM23 156q0 70 50.5 121t121.5 51q70 0 121 -51t51 -121q0 -71 -51 -121.5t-121 -50.5q-71 0 -121.5 50.5t-50.5 121.5z" />
    <glyph glyph-name="semicolon" unicode=";" horiz-adv-x="532" 
d="M133 774q0 70 51 121t121 51t121 -51t51 -121t-51 -121t-121 -51t-121 51t-51 121zM-92 -297l31 125q131 30 176 147q-99 56 -99 156q0 69 49.5 116.5t122.5 47.5q81 0 139 -63t58 -152q0 -150 -133.5 -263.5t-343.5 -113.5z" />
    <glyph glyph-name="semicolon" unicode="&#x37e;" horiz-adv-x="532" 
d="M133 774q0 70 51 121t121 51t121 -51t51 -121t-51 -121t-121 -51t-121 51t-51 121zM-92 -297l31 125q131 30 176 147q-99 56 -99 156q0 69 49.5 116.5t122.5 47.5q81 0 139 -63t58 -152q0 -150 -133.5 -263.5t-343.5 -113.5z" />
    <glyph glyph-name="less" unicode="&#x3c;" horiz-adv-x="1196" 
d="M123 604v246l1005 436v-280l-702 -279l702 -278v-281z" />
    <glyph glyph-name="equal" unicode="=" horiz-adv-x="1196" 
d="M113 815v262h1024v-262h-1024zM113 369v262h1024v-262h-1024z" />
    <glyph glyph-name="greater" unicode="&#x3e;" horiz-adv-x="1196" 
d="M1126 604l-1005 -436v281l702 278l-702 279v280l1005 -436v-246z" />
    <glyph glyph-name="question" unicode="?" horiz-adv-x="662" 
d="M365 442h-218q0 82 37 177t138.5 209t120 152t18.5 69q0 43 -32.5 70.5t-84.5 27.5q-100 0 -266 -98l39 270q152 96 295 96q142 0 239 -95t97 -235q0 -80 -33.5 -160.5t-154 -193t-153.5 -172t-42 -117.5zM76 156q0 70 51 121t121 51t121 -51t51 -121q0 -71 -51 -121.5
t-121 -50.5t-121 50.5t-51 121.5z" />
    <glyph glyph-name="at" unicode="@" horiz-adv-x="2005" 
d="M1798 18h213q-110 -219 -337 -333.5t-541 -114.5q-446 0 -748.5 238t-302.5 663q0 422 270 721t756 299q378 0 614 -212.5t236 -551.5q0 -288 -191 -507.5t-471 -219.5q-155 0 -182 115q-114 -115 -270 -115q-170 0 -277.5 117t-107.5 303q0 250 151.5 456.5t384.5 206.5
q182 0 269 -135l24 111h264l-159 -758q-6 -26 -6 -45q0 -51 38 -51q94 0 223.5 160.5t129.5 365.5q0 247 -178 413.5t-508 166.5q-393 0 -611.5 -244t-218.5 -594q0 -338 235 -530.5t611 -192.5q479 0 690 268zM1022 903q-135 0 -220 -148t-85 -339q0 -106 49.5 -170
t130.5 -64q143 0 227 163t84 325q0 107 -51 170t-135 63z" />
    <glyph glyph-name="A" unicode="A" horiz-adv-x="1280" 
d="M944 1415l246 -1415h-305l-43 305h-434l-136 -305h-327l684 1415h315zM494 504h323l-74 618z" />
    <glyph glyph-name="B" unicode="B" horiz-adv-x="1300" 
d="M287 1397h444q228 0 346.5 -91.5t118.5 -246.5q0 -207 -203 -311q122 -37 191 -131t69 -211q0 -160 -128.5 -283t-350.5 -123h-684zM553 1163l-47 -307h201q95 0 146.5 45t51.5 121q0 141 -196 141h-156zM475 623l-59 -390h282q121 0 184.5 55t63.5 150q0 88 -70 136.5
t-190 48.5h-211z" />
    <glyph glyph-name="C" unicode="C" horiz-adv-x="1409" 
d="M1409 1364l-49 -258q-166 51 -338 51q-283 0 -439.5 -162t-156.5 -381q0 -171 108 -272.5t291 -101.5q225 0 508 163l-43 -311q-249 -110 -491 -110q-304 0 -492 177t-188 462q0 349 254 571.5t657 222.5q176 0 379 -51z" />
    <glyph glyph-name="D" unicode="D" horiz-adv-x="1536" 
d="M279 1397h464q350 0 535.5 -190t185.5 -490q0 -309 -189.5 -513t-469.5 -204h-721zM543 1163l-129 -930h278q219 0 342 137.5t123 350.5q0 196 -127 319t-344 123h-143z" />
    <glyph glyph-name="E" unicode="E" horiz-adv-x="1194" 
d="M1155 1397l-33 -234h-575l-47 -329h506l-33 -234h-506l-51 -367h725l-33 -233h-1022l197 1397h872z" />
    <glyph glyph-name="F" unicode="F" horiz-adv-x="1004" 
d="M1087 1397l-34 -234h-506l-45 -332h436l-33 -233h-436l-86 -598h-297l197 1397h804z" />
    <glyph glyph-name="G" unicode="G" horiz-adv-x="1516" 
d="M1509 1364l-34 -258q-188 51 -371 51q-310 0 -504 -149t-194 -385q0 -180 120.5 -281.5t323.5 -101.5q106 0 209 26l35 248h-256l30 221h553l-100 -712q-165 -41 -434 -41q-379 0 -584 176t-205 454q0 331 265.5 567t740.5 236q231 0 405 -51z" />
    <glyph glyph-name="H" unicode="H" horiz-adv-x="1622" 
d="M1591 1397l-196 -1397h-297l82 569h-713l-80 -569h-297l197 1397h297l-78 -553h711l77 553h297z" />
    <glyph glyph-name="I" unicode="I" horiz-adv-x="618" 
d="M586 1397l-197 -1397h-297l197 1397h297z" />
    <glyph glyph-name="J" unicode="J" horiz-adv-x="618" 
d="M590 1397l-207 -1469q-56 -399 -444 -399q-50 0 -107 6l33 232q110 0 161 49.5t68 171.5l199 1409h297z" />
    <glyph glyph-name="K" unicode="K" horiz-adv-x="1323" 
d="M1442 1397l-627 -631l543 -766h-344l-527 741l-104 -741h-297l197 1397h297l-84 -596l594 596h352z" />
    <glyph glyph-name="L" unicode="L" horiz-adv-x="1087" 
d="M575 1397l-163 -1164h635l-33 -233h-932l197 1397h296z" />
    <glyph glyph-name="M" unicode="M" horiz-adv-x="1942" 
d="M1765 1397l66 -1397h-287l-47 944l-518 -944h-141l-250 971l-316 -971h-299l455 1397h326l225 -879l471 879h315z" />
    <glyph glyph-name="N" unicode="N" horiz-adv-x="1599" 
d="M1571 1397l-195 -1397h-282l-578 946l-131 -946h-297l197 1397h297l567 -912l125 912h297z" />
    <glyph glyph-name="O" unicode="O" horiz-adv-x="1706" 
d="M944 1415q304 0 496 -178t192 -459q0 -353 -226 -574.5t-579 -221.5q-306 0 -505 183t-199 466q0 337 233.5 560.5t587.5 223.5zM829 240q207 0 351.5 151t144.5 367q0 173 -113.5 286t-287.5 113q-202 0 -348 -151t-146 -361q0 -179 111.5 -292t287.5 -113z" />
    <glyph glyph-name="P" unicode="P" horiz-adv-x="1194" 
d="M289 1397h456q205 0 333 -111.5t128 -304.5q0 -221 -137.5 -338t-368.5 -117h-235l-74 -526h-297zM555 1176l-59 -431h125q134 0 206 60t72 164q0 96 -70.5 151.5t-201.5 55.5h-72z" />
    <glyph glyph-name="Q" unicode="Q" horiz-adv-x="1706" 
d="M1419 -193l-235 -233q-98 23 -193 67q-90 43 -175 105q-82 60 -158 135l-139 157q-83 44 -132 77q-76 52 -128 112q-64 74 -98 166q-38 106 -38 238q0 337 234.5 560.5t588.5 223.5q309 0 497.5 -177t188.5 -466q0 -287 -173 -505t-490 -269q60 -73 160 -124t182 -51
q36 0 65 11zM827 240q210 0 354 152t144 362q0 169 -110 286t-289 117q-207 0 -351.5 -150.5t-144.5 -367.5q0 -177 110.5 -288t286.5 -111z" />
    <glyph glyph-name="R" unicode="R" horiz-adv-x="1323" 
d="M283 1397h479q224 0 347.5 -124.5t123.5 -295.5q0 -138 -80.5 -237t-230.5 -128v-4q84 -33 147 -164l215 -444h-328l-133 283q-89 188 -138 235t-159 47h-63l-78 -565h-297zM547 1163l-53 -381h147q135 0 210 57.5t75 145.5q0 83 -62 130.5t-172 47.5h-145z" />
    <glyph glyph-name="S" unicode="S" horiz-adv-x="1067" 
d="M1042 1305l-41 -246q-75 54 -173.5 88.5t-172.5 34.5q-84 0 -140 -43.5t-56 -110.5q0 -40 31.5 -80.5t199 -140.5t225.5 -196.5t58 -200.5q0 -185 -128 -306.5t-345 -121.5q-275 0 -475 133l45 243q90 -64 200.5 -103.5t194.5 -39.5q91 0 146 42.5t55 111.5
q0 48 -35.5 97t-204 153t-221.5 192t-53 182q0 180 140 301t351 121t399 -110z" />
    <glyph glyph-name="T" unicode="T" horiz-adv-x="1268" 
d="M1364 1397l-33 -234h-454l-164 -1163h-297l164 1163h-443l33 234h1194z" />
    <glyph glyph-name="U" unicode="U" horiz-adv-x="1536" 
d="M1532 1397l-123 -871q-76 -544 -643 -544q-299 0 -459 134.5t-160 374.5q0 53 8 111l115 795h297l-113 -791q-5 -40 -5 -75q0 -144 88 -217.5t229 -73.5q143 0 236 79.5t114 231.5l119 846h297z" />
    <glyph glyph-name="V" unicode="V" 
d="M1247 1397l-682 -1415h-145l-291 1415h283l155 -822l375 822h305z" />
    <glyph glyph-name="W" unicode="W" horiz-adv-x="1942" 
d="M2044 1397l-688 -1415h-121l-225 864l-471 -864h-123l-285 1415h281l151 -822l445 822h145l213 -822l377 822h301z" />
    <glyph glyph-name="X" unicode="X" horiz-adv-x="1386" 
d="M1520 1397l-619 -711l414 -686h-326l-280 465l-416 -465h-369l633 717l-410 680h326l279 -459l399 459h369z" />
    <glyph glyph-name="Y" unicode="Y" horiz-adv-x="1153" 
d="M1266 1397l-527 -811l-82 -586h-297l82 586l-295 811h297l181 -539l323 539h318z" />
    <glyph glyph-name="Z" unicode="Z" horiz-adv-x="1300" 
d="M1432 1397l-932 -1164h694l-33 -233h-1224l933 1163h-677l34 234h1205z" />
    <glyph glyph-name="bracketleft" unicode="[" horiz-adv-x="768" 
d="M856 1397l-33 -234h-266l-192 -1382h264l-33 -234h-533l261 1850h532z" />
    <glyph glyph-name="backslash" unicode="\" horiz-adv-x="575" 
d="M594 -18h-207l-350 1433h211z" />
    <glyph glyph-name="bracketright" unicode="]" horiz-adv-x="768" 
d="M-96 -453l33 234h266l192 1382h-264l33 234h532l-260 -1850h-532z" />
    <glyph glyph-name="asciicircum" unicode="^" horiz-adv-x="1194" 
d="M139 598l377 799h221l367 -799h-285l-196 489l-197 -489h-287z" />
    <glyph glyph-name="underscore" unicode="_" horiz-adv-x="1024" 
d="M-12 -154h1048v-102h-1048v102z" />
    <glyph glyph-name="grave" unicode="`" horiz-adv-x="682" 
d="M616 1032h-149l-363 352h330z" />
    <glyph glyph-name="a" unicode="a" 
d="M1067 915l-129 -915h-276l12 86q-130 -104 -268 -104q-141 0 -233.5 112t-92.5 287q0 250 174.5 407.5t499.5 157.5q162 0 313 -31zM700 270l62 443q-31 3 -60 3q-166 0 -250.5 -100.5t-84.5 -248.5q0 -84 36 -131.5t99 -47.5q100 0 198 82z" />
    <glyph glyph-name="b" unicode="b" horiz-adv-x="1110" 
d="M535 1397l-80 -561q127 110 252 110q147 0 246.5 -119t99.5 -299q0 -231 -159 -388.5t-439 -157.5q-219 0 -392 30l195 1385h277zM424 610l-57 -397q49 -7 93 -7q304 0 304 310q0 94 -43 149.5t-115 55.5q-93 0 -182 -111z" />
    <glyph glyph-name="c" unicode="c" horiz-adv-x="961" 
d="M924 913l-35 -249q-73 26 -102.5 33.5t-98.5 7.5q-140 0 -235 -82.5t-95 -202.5q0 -101 63.5 -157t178.5 -56q112 0 264 61l-33 -252q-140 -34 -286 -34q-209 0 -341 125.5t-132 322.5q0 218 172 367t424 149q146 0 256 -33z" />
    <glyph glyph-name="d" unicode="d" horiz-adv-x="1110" 
d="M1122 1397l-194 -1385q-177 -30 -320 -30q-247 0 -392.5 121t-145.5 325q0 215 156.5 366.5t420.5 151.5q43 0 135 -10l64 461h276zM680 217l68 483q-36 5 -70 5q-148 0 -235 -80.5t-87 -198.5q0 -101 66.5 -160t181.5 -59q30 0 76 10z" />
    <glyph glyph-name="e" unicode="e" horiz-adv-x="1044" 
d="M958 426h-608q-10 -110 50 -175t163 -65q114 0 344 95l-49 -232q-181 -67 -323 -67q-211 0 -337 123t-126 329q0 213 147 362.5t356 149.5q181 0 289.5 -107.5t108.5 -283.5q0 -62 -15 -129zM377 586h325q3 17 3 34q0 61 -37 98.5t-99 37.5q-133 0 -192 -170z" />
    <glyph glyph-name="f" unicode="f" horiz-adv-x="682" 
d="M934 1368l-31 -223q-88 45 -155 45q-183 0 -201 -260h178l-29 -205h-180l-160 -1133h-276l160 1133h-189l29 205h190q27 238 145 361.5t296 123.5q106 0 223 -47z" />
    <glyph glyph-name="g" unicode="g" horiz-adv-x="1004" 
d="M1036 930l-26 -205h-150q35 -73 35 -147q0 -143 -105 -241.5t-284 -98.5q-91 0 -129.5 -8.5t-38.5 -41.5q0 -18 25 -31.5t203.5 -42t255.5 -101.5t77 -181q0 -303 -479 -303q-220 0 -331.5 62t-111.5 167q0 137 230 209q-129 64 -129 172q0 130 188 172q-162 95 -162 269
q0 140 115 245t297 105h520zM487 410q152 0 152 200q0 62 -34.5 97.5t-94.5 35.5q-152 0 -152 -204q0 -129 129 -129zM641 -205q0 65 -131 91l-121 26q-39 0 -104.5 -26.5t-65.5 -82.5q0 -96 205 -96q115 0 166 20t51 68z" />
    <glyph glyph-name="h" unicode="h" 
d="M535 1397l-82 -574q147 123 311 123q120 0 188.5 -71.5t68.5 -199.5q0 -35 -5 -73l-84 -602h-277l84 596q7 53 -16.5 89t-69.5 36q-96 0 -231 -117l-84 -604h-277l197 1397h277z" />
    <glyph glyph-name="i" unicode="i" horiz-adv-x="532" 
d="M217 1188q0 59 42 101t101 42q60 0 102 -42t42 -101q0 -60 -42 -102t-102 -42q-59 0 -101 42t-42 102zM467 930l-131 -930h-277l131 930h277z" />
    <glyph glyph-name="j" unicode="j" horiz-adv-x="532" 
d="M209 1188q0 59 42 101t101 42q60 0 102 -42t42 -101q0 -60 -42 -102t-102 -42q-59 0 -101 42t-42 102zM461 930l-129 -914q-28 -197 -61.5 -283.5t-122 -145t-206.5 -58.5q-50 0 -98 12l33 221q77 0 115 37.5t55 157.5l137 973h277z" />
    <glyph glyph-name="k" unicode="k" horiz-adv-x="1042" 
d="M532 1397l-122 -865l335 398h342l-368 -443l358 -487h-336l-342 459l-63 -459h-277l197 1397h276z" />
    <glyph glyph-name="l" unicode="l" horiz-adv-x="532" 
d="M539 1397l-197 -1397h-276l196 1397h277z" />
    <glyph glyph-name="m" unicode="m" horiz-adv-x="1686" 
d="M465 930l-16 -119l4 -4q145 139 290 139q193 0 236 -170q176 170 338 170q128 0 201 -79.5t73 -214.5q0 -34 -6 -74l-80 -578h-276l76 535q6 42 6 76q0 130 -80 130q-98 0 -225 -145l-84 -596h-277l72 532q6 49 6 85q0 124 -86 124q-89 0 -219 -145l-84 -596h-277
l131 930h277z" />
    <glyph glyph-name="n" unicode="n" 
d="M469 930l-16 -105q155 121 317 121q122 0 187 -75.5t65 -211.5q0 -40 -6 -84l-80 -575h-277l78 555q4 24 4 48q0 138 -86 138q-99 0 -233 -143l-84 -598h-277l132 930h276z" />
    <glyph glyph-name="o" unicode="o" horiz-adv-x="1153" 
d="M608 946q203 0 332 -121.5t129 -316.5q0 -222 -152.5 -374t-375.5 -152q-198 0 -333.5 130t-135.5 318q0 211 158 363.5t378 152.5zM543 207q105 0 172 96.5t67 212.5q0 92 -51 148.5t-135 56.5q-111 0 -174.5 -99.5t-63.5 -207.5q0 -94 56 -150.5t129 -56.5z" />
    <glyph glyph-name="p" unicode="p" horiz-adv-x="1194" 
d="M567 1110l-24 -180q82 16 170 16q182 0 294.5 -111.5t112.5 -293.5q0 -233 -170 -396t-413 -163q-55 0 -125 18l-66 -471h-276l147 1055q-82 -61 -150 -151q-36 -48 -59 -48q-16 0 -16 18q0 42 62.5 152.5t189.5 214.5l47 340h276zM514 729l-70 -504q40 -18 84 -18
q146 0 226 96t80 232q0 207 -213 207q-49 0 -107 -13z" />
    <glyph glyph-name="q" unicode="q" 
d="M1067 942l-199 -1413h-276l76 534q-149 -79 -271 -79q-145 0 -234 110t-89 291q0 255 165.5 406t471.5 151h356zM694 254l64 455q-26 2 -50 2q-163 0 -257.5 -84.5t-94.5 -235.5q0 -92 44.5 -147.5t117.5 -55.5q89 0 176 66z" />
    <glyph glyph-name="r" unicode="r" horiz-adv-x="748" 
d="M455 930l-21 -133l4 -4q124 153 226 153q78 0 165 -102l-129 -256q-67 100 -131 100q-55 0 -110 -57t-58 -78l-77 -553h-277l131 930h277z" />
    <glyph glyph-name="s" unicode="s" horiz-adv-x="768" 
d="M735 862l-22 -219q-72 36 -150 57t-119 21q-61 0 -61 -41t110 -123q126 -94 162.5 -157t36.5 -126q0 -126 -97.5 -208t-250.5 -82q-159 0 -321 84l38 206q170 -65 254 -65q91 0 91 51q0 43 -121 134.5t-156 146t-35 104.5q0 133 97.5 217t250.5 84q145 0 293 -84z" />
    <glyph glyph-name="t" unicode="t" horiz-adv-x="748" 
d="M567 1126l-39 -196h205l-37 -205h-204l-54 -301q-7 -39 -7 -72q0 -123 83 -123q50 0 160 56v-244q-122 -59 -238 -59q-135 0 -212.5 85.5t-77.5 221.5q0 42 8 82l65 354h-188l35 205h188l33 196h280z" />
    <glyph glyph-name="u" unicode="u" 
d="M1066 930l-131 -930h-277l17 104q-145 -120 -301 -120q-130 0 -201 76t-71 207q0 34 5 73l84 590h277l-70 -494q-9 -63 -9 -109q0 -139 83 -139q107 0 233 136l84 606h277z" />
    <glyph glyph-name="v" unicode="v" horiz-adv-x="938" 
d="M985 930l-504 -946h-188l-238 946h269l120 -516l248 516h293z" />
    <glyph glyph-name="w" unicode="w" horiz-adv-x="1493" 
d="M1550 930l-528 -946h-178l-101 481l-268 -481h-174l-233 946h268l110 -539l279 539h166l100 -539l269 539h290z" />
    <glyph glyph-name="x" unicode="x" horiz-adv-x="1087" 
d="M1130 930l-405 -475l274 -455h-303l-151 291l-240 -291h-348l440 487l-266 443h305l139 -273l216 273h339z" />
    <glyph glyph-name="y" unicode="y" horiz-adv-x="1004" 
d="M1044 930l-675 -1401h-291l270 557l-297 844h277l182 -543l246 543h288z" />
    <glyph glyph-name="z" unicode="z" horiz-adv-x="938" 
d="M936 930l-457 -701h404l-35 -229h-846l473 700h-377l33 230h805z" />
    <glyph glyph-name="braceleft" unicode="{" horiz-adv-x="788" 
d="M59 643q111 0 165.5 67.5t54.5 237.5v162q0 193 88.5 283t285.5 90h90v-240h-12q-135 0 -164.5 -34.5t-29.5 -192.5q0 -202 -30 -305.5t-145 -184.5q115 -80 145 -183.5t30 -305.5q0 -158 29.5 -192.5t164.5 -34.5h12v-240h-90q-197 0 -285.5 90t-88.5 283v161
q0 171 -54.5 238t-165.5 68v233z" />
    <glyph glyph-name="bar" unicode="|" horiz-adv-x="575" 
d="M209 -453v1850h223v-1850h-223z" />
    <glyph glyph-name="braceright" unicode="}" horiz-adv-x="788" 
d="M729 410q-111 -1 -165 -68t-54 -238v-161q0 -193 -88.5 -283t-286.5 -90h-90v240h12q136 0 165.5 34.5t29.5 192.5q0 202 30 305.5t144 183.5q-114 81 -144 184.5t-30 305.5q0 158 -29.5 192.5t-165.5 34.5h-12v240h90q198 0 286.5 -90t88.5 -283v-162q0 -170 54 -237.5
t165 -67.5v-233z" />
    <glyph glyph-name="asciitilde" unicode="~" horiz-adv-x="1196" 
d="M59 358v269q177 147 328 147q91 0 258.5 -80t243.5 -80q124 0 299 152v-266q-65 -64 -157 -106t-167 -42q-88 0 -261 81t-232 81q-129 0 -312 -156z" />
    <glyph glyph-name="Adieresis" unicode="&#xc4;" horiz-adv-x="1280" 
d="M944 1415l246 -1415h-305l-43 305h-434l-136 -305h-327l684 1415h315zM494 504h323l-74 618zM1027 1871q67 0 113.5 -46.5t46.5 -113.5t-46.5 -114.5t-113.5 -47.5q-66 0 -114 47.5t-48 114.5t48 113.5t114 46.5zM559 1871q67 0 113.5 -46.5t45.5 -113.5
q1 -67 -45.5 -114.5t-113.5 -47.5t-114.5 47.5t-47.5 114.5q0 66 48 113t114 47z" />
    <glyph glyph-name="Aring" unicode="&#xc5;" horiz-adv-x="1280" 
d="M1190 0h-305l-43 305h-434l-136 -305h-327l681 1409q-38 51 -38 118q0 84 60 144.5t145 60.5t144.5 -60t59.5 -145q0 -76 -50 -133zM793 1640q-47 0 -80 -33.5t-33 -79.5t33.5 -79t79.5 -33q45 0 78.5 33t33.5 79t-33 79.5t-79 33.5zM817 504l-74 618l-249 -618h323z" />
    <glyph glyph-name="Ccedilla" unicode="&#xc7;" horiz-adv-x="1409" 
d="M1333 403l-43 -311q-242 -110 -532 -110l-17 -29q109 -32 109 -138q0 -83 -65 -127.5t-173 -44.5q-87 0 -141 21l21 92q40 -10 92 -10q108 0 108 65q0 62 -88 66l58 115q-251 42 -397 210t-146 419q0 359 258 576.5t653 217.5q176 0 379 -51l-49 -258q-166 51 -338 51
q-259 0 -427.5 -149.5t-168.5 -393.5q0 -173 109 -273.5t290 -100.5q225 0 508 163z" />
    <glyph glyph-name="Eacute" unicode="&#xc9;" horiz-adv-x="1194" 
d="M1155 1397l-33 -234h-575l-47 -329h506l-33 -234h-506l-51 -367h725l-33 -233h-1022l197 1397h872zM565 1491l182 352h330l-363 -352h-149z" />
    <glyph glyph-name="Ntilde" unicode="&#xd1;" horiz-adv-x="1599" 
d="M1571 1397l-195 -1397h-282l-578 946l-131 -946h-297l197 1397h297l567 -912l125 912h297zM1290 1815q1 -145 -53 -224t-148 -79q-54 0 -147 49t-119 49q-70 0 -78 -96h-131q0 301 199 301q69 0 155.5 -49.5t112.5 -49.5q64 0 78 99h131z" />
    <glyph glyph-name="Odieresis" unicode="&#xd6;" horiz-adv-x="1706" 
d="M944 1415q304 0 496 -178t192 -459q0 -353 -226 -574.5t-579 -221.5q-306 0 -505 183t-199 466q0 337 233.5 560.5t587.5 223.5zM829 240q207 0 351.5 151t144.5 367q0 173 -113.5 286t-287.5 113q-202 0 -348 -151t-146 -361q0 -179 111.5 -292t287.5 -113zM1240 1871
q67 0 113.5 -46.5t46.5 -113.5t-46.5 -114.5t-113.5 -47.5q-66 0 -114 47.5t-48 114.5t48 113.5t114 46.5zM772 1871q67 0 113.5 -46.5t45.5 -113.5q1 -67 -45.5 -114.5t-113.5 -47.5t-114.5 47.5t-47.5 114.5q0 66 48 113t114 47z" />
    <glyph glyph-name="Udieresis" unicode="&#xdc;" horiz-adv-x="1536" 
d="M1532 1397l-123 -871q-76 -544 -643 -544q-299 0 -459 134.5t-160 374.5q0 53 8 111l115 795h297l-113 -791q-5 -40 -5 -75q0 -144 88 -217.5t229 -73.5q143 0 236 79.5t114 231.5l119 846h297zM1164 1871q67 0 113.5 -46.5t46.5 -113.5t-46.5 -114.5t-113.5 -47.5
q-66 0 -114 47.5t-48 114.5t48 113.5t114 46.5zM696 1871q67 0 113.5 -46.5t45.5 -113.5q1 -67 -45.5 -114.5t-113.5 -47.5t-114.5 47.5t-47.5 114.5q0 66 48 113t114 47z" />
    <glyph glyph-name="aacute" unicode="&#xe1;" 
d="M1067 915l-129 -915h-276l12 86q-130 -104 -268 -104q-141 0 -233.5 112t-92.5 287q0 250 174.5 407.5t499.5 157.5q162 0 313 -31zM700 270l62 443q-31 3 -60 3q-166 0 -250.5 -100.5t-84.5 -248.5q0 -84 36 -131.5t99 -47.5q100 0 198 82zM463 1032l182 352h330
l-363 -352h-149z" />
    <glyph glyph-name="agrave" unicode="&#xe0;" 
d="M1067 915l-129 -915h-276l12 86q-130 -104 -268 -104q-141 0 -233.5 112t-92.5 287q0 250 174.5 407.5t499.5 157.5q162 0 313 -31zM700 270l62 443q-31 3 -60 3q-166 0 -250.5 -100.5t-84.5 -248.5q0 -84 36 -131.5t99 -47.5q100 0 198 82zM842 1032h-149l-363 352h330z
" />
    <glyph glyph-name="acircumflex" unicode="&#xe2;" 
d="M1067 915l-129 -915h-276l12 86q-130 -104 -268 -104q-141 0 -233.5 112t-92.5 287q0 250 174.5 407.5t499.5 157.5q162 0 313 -31zM700 270l62 443q-31 3 -60 3q-166 0 -250.5 -100.5t-84.5 -248.5q0 -84 36 -131.5t99 -47.5q100 0 198 82zM851 1384l120 -327h-167
l-125 186l-205 -186h-187l258 327h306z" />
    <glyph glyph-name="adieresis" unicode="&#xe4;" 
d="M1067 915l-129 -915h-276l12 86q-130 -104 -268 -104q-141 0 -233.5 112t-92.5 287q0 250 174.5 407.5t499.5 157.5q162 0 313 -31zM700 270l62 443q-31 3 -60 3q-166 0 -250.5 -100.5t-84.5 -248.5q0 -84 36 -131.5t99 -47.5q100 0 198 82zM881 1412q67 0 113.5 -46.5
t46.5 -113.5t-46.5 -114.5t-113.5 -47.5q-66 0 -114 47.5t-48 114.5t48 113.5t114 46.5zM413 1412q67 0 113.5 -46.5t45.5 -113.5q1 -67 -45.5 -114.5t-113.5 -47.5t-114.5 47.5t-47.5 114.5q0 66 48 113t114 47z" />
    <glyph glyph-name="atilde" unicode="&#xe3;" 
d="M1067 915l-129 -915h-276l12 86q-130 -104 -268 -104q-141 0 -233.5 112t-92.5 287q0 250 174.5 407.5t499.5 157.5q162 0 313 -31zM700 270l62 443q-31 3 -60 3q-166 0 -250.5 -100.5t-84.5 -248.5q0 -84 36 -131.5t99 -47.5q100 0 198 82zM985 1356q1 -145 -53 -224
t-148 -79q-54 0 -147 49t-119 49q-70 0 -78 -96h-131q0 301 199 301q69 0 155.5 -49.5t112.5 -49.5q64 0 78 99h131z" />
    <glyph glyph-name="aring" unicode="&#xe5;" 
d="M1067 915l-129 -915h-276l12 86q-130 -104 -268 -104q-141 0 -233.5 112t-92.5 287q0 250 174.5 407.5t499.5 157.5q162 0 313 -31zM700 270l62 443q-31 3 -60 3q-166 0 -250.5 -100.5t-84.5 -248.5q0 -84 36 -131.5t99 -47.5q100 0 198 82zM474 1210q0 84 60.5 144.5
t144.5 60.5t144 -60.5t60 -144.5t-60 -144t-144 -60t-144.5 60t-60.5 144zM791 1210q0 46 -33.5 79.5t-78.5 33.5q-46 0 -79.5 -33.5t-33.5 -79.5q0 -45 33.5 -78.5t79.5 -33.5q45 0 78.5 33.5t33.5 78.5z" />
    <glyph glyph-name="ccedilla" unicode="&#xe7;" horiz-adv-x="961" 
d="M864 268l-33 -252q-140 -34 -299 -34l-16 -29q109 -32 109 -138q0 -83 -65 -127.5t-173 -44.5q-87 0 -141 21l20 92q40 -10 92 -10q109 0 109 65q0 62 -88 66l57 117q-167 33 -265.5 150t-98.5 286q0 226 175 371t421 145q146 0 256 -33l-35 -249q-96 41 -201 41
q-135 0 -232.5 -80t-97.5 -205q0 -213 242 -213q112 0 264 61z" />
    <glyph glyph-name="eacute" unicode="&#xe9;" horiz-adv-x="1044" 
d="M958 426h-608q-10 -110 50 -175t163 -65q114 0 344 95l-49 -232q-181 -67 -323 -67q-211 0 -337 123t-126 329q0 213 147 362.5t356 149.5q181 0 289.5 -107.5t108.5 -283.5q0 -62 -15 -129zM377 586h325q3 17 3 34q0 61 -37 98.5t-99 37.5q-133 0 -192 -170zM420 1032
l182 352h330l-363 -352h-149z" />
    <glyph glyph-name="egrave" unicode="&#xe8;" horiz-adv-x="1044" 
d="M958 426h-608q-10 -110 50 -175t163 -65q114 0 344 95l-49 -232q-181 -67 -323 -67q-211 0 -337 123t-126 329q0 213 147 362.5t356 149.5q181 0 289.5 -107.5t108.5 -283.5q0 -62 -15 -129zM377 586h325q3 17 3 34q0 61 -37 98.5t-99 37.5q-133 0 -192 -170zM799 1032
h-149l-363 352h330z" />
    <glyph glyph-name="ecircumflex" unicode="&#xea;" horiz-adv-x="1044" 
d="M958 426h-608q-10 -110 50 -175t163 -65q114 0 344 95l-49 -232q-181 -67 -323 -67q-211 0 -337 123t-126 329q0 213 147 362.5t356 149.5q181 0 289.5 -107.5t108.5 -283.5q0 -62 -15 -129zM377 586h325q3 17 3 34q0 61 -37 98.5t-99 37.5q-133 0 -192 -170zM808 1384
l120 -327h-167l-125 186l-205 -186h-187l258 327h306z" />
    <glyph glyph-name="edieresis" unicode="&#xeb;" horiz-adv-x="1044" 
d="M958 426h-608q-10 -110 50 -175t163 -65q114 0 344 95l-49 -232q-181 -67 -323 -67q-211 0 -337 123t-126 329q0 213 147 362.5t356 149.5q181 0 289.5 -107.5t108.5 -283.5q0 -62 -15 -129zM377 586h325q3 17 3 34q0 61 -37 98.5t-99 37.5q-133 0 -192 -170zM838 1412
q67 0 113.5 -46.5t46.5 -113.5t-46.5 -114.5t-113.5 -47.5q-66 0 -114 47.5t-48 114.5t48 113.5t114 46.5zM370 1412q67 0 113.5 -46.5t45.5 -113.5q1 -67 -45.5 -114.5t-113.5 -47.5t-114.5 47.5t-47.5 114.5q0 66 48 113t114 47z" />
    <glyph glyph-name="iacute" unicode="&#xed;" horiz-adv-x="532" 
d="M467 930l-131 -930h-277l131 930h277zM199 1032l182 352h330l-363 -352h-149z" />
    <glyph glyph-name="igrave" unicode="&#xec;" horiz-adv-x="532" 
d="M467 930l-131 -930h-277l131 930h277zM465 1032h-149l-363 352h330z" />
    <glyph glyph-name="icircumflex" unicode="&#xee;" horiz-adv-x="532" 
d="M467 930l-131 -930h-277l131 930h277zM556 1384l120 -327h-167l-125 186l-205 -186h-187l258 327h306z" />
    <glyph glyph-name="idieresis" unicode="&#xef;" horiz-adv-x="532" 
d="M467 930l-131 -930h-277l131 930h277zM586 1412q67 0 113.5 -46.5t46.5 -113.5t-46.5 -114.5t-113.5 -47.5q-66 0 -114 47.5t-48 114.5t48 113.5t114 46.5zM118 1412q67 0 113.5 -46.5t45.5 -113.5q1 -67 -45.5 -114.5t-113.5 -47.5t-114.5 47.5t-47.5 114.5q0 66 48 113
t114 47z" />
    <glyph glyph-name="ntilde" unicode="&#xf1;" 
d="M469 930l-16 -105q155 121 317 121q122 0 187 -75.5t65 -211.5q0 -40 -6 -84l-80 -575h-277l78 555q4 24 4 48q0 138 -86 138q-99 0 -233 -143l-84 -598h-277l132 930h276zM985 1356q1 -145 -53 -224t-148 -79q-54 0 -147 49t-119 49q-70 0 -78 -96h-131q0 301 199 301
q69 0 155.5 -49.5t112.5 -49.5q64 0 78 99h131z" />
    <glyph glyph-name="oacute" unicode="&#xf3;" horiz-adv-x="1153" 
d="M608 946q203 0 332 -121.5t129 -316.5q0 -222 -152.5 -374t-375.5 -152q-198 0 -333.5 130t-135.5 318q0 211 158 363.5t378 152.5zM543 207q105 0 172 96.5t67 212.5q0 92 -51 148.5t-135 56.5q-111 0 -174.5 -99.5t-63.5 -207.5q0 -94 56 -150.5t129 -56.5zM473 1032
l182 352h330l-363 -352h-149z" />
    <glyph glyph-name="ograve" unicode="&#xf2;" horiz-adv-x="1153" 
d="M608 946q203 0 332 -121.5t129 -316.5q0 -222 -152.5 -374t-375.5 -152q-198 0 -333.5 130t-135.5 318q0 211 158 363.5t378 152.5zM543 207q105 0 172 96.5t67 212.5q0 92 -51 148.5t-135 56.5q-111 0 -174.5 -99.5t-63.5 -207.5q0 -94 56 -150.5t129 -56.5zM852 1032
h-149l-363 352h330z" />
    <glyph glyph-name="ocircumflex" unicode="&#xf4;" horiz-adv-x="1153" 
d="M608 946q203 0 332 -121.5t129 -316.5q0 -222 -152.5 -374t-375.5 -152q-198 0 -333.5 130t-135.5 318q0 211 158 363.5t378 152.5zM543 207q105 0 172 96.5t67 212.5q0 92 -51 148.5t-135 56.5q-111 0 -174.5 -99.5t-63.5 -207.5q0 -94 56 -150.5t129 -56.5zM861 1384
l120 -327h-167l-125 186l-205 -186h-187l258 327h306z" />
    <glyph glyph-name="odieresis" unicode="&#xf6;" horiz-adv-x="1153" 
d="M608 946q203 0 332 -121.5t129 -316.5q0 -222 -152.5 -374t-375.5 -152q-198 0 -333.5 130t-135.5 318q0 211 158 363.5t378 152.5zM543 207q105 0 172 96.5t67 212.5q0 92 -51 148.5t-135 56.5q-111 0 -174.5 -99.5t-63.5 -207.5q0 -94 56 -150.5t129 -56.5zM891 1412
q67 0 113.5 -46.5t46.5 -113.5t-46.5 -114.5t-113.5 -47.5q-66 0 -114 47.5t-48 114.5t48 113.5t114 46.5zM423 1412q67 0 113.5 -46.5t45.5 -113.5q1 -67 -45.5 -114.5t-113.5 -47.5t-114.5 47.5t-47.5 114.5q0 66 48 113t114 47z" />
    <glyph glyph-name="otilde" unicode="&#xf5;" horiz-adv-x="1153" 
d="M608 946q203 0 332 -121.5t129 -316.5q0 -222 -152.5 -374t-375.5 -152q-198 0 -333.5 130t-135.5 318q0 211 158 363.5t378 152.5zM543 207q105 0 172 96.5t67 212.5q0 92 -51 148.5t-135 56.5q-111 0 -174.5 -99.5t-63.5 -207.5q0 -94 56 -150.5t129 -56.5zM995 1356
q1 -145 -53 -224t-148 -79q-54 0 -147 49t-119 49q-70 0 -78 -96h-131q0 301 199 301q69 0 155.5 -49.5t112.5 -49.5q64 0 78 99h131z" />
    <glyph glyph-name="uacute" unicode="&#xfa;" 
d="M1066 930l-131 -930h-277l17 104q-145 -120 -301 -120q-130 0 -201 76t-71 207q0 34 5 73l84 590h277l-70 -494q-9 -63 -9 -109q0 -139 83 -139q107 0 233 136l84 606h277zM468 1032l182 352h330l-363 -352h-149z" />
    <glyph glyph-name="ugrave" unicode="&#xf9;" 
d="M1066 930l-131 -930h-277l17 104q-145 -120 -301 -120q-130 0 -201 76t-71 207q0 34 5 73l84 590h277l-70 -494q-9 -63 -9 -109q0 -139 83 -139q107 0 233 136l84 606h277zM765 1032h-149l-363 352h330z" />
    <glyph glyph-name="ucircumflex" unicode="&#xfb;" 
d="M1066 930l-131 -930h-277l17 104q-145 -120 -301 -120q-130 0 -201 76t-71 207q0 34 5 73l84 590h277l-70 -494q-9 -63 -9 -109q0 -139 83 -139q107 0 233 136l84 606h277zM856 1384l120 -327h-167l-125 186l-205 -186h-187l258 327h306z" />
    <glyph glyph-name="udieresis" unicode="&#xfc;" 
d="M1066 930l-131 -930h-277l17 104q-145 -120 -301 -120q-130 0 -201 76t-71 207q0 34 5 73l84 590h277l-70 -494q-9 -63 -9 -109q0 -139 83 -139q107 0 233 136l84 606h277zM886 1412q67 0 113.5 -46.5t46.5 -113.5t-46.5 -114.5t-113.5 -47.5q-66 0 -114 47.5t-48 114.5
t48 113.5t114 46.5zM418 1412q67 0 113.5 -46.5t45.5 -113.5q1 -67 -45.5 -114.5t-113.5 -47.5t-114.5 47.5t-47.5 114.5q0 66 48 113t114 47z" />
    <glyph glyph-name="dagger" unicode="&#x2020;" horiz-adv-x="1087" 
d="M526 866q-20 171 -20 281q0 268 168 268q58 0 93.5 -41t35.5 -112q0 -129 -129 -398q178 82 268 82q60 0 93.5 -36t33.5 -93q0 -62 -44.5 -101.5t-123.5 -39.5q-112 0 -252 74l-8 -637q-2 -170 -31.5 -329t-80 -207t-99.5 -48q-67 0 -105 53.5t-38 147.5q0 212 225 1020
q-183 -74 -270 -74q-62 0 -101 40t-39 91q0 59 44 99t116 40q117 0 264 -80z" />
    <glyph glyph-name="degree" unicode="&#xb0;" horiz-adv-x="811" 
d="M469 1491q131 0 225 -94t94 -226q0 -131 -94 -225t-225 -94t-225 94t-94 225q0 132 94 226t225 94zM469 1028q60 0 101.5 42t41.5 101q0 60 -41.5 102t-101.5 42t-101.5 -42t-41.5 -102q0 -59 41.5 -101t101.5 -42z" />
    <glyph glyph-name="cent" unicode="&#xa2;" horiz-adv-x="961" 
d="M948 1296l-117 -362q64 -10 91 -16l-37 -248q-73 29 -121 35l-150 -484q134 11 256 80l-39 -274q-123 -45 -292 -45l-117 -365h-135l121 383q-158 36 -248 152t-90 272q0 220 172.5 371t425.5 151h37l110 350h133zM483 238l146 469q-124 -18 -196.5 -95.5t-72.5 -183.5
q0 -137 123 -190z" />
    <glyph glyph-name="sterling" unicode="&#xa3;" horiz-adv-x="1110" 
d="M1061 1358l-27 -252q-77 49 -141 49q-142 0 -209 -221l-55 -182h174l-37 -217h-203l-80 -269q58 10 109 10q39 0 120.5 -17t143.5 -17q117 0 205 51l-53 -283q-62 -28 -138 -28q-74 0 -211 23.5t-251 23.5q-50 0 -92 -4.5t-85 -17.5l-90 -25h-26l161 553h-153l31 217h188
l41 139q155 524 475 524q118 0 203 -57z" />
    <glyph glyph-name="section" unicode="&#xa7;" 
d="M1075 1094l-246 -43q-4 139 -145 139q-60 0 -97.5 -30.5t-37.5 -78.5q0 -36 30 -76t190 -150t215.5 -203.5t55.5 -188.5q0 -125 -60 -211t-192 -158q84 -119 84 -223q0 -145 -113 -243.5t-313 -98.5q-385 0 -395 326l234 63q13 -151 157 -151q65 0 104.5 29.5t39.5 78.5
q0 40 -32 84t-194 158t-217 207t-55 188q0 226 270 356q-77 118 -77 219q0 149 117.5 238.5t314.5 89.5q353 0 362 -321zM494 725q-142 -85 -142 -184q0 -83 105 -159.5t196 -148.5q127 72 127 187q0 49 -32 99t-129 117t-125 89z" />
    <glyph glyph-name="bullet" unicode="&#x2022;" horiz-adv-x="725" 
d="M90 698q0 123 86.5 209t208.5 86t208.5 -86t86.5 -209q0 -122 -86.5 -208.5t-208.5 -86.5t-208.5 86.5t-86.5 208.5z" />
    <glyph glyph-name="paragraph" unicode="&#xb6;" 
d="M635 -472h-244v1046q-185 15 -289 121t-104 285q0 196 119.5 306.5t326.5 110.5h684v-262h-112v-1607h-244v1607h-137v-1607z" />
    <glyph glyph-name="germandbls" unicode="&#xdf;" 
d="M55 0l125 889q29 201 73.5 300.5t149.5 162.5t250 63q182 0 290 -96t108 -256q0 -224 -213 -299q194 -97 194 -326q0 -196 -125 -326t-313 -130q-66 0 -117 16l31 221q33 -12 63 -12q81 0 130 74t49 198q0 87 -45 143t-113 56h-21l29 203h14q77 0 125.5 49.5t48.5 126.5
q0 67 -41 110t-104 43q-72 0 -113.5 -54t-72.5 -275l-125 -881h-277z" />
    <glyph glyph-name="registered" unicode="&#xae;" horiz-adv-x="1516" 
d="M758 1415q318 0 542 -224t224 -542t-224 -542t-542 -224q-319 0 -542.5 223.5t-223.5 542.5q0 318 223.5 542t542.5 224zM758 1263q-256 0 -435.5 -179t-179.5 -435t179.5 -436t435.5 -180q255 0 435.5 180t180.5 436t-180 435t-436 179zM1118 239h-203l-65 134
q-33 67 -76.5 120t-72.5 66.5t-95 13.5h-31v-334h-163v814h401q118 0 187 -60t69 -168q0 -195 -219 -227v-4q50 -18 81.5 -51.5t92.5 -139.5zM575 702h170q150 0 150 113q0 111 -168 111h-152v-224z" />
    <glyph glyph-name="copyright" unicode="&#xa9;" horiz-adv-x="1516" 
d="M758 1415q318 0 542 -224t224 -542t-224 -542t-542 -224q-319 0 -542.5 223.5t-223.5 542.5q0 318 223.5 542t542.5 224zM758 1263q-256 0 -435.5 -179t-179.5 -435t179.5 -436t435.5 -180q255 0 435.5 180t180.5 436t-180 435t-436 179zM942 536l162 -55
q-81 -258 -336 -258q-179 0 -283 115t-104 305q0 197 103.5 314.5t285.5 117.5q248 0 334 -244l-162 -39q-52 140 -178 140q-207 0 -207 -283q0 -130 51.5 -207.5t147.5 -77.5q137 0 186 172z" />
    <glyph glyph-name="trademark" unicode="&#x2122;" horiz-adv-x="2048" 
d="M469 578v676h-252v143h664v-143h-246v-676h-166zM979 578v819h260l152 -565l147 565h260v-819h-158v653l-178 -653h-149l-176 653v-653h-158z" />
    <glyph glyph-name="acute" unicode="&#xb4;" horiz-adv-x="682" 
d="M238 1032l182 352h330l-363 -352h-149z" />
    <glyph glyph-name="dieresis" unicode="&#xa8;" horiz-adv-x="682" 
d="M656 1412q67 0 113.5 -46.5t46.5 -113.5t-46.5 -114.5t-113.5 -47.5q-66 0 -114 47.5t-48 114.5t48 113.5t114 46.5zM188 1412q67 0 113.5 -46.5t45.5 -113.5q1 -67 -45.5 -114.5t-113.5 -47.5t-114.5 47.5t-47.5 114.5q0 66 48 113t114 47z" />
    <glyph glyph-name="notequal" unicode="&#x2260;" horiz-adv-x="1124" 
d="M1106 279h-621l-184 -330l-100 57l151 273h-321v112h385l157 285h-542v112h606l186 336l101 -57l-156 -279h338v-112h-399l-160 -285h559v-112z" />
    <glyph glyph-name="AE" unicode="&#xc6;" horiz-adv-x="2028" 
d="M1995 1397l-27 -234h-637l-45 -327h563l-34 -234h-562l-53 -369h795l-39 -233h-1086l50 346h-490l-221 -346h-342l897 1397h1231zM1038 1190h-71l-406 -637h387z" />
    <glyph glyph-name="Oslash" unicode="&#xd8;" horiz-adv-x="1706" 
d="M408 98l-187 -207l-96 91l178 198q-180 184 -180 451q0 337 233.5 560.5t587.5 223.5q213 0 379 -94l117 131l139 -55l-141 -156q194 -184 194 -463q0 -353 -226 -574.5t-579 -221.5q-235 0 -419 116zM500 401l630 705q-99 51 -206 51q-202 0 -348 -151t-146 -361
q0 -144 70 -244zM1237 1018l-641 -711q106 -67 233 -67q207 0 351.5 151t144.5 367q0 146 -88 260z" />
    <glyph glyph-name="infinity" unicode="&#x221e;" horiz-adv-x="1460" 
d="M761 843q74 121 151 174.5t172 53.5q132 0 219.5 -93.5t87.5 -255.5t-87.5 -255.5t-219.5 -93.5q-94 0 -171 53t-152 175q-60 -84 -138 -128t-149 -44q-101 0 -171.5 78.5t-70.5 214.5t70.5 214t171.5 78q71 0 149 -44t138 -127zM854 724q84 -129 118 -158
q53 -45 115 -45q76 0 117 59t41 146q0 94 -45 146t-110 52q-51 0 -102.5 -36t-133.5 -164zM675 726q-100 141 -190 141q-46 0 -79.5 -37t-33.5 -103q0 -68 33 -106t80 -38q39 0 70 21q54 36 120 122z" />
    <glyph glyph-name="plusminus" unicode="&#xb1;" horiz-adv-x="1196" 
d="M113 737v262h381v381h262v-381h381v-262h-381v-381h-262v381h-381zM113 0v262h1024v-262h-1024z" />
    <glyph glyph-name="lessequal" unicode="&#x2264;" horiz-adv-x="1124" 
d="M1077 240l-1018 471v127l1018 471v-127l-887 -408l887 -407v-127zM1077 0h-1018v112h1018v-112z" />
    <glyph glyph-name="greaterequal" unicode="&#x2265;" horiz-adv-x="1124" 
d="M1077 711l-1018 -471v127l887 407l-887 408v127l1018 -471v-127zM1077 0h-1018v112h1018v-112z" />
    <glyph glyph-name="yen" unicode="&#xa5;" 
d="M596 0h-283l58 279h-373l39 192h375l26 127h-372l40 193h271l-201 675h289l149 -628l373 628h328l-465 -675h280l-40 -193h-369l-27 -127h369l-39 -192h-371z" />
    <glyph glyph-name="mu1" unicode="&#xb5;" horiz-adv-x="1260" 
d="M293 930h272l-121 -506q-12 -50 -12 -93q0 -165 174 -165q186 0 242 227l131 537h272l-223 -930h-246l23 86l-4 4q-98 -108 -226 -108q-152 0 -208 120h-5l-110 -460h-272z" />
    <glyph glyph-name="partialdiff" unicode="&#x2202;" horiz-adv-x="1012" 
d="M439 1123l-137 84q52 142 150.5 213t219.5 71q145 0 234 -100q131 -145 131 -448q0 -261 -83 -506t-230 -353.5t-309 -108.5q-138 0 -224.5 92t-86.5 262q0 158 87 303t266 230t429 80q-1 200 -74 296q-54 71 -145 71q-69 0 -120.5 -39.5t-107.5 -146.5zM874 758
q-29 1 -44 1q-137 0 -255.5 -55.5t-180 -158.5t-61.5 -207q0 -78 42 -125.5t99 -47.5q119 0 217 115q141 165 183 478z" />
    <glyph glyph-name="summation" unicode="&#x2211;" horiz-adv-x="1460" 
d="M139 1491h1237v-164h-988l607 -775l-649 -822h1040v-161h-1264v187l620 788l-603 772v175z" />
    <glyph glyph-name="product" unicode="&#x220f;" horiz-adv-x="1686" 
d="M161 1491h1362v-1922h-191v1748h-978v-1748h-193v1922z" />
    <glyph glyph-name="pi" unicode="&#xf006;" horiz-adv-x="1124" 
d="M209 1063h996l-58 -201h-99l-261 -862h-286l258 858h-210l-260 -858h-289l261 856h-112z" />
    <glyph glyph-name="integral" unicode="&#x222b;" horiz-adv-x="561" 
d="M602 1760q0 -39 -29.5 -64t-75.5 -25q-37 0 -60 25t-44 25q-18 0 -27.5 -14.5t-9.5 -43.5q0 -34 19.5 -256t19.5 -551q0 -505 -30 -709.5t-79 -282.5q-26 -41 -67.5 -62t-85.5 -21q-49 0 -86 35t-37 85q0 38 25.5 65t64.5 27q34 0 65.5 -33t44.5 -33q25 0 39.5 44.5
t14.5 153.5q0 37 -6 197t-6 562q0 481 17 638.5t41 215.5q29 70 69 104t84 34q57 0 98 -32.5t41 -83.5z" />
    <glyph glyph-name="ordfeminine" unicode="&#xaa;" horiz-adv-x="748" 
d="M803 1397l-90 -553h-191l6 37q-72 -45 -159 -45q-96 0 -157.5 67.5t-61.5 173.5q0 156 118.5 247t325.5 91q111 0 209 -18zM547 1012l35 254h-37q-87 0 -142 -53t-55 -144q0 -96 78 -96q58 0 121 39z" />
    <glyph glyph-name="ordmasculine" unicode="&#xba;" horiz-adv-x="768" 
d="M502 1415q133 0 219 -74.5t86 -189.5q0 -133 -100.5 -224t-247.5 -91q-132 0 -223 77.5t-91 190.5q0 127 105 219t252 92zM459 981q57 0 100 51.5t43 122.5q0 52 -29.5 83.5t-78.5 31.5q-59 0 -101.5 -52t-42.5 -124q0 -48 31.5 -80.5t77.5 -32.5z" />
    <glyph glyph-name="Ohm" unicode="&#x2126;" horiz-adv-x="1573" 
d="M462 206q-116 49 -185 112q-101 90 -150.5 216t-49.5 277q0 310 191.5 501t508.5 191q233 0 389.5 -79t250 -244.5t93.5 -366.5q0 -202 -93.5 -360.5t-288.5 -244.5l330 23h72v-231h-642v243q97 47 153 105q76 80 114.5 194.5t38.5 241.5q0 247 -114.5 373.5
t-292.5 126.5q-170 0 -284.5 -129.5t-114.5 -365.5q0 -136 43.5 -253t124.5 -198q52 -52 144 -95v-243h-645v230h98z" />
    <glyph glyph-name="ae" unicode="&#xe6;" horiz-adv-x="1409" 
d="M1329 424h-571q-3 -19 -3 -37q0 -92 61.5 -146.5t158.5 -54.5q104 0 305 88l-31 -221q-137 -71 -329 -71q-201 0 -347 141q-161 -141 -323 -141q-115 0 -189.5 65.5t-74.5 163.5q0 268 518 346q12 48 12 80q0 84 -94 84q-85 0 -277 -88l33 227q143 86 297 86
q146 0 238 -86q114 86 262 86q157 0 265 -107.5t108 -275.5q0 -67 -19 -139zM772 584h318q2 17 2 34q0 57 -34.5 90t-94.5 33q-138 0 -191 -157zM444 207l33 180q-217 -35 -217 -145q0 -76 74 -76q45 0 110 41z" />
    <glyph glyph-name="oslash" unicode="&#xf8;" horiz-adv-x="1153" 
d="M283 55l-133 -157l-76 67l129 152q-131 133 -131 313q0 211 158 363.5t378 152.5q144 0 248 -61l127 149l78 -63l-123 -144q131 -123 131 -319q0 -222 -152.5 -374t-375.5 -152q-141 0 -258 73zM377 322l317 372q-35 27 -98 27q-111 0 -174.5 -99.5t-63.5 -207.5
q0 -55 19 -92zM762 618l-320 -378q47 -33 101 -33q105 0 172 96.5t67 212.5q0 50 -20 102z" />
    <glyph glyph-name="questiondown" unicode="&#xbf;" horiz-adv-x="662" 
d="M289 503h218q0 -82 -37 -177t-138.5 -209t-120 -152t-18.5 -69q0 -43 32.5 -70.5t84.5 -27.5q100 0 266 98l-39 -270q-152 -96 -295 -96q-142 0 -239 95t-97 235q0 80 33.5 160.5t154 193t153.5 172t42 117.5zM578 789q0 -70 -51 -121t-121 -51t-121 51t-51 121
q0 71 51 121.5t121 50.5t121 -50.5t51 -121.5z" />
    <glyph glyph-name="exclamdown" unicode="&#xa1;" horiz-adv-x="532" 
d="M218 507h164l-35 -623q-10 -203 -53.5 -279.5t-128.5 -76.5q-61 0 -96 40t-35 109q0 90 37 238zM509 787q0 -70 -51 -121t-121 -51t-121 51t-51 121q0 71 51 121.5t121 50.5t121 -50.5t51 -121.5z" />
    <glyph glyph-name="logicalnot" unicode="&#xac;" horiz-adv-x="1196" 
d="M872 248v436h-759v262h1022v-698h-263z" />
    <glyph glyph-name="radical" unicode="&#x221a;" horiz-adv-x="1124" 
d="M1055 1868l-307 -1946l-498 1028l-197 -96l-33 68l299 147l404 -825l260 1634z" />
    <glyph glyph-name="florin" unicode="&#x192;" 
d="M276 850l37 211h201l31 170q25 145 101 202.5t224 57.5h9q135 0 264 -41l-56 -225q-91 26 -157 26q-57 0 -84 -24.5t-49 -165.5h207l-37 -211h-205l-174 -993q-28 -164 -104 -225.5t-224 -61.5t-280 39l57 221q97 -20 170 -20q67 0 86 38t35 129l149 873h-201z" />
    <glyph glyph-name="approxequal" unicode="&#x2248;" horiz-adv-x="1124" 
d="M1076 880q-147 -143 -291 -143q-63 0 -124 25t-144 70q-121 65 -185 65q-136 0 -281 -151v256q150 141 298 141q90 0 248 -84q139 -75 208 -75q123 0 271 150v-254zM1076 398q-147 -144 -291 -144q-63 0 -124 25t-144 70q-121 66 -185 66q-136 0 -281 -151v255
q150 142 298 142q90 0 248 -85q139 -75 208 -75q123 0 271 150v-253z" />
    <glyph glyph-name="Delta" unicode="&#x2206;" horiz-adv-x="1253" 
d="M668 1409l577 -1409h-1233zM594 1059l-447 -959h844z" />
    <glyph glyph-name="guillemotleft" unicode="&#xab;" horiz-adv-x="1110" 
d="M1171 944l-335 -471l137 -473h-232l-149 522l309 422h270zM612 944l-336 -471l138 -473h-232l-149 522l309 422h270z" />
    <glyph glyph-name="guillemotright" unicode="&#xbb;" horiz-adv-x="1110" 
d="M498 0l336 471l-138 473h232l149 -522l-309 -422h-270zM-61 0l335 471l-137 473h232l149 -522l-309 -422h-270z" />
    <glyph glyph-name="ellipsis" unicode="&#x2026;" horiz-adv-x="2048" 
d="M1645 338q73 0 125.5 -52.5t52.5 -125.5q0 -74 -52.5 -126t-125.5 -52q-74 0 -126.5 52t-52.5 126q0 73 52.5 125.5t126.5 52.5zM963 338q73 0 125.5 -52.5t52.5 -125.5q0 -74 -52.5 -126t-125.5 -52q-74 0 -126.5 52t-52.5 126q0 73 52.5 125.5t126.5 52.5zM281 338
q73 0 125.5 -52.5t52.5 -125.5q0 -74 -52.5 -126t-125.5 -52q-74 0 -126.5 52t-52.5 126q0 73 52.5 125.5t126.5 52.5z" />
    <glyph glyph-name="nonbreakingspace" unicode="&#xa0;" horiz-adv-x="569" 
 />
    <glyph glyph-name="Agrave" unicode="&#xc0;" horiz-adv-x="1280" 
d="M944 1415l246 -1415h-305l-43 305h-434l-136 -305h-327l684 1415h315zM494 504h323l-74 618zM987 1491h-149l-363 352h330z" />
    <glyph glyph-name="Atilde" unicode="&#xc3;" horiz-adv-x="1280" 
d="M944 1415l246 -1415h-305l-43 305h-434l-136 -305h-327l684 1415h315zM494 504h323l-74 618zM1131 1815q1 -145 -53 -224t-148 -79q-54 0 -147 49t-119 49q-70 0 -78 -96h-131q0 301 199 301q69 0 155.5 -49.5t112.5 -49.5q64 0 78 99h131z" />
    <glyph glyph-name="Otilde" unicode="&#xd5;" horiz-adv-x="1706" 
d="M944 1415q304 0 496 -178t192 -459q0 -353 -226 -574.5t-579 -221.5q-306 0 -505 183t-199 466q0 337 233.5 560.5t587.5 223.5zM829 240q207 0 351.5 151t144.5 367q0 173 -113.5 286t-287.5 113q-202 0 -348 -151t-146 -361q0 -179 111.5 -292t287.5 -113zM1344 1815
q1 -145 -53 -224t-148 -79q-54 0 -147 49t-119 49q-70 0 -78 -96h-131q0 301 199 301q69 0 155.5 -49.5t112.5 -49.5q64 0 78 99h131z" />
    <glyph glyph-name="OE" unicode="&#x152;" horiz-adv-x="2154" 
d="M2128 1397l-33 -234h-579l-46 -327h531l-33 -234h-530l-54 -369h744l-33 -233h-1329q-304 0 -484 169.5t-180 451.5q0 312 221.5 544t596.5 232h1208zM1219 1163h-232q-271 0 -424 -144.5t-153 -387.5q0 -398 430 -398h247z" />
    <glyph glyph-name="oe" unicode="&#x153;" horiz-adv-x="1622" 
d="M1544 428h-581q-5 -26 -5 -49q0 -172 222 -172q143 0 323 74l-49 -228q-151 -71 -311 -71q-198 0 -342 116q-151 -116 -301 -116q-178 0 -299 130.5t-121 323.5q0 215 141.5 362.5t345.5 147.5q167 0 293 -119q148 119 320 119q162 0 271 -108t109 -280q0 -63 -16 -130z
M983 584h317q3 17 3 33q0 124 -132 124q-133 0 -188 -157zM500 207q92 0 145 101t53 241q0 77 -38.5 124.5t-100.5 47.5q-79 0 -135.5 -94t-56.5 -230q0 -88 36 -139t97 -51z" />
    <glyph glyph-name="endash" unicode="&#x2013;" horiz-adv-x="1024" 
d="M1036 610v-274h-1048v274h1048z" />
    <glyph glyph-name="emdash" unicode="&#x2014;" horiz-adv-x="2048" 
d="M2060 610v-274h-2072v274h2072z" />
    <glyph glyph-name="quotedblleft" unicode="&#x201c;" horiz-adv-x="1004" 
d="M1114 1415l-31 -125q-131 -30 -176 -147q99 -55 99 -156q0 -69 -49.5 -116.5t-122.5 -47.5q-81 0 -139 63.5t-58 151.5q0 151 133.5 264t343.5 113zM586 1415l-31 -125q-132 -30 -176 -147q98 -55 98 -156q0 -69 -49.5 -116.5t-122.5 -47.5q-81 0 -138.5 63.5
t-57.5 151.5q0 151 133.5 264t343.5 113z" />
    <glyph glyph-name="quotedblright" unicode="&#x201d;" horiz-adv-x="1004" 
d="M604 823l31 125q131 30 176 148q-98 55 -98 155q0 69 49.5 116.5t122.5 47.5q81 0 138.5 -63t57.5 -152q0 -150 -133.5 -263.5t-343.5 -113.5zM78 823l31 125q131 30 176 148q-99 55 -99 155q0 69 49.5 116.5t122.5 47.5q81 0 139 -63t58 -152q0 -150 -133.5 -263.5
t-343.5 -113.5z" />
    <glyph glyph-name="quoteleft" unicode="&#x2018;" horiz-adv-x="532" 
d="M614 1415l-30 -125q-132 -30 -176 -147q98 -55 98 -156q0 -69 -49.5 -116.5t-122.5 -47.5q-81 0 -139 63.5t-58 151.5q0 151 134 264t343 113z" />
    <glyph glyph-name="quoteright" unicode="&#x2019;" horiz-adv-x="532" 
d="M98 823l31 125q132 30 176 148q-98 55 -98 155q0 69 49.5 116.5t122.5 47.5q81 0 138.5 -63t57.5 -152q0 -150 -133.5 -263.5t-343.5 -113.5z" />
    <glyph glyph-name="divide" unicode="&#xf7;" horiz-adv-x="1196" 
d="M475 1126q0 62 44.5 106t105.5 44t105 -44t44 -106q0 -61 -44 -105t-105 -44t-105.5 44t-44.5 105zM113 592v262h1024v-262h-1024zM475 319q0 62 44.5 106t105.5 44t105 -44t44 -106q0 -61 -44 -105t-105 -44t-105.5 44t-44.5 105z" />
    <glyph glyph-name="lozenge" unicode="&#x25ca;" horiz-adv-x="1012" 
d="M962 763l-397 -763h-122l-397 763l397 763h122zM839 763l-335 652l-335 -652l335 -652z" />
    <glyph glyph-name="ydieresis" unicode="&#xff;" horiz-adv-x="1004" 
d="M1044 930l-675 -1401h-291l270 557l-297 844h277l182 -543l246 543h288zM818 1412q67 0 113.5 -46.5t46.5 -113.5t-46.5 -114.5t-113.5 -47.5q-66 0 -114 47.5t-48 114.5t48 113.5t114 46.5zM350 1412q67 0 113.5 -46.5t45.5 -113.5q1 -67 -45.5 -114.5t-113.5 -47.5
t-114.5 47.5t-47.5 114.5q0 66 48 113t114 47z" />
    <glyph glyph-name="Ydieresis" unicode="&#x178;" horiz-adv-x="1153" 
d="M1266 1397l-527 -811l-82 -586h-297l82 586l-295 811h297l181 -539l323 539h318zM963 1871q67 0 113.5 -46.5t46.5 -113.5t-46.5 -114.5t-113.5 -47.5q-66 0 -114 47.5t-48 114.5t48 113.5t114 46.5zM495 1871q67 0 113.5 -46.5t45.5 -113.5q1 -67 -45.5 -114.5
t-113.5 -47.5t-114.5 47.5t-47.5 114.5q0 66 48 113t114 47z" />
    <glyph glyph-name="fraction" unicode="&#x2215;" horiz-adv-x="385" 
d="M772 1415l-981 -1470h-180l981 1470h180z" />
    <glyph glyph-name="Euro" unicode="&#x20ac;" horiz-adv-x="1178" 
d="M565 920h545l-31 -158h-563q-14 -72 -14 -123h561l-31 -158h-522q25 -134 88 -198t174 -64q154 0 340 103l-27 -273q-159 -67 -337 -67q-454 0 -531 499h-176l29 158h137q0 19 8 123h-174l29 158h182q165 495 668 495q115 0 262 -24l-37 -238q-114 25 -207 25
q-256 0 -373 -258z" />
    <glyph glyph-name="guilsinglleft" unicode="&#x2039;" horiz-adv-x="555" 
d="M610 944l-336 -471l138 -473h-232l-149 522l309 422h270z" />
    <glyph glyph-name="guilsinglright" unicode="&#x203a;" horiz-adv-x="555" 
d="M-43 0l336 471l-137 473h231l150 -522l-310 -422h-270z" />
    <glyph glyph-name="fi" unicode="&#xfb01;" horiz-adv-x="1194" 
d="M707 930l-29 -205h-168l-158 -1133h-276l157 1133h-157l28 205h160q21 238 153 361.5t333 123.5q168 0 289 -101.5t110 -273.5h-277q-17 134 -139 134q-78 0 -130.5 -64t-63.5 -180h168zM1133 930l-132 -930h-276l131 930h277z" />
    <glyph glyph-name="fl" unicode="&#xfb02;" horiz-adv-x="1194" 
d="M709 930l-29 -205h-170l-160 -1133h-274l157 1133h-157l28 205h158q36 280 174.5 382.5t296.5 102.5q63 0 115 -18l-33 -232q-42 25 -80 25q-74 0 -130 -67t-66 -193h170zM1198 1397l-197 -1397h-276l197 1397h276z" />
    <glyph glyph-name="daggerdbl" unicode="&#x2021;" horiz-adv-x="1044" 
d="M629 809q-17 -68 -17 -158q0 -94 17 -176q-86 -164 -105 -340q169 88 262 88q64 0 102 -35.5t38 -101.5q0 -51 -35.5 -90t-95.5 -39q-101 0 -271 102q-2 -61 19.5 -169.5t21.5 -163.5q0 -93 -45 -145t-110 -52q-61 0 -102.5 45.5t-41.5 114.5q0 87 68.5 215t75.5 157
q-192 -104 -283 -104q-61 0 -98 37.5t-37 95.5q0 56 39.5 95.5t107.5 39.5q104 0 281 -90q6 78 6 136q0 105 -23 202q101 209 121 340q-149 -96 -262 -96q-67 0 -105 40.5t-38 98.5q0 55 35 91t96 36q89 0 274 -100q3 48 -20 174t-23 168q0 79 48.5 134.5t109.5 55.5
q64 0 103.5 -44.5t39.5 -110.5q0 -77 -64 -196.5t-79 -180.5q196 100 283 100q60 0 95.5 -37.5t35.5 -91.5q0 -63 -40 -101t-98 -38q-84 0 -286 94z" />
    <glyph glyph-name="periodcentered" unicode="&#x2219;" horiz-adv-x="532" 
d="M299 887q73 0 125.5 -52.5t52.5 -125.5q0 -74 -52.5 -126.5t-125.5 -52.5t-125.5 52.5t-52.5 126.5q0 73 52.5 125.5t125.5 52.5z" />
    <glyph glyph-name="quotesinglbase" unicode="&#x201a;" horiz-adv-x="532" 
d="M-92 -297l31 125q131 30 176 147q-99 56 -99 156q0 69 49.5 116.5t122.5 47.5q81 0 139 -63t58 -152q0 -150 -133.5 -263.5t-343.5 -113.5z" />
    <glyph glyph-name="quotedblbase" unicode="&#x201e;" horiz-adv-x="1004" 
d="M381 -297l31 125q131 30 176 147q-99 56 -99 156q0 69 49.5 116.5t123.5 47.5q80 0 138 -63t58 -152q0 -150 -133.5 -263.5t-343.5 -113.5zM-84 -297l31 125q131 30 176 147q-98 56 -98 156q0 69 49.5 116.5t122.5 47.5q80 0 138 -63t58 -152q0 -150 -133.5 -263.5
t-343.5 -113.5z" />
    <glyph glyph-name="perthousand" unicode="&#x2030;" horiz-adv-x="2218" 
d="M401 1415q137 0 233.5 -96t96.5 -234q0 -135 -97 -232t-233 -97q-135 0 -232 97t-97 232q0 138 96.5 234t232.5 96zM401 932q61 0 103.5 44.5t42.5 108.5q0 63 -43 108.5t-103 45.5q-61 0 -103 -44t-42 -110q0 -61 43 -107t102 -46zM1329 1415l-977 -1431h-170l983 1431
h164zM1870 641q136 0 233 -96.5t97 -233.5q0 -135 -97.5 -232t-232.5 -97q-136 0 -233 97t-97 232q0 137 96.5 233.5t233.5 96.5zM1870 158q61 0 103 44.5t42 108.5q0 63 -43 108.5t-102 45.5q-62 0 -104 -44t-42 -110q0 -61 43.5 -107t102.5 -46zM1114 641
q137 0 233.5 -96.5t96.5 -233.5q0 -135 -97 -232t-233 -97q-135 0 -232.5 97t-97.5 232q0 137 97 233.5t233 96.5zM1114 158q61 0 103.5 44.5t42.5 108.5q0 63 -43 108.5t-103 45.5q-61 0 -103 -44t-42 -110q0 -61 43 -107t102 -46z" />
    <glyph glyph-name="Acircumflex" unicode="&#xc2;" horiz-adv-x="1280" 
d="M944 1415l246 -1415h-305l-43 305h-434l-136 -305h-327l684 1415h315zM494 504h323l-74 618zM996 1843l120 -327h-167l-125 186l-205 -186h-187l258 327h306z" />
    <glyph glyph-name="Ecircumflex" unicode="&#xca;" horiz-adv-x="1194" 
d="M1155 1397l-33 -234h-575l-47 -329h506l-33 -234h-506l-51 -367h725l-33 -233h-1022l197 1397h872zM953 1843l120 -327h-167l-125 186l-205 -186h-187l258 327h306z" />
    <glyph glyph-name="Aacute" unicode="&#xc1;" horiz-adv-x="1280" 
d="M944 1415l246 -1415h-305l-43 305h-434l-136 -305h-327l684 1415h315zM494 504h323l-74 618zM608 1491l182 352h330l-363 -352h-149z" />
    <glyph glyph-name="Edieresis" unicode="&#xcb;" horiz-adv-x="1194" 
d="M1155 1397l-33 -234h-575l-47 -329h506l-33 -234h-506l-51 -367h725l-33 -233h-1022l197 1397h872zM984 1871q67 0 113.5 -46.5t46.5 -113.5t-46.5 -114.5t-113.5 -47.5q-66 0 -114 47.5t-48 114.5t48 113.5t114 46.5zM516 1871q67 0 113.5 -46.5t45.5 -113.5
q1 -67 -45.5 -114.5t-113.5 -47.5t-114.5 47.5t-47.5 114.5q0 66 48 113t114 47z" />
    <glyph glyph-name="Egrave" unicode="&#xc8;" horiz-adv-x="1194" 
d="M1155 1397l-33 -234h-575l-47 -329h506l-33 -234h-506l-51 -367h725l-33 -233h-1022l197 1397h872zM944 1491h-149l-363 352h330z" />
    <glyph glyph-name="Iacute" unicode="&#xcd;" horiz-adv-x="618" 
d="M586 1397l-197 -1397h-297l197 1397h297zM279 1491l182 352h330l-363 -352h-149z" />
    <glyph glyph-name="Icircumflex" unicode="&#xce;" horiz-adv-x="618" 
d="M586 1397l-197 -1397h-297l197 1397h297zM666 1843l120 -327h-167l-125 186l-205 -186h-187l258 327h306z" />
    <glyph glyph-name="Idieresis" unicode="&#xcf;" horiz-adv-x="618" 
d="M586 1397l-197 -1397h-297l197 1397h297zM697 1871q67 0 113.5 -46.5t46.5 -113.5t-46.5 -114.5t-113.5 -47.5q-66 0 -114 47.5t-48 114.5t48 113.5t114 46.5zM229 1871q67 0 113.5 -46.5t45.5 -113.5q1 -67 -45.5 -114.5t-113.5 -47.5t-114.5 47.5t-47.5 114.5
q0 66 48 113t114 47z" />
    <glyph glyph-name="Igrave" unicode="&#xcc;" horiz-adv-x="618" 
d="M586 1397l-197 -1397h-297l197 1397h297zM657 1491h-149l-363 352h330z" />
    <glyph glyph-name="Oacute" unicode="&#xd3;" horiz-adv-x="1706" 
d="M944 1415q304 0 496 -178t192 -459q0 -353 -226 -574.5t-579 -221.5q-306 0 -505 183t-199 466q0 337 233.5 560.5t587.5 223.5zM829 240q207 0 351.5 151t144.5 367q0 173 -113.5 286t-287.5 113q-202 0 -348 -151t-146 -361q0 -179 111.5 -292t287.5 -113zM821 1491
l182 352h330l-363 -352h-149z" />
    <glyph glyph-name="Ocircumflex" unicode="&#xd4;" horiz-adv-x="1706" 
d="M944 1415q304 0 496 -178t192 -459q0 -353 -226 -574.5t-579 -221.5q-306 0 -505 183t-199 466q0 337 233.5 560.5t587.5 223.5zM829 240q207 0 351.5 151t144.5 367q0 173 -113.5 286t-287.5 113q-202 0 -348 -151t-146 -361q0 -179 111.5 -292t287.5 -113zM1209 1843
l120 -327h-167l-125 186l-205 -186h-187l258 327h306z" />
    <glyph glyph-name="apple" unicode="&#xf000;" horiz-adv-x="1618" 
 />
    <glyph glyph-name="Ograve" unicode="&#xd2;" horiz-adv-x="1706" 
d="M944 1415q304 0 496 -178t192 -459q0 -353 -226 -574.5t-579 -221.5q-306 0 -505 183t-199 466q0 337 233.5 560.5t587.5 223.5zM829 240q207 0 351.5 151t144.5 367q0 173 -113.5 286t-287.5 113q-202 0 -348 -151t-146 -361q0 -179 111.5 -292t287.5 -113zM1200 1491
h-149l-363 352h330z" />
    <glyph glyph-name="Uacute" unicode="&#xda;" horiz-adv-x="1536" 
d="M1532 1397l-123 -871q-76 -544 -643 -544q-299 0 -459 134.5t-160 374.5q0 53 8 111l115 795h297l-113 -791q-5 -40 -5 -75q0 -144 88 -217.5t229 -73.5q143 0 236 79.5t114 231.5l119 846h297zM745 1491l182 352h330l-363 -352h-149z" />
    <glyph glyph-name="Ucircumflex" unicode="&#xdb;" horiz-adv-x="1536" 
d="M1532 1397l-123 -871q-76 -544 -643 -544q-299 0 -459 134.5t-160 374.5q0 53 8 111l115 795h297l-113 -791q-5 -40 -5 -75q0 -144 88 -217.5t229 -73.5q143 0 236 79.5t114 231.5l119 846h297zM1133 1843l120 -327h-167l-125 186l-205 -186h-187l258 327h306z" />
    <glyph glyph-name="Ugrave" unicode="&#xd9;" horiz-adv-x="1536" 
d="M1532 1397l-123 -871q-76 -544 -643 -544q-299 0 -459 134.5t-160 374.5q0 53 8 111l115 795h297l-113 -791q-5 -40 -5 -75q0 -144 88 -217.5t229 -73.5q143 0 236 79.5t114 231.5l119 846h297zM1124 1491h-149l-363 352h330z" />
    <glyph glyph-name="dotlessi" unicode="&#x131;" horiz-adv-x="532" 
d="M467 930l-131 -930h-277l131 930h277z" />
    <glyph glyph-name="circumflex" unicode="&#x2c6;" horiz-adv-x="682" 
d="M625 1384l120 -327h-167l-125 186l-205 -186h-187l258 327h306z" />
    <glyph glyph-name="tilde" unicode="&#x2dc;" horiz-adv-x="682" 
d="M760 1356q1 -145 -53 -224t-148 -79q-54 0 -147 49t-119 49q-70 0 -78 -96h-131q0 301 199 301q69 0 155.5 -49.5t112.5 -49.5q64 0 78 99h131z" />
    <glyph glyph-name="macron" unicode="&#x2c9;" horiz-adv-x="682" 
d="M846 1327l-60 -205h-792l59 205h793z" />
    <glyph glyph-name="breve" unicode="&#x2d8;" horiz-adv-x="682" 
d="M600 1378h180q-14 -147 -105.5 -232t-225.5 -85q-268 0 -287 317h180q13 -133 117 -133q102 0 141 133z" />
    <glyph glyph-name="dotaccent" unicode="&#x2d9;" horiz-adv-x="682" 
d="M416 1412q66 0 113 -47t47 -113q0 -67 -46.5 -114.5t-113.5 -47.5t-114.5 47.5t-47.5 114.5t47.5 113.5t114.5 46.5z" />
    <glyph glyph-name="ring" unicode="&#x2da;" horiz-adv-x="682" 
d="M248 1210q0 84 60.5 144.5t144.5 60.5t144 -60.5t60 -144.5t-60 -144t-144 -60t-144.5 60t-60.5 144zM565 1210q0 46 -33.5 79.5t-78.5 33.5q-46 0 -79.5 -33.5t-33.5 -79.5q0 -45 33.5 -78.5t79.5 -33.5q45 0 78.5 33.5t33.5 78.5z" />
    <glyph glyph-name="cedilla" unicode="&#xb8;" horiz-adv-x="682" 
d="M393 18l-20 -65q108 -31 108 -137q0 -80 -63 -126t-174 -46q-88 0 -142 20l21 92q40 -10 92 -10q109 0 109 66q0 61 -88 65l63 141h94z" />
    <glyph glyph-name="hungarumlaut" unicode="&#x2dd;" horiz-adv-x="682" 
d="M121 1049l76 335h260l-211 -335h-125zM463 1049l76 335h260l-211 -335h-125z" />
    <glyph glyph-name="ogonek" unicode="&#x2db;" horiz-adv-x="682" 
d="M735 -88v-152q-87 -24 -160 -24q-109 0 -170 38t-61 105q0 71 66 146h139q-43 -51 -43 -95q0 -65 80 -65q57 0 149 47z" />
    <glyph glyph-name="caron" unicode="&#x2c7;" horiz-adv-x="682" 
d="M274 1057l-120 327h168l124 -186l205 186h187l-258 -327h-306z" />
    <glyph glyph-name="Lslash" unicode="&#x141;" horiz-adv-x="1087" 
d="M575 1397l-63 -455l322 260l-35 -235l-320 -260l-67 -474h635l-33 -233h-932l65 471l-149 -123l35 240l149 121l97 688h296z" />
    <glyph glyph-name="lslash" unicode="&#x142;" horiz-adv-x="532" 
d="M600 1024l-29 -211l-131 -106l-98 -707h-276l67 485l-106 -86l28 215l109 88l98 695h277l-68 -475z" />
    <glyph glyph-name="Scaron" unicode="&#x160;" horiz-adv-x="1067" 
d="M1042 1305l-41 -246q-75 54 -173.5 88.5t-172.5 34.5q-84 0 -140 -43.5t-56 -110.5q0 -40 31.5 -80.5t199 -140.5t225.5 -196.5t58 -200.5q0 -185 -128 -306.5t-345 -121.5q-275 0 -475 133l45 243q90 -64 200.5 -103.5t194.5 -39.5q91 0 146 42.5t55 111.5
q0 48 -35.5 97t-204 153t-221.5 192t-53 182q0 180 140 301t351 121t399 -110zM538 1516l-120 327h168l124 -186l205 186h187l-258 -327h-306z" />
    <glyph glyph-name="scaron" unicode="&#x161;" horiz-adv-x="768" 
d="M735 862l-22 -219q-72 36 -150 57t-119 21q-61 0 -61 -41t110 -123q126 -94 162.5 -157t36.5 -126q0 -126 -97.5 -208t-250.5 -82q-159 0 -321 84l38 206q170 -65 254 -65q91 0 91 51q0 43 -121 134.5t-156 146t-35 104.5q0 133 97.5 217t250.5 84q145 0 293 -84z
M317 1057l-120 327h168l124 -186l205 186h187l-258 -327h-306z" />
    <glyph glyph-name="Zcaron" horiz-adv-x="1300" 
d="M1432 1397l-932 -1164h694l-33 -233h-1224l933 1163h-677l34 234h1205zM655 1516l-120 327h168l124 -186l205 186h187l-258 -327h-306z" />
    <glyph glyph-name="Zcaron" unicode="&#x17d;" horiz-adv-x="1300" 
d="M1432 1397l-932 -1164h694l-33 -233h-1224l933 1163h-677l34 234h1205zM655 1516l-120 327h168l124 -186l205 186h187l-258 -327h-306z" />
    <glyph glyph-name="zcaron" horiz-adv-x="938" 
d="M936 930l-457 -701h404l-35 -229h-846l473 700h-377l33 230h805zM403 1057l-120 327h168l124 -186l205 186h187l-258 -327h-306z" />
    <glyph glyph-name="zcaron" unicode="&#x17e;" horiz-adv-x="938" 
d="M936 930l-457 -701h404l-35 -229h-846l473 700h-377l33 230h805zM403 1057l-120 327h168l124 -186l205 186h187l-258 -327h-306z" />
    <glyph glyph-name="brokenbar" unicode="&#xa6;" horiz-adv-x="575" 
d="M209 700v697h223v-697h-223zM209 -453v813h223v-813h-223z" />
    <glyph glyph-name="sfthyphen" unicode="&#xad;" horiz-adv-x="705" 
d="M692 602l-41 -283h-639l39 283h641z" />
    <glyph glyph-name="macron" unicode="&#xaf;" horiz-adv-x="1024" 
d="M286 1600h1048v-102h-1048v102z" />
    <glyph glyph-name="Eth" unicode="&#xd0;" horiz-adv-x="1536" 
d="M168 612h-149l24 169h149l88 616h330q204 0 334.5 -19t254.5 -103.5t196 -228t72 -328.5q0 -198 -80 -356.5t-209.5 -245t-231.5 -101.5t-400 -15h-464zM468 612l-54 -379h163q167 0 241 13t157 73.5t133 166.5t50 237q0 156 -78 261t-186.5 140.5t-253.5 35.5h-94
l-54 -379h302l-24 -169h-302z" />
    <glyph glyph-name="eth" unicode="&#xf0;" 
d="M1098 1311l-187 -86q179 -216 179 -531q0 -319 -162 -514.5t-408 -195.5q-203 0 -339 126.5t-136 313.5q0 212 162 367t385 155q133 0 229 -86l4 4q-38 130 -145 252l-217 -100l-49 86l188 88q-29 23 -74 51l166 156q86 -40 146 -97l209 97zM518 209q109 0 176.5 92.5
t67.5 220.5q0 88 -53.5 143.5t-137.5 55.5q-97 0 -168 -88.5t-71 -210.5q0 -97 50.5 -155t135.5 -58z" />
    <glyph glyph-name="Yacute" unicode="&#xdd;" horiz-adv-x="1153" 
d="M1266 1397l-527 -811l-82 -586h-297l82 586l-295 811h297l181 -539l323 539h318zM545 1491l182 352h330l-363 -352h-149z" />
    <glyph glyph-name="yacute" unicode="&#xfd;" horiz-adv-x="1004" 
d="M1044 930l-675 -1401h-291l270 557l-297 844h277l182 -543l246 543h288zM399 1032l182 352h330l-363 -352h-149z" />
    <glyph glyph-name="Thorn" unicode="&#xde;" horiz-adv-x="1194" 
d="M289 1397h297l-37 -264h160q204 0 333 -112t129 -304q0 -221 -138 -338t-369 -117h-236l-37 -262h-297zM518 911l-59 -430h125q134 0 207 60.5t73 163.5q0 95 -71 150.5t-203 55.5h-72z" />
    <glyph glyph-name="thorn" unicode="&#xfe;" horiz-adv-x="1194" 
d="M70 -471l262 1868h276l-65 -467q82 16 170 16q182 0 294.5 -111.5t112.5 -293.5q0 -233 -170 -396t-413 -163q-55 0 -125 18l-66 -471h-276zM514 729l-70 -504q40 -18 84 -18q146 0 226 96t80 232q0 207 -213 207q-49 0 -107 -13z" />
    <glyph glyph-name="minus" unicode="&#x2212;" horiz-adv-x="1196" 
d="M113 592v262h1024v-262h-1024z" />
    <glyph glyph-name="multiply" unicode="&#xd7;" horiz-adv-x="1196" 
d="M137 420l303 303l-303 303l185 184l303 -303l303 303l184 -184l-303 -303l303 -303l-184 -184l-303 303l-303 -303z" />
    <glyph glyph-name="onesuperior" unicode="&#xb9;" horiz-adv-x="662" 
d="M553 1407l-119 -727h-194l118 727h195z" />
    <glyph glyph-name="twosuperior" unicode="&#xb2;" horiz-adv-x="662" 
d="M602 834l-22 -154h-502l8 33q346 392 346 485q0 66 -72 66q-73 0 -190 -86l25 178q87 59 196 59q106 0 174 -56.5t68 -141.5q0 -82 -58 -168.5t-172 -214.5h199z" />
    <glyph glyph-name="threesuperior" unicode="&#xb3;" horiz-adv-x="662" 
d="M168 1206l25 168q110 41 206 41q117 0 191 -54t74 -138q0 -129 -132 -174q89 -52 89 -150q0 -100 -89 -164.5t-231 -64.5q-103 0 -219 49l22 151q115 -55 193 -55q50 0 84.5 25.5t34.5 62.5q0 82 -119 82q-42 0 -76 -8l21 156q65 -15 104 -15q54 0 87.5 23t33.5 59
q0 70 -92 70q-85 0 -207 -64z" />
    <glyph glyph-name="onehalf" unicode="&#xbd;" horiz-adv-x="1729" 
d="M519 1407l-119 -727h-194l118 727h195zM1320 1415l-981 -1470h-180l981 1470h180zM1470 158l-22 -154h-502l8 33q346 392 346 485q0 66 -72 66q-73 0 -190 -86l25 178q87 59 196 59q106 0 174 -56.5t68 -141.5q0 -82 -58 -168.5t-172 -214.5h199z" />
    <glyph glyph-name="onequarter" unicode="&#xbc;" horiz-adv-x="1729" 
d="M553 1407l-119 -727h-194l118 727h195zM1356 1415l-981 -1470h-180l981 1470h180zM1475 741l-80 -452h94l-16 -121h-93l-24 -164h-195l25 164h-279v137l412 436h156zM1231 465l-162 -176h131l35 172z" />
    <glyph glyph-name="threequarters" unicode="&#xbe;" horiz-adv-x="1729" 
d="M179 1206l25 168q110 41 206 41q117 0 191 -54t74 -138q0 -129 -132 -174q89 -52 89 -150q0 -100 -89 -164.5t-231 -64.5q-103 0 -219 49l22 151q115 -55 193 -55q50 0 84.5 25.5t34.5 62.5q0 82 -119 82q-42 0 -76 -8l21 156q65 -15 104 -15q54 0 87.5 23t33.5 59
q0 70 -92 70q-85 0 -207 -64zM1440 1415l-981 -1470h-180l981 1470h180zM1559 741l-80 -452h94l-16 -121h-93l-24 -164h-195l25 164h-279v137l412 436h156zM1315 465l-162 -176h131l35 172z" />
    <glyph glyph-name="foursuperior" unicode="&#xf003;" horiz-adv-x="662" 
d="M647 1417l-80 -452h94l-16 -121h-93l-24 -164h-195l25 164h-279v137l412 436h156zM403 1141l-162 -176h131l35 172z" />
    <glyph glyph-name="periodcentered" unicode="&#xb7;" horiz-adv-x="683" 
d="M700 700q0 -67 -48 -115t-115 -48t-115 47.5t-48 115.5q0 67 48 115t115 48t115 -48t48 -115z" />
    <glyph glyph-name="Amacron" unicode="&#x100;" horiz-adv-x="1280" 
d="M944 1415l246 -1415h-305l-43 305h-434l-136 -305h-327l684 1415h315zM494 504h323l-74 618zM1222 1786l-60 -205h-792l59 205h793z" />
    <glyph glyph-name="amacron" unicode="&#x101;" 
d="M1067 915l-129 -915h-276l12 86q-130 -104 -268 -104q-141 0 -233.5 112t-92.5 287q0 250 174.5 407.5t499.5 157.5q162 0 313 -31zM700 270l62 443q-31 3 -60 3q-166 0 -250.5 -100.5t-84.5 -248.5q0 -84 36 -131.5t99 -47.5q100 0 198 82zM1071 1327l-60 -205h-792
l59 205h793z" />
    <glyph glyph-name="Abreve" unicode="&#x102;" horiz-adv-x="1280" 
d="M944 1415l246 -1415h-305l-43 305h-434l-136 -305h-327l684 1415h315zM494 504h323l-74 618zM970 1837h180q-14 -147 -105.5 -232t-225.5 -85q-268 0 -287 317h180q13 -133 117 -133q102 0 141 133z" />
    <glyph glyph-name="abreve" unicode="&#x103;" 
d="M1067 915l-129 -915h-276l12 86q-130 -104 -268 -104q-141 0 -233.5 112t-92.5 287q0 250 174.5 407.5t499.5 157.5q162 0 313 -31zM700 270l62 443q-31 3 -60 3q-166 0 -250.5 -100.5t-84.5 -248.5q0 -84 36 -131.5t99 -47.5q100 0 198 82zM825 1378h180
q-14 -147 -105.5 -232t-225.5 -85q-268 0 -287 317h180q13 -133 117 -133q102 0 141 133z" />
    <glyph glyph-name="Aogonek" unicode="&#x104;" horiz-adv-x="1280" 
d="M944 1415l246 -1415h-118q-24 -37 -24 -70q0 -65 80 -65q57 0 149 47v-152q-87 -24 -160 -24q-231 0 -231 143q0 59 46 121h-47l-43 305h-434l-136 -305h-327l684 1415h315zM494 504h323l-74 618z" />
    <glyph glyph-name="aogonek" unicode="&#x105;" horiz-adv-x="1131" 
d="M868 0q-25 -37 -25 -70q0 -26 21 -46t57 -20q50 0 148 48v-151q-78 -25 -159 -25q-118 0 -173.5 40.5t-55.5 102.5q0 60 46 121h-66l12 86q-126 -103 -268 -103q-145 0 -233.5 115.5t-88.5 281.5q0 252 175 409t503 157q165 0 308 -31l-140 -915h-61zM763 714l-50 1
q-190 0 -272 -102t-82 -246q0 -70 33.5 -122t104.5 -52q101 0 202 77z" />
    <glyph glyph-name="Cacute" unicode="&#x106;" horiz-adv-x="1409" 
d="M1409 1364l-49 -258q-166 51 -338 51q-283 0 -439.5 -162t-156.5 -381q0 -171 108 -272.5t291 -101.5q225 0 508 163l-43 -311q-249 -110 -491 -110q-304 0 -492 177t-188 462q0 349 254 571.5t657 222.5q176 0 379 -51zM914 1491l182 352h330l-363 -352h-149z" />
    <glyph glyph-name="cacute" unicode="&#x107;" horiz-adv-x="961" 
d="M924 913l-35 -249q-73 26 -102.5 33.5t-98.5 7.5q-140 0 -235 -82.5t-95 -202.5q0 -101 63.5 -157t178.5 -56q112 0 264 61l-33 -252q-140 -34 -286 -34q-209 0 -341 125.5t-132 322.5q0 218 172 367t424 149q146 0 256 -33zM459 1032l182 352h330l-363 -352h-149z" />
    <glyph glyph-name="Ccircumflex" unicode="&#x108;" horiz-adv-x="1409" 
d="M1409 1364l-49 -258q-166 51 -338 51q-283 0 -439.5 -162t-156.5 -381q0 -171 108 -272.5t291 -101.5q225 0 508 163l-43 -311q-249 -110 -491 -110q-304 0 -492 177t-188 462q0 349 254 571.5t657 222.5q176 0 379 -51zM1179 1843l120 -327h-167l-125 186l-205 -186
h-187l258 327h306z" />
    <glyph glyph-name="ccircumflex" unicode="&#x109;" horiz-adv-x="961" 
d="M924 913l-35 -249q-73 26 -102.5 33.5t-98.5 7.5q-140 0 -235 -82.5t-95 -202.5q0 -101 63.5 -157t178.5 -56q112 0 264 61l-33 -252q-140 -34 -286 -34q-209 0 -341 125.5t-132 322.5q0 218 172 367t424 149q146 0 256 -33zM849 1384l120 -327h-167l-125 186l-205 -186
h-187l258 327h306z" />
    <glyph glyph-name="Cdot" unicode="&#x10a;" horiz-adv-x="1409" 
d="M1409 1364l-49 -258q-166 51 -338 51q-283 0 -439.5 -162t-156.5 -381q0 -171 108 -272.5t291 -101.5q225 0 508 163l-43 -311q-249 -110 -491 -110q-304 0 -492 177t-188 462q0 349 254 571.5t657 222.5q176 0 379 -51zM1092 1871q66 0 113 -47t47 -113
q0 -67 -46.5 -114.5t-113.5 -47.5t-114.5 47.5t-47.5 114.5t47.5 113.5t114.5 46.5z" />
    <glyph glyph-name="cdot" unicode="&#x10b;" horiz-adv-x="961" 
d="M924 913l-35 -249q-73 26 -102.5 33.5t-98.5 7.5q-140 0 -235 -82.5t-95 -202.5q0 -101 63.5 -157t178.5 -56q112 0 264 61l-33 -252q-140 -34 -286 -34q-209 0 -341 125.5t-132 322.5q0 218 172 367t424 149q146 0 256 -33zM637 1412q66 0 113 -47t47 -113
q0 -67 -46.5 -114.5t-113.5 -47.5t-114.5 47.5t-47.5 114.5t47.5 113.5t114.5 46.5z" />
    <glyph glyph-name="Ccaron" unicode="&#x10c;" horiz-adv-x="1409" 
d="M1409 1364l-49 -258q-166 51 -338 51q-283 0 -439.5 -162t-156.5 -381q0 -171 108 -272.5t291 -101.5q225 0 508 163l-43 -311q-249 -110 -491 -110q-304 0 -492 177t-188 462q0 349 254 571.5t657 222.5q176 0 379 -51zM874 1516l-120 327h168l124 -186l205 186h187
l-258 -327h-306z" />
    <glyph glyph-name="ccaron" unicode="&#x10d;" horiz-adv-x="961" 
d="M924 913l-35 -249q-73 26 -102.5 33.5t-98.5 7.5q-140 0 -235 -82.5t-95 -202.5q0 -101 63.5 -157t178.5 -56q112 0 264 61l-33 -252q-140 -34 -286 -34q-209 0 -341 125.5t-132 322.5q0 218 172 367t424 149q146 0 256 -33zM495 1057l-120 327h168l124 -186l205 186h187
l-258 -327h-306z" />
    <glyph glyph-name="Dcaron" unicode="&#x10e;" horiz-adv-x="1536" 
d="M279 1397h464q350 0 535.5 -190t185.5 -490q0 -309 -189.5 -513t-469.5 -204h-721zM543 1163l-129 -930h278q219 0 342 137.5t123 350.5q0 196 -127 319t-344 123h-143zM647 1516l-120 327h168l124 -186l205 186h187l-258 -327h-306z" />
    <glyph glyph-name="dcaron" unicode="&#x10f;" horiz-adv-x="1408" 
d="M1122 1397l-194 -1385q-177 -30 -320 -30q-247 0 -392.5 121t-145.5 325q0 215 156.5 366.5t420.5 151.5q43 0 135 -10l64 461h276zM680 217l68 483q-36 5 -70 5q-148 0 -235 -80.5t-87 -198.5q0 -101 66.5 -160t181.5 -59q30 0 76 10zM1147 992q119 26 160 133
q-90 49 -90 142q0 70 49.5 109.5t106.5 39.5q70 0 123.5 -56t53.5 -139q0 -126 -112.5 -230.5t-316.5 -110.5z" />
    <glyph glyph-name="Dslash" unicode="&#x110;" horiz-adv-x="1536" 
d="M168 612h-149l24 169h149l88 616h330q204 0 334.5 -19t254.5 -103.5t196 -228t72 -328.5q0 -198 -80 -356.5t-209.5 -245t-231.5 -101.5t-400 -15h-464zM468 612l-54 -379h163q167 0 241 13t157 73.5t133 166.5t50 237q0 156 -78 261t-186.5 140.5t-253.5 35.5h-94
l-54 -379h302l-24 -169h-302z" />
    <glyph glyph-name="dmacron" unicode="&#x111;" horiz-adv-x="1109" 
d="M1100 1244h120l-22 -148h-120l-158 -1084q-166 -29 -309 -29q-258 0 -399.5 124.5t-141.5 319.5q0 209 160 364t418 155q76 0 133 -17l23 167h-175l21 148h175l21 153h277zM748 700q-47 2 -69 2q-161 0 -242 -82.5t-81 -192.5q0 -96 64 -156t186 -60q36 0 73 6z" />
    <glyph glyph-name="Emacron" unicode="&#x112;" horiz-adv-x="1194" 
d="M1155 1397l-33 -234h-575l-47 -329h506l-33 -234h-506l-51 -367h725l-33 -233h-1022l197 1397h872zM1173 1786l-60 -205h-792l59 205h793z" />
    <glyph glyph-name="emacron" unicode="&#x113;" horiz-adv-x="1044" 
d="M958 426h-608q-10 -110 50 -175t163 -65q114 0 344 95l-49 -232q-181 -67 -323 -67q-211 0 -337 123t-126 329q0 213 147 362.5t356 149.5q181 0 289.5 -107.5t108.5 -283.5q0 -62 -15 -129zM377 586h325q3 17 3 34q0 61 -37 98.5t-99 37.5q-133 0 -192 -170zM1028 1327
l-60 -205h-792l59 205h793z" />
    <glyph glyph-name="Ebreve" unicode="&#x114;" horiz-adv-x="1194" 
d="M1155 1397l-33 -234h-575l-47 -329h506l-33 -234h-506l-51 -367h725l-33 -233h-1022l197 1397h872zM927 1837h180q-14 -147 -105.5 -232t-225.5 -85q-268 0 -287 317h180q13 -133 117 -133q102 0 141 133z" />
    <glyph glyph-name="ebreve" unicode="&#x115;" horiz-adv-x="1044" 
d="M958 426h-608q-10 -110 50 -175t163 -65q114 0 344 95l-49 -232q-181 -67 -323 -67q-211 0 -337 123t-126 329q0 213 147 362.5t356 149.5q181 0 289.5 -107.5t108.5 -283.5q0 -62 -15 -129zM377 586h325q3 17 3 34q0 61 -37 98.5t-99 37.5q-133 0 -192 -170zM782 1378
h180q-14 -147 -105.5 -232t-225.5 -85q-268 0 -287 317h180q13 -133 117 -133q102 0 141 133z" />
    <glyph glyph-name="Edot" unicode="&#x116;" horiz-adv-x="1194" 
d="M1155 1397l-33 -234h-575l-47 -329h506l-33 -234h-506l-51 -367h725l-33 -233h-1022l197 1397h872zM743 1871q66 0 113 -47t47 -113q0 -67 -46.5 -114.5t-113.5 -47.5t-114.5 47.5t-47.5 114.5t47.5 113.5t114.5 46.5z" />
    <glyph glyph-name="edot" unicode="&#x117;" horiz-adv-x="1044" 
d="M958 426h-608q-10 -110 50 -175t163 -65q114 0 344 95l-49 -232q-181 -67 -323 -67q-211 0 -337 123t-126 329q0 213 147 362.5t356 149.5q181 0 289.5 -107.5t108.5 -283.5q0 -62 -15 -129zM377 586h325q3 17 3 34q0 61 -37 98.5t-99 37.5q-133 0 -192 -170zM598 1412
q66 0 113 -47t47 -113q0 -67 -46.5 -114.5t-113.5 -47.5t-114.5 47.5t-47.5 114.5t47.5 113.5t114.5 46.5z" />
    <glyph glyph-name="Eogonek" unicode="&#x118;" horiz-adv-x="1195" 
d="M1155 1397l-33 -234h-575l-47 -329h506l-33 -234h-506l-51 -367h725l-33 -233h-204q-24 -37 -24 -70q0 -65 80 -65q57 0 149 47v-152q-87 -24 -160 -24q-231 0 -231 143q0 59 46 121h-678l197 1397h872z" />
    <glyph glyph-name="eogonek" unicode="&#x119;" horiz-adv-x="1045" 
d="M794 -88v-151q-79 -25 -160 -25q-115 0 -173 40t-58 102q0 57 39 112q-178 24 -274 148.5t-96 295.5q0 215 149 363.5t354 148.5q187 0 293 -111.5t106 -273.5q0 -66 -15 -135h-609q-1 -14 -1 -21q0 -102 59 -156.5t155 -54.5q172 0 346 101l-51 -243q-126 -51 -276 -70
q-18 -21 -18 -48q0 -70 80 -70q50 0 150 48zM698 586q4 26 4 42q0 50 -35 88.5t-93 38.5q-125 0 -184 -169h308z" />
    <glyph glyph-name="Ecaron" unicode="&#x11a;" horiz-adv-x="1194" 
d="M1155 1397l-33 -234h-575l-47 -329h506l-33 -234h-506l-51 -367h725l-33 -233h-1022l197 1397h872zM601 1516l-120 327h168l124 -186l205 186h187l-258 -327h-306z" />
    <glyph glyph-name="ecaron" unicode="&#x11b;" horiz-adv-x="1044" 
d="M958 426h-608q-10 -110 50 -175t163 -65q114 0 344 95l-49 -232q-181 -67 -323 -67q-211 0 -337 123t-126 329q0 213 147 362.5t356 149.5q181 0 289.5 -107.5t108.5 -283.5q0 -62 -15 -129zM377 586h325q3 17 3 34q0 61 -37 98.5t-99 37.5q-133 0 -192 -170zM456 1057
l-120 327h168l124 -186l205 186h187l-258 -327h-306z" />
    <glyph glyph-name="Gcircumflex" unicode="&#x11c;" horiz-adv-x="1516" 
d="M1509 1364l-34 -258q-188 51 -371 51q-310 0 -504 -149t-194 -385q0 -180 120.5 -281.5t323.5 -101.5q106 0 209 26l35 248h-256l30 221h553l-100 -712q-165 -41 -434 -41q-379 0 -584 176t-205 454q0 331 265.5 567t740.5 236q231 0 405 -51zM1297 1843l120 -327h-167
l-125 186l-205 -186h-187l258 327h306z" />
    <glyph glyph-name="gcircumflex" unicode="&#x11d;" horiz-adv-x="1004" 
d="M1036 930l-26 -205h-150q35 -73 35 -147q0 -143 -105 -241.5t-284 -98.5q-91 0 -129.5 -8.5t-38.5 -41.5q0 -18 25 -31.5t203.5 -42t255.5 -101.5t77 -181q0 -303 -479 -303q-220 0 -331.5 62t-111.5 167q0 137 230 209q-129 64 -129 172q0 130 188 172q-162 95 -162 269
q0 140 115 245t297 105h520zM487 410q152 0 152 200q0 62 -34.5 97.5t-94.5 35.5q-152 0 -152 -204q0 -129 129 -129zM641 -205q0 65 -131 91l-121 26q-39 0 -104.5 -26.5t-65.5 -82.5q0 -96 205 -96q115 0 166 20t51 68zM835 1384l120 -327h-167l-125 186l-205 -186h-187
l258 327h306z" />
    <glyph glyph-name="Gbreve" unicode="&#x11e;" horiz-adv-x="1516" 
d="M1509 1364l-34 -258q-188 51 -371 51q-310 0 -504 -149t-194 -385q0 -180 120.5 -281.5t323.5 -101.5q106 0 209 26l35 248h-256l30 221h553l-100 -712q-165 -41 -434 -41q-379 0 -584 176t-205 454q0 331 265.5 567t740.5 236q231 0 405 -51zM1272 1837h180
q-14 -147 -105.5 -232t-225.5 -85q-268 0 -287 317h180q13 -133 117 -133q102 0 141 133z" />
    <glyph glyph-name="gbreve" unicode="&#x11f;" horiz-adv-x="1004" 
d="M1036 930l-26 -205h-150q35 -73 35 -147q0 -143 -105 -241.5t-284 -98.5q-91 0 -129.5 -8.5t-38.5 -41.5q0 -18 25 -31.5t203.5 -42t255.5 -101.5t77 -181q0 -303 -479 -303q-220 0 -331.5 62t-111.5 167q0 137 230 209q-129 64 -129 172q0 130 188 172q-162 95 -162 269
q0 140 115 245t297 105h520zM487 410q152 0 152 200q0 62 -34.5 97.5t-94.5 35.5q-152 0 -152 -204q0 -129 129 -129zM641 -205q0 65 -131 91l-121 26q-39 0 -104.5 -26.5t-65.5 -82.5q0 -96 205 -96q115 0 166 20t51 68zM750 1378h180q-14 -147 -105.5 -232t-225.5 -85
q-268 0 -287 317h180q13 -133 117 -133q102 0 141 133z" />
    <glyph glyph-name="Gdot" unicode="&#x120;" horiz-adv-x="1516" 
d="M1509 1364l-34 -258q-188 51 -371 51q-310 0 -504 -149t-194 -385q0 -180 120.5 -281.5t323.5 -101.5q106 0 209 26l35 248h-256l30 221h553l-100 -712q-165 -41 -434 -41q-379 0 -584 176t-205 454q0 331 265.5 567t740.5 236q231 0 405 -51zM1088 1871q66 0 113 -47
t47 -113q0 -67 -46.5 -114.5t-113.5 -47.5t-114.5 47.5t-47.5 114.5t47.5 113.5t114.5 46.5z" />
    <glyph glyph-name="gdot" unicode="&#x121;" horiz-adv-x="1004" 
d="M1036 930l-26 -205h-150q35 -73 35 -147q0 -143 -105 -241.5t-284 -98.5q-91 0 -129.5 -8.5t-38.5 -41.5q0 -18 25 -31.5t203.5 -42t255.5 -101.5t77 -181q0 -303 -479 -303q-220 0 -331.5 62t-111.5 167q0 137 230 209q-129 64 -129 172q0 130 188 172q-162 95 -162 269
q0 140 115 245t297 105h520zM487 410q152 0 152 200q0 62 -34.5 97.5t-94.5 35.5q-152 0 -152 -204q0 -129 129 -129zM641 -205q0 65 -131 91l-121 26q-39 0 -104.5 -26.5t-65.5 -82.5q0 -96 205 -96q115 0 166 20t51 68zM566 1412q66 0 113 -47t47 -113q0 -67 -46.5 -114.5
t-113.5 -47.5t-114.5 47.5t-47.5 114.5t47.5 113.5t114.5 46.5z" />
    <glyph glyph-name="Gcedilla" unicode="&#x122;" horiz-adv-x="1516" 
d="M1509 1364l-34 -258q-188 51 -371 51q-310 0 -504 -149t-194 -385q0 -180 120 -280.5t324 -100.5q115 0 209 24l35 248h-256l30 221h553l-100 -712q-103 -29 -399 -41l-11 -29q109 -31 109 -137q0 -81 -63 -126.5t-175 -45.5q-87 0 -141 20l21 92q40 -10 92 -10
q108 0 108 66q0 26 -22.5 45.5t-65.5 19.5l47 107q-356 22 -539.5 192.5t-183.5 435.5q0 331 265.5 568t740.5 237q224 0 405 -53z" />
    <glyph glyph-name="gcedilla" unicode="&#x123;" horiz-adv-x="1004" 
d="M1036 930l-26 -205h-150q35 -73 35 -147q0 -143 -105 -241.5t-284 -98.5q-91 0 -129.5 -8.5t-38.5 -41.5q0 -18 25 -31.5t203.5 -42t255.5 -101.5t77 -181q0 -303 -479 -303q-220 0 -331.5 62t-111.5 167q0 137 230 209q-129 64 -129 172q0 130 188 172q-162 95 -162 269
q0 140 115 245t297 105h520zM487 410q152 0 152 200q0 62 -34.5 97.5t-94.5 35.5q-152 0 -152 -204q0 -129 129 -129zM641 -205q0 65 -131 91l-121 26q-39 0 -104.5 -26.5t-65.5 -82.5q0 -96 205 -96q115 0 166 20t51 68zM658.057 1013.98q-153.963 0 -201.451 35.4912
t-47.4883 89.4785q0 66.9834 57.4863 111.473t178.456 44.4893q70.9834 0 142.966 -19.9951l-21.9951 -92.9775q-44.9893 9.99707 -90.9775 9.99707q-108.974 0 -108.974 -44.9883q0 -13.9971 14.4961 -26.9941q14.4971 -12.9961 94.4775 -17.9951z" />
    <glyph glyph-name="Hcircumflex" unicode="&#x124;" horiz-adv-x="1622" 
d="M1591 1397l-196 -1397h-297l82 569h-713l-80 -569h-297l197 1397h297l-78 -553h711l77 553h297zM1161 1843l120 -327h-167l-125 186l-205 -186h-187l258 327h306z" />
    <glyph glyph-name="hcircumflex" unicode="&#x125;" 
d="M535 1397l-82 -574q147 123 311 123q120 0 188.5 -71.5t68.5 -199.5q0 -35 -5 -73l-84 -602h-277l84 596q7 53 -16.5 89t-69.5 36q-96 0 -231 -117l-84 -604h-277l197 1397h277zM747 1843l120 -327h-167l-125 186l-205 -186h-187l258 327h306z" />
    <glyph glyph-name="Hbar" unicode="&#x126;" horiz-adv-x="1621" 
d="M1567 1193h156l-21 -169h-160l-151 -1024h-294l81 570h-710l-82 -570h-301l150 1024h-156l25 169h156l30 204h295l-29 -204h710l29 204h302zM532 1024l-25 -180h710l25 180h-710z" />
    <glyph glyph-name="hbar" unicode="&#x127;" horiz-adv-x="1131" 
d="M509 1210h285l-17 -169h-292l-31 -218q154 123 313 123q114 0 184.5 -69.5t70.5 -197.5q0 -62 -25 -236l-63 -443h-279l73 512q14 102 14 127q0 93 -79 93q-103 0 -240 -128l-86 -604h-276l148 1041h-196l18 169h202l26 187h276z" />
    <glyph glyph-name="Itilde" unicode="&#x128;" horiz-adv-x="618" 
d="M586 1397l-197 -1397h-297l197 1397h297zM801 1815q1 -145 -53 -224t-148 -79q-54 0 -147 49t-119 49q-70 0 -78 -96h-131q0 301 199 301q69 0 155.5 -49.5t112.5 -49.5q64 0 78 99h131z" />
    <glyph glyph-name="itilde" unicode="&#x129;" horiz-adv-x="532" 
d="M467 930l-131 -930h-277l131 930h277zM688 1356q1 -145 -53 -224t-148 -79q-54 0 -147 49t-119 49q-70 0 -78 -96h-131q0 301 199 301q69 0 155.5 -49.5t112.5 -49.5q64 0 78 99h131z" />
    <glyph glyph-name="Imacron" unicode="&#x12a;" horiz-adv-x="618" 
d="M586 1397l-197 -1397h-297l197 1397h297zM887 1786l-60 -205h-792l59 205h793z" />
    <glyph glyph-name="imacron" unicode="&#x12b;" horiz-adv-x="532" 
d="M467 930l-131 -930h-277l131 930h277zM850 1327l-60 -205h-792l59 205h793z" />
    <glyph glyph-name="Ibreve" unicode="&#x12c;" horiz-adv-x="618" 
d="M586 1397l-197 -1397h-297l197 1397h297zM641 1837h180q-14 -147 -105.5 -232t-225.5 -85q-268 0 -287 317h180q13 -133 117 -133q102 0 141 133z" />
    <glyph glyph-name="ibreve" unicode="&#x12d;" horiz-adv-x="532" 
d="M467 930l-131 -930h-277l131 930h277zM493 1378h180q-14 -147 -105.5 -232t-225.5 -85q-268 0 -287 317h180q13 -133 117 -133q102 0 141 133z" />
    <glyph glyph-name="Iogonek" unicode="&#x12e;" horiz-adv-x="619" 
d="M586 1397l-197 -1397h-157q-24 -37 -24 -70q0 -65 80 -65q57 0 149 47v-152q-87 -24 -160 -24q-231 0 -231 143q0 60 46 122l197 1396h297z" />
    <glyph glyph-name="iogonek" unicode="&#x12f;" horiz-adv-x="533" 
d="M369 1045q-60 0 -101 41t-41 101q0 59 41.5 101.5t99.5 42.5q59 0 100.5 -41t41.5 -98q0 -62 -41 -104.5t-100 -42.5zM200 0q-25 -37 -25 -70q0 -26 21.5 -46t57.5 -20q51 0 151 48v-151q-79 -25 -160 -25q-120 0 -175.5 40.5t-55.5 102.5q0 57 46 121l132 929h274
l-132 -929h-134z" />
    <glyph glyph-name="Idotaccent" unicode="&#x130;" horiz-adv-x="618" 
d="M586 1397l-197 -1397h-297l197 1397h297zM476 1871q66 0 113 -47t47 -113q0 -67 -46.5 -114.5t-113.5 -47.5t-114.5 47.5t-47.5 114.5t47.5 113.5t114.5 46.5z" />
    <glyph glyph-name="IJ" unicode="&#x132;" horiz-adv-x="1237" 
d="M588 1397l-198 -1397h-301l202 1397h297zM1211 1397l-180 -1266q-33 -231 -53 -313.5t-77 -150t-147.5 -101.5t-238.5 -34q-41 0 -64 3l33 232q92 0 140.5 33.5t66 92.5t42.5 238l180 1266h298z" />
    <glyph glyph-name="ij" unicode="&#x133;" horiz-adv-x="1067" 
d="M1038 1189q0 -57 -41.5 -99t-99.5 -42q-59 0 -100 41.5t-41 99.5q0 59 41.5 100.5t99.5 41.5t99.5 -41.5t41.5 -100.5zM505 1191q0 -57 -41 -98t-98 -41q-58 0 -98.5 41t-40.5 98q0 58 40.5 98.5t98.5 40.5q57 0 98 -40.5t41 -98.5zM468 929l-134 -929h-275l134 929h275z
M996 929l-135 -929q-21 -146 -37.5 -208.5t-63.5 -128.5t-119.5 -100.5t-173.5 -34.5q-107 0 -230 41l36 238q94 -25 136 -25q94 0 130 57t54 204l127 886h276z" />
    <glyph glyph-name="Jcircumflex" unicode="&#x134;" horiz-adv-x="618" 
d="M590 1397l-207 -1469q-56 -399 -444 -399q-50 0 -107 6l33 232q110 0 161 49.5t68 171.5l199 1409h297zM646 1843l120 -327h-167l-125 186l-205 -186h-187l258 327h306z" />
    <glyph glyph-name="jcircumflex" unicode="&#x135;" horiz-adv-x="533" 
d="M514 1384l120 -328h-167l-126 188l-204 -188h-187l260 328h304zM463 929l-131 -887q-32 -215 -61 -300.5t-120 -149.5t-211 -64q-49 0 -95 14l31 221q87 0 121 44.5t56 192.5l137 929h273z" />
    <glyph glyph-name="Kcedilla" unicode="&#x136;" horiz-adv-x="1323" 
d="M1442 1397l-627 -631l543 -766h-344l-527 741l-104 -741h-297l197 1397h297l-84 -596l594 596h352zM538 -76q154 0 201.5 -35.5t47.5 -89.5q0 -67 -57.5 -111.5t-178.5 -44.5q-71 0 -143 20l22 93q45 -10 91 -10q109 0 109 45q0 14 -14.5 27t-94.5 18z" />
    <glyph glyph-name="kcedilla" unicode="&#x137;" horiz-adv-x="1042" 
d="M532 1397l-122 -865l335 398h342l-368 -443l358 -487h-336l-342 459l-63 -459h-277l197 1397h276zM394 -76q154 0 201.5 -35.5t47.5 -89.5q0 -67 -57.5 -111.5t-178.5 -44.5q-71 0 -143 20l22 93q45 -10 91 -10q109 0 109 45q0 14 -14.5 27t-94.5 18z" />
    <glyph glyph-name="kgreenlandic" unicode="&#x138;" horiz-adv-x="1045" 
d="M464 929l-58 -401l335 401h341l-368 -443l347 -486h-320l-335 460l-72 -460h-272l136 929h266z" />
    <glyph glyph-name="Lacute" unicode="&#x139;" horiz-adv-x="1087" 
d="M575 1397l-163 -1164h635l-33 -233h-932l197 1397h296zM476 1491l182 352h330l-363 -352h-149z" />
    <glyph glyph-name="lacute" unicode="&#x13a;" horiz-adv-x="532" 
d="M539 1397l-197 -1397h-276l196 1397h277zM223 1491l182 352h330l-363 -352h-149z" />
    <glyph glyph-name="Lcedilla" unicode="&#x13b;" horiz-adv-x="1087" 
d="M575 1397l-163 -1164h635l-33 -233h-932l197 1397h296zM425 -76q154 0 201.5 -35.5t47.5 -89.5q0 -67 -57.5 -111.5t-178.5 -44.5q-71 0 -143 20l22 93q45 -10 91 -10q109 0 109 45q0 14 -14.5 27t-94.5 18z" />
    <glyph glyph-name="lcedilla" unicode="&#x13c;" horiz-adv-x="532" 
d="M539 1397l-197 -1397h-276l196 1397h277zM96 -76q154 0 201.5 -35.5t47.5 -89.5q0 -67 -57.5 -111.5t-178.5 -44.5q-71 0 -143 20l22 93q45 -10 91 -10q109 0 109 45q0 14 -14.5 27t-94.5 18z" />
    <glyph glyph-name="Lcaron" unicode="&#x13d;" horiz-adv-x="1087" 
d="M575 1397l-163 -1164h635l-33 -233h-932l197 1397h296zM544 1516l-120 327h168l124 -186l205 186h187l-258 -327h-306z" />
    <glyph glyph-name="lcaron" unicode="&#x13e;" horiz-adv-x="811" 
d="M539 1397l-197 -1397h-276l196 1397h277zM565 992q119 26 160 133q-90 49 -90 142q0 70 49.5 109.5t106.5 39.5q70 0 123.5 -56t53.5 -139q0 -126 -112.5 -230.5t-316.5 -110.5z" />
    <glyph glyph-name="Ldot" unicode="&#x13f;" horiz-adv-x="1087" 
d="M575 1397l-163 -1164h635l-33 -233h-932l197 1397h296zM948 744q0 -67 -48 -115t-115 -48t-115 47.5t-48 115.5q0 67 48 115t115 48t115 -48t48 -115z" />
    <glyph glyph-name="ldot" unicode="&#x140;" horiz-adv-x="853" 
d="M539 1397l-197 -1397h-276l196 1397h277zM854 700q0 -67 -48 -115t-115 -48t-115 47.5t-48 115.5q0 67 48 115t115 48t115 -48t48 -115z" />
    <glyph glyph-name="Nacute" unicode="&#x143;" horiz-adv-x="1599" 
d="M1571 1397l-195 -1397h-282l-578 946l-131 -946h-297l197 1397h297l567 -912l125 912h297zM849 1491l182 352h330l-363 -352h-149z" />
    <glyph glyph-name="nacute" unicode="&#x144;" 
d="M469 930l-16 -105q155 121 317 121q122 0 187 -75.5t65 -211.5q0 -40 -6 -84l-80 -575h-277l78 555q4 24 4 48q0 138 -86 138q-99 0 -233 -143l-84 -598h-277l132 930h276zM538 1032l182 352h330l-363 -352h-149z" />
    <glyph glyph-name="Ncedilla" unicode="&#x145;" horiz-adv-x="1599" 
d="M1571 1397l-195 -1397h-282l-578 946l-131 -946h-297l197 1397h297l567 -912l125 912h297zM641 -76q154 0 201.5 -35.5t47.5 -89.5q0 -67 -57.5 -111.5t-178.5 -44.5q-71 0 -143 20l22 93q45 -10 91 -10q109 0 109 45q0 14 -14.5 27t-94.5 18z" />
    <glyph glyph-name="ncedilla" unicode="&#x146;" 
d="M469 930l-16 -105q155 121 317 121q122 0 187 -75.5t65 -211.5q0 -40 -6 -84l-80 -575h-277l78 555q4 24 4 48q0 138 -86 138q-99 0 -233 -143l-84 -598h-277l132 930h276zM377 -76q154 0 201.5 -35.5t47.5 -89.5q0 -67 -57.5 -111.5t-178.5 -44.5q-71 0 -143 20l22 93
q45 -10 91 -10q109 0 109 45q0 14 -14.5 27t-94.5 18z" />
    <glyph glyph-name="Ncaron" unicode="&#x147;" horiz-adv-x="1599" 
d="M1571 1397l-195 -1397h-282l-578 946l-131 -946h-297l197 1397h297l567 -912l125 912h297zM774 1516l-120 327h168l124 -186l205 186h187l-258 -327h-306z" />
    <glyph glyph-name="ncaron" unicode="&#x148;" 
d="M469 930l-16 -105q155 121 317 121q122 0 187 -75.5t65 -211.5q0 -40 -6 -84l-80 -575h-277l78 555q4 24 4 48q0 138 -86 138q-99 0 -233 -143l-84 -598h-277l132 930h276zM484 1057l-120 327h168l124 -186l205 186h187l-258 -327h-306z" />
    <glyph glyph-name="napostrophe" unicode="&#x149;" horiz-adv-x="1579" 
d="M922 930l-16 -105q155 121 317 121q122 0 187 -75.5t65 -211.5q0 -40 -6 -84l-80 -575h-277l78 555q4 24 4 48q0 138 -86 138q-99 0 -233 -143l-84 -598h-277l132 930h276zM98 823l31 125q132 30 176 148q-98 55 -98 155q0 69 49.5 116.5t122.5 47.5q81 0 138.5 -63
t57.5 -152q0 -150 -133.5 -263.5t-343.5 -113.5z" />
    <glyph glyph-name="Eng" unicode="&#x14a;" horiz-adv-x="1609" 
d="M835 -465l32 232q81 0 133 30t70.5 87t38.5 193l85 599q20 139 20 224q0 255 -265 255q-162 0 -296.5 -112t-177.5 -406l-93 -637h-297l203 1397h297l-24 -153q233 172 472 172q217 0 351 -135.5t134 -338.5q0 -84 -25 -262l-95 -668q-31 -215 -80 -298.5t-146.5 -132.5
t-251.5 -49q-29 0 -85 3z" />
    <glyph glyph-name="eng" unicode="&#x14b;" horiz-adv-x="1143" 
d="M456 -458l32 221q66 0 110 32.5t66 204.5l70 534q10 75 10 105q0 97 -83 97q-107 0 -243 -138l-86 -598h-272l132 929h272l-14 -104q155 121 320 121q125 0 188 -77t63 -198q0 -63 -10 -140l-68 -489q-33 -241 -70 -322t-124 -136.5t-198 -55.5q-49 0 -95 14z" />
    <glyph glyph-name="Omacron" unicode="&#x14c;" horiz-adv-x="1706" 
d="M944 1415q304 0 496 -178t192 -459q0 -353 -226 -574.5t-579 -221.5q-306 0 -505 183t-199 466q0 337 233.5 560.5t587.5 223.5zM829 240q207 0 351.5 151t144.5 367q0 173 -113.5 286t-287.5 113q-202 0 -348 -151t-146 -361q0 -179 111.5 -292t287.5 -113zM1430 1786
l-60 -205h-792l59 205h793z" />
    <glyph glyph-name="omacron" unicode="&#x14d;" horiz-adv-x="1153" 
d="M608 946q203 0 332 -121.5t129 -316.5q0 -222 -152.5 -374t-375.5 -152q-198 0 -333.5 130t-135.5 318q0 211 158 363.5t378 152.5zM543 207q105 0 172 96.5t67 212.5q0 92 -51 148.5t-135 56.5q-111 0 -174.5 -99.5t-63.5 -207.5q0 -94 56 -150.5t129 -56.5zM1081 1327
l-60 -205h-792l59 205h793z" />
    <glyph glyph-name="Obreve" unicode="&#x14e;" horiz-adv-x="1706" 
d="M944 1415q304 0 496 -178t192 -459q0 -353 -226 -574.5t-579 -221.5q-306 0 -505 183t-199 466q0 337 233.5 560.5t587.5 223.5zM829 240q207 0 351.5 151t144.5 367q0 173 -113.5 286t-287.5 113q-202 0 -348 -151t-146 -361q0 -179 111.5 -292t287.5 -113zM1140 1837
h180q-14 -147 -105.5 -232t-225.5 -85q-268 0 -287 317h180q13 -133 117 -133q102 0 141 133z" />
    <glyph glyph-name="obreve" unicode="&#x14f;" horiz-adv-x="1153" 
d="M608 946q203 0 332 -121.5t129 -316.5q0 -222 -152.5 -374t-375.5 -152q-198 0 -333.5 130t-135.5 318q0 211 158 363.5t378 152.5zM543 207q105 0 172 96.5t67 212.5q0 92 -51 148.5t-135 56.5q-111 0 -174.5 -99.5t-63.5 -207.5q0 -94 56 -150.5t129 -56.5zM835 1378
h180q-14 -147 -105.5 -232t-225.5 -85q-268 0 -287 317h180q13 -133 117 -133q102 0 141 133z" />
    <glyph glyph-name="Odblacute" unicode="&#x150;" horiz-adv-x="1706" 
d="M944 1415q304 0 496 -178t192 -459q0 -353 -226 -574.5t-579 -221.5q-306 0 -505 183t-199 466q0 337 233.5 560.5t587.5 223.5zM829 240q207 0 351.5 151t144.5 367q0 173 -113.5 286t-287.5 113q-202 0 -348 -151t-146 -361q0 -179 111.5 -292t287.5 -113zM699 1508
l76 335h260l-211 -335h-125zM1041 1508l76 335h260l-211 -335h-125z" />
    <glyph glyph-name="odblacute" unicode="&#x151;" horiz-adv-x="1153" 
d="M608 946q203 0 332 -121.5t129 -316.5q0 -222 -152.5 -374t-375.5 -152q-198 0 -333.5 130t-135.5 318q0 211 158 363.5t378 152.5zM543 207q105 0 172 96.5t67 212.5q0 92 -51 148.5t-135 56.5q-111 0 -174.5 -99.5t-63.5 -207.5q0 -94 56 -150.5t129 -56.5zM356 1049
l76 335h260l-211 -335h-125zM698 1049l76 335h260l-211 -335h-125z" />
    <glyph glyph-name="Racute" unicode="&#x154;" horiz-adv-x="1323" 
d="M283 1397h479q224 0 347.5 -124.5t123.5 -295.5q0 -138 -80.5 -237t-230.5 -128v-4q84 -33 147 -164l215 -444h-328l-133 283q-89 188 -138 235t-159 47h-63l-78 -565h-297zM547 1163l-53 -381h147q135 0 210 57.5t75 145.5q0 83 -62 130.5t-172 47.5h-145zM618 1491
l182 352h330l-363 -352h-149z" />
    <glyph glyph-name="racute" unicode="&#x155;" horiz-adv-x="748" 
d="M455 930l-21 -133l4 -4q124 153 226 153q78 0 165 -102l-129 -256q-67 100 -131 100q-55 0 -110 -57t-58 -78l-77 -553h-277l131 930h277zM348 1032l182 352h330l-363 -352h-149z" />
    <glyph glyph-name="Rcedilla" unicode="&#x156;" horiz-adv-x="1323" 
d="M283 1397h479q224 0 347.5 -124.5t123.5 -295.5q0 -138 -80.5 -237t-230.5 -128v-4q84 -33 147 -164l215 -444h-328l-133 283q-89 188 -138 235t-159 47h-63l-78 -565h-297zM547 1163l-53 -381h147q135 0 210 57.5t75 145.5q0 83 -62 130.5t-172 47.5h-145zM524 -76
q154 0 201.5 -35.5t47.5 -89.5q0 -67 -57.5 -111.5t-178.5 -44.5q-71 0 -143 20l22 93q45 -10 91 -10q109 0 109 45q0 14 -14.5 27t-94.5 18z" />
    <glyph glyph-name="rcedilla" unicode="&#x157;" horiz-adv-x="748" 
d="M455 930l-21 -133l4 -4q124 153 226 153q78 0 165 -102l-129 -256q-67 100 -131 100q-55 0 -110 -57t-58 -78l-77 -553h-277l131 930h277zM106 -76q154 0 201.5 -35.5t47.5 -89.5q0 -67 -57.5 -111.5t-178.5 -44.5q-71 0 -143 20l22 93q45 -10 91 -10q109 0 109 45
q0 14 -14.5 27t-94.5 18z" />
    <glyph glyph-name="Rcaron" unicode="&#x158;" horiz-adv-x="1323" 
d="M283 1397h479q224 0 347.5 -124.5t123.5 -295.5q0 -138 -80.5 -237t-230.5 -128v-4q84 -33 147 -164l215 -444h-328l-133 283q-89 188 -138 235t-159 47h-63l-78 -565h-297zM547 1163l-53 -381h147q135 0 210 57.5t75 145.5q0 83 -62 130.5t-172 47.5h-145zM564 1516
l-120 327h168l124 -186l205 186h187l-258 -327h-306z" />
    <glyph glyph-name="rcaron" unicode="&#x159;" horiz-adv-x="748" 
d="M455 930l-21 -133l4 -4q124 153 226 153q78 0 165 -102l-129 -256q-67 100 -131 100q-55 0 -110 -57t-58 -78l-77 -553h-277l131 930h277zM324 1057l-120 327h168l124 -186l205 186h187l-258 -327h-306z" />
    <glyph glyph-name="Sacute" unicode="&#x15a;" horiz-adv-x="1067" 
d="M1042 1305l-41 -246q-75 54 -173.5 88.5t-172.5 34.5q-84 0 -140 -43.5t-56 -110.5q0 -40 31.5 -80.5t199 -140.5t225.5 -196.5t58 -200.5q0 -185 -128 -306.5t-345 -121.5q-275 0 -475 133l45 243q90 -64 200.5 -103.5t194.5 -39.5q91 0 146 42.5t55 111.5
q0 48 -35.5 97t-204 153t-221.5 192t-53 182q0 180 140 301t351 121t399 -110zM578 1491l182 352h330l-363 -352h-149z" />
    <glyph glyph-name="sacute" unicode="&#x15b;" horiz-adv-x="768" 
d="M735 862l-22 -219q-72 36 -150 57t-119 21q-61 0 -61 -41t110 -123q126 -94 162.5 -157t36.5 -126q0 -126 -97.5 -208t-250.5 -82q-159 0 -321 84l38 206q170 -65 254 -65q91 0 91 51q0 43 -121 134.5t-156 146t-35 104.5q0 133 97.5 217t250.5 84q145 0 293 -84z
M358 1032l182 352h330l-363 -352h-149z" />
    <glyph glyph-name="Scircumflex" unicode="&#x15c;" horiz-adv-x="1067" 
d="M1042 1305l-41 -246q-75 54 -173.5 88.5t-172.5 34.5q-84 0 -140 -43.5t-56 -110.5q0 -40 31.5 -80.5t199 -140.5t225.5 -196.5t58 -200.5q0 -185 -128 -306.5t-345 -121.5q-275 0 -475 133l45 243q90 -64 200.5 -103.5t194.5 -39.5q91 0 146 42.5t55 111.5
q0 48 -35.5 97t-204 153t-221.5 192t-53 182q0 180 140 301t351 121t399 -110zM861 1843l120 -327h-167l-125 186l-205 -186h-187l258 327h306z" />
    <glyph glyph-name="scircumflex" unicode="&#x15d;" horiz-adv-x="768" 
d="M735 862l-22 -219q-72 36 -150 57t-119 21q-61 0 -61 -41t110 -123q126 -94 162.5 -157t36.5 -126q0 -126 -97.5 -208t-250.5 -82q-159 0 -321 84l38 206q170 -65 254 -65q91 0 91 51q0 43 -121 134.5t-156 146t-35 104.5q0 133 97.5 217t250.5 84q145 0 293 -84z
M670 1384l120 -327h-167l-125 186l-205 -186h-187l258 327h306z" />
    <glyph glyph-name="Scommaaccent" unicode="&#x15e;" horiz-adv-x="1067" 
d="M1042 1305l-41 -246q-171 123 -346 123q-82 0 -139 -42t-57 -112q0 -48 42 -90.5t188 -130.5q284 -170 284 -397q0 -179 -120.5 -299t-320.5 -128l-9 -30q108 -31 108 -137q0 -83 -64.5 -127.5t-172.5 -44.5q-88 0 -142 20l21 92q40 -10 92 -10q109 0 109 66q0 61 -88 65
l48 107q-234 15 -409 131l45 243q201 -143 395 -143q87 0 144 40.5t57 113.5q0 58 -46.5 109t-193.5 141q-159 99 -216.5 185.5t-57.5 188.5q0 187 143 304.5t348 117.5q211 0 399 -110z" />
    <glyph glyph-name="scommaaccent" unicode="&#x15f;" horiz-adv-x="768" 
d="M735 862l-22 -219q-156 78 -269 78q-61 0 -61 -41t110 -123q199 -149 199 -283q0 -117 -84.5 -196.5t-214.5 -90.5l-10 -34q108 -31 108 -137q0 -83 -64.5 -127.5t-172.5 -44.5q-88 0 -142 20l21 92q40 -10 92 -10q109 0 109 66q0 61 -88 65l48 109q-134 11 -271 82
l38 206q170 -65 254 -65q91 0 91 51q0 35 -120 135q-138 115 -165 158t-27 92q0 136 98.5 218.5t249.5 82.5q145 0 293 -84z" />
    <glyph glyph-name="Tcedilla" unicode="&#x162;" horiz-adv-x="1268" 
d="M1364 1397l-33 -234h-454l-164 -1163h-297l164 1163h-443l33 234h1194zM444 -76q154 0 201.5 -35.5t47.5 -89.5q0 -67 -57.5 -111.5t-178.5 -44.5q-71 0 -143 20l22 93q45 -10 91 -10q109 0 109 45q0 14 -14.5 27t-94.5 18z" />
    <glyph glyph-name="tcedilla" unicode="&#x163;" horiz-adv-x="748" 
d="M733 930l-37 -205h-204q-54 -305 -57.5 -324.5t-3.5 -48.5q0 -123 83 -123q50 0 160 56v-244q-96 -49 -182 -55l-13 -33q109 -31 109 -137q0 -80 -63 -126t-175 -46q-87 0 -141 20l20 92q41 -10 93 -10q108 0 108 66q0 59 -88 65l47 109q-116 16 -180 97.5t-64 200.5
q0 42 8 86l66 355h-188l35 205h188l33 196h280l-39 -196h205z" />
    <glyph glyph-name="Tcaron" unicode="&#x164;" horiz-adv-x="1268" 
d="M1364 1397l-33 -234h-454l-164 -1163h-297l164 1163h-443l33 234h1194zM619 1516l-120 327h168l124 -186l205 186h187l-258 -327h-306z" />
    <glyph glyph-name="tcaron" unicode="&#x165;" horiz-adv-x="1088" 
d="M567 1126l-39 -196h205l-37 -205h-204l-54 -301q-7 -39 -7 -72q0 -123 83 -123q50 0 160 56v-244q-122 -59 -238 -59q-135 0 -212.5 85.5t-77.5 221.5q0 42 8 82l65 354h-188l35 205h188l33 196h280zM857 1180q119 26 160 133q-90 49 -90 142q0 70 49.5 109.5t106.5 39.5
q70 0 123.5 -56t53.5 -139q0 -126 -112.5 -230.5t-316.5 -110.5z" />
    <glyph glyph-name="Tbar" unicode="&#x166;" horiz-adv-x="1259" 
d="M806 669h391l-21 -169h-394l-71 -500h-300l71 500h-363l21 169h366l70 492h-443l34 236h1193l-33 -236h-451z" />
    <glyph glyph-name="tbar" unicode="&#x167;" horiz-adv-x="747" 
d="M463 567h206l-21 -165h-216q-7 -46 -7 -76q0 -94 82 -94q70 0 166 63v-252q-120 -60 -236 -60q-148 0 -219 89.5t-71 205.5q0 54 12 124h-172l21 165h181l29 156h-188l36 206h188l35 195h277l-38 -195h204l-35 -206h-206z" />
    <glyph glyph-name="Utilde" unicode="&#x168;" horiz-adv-x="1536" 
d="M1532 1397l-123 -871q-76 -544 -643 -544q-299 0 -459 134.5t-160 374.5q0 53 8 111l115 795h297l-113 -791q-5 -40 -5 -75q0 -144 88 -217.5t229 -73.5q143 0 236 79.5t114 231.5l119 846h297zM1260 1815q1 -145 -53 -224t-148 -79q-54 0 -147 49t-119 49q-70 0 -78 -96
h-131q0 301 199 301q69 0 155.5 -49.5t112.5 -49.5q64 0 78 99h131z" />
    <glyph glyph-name="utilde" unicode="&#x169;" 
d="M1066 930l-131 -930h-277l17 104q-145 -120 -301 -120q-130 0 -201 76t-71 207q0 34 5 73l84 590h277l-70 -494q-9 -63 -9 -109q0 -139 83 -139q107 0 233 136l84 606h277zM977 1356q1 -145 -53 -224t-148 -79q-54 0 -147 49t-119 49q-70 0 -78 -96h-131q0 301 199 301
q69 0 155.5 -49.5t112.5 -49.5q64 0 78 99h131z" />
    <glyph glyph-name="Umacron" unicode="&#x16a;" horiz-adv-x="1536" 
d="M1532 1397l-123 -871q-76 -544 -643 -544q-299 0 -459 134.5t-160 374.5q0 53 8 111l115 795h297l-113 -791q-5 -40 -5 -75q0 -144 88 -217.5t229 -73.5q143 0 236 79.5t114 231.5l119 846h297zM1366 1786l-60 -205h-792l59 205h793z" />
    <glyph glyph-name="umacron" unicode="&#x16b;" 
d="M1066 930l-131 -930h-277l17 104q-145 -120 -301 -120q-130 0 -201 76t-71 207q0 34 5 73l84 590h277l-70 -494q-9 -63 -9 -109q0 -139 83 -139q107 0 233 136l84 606h277zM1106 1327l-60 -205h-792l59 205h793z" />
    <glyph glyph-name="Ubreve" unicode="&#x16c;" horiz-adv-x="1536" 
d="M1532 1397l-123 -871q-76 -544 -643 -544q-299 0 -459 134.5t-160 374.5q0 53 8 111l115 795h297l-113 -791q-5 -40 -5 -75q0 -144 88 -217.5t229 -73.5q143 0 236 79.5t114 231.5l119 846h297zM1046 1837h180q-14 -147 -105.5 -232t-225.5 -85q-268 0 -287 317h180
q13 -133 117 -133q102 0 141 133z" />
    <glyph glyph-name="ubreve" unicode="&#x16d;" 
d="M1066 930l-131 -930h-277l17 104q-145 -120 -301 -120q-130 0 -201 76t-71 207q0 34 5 73l84 590h277l-70 -494q-9 -63 -9 -109q0 -139 83 -139q107 0 233 136l84 606h277zM797 1378h180q-14 -147 -105.5 -232t-225.5 -85q-268 0 -287 317h180q13 -133 117 -133
q102 0 141 133z" />
    <glyph glyph-name="Uring" unicode="&#x16e;" horiz-adv-x="1536" 
d="M1532 1397l-123 -871q-76 -544 -643 -544q-299 0 -459 134.5t-160 374.5q0 53 8 111l115 795h297l-113 -791q-5 -40 -5 -75q0 -144 88 -217.5t229 -73.5q143 0 236 79.5t114 231.5l119 846h297zM719 1669q0 84 60.5 144.5t144.5 60.5t144 -60.5t60 -144.5t-60 -144
t-144 -60t-144.5 60t-60.5 144zM1036 1669q0 46 -33.5 79.5t-78.5 33.5q-46 0 -79.5 -33.5t-33.5 -79.5q0 -45 33.5 -78.5t79.5 -33.5q45 0 78.5 33.5t33.5 78.5z" />
    <glyph glyph-name="uring" unicode="&#x16f;" 
d="M1066 930l-131 -930h-277l17 104q-145 -120 -301 -120q-130 0 -201 76t-71 207q0 34 5 73l84 590h277l-70 -494q-9 -63 -9 -109q0 -139 83 -139q107 0 233 136l84 606h277zM466 1210q0 84 60.5 144.5t144.5 60.5t144 -60.5t60 -144.5t-60 -144t-144 -60t-144.5 60
t-60.5 144zM783 1210q0 46 -33.5 79.5t-78.5 33.5q-46 0 -79.5 -33.5t-33.5 -79.5q0 -45 33.5 -78.5t79.5 -33.5q45 0 78.5 33.5t33.5 78.5z" />
    <glyph glyph-name="Udblacute" unicode="&#x170;" horiz-adv-x="1536" 
d="M1532 1397l-123 -871q-76 -544 -643 -544q-299 0 -459 134.5t-160 374.5q0 53 8 111l115 795h297l-113 -791q-5 -40 -5 -75q0 -144 88 -217.5t229 -73.5q143 0 236 79.5t114 231.5l119 846h297zM653 1508l76 335h260l-211 -335h-125zM995 1508l76 335h260l-211 -335h-125
z" />
    <glyph glyph-name="udblacute" unicode="&#x171;" 
d="M1066 930l-131 -930h-277l17 104q-145 -120 -301 -120q-130 0 -201 76t-71 207q0 34 5 73l84 590h277l-70 -494q-9 -63 -9 -109q0 -139 83 -139q107 0 233 136l84 606h277zM363 1049l76 335h260l-211 -335h-125zM705 1049l76 335h260l-211 -335h-125z" />
    <glyph glyph-name="Uogonek" unicode="&#x172;" horiz-adv-x="1536" 
d="M1532 1397l-123 -871q-42 -295 -226 -430l4 2q-120 -85 -120 -168q0 -65 80 -65q57 0 149 47v-152q-87 -24 -160 -24q-231 0 -231 143q0 59 45 120q-85 -17 -184 -17q-291 0 -455 131t-164 378q0 55 8 111l115 795h297l-113 -791q-5 -35 -5 -75q0 -138 84.5 -214.5
t232.5 -76.5q147 0 238 81t112 230l119 846h297z" />
    <glyph glyph-name="uogonek" unicode="&#x173;" horiz-adv-x="1131" 
d="M794 0q-25 -37 -25 -70q0 -26 21 -46t58 -20q51 0 151 48v-151q-79 -25 -161 -25q-119 0 -174.5 40.5t-55.5 102.5q0 58 45 121l15 104q-145 -121 -304 -121q-108 0 -186.5 65t-78.5 204q0 60 25 229l63 448h271l-67 -477q-14 -99 -14 -161q0 -104 78 -104q116 0 244 138
l86 604h272l-132 -929h-131z" />
    <glyph glyph-name="Wcircumflex" unicode="&#x174;" horiz-adv-x="1942" 
d="M2044 1397l-688 -1415h-121l-225 864l-471 -864h-123l-285 1415h281l151 -822l445 822h145l213 -822l377 822h301zM1305 1843l120 -327h-167l-125 186l-205 -186h-187l258 327h306z" />
    <glyph glyph-name="wcircumflex" unicode="&#x175;" horiz-adv-x="1493" 
d="M1550 930l-528 -946h-178l-101 481l-268 -481h-174l-233 946h268l110 -539l279 539h166l100 -539l269 539h290zM1022 1384l120 -327h-167l-125 186l-205 -186h-187l258 327h306z" />
    <glyph glyph-name="Ycircumflex" unicode="&#x176;" horiz-adv-x="1153" 
d="M1266 1397l-527 -811l-82 -586h-297l82 586l-295 811h297l181 -539l323 539h318zM910 1843l120 -327h-167l-125 186l-205 -186h-187l258 327h306z" />
    <glyph glyph-name="ycircumflex" unicode="&#x177;" horiz-adv-x="1004" 
d="M1044 930l-675 -1401h-291l270 557l-297 844h277l182 -543l246 543h288zM782 1384l120 -327h-167l-125 186l-205 -186h-187l258 327h306z" />
    <glyph glyph-name="Zacute" unicode="&#x179;" horiz-adv-x="1300" 
d="M1432 1397l-932 -1164h694l-33 -233h-1224l933 1163h-677l34 234h1205zM690 1491l182 352h330l-363 -352h-149z" />
    <glyph glyph-name="zacute" unicode="&#x17a;" horiz-adv-x="938" 
d="M936 930l-457 -701h404l-35 -229h-846l473 700h-377l33 230h805zM408 1032l182 352h330l-363 -352h-149z" />
    <glyph glyph-name="Zdot" unicode="&#x17b;" horiz-adv-x="1300" 
d="M1432 1397l-932 -1164h694l-33 -233h-1224l933 1163h-677l34 234h1205zM847 1871q66 0 113 -47t47 -113q0 -67 -46.5 -114.5t-113.5 -47.5t-114.5 47.5t-47.5 114.5t47.5 113.5t114.5 46.5z" />
    <glyph glyph-name="zdot" unicode="&#x17c;" horiz-adv-x="938" 
d="M936 930l-457 -701h404l-35 -229h-846l473 700h-377l33 230h805zM556 1412q66 0 113 -47t47 -113q0 -67 -46.5 -114.5t-113.5 -47.5t-114.5 47.5t-47.5 114.5t47.5 113.5t114.5 46.5z" />
    <glyph glyph-name="longs" unicode="&#x17f;" horiz-adv-x="683" 
d="M935 1368l-34 -223q-90 35 -154 35q-68 0 -113.5 -35.5t-61.5 -85t-42 -205.5l-123 -854h-271l128 907q40 283 159 396t286 113q111 0 226 -48z" />
    <glyph glyph-name="Aringacute" unicode="&#x1fa;" horiz-adv-x="1280" 
d="M1190 0h-305l-43 305h-434l-136 -305h-327l681 1409q-38 51 -38 118q0 84 60 144.5t145 60.5t144.5 -60t59.5 -145q0 -76 -50 -133zM793 1640q-47 0 -80 -33.5t-33 -79.5t33.5 -79t79.5 -33q45 0 78.5 33t33.5 79t-33 79.5t-79 33.5zM817 504l-74 618l-249 -618h323z
M653 1791l182 352h330l-363 -352h-149z" />
    <glyph glyph-name="aringacute" unicode="&#x1fb;" 
d="M1067 915l-129 -915h-276l12 86q-130 -104 -268 -104q-141 0 -233.5 112t-92.5 287q0 250 174.5 407.5t499.5 157.5q162 0 313 -31zM700 270l62 443q-31 3 -60 3q-166 0 -250.5 -100.5t-84.5 -248.5q0 -84 36 -131.5t99 -47.5q100 0 198 82zM510 1210q0 84 60.5 144.5
t144.5 60.5t144 -60.5t60 -144.5t-60 -144t-144 -60t-144.5 60t-60.5 144zM827 1210q0 46 -33.5 79.5t-78.5 33.5q-46 0 -79.5 -33.5t-33.5 -79.5q0 -45 33.5 -78.5t79.5 -33.5q45 0 78.5 33.5t33.5 78.5zM639 1466l182 352h330l-363 -352h-149z" />
    <glyph glyph-name="AEacute" unicode="&#x1fc;" horiz-adv-x="2028" 
d="M1995 1397l-27 -234h-637l-45 -327h563l-34 -234h-562l-53 -369h795l-39 -233h-1086l50 346h-490l-221 -346h-342l897 1397h1231zM1038 1190h-71l-406 -637h387zM1224 1491l182 352h330l-363 -352h-149z" />
    <glyph glyph-name="aeacute" unicode="&#x1fd;" horiz-adv-x="1409" 
d="M1329 424h-571q-3 -19 -3 -37q0 -92 61.5 -146.5t158.5 -54.5q104 0 305 88l-31 -221q-137 -71 -329 -71q-201 0 -347 141q-161 -141 -323 -141q-115 0 -189.5 65.5t-74.5 163.5q0 268 518 346q12 48 12 80q0 84 -94 84q-85 0 -277 -88l33 227q143 86 297 86
q146 0 238 -86q114 86 262 86q157 0 265 -107.5t108 -275.5q0 -67 -19 -139zM772 584h318q2 17 2 34q0 57 -34.5 90t-94.5 33q-138 0 -191 -157zM444 207l33 180q-217 -35 -217 -145q0 -76 74 -76q45 0 110 41zM627 1032l182 352h330l-363 -352h-149z" />
    <glyph glyph-name="Oslashacute" unicode="&#x1fe;" horiz-adv-x="1706" 
d="M408 98l-187 -207l-96 91l178 198q-180 184 -180 451q0 337 233.5 560.5t587.5 223.5q213 0 379 -94l117 131l139 -55l-141 -156q194 -184 194 -463q0 -353 -226 -574.5t-579 -221.5q-235 0 -419 116zM500 401l630 705q-99 51 -206 51q-202 0 -348 -151t-146 -361
q0 -144 70 -244zM1237 1018l-641 -711q106 -67 233 -67q207 0 351.5 151t144.5 367q0 146 -88 260zM821 1508l182 352h330l-363 -352h-149z" />
    <glyph glyph-name="oslashacute" unicode="&#x1ff;" horiz-adv-x="1153" 
d="M283 55l-133 -157l-76 67l129 152q-131 133 -131 313q0 211 158 363.5t378 152.5q144 0 248 -61l127 149l78 -63l-123 -144q131 -123 131 -319q0 -222 -152.5 -374t-375.5 -152q-141 0 -258 73zM377 322l317 372q-35 27 -98 27q-111 0 -174.5 -99.5t-63.5 -207.5
q0 -55 19 -92zM762 618l-320 -378q47 -33 101 -33q105 0 172 96.5t67 212.5q0 50 -20 102zM473 1032l182 352h330l-363 -352h-149z" />
    <glyph glyph-name="tonos" unicode="&#x384;" horiz-adv-x="658" 
d="M620 1544l-178 -455h-137l80 455h235z" />
    <glyph glyph-name="dieresistonos" unicode="&#x385;" horiz-adv-x="682" 
d="M620 1544l-178 -455h-137l80 455h235zM778 1089q-57 0 -96 38.5t-39 94.5q0 58 38 97t95 39q59 0 99.5 -38.5t39.5 -97.5q0 -56 -40 -94.5t-97 -38.5zM102 1089q-57 0 -96 38.5t-39 94.5t39.5 96t95.5 40q57 0 97 -38.5t40 -95.5q1 -55 -39.5 -95t-97.5 -40z" />
    <glyph glyph-name="Alphatonos" unicode="&#x386;" horiz-adv-x="1280" 
d="M944 1415l246 -1415h-305l-43 305h-434l-136 -305h-327l684 1415h315zM494 504h323l-74 618zM414 1415l-178 -455h-137l80 455h235z" />
    <glyph glyph-name="anoteleia" unicode="&#x387;" horiz-adv-x="532" 
d="M299 530q-74 0 -126 52.5t-52 125.5q0 74 52 126.5t126 52.5t126 -52.5t52 -126.5q0 -73 -52.5 -125.5t-125.5 -52.5z" />
    <glyph glyph-name="Epsilontonos" unicode="&#x388;" horiz-adv-x="1354" 
d="M1283 1397l-33 -234h-575l-47 -329h506l-33 -234h-506l-51 -367h725l-33 -233h-1022l197 1397h872zM304 1415l-178 -455h-137l80 455h235z" />
    <glyph glyph-name="Etatonos" unicode="&#x389;" horiz-adv-x="1810" 
d="M1713 1397l-196 -1397h-297l82 569h-713l-80 -569h-297l197 1397h297l-78 -553h711l77 553h297zM304 1415l-178 -455h-137l80 455h235z" />
    <glyph glyph-name="Iotatonos" unicode="&#x38a;" horiz-adv-x="786" 
d="M706 1397l-197 -1397h-297l197 1397h297zM304 1415l-178 -455h-137l80 455h235z" />
    <glyph glyph-name="Omicrontonos" unicode="&#x38c;" horiz-adv-x="1796" 
d="M1027 1415q304 0 496 -178t192 -459q0 -353 -226 -574.5t-579 -221.5q-306 0 -505 183t-199 466q0 337 233.5 560.5t587.5 223.5zM912 240q207 0 351.5 151t144.5 367q0 173 -113.5 286t-287.5 113q-202 0 -348 -151t-146 -361q0 -179 111.5 -292t287.5 -113zM304 1415
l-178 -455h-137l80 455h235z" />
    <glyph glyph-name="Upsilontonos" unicode="&#x38e;" horiz-adv-x="1396" 
d="M1473 1397l-527 -811l-82 -586h-297l82 586l-295 811h297l181 -539l323 539h318zM305 1415l-178 -455h-137l80 455h235z" />
    <glyph glyph-name="Omegatonos" unicode="&#x38f;" horiz-adv-x="1801" 
d="M1384 262h221l-47 -262h-598l43 246q182 38 299.5 197t117.5 355q0 166 -105.5 262.5t-281.5 96.5q-198 0 -344 -132t-146 -323q0 -302 210 -442l-45 -260h-596l47 262h272q-187 181 -187 471q0 262 205 473t599 211q306 0 492.5 -162t186.5 -403q0 -175 -93.5 -335.5
t-249.5 -254.5zM304 1415l-178 -455h-137l80 455h235z" />
    <glyph glyph-name="iotadieresistonos" unicode="&#x390;" horiz-adv-x="639" 
d="M577 237l-32 -211q-134 -36 -238 -36q-100 0 -158.5 58.5t-58.5 158.5q0 17 6 57l102 666h271l-90 -619q-4 -27 -4 -39q0 -59 69 -59q52 0 133 24zM620 1544l-178 -455h-137l80 455h235zM778 1089q-57 0 -96 38.5t-39 94.5q0 58 38 97t95 39q59 0 99.5 -38.5t39.5 -97.5
q0 -56 -40 -94.5t-97 -38.5zM102 1089q-57 0 -96 38.5t-39 94.5t39.5 96t95.5 40q57 0 97 -38.5t40 -95.5q1 -55 -39.5 -95t-97.5 -40z" />
    <glyph glyph-name="Alpha" unicode="&#x391;" horiz-adv-x="1280" 
d="M944 1415l246 -1415h-305l-43 305h-434l-136 -305h-327l684 1415h315zM494 504h323l-74 618z" />
    <glyph glyph-name="Beta" unicode="&#x392;" horiz-adv-x="1300" 
d="M287 1397h444q228 0 346.5 -91.5t118.5 -246.5q0 -207 -203 -311q122 -37 191 -131t69 -211q0 -160 -128.5 -283t-350.5 -123h-684zM553 1163l-47 -307h201q95 0 146.5 45t51.5 121q0 141 -196 141h-156zM475 623l-59 -390h282q121 0 184.5 55t63.5 150q0 88 -70 136.5
t-190 48.5h-211z" />
    <glyph glyph-name="Gamma" unicode="&#x393;" horiz-adv-x="1118" 
d="M1216 1396l-37 -235h-614l-178 -1161h-297l211 1396h915z" />
    <glyph glyph-name="Delta" unicode="&#x394;" horiz-adv-x="1288" 
d="M1198 0h-1253l686 1415h319zM860 235l-119 834l-364 -834h483z" />
    <glyph glyph-name="Epsilon" unicode="&#x395;" horiz-adv-x="1194" 
d="M1155 1397l-33 -234h-575l-47 -329h506l-33 -234h-506l-51 -367h725l-33 -233h-1022l197 1397h872z" />
    <glyph glyph-name="Zeta" unicode="&#x396;" horiz-adv-x="1300" 
d="M1432 1397l-932 -1164h694l-33 -233h-1224l933 1163h-677l34 234h1205z" />
    <glyph glyph-name="Eta" unicode="&#x397;" horiz-adv-x="1622" 
d="M1591 1397l-196 -1397h-297l82 569h-713l-80 -569h-297l197 1397h297l-78 -553h711l77 553h297z" />
    <glyph glyph-name="Theta" unicode="&#x398;" horiz-adv-x="1712" 
d="M821 -14q-304 0 -501 175t-197 459q0 354 235 575.5t598 221.5q292 0 487 -178.5t195 -456.5q0 -352 -229.5 -574t-587.5 -222zM921 1161q-210 0 -352.5 -151.5t-142.5 -368.5q0 -180 112.5 -289.5t294.5 -110.5q209 0 352.5 152.5t143.5 366.5q1 179 -113 290t-295 111z
M1196 802l-30 -206h-611l33 206h608z" />
    <glyph glyph-name="Iota" unicode="&#x399;" horiz-adv-x="618" 
d="M586 1397l-197 -1397h-297l197 1397h297z" />
    <glyph glyph-name="Kappa" unicode="&#x39a;" horiz-adv-x="1323" 
d="M1442 1397l-627 -631l543 -766h-344l-527 741l-104 -741h-297l197 1397h297l-84 -596l594 596h352z" />
    <glyph glyph-name="Lambda" unicode="&#x39b;" horiz-adv-x="1288" 
d="M1198 0h-303l-156 1071l-465 -1071h-329l686 1415h313z" />
    <glyph glyph-name="Mu" unicode="&#x39c;" horiz-adv-x="1942" 
d="M1765 1397l66 -1397h-287l-47 944l-518 -944h-141l-250 971l-316 -971h-299l455 1397h326l225 -879l471 879h315z" />
    <glyph glyph-name="Nu" unicode="&#x39d;" horiz-adv-x="1599" 
d="M1571 1397l-195 -1397h-282l-578 946l-131 -946h-297l197 1397h297l567 -912l125 912h297z" />
    <glyph glyph-name="Xi" unicode="&#x39e;" horiz-adv-x="1497" 
d="M1457 1396l-33 -227h-1145l35 227h1143zM1183 819l-36 -236h-764l35 236h765zM1287 235l-35 -235h-1143l35 235h1143z" />
    <glyph glyph-name="Omicron" unicode="&#x39f;" horiz-adv-x="1706" 
d="M944 1416q304 0 496 -178t192 -459q0 -353 -226 -574.5t-579 -221.5q-306 0 -505 183t-199 466q0 337 233.5 560.5t587.5 223.5zM829 241q207 0 351.5 151t144.5 367q0 173 -113.5 286t-287.5 113q-202 0 -348 -151t-146 -361q0 -179 111.5 -292t287.5 -113z" />
    <glyph glyph-name="Pi" unicode="&#x3a0;" horiz-adv-x="1632" 
d="M1601 1396l-205 -1396h-305l170 1169h-696l-170 -1169h-305l203 1396h1308z" />
    <glyph glyph-name="Rho" unicode="&#x3a1;" horiz-adv-x="1194" 
d="M289 1397h456q205 0 333 -111.5t128 -304.5q0 -221 -137.5 -338t-368.5 -117h-235l-74 -526h-297zM555 1176l-59 -431h125q134 0 206 60t72 164q0 96 -70.5 151.5t-201.5 55.5h-72z" />
    <glyph glyph-name="Sigma" unicode="&#x3a3;" horiz-adv-x="1298" 
d="M1308 1396l-32 -229h-596l303 -426l-445 -506h682l-30 -235h-1210l648 760l-444 636h1124z" />
    <glyph glyph-name="Tau" unicode="&#x3a4;" horiz-adv-x="1268" 
d="M1364 1397l-33 -234h-454l-164 -1163h-297l164 1163h-443l33 234h1194z" />
    <glyph glyph-name="Upsilon" unicode="&#x3a5;" horiz-adv-x="1153" 
d="M1266 1397l-527 -811l-82 -586h-297l82 586l-295 811h297l181 -539l323 539h318z" />
    <glyph glyph-name="Phi" unicode="&#x3a6;" horiz-adv-x="1935" 
d="M1065 188l-31 -188h-297l27 188q-330 17 -485.5 150t-155.5 344q0 268 212 407.5t584 139.5l27 167h295l-23 -167q338 -13 490.5 -152.5t152.5 -341.5q1 -265 -217 -406t-579 -141zM1181 1001l-86 -581q464 -6 463 307q0 274 -377 274zM884 999q-458 5 -458 -303
q0 -133 95 -205t251 -70l24 1z" />
    <glyph glyph-name="Chi" unicode="&#x3a7;" horiz-adv-x="1386" 
d="M1520 1397l-619 -711l414 -686h-326l-280 465l-416 -465h-369l633 717l-410 680h326l279 -459l399 459h369z" />
    <glyph glyph-name="Psi" unicode="&#x3a8;" horiz-adv-x="1884" 
d="M1892 1397q-22 -608 -260.5 -836t-581.5 -247l-47 -314h-304l45 315q-275 35 -422.5 222t-147.5 491q0 237 27 369h290q-31 -208 -31 -389q0 -171 83.5 -278.5t240.5 -133.5l121 800h291l-108 -799q438 24 491 574l23 226h290z" />
    <glyph glyph-name="Omega" unicode="&#x3a9;" horiz-adv-x="1681" 
d="M1264 262h221l-47 -262h-598l43 246q182 38 299.5 197t117.5 355q0 166 -105.5 262.5t-281.5 96.5q-198 0 -344 -132t-146 -323q0 -302 210 -442l-45 -260h-596l47 262h272q-187 181 -187 471q0 262 205 473t599 211q306 0 492.5 -162t186.5 -403q0 -175 -93.5 -335.5
t-249.5 -254.5z" />
    <glyph glyph-name="Iotadieresis" unicode="&#x3aa;" horiz-adv-x="618" 
d="M586 1397l-197 -1397h-297l197 1397h297zM706 1871q67 0 113.5 -46.5t46.5 -113.5t-46.5 -114.5t-113.5 -47.5q-66 0 -114 47.5t-48 114.5t48 113.5t114 46.5zM238 1871q67 0 113.5 -46.5t45.5 -113.5q1 -67 -45.5 -114.5t-113.5 -47.5t-114.5 47.5t-47.5 114.5
q0 66 48 113t114 47z" />
    <glyph glyph-name="Upsilondieresis" unicode="&#x3ab;" horiz-adv-x="1153" 
d="M1266 1397l-527 -811l-82 -586h-297l82 586l-295 811h297l181 -539l323 539h318zM963 1871q67 0 113.5 -46.5t46.5 -113.5t-46.5 -114.5t-113.5 -47.5q-66 0 -114 47.5t-48 114.5t48 113.5t114 46.5zM495 1871q67 0 113.5 -46.5t45.5 -113.5q1 -67 -45.5 -114.5
t-113.5 -47.5t-114.5 47.5t-47.5 114.5q0 66 48 113t114 47z" />
    <glyph glyph-name="alphatonos" unicode="&#x3ac;" 
d="M1067 915l-129 -915h-276l12 86q-130 -104 -268 -104q-141 0 -233.5 112t-92.5 287q0 250 174.5 407.5t499.5 157.5q162 0 313 -31zM700 270l62 443q-31 3 -60 3q-166 0 -250.5 -100.5t-84.5 -248.5q0 -84 36 -131.5t99 -47.5q100 0 198 82zM970 1544l-178 -455h-137
l80 455h235z" />
    <glyph glyph-name="epsilontonos" unicode="&#x3ad;" horiz-adv-x="962" 
d="M938 905l-29 -193q-211 43 -344 43q-58 1 -98.5 -22.5t-40.5 -65.5q0 -84 176 -84h121l-23 -168h-160q-215 0 -215 -129q0 -106 160 -106q106 0 375 72l-29 -211q-172 -53 -362 -53q-184 0 -306 70.5t-122 201.5q0 192 286 256q-174 55 -174 178q0 125 115 189.5
t313 64.5q196 0 357 -43zM860 1544l-178 -455h-137l80 455h235z" />
    <glyph glyph-name="etatonos" unicode="&#x3ae;" horiz-adv-x="1131" 
d="M865 -469h-274l147 1016q13 86 13 102q0 39 -22 66.5t-58 27.5q-127 0 -254 -174l-82 -569h-274l96 659q2 14 2 25q0 49 -47 49q-1 0 -84 -12l26 196q120 31 228 31q172 0 172 -131q0 -14 -6 -39q95 102 166.5 135t158.5 33q111 0 180.5 -68.5t69.5 -179.5q0 -74 -6 -117
zM910 1544l-178 -455h-137l80 455h235z" />
    <glyph glyph-name="iotatonos" unicode="&#x3af;" horiz-adv-x="639" 
d="M577 237l-32 -211q-134 -36 -238 -36q-100 0 -158.5 58.5t-58.5 158.5q0 17 6 57l102 666h271l-90 -619q-4 -27 -4 -39q0 -59 69 -59q52 0 133 24zM604 1544l-178 -455h-137l80 455h235z" />
    <glyph glyph-name="upsilondieresistonos" unicode="&#x3b0;" horiz-adv-x="1071" 
d="M1050 930l-73 -506q-29 -199 -153.5 -317.5t-313.5 -118.5q-182 -1 -294.5 96.5t-113.5 265.5q0 57 6 98l72 482h270l-65 -457q-10 -70 -10 -90q0 -172 139 -172q157 0 198 278l66 441h272zM840 1544l-178 -455h-137l80 455h235zM998 1089q-57 0 -96 38.5t-39 94.5
q0 58 38 97t95 39q59 0 99.5 -38.5t39.5 -97.5q0 -56 -40 -94.5t-97 -38.5zM322 1089q-57 0 -96 38.5t-39 94.5t39.5 96t95.5 40q57 0 97 -38.5t40 -95.5q1 -55 -39.5 -95t-97.5 -40z" />
    <glyph glyph-name="alpha" unicode="&#x3b1;" 
d="M1067 917l-129 -915h-276l12 86q-130 -104 -268 -104q-141 0 -233.5 112t-92.5 287q0 250 174.5 407.5t499.5 157.5q162 0 313 -31zM700 272l62 443q-31 3 -60 3q-166 0 -250.5 -100.5t-84.5 -248.5q0 -84 36 -131.5t99 -47.5q100 0 198 82z" />
    <glyph glyph-name="beta" unicode="&#x3b2;" horiz-adv-x="1120" 
d="M843 764q193 -82 193 -316q0 -201 -122.5 -331t-318.5 -129q-150 0 -253 77l-78 -532h-270l202 1415q68 469 477 469q165 0 277 -98t112 -252q0 -220 -219 -303zM374 280q110 -69 189 -69q90 0 139 74.5t49 191.5q0 93 -44.5 148t-127.5 55l31 202q190 19 190 187
q0 64 -41.5 109.5t-105.5 45.5q-68 0 -113.5 -57t-58.5 -145z" />
    <glyph glyph-name="gamma" unicode="&#x3b3;" horiz-adv-x="1056" 
d="M1104 930q-95 -145 -248 -420l-289 -520q27 -168 27 -211q0 -96 -41 -171t-111 -75q-139 0 -139 187q0 115 96 270q-27 227 -83 438t-85 251t-63 40q-28 0 -68 -17l-43 191q106 57 207 57q85 0 152 -58t122 -284l23 -92q77 139 235 414h308z" />
    <glyph glyph-name="delta" unicode="&#x3b4;" horiz-adv-x="1149" 
d="M524 927q-133 90 -173 150.5t-40 122.5q0 217 338 217q238 0 410 -45l-45 -195q-231 47 -332 47q-148 0 -148 -41q0 -24 138 -120q227 -158 310 -291.5t83 -274.5q0 -214 -151.5 -363.5t-366.5 -149.5q-203 0 -339 125.5t-137 320.5q1 194 128.5 332t324.5 165zM596 723
q-105 0 -172.5 -95t-67.5 -219q0 -87 51 -144.5t133 -57.5q107 0 173.5 93.5t66.5 217.5q0 89 -50.5 147t-133.5 58z" />
    <glyph glyph-name="epsilon" unicode="&#x3b5;" horiz-adv-x="962" 
d="M938 905l-29 -193q-211 43 -344 43q-58 1 -98.5 -22.5t-40.5 -65.5q0 -84 176 -84h121l-23 -168h-160q-215 0 -215 -129q0 -106 160 -106q106 0 375 72l-29 -211q-172 -53 -362 -53q-184 0 -306 70.5t-122 201.5q0 192 286 256q-174 55 -174 178q0 125 115 189.5
t313 64.5q196 0 357 -43z" />
    <glyph glyph-name="zeta" unicode="&#x3b6;" horiz-adv-x="1053" 
d="M715 1036q-188 -194 -279 -375t-92 -299q0 -63 39.5 -84.5t167.5 -21.5q257 0 359 -79t102 -238q0 -188 -127.5 -298t-331.5 -110q-113 0 -238 33l86 176q90 -16 166 -16q94 0 160 41t66 114q0 62 -42.5 85.5t-203.5 23.5q-475 0 -475 339q0 130 76.5 306t338.5 446
q-160 45 -282 219l151 119q86 -105 150.5 -139.5t161.5 -46.5q237 174 362 174t125 -105q0 -84 -124.5 -154.5t-315.5 -109.5z" />
    <glyph glyph-name="eta" unicode="&#x3b7;" horiz-adv-x="1131" 
d="M865 -469h-274l147 1016q13 86 13 102q0 39 -22 66.5t-58 27.5q-127 0 -254 -174l-82 -569h-274l96 659q2 14 2 25q0 49 -47 49q-1 0 -84 -12l26 196q120 31 228 31q172 0 172 -131q0 -14 -6 -39q95 102 166.5 135t158.5 33q111 0 180.5 -68.5t69.5 -179.5q0 -74 -6 -117
z" />
    <glyph glyph-name="theta" unicode="&#x3b8;" horiz-adv-x="1069" 
d="M483 -14q-190 -1 -300.5 137t-110.5 354q0 370 150.5 655t439.5 285q184 0 295.5 -139.5t111.5 -345.5q0 -344 -140.5 -645t-445.5 -301zM408 811h364q12 86 12 151q0 101 -37.5 166.5t-107.5 65.5q-86 0 -150 -117.5t-81 -265.5zM731 590h-362q-13 -101 -13 -144
q1 -103 38 -170t106 -67q154 0 231 381z" />
    <glyph glyph-name="iota" unicode="&#x3b9;" horiz-adv-x="639" 
d="M577 237l-32 -211q-134 -36 -238 -36q-100 0 -158.5 58.5t-58.5 158.5q0 17 6 57l102 666h271l-90 -619q-4 -27 -4 -39q0 -59 69 -59q52 0 133 24z" />
    <glyph glyph-name="kappa" unicode="&#x3ba;" horiz-adv-x="1109" 
d="M1099 913l-74 -215q-48 17 -71 17q-58 0 -115 -72l-135 -170l276 -473h-299l-278 473l-70 -473h-272l135 930h272l-59 -412l217 274q72 92 134 123t147 31q94 0 192 -33z" />
    <glyph glyph-name="lambda" unicode="&#x3bb;" horiz-adv-x="977" 
d="M936 198l-56 -212q-38 -2 -30 -2q-76 0 -156 64t-108.5 136.5t-86.5 319.5q-72 -169 -225 -504h-284q300 638 399 940q-32 202 -203 284l113 189q124 -14 209 -88t139 -305q129 -569 166 -675.5t123 -146.5z" />
    <glyph glyph-name="mu" unicode="&#x3bc;" horiz-adv-x="1218" 
d="M1173 233l-30 -211q-95 -40 -185 -40q-114 0 -200 94q-87 -92 -207 -92q-121 0 -203 112l-84 -569h-274l202 1403h275l-66 -447q-6 -40 -6 -92q1 -78 43 -132t111 -54q138 0 163 180l78 545h273l-86 -615q-6 -42 -6 -55q0 -55 59 -55q48 0 143 28z" />
    <glyph glyph-name="nu" unicode="&#x3bd;" horiz-adv-x="938" 
d="M985 937l-504 -946h-188l-238 946h269l120 -516l248 516h293z" />
    <glyph glyph-name="xi" unicode="&#x3be;" horiz-adv-x="1073" 
d="M997 934l-26 -189l-178 2q-182 0 -315 -103.5t-134 -264.5q0 -71 31 -105.5t133 -34.5q22 0 65 2q42 2 64 2q195 1 286 -82.5t91 -223.5q0 -182 -128 -293t-323 -111q-100 0 -217 27l82 182q93 -16 150 -16q89 0 152 44t63 118q0 45 -33 72.5t-152 27.5h-149
q-211 0 -299 95.5t-88 241.5q0 172 116 320.5t289 212.5q-104 66 -104 166q0 67 55 129q-136 31 -237 108l137 160q119 -105 266 -131q187 125 397 125q154 0 154 -94q0 -84 -106 -133t-252 -56q-106 -3 -138 -16.5t-32 -58.5q0 -123 190 -123h190z" />
    <glyph glyph-name="omicron" unicode="&#x3bf;" horiz-adv-x="1153" 
d="M608 946q203 0 332 -121.5t129 -316.5q0 -222 -152.5 -374t-375.5 -152q-198 0 -333.5 130t-135.5 318q0 211 158 363.5t378 152.5zM543 207q105 0 172 96.5t67 212.5q0 92 -51 148.5t-135 56.5q-111 0 -174.5 -99.5t-63.5 -207.5q0 -94 56 -150.5t129 -56.5z" />
    <glyph glyph-name="pi1" unicode="&#x3c0;" horiz-adv-x="1245" 
d="M1237 932l-35 -222h-92l-103 -710h-274l100 710h-323l-101 -710h-272l100 708q-96 0 -186 -53l33 227q86 50 186 50h967z" />
    <glyph glyph-name="rho" unicode="&#x3c1;" horiz-adv-x="1202" 
d="M340 51l-76 -518h-274l141 977q28 190 176 314t340 124q207 0 339 -122.5t132 -321.5q0 -222 -151 -371t-373 -149q-138 0 -254 67zM643 725q-110 0 -180 -89t-70 -212q0 -99 54 -158t147 -59q107 0 173.5 89.5t66.5 213.5q0 215 -191 215z" />
    <glyph glyph-name="sigma1" unicode="&#x3c2;" horiz-adv-x="1126" 
d="M1126 860q-25 -45 -100 -191q-114 58 -254 58q-187 0 -307 -90.5t-121 -247.5q0 -79 37 -114.5t127 -35.5q22 0 65 2q42 2 64 2q195 1 286 -82.5t91 -223.5q0 -182 -128 -293t-323 -111q-101 0 -217 27l82 182q93 -16 150 -16q89 0 152 44t63 118q0 45 -33 72.5
t-152 27.5h-149q-209 -1 -298 94.5t-89 271.5q0 221 189.5 406.5t500.5 185.5q229 0 364 -86z" />
    <glyph glyph-name="sigma" unicode="&#x3c3;" horiz-adv-x="1228" 
d="M1218 934l-28 -226h-209q88 -81 88 -225q0 -208 -154.5 -351.5t-369.5 -143.5q-205 0 -339.5 123t-134.5 319q0 216 156 360t379 144h612zM594 710q-103 1 -167 -85t-65 -205q0 -92 51 -150.5t136 -58.5q105 0 167 87t62 214q0 89 -50 143.5t-134 54.5z" />
    <glyph glyph-name="tau" unicode="&#x3c4;" horiz-adv-x="1003" 
d="M995 934l-29 -222h-280l-101 -712h-274l102 712h-147q-111 0 -193 -53l31 225q89 50 193 50h698z" />
    <glyph glyph-name="upsilon" unicode="&#x3c5;" horiz-adv-x="1071" 
d="M1050 930l-73 -506q-29 -199 -153.5 -317.5t-313.5 -118.5q-182 -1 -294.5 96.5t-113.5 265.5q0 57 6 98l72 482h270l-65 -457q-10 -70 -10 -90q0 -172 139 -172q157 0 198 278l66 441h272z" />
    <glyph glyph-name="phi" unicode="&#x3c6;" horiz-adv-x="1465" 
d="M794 -16l-68 -453h-270l64 453q-191 3 -319.5 122.5t-128.5 302.5q0 184 153.5 352.5t431.5 184.5l69 469h273l-66 -469q194 -6 321.5 -123.5t126.5 -298.5q0 -183 -151.5 -353t-435.5 -187zM900 725l-73 -518q112 7 197 104t85 213q0 84 -62 143.5t-147 57.5zM626 723
q-114 -13 -198 -107t-84 -209q1 -85 60 -141.5t148 -58.5z" />
    <glyph glyph-name="chi" unicode="&#x3c7;" horiz-adv-x="1036" 
d="M1050 930l-409 -635l80 -209l66 -182q33 -87 73 -118t115 -38l-54 -215q-27 -4 -55 -4q-73 0 -149.5 34.5t-110.5 83t-147 369.5l-300 -466h-286l481 747l-86 233q-39 108 -86.5 151.5t-116.5 61.5l70 201q32 4 51 4q214 0 303 -238l49 -131l228 351h284z" />
    <glyph glyph-name="psi" unicode="&#x3c8;" horiz-adv-x="1463" 
d="M1442 930l-61 -447q-34 -248 -182.5 -376t-394.5 -121l-66 -455h-274l65 455q-202 12 -314.5 145t-112.5 350q0 27 2 41l61 408h271l-56 -388q-6 -41 -6 -81q0 -207 188 -254l176 1208h275l-179 -1217q241 33 283 334l55 398h270z" />
    <glyph glyph-name="omega" unicode="&#x3c9;" horiz-adv-x="1710" 
d="M811 170q-136 -182 -340 -182q-167 -1 -283 126t-116 301q0 128 56 275t144 256h312q-228 -301 -228 -543q1 -81 42.5 -136.5t111.5 -55.5q102 0 156 106.5t89 393.5h273q-4 -32 -26 -154q-19 -101 -19 -150q0 -85 46 -140.5t122 -55.5q90 0 140.5 85t50.5 206
q0 212 -115 444h284q115 -222 115 -447q0 -213 -129.5 -362t-329.5 -149q-197 0 -356 182z" />
    <glyph glyph-name="iotadieresis" unicode="&#x3ca;" horiz-adv-x="639" 
d="M577 237l-32 -211q-134 -36 -238 -36q-100 0 -158.5 58.5t-58.5 158.5q0 17 6 57l102 666h271l-90 -619q-4 -27 -4 -39q0 -59 69 -59q52 0 133 24zM656 1412q67 0 113.5 -46.5t46.5 -113.5t-46.5 -114.5t-113.5 -47.5q-66 0 -114 47.5t-48 114.5t48 113.5t114 46.5z
M188 1412q67 0 113.5 -46.5t45.5 -113.5q1 -67 -45.5 -114.5t-113.5 -47.5t-114.5 47.5t-47.5 114.5q0 66 48 113t114 47z" />
    <glyph glyph-name="upsilondieresis" unicode="&#x3cb;" horiz-adv-x="1071" 
d="M1050 930l-73 -506q-29 -199 -153.5 -317.5t-313.5 -118.5q-182 -1 -294.5 96.5t-113.5 265.5q0 57 6 98l72 482h270l-65 -457q-10 -70 -10 -90q0 -172 139 -172q157 0 198 278l66 441h272zM886 1412q67 0 113.5 -46.5t46.5 -113.5t-46.5 -114.5t-113.5 -47.5
q-66 0 -114 47.5t-48 114.5t48 113.5t114 46.5zM418 1412q67 0 113.5 -46.5t45.5 -113.5q1 -67 -45.5 -114.5t-113.5 -47.5t-114.5 47.5t-47.5 114.5q0 66 48 113t114 47z" />
    <glyph glyph-name="omicrontonos" unicode="&#x3cc;" horiz-adv-x="1153" 
d="M608 946q203 0 332 -121.5t129 -316.5q0 -222 -152.5 -374t-375.5 -152q-198 0 -333.5 130t-135.5 318q0 211 158 363.5t378 152.5zM543 207q105 0 172 96.5t67 212.5q0 92 -51 148.5t-135 56.5q-111 0 -174.5 -99.5t-63.5 -207.5q0 -94 56 -150.5t129 -56.5zM870 1544
l-178 -455h-137l80 455h235z" />
    <glyph glyph-name="upsilontonos" unicode="&#x3cd;" horiz-adv-x="1071" 
d="M1050 930l-73 -506q-29 -199 -153.5 -317.5t-313.5 -118.5q-182 -1 -294.5 96.5t-113.5 265.5q0 57 6 98l72 482h270l-65 -457q-10 -70 -10 -90q0 -172 139 -172q157 0 198 278l66 441h272zM870 1544l-178 -455h-137l80 455h235z" />
    <glyph glyph-name="omegatonos" unicode="&#x3ce;" horiz-adv-x="1710" 
d="M811 170q-136 -182 -340 -182q-167 -1 -283 126t-116 301q0 128 56 275t144 256h312q-228 -301 -228 -543q1 -81 42.5 -136.5t111.5 -55.5q102 0 156 106.5t89 393.5h273q-4 -32 -26 -154q-19 -101 -19 -150q0 -85 46 -140.5t122 -55.5q90 0 140.5 85t50.5 206
q0 212 -115 444h284q115 -222 115 -447q0 -213 -129.5 -362t-329.5 -149q-197 0 -356 182zM1160 1544l-178 -455h-137l80 455h235z" />
    <glyph glyph-name="afii10023" unicode="&#x401;" horiz-adv-x="1194" 
d="M1155 1397l-33 -234h-575l-47 -329h506l-33 -234h-506l-51 -367h725l-33 -233h-1022l197 1397h872zM984 1871q67 0 113.5 -46.5t46.5 -113.5t-46.5 -114.5t-113.5 -47.5q-66 0 -114 47.5t-48 114.5t48 113.5t114 46.5zM516 1871q67 0 113.5 -46.5t45.5 -113.5
q1 -67 -45.5 -114.5t-113.5 -47.5t-114.5 47.5t-47.5 114.5q0 66 48 113t114 47z" />
    <glyph glyph-name="afii10051" unicode="&#x402;" horiz-adv-x="1671" 
d="M876 1163l-43 -315q45 42 140 71t174 29q213 0 338 -113.5t124 -308.5q1 -220 -181.5 -382t-434.5 -162q-43 0 -129 8l35 245l74 4q149 9 239.5 79.5t89.5 185.5q0 186 -235 186q-148 0 -275 -131l-80 -559h-297l164 1163h-442l33 233h1194l-33 -233h-455zM611 1397z" />
    <glyph glyph-name="afii10052" unicode="&#x403;" horiz-adv-x="1071" 
d="M387 0h-297l196 1396h881l-35 -233h-581zM526 1491l182 352h330l-363 -352h-149z" />
    <glyph glyph-name="afii10053" unicode="&#x404;" horiz-adv-x="1413" 
d="M471 819h541l-35 -234h-545q10 -160 116 -252.5t281 -93.5q221 0 508 164l-43 -311q-251 -110 -491 -110q-304 0 -492 176.5t-188 461.5q0 353 253.5 574t657.5 221q174 0 379 -51l-49 -258q-167 51 -338 51q-418 0 -555 -338z" />
    <glyph glyph-name="afii10054" unicode="&#x405;" horiz-adv-x="1067" 
d="M1042 1305l-41 -246q-75 54 -173.5 88.5t-172.5 34.5q-84 0 -140 -43.5t-56 -110.5q0 -40 31.5 -80.5t199 -140.5t225.5 -196.5t58 -200.5q0 -185 -128 -306.5t-345 -121.5q-275 0 -475 133l45 243q90 -64 200.5 -103.5t194.5 -39.5q91 0 146 42.5t55 111.5
q0 48 -35.5 97t-204 153t-221.5 192t-53 182q0 180 140 301t351 121t399 -110z" />
    <glyph glyph-name="afii10055" unicode="&#x406;" horiz-adv-x="618" 
d="M586 1397l-197 -1397h-297l197 1397h297z" />
    <glyph glyph-name="afii10056" unicode="&#x407;" horiz-adv-x="618" 
d="M586 1397l-197 -1397h-297l197 1397h297zM706 1871q67 0 113.5 -46.5t46.5 -113.5t-46.5 -114.5t-113.5 -47.5q-66 0 -114 47.5t-48 114.5t48 113.5t114 46.5zM238 1871q67 0 113.5 -46.5t45.5 -113.5q1 -67 -45.5 -114.5t-113.5 -47.5t-114.5 47.5t-47.5 114.5
q0 66 48 113t114 47z" />
    <glyph glyph-name="afii10057" unicode="&#x408;" horiz-adv-x="618" 
d="M590 1397l-207 -1469q-56 -399 -444 -399q-50 0 -107 6l33 232q110 0 161 49.5t68 171.5l199 1409h297z" />
    <glyph glyph-name="afii10058" unicode="&#x409;" horiz-adv-x="1877" 
d="M634 1415h310l90 -500h208q599 0 599 -448q0 -196 -149.5 -331.5t-424.5 -135.5h-371l-155 1070l-465 -1070h-331zM1281 682h-205l79 -449h133q117 0 181 64.5t64 169.5q0 95 -71.5 155t-180.5 60zM1192 -1z" />
    <glyph glyph-name="afii10059" unicode="&#x40a;" horiz-adv-x="2309" 
d="M1294 1396h297l-78 -552h209q268 0 409.5 -104.5t141.5 -272.5q0 -208 -146.5 -337.5t-426.5 -129.5h-603l82 569h-712l-80 -569h-297l196 1396h297l-77 -552h710zM1427 233h283q121 1 188.5 54t67.5 143q0 139 -281 139h-207z" />
    <glyph glyph-name="afii10060" unicode="&#x40b;" horiz-adv-x="1577" 
d="M1511 530l-74 -530h-297l72 512q3 21 3 42q0 161 -189 161h-213l-101 -715h-297l164 1163h-442l33 233h1194l-33 -233h-455l-30 -215h233q438 0 438 -341q0 -37 -6 -77zM611 1397zM908 1397z" />
    <glyph glyph-name="afii10061" unicode="&#x40c;" horiz-adv-x="1454" 
d="M286 1396h297l-75 -546h98q152 0 239 157l105 189q114 205 381 205q29 0 78 -5l-72 -251q-120 0 -184 -119l-76 -139q-80 -146 -184 -201q141 -92 254 -334l163 -352h-333l-136 301q-76 170 -150.5 231.5t-174.5 61.5h-45l-84 -594h-297zM733 1491l182 352h330l-363 -352
h-149z" />
    <glyph glyph-name="afii10062" unicode="&#x40e;" horiz-adv-x="1391" 
d="M467 1396l303 -719l389 719h348l-550 -954q-180 -312 -291.5 -386t-288.5 -74q-168 0 -256 55l32 306q77 -65 220 -65q145 0 203 109l-453 1009h344zM931 1849h180q-14 -147 -105.5 -232t-225.5 -85q-268 0 -287 317h180q13 -133 117 -133q102 0 141 133z" />
    <glyph glyph-name="afii10145" unicode="&#x40f;" horiz-adv-x="1622" 
d="M1294 1396h297l-197 -1396h-458l-54 -336h-333l47 336h-506l196 1396h297l-157 -1122h710zM1097 -1z" />
    <glyph glyph-name="afii10017" unicode="&#x410;" horiz-adv-x="1280" 
d="M944 1415l246 -1415h-305l-43 305h-434l-136 -305h-327l684 1415h315zM494 504h323l-74 618z" />
    <glyph glyph-name="afii10018" unicode="&#x411;" horiz-adv-x="1302" 
d="M286 1396h945l-39 -233h-645l-39 -274h149q592 0 592 -457q0 -175 -164.5 -303.5t-451.5 -128.5h-543zM688 655h-213l-60 -422h248q126 0 202.5 65t76.5 156q0 93 -70 147t-184 54z" />
    <glyph glyph-name="afii10019" unicode="&#x412;" horiz-adv-x="1300" 
d="M287 1397h444q228 0 346.5 -91.5t118.5 -246.5q0 -207 -203 -311q122 -37 191 -131t69 -211q0 -160 -128.5 -283t-350.5 -123h-684zM553 1163l-47 -307h201q95 0 146.5 45t51.5 121q0 141 -196 141h-156zM475 623l-59 -390h282q121 0 184.5 55t63.5 150q0 88 -70 136.5
t-190 48.5h-211z" />
    <glyph glyph-name="afii10020" unicode="&#x413;" horiz-adv-x="1071" 
d="M387 0h-297l196 1396h881l-35 -233h-581z" />
    <glyph glyph-name="afii10021" unicode="&#x414;" horiz-adv-x="1579" 
d="M1307 233h200l-63 -569h-279l43 336h-960l-66 -336h-278l114 569h197l571 1182h316zM901 1122h-4l-371 -889h488z" />
    <glyph glyph-name="afii10022" unicode="&#x415;" horiz-adv-x="1194" 
d="M1155 1397l-33 -234h-575l-47 -329h506l-33 -234h-506l-51 -367h725l-33 -233h-1022l197 1397h872z" />
    <glyph glyph-name="afii10024" unicode="&#x416;" horiz-adv-x="2273" 
d="M1140 1396h297l-75 -546h63q152 0 240 157l104 189q114 205 381 205q29 0 78 -5l-72 -251q-119 0 -184 -119l-76 -139q-79 -146 -184 -201q141 -92 254 -334l164 -352h-334l-135 301q-75 166 -149 229.5t-177 63.5h-10l-84 -594h-297l84 594h-10q-178 0 -394 -293
l-221 -301h-362l270 352q120 156 203.5 229.5t206.5 112.5q-131 112 -156 203l-35 129q-13 52 -44 85.5t-128 33.5l21 251q53 5 55 5q147 0 219.5 -48.5t101.5 -156.5l52 -189q25 -89 71.5 -123t126.5 -34h58z" />
    <glyph glyph-name="afii10025" unicode="&#x417;" horiz-adv-x="1136" 
d="M383 577h-109l43 252l109 4q297 11 297 187q0 137 -246 137q-129 0 -293 -66l19 250q188 74 393 74q225 0 359 -96t134 -240q0 -127 -80 -223t-211 -141q117 -64 163 -137t46 -181q0 -190 -164.5 -302.5t-381.5 -112.5q-245 0 -441 51l43 274q142 -68 314 -68
q282 0 282 176q0 162 -276 162z" />
    <glyph glyph-name="afii10026" unicode="&#x418;" horiz-adv-x="1622" 
d="M1411 1396h180l-197 -1396h-297l132 899l-979 -899h-160l196 1396h297l-127 -925z" />
    <glyph glyph-name="afii10027" unicode="&#x419;" horiz-adv-x="1622" 
d="M1411 1396h180l-197 -1396h-297l132 899l-979 -899h-160l196 1396h297l-127 -925zM1152 1837h180q-14 -147 -105.5 -232t-225.5 -85q-268 0 -287 317h180q13 -133 117 -133q102 0 141 133z" />
    <glyph glyph-name="afii10028" unicode="&#x41a;" horiz-adv-x="1454" 
d="M286 1396h297l-75 -546h98q152 0 239 157l105 189q114 205 381 205q29 0 78 -5l-72 -251q-120 0 -184 -119l-76 -139q-80 -146 -184 -201q141 -92 254 -334l163 -352h-333l-136 301q-76 170 -150.5 231.5t-174.5 61.5h-45l-84 -594h-297z" />
    <glyph glyph-name="afii10029" unicode="&#x41b;" horiz-adv-x="1288" 
d="M-55 0l686 1415h313l254 -1415h-303l-156 1071l-465 -1071h-329z" />
    <glyph glyph-name="afii10030" unicode="&#x41c;" horiz-adv-x="1942" 
d="M1765 1397l66 -1397h-287l-47 944l-518 -944h-141l-250 971l-316 -971h-299l455 1397h326l225 -879l471 879h315z" />
    <glyph glyph-name="afii10031" unicode="&#x41d;" horiz-adv-x="1622" 
d="M1591 1397l-196 -1397h-297l82 569h-713l-80 -569h-297l197 1397h297l-78 -553h711l77 553h297z" />
    <glyph glyph-name="afii10032" unicode="&#x41e;" horiz-adv-x="1706" 
d="M944 1415q304 0 496 -178t192 -459q0 -353 -226 -574.5t-579 -221.5q-306 0 -505 183t-199 466q0 337 233.5 560.5t587.5 223.5zM829 240q207 0 351.5 151t144.5 367q0 173 -113.5 286t-287.5 113q-202 0 -348 -151t-146 -361q0 -179 111.5 -292t287.5 -113z" />
    <glyph glyph-name="afii10033" unicode="&#x41f;" horiz-adv-x="1622" 
d="M286 1396h1305l-197 -1396h-297l156 1122h-708l-158 -1122h-297zM1285 1397z" />
    <glyph glyph-name="afii10034" unicode="&#x420;" horiz-adv-x="1194" 
d="M289 1397h456q205 0 333 -111.5t128 -304.5q0 -221 -137.5 -338t-368.5 -117h-235l-74 -526h-297zM555 1176l-59 -431h125q134 0 206 60t72 164q0 96 -70.5 151.5t-201.5 55.5h-72z" />
    <glyph glyph-name="afii10035" unicode="&#x421;" horiz-adv-x="1409" 
d="M1409 1364l-49 -258q-166 51 -338 51q-283 0 -439.5 -162t-156.5 -381q0 -171 108 -272.5t291 -101.5q225 0 508 163l-43 -311q-249 -110 -491 -110q-304 0 -492 177t-188 462q0 349 254 571.5t657 222.5q176 0 379 -51z" />
    <glyph glyph-name="afii10036" unicode="&#x422;" horiz-adv-x="1268" 
d="M1364 1397l-33 -234h-454l-164 -1163h-297l164 1163h-443l33 234h1194z" />
    <glyph glyph-name="afii10037" unicode="&#x423;" horiz-adv-x="1391" 
d="M467 1396l303 -719l389 719h348l-550 -954q-180 -312 -291.5 -386t-288.5 -74q-168 0 -256 55l32 306q77 -65 220 -65q145 0 203 109l-453 1009h344z" />
    <glyph glyph-name="afii10038" unicode="&#x424;" horiz-adv-x="1749" 
d="M825 1239l23 157h297l-23 -157h72q223 0 352 -124.5t129 -334.5q1 -273 -182 -447.5t-473 -175.5h-49l-21 -157h-297l23 157h-72q-221 0 -351 125t-130 334q0 273 182.5 448t472.5 175h47zM1140 965h-60l-70 -535h47q132 0 223.5 88.5t91.5 232.5q0 113 -50 163.5
t-182 50.5zM660 430h53l77 535h-48q-131 0 -223.5 -89t-92.5 -233q0 -111 50 -162t184 -51z" />
    <glyph glyph-name="afii10039" unicode="&#x425;" horiz-adv-x="1386" 
d="M1520 1397l-619 -711l414 -686h-326l-280 465l-416 -465h-369l633 717l-410 680h326l279 -459l399 459h369z" />
    <glyph glyph-name="afii10040" unicode="&#x426;" horiz-adv-x="1634" 
d="M90 0l196 1396h297l-161 -1122h622l160 1122h297l-158 -1122h277l-97 -610h-299l62 336h-1196zM1012 -1z" />
    <glyph glyph-name="afii10041" unicode="&#x427;" horiz-adv-x="1374" 
d="M1046 1396h297l-196 -1396h-297l73 522q-149 -61 -290 -61q-238 0 -374 102t-136 291q0 47 14 155l51 387h305l-41 -296q-18 -134 -18 -193q0 -172 246 -172q163 0 284 59z" />
    <glyph glyph-name="afii10042" unicode="&#x428;" horiz-adv-x="2140" 
d="M422 274h469l157 1122h297l-162 -1122h469l160 1122h297l-198 -1396h-1821l196 1396h297zM1151 -1zM859 -1zM1620 -1z" />
    <glyph glyph-name="afii10043" unicode="&#x429;" horiz-adv-x="2242" 
d="M422 274h469l157 1122h297l-162 -1122h469l160 1122h297l-158 -1122h277l-96 -610h-299l61 336h-1804l196 1396h297zM859 -1zM1151 -1zM1620 -1z" />
    <glyph glyph-name="afii10044" unicode="&#x42a;" horiz-adv-x="1423" 
d="M41 1396h663l-67 -481h176q284 1 428.5 -110t144.5 -316q1 -207 -142.5 -348t-414.5 -141h-614l164 1163h-375zM798 682h-194l-64 -449h273q120 1 193 77t73 175q0 197 -281 197zM411 1397z" />
    <glyph glyph-name="afii10045" unicode="&#x42b;" horiz-adv-x="1942" 
d="M1614 1396h297l-197 -1396h-297zM90 0l196 1396h302l-70 -481h170q284 0 428.5 -110.5t144.5 -315.5q0 -208 -143.5 -348.5t-413.5 -140.5h-614zM674 682h-189l-61 -449h264q120 0 193 76t73 176q0 197 -280 197z" />
    <glyph glyph-name="afii10046" unicode="&#x42c;" horiz-adv-x="1298" 
d="M90 0l196 1396h302l-66 -481h166q284 0 428.5 -110.5t144.5 -315.5q0 -208 -143.5 -348.5t-413.5 -140.5h-614zM674 682h-185l-63 -449h262q120 0 193 76t73 176q0 197 -280 197z" />
    <glyph glyph-name="afii10047" unicode="&#x42d;" horiz-adv-x="1483" 
d="M246 1022l47 303q215 90 436 90q304 0 492 -176.5t188 -462.5q0 -352 -253.5 -573t-658.5 -221q-174 0 -378 51l49 258q166 -52 338 -52q420 0 559 349h-578l39 233h574q-13 156 -119 246t-279 90q-204 0 -456 -135z" />
    <glyph glyph-name="afii10048" unicode="&#x42e;" horiz-adv-x="2277" 
d="M583 1396l-81 -579h215q62 270 280.5 434t517.5 164q306 0 497 -177.5t191 -459.5q0 -354 -225 -575t-579 -221q-292 -1 -488 166.5t-215 434.5h-227l-82 -583h-297l196 1396h297zM1495 1157q-203 0 -348 -150.5t-146 -361.5q1 -180 112 -293t288 -113q207 1 351 151.5
t144 367.5q1 174 -112.5 286.5t-288.5 112.5z" />
    <glyph glyph-name="afii10049" unicode="&#x42f;" horiz-adv-x="1386" 
d="M-104 0l268 342q152 194 303 241q-238 127 -238 363q0 196 147.5 323t393.5 127h586l-197 -1396h-297l74 506h-97q-75 0 -173 -65t-183 -177l-199 -264h-388zM786 723h178l62 440h-211q-130 0 -205.5 -64t-75.5 -165q0 -100 67 -155.5t185 -55.5zM1058 1397z" />
    <glyph glyph-name="afii10065" unicode="&#x430;" 
d="M1067 915l-129 -915h-276l12 86q-130 -104 -268 -104q-141 0 -233.5 112t-92.5 287q0 250 174.5 407.5t499.5 157.5q162 0 313 -31zM700 270l62 443q-31 3 -60 3q-166 0 -250.5 -100.5t-84.5 -248.5q0 -84 36 -131.5t99 -47.5q100 0 198 82z" />
    <glyph glyph-name="afii10066" unicode="&#x431;" horiz-adv-x="1180" 
d="M1096 1198l-160 -6q-233 -9 -357.5 -113.5t-181.5 -302.5q86 96 167 133t198 37q134 0 234 -109.5t100 -271.5q0 -239 -170 -411t-418 -172q-196 0 -316 129t-120 348q0 353 196.5 637.5t561.5 326.5l339 39zM369 409q0 -91 45.5 -146.5t126.5 -55.5q108 0 184 92.5
t76 224.5q0 87 -46 142t-122 55q-114 0 -189 -82t-75 -230z" />
    <glyph glyph-name="afii10067" unicode="&#x432;" horiz-adv-x="1085" 
d="M631 0h-570l131 870q64 30 187.5 53t201.5 23q430 0 430 -221q1 -90 -68 -153.5t-165 -78.5q207 -54 207 -231q0 -120 -96.5 -191t-257.5 -71zM415 551l156 14q152 14 152 113q0 96 -146 96q-28 0 -133 -33zM362 172h156q84 0 131 38.5t47 100.5q0 38 -44.5 67t-98.5 29
q-95 0 -160 -26z" />
    <glyph glyph-name="afii10068" unicode="&#x433;" horiz-adv-x="829" 
d="M192 930h692l-36 -230h-412l-98 -700h-277z" />
    <glyph glyph-name="afii10069" unicode="&#x434;" 
d="M710 942h357l-119 -842q-84 -571 -592 -571q-121 0 -225.5 25.5t-130.5 60.5v273q104 -123 356 -123q128 -1 227 98.5t99 224.5q-98 -88 -285 -88q-148 0 -235.5 103.5t-88.5 281.5q1 257 167 407t470 150zM696 278l62 430q-26 2 -50 2q-164 1 -258 -83.5t-94 -235.5
q0 -186 162 -186q107 0 178 73z" />
    <glyph glyph-name="afii10070" unicode="&#x435;" horiz-adv-x="1044" 
d="M958 426h-608q-10 -110 50 -175t163 -65q114 0 344 95l-49 -232q-181 -67 -323 -67q-211 0 -337 123t-126 329q0 213 147 362.5t356 149.5q181 0 289.5 -107.5t108.5 -283.5q0 -62 -15 -129zM377 586h325q3 17 3 34q0 61 -37 98.5t-99 37.5q-133 0 -192 -170z" />
    <glyph glyph-name="afii10072" unicode="&#x436;" horiz-adv-x="1736" 
d="M768 575l49 355h276l-49 -355h23q131 0 200 113l150 242h319l-159 -252q-90 -143 -201 -201q91 -43 176 -219l125 -258h-297l-96 209q-75 161 -244 161h-24l-54 -370h-276l53 370h-24q-179 0 -291 -170l-133 -200h-334l162 223q153 211 303 260q-84 59 -138 215l-79 232
h292l80 -242q19 -55 57.5 -84t133.5 -29z" />
    <glyph glyph-name="afii10073" unicode="&#x437;" horiz-adv-x="940" 
d="M301 383h-53l34 168h72q191 0 191 94q0 76 -175 76q-120 0 -223 -41l45 211q159 55 312 55q163 0 266 -61.5t102 -163.5q1 -90 -65 -155t-164 -89q188 -78 188 -207q0 -288 -479 -288q-54 -1 -163 21.5t-167 51.5l45 207q105 -55 246 -55q191 0 191 100q0 76 -203 76z
" />
    <glyph glyph-name="afii10074" unicode="&#x438;" 
d="M909 930h158l-131 -930h-277l72 493l-543 -493h-127l131 930h277l-68 -482z" />
    <glyph glyph-name="afii10075" unicode="&#x439;" 
d="M909 930h158l-131 -930h-277l72 493l-543 -493h-127l131 930h277l-68 -482zM830 1378h180q-14 -147 -105.5 -232t-225.5 -85q-268 0 -287 317h180q13 -133 117 -133q102 0 141 133z" />
    <glyph glyph-name="afii10076" unicode="&#x43a;" horiz-adv-x="1140" 
d="M337 0h-276l131 930h276l-53 -355h55q131 0 201 113l150 242h319l-160 -250q-102 -160 -219 -221q126 -60 195 -201l125 -258h-297l-97 209q-74 161 -243 161h-51z" />
    <glyph glyph-name="afii10077" unicode="&#x43b;" horiz-adv-x="999" 
d="M649 0l-117 516h-6l-299 -516h-313l584 946h204l246 -946h-299z" />
    <glyph glyph-name="afii10078" unicode="&#x43c;" horiz-adv-x="1499" 
d="M47 0l211 930h258l229 -496l406 496h237l-63 -930h-285l39 518l-397 -518l-242 536l-117 -536h-276z" />
    <glyph glyph-name="afii10079" unicode="&#x43d;" horiz-adv-x="1160" 
d="M61 0l131 930h277l-49 -355h352l49 355h276l-131 -930h-276l53 370h-352l-53 -370h-277z" />
    <glyph glyph-name="afii10080" unicode="&#x43e;" horiz-adv-x="1153" 
d="M608 946q203 0 332 -121.5t129 -316.5q0 -222 -152.5 -374t-375.5 -152q-198 0 -333.5 130t-135.5 318q0 211 158 363.5t378 152.5zM543 207q105 0 172 96.5t67 212.5q0 92 -51 148.5t-135 56.5q-111 0 -174.5 -99.5t-63.5 -207.5q0 -94 56 -150.5t129 -56.5z" />
    <glyph glyph-name="afii10081" unicode="&#x43f;" 
d="M469 930l-16 -105q155 121 317 121q122 0 187 -75.5t65 -211.5q0 -40 -6 -84l-80 -575h-277l78 555q4 24 4 48q0 138 -86 138q-99 0 -233 -143l-84 -598h-277l132 930h276z" />
    <glyph glyph-name="afii10082" unicode="&#x440;" horiz-adv-x="1194" 
d="M567 1110l-24 -180q82 16 170 16q182 0 294.5 -111.5t112.5 -293.5q0 -233 -170 -396t-413 -163q-55 0 -125 18l-66 -471h-276l147 1055q-82 -61 -150 -151q-36 -48 -59 -48q-16 0 -16 18q0 42 62.5 152.5t189.5 214.5l47 340h276zM514 729l-70 -504q40 -18 84 -18
q146 0 226 96t80 232q0 207 -213 207q-49 0 -107 -13z" />
    <glyph glyph-name="afii10083" unicode="&#x441;" horiz-adv-x="961" 
d="M924 913l-35 -249q-73 26 -102.5 33.5t-98.5 7.5q-140 0 -235 -82.5t-95 -202.5q0 -101 63.5 -157t178.5 -56q112 0 264 61l-33 -252q-140 -34 -286 -34q-209 0 -341 125.5t-132 322.5q0 218 172 367t424 149q146 0 256 -33z" />
    <glyph glyph-name="afii10084" unicode="&#x442;" horiz-adv-x="938" 
d="M80 930h911l-37 -230h-307l-98 -700h-277l98 700h-337zM402 931z" />
    <glyph glyph-name="afii10085" unicode="&#x443;" horiz-adv-x="1004" 
d="M1044 930l-675 -1401h-291l270 557l-297 844h277l182 -543l246 543h288z" />
    <glyph glyph-name="afii10086" unicode="&#x444;" horiz-adv-x="1649" 
d="M1088 1396l-72 -522q70 56 176 56q170 0 271.5 -105.5t101.5 -284.5q0 -229 -155 -393.5t-367 -164.5h-156l-62 -453h-276l72 508q-70 -55 -177 -55q-169 -1 -270.5 104.5t-101.5 283.5q0 231 155 395.5t367 164.5h152l65 466h277zM922 207h86q125 0 198 97.5t72 229.5
q1 90 -48 140.5t-130 50.5q-47 0 -113 -45zM721 725h-86q-125 0 -197.5 -97t-72.5 -231q0 -89 48.5 -139.5t129.5 -50.5q46 0 112 45z" />
    <glyph glyph-name="afii10087" unicode="&#x445;" horiz-adv-x="1087" 
d="M1130 930l-405 -475l274 -455h-303l-151 291l-240 -291h-348l440 487l-266 443h305l139 -273l216 273h339z" />
    <glyph glyph-name="afii10088" unicode="&#x446;" horiz-adv-x="1194" 
d="M61 0l131 930h277l-103 -725h353l102 725h276l-102 -725h199l-72 -453h-229l34 248h-866zM691 -1z" />
    <glyph glyph-name="afii10089" unicode="&#x447;" horiz-adv-x="1071" 
d="M731 930h276l-131 -930h-276l47 329q-124 -34 -229 -34q-156 0 -252.5 90t-96.5 223q0 105 15 166l37 156h270l-31 -125q-28 -117 -28 -146q0 -168 139 -168q134 0 203 29z" />
    <glyph glyph-name="afii10090" unicode="&#x448;" horiz-adv-x="1663" 
d="M366 205h289l103 725h276l-102 -725h288l103 725h276l-127 -930h-1411l131 930h277zM1192 -1zM627 -1z" />
    <glyph glyph-name="afii10091" unicode="&#x449;" horiz-adv-x="1695" 
d="M366 205h289l103 725h276l-102 -725h288l103 725h276l-102 -725h198l-71 -453h-230l35 248h-1368l131 930h277zM1192 -1zM627 -1z" />
    <glyph glyph-name="afii10092" unicode="&#x44a;" horiz-adv-x="1237" 
d="M678 0h-488l101 725h-287l26 202h566l-47 -331q135 106 280 106q170 0 273.5 -97.5t103.5 -238.5q1 -160 -145.5 -263t-382.5 -103zM493 205h154q121 0 188.5 48.5t67.5 127.5q0 62 -41.5 100.5t-112.5 38.5q-73 0 -138 -33.5t-91 -91.5zM319 930z" />
    <glyph glyph-name="afii10093" unicode="&#x44b;" horiz-adv-x="1624" 
d="M551 0h-490l131 930h277l-47 -334q135 106 280 106q170 1 273.5 -97t103.5 -239q0 -160 -146 -263t-382 -103zM366 205h154q121 0 188.5 48.5t67.5 127.5q0 62 -41.5 100.5t-112.5 38.5q-73 0 -138 -33.5t-91 -91.5zM1561 930l-131 -930h-277l131 930h277z" />
    <glyph glyph-name="afii10094" unicode="&#x44c;" horiz-adv-x="1110" 
d="M551 0h-490l131 930h277l-47 -334q135 106 280 106q170 1 273.5 -97t103.5 -239q0 -160 -146 -263t-382 -103zM366 205h154q121 0 188.5 48.5t67.5 127.5q0 62 -41.5 100.5t-112.5 38.5q-73 0 -138 -33.5t-91 -91.5z" />
    <glyph glyph-name="afii10095" unicode="&#x44d;" horiz-adv-x="981" 
d="M104 659l33 252q136 35 287 35q209 0 341 -125t132 -324q0 -219 -171.5 -367t-424.5 -148q-154 0 -256 32l35 250q114 -41 200 -41q104 0 186 47t119 127h-344l25 160h340q-32 164 -238 164q-108 0 -264 -62z" />
    <glyph glyph-name="afii10096" unicode="&#x44e;" horiz-adv-x="1603" 
d="M469 930l-51 -367h122q48 168 192 275.5t327 107.5q204 0 332.5 -121t127.5 -317q0 -223 -151.5 -374.5t-376.5 -151.5q-189 -1 -322.5 120t-144.5 301h-129l-57 -403h-277l131 930h277zM1046 721q-109 0 -173 -97.5t-64 -210.5q0 -92 55 -149t129 -57q105 0 172.5 95.5
t67.5 213.5q0 93 -51 149t-136 56z" />
    <glyph glyph-name="afii10097" unicode="&#x44f;" horiz-adv-x="1138" 
d="M594 930h481l-131 -930h-277l48 319h-78q-85 0 -141 -38.5t-132 -147.5l-92 -133h-317l118 170q65 92 119 140.5t140 74.5q-91 33 -146 103t-55 145q0 297 463 297zM735 475l33 250h-135q-213 0 -213 -131q0 -119 159 -119h156zM796 931z" />
    <glyph glyph-name="afii10071" unicode="&#x451;" horiz-adv-x="1044" 
d="M958 426h-608q-10 -110 50 -175t163 -65q114 0 344 95l-49 -232q-181 -67 -323 -67q-211 0 -337 123t-126 329q0 213 147 362.5t356 149.5q181 0 289.5 -107.5t108.5 -283.5q0 -62 -15 -129zM377 586h325q3 17 3 34q0 61 -37 98.5t-99 37.5q-133 0 -192 -170zM838 1412
q67 0 113.5 -46.5t46.5 -113.5t-46.5 -114.5t-113.5 -47.5q-66 0 -114 47.5t-48 114.5t48 113.5t114 46.5zM370 1412q67 0 113.5 -46.5t45.5 -113.5q1 -67 -45.5 -114.5t-113.5 -47.5t-114.5 47.5t-47.5 114.5q0 66 48 113t114 47z" />
    <glyph glyph-name="afii10099" unicode="&#x452;" 
d="M71 1061l41 229h131l15 106h276l-14 -106h352l-37 -229h-348l-35 -238q126 107 312 107q257 0 257 -256q0 -34 -5 -72l-101 -721q-23 -166 -117.5 -259t-222.5 -93q-139 0 -200 62l26 206q31 -45 119 -45q100 0 121 150l98 694q16 108 -86 108q-115 0 -231 -100l-84 -604
h-277l150 1061h-140z" />
    <glyph glyph-name="afii10100" unicode="&#x453;" horiz-adv-x="829" 
d="M192 930h692l-36 -230h-412l-98 -700h-277zM347 1032l182 352h330l-363 -352h-149z" />
    <glyph glyph-name="afii10101" unicode="&#x454;" horiz-adv-x="944" 
d="M864 268l-32 -252q-136 -34 -287 -34q-209 0 -341 125t-132 323q0 220 171.5 368t424.5 148q154 0 256 -33l-35 -250q-109 41 -201 41q-213 0 -299 -162h316l-21 -159h-321q22 -176 237 -176q108 0 264 61z" />
    <glyph glyph-name="afii10102" unicode="&#x455;" horiz-adv-x="768" 
d="M735 862l-22 -219q-72 36 -150 57t-119 21q-61 0 -61 -41t110 -123q126 -94 162.5 -157t36.5 -126q0 -126 -97.5 -208t-250.5 -82q-159 0 -321 84l38 206q170 -65 254 -65q91 0 91 51q0 43 -121 134.5t-156 146t-35 104.5q0 133 97.5 217t250.5 84q145 0 293 -84z" />
    <glyph glyph-name="afii10103" unicode="&#x456;" horiz-adv-x="532" 
d="M217 1188q0 59 42 101t101 42q60 0 102 -42t42 -101q0 -60 -42 -102t-102 -42q-59 0 -101 42t-42 102zM467 930l-131 -930h-277l131 930h277z" />
    <glyph glyph-name="afii10104" unicode="&#x457;" horiz-adv-x="532" 
d="M467 930l-131 -930h-277l131 930h277zM586 1412q67 0 113.5 -46.5t46.5 -113.5t-46.5 -114.5t-113.5 -47.5q-66 0 -114 47.5t-48 114.5t48 113.5t114 46.5zM118 1412q67 0 113.5 -46.5t45.5 -113.5q1 -67 -45.5 -114.5t-113.5 -47.5t-114.5 47.5t-47.5 114.5q0 66 48 113
t114 47z" />
    <glyph glyph-name="afii10105" unicode="&#x458;" horiz-adv-x="532" 
d="M209 1188q0 59 42 101t101 42q60 0 102 -42t42 -101q0 -60 -42 -102t-102 -42q-59 0 -101 42t-42 102zM461 930l-129 -914q-28 -197 -61.5 -283.5t-122 -145t-206.5 -58.5q-50 0 -98 12l33 221q77 0 115 37.5t55 157.5l137 973h277z" />
    <glyph glyph-name="afii10106" unicode="&#x459;" horiz-adv-x="1539" 
d="M649 0l-117 516h-6l-299 -516h-313l583 946h205l99 -377q137 115 331 115q173 0 275.5 -89.5t101.5 -228.5q1 -160 -145.5 -263t-382.5 -103h-332zM895 205h102q94 0 152 47t57 118q0 132 -154 132q-55 0 -117 -34t-89 -75zM952 -1z" />
    <glyph glyph-name="afii10107" unicode="&#x45a;" horiz-adv-x="1709" 
d="M772 575l49 355h276l-45 -322q131 76 250 76q173 0 275 -89.5t102 -228.5q0 -160 -146 -263t-382 -103h-461l53 370h-352l-53 -370h-277l131 930h277l-49 -355h352zM995 205h172q94 0 151.5 47t57.5 118q0 132 -154 132q-120 0 -198 -99z" />
    <glyph glyph-name="afii10108" unicode="&#x45b;" horiz-adv-x="1129" 
d="M61 1061l41 229h141l15 106h276l-14 -106h381l-41 -229h-373l-35 -238q126 107 312 107q257 0 257 -256q0 -34 -5 -72l-84 -602h-277l84 596q16 108 -86 108q-115 0 -231 -100l-84 -604h-277l150 1061h-150z" />
    <glyph glyph-name="afii10109" unicode="&#x45c;" horiz-adv-x="1140" 
d="M337 0h-276l131 930h276l-53 -355h55q131 0 201 113l150 242h319l-160 -250q-102 -160 -219 -221q126 -60 195 -201l125 -258h-297l-97 209q-74 161 -243 161h-51zM483 1032l182 352h330l-363 -352h-149z" />
    <glyph glyph-name="afii10110" unicode="&#x45e;" horiz-adv-x="1004" 
d="M1044 930l-675 -1401h-291l270 557l-297 844h277l182 -543l246 543h288zM724 1378h180q-14 -147 -105.5 -232t-225.5 -85q-268 0 -287 317h180q13 -133 117 -133q102 0 141 133z" />
    <glyph glyph-name="afii10193" unicode="&#x45f;" horiz-adv-x="1161" 
d="M61 0l131 930h277l-101 -725h351l102 725h276l-131 -930h-313l-39 -272h-268l35 272h-320zM690 -1z" />
    <glyph glyph-name="afii10050" unicode="&#x490;" horiz-adv-x="1071" 
d="M387 0h-297l196 1396h633l23 160h248l-58 -393h-581z" />
    <glyph glyph-name="afii10098" unicode="&#x491;" horiz-adv-x="847" 
d="M701 1052h201l-53 -352h-413l-98 -700h-277l131 930h491z" />
    <glyph glyph-name="Wgrave" unicode="&#x1e80;" horiz-adv-x="1942" 
d="M2044 1397l-688 -1415h-121l-225 864l-471 -864h-123l-285 1415h281l151 -822l445 822h145l213 -822l377 822h301zM1066 1491h-149l-363 352h330z" />
    <glyph glyph-name="wgrave" unicode="&#x1e81;" horiz-adv-x="1493" 
d="M1550 930l-528 -946h-178l-101 481l-268 -481h-174l-233 946h268l110 -539l279 539h166l100 -539l269 539h290zM966 1032h-149l-363 352h330z" />
    <glyph glyph-name="Wacute" unicode="&#x1e82;" horiz-adv-x="1942" 
d="M2044 1397l-688 -1415h-121l-225 864l-471 -864h-123l-285 1415h281l151 -822l445 822h145l213 -822l377 822h301zM936 1491l182 352h330l-363 -352h-149z" />
    <glyph glyph-name="wacute" unicode="&#x1e83;" horiz-adv-x="1493" 
d="M1550 930l-528 -946h-178l-101 481l-268 -481h-174l-233 946h268l110 -539l279 539h166l100 -539l269 539h290zM645 1032l182 352h330l-363 -352h-149z" />
    <glyph glyph-name="Wdieresis" unicode="&#x1e84;" horiz-adv-x="1942" 
d="M2044 1406l-688 -1415h-121l-225 864l-471 -864h-123l-285 1415h281l151 -822l445 822h145l213 -822l377 822h301zM1333 1800q67 0 113.5 -46.5t46.5 -113.5t-46.5 -114.5t-113.5 -47.5q-66 0 -114 47.5t-48 114.5t48 113.5t114 46.5zM865 1800q67 0 113.5 -46.5
t45.5 -113.5q1 -67 -45.5 -114.5t-113.5 -47.5t-114.5 47.5t-47.5 114.5q0 66 48 113t114 47z" />
    <glyph glyph-name="wdieresis" unicode="&#x1e85;" horiz-adv-x="1493" 
d="M1550 930l-528 -946h-178l-101 481l-268 -481h-174l-233 946h268l110 -539l279 539h166l100 -539l269 539h290zM1087 1412q67 0 113.5 -46.5t46.5 -113.5t-46.5 -114.5t-113.5 -47.5q-66 0 -114 47.5t-48 114.5t48 113.5t114 46.5zM619 1412q67 0 113.5 -46.5
t45.5 -113.5q1 -67 -45.5 -114.5t-113.5 -47.5t-114.5 47.5t-47.5 114.5q0 66 48 113t114 47z" />
    <glyph glyph-name="Ygrave" unicode="&#x1ef2;" horiz-adv-x="1153" 
d="M1266 1397l-527 -811l-82 -586h-297l82 586l-295 811h297l181 -539l323 539h318zM830 1490h-149l-363 352h330z" />
    <glyph glyph-name="ygrave" unicode="&#x1ef3;" horiz-adv-x="1004" 
d="M1044 930l-675 -1401h-291l270 557l-297 844h277l182 -543l246 543h288zM685 1032h-149l-363 352h330z" />
    <glyph glyph-name="afii00208" unicode="&#x2015;" horiz-adv-x="1536" 
d="M1453 609v-271h-1381v271h1381z" />
    <glyph glyph-name="underscoredbl" unicode="&#x2017;" horiz-adv-x="1024" 
d="M-12 -154h1048v-102h-1048v102zM-12 -333h1048v-103h-1048v103z" />
    <glyph glyph-name="quotereversed" unicode="&#x201b;" horiz-adv-x="533" 
d="M403 851l-77 -103q-132 169 -132 331q0 150 79 241.5t187 91.5q73 0 129 -53t56 -130q0 -74 -53 -118.5t-116 -44.5q-34 0 -73 16q-31 -55 -31 -118q0 -56 31 -113z" />
    <glyph glyph-name="minute" unicode="&#x2032;" horiz-adv-x="487" 
d="M155 945l148 521h306l-95 -248l-152 -273h-207z" />
    <glyph glyph-name="second" unicode="&#x2033;" horiz-adv-x="981" 
d="M630 945l148 521h306l-96 -248l-151 -273h-207zM175 945l148 521h306l-95 -248l-152 -273h-207z" />
    <glyph glyph-name="exclamdbl" unicode="&#x203c;" horiz-adv-x="1045" 
d="M322 437h-163l31 547q10 188 21.5 263.5t55 122t108.5 46.5q61 0 96.5 -40.5t35.5 -106.5q0 -92 -58 -326zM841 437h-163l30 547q11 188 22.5 263.5t55 122t108.5 46.5q61 0 96.5 -41t35.5 -106q0 -92 -59 -326zM207 -17q-68 0 -116 48t-48 113q0 66 48 113.5t115 47.5
q68 0 115.5 -47t47.5 -111q0 -67 -48 -115.5t-114 -48.5zM725 -17q-66 0 -114.5 48t-48.5 113q0 66 48 113.5t115 47.5t115 -47t48 -111q0 -67 -48 -115.5t-115 -48.5z" />
    <glyph glyph-name="radicalex" unicode="&#x203e;" horiz-adv-x="1147" 
d="M-42 1869h1231v-74h-1231v74z" />
    <glyph glyph-name="fraction1" unicode="&#x2044;" horiz-adv-x="384" 
d="M772 1416l-980 -1471h-180l980 1471h180z" />
    <glyph glyph-name="nsuperior" unicode="&#x207f;" horiz-adv-x="747" 
d="M378 1121l-8 -55q88 65 175 65q83 0 129.5 -49t46.5 -120q0 -37 -11 -108l-45 -294h-198l45 289q8 54 8 79q0 66 -43 66q-50 0 -131 -77l-55 -357h-198l86 561h199z" />
    <glyph glyph-name="franc" unicode="&#x20a3;" horiz-adv-x="1003" 
d="M452 471h273l-21 -169h-276l-43 -302h-301l44 302h-170l21 169h174l134 926h800l-33 -239h-504l-47 -329h436l-33 -230h-435z" />
    <glyph glyph-name="afii08941" unicode="&#x20a4;" horiz-adv-x="1109" 
d="M868 804l-35 -144h-235l-33 -121h243l-32 -144h-254l-38 -128q51 10 105 10q42 0 130 -18q83 -16 137 -16q121 0 205 50l-54 -283q-58 -28 -135 -28q-64 0 -170 17q-188 30 -295 30q-142 0 -268 -47h-19v28l115 385h-180l35 144h188l37 121h-200l30 144h212l37 123
q145 489 464 489q115 0 203 -57l-28 -254q-77 59 -142 59q-79 0 -128.5 -65.5t-93.5 -211.5l-25 -83h224z" />
    <glyph glyph-name="peseta" unicode="&#x20a7;" horiz-adv-x="2405" 
d="M289 1397h297q171 0 251.5 -9t164.5 -60t132.5 -139.5t48.5 -206.5q0 -125 -48.5 -222.5t-127.5 -151t-168 -67.5t-261 -14h-115l-75 -527h-304zM554 1175l-60 -429h60q142 0 199.5 22t91.5 74.5t34 125.5q0 207 -277 207h-48zM1623 929l-30 -156h163l-33 -195h-165
l-32 -174q-18 -101 -18 -131q0 -57 52 -57q55 0 146 63v-239q-105 -53 -202 -53q-125 0 -187 74.5t-62 181.5q0 50 25 182l29 153h-129l34 195h129l28 156h252zM2353 714l-12 -207q-160 71 -224 71q-39 0 -39 -25q0 -19 53 -56q136 -95 172.5 -152.5t36.5 -119.5
q0 -95 -72.5 -166.5t-209.5 -71.5q-133 0 -278 73l28 197q149 -68 223 -68q55 0 55 30q0 23 -63 65q-137 92 -170.5 149.5t-33.5 118.5q0 103 80.5 169t199.5 66q123 0 254 -73z" />
    <glyph glyph-name="afii61248" unicode="&#x2105;" horiz-adv-x="1653" 
d="M699 1409l-23 -167q-69 28 -136 28q-100 0 -161 -57.5t-61 -130.5q0 -64 40.5 -102t116.5 -38q86 0 189 52l-27 -185q-89 -24 -198 -24q-138 0 -225 85t-87 214q0 140 111.5 243.5t289.5 103.5q105 0 171 -22zM1413 1416l-977 -1433h-170l982 1433h165zM1208 -11
q-133 0 -224.5 86t-91.5 213q0 141 105.5 244.5t255.5 103.5q134 0 221.5 -81.5t87.5 -211.5q0 -152 -102 -253t-252 -101zM1209 138q73 0 118 64.5t45 140.5q0 63 -35.5 100t-91.5 37q-77 0 -119.5 -66.5t-42.5 -140.5q0 -53 34 -94t92 -41z" />
    <glyph glyph-name="afii61289" unicode="&#x2113;" horiz-adv-x="661" 
d="M-12 547l190 130l127 407q69 218 152.5 275t178.5 57q112 0 171.5 -63t59.5 -158q0 -98 -86.5 -216.5t-362.5 -335.5l-98 -317q-21 -69 -21 -111q0 -52 55 -52q53 0 239 60l-60 -193q-164 -56 -243 -56q-103 0 -176 49.5t-73 146.5q0 58 39 184l20 68l-55 -36zM510 941
q175 164 175 266q0 47 -35 47q-45 0 -86 -135z" />
    <glyph glyph-name="afii61352" unicode="&#x2116;" horiz-adv-x="2308" 
d="M516 948l-127 -948h-297l192 1399h297l453 -914h4l88 649q36 262 295 262h182l-26 -215h-49q-99 0 -109 -73l-154 -1108h-282l-463 948h-4zM1835 336q-144 0 -239 95t-95 236q0 173 134 304t308 131q144 0 238 -94.5t94 -234.5q0 -172 -133 -304.5t-307 -132.5zM2062 742
q0 65 -41.5 107t-107.5 42q-79 0 -138.5 -58.5t-60.5 -137.5q0 -64 42 -106t107 -42q80 0 139.5 58.5t59.5 136.5zM1476 243h703l-25 -163h-702z" />
    <glyph glyph-name="estimated" unicode="&#x212e;" horiz-adv-x="1229" 
d="M308 531v-371q120 -121 298 -121q254 0 395 246l72 -43q-118 -170 -231.5 -223t-235.5 -53q-232 0 -380.5 158.5t-148.5 406.5q0 252 149.5 408.5t379.5 156.5q214 0 366 -142t163 -423h-827zM904 605v297q-124 121 -300 121q-175 0 -296 -122v-296h596z" />
    <glyph glyph-name="oneeighth" unicode="&#x215b;" horiz-adv-x="1728" 
d="M1445 1416l-980 -1471h-180l980 1471h180zM514 1406l-120 -727h-194l119 727h195zM1547 375q111 -56 111 -159q0 -92 -83.5 -158.5t-202.5 -66.5q-116 0 -191 57.5t-75 148.5q0 68 45 124t115 73q-75 48 -75 132q0 85 77.5 148t190.5 63q105 0 169 -53.5t64 -126.5
q0 -120 -145 -182zM1427 450q36 0 53.5 33t17.5 60q0 52 -49 52q-37 0 -54.5 -32t-17.5 -64q0 -49 50 -49zM1373 135q41 0 67 30t26 71q0 70 -70 70q-39 0 -65.5 -30.5t-26.5 -71.5q0 -69 69 -69z" />
    <glyph glyph-name="threeeighths" unicode="&#x215c;" horiz-adv-x="1728" 
d="M493 1049q87 -49 87 -149q0 -103 -91 -166.5t-229 -63.5q-104 0 -219 49l25 151q113 -56 191 -56q50 0 85 25.5t35 64.5q0 36 -31.5 59t-89.5 23q-32 0 -77 -8l25 154q63 -13 103 -13q54 0 87 22.5t33 58.5q0 70 -91 70q-88 0 -209 -63l27 167q109 42 208 42
q103 0 182 -50t79 -144q0 -130 -130 -173zM1444 1416l-980 -1471h-180l980 1471h180zM1546 375q111 -56 111 -159q0 -92 -83 -158.5t-202 -66.5q-118 0 -192.5 58t-74.5 148q0 68 45 124t115 73q-75 48 -75 132q0 85 78 148t190 63q106 0 169.5 -53.5t63.5 -126.5
q0 -120 -145 -182zM1427 450q35 0 52.5 33t17.5 60q0 52 -49 52q-36 0 -54 -32t-18 -64q0 -49 51 -49zM1372 135q42 0 68 30t26 71q0 70 -71 70q-39 0 -65 -30.5t-26 -71.5q0 -69 68 -69z" />
    <glyph glyph-name="fiveeighths" unicode="&#x215d;" horiz-adv-x="1728" 
d="M1445 1416l-980 -1471h-180l980 1471h180zM618 1406l-26 -161h-216l-19 -103q225 -29 225 -216q0 -117 -92.5 -186.5t-229.5 -69.5q-133 0 -228 58l54 147q95 -53 171 -53q61 0 95.5 27t34.5 70q0 42 -37.5 68.5t-108.5 26.5q-49 0 -106 -10l77 402h406zM1547 375
q110 -56 110 -159q0 -92 -83 -158.5t-202 -66.5q-116 0 -191.5 57.5t-75.5 148.5q0 68 45 124t116 73q-75 48 -75 132q0 85 77.5 148t190.5 63q105 0 169 -53.5t64 -126.5q0 -120 -145 -182zM1427 450q36 0 53 33t17 60q0 52 -48 52q-37 0 -55 -32t-18 -64q0 -49 51 -49z
M1373 135q41 0 67 30t26 71q0 70 -71 70q-38 0 -64.5 -30.5t-26.5 -71.5q0 -69 69 -69z" />
    <glyph glyph-name="seveneighths" unicode="&#x215e;" horiz-adv-x="1728" 
d="M1434 1416l-979 -1471h-181l980 1471h180zM639 1406l-330 -727h-205l261 571h-270l35 156h509zM1549 375q110 -56 110 -159q0 -92 -83 -158.5t-202 -66.5q-116 0 -191.5 57.5t-75.5 148.5q0 68 45 124t115 73q-74 48 -74 132q0 85 77.5 148t189.5 63q110 0 171.5 -55
t61.5 -125q0 -120 -144 -182zM1429 450q36 0 53 33t17 60q0 52 -49 52q-36 0 -54 -32t-18 -64q0 -49 51 -49zM1374 135q42 0 68 30t26 71q0 70 -71 70q-38 0 -64.5 -30.5t-26.5 -71.5q0 -69 68 -69z" />
    <glyph glyph-name="arrowleft" unicode="&#x2190;" horiz-adv-x="2048" 
d="M492 157q-121 135 -209 205.5t-204 131.5v46q116 61 203 130.5t210 205.5h76q-46 -96 -77.5 -147.5t-88.5 -124.5h1566v-175h-1566q55 -69 88 -122.5t78 -149.5h-76z" />
    <glyph glyph-name="arrowup" unicode="&#x2191;" horiz-adv-x="1024" 
d="M153 926q135 122 205.5 209.5t131.5 203.5h45q61 -116 130.5 -202.5t206.5 -210.5v-76q-97 46 -148.5 78t-123.5 88v-1445h-175v1445q-69 -54 -122.5 -87t-149.5 -79v76z" />
    <glyph glyph-name="arrowright" unicode="&#x2192;" horiz-adv-x="2048" 
d="M1555 876q122 -135 209.5 -205t203.5 -132v-45q-116 -61 -202.5 -130.5t-210.5 -206.5h-76q46 97 78 148.5t88 123.5h-1566v175h1566q-54 69 -87 122.5t-79 149.5h76z" />
    <glyph glyph-name="arrowdown" unicode="&#x2193;" horiz-adv-x="1024" 
d="M871 -16q-135 -122 -205.5 -209.5t-131.5 -203.5h-45q-61 116 -131 202.5t-206 210.5v76q97 -46 148.5 -78t123.5 -88v1445h175v-1445q69 54 122.5 87t149.5 79v-76z" />
    <glyph glyph-name="arrowboth" unicode="&#x2194;" horiz-adv-x="2048" 
d="M402 604h1243q-54 68 -87 122t-79 150h76q122 -135 209.5 -205t203.5 -132v-45q-116 -61 -202.5 -130.5t-210.5 -206.5h-76q46 97 77.5 148t88.5 124h-1243q55 -69 88 -122.5t78 -149.5h-76q-121 135 -209 205.5t-204 131.5v46q116 61 203 130.5t210 205.5h76
q-46 -96 -77.5 -147.5t-88.5 -124.5z" />
    <glyph glyph-name="arrowupdn" unicode="&#x2195;" horiz-adv-x="1024" 
d="M600 1139v-1243q68 54 122 87.5t150 79.5v-77q-135 -121 -205.5 -208.5t-131.5 -204.5h-45q-61 116 -131 203t-206 210v77q96 -47 147.5 -78t124.5 -89v1243q-69 -54 -122.5 -87t-149.5 -79v76q135 122 205.5 209.5t131.5 204.5h45q61 -117 130.5 -203.5t206.5 -210.5
v-76q-97 46 -148.5 78t-123.5 88z" />
    <glyph glyph-name="arrowupdnbse" unicode="&#x21a8;" horiz-adv-x="1024" 
d="M599 1139v-1243q68 54 122 87.5t150 79.5v-77q-135 -121 -205.5 -208.5t-131.5 -204.5h-45q-61 116 -131 203t-206 210v77q96 -47 147.5 -78t124.5 -89v1243q-69 -54 -122.5 -87t-149.5 -79v76q135 122 205.5 209.5t131.5 204.5h45q61 -117 130.5 -203.5t206.5 -210.5
v-76q-97 46 -148.5 78t-123.5 88zM152 -502h719v-175h-719v175z" />
    <glyph glyph-name="orthogonal" unicode="&#x221f;" horiz-adv-x="2048" 
d="M123 0v1782h135v-1647h1667v-135h-1802z" />
    <glyph glyph-name="intersection" unicode="&#x2229;" horiz-adv-x="1472" 
d="M349 0h-206v543q0 271 14.5 386t84 226t205 186t289.5 75t289 -75.5t203 -181.5t84 -222t16 -394v-543h-205v550q0 274 -22 385.5t-125 195t-240 83.5q-103 0 -194.5 -53.5t-131.5 -125t-50.5 -167t-10.5 -318.5v-550z" />
    <glyph glyph-name="equivalence" unicode="&#x2261;" horiz-adv-x="1195" 
d="M85 977v259h1025v-259h-1025zM85 594v259h1025v-259h-1025zM85 211v258h1025v-258h-1025z" />
    <glyph glyph-name="house" unicode="&#x2302;" horiz-adv-x="1229" 
d="M153 0v634l461 519l462 -519v-634h-923zM234 81h761v519l-381 427l-380 -427v-519z" />
    <glyph glyph-name="revlogicalnot" unicode="&#x2310;" horiz-adv-x="1195" 
d="M343 238h-258v698h1025v-257h-767v-441z" />
    <glyph glyph-name="integraltp" unicode="&#x2320;" horiz-adv-x="1237" 
d="M691 -515h-145v1811q0 219 89.5 330t202.5 111q67 0 102.5 -32.5t35.5 -76.5q0 -40 -25.5 -66t-62.5 -26q-30 0 -57 15q-18 10 -41.5 46.5t-46.5 36.5q-17 0 -31 -12q-10 -8 -14 -27q-7 -33 -7 -139v-1971z" />
    <glyph glyph-name="integralbt" unicode="&#x2321;" horiz-adv-x="1237" 
d="M546 1737h145v-1811q0 -219 -89.5 -330t-202.5 -111q-67 0 -102.5 32.5t-35.5 76.5q0 40 25.5 66t61.5 26q31 0 59 -16q18 -10 41 -46t46 -36q17 0 31 11q10 8 14 29q7 32 7 138v1971z" />
    <glyph glyph-name="SF100000" unicode="&#x2500;" horiz-adv-x="1451" 
d="M1473 534h-1496v175h1496v-175z" />
    <glyph glyph-name="SF110000" unicode="&#x2502;" horiz-adv-x="1451" 
d="M638 -621v2485h175v-2485h-175z" />
    <glyph glyph-name="SF010000" unicode="&#x250c;" horiz-adv-x="1451" 
d="M1474 709v-175h-661v-1155h-175v1330h836z" />
    <glyph glyph-name="SF030000" unicode="&#x2510;" horiz-adv-x="1451" 
d="M637 534h-660v175h835v-1330h-175v1155z" />
    <glyph glyph-name="SF020000" unicode="&#x2514;" horiz-adv-x="1451" 
d="M638 534v1330h175v-1155h661v-175h-836z" />
    <glyph glyph-name="SF040000" unicode="&#x2518;" horiz-adv-x="1451" 
d="M812 534h-835v175h660v1155h175v-1330z" />
    <glyph glyph-name="SF080000" unicode="&#x251c;" horiz-adv-x="1451" 
d="M638 -621v2485h175v-1155h661v-175h-661v-1155h-175z" />
    <glyph glyph-name="SF090000" unicode="&#x2524;" horiz-adv-x="1451" 
d="M637 -621v1155h-660v175h660v1155h175v-2485h-175z" />
    <glyph glyph-name="SF060000" unicode="&#x252c;" horiz-adv-x="1451" 
d="M637 534h-660v175h1496v-175h-661v-1155h-175v1155z" />
    <glyph glyph-name="SF070000" unicode="&#x2534;" horiz-adv-x="1451" 
d="M1473 534h-1496v175h660v1155h175v-1155h661v-175z" />
    <glyph glyph-name="SF050000" unicode="&#x253c;" horiz-adv-x="1451" 
d="M637 534h-660v175h660v1155h175v-1155h661v-175h-661v-1155h-175v1155z" />
    <glyph glyph-name="SF430000" unicode="&#x2550;" horiz-adv-x="1451" 
d="M1473 724h-1496v175h1496v-175zM1473 344h-1496v175h1496v-175z" />
    <glyph glyph-name="SF240000" unicode="&#x2551;" horiz-adv-x="1451" 
d="M829 -621v2485h175v-2485h-175zM448 -621v2485h175v-2485h-175z" />
    <glyph glyph-name="SF510000" unicode="&#x2552;" horiz-adv-x="1451" 
d="M638 -621v1520h836v-175h-661v-205h661v-175h-661v-965h-175z" />
    <glyph glyph-name="SF520000" unicode="&#x2553;" horiz-adv-x="1451" 
d="M448 -621v1330h1027v-175h-471v-1155h-175v1155h-206v-1155h-175z" />
    <glyph glyph-name="SF390000" unicode="&#x2554;" horiz-adv-x="1451" 
d="M623 -621h-175v1520h1026v-175h-851v-1345zM1004 344v-965h-175v1140h645v-175h-470z" />
    <glyph glyph-name="SF220000" unicode="&#x2555;" horiz-adv-x="1451" 
d="M637 344h-660v175h660v205h-660v175h835v-1520h-175v965z" />
    <glyph glyph-name="SF210000" unicode="&#x2556;" horiz-adv-x="1451" 
d="M448 -621v1155h-471v175h1026v-1330h-175v1155h-206v-1155h-174z" />
    <glyph glyph-name="SF250000" unicode="&#x2557;" horiz-adv-x="1451" 
d="M828 -621v1345h-851v175h1026v-1520h-175zM447 344h-470v175h645v-1140h-175v965z" />
    <glyph glyph-name="SF500000" unicode="&#x2558;" horiz-adv-x="1451" 
d="M638 344v1520h175v-965h661v-175h-661v-205h661v-175h-836z" />
    <glyph glyph-name="SF490000" unicode="&#x2559;" horiz-adv-x="1451" 
d="M1475 534h-1027v1330h175v-1155h206v1155h175v-1155h471v-175z" />
    <glyph glyph-name="SF380000" unicode="&#x255a;" horiz-adv-x="1451" 
d="M623 1864v-1345h850v-175h-1025v1520h175zM1004 899h470v-175h-645v1140h175v-965z" />
    <glyph glyph-name="SF280000" unicode="&#x255b;" horiz-adv-x="1451" 
d="M812 344h-835v175h660v205h-660v175h660v965h175v-1520z" />
    <glyph glyph-name="SF270000" unicode="&#x255c;" horiz-adv-x="1451" 
d="M1003 534h-1026v175h470v1155h175v-1155h206v1155h175v-1330z" />
    <glyph glyph-name="SF260000" unicode="&#x255d;" horiz-adv-x="1451" 
d="M828 1864h175v-1520h-1026v175h851v1345zM447 899v965h175v-1140h-645v175h470z" />
    <glyph glyph-name="SF360000" unicode="&#x255e;" horiz-adv-x="1451" 
d="M638 -621v2485h175v-965h661v-175h-661v-205h661v-175h-661v-965h-175z" />
    <glyph glyph-name="SF370000" unicode="&#x255f;" horiz-adv-x="1451" 
d="M829 -621v2485h175v-1155h470v-175h-470v-1155h-175zM448 -621v2485h175v-2485h-175z" />
    <glyph glyph-name="SF420000" unicode="&#x2560;" horiz-adv-x="1451" 
d="M448 -621v2485h175v-2485h-175zM829 724v1140h175v-965h470v-175h-645zM829 -621v1140h645v-175h-470v-965h-175z" />
    <glyph glyph-name="SF190000" unicode="&#x2561;" horiz-adv-x="1451" 
d="M637 344h-660v175h660v205h-660v175h660v965h175v-2485h-175v965z" />
    <glyph glyph-name="SF200000" unicode="&#x2562;" horiz-adv-x="1451" 
d="M447 -621l1 1155h-471v175h470v1155h175v-2485h-175zM828 -621v2485h175v-2485h-175z" />
    <glyph glyph-name="SF230000" unicode="&#x2563;" horiz-adv-x="1451" 
d="M828 -621v2485h175v-2485h-175zM622 1864v-1140h-645v175h470v965h175zM447 344h-470v175h645v-1140h-175v965z" />
    <glyph glyph-name="SF470000" unicode="&#x2564;" horiz-adv-x="1451" 
d="M1473 724h-1496v175h1496v-175zM637 344h-660v175h1496v-175h-661v-965h-175v965z" />
    <glyph glyph-name="SF480000" unicode="&#x2565;" horiz-adv-x="1451" 
d="M447 -621v1155h-470v175h1496v-175h-470v-1155h-175v1155h-206v-1155h-175z" />
    <glyph glyph-name="SF410000" unicode="&#x2566;" horiz-adv-x="1451" 
d="M1473 724h-1496v175h1496v-175zM447 344h-470v175h645v-1140h-175v965zM828 -621v1140h645v-175h-470v-965h-175z" />
    <glyph glyph-name="SF450000" unicode="&#x2567;" horiz-adv-x="1451" 
d="M1473 724h-1496v175h660v965h175v-965h661v-175zM1473 344h-1496v175h1496v-175z" />
    <glyph glyph-name="SF460000" unicode="&#x2568;" horiz-adv-x="1451" 
d="M1473 534h-1496v175h470v1155h175v-1155h206v1155h175v-1155h470v-175z" />
    <glyph glyph-name="SF400000" unicode="&#x2569;" horiz-adv-x="1451" 
d="M622 724h-645v175h470v965h175v-1140zM1473 724h-645v1140h175v-965h470v-175zM1473 344h-1496v175h1496v-175z" />
    <glyph glyph-name="SF540000" unicode="&#x256a;" horiz-adv-x="1451" 
d="M637 344h-660v175h660v205h-660v175h660v965h175v-965h661v-175h-661v-205h661v-175h-661v-965h-175v965z" />
    <glyph glyph-name="SF530000" unicode="&#x256b;" horiz-adv-x="1451" 
d="M447 -621v1155h-470v175h470v1155h175v-1155h206v1155h175v-1155h470v-175h-470v-1155h-175v1155h-206v-1155h-175z" />
    <glyph glyph-name="SF440000" unicode="&#x256c;" horiz-adv-x="1451" 
d="M1003 899h470v-175h-645v1140h175v-965zM447 899v965h175v-1140h-645v175h470zM447 344h-470v175h645v-1140h-175v965zM1003 344v-965h-175v1140h645v-175h-470z" />
    <glyph glyph-name="upblock" unicode="&#x2580;" horiz-adv-x="1451" 
d="M1473 621h-1496v1243h1496v-1243z" />
    <glyph glyph-name="dnblock" unicode="&#x2584;" horiz-adv-x="1451" 
d="M1473 -621h-1496v1242h1496v-1242z" />
    <glyph glyph-name="block" unicode="&#x2588;" horiz-adv-x="1451" 
d="M-23 -621v2485h1496v-2485h-1496z" />
    <glyph glyph-name="lfblock" unicode="&#x258c;" horiz-adv-x="1451" 
d="M-23 -621v2485h748v-2485h-748z" />
    <glyph glyph-name="rtblock" unicode="&#x2590;" horiz-adv-x="1451" 
d="M726 -621v2485h748v-2485h-748z" />
    <glyph glyph-name="ltshade" unicode="&#x2591;" horiz-adv-x="1451" 
d="M0 1864h121v-125h-121v125zM482 1864h121v-125h-121v125zM965 1864h121v-125h-121v125zM241 1615h121v-125h-121v125zM723 1615h121v-125h-121v125zM1206 1615h121v-125h-121v125zM965 1366h121v-125h-121v125zM482 1366h121v-125h-121v125zM0 1366h121v-125h-121v125z
M1206 1117h121v-125h-121v125zM723 1117h121v-125h-121v125zM241 1117h121v-125h-121v125zM0 867h121v-125h-121v125zM482 867h121v-125h-121v125zM965 867h121v-125h-121v125zM1206 618h121v-125h-121v125zM723 618h121v-125h-121v125zM241 618h121v-125h-121v125zM0 369
h121v-125h-121v125zM482 369h121v-125h-121v125zM965 369h121v-125h-121v125zM241 120h121v-125h-121v125zM723 120h121v-125h-121v125zM1206 120h121v-125h-121v125zM965 -130h121v-125h-121v125zM482 -130h121v-125h-121v125zM0 -130h121v-125h-121v125zM241 -379h121
v-125h-121v125zM723 -379h121v-125h-121v125zM1206 -379h121v-125h-121v125z" />
    <glyph glyph-name="shade" unicode="&#x2592;" horiz-adv-x="1451" 
d="M121 1864h120v-125h-120v125zM362 1864h120v-125h-120v125zM603 1864h121v-125h-121v125zM844 1864h121v-125h-121v125zM1086 1864h120v-125h-120v125zM1327 1864h120v-125h-120v125zM0 1615h121v-125h-121v125zM241 1615h121v-125h-121v125zM482 1615h121v-125h-121v125
zM724 1615h120v-125h-120v125zM965 1615h121v-125h-121v125zM1206 1615h121v-125h-121v125zM121 1366h120v-125h-120v125zM362 1366h120v-125h-120v125zM603 1366h121v-125h-121v125zM844 1366h121v-125h-121v125zM1086 1366h120v-125h-120v125zM1327 1366h120v-125h-120
v125zM241 1116h121v-124h-121v124zM482 1116h121v-124h-121v124zM724 1116h120v-124h-120v124zM965 1116h121v-124h-121v124zM1206 1116h121v-124h-121v124zM0 1116h121v-124h-121v124zM121 867h120v-125h-120v125zM362 867h120v-125h-120v125zM603 867h121v-125h-121v125z
M844 867h121v-125h-121v125zM1086 867h120v-125h-120v125zM1327 867h120v-125h-120v125zM0 618h121v-125h-121v125zM482 618h121v-125h-121v125zM724 618h120v-125h-120v125zM965 618h121v-125h-121v125zM1206 618h121v-125h-121v125zM241 618h121v-125h-121v125zM1327 369
h120v-125h-120v125zM1086 369h120v-125h-120v125zM844 369h121v-125h-121v125zM603 369h121v-125h-121v125zM362 369h120v-125h-120v125zM121 369h120v-125h-120v125zM0 119h121v-124h-121v124zM241 119h121v-124h-121v124zM482 119h121v-124h-121v124zM724 119h120v-124
h-120v124zM965 119h121v-124h-121v124zM1206 119h121v-124h-121v124zM1327 -130h120v-125h-120v125zM1086 -130h120v-125h-120v125zM844 -130h121v-125h-121v125zM603 -130h121v-125h-121v125zM362 -130h120v-125h-120v125zM121 -130h120v-125h-120v125zM0 -379h121v-125
h-121v125zM241 -379h121v-125h-121v125zM482 -379h121v-125h-121v125zM724 -379h120v-125h-120v125zM965 -380l121 1v-125h-121v124zM1206 -379h121v-125h-121v125z" />
    <glyph glyph-name="dkshade" unicode="&#x2593;" horiz-adv-x="1451" 
d="M1447 1490v-374h-120v-124h120v-374h-120v-125h120v-374h-120v-124h120v-374h-120v-125h120v-124h-1447v373h121v125h-121v374h121v125h-121v373h121v125h-121v374h121v125h-121v373h121v125h120v-125h121v125h120v-125h121v125h121v-125h120v125h121v-125h121v125h120
v-125h121v125h120v-249h-120v-125h120zM121 1615v-125h120v125h-120zM362 1615v-125h120v125h-120zM603 1615v-125h121v125h-121zM844 1615v-125h121v125h-121zM1086 1615v-125h120v125h-120zM1327 1366h-121v-125h121v125zM1086 1366h-121v-125h121v125zM844 1366h-120
v-125h120v125zM603 1366h-121v-125h121v125zM362 1366h-121v-125h121v125zM121 1116v-124h120v124h-120zM362 1116v-124h120v124h-120zM603 1116v-124h121v124h-121zM844 1116v-124h121v124h-121zM1086 1116v-124h120v124h-120zM362 867h-121v-125h121v125zM482 867v-125
h121v125h-121zM724 867v-125h120v125h-120zM965 867v-125h121v125h-121zM1206 867v-125h121v125h-121zM121 618v-125h120v125h-120zM603 618v-125h121v125h-121zM482 493v125h-120v-125h120zM844 618v-125h121v125h-121zM1086 618v-125h120v125h-120zM1327 244v125h-121
v-125h121zM1086 244v125h-121v-125h121zM844 244v125h-120v-125h120zM603 244v125h-121v-125h121zM362 244v125h-121v-125h121zM121 119v-124h120v124h-120zM362 119v-124h120v124h-120zM603 119v-124h121v124h-121zM844 119v-124h121v124h-121zM1086 119v-124h120v124h-120
zM1327 -255v125h-121v-125h121zM1086 -255v125h-121v-125h121zM844 -255v125h-120v-125h120zM603 -255v125h-121v-125h121zM362 -255v125h-121v-125h121zM121 -379v-125h120v125h-120zM362 -379v-125h120v125h-120zM603 -379v-125h121v125h-121zM844 -379v-125h121v125h-121
zM1086 -379v-125h120v125h-120z" />
    <glyph glyph-name="filledbox" unicode="&#x25a0;" horiz-adv-x="1237" 
d="M146 944h944v-944h-944v944z" />
    <glyph glyph-name="H22073" unicode="&#x25a1;" horiz-adv-x="1237" 
d="M146 944h944v-944h-944v944zM222 868v-792h792v792h-792z" />
    <glyph glyph-name="H18543" unicode="&#x25aa;" horiz-adv-x="726" 
d="M594 909v-464h-463v463z" />
    <glyph glyph-name="H18551" unicode="&#x25ab;" horiz-adv-x="726" 
d="M594 909v-464h-463v463zM518 833l-311 -1v-311h311v312z" />
    <glyph glyph-name="filledrect" unicode="&#x25ac;" horiz-adv-x="2048" 
d="M340 386h1368v-386h-1368v386z" />
    <glyph glyph-name="triagup" unicode="&#x25b2;" horiz-adv-x="2027" 
d="M304 0l710 1419l710 -1419h-1420z" />
    <glyph glyph-name="triagrt" unicode="&#x25ba;" horiz-adv-x="2027" 
d="M288 1417l1451 -724l-1451 -724v1448z" />
    <glyph glyph-name="triagdn" unicode="&#x25bc;" horiz-adv-x="2027" 
d="M1724 1388l-710 -1419l-710 1419h1420z" />
    <glyph glyph-name="triaglf" unicode="&#x25c4;" horiz-adv-x="2027" 
d="M1739 1417v-1448l-1451 724z" />
    <glyph glyph-name="circle" unicode="&#x25cb;" horiz-adv-x="1237" 
d="M619 1018q110 0 216 -57t165 -163t59 -220q0 -183 -129 -312t-311 -129q-183 0 -312 129t-129 312q0 115 59 220.5t165 162.5t217 57zM619 942q-93 0 -180 -47t-136 -135t-49 -182q0 -151 107 -258t258 -107t257.5 107t106.5 258q0 94 -49 182t-136 135t-179 47z" />
    <glyph glyph-name="H18533" unicode="&#x25cf;" horiz-adv-x="1237" 
d="M619 1018q110 0 216 -57t165 -163t59 -220q0 -183 -129 -312t-311 -129q-183 0 -312 129t-129 312q0 115 59 220.5t165 162.5t217 57z" />
    <glyph glyph-name="invbullet" unicode="&#x25d8;" horiz-adv-x="1237" 
d="M128 0v980h980v-980h-980zM618 692q-84 0 -143 -59t-59 -143q0 -83 59.5 -142.5t142.5 -59.5q84 0 143 59.5t59 142.5q0 84 -59 143t-143 59z" />
    <glyph glyph-name="invcircle" unicode="&#x25d9;" horiz-adv-x="1237" 
d="M42 0v1155h1155v-1155h-1155zM619 1018q-111 0 -216.5 -57t-164.5 -163t-59 -221q0 -182 129 -311t311 -129q183 0 312 129t129 311q0 115 -59 221t-164.5 163t-217.5 57zM620 942q91 0 178.5 -47t136.5 -134.5t49 -183.5q0 -151 -106.5 -257.5t-257.5 -106.5
q-152 0 -258.5 106.5t-106.5 257.5q0 96 49 183.5t136.5 134.5t179.5 47z" />
    <glyph glyph-name="openbullet" unicode="&#x25e6;" horiz-adv-x="726" 
d="M363 928q104 0 177.5 -73.5t73.5 -177.5t-73.5 -177.5t-177.5 -73.5t-177.5 73.5t-73.5 177.5t73 177.5t178 73.5zM363 852q-73 0 -124 -51.5t-51 -123.5q0 -73 51.5 -124t123.5 -51t123.5 51t51.5 124q0 72 -51 123.5t-124 51.5z" />
    <glyph glyph-name="smileface" unicode="&#x263a;" horiz-adv-x="2048" 
d="M1024 1156q160 0 313 -82.5t239 -236t86 -319.5q0 -165 -84.5 -316.5t-236.5 -236t-317 -84.5q-166 0 -317.5 84.5t-236 236t-84.5 316.5q0 166 85.5 319.5t238.5 236t314 82.5zM1024 1063q-137 0 -267.5 -70.5t-204 -201.5t-73.5 -273q0 -141 72 -270.5t202 -201.5
t271 -72t271 72t202 201.5t72 270.5q0 142 -73.5 273t-204 201.5t-267.5 70.5zM779 731q34 0 57.5 -23.5t23.5 -57.5q0 -33 -23.5 -57t-57.5 -24q-33 0 -57 24t-24 57q0 34 24 57.5t57 23.5zM1268 731q34 0 57.5 -23.5t23.5 -57.5q0 -33 -23.5 -57t-57.5 -24q-33 0 -57 24
t-24 57q0 34 23.5 57.5t57.5 23.5zM730 313l62 36q79 -144 232 -144t231 144l63 -36q-50 -95 -123.5 -145t-170.5 -50q-98 0 -171 50t-123 145z" />
    <glyph glyph-name="invsmileface" unicode="&#x263b;" horiz-adv-x="2048" 
d="M1024 1156q160 0 313 -82.5t239 -236t86 -319.5q0 -165 -84.5 -316.5t-236.5 -236t-317 -84.5q-166 0 -317.5 84.5t-236 236t-84.5 316.5q0 166 85.5 319.5t238.5 236t314 82.5zM779 731q-33 0 -57 -23.5t-24 -57.5q0 -33 24 -57t57 -24q34 0 57.5 24t23.5 57
q0 34 -23.5 57.5t-57.5 23.5zM1268 731q-34 0 -57.5 -23.5t-23.5 -57.5q0 -33 24 -57t57 -24q34 0 57.5 24t23.5 57q0 34 -23.5 57.5t-57.5 23.5zM730 313q50 -95 123 -145t171 -50q97 0 170.5 50t123.5 145l-63 36q-78 -144 -231 -144t-232 144z" />
    <glyph glyph-name="sun" unicode="&#x263c;" horiz-adv-x="1877" 
d="M902 1621h76v-337q102 -7 181.5 -38.5t167.5 -102.5l290 284l52 -53l-286 -286q73 -95 103 -169q38 -96 41 -185h335v-69h-335q-19 -193 -143 -351l285 -291l-57 -50l-283 282q-98 -72 -171 -100.5t-180 -40.5v-337h-76v337q-112 15 -188.5 46t-156.5 92l-294 -278
l-51 51l285 286q-66 84 -100 166t-45 188h-336v69h336q9 106 42 185.5t102 163.5l-284 287l48 57l292 -282q101 70 179.5 100.5t170.5 38.5v337zM937 1211q-129 0 -252 -66t-191.5 -189.5t-68.5 -256.5t67.5 -255t189.5 -190t255 -68t255 68t190 190t68 255t-69 256.5
t-192 189.5t-252 66z" />
    <glyph glyph-name="female" unicode="&#x2640;" horiz-adv-x="1536" 
d="M796 461v-402h459v-59h-459v-439h-59v439h-460v59h460v402q-103 0 -225.5 65.5t-195 191t-72.5 265.5q0 136 69.5 261t193.5 194t261 69q136 0 260.5 -69.5t193.5 -194t69 -260.5q0 -209 -143.5 -360.5t-351.5 -161.5zM767 1451q-118 0 -230.5 -60.5t-175.5 -173.5
t-63 -235q0 -195 137.5 -332.5t331.5 -137.5q195 0 332.5 137.5t137.5 332.5q0 122 -63 235t-175.5 173.5t-231.5 60.5z" />
    <glyph glyph-name="male" unicode="&#x2642;" horiz-adv-x="1536" 
d="M1216 1620l36 -16l163 -666l-57 -15l-142 581l-358 -768q148 -75 224 -202t76 -272q0 -136 -69 -260.5t-193.5 -194t-261.5 -69.5q-136 0 -260.5 69.5t-193.5 194t-69 260.5q0 217 153.5 370t372.5 153q78 0 166 -27l360 771l-537 -265l-24 53zM634 731
q-118 0 -230.5 -60.5t-175.5 -173.5t-63 -235q0 -195 137.5 -332.5t331.5 -137.5q195 0 332.5 137.5t137.5 332.5q0 122 -63 235t-175.5 173.5t-231.5 60.5z" />
    <glyph glyph-name="spade" unicode="&#x2660;" horiz-adv-x="1344" 
d="M673 1231q26 -108 80 -193t192.5 -210.5t175.5 -193t37 -136.5q0 -95 -64 -159t-154 -64q-82 0 -154 57q-54 42 -101 133q1 -147 38.5 -233.5t119.5 -136t219 -58.5l7 -37h-792l7 37q184 0 285.5 107.5t97.5 320.5q-45 -95 -111.5 -142.5t-149.5 -47.5q-90 0 -155 65
t-65 154q0 74 32 133q45 83 146.5 166t149.5 137q74 83 107.5 148t51.5 153z" />
    <glyph glyph-name="club" unicode="&#x2663;" horiz-adv-x="1344" 
d="M1098 0h-848l8 34q165 35 219 69q81 51 132.5 151t51.5 210q0 16 -1 47q-61 -124 -148.5 -181t-178.5 -57q-116 0 -197 81t-81 199q0 116 74 195.5t165 81.5q63 -2 166 -53q-42 69 -54.5 105t-12.5 77q0 115 79 193.5t198 78.5q117 0 197.5 -78.5t80.5 -189.5
q0 -88 -69 -186q84 40 101 45q27 8 61 8q100 0 173.5 -78.5t73.5 -194.5q0 -120 -80.5 -201.5t-196.5 -82.5q-77 4 -134.5 33t-107.5 80q-35 37 -87 125q4 -159 48.5 -251.5t136.5 -153.5q62 -41 223 -72z" />
    <glyph glyph-name="heart" unicode="&#x2665;" horiz-adv-x="1344" 
d="M674 -24q-31 118 -88.5 221.5t-222.5 321.5q-121 160 -149 203q-46 70 -66.5 128.5t-20.5 118.5q0 111 74 186t180 76q113 -1 194 -79q61 -58 99 -173q32 112 92 171q83 81 191 81q109 0 184.5 -74t75.5 -176q0 -91 -43.5 -188t-170.5 -257q-164 -207 -239 -340
q-59 -105 -90 -220z" />
    <glyph glyph-name="diamond" unicode="&#x2666;" horiz-adv-x="1344" 
d="M671 1234q88 -154 218 -327q150 -200 242 -303q-74 -78 -242 -302q-136 -182 -218 -326q-27 52 -74 121q-81 120 -201 279q-26 35 -183 228q101 115 260 328q118 158 198 302z" />
    <glyph glyph-name="musicalnote" unicode="&#x266a;" horiz-adv-x="1024" 
d="M486 1363h38q172 0 227 -14q79 -20 139 -77q45 -42 71 -118.5t26 -178.5v-103h-99v43q0 68 -28.5 115.5t-84.5 72.5q-73 32 -162 32h-28v-835q0 -121 -32 -188.5t-110 -108t-170 -40.5q-109 0 -172.5 61.5t-63.5 161.5q0 105 76 176.5t199 71.5q78 0 174 -46v975z" />
    <glyph glyph-name="musicalnotedbl" unicode="&#x266b;" horiz-adv-x="1536" 
d="M534 1271l796 248v-1108q0 -124 -31.5 -187t-107 -104t-170.5 -41q-109 0 -174 62.5t-65 161.5q0 100 77 172.5t199 72.5q40 0 70.5 -7t99.5 -36v724l-595 -185v-836q0 -121 -32 -188.5t-110 -107.5t-170 -40q-109 0 -172.5 61.5t-63.5 160.5q0 105 76 176.5t199 71.5
q78 0 174 -46v975z" />
    <glyph glyph-name="fi1" unicode="&#xf001;" horiz-adv-x="1194" 
d="M707 930l-29 -205h-168l-158 -1133h-276l157 1133h-157l28 205h160q21 238 153 361.5t333 123.5q168 0 289 -101.5t110 -273.5h-277q-17 134 -139 134q-78 0 -130.5 -64t-63.5 -180h168zM1133 930l-132 -930h-276l131 930h277z" />
    <glyph glyph-name="fl1" unicode="&#xf002;" horiz-adv-x="1194" 
d="M709 930l-29 -205h-170l-160 -1133h-274l157 1133h-157l28 205h158q36 280 174.5 382.5t296.5 102.5q63 0 115 -18l-33 -232q-42 25 -80 25q-74 0 -130 -67t-66 -193h170zM1198 1397l-197 -1397h-276l197 1397h276z" />
    <glyph glyph-name="commaaccent" unicode="&#xf004;" horiz-adv-x="683" 
d="M7 -500q119 26 160 133q-90 49 -90 142q0 70 49.5 109.5t106.5 39.5q70 0 123.5 -56t53.5 -139q0 -126 -112.5 -230.5t-316.5 -110.5z" />
    <glyph glyph-name="undercommaaccent" unicode="&#xf005;" horiz-adv-x="683" 
d="M232 -76q154 0 201.5 -35.5t47.5 -89.5q0 -67 -57.5 -111.5t-178.5 -44.5q-71 0 -143 20l22 93q45 -10 91 -10q109 0 109 45q0 14 -14.5 27t-94.5 18z" />
    <glyph glyph-name="glyph660" horiz-adv-x="1067" 
d="M1042 1305l-41 -246q-75 54 -173.5 88.5t-172.5 34.5q-84 0 -140 -43.5t-56 -110.5q0 -40 31.5 -80.5t199 -140.5t225.5 -196.5t58 -200.5q0 -185 -128 -306.5t-345 -121.5q-275 0 -475 133l45 243q90 -64 200.5 -103.5t194.5 -39.5q91 0 146 42.5t55 111.5
q0 48 -35.5 97t-204 153t-221.5 192t-53 182q0 180 140 301t351 121t399 -110zM203 -500q119 26 160 133q-90 49 -90 142q0 70 49.5 109.5t106.5 39.5q70 0 123.5 -56t53.5 -139q0 -126 -112.5 -230.5t-316.5 -110.5z" />
    <glyph glyph-name="glyph661" horiz-adv-x="768" 
d="M735 862l-22 -219q-72 36 -150 57t-119 21q-61 0 -61 -41t110 -123q126 -94 162.5 -157t36.5 -126q0 -126 -97.5 -208t-250.5 -82q-159 0 -321 84l38 206q170 -65 254 -65q91 0 91 51q0 43 -121 134.5t-156 146t-35 104.5q0 133 97.5 217t250.5 84q145 0 293 -84z
M105 -500q119 26 160 133q-90 49 -90 142q0 70 49.5 109.5t106.5 39.5q70 0 123.5 -56t53.5 -139q0 -126 -112.5 -230.5t-316.5 -110.5z" />
    <glyph glyph-name="currency" unicode="&#xa4;" 
d="M797 313q-94 -57 -215 -57q-119 0 -213 55l-133 -133l-175 174l134 133q-56 90 -56 215q0 112 56 215l-134 134l170 170l131 -132q118 56 220 56q115 0 215 -56l133 134l174 -174l-133 -134q55 -98 55 -213q0 -109 -57 -219l133 -133l-170 -170zM786 700q0 84 -60 143.5
t-144 59.5t-143.5 -59.5t-59.5 -143.5t59.5 -144t143.5 -60t144 60t60 144z" />
    <glyph glyph-name="uni0492" unicode="&#x492;" horiz-adv-x="1071" 
d="M1167 1397l-34 -234h-582l-51 -358h264l-35 -234h-262l-80 -571h-297l80 571h-123l37 234h119l84 592h880z" />
    <glyph glyph-name="uni0493" unicode="&#x493;" horiz-adv-x="829" 
d="M885 930l-37 -230h-412l-24 -176h200l-32 -229h-201l-41 -295h-277l41 295h-122l32 229h123l58 406h692z" />
    <glyph glyph-name="uni049A" unicode="&#x49a;" horiz-adv-x="1454" 
d="M1409 1397l-72 -252q-120 0 -184 -119q-87 -160 -112 -199t-64.5 -78.5t-83.5 -62.5q52 -34 100 -87.5t83.5 -113t107.5 -211.5h178l-98 -610h-299l61 336h-49l-142 315q-32 72 -77.5 141.5t-105.5 103.5t-136 34h-45l-84 -594h-297l197 1397h297l-76 -547h98
q76 0 136.5 40.5t105.5 121.5l102 184q56 102 151.5 153.5t229.5 51.5z" />
    <glyph glyph-name="uni049B" unicode="&#x49b;" horiz-adv-x="1141" 
d="M1141 930q-165 -257 -194 -300t-80 -93t-105 -78q137 -62 219 -254h154l-72 -453h-229l32 248h-82q-108 230 -131.5 269t-79 70.5t-129.5 31.5h-51l-55 -371h-277l132 930h276l-53 -355h53q67 0 117.5 28.5t86.5 86.5l148 240h320z" />
    <glyph glyph-name="uni04A2" unicode="&#x4a2;" horiz-adv-x="1724" 
d="M1710 274l-96 -610h-299l61 336h-278l82 569h-713l-80 -569h-297l197 1397h297l-78 -553h711l77 553h297l-157 -1123h276zM1622 0z" />
    <glyph glyph-name="uni04A3" unicode="&#x4a3;" horiz-adv-x="1194" 
d="M1194 205l-72 -453h-229l35 248h-238l53 371h-352l-53 -371h-277l132 930h276l-49 -355h352l49 355h277l-103 -725h199zM1160 0z" />
    <glyph glyph-name="uni04AE" unicode="&#x4ae;" horiz-adv-x="1153" 
d="M1266 1397l-527 -811l-82 -586h-297l82 586l-295 811h297l181 -539l323 539h318z" />
    <glyph glyph-name="uni04AF" unicode="&#x4af;" horiz-adv-x="938" 
d="M985 930l-459 -930l-65 -471h-277l68 471l-197 930h269l112 -592l256 592h293z" />
    <glyph glyph-name="uni04B0" unicode="&#x4b0;" horiz-adv-x="1153" 
d="M1266 1397l-527 -811l-4 -21h375l-35 -233h-373l-45 -332h-297l46 332h-373l33 233h372l4 21l-295 811h297l181 -539l323 539h318z" />
    <glyph glyph-name="uni04B1" unicode="&#x4b1;" horiz-adv-x="938" 
d="M985 930l-459 -930h277l-35 -229h-274l-33 -242h-277l33 242h-272l37 229h270l-197 930h269l112 -592l256 592h293z" />
    <glyph glyph-name="uni04BA" unicode="&#x4ba;" horiz-adv-x="1341" 
d="M520 948h324q219 0 328.5 -85.5t109.5 -256.5q0 -35 -21 -188l-59 -418h-297q76 541 76 555q0 80 -47.5 120t-142.5 40h-304l-100 -715h-297l195 1397h297z" />
    <glyph glyph-name="uni04BB" unicode="&#x4bb;" 
d="M535 1397l-82 -574q147 123 311 123q120 0 188.5 -71.5t68.5 -199.5q0 -35 -5 -73l-84 -602h-277l84 596q7 53 -16.5 89t-69.5 36q-96 0 -231 -117l-84 -604h-277l197 1397h277z" />
    <glyph glyph-name="uni04C0" unicode="&#x4c0;" horiz-adv-x="618" 
d="M586 1397l-197 -1397h-297l197 1397h297z" />
    <glyph glyph-name="uni04D8" unicode="&#x4d8;" horiz-adv-x="1528" 
d="M276 1323q269 92 488 92q314 0 501 -168t187 -471q0 -325 -212.5 -559.5t-534.5 -234.5q-269 0 -414.5 161.5t-145.5 401.5q0 111 25 252h977q-8 177 -117 268.5t-295 91.5q-263 0 -504 -127zM1114 563h-653q-4 -19 -4 -84q0 -98 80 -168.5t192 -70.5q153 0 258.5 94.5
t126.5 228.5z" />
    <glyph glyph-name="afii10846" unicode="&#x4d9;" horiz-adv-x="1044" 
d="M186 879q182 67 324 67q210 0 336.5 -121t126.5 -327q0 -201 -137.5 -358.5t-366.5 -157.5q-179 0 -288 108t-109 283q0 65 16 139h606q2 13 2 31q0 85 -58 141.5t-157 56.5q-120 0 -344 -94zM668 342h-326l-2 -35q0 -58 35.5 -96.5t99.5 -38.5q67 0 115 42.5t78 127.5z
" />
    <glyph glyph-name="uni04E8" unicode="&#x4e8;" horiz-adv-x="1706" 
d="M944 1415q304 0 496 -178t192 -459q0 -350 -223 -573t-582 -223q-303 0 -503.5 182t-200.5 467q0 337 233 560.5t588 223.5zM1321 815q-17 147 -125 244.5t-272 97.5q-163 0 -289.5 -99t-177.5 -243h864zM1298 582h-864q19 -154 127 -248t268 -94q167 0 292.5 99
t176.5 243z" />
    <glyph glyph-name="uni04E9" unicode="&#x4e9;" horiz-adv-x="1153" 
d="M608 946q203 0 332 -121t129 -317q0 -222 -152 -374t-376 -152q-198 0 -333.5 130t-135.5 318q0 210 158 363t378 153zM780 545q-6 77 -56 126.5t-128 49.5q-71 0 -124.5 -44t-88.5 -132h397zM758 383h-398q7 -74 60 -125t123 -51q71 0 124.5 44t90.5 132z" />
    <glyph glyph-name="uni10D0" unicode="&#x10d0;" horiz-adv-x="1160" 
d="M1076 440q0 -198 -167 -331q-160 -127 -384 -127q-167 0 -303 97q-150 107 -150 268q0 139 72 245l263 -84q-38 -58 -38 -151q0 -75 54 -119q50 -40 127 -40q95 0 165 59q74 63 74 156q0 71 -72 149q-66 69 -133 138q-72 91 -72 196q0 22 4 50h289q-2 -14 -2 -24
q0 -69 71 -145q65 -70 131 -139q71 -92 71 -198z" />
    <glyph glyph-name="uni10D1" unicode="&#x10d1;" horiz-adv-x="1153" 
d="M1069 508q0 -224 -152 -375t-376 -151q-194 0 -330 126q-139 129 -139 322q0 181 117 321q112 136 287 179q5 43 5 75q0 89 -97.5 166t-97.5 179q0 -17 5 65h260q-5 -83 -5 -67q0 -103 98 -176t98 -164q0 -33 -6 -76q151 -36 240 -145q93 -114 93 -279zM782 516
q0 89 -48 145q-50 60 -138 60q-108 0 -177 -102q-61 -91 -61 -205q0 -84 50 -144q53 -63 135 -63q108 0 177 104q62 92 62 205z" />
    <glyph glyph-name="uni10D2" unicode="&#x10d2;" horiz-adv-x="1153" 
d="M974 55q0 -224 -152 -375t-376 -151q-194 0 -330 126q-139 129 -139 322q0 202 158 364q33 33 247 179q191 130 203 163q2 6 2 12q0 29 -51 29q-113 0 -291 -78l39 219q172 84 317 84q114 0 189 -50q87 -57 87 -166q0 -147 -168 -275q128 -51 196.5 -157.5t68.5 -245.5z
M687 63q0 89 -48 145q-50 60 -138 60q-108 0 -177 -102q-61 -91 -61 -205q0 -84 50 -144q53 -63 135 -63q108 0 177 104q62 92 62 205z" />
    <glyph glyph-name="uni10D3" unicode="&#x10d3;" horiz-adv-x="1820" 
d="M1736 508q0 -224 -152 -375t-376 -151q-194 0 -330 126q-139 129 -139 322q0 92 29 171q-42 120 -172 120q-108 0 -177 -102q-60 -90 -61 -205q-2 -289 218 -414q89 -50 459 -141q294 -72 392 -204l-185 -126q-148 144 -499 144q-293 0 -486 -111l-111 195
q120 69 247 102q-322 182 -321 571q0 216 161 368q157 148 375 148q200 0 328 -118q146 118 339 118q201 0 329 -118q132 -121 132 -320zM1449 516q0 89 -48 145q-50 60 -138 60q-108 0 -177 -102q-61 -91 -61 -205q0 -84 50 -144q53 -63 135 -63q108 0 177 104
q62 92 62 205z" />
    <glyph glyph-name="uni10D4" unicode="&#x10d4;" horiz-adv-x="1022" 
d="M932 631q0 -89 -17 -211l-51 -365q-25 -179 -57 -261q-52 -133 -166 -202q-105 -63 -250 -63q-175 0 -283 90q-115 96 -115 268h263q0 -66 40 -109.5t105 -43.5q71 0 114 54q41 51 72 275l49 349q17 121 17 191q0 138 -111 138q-66 0 -118 -44t-70 -109h-263
q47 169 186 265q134 93 313 93q125 0 213 -51q103 -59 123 -174q6 -35 6 -90z" />
    <glyph glyph-name="uni10D5" unicode="&#x10d5;" horiz-adv-x="1022" 
d="M933 635q0 -10 -6 -104q-12 -192 -226 -244q165 -68 165 -207q0 -4 -6 -50q-22 -171 -69 -275q-51 -112 -165 -172q-104 -54 -235 -54q-175 0 -283 90q-115 96 -115 268h263q0 -66 40 -109.5t105 -43.5q100 0 141 107q16 40 39 192q7 45 7 54q0 57 -74 85q-55 21 -123 21
h-53l39 168q247 0 259 85q15 111 15 173q0 122 -109 122q-66 0 -118 -44t-70 -109h-263q47 169 186 265q134 93 313 93q125 0 213 -51q103 -59 123 -174q7 -41 7 -86z" />
    <glyph glyph-name="uni10D6" unicode="&#x10d6;" horiz-adv-x="1432" 
d="M1375 528q0 -230 -159 -388t-439 -158h-81q-270 0 -270 283q0 38 5 73l54 382q-51 -11 -104 -11q-146 0 -236 74q-97 80 -97 223q0 180 127 296q124 113 306 113q146 0 236 -74q97 -80 97 -223q0 -29 -8 -84l-29 -198q127 110 252 110q161 0 258 -132q88 -120 88 -286z
M538 1116q0 99 -85 99q-129 0 -129 -207q0 -99 85 -99q129 0 129 207zM1086 516q0 85 -36 140q-42 65 -122 65q-93 0 -182 -111q-32 -216 -32 -265q0 -139 83 -139q289 0 289 310z" />
    <glyph glyph-name="uni10D7" unicode="&#x10d7;" horiz-adv-x="1859" 
d="M1775 508q0 -191 -118 -340q-120 -152 -305 -186l-24 232q73 33 119 128q41 86 41 174q0 89 -48 145q-50 60 -138 60q-109 0 -174 -99q-50 -76 -60 -143q-1 -22 -6 -66q-33 -192 -179.5 -311.5t-341.5 -119.5q-194 0 -330 126q-139 129 -139 322q0 217 161 368
q157 148 375 148q219 0 346 -136q153 136 360 136q201 0 329 -118q132 -121 132 -320zM782 516q0 89 -48 145q-50 60 -138 60q-108 0 -177 -102q-61 -91 -61 -205q0 -84 50 -144q53 -63 135 -63q108 0 177 104q62 92 62 205z" />
    <glyph glyph-name="uni10D8" unicode="&#x10d8;" horiz-adv-x="1153" 
d="M1069 508q0 -191 -118 -340q-120 -152 -305 -186l-24 232q73 33 119 128q41 86 41 174q0 89 -47 145q-51 60 -139 60q-108 0 -177 -102q-61 -91 -61 -205q0 -71 33 -132q38 -67 101 -87l-95 -213q-143 42 -235 171q-90 126 -90 277q0 217 160 368q158 148 376 148
q201 0 329 -117q132 -121 132 -321z" />
    <glyph glyph-name="uni10D9" unicode="&#x10d9;" horiz-adv-x="941" 
d="M852 635q0 -10 -6 -104q-12 -192 -226 -244q165 -68 165 -207q0 -4 -6 -50q-22 -171 -69 -275q-50 -112 -165 -172q-104 -54 -235 -54q-175 0 -283 90q-115 96 -115 268h263q0 -66 40 -109.5t105 -43.5q100 0 142 107q15 40 38 192q7 45 7 54q0 57 -74 85q-55 21 -123 21
h-53l39 168q248 0 259 85q22 160 22 198q0 30 -7 43q-19 36 -109 54q0 -1 1 -1q2 0 2 2q4 8 12 43q14 60 33 161q126 0 214 -51q103 -59 122 -174q7 -41 7 -86z" />
    <glyph glyph-name="uni10DA" unicode="&#x10da;" horiz-adv-x="2561" 
d="M2477 508q0 -191 -118 -340q-120 -152 -305 -186l-24 232q73 33 119 128q41 86 41 174q0 89 -48 145q-50 60 -138 60q-109 0 -174 -99q-59 -90 -60 -166h-289q5 68 5 60q0 89 -48 145q-50 60 -138 60q-109 0 -174 -99q-59 -90 -60 -166h-289q5 68 5 60q0 89 -48 145
q-50 60 -138 60q-108 0 -177 -102q-61 -91 -61 -205q0 -266 284 -388q84 -37 579 -148q360 -80 467 -223l-185 -126q-55 54 -141 88q-138 55 -322 80q-22 3 -71 3q-331 0 -571 -138l-111 195q92 53 218 89q-433 185 -433 584q0 217 161 368q157 148 375 148q219 0 345 -135
q152 135 359 135q219 0 345 -135q152 135 359 135q201 0 329 -117q132 -122 132 -321z" />
    <glyph glyph-name="uni10DB" unicode="&#x10db;" horiz-adv-x="1110" 
d="M1070 1099q0 -90 -17 -210l-77 -543q-25 -179 -103 -265q-89 -99 -265 -99q-228 0 -374 106q-164 120 -164 340q0 215 156.5 366.5t420.5 151.5q27 0 134 -10q9 76 9 133q0 141 -110 141q-66 0 -118 -44t-70 -109h-263q47 169 186 265q134 93 313 93q125 0 213 -51
q103 -59 123 -174q6 -35 6 -91zM748 700q-36 5 -70 5q-135 0 -224 -71q-98 -76 -98 -208q0 -106 72 -165q67 -54 176 -54q75 0 98 165z" />
    <glyph glyph-name="uni10DC" unicode="&#x10dc;" horiz-adv-x="1110" 
d="M1110 1397l-33 -234h-360q-146 0 -203 -95q-36 -59 -58 -232q127 110 251 110q161 0 258 -132q88 -120 88 -286q0 -230 -159 -388t-439 -158h-81q-270 0 -270 283q0 37 5 73l83 590q66 469 487 469h431zM764 516q0 85 -36 140q-42 65 -122 65q-93 0 -182 -111
q-32 -216 -32 -265q0 -139 83 -139q289 0 289 310z" />
    <glyph glyph-name="uni10DD" unicode="&#x10dd;" horiz-adv-x="1857" 
d="M1773 508q0 -191 -118 -340q-120 -152 -305 -186l-24 232q73 33 119 128q41 86 41 174q0 89 -48 145q-50 60 -138 60q-92 0 -157 -75q-56 -66 -75 -164q-1 -6 0 -10v0q-1 -2 -2 -9v-7h-289q0 8 3 30q2 19 2 30q0 89 -48 145q-50 60 -138 60q-108 0 -177 -102
q-61 -91 -61 -205q0 -71 33 -132q38 -67 101 -87l-95 -213q-143 41 -235 171q-90 126 -90 277q0 217 160 368q158 148 376 148q219 0 345 -135q152 135 359 135q201 0 329 -117q132 -122 132 -321z" />
    <glyph glyph-name="uni10DE" unicode="&#x10de;" horiz-adv-x="1022" 
d="M1029 1035q0 1 -3 -39q-3 -45 -12 -69q-51 -140 -233 -186l18 -5l-20 5q187 -77 187 -208q0 -9 -6 -55q-22 -166 -69 -270q-51 -112 -165 -172q-104 -54 -235 -54q-176 0 -283 90q-115 96 -115 268h263q0 -66 40 -109.5t105 -43.5q100 0 141 107q16 40 39 192q7 45 7 54
q0 106 -250 106l39 168q262 0 262 194q0 80 -102 118q-94 32 -188 65q-102 54 -102 173q0 23 4 51h279q-1 -7 -1 -12q0 -57 104 -103q176 -77 192 -88q104 -67 104 -177z" />
    <glyph glyph-name="uni10DF" unicode="&#x10df;" horiz-adv-x="1260" 
d="M1228 946l-126 -891q-25 -180 -57 -261q-52 -133 -166 -202q-105 -63 -250 -63q-176 0 -283 90q-115 96 -115 268h263q0 -66 40 -109.5t105 -43.5q71 0 114 54q40 50 72 275l96 678h-162l13 -107q3 -24 3 -43q0 -158 -122 -268q-118 -108 -277 -108q-112 0 -207 84
q-99 86 -99 197q0 71 28 138l210 -58q-10 -23 -10 -49q0 -45 30.5 -75.5t76.5 -30.5q56 0 99 42.5t43 98.5q0 6 -1 14l-48 370h730z" />
    <glyph glyph-name="uni10E0" unicode="&#x10e0;" horiz-adv-x="1857" 
d="M1773 508q0 -191 -118 -340q-120 -152 -305 -186l-24 232q73 33 119 128q41 86 41 174q0 89 -49 147t-137 58q-92 0 -157 -75q-56 -66 -75 -164q-1 -6 0 -10q-1 -2 -2 -9v-7h-289q0 8 3 30q2 19 2 30q0 89 -49 147t-137 58q-108 0 -177 -102q-61 -91 -61 -205
q0 -71 33 -132q38 -67 101 -87l-95 -213q-143 41 -235 171q-90 126 -90 277q0 725 611 824l312 40q223 40 259 121h220q2 -11 2 -23q0 -111 -186 -202q-139 -67 -286 -89q-125 -11 -370 -52q-91 -22 -143 -68q-34 -30 -59 -78q101 43 196 43q199 0 325 -135q152 135 359 135
q201 0 329 -117q132 -122 132 -321z" />
    <glyph glyph-name="uni10E1" unicode="&#x10e1;" horiz-adv-x="1110" 
d="M1054 850q-67 -48 -67 -114q0 -41 29.5 -130.5t29.5 -138.5q0 -21 -3 -40q-35 -223 -201 -338q-152 -106 -387 -107h-81q-270 3 -270 283q0 37 5 73l149 1059h277l-134 -943q-9 -63 -9 -109q0 -139 103 -139q117 0 190 55q81 62 81 178q0 46 -29.5 134t-29.5 135
q0 15 2 27q14 84 47 127q28 35 107 84z" />
    <glyph glyph-name="uni10E2" unicode="&#x10e2;" horiz-adv-x="1336" 
d="M1252 233q0 -278 -198 -489q-202 -215 -479 -215q-224 0 -365 148q-138 145 -138 370q0 204 106.5 372t292.5 247l47 -58q-68 -104 -115 -275q-45 -165 -45 -295q0 -283 242 -283q198 0 295 184q76 144 76 361q0 133 -46 208q-8 -83 -81 -136q-67 -49 -156 -49
q-76 0 -129 36q-61 42 -61 115q0 108 101 167q-65 40 -65 108q0 90 77 146q70 51 163 51q76 0 128 -35q61 -40 61 -112q0 -83 -68 -137q162 -36 255 -139q102 -114 102 -290zM826 806q0 67 -66 67q-88 0 -88 -131q0 -64 65 -64h1q88 0 88 128zM789 535q0 71 -64 71
q-90 0 -90 -138q0 -72 64 -72q90 0 90 139z" />
    <glyph glyph-name="uni10E3" unicode="&#x10e3;" horiz-adv-x="1201" 
d="M1125 658q0 -20 -3 -41l-79 -562q-25 -179 -57 -261q-52 -133 -166 -202q-105 -63 -250 -63q-176 0 -283 90q-115 96 -115 268h263q0 -66 40 -109.5t105 -43.5q71 0 114 54q40 51 72 275l78 554q1 7 1 17q0 46 -31 76t-76 30q-51 0 -92 -36t-48 -87l-32 -226h-216l32 226
q1 7 1 17q0 46 -31 76t-76 30h-185l29 206h185q142 0 225 -88q117 88 262 88q132 0 229 -76q104 -83 104 -212z" />
    <glyph glyph-name="uni10E4" unicode="&#x10e4;" horiz-adv-x="1859" 
d="M1775 509q0 -95 -73.5 -187t-166.5 -115q162 -67 162 -236q0 -53 -30 -151q-89 -291 -430 -291q-175 0 -283 90q-115 96 -115 268h263q0 -66 40 -109.5t105 -43.5q172 0 172 244q0 63 -69 102q-57 33 -125 33h-53l39 168h72q95 0 152 71q53 66 53 164q0 89 -49 147
t-137 58q-110 0 -174 -99q-51 -78 -60 -143l-6 -66q-18 -153 -145 -279q-153 -152 -376 -152q-194 0 -330 126q-139 129 -139 322q0 217 160 368q158 148 376 148q219 0 346 -136q153 136 360 136q201 0 329 -117q132 -121 132 -320zM782 516q0 89 -48 145q-50 60 -138 60
q-108 0 -177 -102q-61 -91 -61 -205q0 -84 50 -144q53 -63 135 -63q108 0 177 104q62 92 62 205z" />
    </font>
</defs>
</svg>
