<?xml version="1.0" standalone="no"?>
<!DOCTYPE svg PUBLIC "-//W3C//DTD SVG 1.1//EN" "http://www.w3.org/Graphics/SVG/1.1/DTD/svg11.dtd" >
<svg>
<metadata>
Created by FontForge 20120731 at Mon Mar 25 15:58:07 2019
 By www-data
Copyright (c) 2019 by Cundrawan (cove703). All rights reserved.
</metadata>
<defs>
<font id="KestoySelfie" horiz-adv-x="246" >
  <font-face 
    font-family="Kestoy Selfie"
    font-weight="400"
    font-stretch="normal"
    units-per-em="1000"
    panose-1="0 0 0 0 0 0 0 0 0 0"
    ascent="750"
    descent="-250"
    x-height="431.5"
    cap-height="714"
    bbox="-207 -243.63 769.178 731.581"
    underline-thickness="50"
    underline-position="-50"
    unicode-range="U+000D-007A"
  />
<missing-glyph 
 />
    <glyph glyph-name=".notdef" 
 />
    <glyph glyph-name="NULL" horiz-adv-x="0" 
 />
    <glyph glyph-name="NULL" horiz-adv-x="0" 
 />
    <glyph glyph-name="nonmarkingreturn" unicode="&#xd;" 
 />
    <glyph glyph-name="space" unicode=" " 
 />
    <glyph glyph-name="b" unicode="b" horiz-adv-x="408" 
d="M210 424q58 15 96.5 4t60 -39.5t26.5 -70t-4 -87t-31 -91t-55.5 -81t-77 -57.5t-94.5 -21q-28 3 -50 9t-38 16.5t-25 28t-11 44.5q-2 13 -1 29.5t3 33t4 32.5t3 29q6 41 12 77.5t13.5 72t16 72.5t18.5 79q9 31 18 62.5t20 56.5t27 38.5t39 8.5q33 0 49.5 -13t21.5 -34
t0.5 -47.5t-12.5 -54t-16.5 -53t-12.5 -44.5zM254 268q1 22 -11 32t-27.5 10t-29.5 -8.5t-17 -23.5q-6 -23 -13.5 -51t-12.5 -53t-5.5 -43.5t6.5 -21.5q23 -6 43 8.5t34.5 39t23 54.5t9.5 57z" />
    <glyph glyph-name="c" unicode="c" horiz-adv-x="409" 
d="M272 370q-42 -22 -68.5 -47.5t-42 -52t-22.5 -53.5t-11 -51q-5 -32 11.5 -52t45.5 -22q23 -1 41.5 6t35.5 18t33 24.5t33 25.5q2 1 9 7t14.5 11.5t14.5 8t10 -1.5q11 -13 9 -28t-9 -29q-18 -37 -46 -70t-62.5 -55.5t-74 -30.5t-79.5 7q-47 15 -72 51t-34 85q-5 39 0 78
t17.5 75.5t32 70t43.5 62.5q18 20 40.5 38t47.5 31t51.5 18t53.5 0q37 -11 62 -39.5t28 -70.5q4 -62 -30 -112q-6 -11 -16.5 -20.5t-22.5 -14.5t-24.5 -5t-22.5 9q-23 20 -17 48q5 18 11.5 40.5t9.5 40.5z" />
    <glyph glyph-name="d" unicode="d" horiz-adv-x="417" 
d="M243 87q-12 -26 -32 -49.5t-51 -31.5q-28 -12 -52.5 -4t-43.5 27t-32 44.5t-18 47.5q-6 40 -2.5 81t16 78.5t34 71.5t51.5 61q40 35 84 46t90 -12q10 27 18 58.5t17 60t21 50.5t30 31q17 13 43 8q22 -6 34 -19.5t15.5 -30.5t0 -36t-12.5 -35q-45 -115 -68.5 -235.5
t-28.5 -259.5q0 -5 -1 -9.5t-1 -9.5q-5 -12 -12.5 -20.5t-22.5 -7.5q-20 1 -33.5 10.5t-22.5 23t-13.5 30t-6.5 31.5zM265 340q-27 -3 -53 -19t-46 -40t-31.5 -52.5t-9.5 -55.5q0 -13 5 -22t13.5 -11.5t19.5 3t23 20.5q9 9 20 21.5t21.5 33t20.5 50t17 72.5z" />
    <glyph glyph-name="e" unicode="e" horiz-adv-x="377" 
d="M139 165q-2 -14 2 -27t12 -22t19.5 -12.5t25.5 1.5q30 9 53.5 22.5t47.5 27.5q16 11 29.5 12.5t20.5 -4.5t7 -18t-11 -28q-27 -46 -66.5 -77t-90.5 -45q-50 -13 -95.5 9t-69.5 69q-21 51 -21.5 103.5t16 101.5t48.5 90t76 69q26 16 60 22t65 0q44 -8 68.5 -39.5
t22.5 -76.5q-1 -38 -16.5 -68.5t-41.5 -53.5q-35 -29 -72 -46.5t-89 -9.5zM252 341q-14 9 -30.5 2.5t-31.5 -21t-26 -34.5t-13 -39q23 0 44 9t35.5 22.5t21 30t0.5 30.5z" />
    <glyph glyph-name="f" unicode="f" horiz-adv-x="340" 
d="M284 362q-10 14 -21 9.5t-23 -20t-23.5 -39t-20.5 -47t-15.5 -44t-8.5 -30.5q7 -1 17.5 -2t22 -1.5t21 -1.5t14.5 -3q43 -14 50 -54q6 -25 -5.5 -41.5t-37.5 -16.5q-8 -1 -21.5 0t-28 2.5t-28.5 3t-24 2.5q-5 -12 -9 -41t-7 -65t-5 -75t-3 -71q-3 -32 -13.5 -43.5t-23 -8
t-26 19t-22.5 38.5q-12 36 -17.5 67t-7 62t-1 63.5t-0.5 70.5q-11 4 -23 6.5t-23 6.5q-15 8 -21.5 23t4.5 26q18 11 35 15.5t37 8.5q6 28 15 64.5t22 74.5t30.5 74t41 63t52.5 41.5t66 9.5q46 -8 80 -53q16 -17 19.5 -43.5t-4 -48t-24.5 -31t-42 6.5q-6 5 -6.5 9t1.5 6.5
t4.5 4.5z" />
    <glyph glyph-name="g" unicode="g" horiz-adv-x="376" 
d="M173 11q-47 -1 -79.5 15t-53 43t-29.5 63t-8 77q3 66 26.5 113t61.5 76q15 13 36 22.5t43 14.5t43 5t36 -7q41 15 72 3t40 -44q5 -11 5 -28.5t-2.5 -38.5t-6 -43t-5.5 -42q-11 -67 -23 -137.5t-30.5 -131t-46 -104.5t-69.5 -57q-24 -8 -52 -0.5t-53.5 25.5t-45.5 44
t-29 55q-2 22 6 34t21 16t28.5 -0.5t27.5 -16.5q6 -6 9 -8.5t5 -4t4.5 -3t8.5 -7.5q15 -9 26.5 -3.5t18.5 17.5t11 27t4 26zM148 113q12 -14 23 -7.5t19.5 25.5t15.5 45.5t12 53.5t7.5 51t3.5 36q-15 5 -30 -4t-28 -27t-22.5 -42t-13 -48.5t-1 -46.5t13.5 -36z" />
    <glyph glyph-name="h" unicode="h" horiz-adv-x="428" 
d="M347 420q47 -20 59.5 -65.5t-4.5 -117.5q-8 -28 -17 -58l-18 -60t-17 -59t-14 -54q-4 -18 -17 -18.5t-27 9t-25.5 24t-13.5 25.5q-10 21 -11 44t3 48.5t10.5 54.5t11.5 62q1 5 2.5 10.5t0.5 9t-7 3.5t-19 -5q-38 -26 -59.5 -51.5t-35 -52.5t-22.5 -58t-21 -69
q-7 -24 -23 -45q-7 -12 -22 -8.5t-26 18.5q-17 31 -22 77t-2 97.5t12 103t20 93.5q6 21 13.5 45.5t16 49.5t17 49t15.5 44q7 18 16 35.5t20 33t25 27.5t32 17q25 4 42.5 -5.5t26.5 -26.5t9 -39.5t-11 -44.5q-5 -17 -16.5 -45.5t-23.5 -59t-21 -57.5t-9 -42q15 15 31.5 30
t35.5 25.5t40.5 13t44.5 -7.5z" />
    <glyph glyph-name="i" unicode="i" horiz-adv-x="203" 
d="M16 163q0 58 4 108.5t25 97.5q12 27 31 39t38 11t36 -15t26 -40q7 -23 6 -47.5t-6 -45.5q-14 -62 -28 -131.5t-24 -132.5q-7 -17 -24 -17t-34 18q-14 14 -23 33t-14.5 40t-8 42t-4.5 40zM215 520q6 -14 5.5 -29t-6 -27t-15 -20.5t-22.5 -9.5q-14 -1 -28 3.5t-26.5 12.5
t-22.5 19.5t-15 24.5t-3.5 27.5t8.5 26.5t18 20t25 8q26 1 50 -15t32 -41z" />
    <glyph glyph-name="j" unicode="j" horiz-adv-x="214" 
d="M-207 -105q1 15 1 22.5t1 13t3 10t7 13.5q10 11 22 14.5t22.5 -1.5t16.5 -18.5t4 -34.5q1 -12 4.5 -23.5t13.5 -22.5q12 -12 24 -13t23 5t19.5 16.5t12.5 22.5q11 25 21 64.5t18.5 87t14 98.5t7.5 98q2 14 4 35.5t5 44.5t8.5 44.5t17 35.5t29 17.5t44.5 -10.5
q35 -16 43.5 -47t6.5 -64q-4 -31 -8.5 -66.5t-11.5 -64.5q-14 -82 -29.5 -165.5t-46.5 -156.5q-18 -39 -46.5 -61t-60 -29t-64.5 -0.5t-59.5 24.5t-45 46.5t-21.5 64.5zM152 585q30 3 54.5 -15t31.5 -43q3 -14 -0.5 -27t-11.5 -23.5t-19 -16.5t-23 -6q-25 1 -51.5 17
t-34.5 39q-3 14 -0.5 27.5t10 24t19 17t25.5 6.5z" />
    <glyph glyph-name="k" unicode="k" horiz-adv-x="381" 
d="M178 376q11 14 27 27.5t34 23.5t36 14t34 0q23 -7 37 -20t22 -36q7 -22 5 -45t-10.5 -44t-22.5 -39.5t-30 -31.5q-11 -9 -22 -17l-22 -16q5 -45 19.5 -81t35 -62.5t46 -44t52.5 -27.5q12 -5 17 -11t4.5 -12.5t-6 -11.5t-14.5 -8q-56 -9 -103 2.5t-82.5 40.5t-57.5 73.5
t-27 101.5q-19 2 -27.5 -3.5t-8.5 -23.5q-4 -22 -7 -43t-8 -42q-5 -22 -17 -39q-22 -12 -36.5 -4.5t-23 27t-12 47t-4 56.5t0.5 55.5t1 42.5q3 51 14 110t27 116.5t36.5 108.5t42.5 85q13 18 31 30t36.5 14.5t35 -5.5t25.5 -30q7 -24 5 -49t-13 -45q-3 -9 -13 -35t-22 -55.5
t-22 -56t-13 -37.5zM138 229q28 4 45.5 11t29 16t17.5 19t11 20q1 8 0.5 16t-4 13.5t-9.5 7t-15 -3.5q-11 -9 -19.5 -15.5t-17 -16.5t-17.5 -25.5t-21 -41.5z" />
    <glyph glyph-name="l" unicode="l" horiz-adv-x="184" 
d="M104 622q11 16 24 31.5t29 22.5q22 13 42.5 6.5t34.5 -25t19 -44.5t-5 -50q-27 -62 -49 -115t-38.5 -113t-26.5 -133.5t-13 -175.5q-3 -16 -10 -27q-15 -15 -37 -13.5t-33 26.5q-26 65 -32.5 144.5t3 162t33.5 161.5t59 142z" />
    <glyph glyph-name="m" unicode="m" horiz-adv-x="607" 
d="M181 398q20 25 49 37.5t57.5 10.5t52.5 -18.5t34 -47.5q20 27 52 41t64.5 12t58 -22t32.5 -60q7 -35 2.5 -82.5t-15.5 -97t-26.5 -94.5t-30.5 -75q-15 -16 -29 -14t-26 13t-21 27t-13 30q-8 22 -7.5 43.5t4 42t9.5 40.5t11 41q1 7 3.5 20.5t2.5 26t-4 19.5t-15 1
q-15 -9 -29.5 -35t-27.5 -58.5t-23.5 -67t-16.5 -60.5q-5 -17 -12.5 -36t-18 -31.5t-24.5 -14t-32 16.5q-16 18 -19 38t-5 41q-3 52 5 99t21 93q3 9 -1 13.5t-10.5 5.5t-13.5 -2t-10 -9q-10 -12 -18.5 -22.5t-16 -25.5t-15 -36t-15.5 -53q-9 -31 -16 -61.5t-17 -61.5
q-9 -21 -23 -28t-29 -2t-28 20t-20 36q-8 34 -6.5 69.5t7.5 68.5t13.5 62t11.5 52q1 40 12.5 74.5t31 52t45 12.5t55.5 -44z" />
    <glyph glyph-name="n" unicode="n" horiz-adv-x="424" 
d="M229 292q-27 -12 -45.5 -30.5t-32.5 -45.5t-24 -62t-20 -80q-3 -11 -6 -26t-8.5 -28.5t-14.5 -21.5t-24 -6q-22 14 -33.5 44t-14.5 69t1 83t12.5 85.5t20.5 78t25 60.5q13 15 38 23.5t48.5 7t38.5 -14.5t9 -43q73 44 120.5 42.5t71 -35.5t23 -92.5t-21.5 -127.5
q-11 -35 -29 -73.5t-27 -81.5q-10 -28 -27 -31t-32.5 9.5t-26 36.5t-8.5 51q-1 13 0.5 31t4.5 36.5t7 37t7 32.5t3.5 28t-3 24.5t-11.5 16.5t-21 3z" />
    <glyph glyph-name="o" unicode="o" horiz-adv-x="387" 
d="M364 293q0 -41 -6.5 -87t-22.5 -88.5t-42.5 -77t-65.5 -51.5q-44 -15 -83.5 -11t-70.5 24t-49.5 54t-20.5 78q-5 103 24.5 176t88.5 117q39 27 82 31t79.5 -14t61 -56.5t25.5 -94.5zM207 328q-21 -9 -35.5 -32t-23.5 -50t-13 -54.5t-3 -45.5q0 -22 8 -33t18.5 -13
t21.5 3.5t17 15.5q22 32 32.5 64.5t16.5 71.5q0 5 0.5 20t-3 29t-12 22.5t-24.5 1.5z" />
    <glyph glyph-name="p" unicode="p" horiz-adv-x="419" 
d="M196 417q20 16 42 24t48 4q51 -9 77.5 -45.5t35.5 -89.5q10 -64 -6.5 -123.5t-53.5 -102.5t-91 -62t-120 -1q-8 -54 -19.5 -106.5t-33.5 -90.5q-13 -15 -26.5 -13.5t-25 12t-20 27.5t-10.5 34q-4 8 -3.5 49.5t4.5 99.5t12 124.5t19 125.5t24 102.5t28 55.5q50 42 119 -24
zM248 337q-23 -8 -42.5 -22t-27.5 -39q-3 -17 -7.5 -38l-9 -42t-8 -40.5t-4.5 -32.5q15 -6 27.5 -4.5t23 8t18.5 16t14 17.5q21 32 29.5 68t11.5 78q-1 5 -2.5 11.5t-4.5 11.5t-7.5 7.5t-10.5 0.5z" />
    <glyph glyph-name="q" unicode="q" horiz-adv-x="406" 
d="M295 -64q14 34 40.5 51.5t58.5 12.5q17 -2 28 -9t14.5 -17t-1.5 -20.5t-20 -18.5q-20 -9 -33 -19.5t-22 -23t-16.5 -28.5t-16.5 -35q-17 -31 -49 -34.5t-62 19.5q-18 15 -29 38.5t-15.5 51.5t-3 58.5t9.5 60.5q-26 -11 -46 -14.5t-37 1t-33.5 17.5t-35.5 36
q-27 44 -27 101.5t23.5 112.5t68.5 99.5t108 62.5q19 6 39 9t38.5 1.5t34 -8.5t24.5 -20q28 -7 40.5 -26t15.5 -41.5t-1 -44.5t-7 -35q-15 -41 -33.5 -85t-33 -88.5t-22 -86.5t0.5 -78zM257 315q-24 1 -44.5 -11t-37 -30t-27.5 -38.5t-15 -38.5q-6 -17 -3 -32t11.5 -23.5
t21 -7t25.5 17.5q10 22 17.5 42t14 40t15 40t22.5 41z" />
    <glyph glyph-name="r" unicode="r" horiz-adv-x="370" 
d="M192 365q10 8 18.5 17.5t18 19t22.5 18t32 14.5q39 7 63 -11t32 -46t0 -58.5t-32 -48.5q-12 -12 -28.5 -15t-31.5 0t-25 11t-10 18q-13 2 -26 -6t-25 -23t-21.5 -35.5t-15.5 -43.5q-7 -25 -15 -51.5t-17 -50.5t-18 -42.5t-17 -25.5q-10 -13 -31 -21q-25 -3 -37.5 13.5
t-17 45t-2.5 66.5t7.5 79.5t12.5 82.5t11 76q6 26 20 50t41 28q18 6 35 4t29.5 -10.5t20 -22.5t7.5 -32z" />
    <glyph glyph-name="s" unicode="s" horiz-adv-x="353" 
d="M116 193q-62 35 -72.5 85.5t30.5 109.5q16 23 41.5 40t54.5 26t59 10t56 -7.5t45 -27t26 -48.5q6 -29 -2 -48.5t-22.5 -30.5t-32 -12.5t-30 6t-17 23t6.5 40.5q-10 15 -28.5 14t-32 -13t-14.5 -32.5t23 -42.5q34 -20 59 -41t38.5 -44.5t15 -52t-9.5 -63.5
q-17 -39 -46.5 -64t-65 -35.5t-74 -7.5t-72.5 19q-23 9 -37 25.5t-19.5 35.5t-3 37.5t13.5 31t30.5 16t46.5 -6.5q14 -7 19.5 -15t8 -15.5t3.5 -13t6 -8.5q31 -11 47 -3.5t15.5 25.5t-17 42t-49.5 46z" />
    <glyph glyph-name="t" unicode="t" horiz-adv-x="197" 
d="M233 560q17 -1 37 -0.5t36.5 -4.5t25.5 -18.5t5 -43.5q-6 -23 -20 -32.5t-32 -12t-38.5 -1.5t-39.5 0q-38 -104 -55 -184.5t-25 -138t-13 -92t-17 -46.5q-11 -14 -30 -10.5t-30 23.5q-22 45 -25 88.5t-3 91.5q1 28 6 65.5t12 76t15 75t16 63.5q-10 1 -26.5 3t-33.5 4.5
t-31 5t-20 5.5q-22 12 -25 27t14 28q12 10 28.5 15t34.5 7q3 1 16 2t28.5 2.5t29.5 2.5t18 1q9 20 17.5 41.5t20 39t28.5 28t44 7.5q29 -4 39.5 -16t10.5 -28.5t-6.5 -36t-11.5 -37.5z" />
    <glyph glyph-name="u" unicode="u" horiz-adv-x="415" 
d="M237 105q-19 -28 -37 -50.5t-39 -45.5q-30 -21 -56 -15t-46 29.5t-34 60.5t-18 79q-3 23 -2 54t6.5 64t15.5 65t25 57q20 32 44.5 42.5t56.5 -6.5q33 -20 32.5 -45.5t-12.5 -56.5q-11 -21 -19.5 -46.5t-13.5 -51t-7 -49.5t0 -42q3 -22 14 -21t17 12q31 32 51 66t34 81
q5 20 12 44t18 46t27 38t39 21q26 4 46.5 -13t25.5 -43q6 -28 0 -54q-2 -20 -6.5 -39.5t-9.5 -39.5q-10 -42 -20 -82.5t-22 -80.5q-4 -11 -8 -27t-10 -30.5t-15.5 -23.5t-23.5 -6q-17 7 -28 19t-18 27t-11 31.5t-8 31.5z" />
    <glyph glyph-name="v" unicode="v" horiz-adv-x="392" 
d="M165 126q44 57 67.5 124.5t27.5 130.5q1 23 -1.5 47.5t2.5 46.5q11 28 35 26.5t55 -22.5q32 -26 41.5 -67t2.5 -88t-26 -95.5t-42.5 -90t-47.5 -72t-41 -40.5q-14 -14 -39.5 -24.5t-45.5 -16.5q-40 -5 -68.5 17.5t-46 62t-25 90.5t-6.5 101.5t11 96.5t27 75
q14 32 40.5 44t55.5 -7q15 -13 21 -28.5t5.5 -32t-5 -33.5t-8.5 -33q-10 -31 -16.5 -66.5t-15.5 -66.5q-6 -11 -6.5 -34.5t4 -42t16 -23.5t29.5 21z" />
    <glyph glyph-name="w" unicode="w" horiz-adv-x="613" 
d="M121 103q9 -13 21.5 -1.5t26 38t28.5 63t30 74t29 71.5t27 54q14 25 36 35t45 -8q30 -23 32 -57q0 -17 -5 -37q-4 -17 -8.5 -33.5t-9.5 -33.5q-8 -29 -15 -58l-14 -58q-2 -7 -4 -16t-2 -18.5t2 -17.5t10 -14q14 -2 28 11t22 24q32 48 44 103t3 124q-2 18 -2 35.5t6 33.5
q8 17 21 26t34 6t36 -15t25 -29t16 -36.5t8 -37.5q5 -34 3 -66t-9 -61q-11 -36 -25 -70t-35 -64q-17 -25 -39 -45t-51 -34q-18 -11 -46 -14q-38 -7 -71.5 11.5t-59.5 58.5q-5 8 -9 16.5t-9 19.5q-13 -12 -23.5 -25.5t-21.5 -26t-23.5 -24t-28.5 -18.5q-27 -13 -57 -1t-50 45
q-25 39 -29.5 90t4.5 103t29.5 100t45.5 81q16 18 32 31.5t41 10.5q11 -2 21.5 -8t19 -15t13 -20t2.5 -21q-12 -23 -31.5 -55.5t-36.5 -70t-26 -78t0 -78.5z" />
    <glyph glyph-name="x" unicode="x" horiz-adv-x="411" 
d="M230 348q28 22 47.5 43.5t34.5 47.5q5 8 9.5 17.5t10.5 17.5q11 11 26.5 10t29.5 -15q12 -13 16.5 -30t4 -35t-5 -35.5t-11.5 -32.5q-14 -26 -26 -44.5t-25.5 -33t-30.5 -28t-39 -29.5q3 -11 8 -32.5t12.5 -43t17.5 -36.5t23 -13q17 2 32 -5.5t13 -27.5q0 -16 -8.5 -32
t-24 -27.5t-35.5 -16.5t-42 1q-15 1 -30.5 16t-30.5 36.5t-27 46t-19 44.5q-17 -7 -37 -25t-38.5 -40.5t-33 -45.5t-21.5 -39q-5 -12 -18.5 -7t-19.5 21q-11 30 -6 57t17 59q9 18 22.5 38t30 39.5t35 38.5t37.5 35q-5 28 -13.5 55t-28.5 56q-9 10 -23 10.5t-25 3.5
q-9 8 -10.5 16t-0.5 18q2 22 14 39t29.5 26.5t38.5 10.5t42 -9q36 -20 50.5 -51t28.5 -69z" />
    <glyph glyph-name="y" unicode="y" horiz-adv-x="430" 
d="M145 -97q12 -9 23.5 5t21.5 40t17.5 57.5t12.5 56.5q-23 -16 -40.5 -33.5t-40.5 -26.5q-20 -8 -40 -6t-37 12.5t-30.5 29t-19.5 43.5q-6 22 -5 63t8.5 87.5t21.5 90.5t33 73q21 26 48 36.5t55 -11.5q20 -21 17.5 -41t-8.5 -43q-5 -15 -11 -34t-12.5 -38.5t-12.5 -39
t-10 -34.5q-3 -11 -5.5 -27t-2.5 -29t4.5 -20.5t15.5 -2.5q8 6 18.5 15t21 20t20.5 22.5t17 21.5q15 25 24 55.5t17.5 61t20 58t31.5 46.5q5 6 12.5 10.5t13.5 7.5q13 4 26 1t23.5 -10.5t17.5 -19.5t8 -27q4 -33 -2 -65q-12 -50 -26.5 -103.5t-30.5 -107t-33.5 -105
t-36.5 -97.5q-16 -35 -37 -65.5t-59 -41.5q-27 -8 -58 2t-54 34q-23 25 -31.5 56.5t-0.5 59.5q8 26 27.5 25.5t40.5 -26.5q7 -8 13 -16.5t14 -19.5z" />
    <glyph glyph-name="z" unicode="z" horiz-adv-x="400" 
d="M284 101q18 -38 16 -84.5t-20 -89t-49 -75.5t-70 -45q-24 -7 -51.5 -3.5t-52 17.5t-43 39.5t-23.5 63.5q-3 28 3.5 36t17.5 5t26.5 -12.5t30.5 -18.5q16 -11 34 -12t33 5t26.5 18.5t15.5 30.5q1 6 2 15.5t2 20t1.5 19.5t1.5 15q-6 0 -16 -4t-21.5 -8.5t-22.5 -8.5t-18 -5
q-25 -2 -40.5 16t-10.5 42q2 17 10.5 29.5t21.5 21.5q15 10 39.5 26t49.5 35.5t45.5 41t28.5 42.5q6 14 4.5 26t-20.5 12q-63 -7 -106 -37t-80 -72q-14 -10 -27.5 -3.5t-19.5 25.5q-10 39 2.5 71t37.5 58q25 24 55.5 43t63.5 31t66.5 15.5t66.5 -4.5q29 -9 48.5 -28t30 -43
t12.5 -51.5t-5 -54.5q-11 -48 -35 -89.5t-61 -71.5z" />
    <glyph glyph-name="a" unicode="a" horiz-adv-x="413" 
d="M238 68q-33 -36 -51.5 -49t-35.5 -17q-22 -3 -43.5 2.5t-39.5 18.5t-31 32.5t-19 44.5q-13 54 -5.5 110.5t32.5 105.5t66.5 84.5t98.5 46.5q24 7 50 4t48.5 -15t39 -31.5t19.5 -45.5q16 -19 22 -45.5t1 -51.5q-12 -65 -24 -124.5t-19 -126.5q-8 -18 -27 -21.5t-37.5 4.5
t-32.5 27t-12 47zM253 329q-17 -1 -32 -8.5t-27.5 -18.5t-22.5 -25t-17 -27q-9 -15 -14 -34.5t-6 -37.5t2.5 -32t13.5 -18q16 -8 30.5 -2.5t26.5 22t23 44t20 62.5q1 3 4 15.5t4.5 25.5t1 23.5t-6.5 10.5z" />
    <glyph glyph-name="D" unicode="D" horiz-adv-x="548" 
d="M537 299q-27 -61 -64 -120.5t-85 -107t-107 -78.5t-129 -34q-28 -2 -52.5 4.5t-43.5 20t-31 33.5t-15 45q-5 43 1 95t18 106t28 108.5t30 104.5q8 29 3.5 50t-24.5 52q-8 11 -3.5 27.5t18.5 27.5q35 28 77.5 45.5t86 25t84 6t72.5 -11.5q73 -21 113 -65.5t53.5 -100.5
t4 -117t-34.5 -116zM252 563q-9 -56 -25 -119.5t-32 -123t-28.5 -109t-14.5 -77.5q-1 -18 4 -27t14 -10.5t20.5 3t22.5 13.5q33 18 65 51.5t60 75.5t49 89t32 92q15 45 3.5 81t-38.5 56.5t-63 23t-69 -18.5z" />
    <glyph glyph-name="E" unicode="E" horiz-adv-x="541" 
d="M216 415q20 3 54 8.5t67 9t57 2.5t25 -11q5 -28 -11.5 -49.5t-46.5 -32.5q-15 -6 -39 -12.5t-50 -12.5t-50.5 -11.5t-39.5 -10.5q-4 -13 -10 -34t-11.5 -44t-9 -46t-2 -40.5t9 -27t24.5 -5.5q45 15 82 30.5t69.5 32.5t62.5 36t61 43q12 11 24 21t20 13.5t12 -3t0 -28.5
q-5 -23 -14.5 -43t-21.5 -37q-28 -40 -62 -71.5t-71.5 -56t-77 -44t-78.5 -35.5q-38 -12 -70 -6.5t-56.5 24t-39.5 47.5t-17 62q-2 32 0.5 58.5t8 52t12 51.5t12.5 57q-11 11 -18.5 25t-6 28t14 26t42.5 19q4 12 12 36.5t15 52.5t11.5 53.5t2.5 37.5q-6 33 19 49
q21 16 42 26q61 30 123 47.5t125 24.5q24 2 50 0t49 -9.5t42 -22t29 -36.5q7 -19 1.5 -32.5t-20.5 -16.5q-62 2 -132 -8t-139 -44q-21 -10 -33 -18.5t-19.5 -19t-12 -25t-11.5 -36.5q-2 -8 -4 -20.5t-5 -23.5z" />
    <glyph glyph-name="F" unicode="F" horiz-adv-x="424" 
d="M209 378q20 1 45.5 3t38.5 1q35 -5 59.5 -12.5t48.5 -29.5q12 -10 12 -19.5t-6.5 -18t-16.5 -14t-19 -8.5q-50 -8 -99.5 -11.5t-94.5 -16.5q-9 -20 -15.5 -51t-13 -65t-13 -67.5t-15.5 -58.5q-3 -12 -7 -26t-10.5 -25.5t-16.5 -18.5t-26 -4q-17 4 -27.5 18t-17.5 34
q-14 42 -12 89t10 88q5 29 11 57l12 56q-5 12 -10 24.5t-5 24.5t7.5 22.5t27.5 18.5q8 32 14.5 59t14.5 58q6 24 8 47.5t-5 50.5q-8 32 -3.5 45t27.5 24q48 21 96.5 38.5t97 26.5t96.5 7t94 -19q30 -14 55 -36t37 -52q7 -15 2 -28t-19 -14q-13 -1 -25.5 1t-25.5 4
q-24 3 -61 3t-76.5 -3.5t-76 -10t-58.5 -15.5q-8 -37 -19.5 -82t-19.5 -94z" />
    <glyph glyph-name="G" unicode="G" horiz-adv-x="546" 
d="M382 274q-6 1 -16 3t-21 4.5t-21 5t-16 2.5q-45 24 -42.5 44t33.5 33.5t80 19.5t97 1q28 -2 42.5 -15t13.5 -45q-7 -51 -13 -92.5t-13 -80t-16 -77.5t-22 -85q-4 -22 -17.5 -36.5t-32.5 -18t-40.5 6t-41.5 36.5q-15 -4 -36.5 -8t-44.5 -6.5t-45.5 -1.5t-39.5 6
q-52 15 -86.5 45.5t-53.5 71t-25.5 87.5t-3 95t15.5 94t28 84q34 87 97 149t137.5 89t150 15.5t133.5 -69.5q21 -21 20 -38.5t-14.5 -28t-35.5 -13.5t-43 5q-45 15 -86.5 12.5t-77.5 -18t-66 -41.5t-52 -58q-14 -22 -27 -52.5t-22.5 -64.5t-13.5 -69t0 -66t18.5 -55.5
t41.5 -36.5q49 -18 80 -8.5t50 36t29 64t18 75.5z" />
    <glyph glyph-name="H" unicode="H" horiz-adv-x="580" 
d="M242 411q35 -14 69 -26t74 -26q10 37 26 80.5t36 87t44 84.5t51 73q8 9 21 17t28 12t29.5 1.5t26.5 -13.5q13 -11 17 -24.5t3 -28t-5.5 -28t-9.5 -23.5q-14 -33 -30 -71.5t-31 -78t-28.5 -79t-22.5 -74.5q13 -12 17 -26t0.5 -27t-15 -23t-29.5 -13q-17 -61 -18 -117.5
t-2 -118.5q1 -19 -16 -23t-34 7q-32 28 -49 63t-25 74t-8.5 79t1.5 79q-44 16 -83.5 23.5t-78.5 10.5q-29 -103 -32 -193t8 -165q-2 -23 -16.5 -27t-35.5 9q-17 11 -29.5 27.5t-22.5 34.5q-18 39 -26 86.5t-10.5 94t-1 87t4.5 65.5q-1 1 -1.5 4t-1.5 5q-27 25 -32 39.5
t5 37.5q4 11 10.5 20.5t14.5 11.5q23 5 33.5 21.5t18.5 36.5q12 35 28 77t37.5 78.5t51.5 63t71 29.5q31 -1 40.5 -18.5t7.5 -40.5t-10.5 -45.5t-12.5 -34.5q-21 -48 -34 -90t-23 -85z" />
    <glyph glyph-name="I" unicode="I" horiz-adv-x="197" 
d="M86 603q9 20 19.5 42t23 39t29.5 26t40 4q28 -6 40.5 -22t15 -35t-3 -38t-12.5 -31q-31 -66 -53 -145.5t-35.5 -158.5t-18 -152t-0.5 -126q-3 -15 -16 -22t-29 -6.5t-32 8t-25 22.5q-16 58 -18 137.5t7 162.5t26.5 161t41.5 134z" />
    <glyph glyph-name="J" unicode="J" horiz-adv-x="392" 
d="M306 577q-29 6 -62.5 2t-65 -15.5t-56 -30t-34.5 -41.5q-7 -8 -16 -5t-14 15q-9 21 -10.5 45t3.5 47.5t15.5 45t25.5 38.5q28 31 70.5 43.5t90 9.5t93.5 -19.5t82 -41.5q38 -24 18 -65q-21 -54 -37 -120.5t-30 -134.5t-28.5 -132t-32.5 -113q-12 -33 -26.5 -67t-34 -63.5
t-45.5 -52.5t-60 -35q-23 -7 -47 -1t-44.5 22.5t-35.5 41t-21 54.5q-5 28 0 58t17 55.5t29.5 44.5t38.5 25q11 4 19 -5.5t6 -24.5q-2 -17 -5 -33.5t-4 -33.5q0 -19 6 -29t15 -12t19 4t18 20q11 13 22 44t21.5 73t21.5 91.5t23 101.5t25.5 102t29.5 92z" />
    <glyph glyph-name="K" unicode="K" horiz-adv-x="498" 
d="M216 389q58 17 115.5 53.5t106.5 82t85 95t51 93.5q7 8 15.5 13t20.5 -3q14 -11 22.5 -28t12.5 -35.5t4 -36.5t-3 -31q-16 -50 -49.5 -93t-78 -80.5t-96 -69.5t-103.5 -58q18 -84 43 -150.5t60 -112.5t81.5 -70.5t106.5 -24.5q8 -5 9.5 -15.5t-4.5 -17.5
q-77 -26 -149.5 -11.5t-131.5 62.5t-101.5 126.5t-58.5 180.5q-14 -35 -23.5 -73t-16.5 -77t-12.5 -77.5t-9.5 -73.5q-1 -6 -9.5 -10t-19.5 -6t-21 -1.5t-14 4.5q-12 9 -18 31.5t-8.5 52.5t-2 65.5t3 70t5.5 66.5t6 55q-26 16 -28.5 32t6.5 29t24 21.5t24 11.5
q23 79 47 147.5t56 119.5q22 40 50.5 57t79.5 21q23 2 34 -7t13 -25t-3.5 -37.5t-14 -43t-18.5 -40.5t-18 -32q-20 -40 -40 -76t-30 -74z" />
    <glyph glyph-name="L" unicode="L" horiz-adv-x="618" 
d="M105 117q21 43 37 95t30.5 106.5l29 109t32 102t39.5 86t53 60.5q36 30 76.5 36.5t75 -7t57.5 -44t25 -75.5q0 -30 -9.5 -62t-26 -55t-39 -32.5t-49.5 6.5q-17 17 -18 32.5t5.5 29.5t17.5 27.5t17 27.5q4 18 -2 30t-18 13t-28 -12t-32 -45q-22 -48 -38 -104.5t-30.5 -115
t-31 -117.5t-40.5 -113q29 -2 65.5 -8t75.5 -4.5t79 15.5t77 53q8 9 18.5 17.5t19 11t13 -3t1.5 -24.5q-5 -21 -11.5 -42.5t-15.5 -40.5q-16 -35 -33 -58t-41 -36t-57.5 -16t-82.5 2q-40 2 -79 8.5t-77.5 10t-77.5 0.5t-79 -19q-22 -7 -28 13t-0.5 48.5t19.5 55.5t31 35
q13 3 23.5 1t26.5 2z" />
    <glyph glyph-name="M" unicode="M" horiz-adv-x="718" 
d="M104 64q-1 -10 -2 -27t-4 -33t-10.5 -28t-21.5 -12q-18 4 -29 14.5t-17 24t-8 29.5t-3 30q-3 68 13.5 144t46 151t67.5 144.5t77 123.5q14 18 30.5 35.5t34.5 31t37.5 21t40.5 6.5q24 -3 39.5 -20t19.5 -47q2 -36 -1 -67t-7.5 -61.5l-9 -61t-7.5 -64.5q13 19 27 41
t28 44.5t27.5 44t27.5 39.5q21 27 41.5 53.5t43.5 47.5t49 33.5t57 11.5q39 -5 59.5 -37.5t18.5 -81.5q0 -12 -2 -26.5t-5 -29.5t-6 -29.5t-6 -25.5q-16 -58 -35 -114.5t-35.5 -113t-27 -112.5t-8.5 -113q2 -32 -5 -48.5t-22 -21.5q-20 -7 -41.5 3t-33.5 33
q-27 57 -26.5 124t15 135t35 132.5t34.5 117.5q-29 -34 -59.5 -82.5t-59.5 -101t-56.5 -104t-49.5 -91.5q-7 -13 -17 -35.5t-23 -42t-29.5 -30.5t-35.5 -1q-19 11 -23 32.5t-8 44.5q-4 44 -1.5 96t8.5 105.5t15 107t18 100.5q-35 -42 -64 -93.5t-51.5 -108t-38 -116.5
t-21.5 -121z" />
    <glyph glyph-name="N" unicode="N" horiz-adv-x="649" 
d="M432 178q28 38 45 90t29 111t22.5 121.5t25.5 121.5q3 13 10 33t17 34t22 14.5t25 -25.5q10 -20 15 -46.5t7 -53.5t1.5 -53.5t-0.5 -46.5q-2 -96 -23 -180t-55 -161q-18 -35 -35 -59.5t-33.5 -43t-32 -31.5t-29.5 -23q-18 -13 -38.5 -14t-40 8t-37 27.5t-29.5 44.5
q-20 49 -27.5 99t-9 101t-0.5 102t-3 102q-17 -18 -33.5 -47.5t-32 -64.5t-28.5 -73.5t-23.5 -75t-18 -69.5t-10.5 -56q-2 -10 -6 -34t-12.5 -44.5t-21 -27t-31.5 17.5q-22 33 -30 69t-7.5 74t7 77t14.5 77q18 62 44.5 131t60 130t72 107t80.5 62q26 11 42 -3.5t25 -39.5
t12.5 -52.5t4.5 -42.5q2 -76 11 -144.5t11 -143.5q0 -13 1.5 -36t6.5 -42.5t13.5 -28t22.5 7.5z" />
    <glyph glyph-name="O" unicode="O" horiz-adv-x="528" 
d="M8 189q-4 63 2.5 127t24.5 123.5t49.5 112t78.5 94.5q30 28 66.5 43t77.5 20q69 2 115 -27.5t72 -79t33 -114.5t-2 -133q-4 -54 -18.5 -111t-40 -109t-60 -94.5t-77 -66.5t-93 -25t-107.5 30q-106 72 -121 210zM393 487q0 11 -3 23q-8 41 -29.5 58.5t-51.5 6.5
q-30 -15 -55 -42.5t-44 -63.5t-32 -77t-20 -82t-7 -79.5t7 -68.5q14 -48 39.5 -68.5t57.5 -2.5q35 21 64 65.5t47.5 100.5t26 116.5t0.5 113.5z" />
    <glyph glyph-name="P" unicode="P" horiz-adv-x="466" 
d="M170 222q-3 -23 -7 -50.5t-8 -55.5t-8 -54t-7 -45q-2 -14 -6 -24.5t-10 -21.5q-15 -23 -33 -19.5t-34 20.5t-27.5 42t-12.5 44q-7 63 -2.5 125.5t14 124.5t20 123t16.5 121q1 20 -1 38t-15 37q-12 22 -10 35.5t14 24.5q21 15 49.5 23t60 10t64 -1.5t63.5 -11.5
q39 -9 76.5 -31.5t66 -56t45.5 -79t16 -101.5q2 -68 -23.5 -118t-70 -79t-104 -35t-126.5 15zM189 335q20 -5 41 -7.5t39 -2t33 6t23 16.5q17 17 26.5 41.5t11 51.5t-6 53t-24 46.5t-43 31.5t-63.5 8q-3 -26 -8.5 -60.5t-11.5 -70t-11 -66t-6 -48.5z" />
    <glyph glyph-name="Q" unicode="Q" horiz-adv-x="607" 
d="M356 -50q14 -14 26 -27t25 -24q33 -32 74 -16q6 2 12 6t12 7q8 2 15.5 3.5t14.5 -10.5q5 -8 3.5 -17.5t-6.5 -17.5q-6 -8 -12 -15t-14 -12q-33 -22 -70.5 -31t-81.5 3q-42 13 -79 33.5t-69 56.5q-18 20 -35 39t-34 39q-25 26 -52 37.5t-58 0.5q-5 -2 -12 0.5t-14 3.5
q1 18 4 29.5t11 19t22.5 13.5t38.5 13q-10 46 -16.5 89.5t-7 85.5t5.5 84t21 86q21 58 51.5 113.5t73 97t97.5 63t123 11.5q64 -11 107.5 -58t57.5 -121q21 -105 6 -202q-10 -57 -27.5 -111t-43.5 -102q-28 -49 -64.5 -86.5t-83.5 -63.5q-5 -2 -7.5 -4t-6.5 -4q-1 -1 -2 -3
t-5 -9zM464 494q-1 6 -1.5 12.5t-1.5 12.5q-11 45 -36 57.5t-53 4.5t-54.5 -30t-40.5 -46q-21 -36 -39 -86t-29 -103t-14.5 -102t5.5 -83q14 -42 44 -57.5t63 1.5q37 23 68.5 72t53 109t31.5 123.5t4 114.5z" />
    <glyph glyph-name="R" unicode="R" horiz-adv-x="498" 
d="M177 207q-16 -43 -23 -94.5t-9 -99.5q0 -27 -18 -35t-40.5 2t-42 38t-20.5 72q-4 27 1.5 62.5t12.5 67.5q-27 29 -20 53t39 47q12 45 23.5 89.5t19.5 92.5q2 16 -1 30t-16 28q-13 16 -15 32t3.5 31t16.5 27.5t25 21.5q46 23 103.5 35.5t112.5 10t102 -22.5t74 -62
q28 -46 29 -101.5t-18 -110t-54.5 -102t-80.5 -77.5q6 -69 19.5 -120.5t37 -88.5t59 -60.5t86.5 -35.5q16 -4 27 -5.5t17.5 -3.5t8.5 -5.5t1 -11.5q-2 -8 -13 -14.5t-29 -11.5t-40 -6.5t-44 1.5q-117 15 -189.5 96t-90.5 234q-17 -2 -28 -2t-26 -1zM207 334q29 2 59.5 14
t57 33t45.5 50t25 65q6 39 -5 58t-30.5 23.5t-44 -1t-43.5 -15.5q-8 -23 -16.5 -51t-17 -58t-16.5 -60.5t-14 -57.5z" />
    <glyph glyph-name="S" unicode="S" horiz-adv-x="515" 
d="M435 585q-6 9 -26.5 4t-46.5 -19t-52 -34.5t-43 -41.5q-9 -6 -16 -15.5t-8.5 -18t4 -14t23.5 -3.5q20 2 49 2t49 -2q33 -2 59 -16t43 -39t23.5 -58.5t0.5 -74.5q-6 -42 -24 -80.5t-40 -68.5q-48 -67 -105.5 -112.5t-128.5 -63.5q-44 -10 -82 -3t-64 28t-38 55.5t-4 80.5
q4 22 16 45t29.5 42.5t40.5 33t50 18.5q9 2 16.5 -7.5t5.5 -20.5q-3 -21 -12.5 -37.5t-17.5 -35.5q-6 -18 -3 -29t11.5 -15t21.5 -2.5t26 8.5q42 23 79.5 53t72.5 66q11 12 19.5 25.5t13.5 31.5q3 14 -2 25.5t-16 13.5q-24 4 -48 2.5t-47.5 -4.5t-47 -5.5t-47.5 -0.5
q-23 2 -40 14t-27.5 31.5t-13 44t3.5 52.5q18 60 61 114.5t97.5 95t114.5 62.5t113 18q25 -1 42.5 -13t26.5 -30.5t9 -43t-10 -51.5q-8 -21 -24.5 -38t-33.5 -28q-34 -23 -47 24q-2 8 -3 16t-3 19z" />
    <glyph glyph-name="T" unicode="T" horiz-adv-x="355" 
d="M382 560q-35 -50 -60.5 -115.5t-42.5 -140t-27.5 -154.5t-15.5 -157q-3 -19 -9.5 -34t-24.5 -17q-21 -1 -36 12.5t-24.5 33t-15 41t-7.5 35.5q-3 19 0 68t15 116.5t35 146t61 155.5q-18 1 -45 -1t-54 -5t-50 -7t-34 -7q-7 -2 -16 -2.5t-15.5 2t-10 8.5t-0.5 16
q5 25 34 46t72 38.5t96.5 32t107.5 24.5t104.5 16.5t88.5 9.5q28 2 44 0t26 -8.5t17 -18t16 -27.5q19 -45 14.5 -66.5t-36.5 -29.5q-44 -8 -98 -5.5t-109 -5.5z" />
    <glyph glyph-name="U" unicode="U" horiz-adv-x="531" 
d="M333 74q-14 -21 -27 -40t-29 -34.5t-36.5 -25.5t-47.5 -12q-41 -2 -73.5 16t-56 46.5t-37 63t-16.5 65.5q-8 60 -5 123.5t15 128t31 129t42 126.5q17 35 46 44t74 -13q19 -11 28.5 -23.5t12 -25.5t-0.5 -26.5t-8 -25.5q-23 -51 -41 -105t-30 -105t-18.5 -97t-4.5 -80
q-2 -34 7.5 -63t26 -43t38 -9t44.5 39q20 25 34 62.5t25 83t19.5 95.5t17.5 99.5t19 96t23 83.5q11 34 37.5 39t64.5 -11q24 -11 38 -30t13 -46q-1 -9 -3.5 -21t-5.5 -24.5t-6 -24.5t-5 -19q-23 -64 -41 -142.5t-28.5 -152t-11 -131.5t11.5 -80q3 -11 -6.5 -21t-25.5 -15
t-35 -2.5t-36 16.5q-20 18 -27 42.5t-6 49.5z" />
    <glyph glyph-name="V" unicode="V" horiz-adv-x="464" 
d="M195 132q37 43 65 92.5t49 104.5t37.5 113.5t32.5 120.5q6 24 10.5 48.5t9.5 47.5q8 43 25.5 57.5t37 7.5t37.5 -32t29 -60q9 -27 3 -76t-21 -104t-36 -108.5t-41 -90.5q-26 -47 -52 -89.5t-56 -78.5t-66.5 -65.5t-83.5 -51.5q-26 -13 -52 -10.5t-48 18.5t-39 43.5
t-24 63.5q-6 43 -2 102t13 125t19.5 134t18.5 129q5 22 9.5 44t11.5 43q14 46 52 59q27 6 40.5 -11t19.5 -42.5t6.5 -52t0.5 -39.5q-4 -105 -21.5 -204t-40.5 -197q-14 -63 -0.5 -76.5t56.5 35.5z" />
    <glyph glyph-name="W" unicode="W" horiz-adv-x="667" 
d="M187 146q28 38 46 90t31.5 110t26.5 118.5t31 115.5q5 15 12 28.5t16 23.5q19 19 44.5 7.5t39.5 -45.5q6 -14 7.5 -25.5t1.5 -22t-1.5 -22t-2.5 -24.5q-8 -56 -14.5 -110.5t-9.5 -104.5t-2.5 -94t6.5 -78q7 -12 18 -1t25 38.5t29 68t29.5 87.5t28 97t23 97.5t14.5 88.5
t4 69q0 5 1 11t2 11q8 26 27.5 28t39.5 -23q15 -18 25 -46q11 -26 13.5 -53t4.5 -53q2 -54 -4.5 -103t-21.5 -96q-16 -49 -34 -92t-40 -82.5t-47 -76.5t-54 -74q-38 -43 -77.5 -50t-73 8.5t-56.5 47t-26 66.5q-18 -20 -33 -41.5t-31 -39.5t-35.5 -29.5t-44.5 -12.5
q-42 0 -68 32t-40 83q-16 76 -9.5 148.5t20.5 144t27.5 145t11.5 152.5q5 29 19 39t37 5q42 -27 57 -75t14.5 -106.5t-12 -122t-23 -120.5t-18.5 -102.5t2 -67.5q6 -6 12 -3t11.5 9.5t10.5 14t10 12.5z" />
    <glyph glyph-name="X" unicode="X" horiz-adv-x="535" 
d="M355 424q20 13 43 30.5t44 38.5t38.5 45.5t26.5 53.5q10 30 8.5 52.5t-4.5 37.5t-2 23t16 10q20 0 35.5 -19.5t24.5 -47t11.5 -57t-3.5 -50.5q-9 -40 -30.5 -73t-50 -61.5t-62 -54.5t-65.5 -52q5 -50 13.5 -109t28.5 -108q5 -19 14.5 -24.5t20 -5t21.5 5.5t19.5 7.5
t14 -0.5t5.5 -17q-9 -53 -71 -90q-34 -20 -71.5 -16.5t-61.5 37.5q-18 28 -30.5 58t-21 61t-15 61t-12.5 58q-29 -21 -55.5 -55t-48.5 -72t-36.5 -76t-17.5 -66q-3 -10 -10.5 -13.5t-16.5 -1t-18 9.5t-15 18q-18 31 -16.5 54t10.5 52q13 43 35 83t50 76t58.5 67t59.5 57
q-7 47 -13 93t-17 88.5t-30 79t-52 64.5q-4 8 -4.5 15.5t7.5 10.5q19 8 39.5 8.5t40 -5.5t36 -17t28.5 -26q13 -14 28 -36t29 -51.5t26 -67t19 -83.5z" />
    <glyph glyph-name="Y" unicode="Y" horiz-adv-x="408" 
d="M233 112q-31 -20 -62.5 -26.5t-60 2.5t-52.5 34t-39 66q-16 50 -15 112t15 123t40 115.5t59 90.5q10 11 21.5 20t28.5 10q11 1 22.5 -5t20.5 -16.5t13.5 -23.5t2.5 -27q-3 -20 -16 -42t-21 -39q-13 -29 -24 -63t-18 -68.5t-10 -67t1 -57.5q3 -21 12.5 -35.5t22.5 -20.5
t28 -2t29 19q4 47 16.5 105.5t31 116t42 107.5t50.5 80q37 47 99 29q9 -3 19 -9t17 -14.5t9.5 -18.5t-2.5 -21q-57 -75 -87 -159t-44 -168t-18 -165t-11 -151q-3 -52 -26.5 -83.5t-59 -45.5t-77.5 -12t-81 18q-33 13 -54 34.5t-32 48.5t-12 56.5t6 58.5q8 24 27 35.5t39 9.5
q18 -3 18.5 -16.5t-3.5 -30.5q-10 -28 -2 -48t25 -31.5t38.5 -14t37.5 3.5q23 10 31 30.5t8.5 46.5t-2.5 54.5t-1 54.5z" />
    <glyph glyph-name="Z" unicode="Z" horiz-adv-x="582" 
d="M261 77q20 -1 47.5 -1.5t57 3t56.5 13t47 28.5q15 10 30.5 23.5t27.5 26.5q17 7 22.5 0t4.5 -19.5t-5.5 -26.5t-7.5 -21q-18 -39 -31 -67.5t-33 -46.5t-55.5 -26.5t-98.5 -9.5q-61 0 -127.5 -2.5t-126.5 2.5l-18 2t-18 5q-51 19 -14 70q42 56 89.5 122.5t97 134.5
t99.5 134.5t97 123.5q6 7 11 14t6.5 13t-3 9.5t-17.5 3.5h-39t-45.5 -5t-46.5 -17t-41 -35q-10 -8 -19.5 -15.5t-20.5 -13.5q-14 -7 -24.5 3.5t-10.5 29.5q1 20 7.5 37.5t15.5 33.5q7 17 17.5 36t24.5 35.5t31.5 27.5t38.5 12q59 -8 111.5 -5.5t96 5.5t76.5 2t53 -16
q16 -12 19.5 -27t-0.5 -30t-13 -29.5t-18 -26.5q-91 -117 -178.5 -241t-177.5 -235q-11 -13 -12 -21.5t17 -12.5z" />
    <glyph glyph-name="A" unicode="A" horiz-adv-x="541" 
d="M391 -32q-22 4 -34.5 18.5t-19 35.5t-8 46t0 48.5t3.5 44t3 32.5q-16 5 -36.5 10t-43 9t-44.5 7t-41 4q-14 -50 -18 -96t-11 -82t-24 -58t-57 -22q-24 3 -36 22t-15.5 46.5t-1 60t8 62.5t12 54t10.5 34q-23 5 -31 28t-2 47.5t24 42t47 12.5q25 58 62 118.5t84.5 110.5
t104.5 83.5t122 36.5q36 2 53 -21t23 -56t4 -68.5t-4 -57.5q-8 -68 -18.5 -131.5t-21.5 -127.5q22 -15 31 -32t6.5 -32t-16.5 -25.5t-36 -11.5q-6 -26 -7.5 -59.5t-7 -63.5t-20 -50.5t-45.5 -18.5zM355 306q7 40 13.5 75.5t13 69t13.5 67.5t16 72q-33 -18 -65 -46.5t-59 -62
t-47.5 -69t-30.5 -66.5q42 -8 80 -17.5t66 -22.5z" />
    <glyph glyph-name="B" unicode="B" horiz-adv-x="541" 
d="M81 635q33 32 72.5 53t81.5 30.5t83.5 6.5t79.5 -18q36 -18 56 -50t24 -69.5t-7.5 -76.5t-38.5 -71q47 -12 68 -47.5t23.5 -79.5t-9.5 -88.5t-31 -73.5q-67 -97 -158.5 -144t-216.5 -58q-24 2 -43.5 8t-33 18t-20.5 31.5t-7 48.5q0 44 7.5 96t20 107.5t28 113t30.5 113.5
q7 25 5.5 48t-18.5 44q-10 17 -9.5 29.5t13.5 28.5zM143 92q-1 -9 9 -9.5t27 5t39 16t44 23.5t41.5 28t32.5 29q27 23 39.5 54.5t9.5 65.5q-2 30 -21.5 34t-41.5 -10q-14 -9 -33.5 -19t-40 -19.5t-39.5 -18.5t-32 -16q-8 -44 -17 -85.5t-17 -77.5zM208 397q31 13 52.5 28
t41.5 34q31 28 39.5 60.5t0 54.5t-33 26.5t-59.5 -22.5q-8 -37 -19 -85z" />
    <glyph glyph-name="C" unicode="C" horiz-adv-x="556" 
d="M194 -39q-37 -2 -66.5 10.5t-51.5 34.5t-37 50t-23 58q-14 52 -12.5 112t15.5 110q15 52 34 95.5t43 80t54 68.5t68 62q43 36 99 54t109 10q63 -10 94.5 -51t23.5 -113q-6 -57 -30 -103.5t-61 -83.5q-4 -5 -9.5 -8t-10.5 -5q-26 -11 -43 2.5t-18 45.5q0 31 11 56.5
t28 48.5q7 8 14.5 15.5t14.5 15.5q7 10 4 24t-12 21q-21 16 -44 9q-13 -5 -26.5 -10t-24.5 -13q-81 -54 -128 -134.5t-67 -183.5q-5 -31 0 -64q4 -38 24.5 -59.5t54.5 -23.5q14 0 27.5 2.5t27.5 7.5q32 11 61.5 30.5t56.5 42.5q26 21 49.5 43.5t47.5 44.5q11 10 23 18.5
t25 15.5q4 3 10 2t10 -4q4 -4 6 -11t0 -12q-5 -14 -9 -27.5t-11 -25.5q-38 -62 -82.5 -114.5t-102.5 -90.5q-41 -27 -79.5 -39.5t-86.5 -13.5z" />
    </font>
</defs>
</svg>
