<?xml version="1.0" standalone="no"?>
<!DOCTYPE svg PUBLIC "-//W3C//DTD SVG 1.1//EN" "http://www.w3.org/Graphics/SVG/1.1/DTD/svg11.dtd" >
<svg>
<metadata>
Created by FontForge 20120731 at Mon Mar 25 17:31:53 2019
 By www-data
Copyright (c) 2019 by Khalidin.Ink. All rights reserved.
</metadata>
<defs>
<font id="BettyLaudiaScript" horiz-adv-x="182" >
  <font-face 
    font-family="Betty Laudia Script"
    font-weight="400"
    font-stretch="normal"
    units-per-em="1000"
    panose-1="2 0 5 5 0 0 0 2 0 2"
    ascent="800"
    descent="-200"
    x-height="86.5"
    cap-height="442"
    bbox="-306.48 -432.636 1469.55 567.167"
    underline-thickness="50"
    underline-position="-50"
    unicode-range="U+000D-201E"
  />
<missing-glyph horiz-adv-x="200" 
 />
    <glyph glyph-name=".notdef" horiz-adv-x="200" 
 />
    <glyph glyph-name="NULL" horiz-adv-x="0" 
 />
    <glyph glyph-name="NULL" horiz-adv-x="0" 
 />
    <glyph glyph-name="nonmarkingreturn" unicode="&#xd;" horiz-adv-x="200" 
 />
    <glyph glyph-name="space" unicode=" " horiz-adv-x="200" 
 />
    <glyph glyph-name="e" unicode="e" horiz-adv-x="151" 
d="M151 72q4 4 7.5 0.5t-0.5 -7.5q-12 -13 -27 -28t-31 -29.5t-33 -26.5t-33 -20q-17 -8 -39 -8t-32 20q-4 7 -4.5 14.5t0.5 15.5q3 16 12 32q11 20 27.5 36.5t36.5 24.5q11 5 22 5.5t17.5 -3t7.5 -12t-8 -21.5q-8 -14 -28 -26.5t-52 -14.5q-6 -13 -10 -29q-2 -15 1 -23
q3 -7 9 -9t13 -1t13.5 3.5t10.5 4.5q16 7 32.5 19.5t32 26.5t29.5 28.5t26 27.5zM43 86q-12 -8 -23.5 -21.5t-20.5 -30.5q26 3 42.5 14t24.5 22q6 9 5.5 14.5t-4.5 7.5t-10.5 0t-13.5 -6z" />
    <glyph glyph-name="f" unicode="f" horiz-adv-x="178" 
d="M208 277q-21 -5 -44 -23t-46 -45t-45.5 -60.5t-41.5 -69.5q24 12 58 30t66.5 40t57.5 48t31 54q4 21 -8.5 25.5t-27.5 0.5zM-45 -177q5 1 5.5 -4t-4.5 -5q-15 -2 -22 6t-9 20q-2 10 -1 23t4 29q8 40 29 92q4 9 7.5 18t8.5 18q-11 5 -15 14q-3 8 0 14q2 5 6.5 2.5
t2.5 -6.5q-2 -3 0 -6q3 -5 10 -9q21 44 48 87.5t57 79.5t61.5 60.5t61.5 30.5q10 2 20 1.5t17.5 -5t11 -13t0.5 -21.5q-7 -31 -34 -58.5t-62 -51t-72 -43t-64 -33.5l-18 -36q14 2 31 7t35 12q26 9 54 17t54 9q5 0 5 -5t-5 -5q-25 -1 -51.5 -9t-52.5 -17q-21 -7 -40 -12.5
t-35 -7.5l-12 -26t-11 -25q-10 -25 -17 -47t-11 -41q-5 -23 -5 -35q0 -6 2 -13t10 -6z" />
    <glyph glyph-name="g" unicode="g" horiz-adv-x="194" 
d="M74 59q-1 17 -14 23.5t-27 -4.5q-11 -9 -20.5 -26.5t-8.5 -31.5q2 -10 7 -11q6 -1 14 3.5t16 12t16.5 16.5t16.5 18zM105 105q2 4 6 2t2 -7l-10 -22l-10 -22q-9 -19 -18.5 -38l-19.5 -39q29 12 62 33.5t77 59.5q4 3 7.5 -1t-0.5 -7q-49 -42 -85 -64.5t-68 -34.5
q-17 -33 -36.5 -64.5t-41.5 -57t-47.5 -43.5t-54.5 -25q-17 -4 -35.5 -4.5t-36 4t-31 14.5t-20.5 27q-10 26 7 55t67 46q27 9 53.5 15t52.5 11.5t52 11.5t51 14q10 17 19.5 33.5t18.5 32.5q-14 -15 -29 -26t-27 -9q-23 1 -28 21q-5 19 7.5 39t29.5 28q8 4 18 6t19 -0.5
t16 -8.5t10 -16q2 2 4 5t4 5q4 7 7.5 13t7.5 13zM-136 -215q21 7 41 23.5t40 39.5t39 51t37 57q-50 -14 -99 -22.5t-100 -25.5q-46 -15 -61.5 -41t-5.5 -49q6 -14 19 -22.5t28.5 -12.5t32 -3.5t29.5 5.5z" />
    <glyph glyph-name="h" unicode="h" horiz-adv-x="242" 
d="M242 251q-3 -17 -15 -34t-27.5 -32t-32.5 -27.5t-30 -21.5q-33 -22 -61 -38t-54 -33q-10 -22 -17.5 -42t-12.5 -37q14 19 32 42t36 37q10 8 19.5 10.5t15.5 -0.5t6.5 -9t-1.5 -13t-5 -14.5t-5 -11.5q-5 -10 -9 -20t-6 -19q-2 -13 2.5 -19t12.5 -7t18 2t18 7q17 9 35 24
t35 30q12 11 23.5 23t22.5 24q4 4 7.5 0.5t0.5 -7.5q-12 -12 -23.5 -24t-23.5 -23q-17 -16 -36 -30.5t-37 -24.5q-12 -6 -25 -8t-24.5 1t-19 11.5t-8.5 23.5q-1 10 3 20.5t9 20.5q1 2 4.5 7.5t7 11.5t6 11t1.5 6q-2 2 -6 -1t-11 -8q-11 -8 -23 -21t-23 -28t-20.5 -29
t-14.5 -22q-2 -2 -4.5 -5t-5.5 0q-2 0 -2 4q-2 26 6.5 56.5t17.5 54.5q8 21 18.5 43t22.5 43q28 47 64 84t79 48q10 2 22 2.5t21.5 -2.5t14.5 -11.5t2 -24.5zM29 81q41 24 63 37.5t40 25.5q12 8 28 20t31 27t26.5 31t14.5 31q2 12 -1.5 18t-10.5 8t-16 1t-17 -4
q-26 -8 -50 -30.5t-46 -54.5q-18 -25 -33.5 -53t-28.5 -57z" />
    <glyph glyph-name="i" unicode="i" horiz-adv-x="146" 
d="M22 87q4 0 5 -3t-1 -5q-8 -10 -22 -30.5t-22 -40.5q-5 -13 -5 -23q0 -11 5 -16.5t12.5 -6t16 1.5t15.5 6q18 8 37.5 23.5t36.5 31.5q12 11 23.5 23t22.5 24q4 4 7.5 0.5t-0.5 -7.5q-11 -12 -22.5 -24t-23.5 -23q-18 -17 -38 -32t-39 -25q-19 -9 -40.5 -6.5t-29.5 25.5
q-5 16 3 38q8 21 21 37q11 14 21.5 22.5t16.5 9.5zM61 168q5 0 8 -3.5t3 -7.5q0 -11 -11 -11t-11 11q0 5 3.5 8t7.5 3z" />
    <glyph glyph-name="j" unicode="j" horiz-adv-x="124" 
d="M40 119q-10 -17 -21 -39t-23 -48q-9 -20 -18.5 -40t-20.5 -40q19 9 37 19.5t35 21.5q29 18 53.5 38.5t41.5 40.5q4 4 7.5 1t0.5 -7q-18 -22 -43 -42t-55 -40q-39 -26 -85 -47q-16 -29 -33 -56t-36 -49t-40 -36.5t-43 -18.5q-28 -5 -37.5 12t2.5 40q10 21 29 36.5t41.5 28
t46.5 23t45 19.5l22 40l22 40q19 35 35 63t29 45q3 5 6.5 2t1.5 -7zM-205 -213q29 7 60 45.5t60 89.5q-18 -8 -39.5 -17.5t-41.5 -21t-37 -26.5t-27 -33q-9 -17 -3 -29.5t28 -7.5zM59 181q5 0 8 -3.5t3 -7.5q0 -11 -11 -11t-11 11q0 5 3.5 8t7.5 3z" />
    <glyph glyph-name="k" unicode="k" horiz-adv-x="242" 
d="M241 251q-3 -17 -16 -35q-12 -17 -33.5 -37.5t-54.5 -42.5q-18 -12 -36 -23t-35 -21q-26 -15 -45 -27q-9 -22 -16.5 -42t-13.5 -37q9 13 19.5 27t22 26.5t23 22.5t22.5 15q14 6 22.5 -0.5t0.5 -20.5q-8 -17 -29 -25t-38 -10q14 -30 30 -44q22 -20 45.5 -14.5t44.5 21.5
q20 14 38.5 34t34.5 37q5 5 8.5 9t6.5 8q4 4 7.5 0.5t0.5 -7.5q-4 -4 -7.5 -8t-8.5 -9q-16 -17 -35 -37t-39 -35q-12 -9 -27.5 -15t-31.5 -8t-32 1.5t-28 14.5q-15 15 -18 43q-12 -15 -22 -29.5t-16 -23.5q-2 -2 -2 -2.5t-1 -1.5q-2 -3 -5.5 -2t-3.5 5q-1 22 5.5 48.5t16 53
t21.5 51.5t23 44q15 25 33 48.5t38 41.5t42.5 30t46.5 14q19 2 33 -6t9 -32zM38 31q14 2 31 8.5t24 20.5q4 8 0 9.5t-11 -1.5q-12 -5 -23.5 -16t-20.5 -21zM28 81q8 5 16 9.5t17 9.5q17 10 35 21t35 23q32 22 53 41.5t33 36.5q13 19 14 31q4 19 -6.5 23.5t-25.5 2.5
q-29 -5 -56.5 -29t-52.5 -59q-17 -25 -32.5 -53t-29.5 -57z" />
    <glyph glyph-name="l" unicode="l" horiz-adv-x="167" 
d="M246 374q-25 -15 -51.5 -42.5t-51 -59.5t-45 -64.5t-34.5 -57.5q-11 -18 -19 -35t-16 -33q16 11 39.5 29.5t50.5 41.5q24 20 48 42t46 44q21 22 44 51t32 58q5 16 3 24t-9 10.5t-17 0t-20 -8.5zM-17 -12q-2 19 4.5 46t20.5 59t33 66t42 67q36 53 77 96t78 61q13 6 26.5 9
t23.5 -0.5t13.5 -14.5t-3.5 -32q-9 -29 -32.5 -59t-45.5 -53t-46.5 -45t-48.5 -42q-33 -29 -61.5 -50.5t-42.5 -30.5q-12 -29 -17.5 -51t-3.5 -36q1 -11 8 -14t15.5 -2t17 5t14.5 7q16 9 33 23t33 28q12 11 23.5 23t22.5 24q4 4 7.5 0.5t-0.5 -7.5q-11 -12 -22.5 -24
t-23.5 -23q-16 -14 -33 -28t-34 -24q-12 -7 -25 -10.5t-24 -2t-19 9.5t-10 25z" />
    <glyph glyph-name="m" unicode="m" horiz-adv-x="363" 
d="M229 100h1q8 -3 7.5 -11.5t-5.5 -20.5q-2 -6 -5.5 -12.5t-7.5 -14.5q-5 -11 -10.5 -22.5t-8.5 -21.5q-6 -18 -2 -25.5t13 -9t20.5 2.5t22.5 10q16 10 32 23t31 27q12 11 23.5 23t22.5 24q4 4 7.5 0.5t-0.5 -7.5q-11 -12 -22.5 -24t-23.5 -23q-15 -14 -32 -27.5t-34 -23.5
q-15 -9 -31 -11.5t-28.5 1.5t-19 15.5t-2.5 31.5q2 10 6.5 19.5t9.5 20.5q5 8 9.5 15.5t8.5 14.5q4 6 7 11t4 7q-11 0 -27 -16t-32.5 -37.5t-31.5 -43t-23 -33.5q-4 -6 -4 -7q-2 -2 -5 -2h-2q-12 7 -16 18t-2 24t7 27.5t11 27.5q6 16 10.5 27.5t-0.5 13.5q-11 2 -27 -12
t-33 -34.5t-32 -42.5t-25 -37q-7 -11 -11 -14.5t-15 9.5q-10 11 -10 24.5t5 26.5q4 10 9.5 20t11.5 19q11 16 23 26t18 11q5 0 5 -5q1 -1 -1 -3q-8 -11 -23 -33t-23 -45q-4 -11 -5 -20.5t4 -16.5q1 2 2 3.5t2 3.5q10 15 26 38.5t34 44.5t36 35.5t32 11.5q14 -4 16.5 -14.5
t-0.5 -25.5q-2 -9 -5.5 -18.5t-7.5 -19.5q-6 -17 -10.5 -32t-2.5 -24q9 13 25.5 37t35.5 47t37.5 38t30.5 11z" />
    <glyph glyph-name="n" unicode="n" horiz-adv-x="263" 
d="M-24 -49q-14 6 -20 21q-3 8 -2 18t5 21q4 10 9.5 20t11.5 19q11 16 23 26t18 11q4 0 5 -3t-1 -5q-8 -11 -23 -33t-23 -45q-4 -11 -5 -20.5t3 -16.5q1 1 5 7q7 11 22.5 34t34.5 45.5t38.5 38t34.5 11.5q14 -4 16.5 -15t-1.5 -26q-2 -8 -5.5 -17.5t-6.5 -19.5
q-6 -15 -9.5 -29.5t-1.5 -23t12 -9.5t32 11q30 17 60.5 46t54.5 55q4 4 7.5 0.5t-0.5 -7.5q-25 -26 -55.5 -55t-62.5 -46q-40 -23 -60 -5.5t-5 62.5q2 7 5 13.5t5 12.5q7 17 11.5 29.5t-0.5 14.5q-12 2 -28 -12t-33 -34.5t-32 -42.5t-25 -37q-2 -2 -5.5 -9.5t-8.5 -4.5z" />
    <glyph glyph-name="o" unicode="o" 
d="M51 68q4 -2 2.5 -6.5t-6.5 -2.5q-15 3 -30 -9q6 -14 21.5 -18t29.5 -4q5 10 8.5 20.5t1.5 21.5q-1 10 -6.5 16t-13 8t-16 0.5t-15.5 -7.5q-7 -7 -10 -16q19 7 34 -3zM7 40q-14 -17 -20 -37q-3 -12 -3 -22q2 -16 13 -19q10 -2 19 4t16 13q17 15 31 39q-15 1 -30.5 5.5
t-25.5 16.5zM-5 -48q-26 4 -31 28q-3 18 7 41t28 38q-2 10 2 19t12 15q9 8 21.5 11t23.5 0.5t19.5 -11t10.5 -22.5q2 -19 -9 -42l14 2t14 3q24 5 44.5 15.5t30.5 22.5q4 4 7.5 0.5t0.5 -7.5q-11 -13 -33 -24t-48 -17q-16 -4 -35 -6q-14 -26 -35 -47q-9 -8 -20 -14.5
t-24 -4.5z" />
    <glyph glyph-name="p" unicode="p" horiz-adv-x="204" 
d="M52 136q3 4 7 1t1 -7q-6 -9 -13 -18t-14 -20q2 2 8 4q7 3 16.5 4.5t18 0.5t15 -6t8.5 -15q2 -6 0.5 -13t-3.5 -15q-2 -4 -4 -7.5t-4 -8.5q31 3 65 11q17 5 30.5 11t20.5 14q3 5 7 2t1 -8q-8 -10 -23 -16.5t-34 -11.5t-38.5 -7.5t-34.5 -4.5q-7 -11 -16 -20.5t-20 -16.5
q-12 -8 -22.5 -9t-16.5 3.5t-7 12.5t6 18q10 14 24 17.5t30 3.5q2 5 5 9t5 9q7 12 9 22q2 9 -1 13t-8.5 4.5t-12.5 -1.5t-12 -4q-19 -8 -34 -26q-27 -40 -54 -81.5t-47 -77.5q-20 -37 -30 -63.5t-3 -34.5q3 -3 0.5 -6.5t-6.5 -1.5q-13 8 -12.5 23.5t3.5 27.5q5 16 13.5 34.5
t19.5 38.5q16 27 36 57t41 58.5t41.5 54.5t38.5 46zM31 -1q5 5 10.5 11.5t11.5 14.5q-15 0 -24.5 -4.5t-14.5 -11.5q-8 -11 -2.5 -17.5t19.5 7.5z" />
    <glyph glyph-name="q" unicode="q" horiz-adv-x="234" 
d="M35 78q-13 -10 -21 -28q-5 -8 -6.5 -16t-1.5 -14q0 -9 7 -11q6 -1 14 3.5t16 12t16.5 16.5t16.5 18q-2 14 -9 20q-15 11 -32 -1zM145 136q4 2 6 -1t0 -6q-2 -2 -3.5 -4.5t-4.5 -5.5q-14 -18 -40.5 -54.5t-54.5 -80.5q24 8 52 17.5t54 21.5q26 11 47 23.5t33 25.5
q3 4 6.5 0.5t0.5 -7.5q-13 -14 -35 -27t-48 -24q-30 -14 -61 -24t-57 -18q-2 -2 -2 -4q29 -7 40 -29q10 -21 1.5 -46.5t-19.5 -43.5q-6 -9 -17.5 -25t-26 -28t-30 -15t-27.5 13q-9 12 -8 30.5t9 41.5q8 22 20.5 46.5t27.5 49.5h-2q-4 0 -4.5 4.5t3.5 5.5q3 0 6 1l6 2
q10 17 23 35q-8 -5 -15 -8.5t-14 -1.5q-22 1 -27 20q-3 9 -1 20q2 5 3.5 9.5t4.5 9.5q5 10 13.5 18t19.5 13t24.5 5t24.5 -8q8 -6 11 -18l2 3q4 4 8 10q19 23 32.5 37.5t18.5 16.5zM32 -40q-11 -20 -22 -38.5t-19 -36.5q-13 -27 -19 -48.5t-1 -34.5q6 -16 18 -11.5t25 17
t24 27t14 19.5q10 16 17.5 39t-0.5 42q-5 8 -13.5 14.5t-23.5 10.5z" />
    <glyph glyph-name="r" unicode="r" horiz-adv-x="222" 
d="M14 75q11 6 27 19t27 27t10 21t-7.5 8t-16.5 -2.5t-16 -9.5q-11 -11 -19.5 -29.5t-4.5 -33.5zM102 79q-8 -10 -22 -30.5t-22 -40.5q-2 -6 -3 -11l-2 -10q0 -14 6 -19.5t15 -5.5t19 4t18 8q16 10 33 23.5t32 27.5q12 11 23.5 23t22.5 24q4 4 7.5 0.5t-0.5 -7.5
q-11 -12 -22.5 -24t-23.5 -23q-16 -14 -33.5 -28t-34.5 -24q-10 -6 -22 -9.5t-23 -2.5t-20 6.5t-14 19.5q-5 16 3 38q4 11 10 21t13 19q-11 -5 -23 -7.5t-23 2.5q-13 4 -18 20q-6 20 4 42t26 33q11 8 25.5 10.5t24 -1t11 -14t-13.5 -28.5q-12 -15 -28.5 -29t-27.5 -20
q3 -4 8 -5q9 -2 25 3t40 22q4 2 9.5 0t0.5 -7z" />
    <glyph glyph-name="s" unicode="s" horiz-adv-x="162" 
d="M27 85q10 9 18.5 18.5t15.5 17.5q9 11 9.5 16t-3 5.5t-9.5 -3t-11 -9.5q-8 -8 -12.5 -19.5t-7.5 -25.5zM-20 -36q2 8 4 19.5t4 24.5q0 3 0.5 5.5t0.5 5.5q-31 -11 -38 -36q-4 -13 -1 -23q4 -13 14 -13q8 0 11 5t5 12zM-9 30q5 31 14.5 61.5t32.5 47.5q12 9 22 11.5
t15.5 -1t4.5 -12.5t-11 -22q-8 -11 -20.5 -23t-25.5 -23q-2 -8 -2.5 -16t-2.5 -16q10 2 19.5 2.5t20.5 2.5q29 4 57.5 9.5t46.5 20.5q4 3 7 -0.5t-1 -6.5q-20 -17 -49 -23t-60 -10q-23 -2 -42 -6q-3 -17 -6.5 -33t-10.5 -29q-5 -10 -14 -18t-21 -9q-10 0 -16 6t-8 14
q-5 12 0 28q5 19 18 29t32 16z" />
    <glyph glyph-name="t" unicode="t" horiz-adv-x="204" 
d="M223 289q-26 -4 -64 -39q-10 -9 -19.5 -20t-20.5 -23q23 2 43.5 2.5t37.5 -1.5q20 -2 31.5 -9t9.5 -21q0 -4 -5 -4t-5 5q2 9 -7.5 13t-24.5 6q-17 2 -40.5 1.5t-47.5 -2.5q-26 -32 -50.5 -68.5t-45.5 -73.5q-24 -43 -40.5 -81.5t-21.5 -65.5q-3 -18 0.5 -28t12 -12
t21.5 2t28 14q15 11 29.5 22.5t27.5 24.5q35 32 69 69t63 72q3 4 6.5 1t0.5 -7q-29 -36 -61 -71.5t-66 -67.5q-15 -14 -32 -27.5t-34 -24.5q-15 -9 -30 -13.5t-27 -1.5t-19.5 13.5t-6.5 31.5q1 20 9.5 47t22.5 58t33 63t41 64q11 15 21.5 29.5t21.5 28.5q-27 -2 -51.5 -2.5
t-40.5 3.5q-30 6 -25 27q0 4 6 4q4 -2 3 -6q-2 -12 18 -15q17 -4 43.5 -3t55.5 3q35 42 69 68t60 25q5 0 5.5 -4.5t-4.5 -5.5z" />
    <glyph glyph-name="u" unicode="u" horiz-adv-x="219" 
d="M99 79q-8 -10 -22 -30.5t-22 -40.5q-5 -15 -5 -24q0 -11 5 -15.5t12 -5.5t15 1t15 5q18 8 38 24t38 32q12 11 23.5 23t22.5 24q4 4 7.5 0.5t-0.5 -7.5q-11 -12 -22.5 -24t-24.5 -23q-11 -11 -33 -29t-45 -29q-19 -8 -39.5 -5.5t-28.5 25.5q-4 11 -1 25q2 7 5 15
q-7 -6 -15 -11.5t-16.5 -8t-17 -1t-14.5 10.5q-4 7 -4 16q1 5 2 9t3 8q5 11 12.5 19.5t14.5 10.5q4 1 6 -2t0 -6q-14 -18 -16 -37q-1 -4 -1 -11q2 -8 8.5 -7.5t14 5t14 10t8.5 7.5q9 9 18 20t17 20q14 17 23.5 14.5t4.5 -7.5z" />
    <glyph glyph-name="v" unicode="v" horiz-adv-x="193" 
d="M1 73q4 2 6.5 -1t-0.5 -6q-13 -18 -16 -37v-11q1 -8 6.5 -8t11.5 3.5t12 8.5t8 7q10 9 20.5 20.5t19.5 22.5q2 2 2.5 3t2.5 3q1 7 4 14.5t8 12.5q6 5 12 3t2 -10q-3 -6 -7.5 -12.5t-9.5 -11.5q-1 -15 8.5 -21.5t23.5 -7.5q18 -1 38 7q15 5 26 11.5t14 8.5q3 4 6.5 0.5
t0.5 -6.5q-4 -4 -15.5 -11t-27.5 -13q-11 -3 -21.5 -5.5t-20.5 -1.5q-14 1 -25.5 7t-15.5 21q-9 -11 -18.5 -22t-19.5 -20q-5 -5 -12.5 -10t-15.5 -8t-15.5 -2t-13.5 9q-3 5 -5 14q0 13 8 28.5t19 20.5z" />
    <glyph glyph-name="w" unicode="w" horiz-adv-x="314" 
d="M94 66q-7 -8 -14.5 -25.5t-11.5 -34.5q-1 -7 -1.5 -12.5t0.5 -10.5q3 -12 9 -15q8 -6 18.5 -4.5t21 6.5t20 12t14.5 12q14 12 27 28t21 33q-8 15 -1 34q3 10 8 15.5t9.5 5t6.5 -6.5t-1 -18q-2 -8 -4.5 -15t-5.5 -14q8 -11 23.5 -10.5t26.5 2.5q17 3 31.5 10t22.5 14
q3 4 6.5 0.5t0.5 -6.5q-8 -8 -24.5 -16t-34.5 -12q-14 -3 -30 -2.5t-27 10.5q-9 -17 -21.5 -32t-26.5 -28q-18 -16 -41 -27t-47 -1q-7 2 -11 6t-7 9q-7 11 -5 27q1 7 3 13.5t4 12.5q-3 -2 -5 -5q-5 -4 -9 -7.5t-9 -6.5q-8 -5 -17 -6t-16 2t-11.5 10t-3.5 18q1 16 13 34
q10 18 22 30q9 9 17.5 13t13.5 -1q2 -2 1.5 -5t-3.5 -4q-5 -2 -15.5 -16t-18.5 -31q-6 -11 -9 -23q-3 -15 4 -17.5t19 5.5q4 3 7.5 6t7.5 7q11 9 21 20.5t19 22.5q2 3 10 1.5t3 -7.5z" />
    <glyph glyph-name="x" unicode="x" horiz-adv-x="186" 
d="M121 102q5 2 6 -3t-4 -6q-16 -4 -47 -23t-60 -44l-3.5 -3.5l-3.5 -3.5q0 -19 4 -34q4 -13 11 -18t16 -5t19 4.5t20 10.5q29 18 56 44t51 51q3 4 6.5 0.5t0.5 -7.5q-24 -26 -51.5 -51.5t-57.5 -44.5q-11 -7 -24 -11.5t-25 -4.5t-22 6t-17 21q-4 9 -6 20
q-12 -13 -20.5 -25.5t-10.5 -23.5q-2 -5 -6.5 -4t-3.5 6q4 14 14.5 29.5t25.5 30.5v12q1 12 3.5 23.5t6.5 22.5q5 12 11 20.5t11 10.5q4 1 5.5 -2.5t-0.5 -5.5q-2 -3 -3.5 -6.5t-3.5 -8.5q-9 -20 -10 -47q9 8 23.5 19t30 21.5t31 18.5t27.5 11z" />
    <glyph glyph-name="y" unicode="y" horiz-adv-x="218" 
d="M113 99q-14 -17 -29.5 -39.5t-32.5 -47.5q-8 -12 -16 -23.5t-16 -23.5q55 9 106 31.5t93 75.5q3 4 6.5 0.5t0.5 -7.5q-45 -57 -99.5 -80t-113.5 -31q-24 -34 -50.5 -66.5t-55 -57.5t-60 -40.5t-65.5 -15.5q-21 0 -40 7.5t-31 20.5t-15.5 31.5t5.5 39.5q8 17 26.5 32.5
t47.5 25.5q53 17 108 20.5t110 10.5q11 14 20.5 27.5t20.5 27.5q-8 -6 -11 -9q-11 -7 -25.5 -8.5t-23.5 10.5q-5 7 -3.5 17t6 19.5t11.5 17t14 9.5q4 1 6 -2t0 -6q-7 -8 -13 -22.5t-4 -25.5q1 -5 4.5 -6.5t7 -1t7.5 2.5t7 4q8 6 19.5 17t24 24.5t25 26.5t21.5 22q3 3 6.5 0
t0.5 -7zM-219 -216q25 0 50.5 14t51.5 37.5t51.5 53.5t49.5 62q-52 -5 -104.5 -9t-102.5 -20q-27 -9 -43.5 -23t-24.5 -30q-8 -19 -5 -34.5t14 -27t28 -17.5t35 -6z" />
    <glyph glyph-name="z" unicode="z" horiz-adv-x="199" 
d="M6 65q-3 -4 -7 -1t0 7q6 7 11.5 13.5t11.5 14.5q-3 4 -5 15q0 10 3 19q5 15 13.5 21.5t15.5 5.5t9 -10t-5 -24q-2 -3 -4.5 -7t-5.5 -9q-2 -2 -4 -5t-4 -5q5 -5 11 -13q11 -17 9 -35q-2 -9 -6 -18.5t-13 -18.5q-4 -5 -8 -7.5t-8 -6.5q10 -14 13 -26q46 12 88.5 34.5
t77.5 62.5q3 4 7 0.5t1 -7.5q-36 -42 -80.5 -64.5t-90.5 -35.5q3 -20 -2 -39.5t-14 -36.5q-19 -33 -47 -58q-19 -17 -46.5 -31t-57 -20t-58 -1t-49.5 28q-14 15 -15.5 33t7.5 35q11 21 30.5 34.5t43 21.5t48.5 12.5t46 8.5q23 4 47.5 8.5t49.5 10.5q-1 14 -11 28q-2 2 -1 4
t3 3q2 2 4 3.5t4 3.5q9 10 16 25q8 17 6 32q-1 8 -3.5 12.5t-7.5 9.5q-5 -7 -11 -13.5t-12 -13.5zM-77 -184q41 27 69 69q13 19 20.5 38.5t7.5 37.5q-25 -6 -49.5 -10.5t-47.5 -8.5q-20 -3 -44 -7.5t-46.5 -12t-41 -20t-28.5 -31.5q-8 -15 -6.5 -30t12.5 -27q15 -17 35 -23
t41 -4t41.5 10t36.5 19zM29 107l6 9q2 4 4 7l4 6q6 12 6 17t-3.5 4.5t-8 -6t-7.5 -14.5q-3 -8 -3 -15q0 -2 2 -8z" />
    <glyph glyph-name="A" unicode="A" horiz-adv-x="829" 
d="M564 -411q2 -4 -1.5 -7t-6.5 1q-18 18 -24.5 44.5t-3 60t15.5 72.5t31 81q23 52 53.5 107t65.5 110q-20 5 -38.5 11t-38.5 12q-42 -52 -87.5 -101.5t-95 -89.5t-104 -67.5t-114.5 -35.5q-38 -5 -73.5 -0.5t-61 20.5t-36 45t2.5 73q13 45 45.5 90.5t75 83.5t89.5 67t91 41
q16 4 40 7.5t48.5 1.5t45.5 -12t30 -31q6 -14 5 -29.5t-6 -29.5q22 -2 43.5 -7t41.5 -10q5 6 10.5 12.5t10.5 12.5q20 23 44.5 53t52 60.5t58 59.5t63 51.5t66 36.5t67.5 14q15 13 28.5 23t24.5 16q16 9 27 9.5t15.5 -4.5t1.5 -14t-15 -19q-11 -10 -29 -16.5t-39 -4.5
q-29 -29 -64.5 -69t-73.5 -90q-60 -78 -118 -168q32 -7 57 -5.5t45 17.5q4 3 7 -1t-1 -7q-22 -18 -50.5 -19.5t-62.5 6.5q-17 -27 -33.5 -54t-31.5 -53q-33 -58 -58 -112.5t-38.5 -101.5t-13.5 -83.5t17 -57.5zM699 67q10 14 19 27.5t19 27.5q49 69 98.5 129.5t92.5 105.5
q15 16 30 30q-37 -4 -73.5 -26t-73 -56.5t-73.5 -78t-76 -91.5q-9 -11 -18.5 -22.5t-19.5 -23.5q19 -5 37.5 -11t37.5 -11zM214 -203q53 8 102.5 35.5t96 67.5t91 88.5t86.5 99.5q-20 5 -40.5 10t-41.5 7q-5 -14 -13.5 -27t-18.5 -27q-20 -27 -46.5 -52.5t-55 -45t-57 -31
t-50.5 -11.5q-24 0 -34 11t-10.5 27t6.5 33.5t16 30.5q17 24 45 46.5t66 37.5q33 14 67.5 18t69.5 1q5 13 7 27.5t-3 28.5q-7 18 -25.5 26t-40.5 9t-43.5 -2t-34.5 -7q-43 -12 -89.5 -40.5t-88 -66t-73.5 -81.5t-45 -88q-12 -41 -2 -67.5t34 -41t57.5 -18t67.5 1.5z
M1030 427q-20 -14 -37 -31q17 1 30 6.5t22 12.5q19 15 12 20.5t-27 -8.5zM267 -79q20 0 45.5 11t52 30.5t51.5 44t44 51.5q9 13 16.5 25t12.5 24q-34 2 -66 -2t-64 -17q-37 -15 -63.5 -36.5t-42.5 -44.5q-7 -11 -13.5 -25.5t-7.5 -28t6.5 -23t28.5 -9.5z" />
    <glyph glyph-name="d" unicode="d" horiz-adv-x="248" 
d="M287 277q-13 -5 -26 -14t-27 -22q-29 -27 -56.5 -65t-49.5 -76q-2 -5 -5 -9t-5 -9q9 5 19.5 11t21.5 12q37 21 76 45.5t65 53.5q23 24 27 48q3 11 -0.5 17.5t-9.5 9t-14.5 2t-15.5 -3.5zM75 58q0 6 -1.5 11.5t-7.5 10.5q-14 11 -31 -3q-7 -5 -12 -12.5t-10 -15.5
q-8 -18 -8 -30q2 -9 7 -10q8 -1 17 5t19 15q14 12 27 29zM11 0q-23 1 -28 20q-3 10 -0.5 20t7.5 18q11 21 31 30q11 6 25.5 7t25.5 -7q9 -6 12 -20l2 2q13 29 30 56q21 36 48.5 69.5t56.5 56.5q32 25 59 34q10 3 21.5 3.5t20.5 -3t13.5 -12.5t1.5 -24q-6 -26 -29 -53
q-26 -29 -66 -54.5t-78 -46.5q-16 -8 -30 -16t-25 -15q-13 -28 -20.5 -50.5t-6.5 -36.5q0 -14 12 -15.5t23 2.5q22 8 44.5 26.5t39.5 33.5q24 23 47 47q3 4 6.5 0.5t0.5 -7.5q-23 -24 -47 -47q-17 -17 -40.5 -35t-46.5 -27q-22 -8 -39 1t-18 33q0 11 2.5 24t7.5 28
q-5 -5 -9.5 -10t-9.5 -10q-12 -11 -23 -17.5t-21 -4.5z" />
    <glyph glyph-name="B" unicode="B" horiz-adv-x="1105" 
d="M749 -214q33 0 63.5 11.5t57.5 31.5t49.5 46.5t39.5 57.5q13 23 23 50.5t16 56t6 57t-8 55.5q-9 32 -30.5 55t-57.5 34q-16 -16 -36 -20q-22 -5 -34 0.5t-12 13.5t11.5 15t35.5 6q5 0 10.5 -0.5t11.5 -1.5q15 25 14 56t-15 57q-12 21 -36 37.5t-62 23.5q-48 9 -99 2
t-98.5 -26.5t-86.5 -51.5t-63 -73q-11 -19 -17.5 -39.5t-8.5 -42.5q15 0 30.5 -1.5t29.5 -8.5q19 -8 27.5 -24.5t6.5 -36.5q-1 -19 -12 -40q37 -7 76 2l28 36t28 35q47 60 87.5 109t74.5 75q18 13 34 18.5t26 2t11 -18t-12 -39.5q-8 -14 -18.5 -30t-24.5 -33
q-18 -23 -41 -46t-49 -44t-54.5 -38t-57.5 -28q-45 -58 -95.5 -114.5t-105 -101.5t-112.5 -72.5t-119 -26.5q-20 0 -40.5 3.5t-39 12t-33 22.5t-21.5 34q-8 21 -6.5 43t8 44t17 43t22.5 38q24 36 58.5 69t76.5 58.5t90.5 41t99.5 16.5q2 23 9 44.5t18 41.5q25 45 65.5 77.5
t89 52t101 26t102.5 -0.5q48 -7 77 -25.5t44 -41.5q17 -28 16.5 -62t-20.5 -60q42 -12 67.5 -38.5t36.5 -61.5q8 -27 8.5 -56t-4.5 -57.5t-15.5 -56t-23.5 -51.5q-18 -32 -42.5 -59.5t-54.5 -48t-65 -32.5t-73 -12q-60 0 -95.5 25t-51.5 62q-17 40 -11.5 82.5t28 77t59 56.5
t82.5 22q5 0 5 -5t-5 -5q-43 0 -77.5 -20.5t-55.5 -53t-26.5 -72.5t10.5 -78q14 -35 48 -58t90 -23zM873 232q9 4 16 13q-5 0 -9 0.5t-7 0.5q-24 1 -31.5 -3t-4.5 -8.5t13.5 -6t22.5 3.5zM422 188q0 -37 19 -63t55 -37q5 11 7.5 20t3.5 18q3 37 -28 52q-13 6 -28 7.5
t-29 2.5zM491 79q-38 12 -58.5 40.5t-20.5 67.5q-50 -1 -96.5 -16t-87.5 -40t-74.5 -57.5t-57.5 -67.5q-11 -16 -21 -35.5t-17 -40.5t-8 -42.5t6 -40.5t21 -31.5t31.5 -20t37 -10.5t37.5 -3q51 0 101.5 25.5t99.5 67t96 94t91 107.5q-36 -6 -70 1q-2 -5 -5 -8.5t-6 -8.5
q-23 -32 -63.5 -64t-83.5 -56q-11 -6 -30 -15t-40 -16t-41 -9t-32 6q-4 3 -1 7t7 1q10 -7 28.5 -4.5t38.5 9.5t38 16t27 14q42 23 81.5 54t62.5 63q2 3 4.5 6.5t4.5 6.5zM625 102q26 12 51.5 28.5t49 36t44 40.5t37.5 42q28 35 42 62q11 21 11 32t-7.5 12.5t-19.5 -5
t-25 -18.5q-25 -23 -56 -62.5t-69 -89.5q-14 -19 -28.5 -38.5t-29.5 -39.5z" />
    <glyph glyph-name="C" unicode="C" horiz-adv-x="886" 
d="M414 -207q58 -5 126 10t134 52q63 35 118.5 88.5t93.5 128.5q2 5 6.5 2.5t2.5 -7.5q-39 -75 -95.5 -130.5t-120.5 -90.5q-68 -38 -137.5 -53t-129.5 -10q-24 2 -47.5 8.5t-44.5 18t-38 28.5t-27 40q-14 31 -12.5 64.5t9.5 65.5q-54 3 -96 12q-70 15 -107 44
q-19 14 -31.5 34t-7.5 45q2 5 6.5 4t3.5 -6q-5 -22 6.5 -39.5t28.5 -30.5t42.5 -23.5t60.5 -18.5q21 -5 45 -7.5t52 -3.5q10 32 26.5 64t39.5 64q35 51 82 97.5t101 82.5t112.5 58.5t116.5 25.5q34 2 67.5 -5.5t57 -25.5t33.5 -46.5t-2 -68.5q-15 -52 -59 -93t-107 -72
q-75 -37 -165.5 -58.5t-178.5 -29.5q-27 -2 -52 -3t-48 -1q-9 -31 -11.5 -65t10.5 -65q18 -42 56 -61t80 -23zM346 141q-43 -63 -64 -124q23 0 46.5 1t49.5 3q88 8 177.5 29.5t163.5 57.5q60 30 103 69t58 90q11 38 1.5 64t-32 42t-53.5 22t-63 5q-53 -2 -107.5 -24
t-105.5 -57.5t-95.5 -81.5t-78.5 -96z" />
    <glyph glyph-name="D" unicode="D" horiz-adv-x="1140" 
d="M1011 -6q23 63 25 133t-22 133q-14 37 -37 68.5t-56.5 54.5t-77 36t-98.5 13q-56 0 -103 -13t-84.5 -34t-64.5 -48t-44 -57q-11 -19 -18 -40t-8 -43q15 0 31 -1.5t30 -8.5q19 -8 28 -24.5t7 -36.5q-3 -21 -12 -40q37 -7 76 2q14 18 27.5 36t27.5 35q49 62 91 112.5
t76 75.5q18 12 33.5 16t24.5 -1t9 -19t-12 -38q-15 -28 -43 -63q-18 -22 -41 -45t-49.5 -43.5t-54.5 -37.5t-57 -28q-45 -58 -95.5 -115t-105 -102t-113 -72.5t-119.5 -26.5q-20 0 -40.5 3.5t-38.5 12t-32.5 22.5t-21.5 34q-8 21 -7 43t7.5 44t17 43t22.5 38q24 35 58.5 68
t76.5 58.5t90 41.5t99 17q1 23 8.5 45.5t18.5 42.5q17 30 45 58.5t66.5 50t87 35t106.5 13.5q59 0 106.5 -14t84 -38.5t62.5 -57.5t41 -72q25 -66 23 -137.5t-27 -136.5q-17 -44 -43 -80.5t-60 -64t-75.5 -44.5t-89.5 -21q-51 -4 -89.5 13t-61 48t-26.5 72.5t15 86.5
q18 44 57.5 74.5t97.5 30.5q5 0 5 -5t-5 -5q-55 0 -92 -28.5t-54 -70.5q-18 -42 -14.5 -81.5t24.5 -69t57 -45t84 -10.5q91 10 153.5 67.5t92.5 140.5zM422 188q1 -37 19.5 -63.5t55.5 -36.5q10 19 12 38q3 37 -29 52q-13 6 -28.5 8t-29.5 2zM412 187q-50 -1 -96.5 -16.5
t-87 -40.5t-74 -57t-57.5 -67q-11 -16 -21 -35.5t-16.5 -40.5t-7.5 -42.5t6 -40.5t20.5 -31.5t31 -20t37.5 -10.5t38 -3q51 0 101.5 25.5t99.5 67t96 94t91 107.5q-37 -6 -71 1q-11 -21 -29.5 -40.5t-40.5 -37.5t-44.5 -33t-42.5 -26q-11 -6 -30.5 -15t-40.5 -16t-40.5 -9
t-31.5 6q-5 3 -2 7t8 1q10 -7 28.5 -4.5t38.5 9.5t38 16t27 14q19 10 41 24.5t43 31.5t39 35.5t29 38.5q-38 11 -58.5 40t-21.5 68zM628 104q52 23 99.5 63.5t81.5 81.5q14 17 24.5 32t17.5 29q20 39 5.5 44.5t-42.5 -18.5q-25 -22 -57.5 -63t-71.5 -93q-14 -19 -28 -37.5
t-29 -38.5z" />
    <glyph glyph-name="E" unicode="E" horiz-adv-x="689" 
d="M658 433q-31 0 -59 -13.5t-51 -35.5q-20 -19 -34.5 -42t-25.5 -48q42 -4 80 -3.5t71 9.5q26 8 46.5 23t31.5 33q12 20 11 34.5t-10.5 24t-25.5 14t-34 4.5zM485 133q-18 -1 -35 -2.5t-34 -4.5q-85 -16 -148.5 -60t-97.5 -96q-9 -14 -15 -27q38 -5 75 4t71 25
q54 27 113 77q4 4 7.5 0t-0.5 -7q-63 -53 -116 -78q-35 -18 -75 -26.5t-80 -3.5q-10 -23 -13 -49t10 -49q9 -15 23 -25t31 -15.5t35 -7.5t35 -2q30 1 63.5 8t70.5 23q63 27 121.5 71.5t102.5 97.5q32 38 60 86q2 5 6.5 2.5t2.5 -7.5q-14 -24 -29 -45.5t-32 -41.5
q-45 -54 -104.5 -99.5t-123.5 -72.5q-38 -16 -72.5 -23.5t-65.5 -8.5q-20 0 -41 2.5t-41.5 9t-37.5 17.5t-28 28q-15 25 -12 53t14 53q-27 8 -46 24t-30 37q-21 38 -15 82.5t28 80.5q17 29 44.5 55t65.5 45.5t86 30t107 8.5q24 -1 47.5 -2.5t47.5 -3.5q17 44 50 78
q28 31 65.5 50t80.5 19q22 0 41 -6t30 -18t11.5 -29t-12.5 -39q-12 -20 -34 -36.5t-51 -24.5q-34 -9 -73.5 -9t-82.5 3q-17 -44 -12 -86q3 -33 21 -55h18t18 -1q22 -3 29 -10.5t2.5 -14t-16.5 -9.5t-27 3q-8 4 -17 10t-16 12zM475 142q-22 25 -28 59q-6 41 9 85q-45 4 -91 6
q-57 2 -104 -8t-84 -29t-64 -44t-43 -53q-20 -34 -26.5 -75.5t13.5 -78.5q22 -41 72 -56q8 16 18 29q37 53 106 98t159 61q31 4 63 6zM503 133q11 -9 19 -12q9 -4 18 -3.5t12 3.5t-2.5 6t-23.5 5q-5 1 -11 1h-12z" />
    <glyph glyph-name="F" unicode="F" horiz-adv-x="869" 
d="M638 -19q-5 0 -5 5t5 5q17 0 33 11q10 7 17.5 18t15.5 22q-15 1 -31.5 2.5t-33.5 5.5q-35 -46 -73.5 -88.5t-84.5 -77.5t-100 -59.5t-119 -34.5q-79 -12 -130.5 4.5t-77.5 49t-27 75t21 81.5t66 69t107 37q51 6 99 4.5t91.5 -7t83.5 -13.5t75 -16q12 -2 24 -5t23 -5
q16 22 31.5 43.5t30.5 43.5q38 54 75.5 104t79.5 90q-45 13 -89.5 27t-90.5 25q-10 -8 -19.5 -17t-19.5 -18q-14 -14 -29 -27t-33 -25t-39 -21t-47 -13q-39 -7 -67 -1t-43.5 20t-18.5 32.5t7.5 37t35 34t63.5 23.5q51 10 106.5 4.5t105.5 -16.5q20 15 45 24.5t57 9.5
q5 0 5 -5t-5 -5q-28 0 -49.5 -7.5t-39.5 -19.5q45 -11 88 -24.5t88 -27.5q40 37 84.5 60t99.5 29q59 6 85 -11t23 -40.5t-32.5 -46.5t-80.5 -29q-42 -5 -87 3.5t-83 18.5q-36 -37 -69 -82.5t-67 -95.5q-18 -26 -35.5 -51t-37.5 -51q34 -7 64 -7q3 4 5.5 8t4.5 8
q12 18 24.5 25t22 6t14.5 -7.5t4 -15t-10 -17t-29 -13.5q-12 -3 -25 -3q-9 -13 -19 -26t-22 -22q-8 -6 -18 -10t-23 -4zM735 63q-2 -2 -3.5 -4.5t-3.5 -5.5l15 3q19 5 26 14t5 14t-12.5 2t-26.5 -23zM610 55q-10 2 -20.5 4.5t-21.5 5.5q-35 8 -74.5 16t-82.5 13.5t-90 6.5
t-98 -5q-62 -7 -104 -35.5t-62.5 -66t-19 -77.5t26.5 -70.5t74 -45t124 -0.5q58 11 107 35.5t91 58t79 75t71 85.5zM864 350q38 -11 79 -19.5t81 -3.5q45 5 72 24.5t30.5 40t-19.5 34.5t-78 8q-50 -5 -90 -27.5t-75 -56.5zM642 399q-47 11 -98 16.5t-99 -3.5
q-53 -10 -77 -34.5t-20.5 -48t33.5 -38t84 -5.5q25 4 45.5 12.5t37.5 20t32 24.5t29 26q16 16 33 30z" />
    <glyph glyph-name="G" unicode="G" horiz-adv-x="1018" 
d="M293 -130q-13 28 -13 61t10 70q-55 3 -97 12q-21 4 -48.5 13.5t-51 24.5t-38 36.5t-8.5 48.5q1 5 6 4t4 -6q-5 -25 9 -44t36.5 -33t48.5 -22.5t44 -12.5q21 -5 45.5 -7.5t52.5 -3.5q21 69 73 141q35 50 85.5 101.5t109.5 93.5t124 69t130 27q34 0 65 -8t53 -26t30.5 -46
t-3.5 -66q-16 -54 -66.5 -101t-121.5 -85q-41 -22 -85.5 -40t-90.5 -31.5t-92 -22.5t-88 -13q-26 -2 -50 -3t-47 -1q-9 -31 -11.5 -65.5t10.5 -65.5q14 -35 45.5 -55t67.5 -26q75 -13 152.5 10.5t148.5 71.5q46 31 86.5 69.5t74.5 81.5q21 56 38.5 94.5t30.5 48.5q8 7 15 2
t5 -10q-17 -46 -45 -88q-2 -7 -4.5 -13t-4.5 -14q-15 -42 -33 -91.5t-39.5 -100t-46 -98t-51.5 -85t-57 -61t-62 -25.5q-31 -2 -57 11t-37 43q-8 23 -5.5 49.5t13.5 47.5q7 13 19 24.5t29 7.5q5 -2 4 -6.5t-6 -3.5q-13 3 -23 -6.5t-15 -20.5q-10 -19 -12 -43t6 -45
q9 -26 33 -38.5t51 -9.5q25 3 50.5 28t49.5 62.5t46 83t40.5 89t33 80.5t22.5 58q-62 -75 -144 -129q-72 -49 -151.5 -73t-157.5 -10q-42 7 -79.5 28t-55.5 63zM322 10q22 0 44.5 1t48.5 3q85 8 178.5 35.5t174.5 70.5q69 37 118.5 82.5t64.5 96.5q10 36 2 61.5t-28.5 42
t-49.5 23.5t-60 7q-61 0 -122.5 -27t-117.5 -68.5t-103 -91.5t-80 -98q-47 -70 -70 -138z" />
    <glyph glyph-name="H" unicode="H" horiz-adv-x="1135" 
d="M965 428q-31 -8 -61 -32t-60 -59q19 -1 41 0.5t43.5 7t41 14.5t33.5 23q16 16 17.5 26.5t-6 16.5t-21 6.5t-28.5 -3.5zM221 -216q69 0 129 30.5t114 79.5t103 111t94 126q-49 6 -101 10.5t-103.5 6t-101.5 -2t-95 -13.5q-76 -17 -127.5 -57t-74.5 -88q-17 -35 -18 -74
t25 -71q20 -26 59 -42t97 -16zM668 140q35 48 70 97t74 94q-49 9 -102.5 25.5t-108 31.5t-108 24t-103.5 3q-45 -6 -71.5 -21.5t-37.5 -35.5q-14 -29 7 -52q14 -14 40 -20.5t65 0.5q5 1 6 -4t-4 -6q-42 -7 -70.5 0.5t-43.5 22.5q-27 29 -8 64q11 21 39 38t76 24
q54 7 109 -2.5t109.5 -25.5t108 -33t105.5 -25q35 38 69.5 64t70.5 35q20 5 37.5 3t26.5 -10.5t6.5 -23t-20.5 -32.5q-15 -15 -36.5 -25t-45 -15.5t-47.5 -7.5t-45 0q-38 -45 -71.5 -94t-67.5 -97q69 -8 135.5 -15t135.5 -2q47 61 96.5 115t97.5 97q56 50 101 76
q25 15 54.5 23t51 3.5t27.5 -26t-15 -65.5q-17 -38 -56 -78q-49 -51 -131.5 -94.5t-198.5 -57.5q-31 -41 -64.5 -88t-64.5 -97.5t-57 -102t-42 -99.5q-22 -62 -14 -98q4 -20 18 -32t35 -10q22 2 40.5 14.5t30.5 29.5q17 24 21.5 60.5t-13.5 82.5q-2 5 2.5 7t6.5 -3
q19 -49 14 -88t-23 -65q-14 -19 -34.5 -32.5t-43.5 -15.5t-39.5 10.5t-25.5 32.5q-19 42 4 118q14 47 37.5 96.5t53 97.5t61.5 94t62 85q-69 -5 -135 2.5t-134 15.5q-45 -65 -95 -128t-107.5 -113t-123.5 -81t-143 -31q-62 0 -102.5 17t-62.5 45q-27 35 -26.5 76t18.5 79
q25 49 78 90.5t131 59.5q46 11 97.5 14.5t104 2t105.5 -6.5t103 -11zM1003 123q111 15 189 57t126 91q19 20 32.5 39t21.5 36q18 38 14 56.5t-21 22.5t-42.5 -4.5t-49.5 -23.5q-29 -19 -62 -47.5t-67.5 -64t-70.5 -77t-70 -85.5z" />
    <glyph glyph-name="I" unicode="I" horiz-adv-x="704" 
d="M166 -228q-63 0 -96 22.5t-42 57.5t3.5 77.5t39.5 82.5q26 38 63.5 73t84 61t99 40.5t108.5 10.5q33 -3 50.5 -16t22.5 -32.5t-2 -42.5t-23 -46q-12 -16 -28.5 -32.5t-36 -32t-41 -29.5t-42.5 -26q-11 -6 -30 -15t-40 -16t-41 -9t-32 6q-4 3 -1 7t7 1q10 -7 28.5 -4.5
t38.5 9.5t38.5 16t27.5 14q42 23 81 54t62 63q15 20 21.5 40.5t2.5 38t-19 29t-45 13.5q-54 4 -105.5 -10t-96.5 -39.5t-82 -60t-62 -71.5q-26 -38 -38 -78t-4 -72t39 -53t91 -21q65 0 127.5 38t122 97t115.5 131.5t107 142.5q43 58 82.5 109.5t74.5 86.5q-28 -6 -57 -13
t-54.5 -17.5t-45.5 -25t-29 -33.5q-2 -5 -6.5 -3t-2.5 7q10 22 33 38t52 27.5t61 19t62 12.5q32 29 58 39q17 6 29.5 4t16 -8t-4 -14.5t-29.5 -15.5q-14 -5 -28 -7.5t-28 -5.5q-30 -30 -64.5 -76.5t-73.5 -102.5q-34 -48 -71.5 -99.5t-77.5 -100.5t-83.5 -93t-90 -77
t-95.5 -52t-101 -18zM836 404q21 3 40 9q18 6 23.5 11t2.5 7.5t-12.5 1.5t-19.5 -5q-17 -9 -34 -24z" />
    <glyph glyph-name="J" unicode="J" horiz-adv-x="880" 
d="M1011 403q-11 -3 -22.5 -5t-22.5 -4q-36 -38 -82 -101.5t-100 -140.5q-25 -36 -51 -73.5t-54 -75.5q18 -4 39.5 -3t47.5 9q5 2 6.5 -3t-3.5 -7q-57 -15 -96 -4q-58 -80 -120.5 -156t-126.5 -135t-129 -95t-129 -35q-61 0 -92.5 23t-40 58t3.5 77t38 81q25 38 62.5 73.5
t83.5 62t98.5 41t108.5 11.5q33 -2 50.5 -14.5t22.5 -32t-1.5 -43t-22.5 -46.5q-23 -33 -63 -65.5t-83 -55.5q-11 -6 -30 -15.5t-40 -17t-40.5 -9.5t-31.5 6q-4 3 -1.5 7t7.5 1q10 -7 28.5 -4t38.5 10t38 16t27 14q42 23 81 55t61 64q14 21 20.5 41.5t2.5 37.5t-19.5 28
t-45.5 13q-54 3 -105.5 -11t-96 -40t-81 -61t-61.5 -72q-24 -36 -35.5 -75.5t-4.5 -72t36 -53.5t87 -22q56 0 116 35.5t121.5 95t122.5 135t120 155.5q-23 14 -34.5 36t-13.5 49q-2 43 20 88q16 34 44 68t69.5 64t96 53.5t123.5 37.5q12 12 23 20.5t22 14.5q19 10 34 9
t19.5 -7.5t-4.5 -16.5t-36 -18zM1002 425q-5 -4 -11 -8.5t-13 -10.5l30 6q23 7 30 13t3.5 8.5t-15 1t-24.5 -9.5zM654 13q20 28 39.5 55t39.5 54q59 82 111 152t96 115q-64 -14 -115 -37.5t-89.5 -52.5t-65 -61t-41.5 -64q-21 -44 -19 -84q1 -24 11.5 -44.5t32.5 -32.5z" />
    <glyph glyph-name="K" unicode="K" horiz-adv-x="906" 
d="M627 298q-2 -5 -6.5 -3t-2.5 7q10 22 33 38t52 27.5t61 19t62 12.5q24 23 45 33q21 11 37.5 10t21 -7.5t-6 -16.5t-42.5 -18q-11 -3 -21 -5l-20 -4q-30 -30 -64.5 -76.5t-73.5 -102.5q-14 -19 -27 -37.5t-27 -38.5q11 -11 21 -28q29 23 60 52t64 61q42 40 86 79.5
t87.5 71.5t85 52t80.5 20q26 0 51.5 -9.5t36.5 -35.5q2 -5 -3 -6.5t-7 2.5q-10 23 -32.5 31t-45.5 8q-31 0 -65 -17t-70.5 -45t-74.5 -63t-76 -72q-43 -42 -85 -80t-83 -67q11 -26 21 -59.5t21 -71.5q15 -54 33 -111.5t44.5 -108t63 -87.5t88.5 -50q36 -9 75 -5t74 18
q30 11 58.5 29t53.5 42q4 4 7.5 0.5t-0.5 -7.5q-53 -50 -116 -74q-37 -14 -76 -17.5t-78 4.5q-66 13 -109.5 55t-73 98t-47.5 119.5t-31 119.5q-7 27 -13 51t-13 44q-44 -30 -83 -37q-42 -54 -88 -103t-95.5 -86.5t-102.5 -59t-109 -21.5q-36 0 -65.5 9.5t-48.5 29
t-25.5 47.5t3.5 66q15 59 56.5 110.5t97 89t119 57.5t123.5 16q33 -3 50.5 -16t22.5 -32.5t-2 -42.5t-23 -46q-23 -32 -63.5 -64.5t-83.5 -55.5q-11 -6 -30 -15t-40 -16t-41 -9t-32 6q-4 3 -1 7t7 1q10 -7 28.5 -4.5t38.5 9.5t38 16t27 14q42 23 81.5 54t62.5 63
q15 20 21.5 40.5t2.5 38t-19 29t-45 13.5q-58 4 -120.5 -15.5t-116.5 -56t-94.5 -86.5t-55.5 -108q-9 -35 -3 -61.5t24 -43.5t46 -25.5t62 -8.5q48 0 94.5 21t91.5 56.5t88.5 82.5t84.5 99q-20 5 -18.5 23t13.5 35q14 20 37 34.5t42 14.5h7q8 11 16 21.5t16 21.5
q43 58 82.5 109.5t74.5 86.5q-28 -6 -57 -13t-54.5 -17.5t-45.5 -25t-29 -33.5zM639 125q-25 -36 -49 -67q14 6 30.5 16t33.5 23q-4 8 -7 15.5t-8 12.5zM551 50q17 22 33.5 44t33.5 44h-1q-16 0 -36 -13t-34 -30q-5 -6 -8.5 -13.5t-4 -14t3 -11.5t13.5 -6zM852 404
q7 1 13.5 2t12.5 3q28 7 36 13.5t4 9t-16.5 0.5t-27.5 -11q-5 -4 -10.5 -8t-11.5 -9z" />
    <glyph glyph-name="L" unicode="L" horiz-adv-x="785" 
d="M912 442q5 1 5.5 -4t-4.5 -5q-19 -3 -41 -21t-47 -48t-53.5 -69t-59.5 -83t-64.5 -90t-69.5 -91t-74.5 -86.5t-78.5 -74.5q34 -47 71 -98t80.5 -93t96 -68.5t117.5 -25.5q31 0 61 10t53.5 28t38 44.5t14.5 60.5q-1 11 -2.5 21.5t-5.5 21.5q-2 5 2.5 6.5t6.5 -3.5
q8 -26 8 -46q1 -36 -14.5 -64t-40.5 -47.5t-56.5 -30t-64.5 -11.5q-67 -1 -120.5 26t-98 69.5t-82 93.5t-72.5 99q-49 -39 -101 -63.5t-107 -27.5q-21 -1 -43.5 1.5t-43.5 10t-38 20.5t-26 34q-9 20 -8.5 42.5t6.5 45t16.5 43t22.5 37.5q25 37 61.5 71.5t81 61.5t95 42.5
t103.5 15.5q35 0 56 -9.5t30 -25.5q12 -21 4 -52q-6 -28 -28 -61t-54 -64t-68 -53q18 -21 36 -45q69 62 132.5 143.5t121.5 160.5q11 15 28 39t38 51t44.5 55t47 50.5t46 38t42.5 17.5zM209 -217q51 4 99.5 30t95.5 67q-9 13 -18 24.5t-19 21.5q-26 -14 -52 -22t-55 -4
q-32 5 -47.5 22t-14.5 35t17 32.5t46 13.5q29 -1 54.5 -17.5t50.5 -42.5q32 22 62 53t50 63q20 31 26 58q7 25 -2 44q-7 12 -23 19t-43 7q-52 0 -101.5 -15.5t-93 -41.5t-79 -59.5t-59.5 -69.5q-11 -16 -21 -36t-16.5 -41t-7 -42t8.5 -40q8 -19 24 -31t36 -19t41.5 -9
t40.5 0zM358 -63q-24 26 -48 40.5t-50 15.5q-25 1 -38.5 -10.5t-14 -26t12.5 -28.5t40 -18q28 -4 51 4t47 23z" />
    <glyph glyph-name="M" unicode="M" horiz-adv-x="1153" 
d="M1154 -154q-26 -66 -62.5 -120t-78.5 -92t-85 -55.5t-78 -7.5q-34 9 -50 28.5t-20 45t1 54.5t14 55q16 49 44.5 105t63 114t72.5 116t73 111q27 41 51 77.5t42 66t28.5 51t10.5 32.5q0 5 -3.5 6.5t-8 0.5t-9.5 -2.5t-7 -2.5q-21 -10 -48.5 -35t-59 -59.5t-66 -76.5
t-69.5 -85q-42 -52 -83.5 -102t-79.5 -89.5t-70.5 -64t-56.5 -24.5q-2 0 -3 1q-4 2 -2 6q16 38 45 87t61 102q24 39 47 78t41.5 74t30 64.5t13.5 49.5q3 27 -19 30q-29 -30 -61.5 -75t-70.5 -98q-34 -48 -71 -99.5t-77.5 -100.5t-84 -93t-90 -77t-95.5 -52t-101 -18
q-19 0 -39.5 3t-38.5 10.5t-33 20.5t-23 32q-9 20 -9 42.5t6.5 45t17 43t22.5 37.5q24 37 60 71t79.5 60.5t93 43t102.5 16.5q44 40 94 76.5t102.5 64.5t105 43.5t100.5 14.5q16 15 36 29.5t43 16.5q5 1 6 -4t-4 -5q-26 -4 -62 -39q34 -9 31 -51q-2 -32 -23 -79t-52 -99.5
t-66.5 -107t-66.5 -100.5q-10 -14 -18.5 -27.5t-16.5 -25.5q22 5 53 30.5t66.5 64t74.5 85.5t79 95q35 43 69 84.5t65.5 76.5t59.5 60.5t51 36.5q6 3 14.5 5.5t15.5 1.5t12 -5.5t5 -15.5q0 -15 -11.5 -41.5t-31.5 -61.5t-46 -76.5t-56 -87.5q-31 -49 -64 -101t-63 -104
t-55.5 -101.5t-41.5 -92.5q-8 -20 -16 -47.5t-8 -53.5t11 -47t41 -29q32 -8 72 8.5t81 52.5q41 37 77.5 90t60.5 119q6 -2 5 -2.5t5 -1.5zM183 -218q65 0 127.5 38t122.5 97t116 131.5t107 142.5q42 58 81.5 109t74.5 86q-45 0 -94 -15.5t-98 -41.5t-96.5 -60.5t-89.5 -71.5
q32 -2 51 -12t27 -26q6 -13 6.5 -27.5t-3.5 -29t-10 -28t-13 -24.5q-15 -26 -37.5 -51t-48.5 -44.5t-54 -31t-53 -11.5q-35 0 -46 23q-8 16 -1 39.5t20 46.5t28 44t25 33q18 22 39 44t45 45q-50 -2 -97 -18.5t-88 -42t-74.5 -58t-56.5 -67.5q-11 -16 -21 -36t-16.5 -41
t-7 -42t8.5 -40q8 -18 22 -29.5t31 -18t36 -9.5t37 -3zM424 187q-26 -24 -49 -48t-42 -47q-9 -11 -23.5 -30.5t-27 -42t-19.5 -44t-1 -36.5q8 -17 37 -17q24 0 50.5 11.5t51.5 30t46.5 42.5t36.5 49q12 20 21.5 48t-1.5 51q-11 21 -35 27t-45 6z" />
    <glyph glyph-name="N" unicode="N" horiz-adv-x="925" 
d="M1001 -250q-17 -28 -37.5 -53.5t-43.5 -48.5q-18 -17 -40 -33.5t-46 -27.5t-50 -15t-52 3q-38 10 -61 30.5t-33 49.5t-9 64.5t11 76.5q12 50 35.5 105t52 111.5t60 111.5t60.5 104q21 36 39 67.5t31.5 57t21 44t7.5 29.5t-10 8.5t-15 -4.5q-21 -10 -50.5 -37.5t-65 -67
t-75.5 -87.5t-82 -99q-54 -66 -108.5 -131t-104.5 -116.5t-92 -84t-72 -32.5q-7 -2 -5 6q5 19 31 58.5t61 92.5q33 48 70 103.5t68.5 110.5t52.5 105.5t22 89.5q1 37 -21.5 59t-76.5 24q-62 1 -119 -17.5t-106 -51t-88 -74t-65 -86.5q-12 -20 -22.5 -44t-16.5 -49
t-6.5 -50.5t8.5 -47.5q20 -55 91 -68q-6 38 6 79q14 48 47.5 93t79.5 67q15 7 35.5 11t40.5 2.5t36.5 -11t24.5 -28.5q4 -13 3.5 -27t-5 -28t-11 -27t-13.5 -23q-20 -29 -48.5 -54.5t-63.5 -42.5q-58 -29 -119 -23q11 -43 56 -59q5 -2 3 -6.5t-7 -2.5q-26 9 -41.5 27.5
t-21.5 42.5q-42 6 -66.5 25.5t-35.5 48.5q-9 24 -9 50.5t6.5 52.5t17.5 51t23 46q27 46 66.5 88.5t89.5 75.5t108.5 52t122.5 18q66 -2 93.5 -30t25.5 -73q-1 -33 -14.5 -72.5t-35 -83t-49.5 -88t-57.5 -87.5t-58 -81.5t-51.5 -69.5q-15 -20 -27 -36.5l-20 -27.5
q29 6 69.5 39.5t88 83.5t99.5 112t103 125q41 50 80 97t74.5 86t65.5 67.5t53 40.5q7 4 15 6.5t15 1.5t12 -6.5t5 -17.5q0 -14 -8.5 -37t-23 -52.5t-34 -65.5t-41.5 -75q-26 -47 -53.5 -97.5t-53 -102t-46 -101.5t-32.5 -95q-11 -39 -13.5 -73t4.5 -61.5t25.5 -47
t50.5 -28.5q24 -7 48.5 -2.5t47.5 15.5t44 27t37 31q44 42 77 95h11zM160 -66q32 -4 60.5 2t57.5 20q34 17 61.5 41.5t46.5 51.5q6 9 12 21t10.5 25t5 26t-3.5 25q-6 17 -21.5 24.5t-33.5 8.5t-36.5 -3t-31.5 -10q-44 -21 -76 -64.5t-45 -89.5q-5 -18 -7.5 -38t1.5 -40z" />
    <glyph glyph-name="O" unicode="O" horiz-adv-x="792" 
d="M90 157q2 -4 -1.5 -7t-6.5 1q-25 32 -34 73.5t-4 82.5t24.5 78.5t51.5 62.5q25 19 53 28t58 10t60 -4t58 -13q43 -13 78 -30.5t73 -37.5q45 18 91.5 28t96.5 10q43 0 75 -6t55 -17q29 -12 43.5 -29t16.5 -34q3 -25 -18 -43q-20 -18 -50.5 -20.5t-56.5 -0.5
q3 -25 -1 -54.5t-14 -62.5q-13 -37 -32 -76.5t-45 -78.5q-24 -38 -53 -73t-61 -66q34 11 64 27q51 26 97.5 68t83.5 99q3 5 7 2.5t2 -7.5q-38 -58 -86 -101t-99 -70q-22 -11 -43 -19t-42 -13q-31 -28 -63.5 -50t-66.5 -37q-35 -15 -77.5 -21t-82 1.5t-71.5 31t-46 67.5
q-12 36 -9 76.5t16 80t32 76.5t39 67q50 73 122 136.5t160 101.5q-35 18 -70 34.5t-70 28.5q-27 9 -55.5 14.5t-56.5 5t-55 -9t-51 -26.5q-31 -24 -49 -60t-23 -75.5t3.5 -79t32.5 -69.5zM559 371q27 8 57.5 11.5t58.5 -2.5t48.5 -24.5t28.5 -53.5q24 -5 53 -3.5t49 18.5
q17 15 14 35q-2 14 -15 29t-39 26q-22 10 -53 16t-73 6q-46 0 -89 -9.5t-84 -26.5q10 -5 21 -11t23 -11zM575 363q46 -21 97 -40q18 -6 35 -11t34 -9q-7 30 -25 45.5t-42 21t-50 3t-49 -9.5zM743 290q-47 7 -93 25.5t-93 41.5q-51 -20 -97 -59t-81 -87q-17 -23 -33 -51.5
t-26.5 -59.5t-14 -62.5t3.5 -61.5q9 -37 31.5 -60.5t53 -35.5t65 -13.5t67.5 6.5q36 32 68 70t59 79q51 78 75 153q11 32 15 61.5t0 53.5zM284 -23q-8 30 -5.5 62t12.5 62.5t25.5 59t33.5 52.5q37 50 86 90t105 61q-11 6 -21 11.5t-21 10.5q-83 -38 -151 -99.5t-116 -133.5
q-20 -29 -39 -66t-32.5 -77t-17.5 -80.5t7 -76.5q12 -41 40 -61.5t63.5 -26.5t73 0.5t69.5 19.5q29 14 58.5 32.5t56.5 42.5q-33 -6 -69 -2t-68 18.5t-56 39.5t-34 61z" />
    <glyph glyph-name="P" unicode="P" horiz-adv-x="883" 
d="M847 436q3 -5 -1 -7q-5 -3 -7 1q-5 4 -12 4t-14.5 -2.5t-14 -6.5t-9.5 -7q69 -26 97 -73q23 -36 21 -76.5t-22 -76.5q-25 -46 -75 -80t-118 -40q-28 -2 -56 1.5t-54 16.5q-17 8 -33 23q-47 -64 -98 -125.5t-107.5 -109.5t-117 -77.5t-125.5 -28.5q-22 0 -45 4.5t-42.5 15
t-34 27.5t-19.5 42q-7 38 10 88q23 65 83 125q4 4 7.5 0.5t-0.5 -7.5q-29 -29 -49.5 -60t-31.5 -62q-8 -22 -10.5 -43t1.5 -39q5 -23 18.5 -38.5t32 -25t40 -13.5t41.5 -4q58 0 114.5 30.5t111 80t105.5 112.5t99 127q-3 4 -5.5 8t-4.5 8q-2 5 2 7t6 -2t4 -7t4 -5l37 50
q52 71 99 131t88 92q-25 8 -55 12.5t-68 4.5q-57 0 -108 -13.5t-94.5 -35.5t-78 -50t-58.5 -58q-27 -35 -38 -67q-11 -33 -1 -57t48 -29q23 -3 46 3t45 17.5t41 27t34 31.5q28 30 47 65t24 70q4 22 0 43q-1 5 4 6t6 -4q3 -23 0 -47q-5 -36 -25 -72.5t-49 -67.5
q-16 -17 -36 -33t-43 -28t-47.5 -18t-48.5 -3q-42 7 -54.5 34t-0.5 65q6 17 16 34.5t24 35.5q24 30 59.5 59t80 51.5t97 36.5t110.5 14q79 -1 135 -18l17.5 10t21 9.5t20 3t14.5 -9.5zM777 409q-33 -28 -72 -80.5t-84 -116.5l-66 -91q7 -7 15 -12l16 -10q24 -11 51.5 -15
t53.5 -2q57 6 100 39.5t66 78.5q17 34 19.5 71.5t-17.5 71.5q-11 20 -31.5 37t-50.5 29z" />
    <glyph glyph-name="Q" unicode="Q" horiz-adv-x="878" 
d="M173 158q3 -4 -1 -7t-7 1q-24 32 -33.5 73.5t-4 82.5t24.5 78.5t51 62.5q25 19 53.5 28t58.5 10t60 -4t58 -13q42 -13 77 -30.5t73 -37.5q45 18 92 28t96 10q43 0 75.5 -6t55.5 -17q16 -7 30.5 -18.5t23 -26t7 -30.5t-18.5 -31q-21 -18 -51.5 -20.5t-56.5 -0.5
q6 -49 -14 -114q-12 -39 -32 -80t-47 -81q-28 -42 -61.5 -81.5t-71.5 -72.5t-78.5 -58t-81.5 -38q31 -25 73 -35q19 14 37 25.5t37 19.5q35 13 58.5 7.5t28.5 -18.5t-11.5 -28t-59.5 -20q-21 -2 -44.5 -1.5t-43.5 4.5q-45 -35 -84.5 -64t-84.5 -49q-27 -12 -59.5 -20.5
t-65.5 -10.5t-66 2t-61 16q-40 17 -63 48t-24 76q0 20 4.5 42t15.5 46q2 5 6.5 3t2.5 -7q-19 -45 -19 -84q1 -42 22.5 -70.5t58.5 -44.5q27 -12 58.5 -15.5t64 -1.5t63.5 10t58 20q42 19 80 46.5t80 59.5q-48 12 -81 39q-53 -12 -100 -2q-44 9 -76.5 31.5t-47.5 67.5
q-12 36 -9 76.5t16 80t32.5 76.5t39.5 67q49 72 120 135.5t159 101.5q-38 20 -75.5 38t-75.5 29q-26 8 -52.5 12.5t-52.5 3.5t-51.5 -9.5t-48.5 -25.5q-31 -24 -49 -60t-23 -75.5t4 -79t32 -69.5zM634 376q28 8 59.5 10.5t60 -4.5t50 -25.5t29.5 -53.5q25 -5 54.5 -3.5
t49.5 18.5q15 13 15.5 26.5t-7.5 26t-21 22t-26 15.5q-23 10 -54 16t-73 6q-45 0 -88 -9.5t-85 -26.5q16 -9 36 -18zM649 369q41 -20 85 -37.5t89 -26.5q-8 29 -27 45t-44 22.5t-52 4.5t-51 -8zM826 291q-51 7 -100 26.5t-98 44.5q-36 -13 -68 -36t-59 -53.5t-48.5 -67
t-37.5 -75.5q-13 -31 -22 -66t-13 -71t-1.5 -72t13.5 -69q8 -23 20 -43t29 -36q41 12 82 36.5t78.5 57t71.5 72t62 81.5q26 40 46 80.5t31 78.5q20 64 14 112zM610 -275q39 4 53.5 15.5t10 21t-24.5 12.5t-50 -9q-16 -6 -31 -16t-32 -22q18 -3 37 -3.5t37 1.5zM421 -232
q-37 35 -53 84q-12 34 -15 70.5t0.5 73t13 72.5t23.5 68q16 39 39 75t51.5 66.5t61.5 54t71 37.5q-17 10 -32 17q-82 -38 -149.5 -99.5t-115.5 -132.5q-20 -29 -39 -66t-32.5 -77t-18 -80.5t6.5 -76.5q11 -38 37.5 -58.5t62.5 -28.5q42 -9 88 1z" />
    <glyph glyph-name="R" unicode="R" horiz-adv-x="989" 
d="M926 436q3 -5 -1 -7.5t-7 1.5q-2 2 -5 2q-12 3 -24 -2.5t-21 -11.5q69 -26 97 -73q23 -36 21 -76.5t-22 -76.5q-23 -44 -69.5 -76.5t-109.5 -41.5q-20 -3 -40.5 -3t-40.5 5q5 -22 10 -46t10 -50q9 -44 19 -90.5t23 -90.5t31 -84t41.5 -69.5t54 -47t70.5 -16.5
q54 0 106 25q53 25 86 67q3 4 7 0.5t1 -7.5q-37 -43 -90 -69q-25 -12 -53 -19t-57 -7q-50 -1 -87.5 19t-65.5 53.5t-47 78t-33 93t-23 99t-16 95.5q-3 20 -6 38t-7 35q-13 5 -25.5 12.5t-23.5 17.5q-47 -64 -98.5 -125.5t-108 -109.5t-117 -77.5t-125.5 -28.5q-40 0 -71 12
t-49.5 35t-22 55.5t11.5 74.5q23 65 83 125q4 4 7.5 0.5t-0.5 -7.5q-29 -29 -49.5 -60t-31.5 -62q-14 -39 -11 -69.5t20.5 -51.5t46.5 -31.5t67 -10.5q58 0 115 31t111 80.5t105.5 112.5t99.5 127q-6 11 -6 22.5t7 19.5t17 10.5t19 -1.5l5 7q52 71 99 131t88 92
q-25 8 -55 12.5t-68 4.5q-57 0 -108 -13.5t-94.5 -35.5t-78 -50t-58.5 -58q-27 -35 -38 -67q-11 -33 -1 -57t48 -29q23 -3 46 3t45 17.5t41 27t34 31.5q28 30 47 65t24 70q4 22 0 43q-1 5 4 6t6 -4q5 -23 0 -47q-5 -36 -25 -72.5t-49 -67.5q-16 -17 -36 -33t-42.5 -28
t-47 -18t-48.5 -3q-42 7 -55 34t-1 65q6 17 16 34.5t24 35.5q24 30 59.5 59t80 51.5t97 36.5t110.5 14q81 -2 135 -18q12 8 29 15t33 4q7 -2 11 -6zM856 409q-33 -28 -72 -80.5t-84 -116.5q-8 -11 -15.5 -22t-15.5 -22q10 -13 17.5 -34t14.5 -47q20 -5 41.5 -5.5t42.5 3.5
q51 9 91 41t60 74q17 34 20 71.5t-17 71.5q-25 43 -83 66zM659 155q-6 -8 -12 -17t-13 -17q9 -9 20 -15t22 -11q-4 19 -8 34t-9 26zM618 142q7 8 13 16.5t12 16.5q-6 3 -13 0t-10 -8q-7 -10 -2 -25z" />
    <glyph glyph-name="S" unicode="S" horiz-adv-x="787" 
d="M370 -211q79 15 131.5 55t87.5 95t56.5 119t39.5 126q2 6 3.5 11.5t3.5 11.5q-27 -19 -53.5 -37.5t-52.5 -38.5q12 -29 8.5 -55.5t-18.5 -49.5t-38.5 -43t-50 -36t-53.5 -27.5t-49 -18.5q-8 -2 -16.5 -4t-17.5 -4q-32 -48 -55 -108q19 -2 37 -0.5t37 4.5zM696 222
q11 37 22.5 70.5t26.5 61.5t33.5 49t43.5 33q19 10 35 10.5t25 -8t9.5 -24.5t-10.5 -37q-19 -37 -60 -72.5t-95 -73.5l-4 -14t-4 -15q-17 -65 -38 -133.5t-58.5 -128t-97.5 -103t-154 -58.5q-20 -3 -39 -4.5t-39 0.5q-16 -45 -24.5 -94.5t-8.5 -105.5q0 -5 -5 -5t-5 5
q0 57 8.5 107t24.5 95q-28 4 -54 14.5t-47 27.5t-35.5 41t-18.5 54q-32 18 -52.5 45.5t-27.5 63.5q-9 49 8 96.5t51 87t80.5 69t96.5 42.5t99 6.5t87 -37.5q26 -22 40 -53q10 -23 10 -51q19 -5 35.5 -15.5t27.5 -27.5q28 21 56.5 41.5t57.5 40.5zM286 -214q21 57 51 104h-1
q-8 -2 -15 -2.5t-15 -1.5q-54 -5 -95.5 1t-72.5 21q5 -27 19 -48t34 -36.5t44.5 -25t50.5 -12.5zM344 -98q46 69 104 124.5t120 103.5q-8 15 -20.5 25.5t-28.5 16.5q-3 -36 -24.5 -65t-52.5 -49.5t-67.5 -30t-70.5 -6.5q-32 3 -60.5 18t-47.5 42q-30 -32 -47.5 -74
t-12.5 -87q30 -16 72.5 -23t96.5 -1q19 1 39 6zM572 120q-59 -45 -114 -97.5t-100 -117.5q17 3 28 7q30 9 67 28.5t67.5 47t47 61.5t4.5 71zM730 246q50 35 87.5 68t55.5 67q9 18 9 31t-6.5 19.5t-19.5 6t-29 -9.5q-38 -21 -59.5 -70t-37.5 -112zM125 -74q-3 46 15.5 89
t50.5 75q-19 32 -16 68q1 5 6 4.5t4 -5.5q-3 -31 13 -60q26 25 62.5 45.5t77 33t82.5 16.5t79 -4q-1 22 -11 44q-12 28 -37 48q-35 29 -80.5 34t-92 -8t-90.5 -41.5t-76 -66.5t-48 -83t-7 -90q12 -63 68 -99zM203 88q17 -26 44.5 -40t57.5 -17q33 -3 67 6.5t62 29t46.5 47.5
t18.5 64q-37 9 -78.5 5t-81.5 -17t-75.5 -33.5t-60.5 -44.5z" />
    <glyph glyph-name="T" unicode="T" horiz-adv-x="737" 
d="M809 370q46 38 97 60t111 22q45 0 73 -9t40 -23t8.5 -30t-21.5 -30t-50 -23.5t-77 -9.5q-45 1 -88 8t-86 18q-50 -46 -95 -106.5t-90 -125.5t-91.5 -127.5t-99 -112t-113.5 -79.5t-134 -30q-21 0 -43 3t-42 11t-35.5 22t-23.5 36q-8 21 -6.5 43t8 44t17 43t22.5 38
q22 32 51.5 61.5t66.5 54.5q-23 14 -32 34t-7.5 42.5t10.5 45t21 41.5q20 29 50.5 56.5t69.5 48.5t86 33.5t100 11.5q64 -2 125 -18t122 -35zM538 345q2 5 6.5 4t2.5 -6q-11 -45 -32.5 -82.5t-48.5 -66.5q14 -3 25.5 -10t19.5 -19q15 -25 6 -54t-24 -51q-23 -32 -63.5 -64.5
t-84.5 -55.5q-11 -6 -30 -15t-40 -16t-41 -9t-32 6q-4 3 -1 7t7 1q10 -7 28.5 -4.5t38.5 9.5t38.5 16t27.5 14q42 23 81.5 54t62.5 63q13 19 21.5 45.5t-4.5 48.5q-7 11 -19 17t-25 8q-30 -30 -68.5 -51.5t-81.5 -23.5q-29 -2 -51 1.5t-39 11.5q-38 -25 -68 -55t-52 -62
q-11 -16 -21 -35.5t-16.5 -40.5t-8 -42.5t5.5 -40.5q7 -20 22 -33t34 -20t39.5 -9.5t40.5 -2.5q62 1 115.5 29t101.5 73.5t92 104t87 120.5q49 69 98.5 134.5t106.5 115.5q-23 6 -44.5 13t-43.5 13q-55 17 -105.5 31t-95.5 15q-51 1 -97 -11t-84 -32.5t-67.5 -47
t-48.5 -54.5q-12 -18 -21 -39.5t-10 -42.5t7.5 -39.5t31.5 -30.5q51 32 114 51t124 11q28 29 49.5 66.5t33.5 82.5zM1018 443q-54 -1 -100.5 -22t-88.5 -56q41 -12 80.5 -19.5t80.5 -8.5q61 0 97 16.5t41.5 36.5t-21 36.5t-89.5 16.5zM307 120q36 2 71.5 19.5t67.5 47.5
q-58 5 -114 -11.5t-104 -46.5q30 -12 79 -9z" />
    <glyph glyph-name="U" unicode="U" horiz-adv-x="914" 
d="M344 180q-42 1 -79.5 -24.5t-63.5 -63.5q-11 -16 -21 -35t-16 -40t-8.5 -42t1.5 -41q33 -4 64.5 4t59.5 24.5t51.5 40t40.5 49.5q6 9 12 21t10.5 25t6 26t-2.5 24q-6 18 -22 24.5t-33 7.5zM997 -250q-30 -49 -69 -90.5t-86 -66.5q-29 -15 -62 -19.5t-62 3.5t-52 28.5
t-33 55.5q-8 27 -6.5 59.5t9.5 69.5q10 45 29.5 94.5t44 100.5t53.5 103t58 101q-44 -57 -92.5 -115.5t-99.5 -111.5q-16 -17 -37 -38t-45.5 -43t-50.5 -43t-52 -36.5t-50.5 -23.5t-45.5 -5q-23 4 -30.5 17t-5.5 34q3 19 13 43t26 52t35 59.5t40 64.5q26 41 51.5 82.5t46 81
t33.5 75t14 64.5q1 35 -21.5 55.5t-78.5 22.5q-62 1 -119.5 -17.5t-106 -50.5t-87.5 -74t-65 -87q-12 -20 -22.5 -44t-16.5 -49t-6.5 -50.5t8.5 -47.5q20 -55 91 -68q-7 42 7.5 85t37.5 77q28 40 67.5 66t84.5 25q22 0 43 -8.5t29 -31.5q5 -13 4 -27t-5 -28t-11 -27t-14 -23
q-19 -28 -44.5 -51.5t-55.5 -40t-63.5 -24.5t-67.5 -4q13 -43 56 -59q5 -2 3.5 -6.5t-6.5 -2.5q-26 9 -41.5 27.5t-21.5 42.5q-42 6 -66.5 25.5t-35.5 48.5q-9 24 -9 50.5t6.5 52.5t17 51t22.5 46q27 46 66.5 88.5t89.5 75.5t108.5 52t122.5 18q68 -2 95.5 -28t26.5 -69
q-1 -32 -15 -71t-36.5 -82t-49.5 -87.5t-54 -86.5q-39 -61 -69.5 -112.5t-35.5 -83.5q-5 -28 17 -31q23 -3 53.5 9.5t66 38t74 61t78.5 77.5q35 37 70 77.5t68 82t63.5 81.5t56.5 77q23 38 46.5 76.5t46.5 77.5q2 4 6.5 2t2.5 -7q-5 -9 -9.5 -18.5t-9.5 -18.5
q-14 -27 -32.5 -59.5t-38.5 -68.5q-31 -55 -65 -116.5t-65 -123.5t-56 -123t-39 -115q-20 -76 -10 -129q7 -34 26.5 -53.5t45 -26t55 -1.5t56.5 20q45 24 81 62.5t65 84.5h11z" />
    <glyph glyph-name="V" unicode="V" horiz-adv-x="833" 
d="M319 177q-34 -6 -64 -29.5t-53 -55.5q-22 -32 -36.5 -75t-6.5 -83q6 -1 12.5 -1h12.5q28 0 56 10t52.5 27t45 38t35.5 44q12 19 22.5 46.5t3.5 50.5q-4 12 -13 18.5t-20.5 9.5t-24 2.5t-22.5 -2.5zM418 149q5 -13 4 -27t-5 -28t-11 -27t-14 -23q-16 -23 -38.5 -45
t-49.5 -39t-57.5 -27t-62.5 -10h-11t-12 1q13 -43 56 -59q5 -2 3.5 -6.5t-6.5 -2.5q-27 9 -42.5 27.5t-21.5 42.5q-41 6 -65.5 25.5t-35.5 48.5q-9 24 -9 50.5t6 52.5t17 51t23 46q27 46 66.5 88.5t89.5 75.5t108.5 52t122.5 18q68 -2 95.5 -28t26.5 -69q-1 -32 -15 -71
t-36.5 -82t-49.5 -87.5t-54 -86.5q-39 -61 -70 -112.5t-36 -83.5q-2 -13 1.5 -20t10 -10t16 -2.5t18.5 2.5q24 5 52 21t59 40.5t64.5 56t68.5 67.5q59 62 117 132.5t106 136t82 119.5t46 83q2 5 6.5 3.5t2.5 -6.5q-12 -29 -46.5 -83.5t-82.5 -120.5t-106 -137t-118 -134
q-35 -36 -69 -68t-66.5 -57t-61.5 -41.5t-53 -21.5q-13 -3 -26 -2t-23 6.5t-15 16.5t-3 29q3 19 13 43t25.5 52t35 59.5t40.5 64.5q25 41 51 82.5t46.5 81t33.5 75t14 64.5q1 35 -21.5 55.5t-78.5 22.5q-62 1 -119.5 -17.5t-106 -50.5t-87.5 -74t-65 -87q-12 -20 -22.5 -44
t-16.5 -49t-6.5 -50.5t8.5 -47.5q20 -55 90 -68q-6 42 8.5 85t37.5 77q23 33 54.5 57t67.5 32q13 3 29 2.5t30.5 -4.5t26 -12.5t16.5 -23.5z" />
    <glyph glyph-name="W" unicode="W" horiz-adv-x="1390" 
d="M215 -135q5 -2 3.5 -6.5t-6.5 -2.5q-26 9 -41.5 27.5t-21.5 41.5q-42 7 -66.5 26t-35.5 48q-9 24 -9 50.5t6.5 52.5t17 50.5t22.5 45.5q27 46 66.5 89.5t89.5 76.5t108.5 52t122.5 18q68 -2 95.5 -28t26.5 -69q-1 -32 -15 -71t-36.5 -82t-49.5 -87.5t-54 -86.5
q-39 -61 -69.5 -112.5t-36.5 -83.5q-2 -12 1.5 -19t10 -10t15.5 -3t18 2q24 5 52 21t59.5 40t65 56t68.5 68q62 65 121 137.5t108 140.5q23 36 43 68.5t37 59.5q13 20 23.5 36.5t18.5 29.5q2 4 6.5 2t2.5 -7q-3 -8 -8 -17t-11 -20q-14 -27 -32.5 -59.5t-38.5 -68.5
q-35 -63 -74 -133.5t-73 -141.5q-30 -63 -48.5 -114t-27.5 -93q-7 -33 -8.5 -65.5t8 -60t31.5 -47t61 -25.5q48 -8 96.5 9t96 52.5t93 85t86.5 108.5q49 70 89 141t69.5 140.5t47.5 137t24 129.5q-20 7 -30 15q-12 10 -11.5 19.5t7 14.5t16.5 3t18 -15q3 -5 5.5 -12t3.5 -18
q13 -4 25.5 -5.5t25.5 -3.5q20 -2 41 0q5 1 5.5 -4t-4.5 -5q-20 -3 -43 -1q-12 2 -24.5 3.5t-24.5 5.5q-13 -126 -72.5 -267.5t-159.5 -283.5q-42 -59 -88.5 -110t-95 -86.5t-99 -52.5t-99.5 -9q-44 7 -70.5 25.5t-39.5 46.5t-14 63t7 75q8 42 24.5 88.5t38 95t47.5 97
t53 95.5q-42 -53 -86.5 -105.5t-89.5 -100.5q-70 -74 -135.5 -125.5t-115.5 -62.5q-13 -3 -25.5 -2t-22.5 6.5t-15 16.5t-3 29q3 19 13 43t26 52t35 59.5t40 64.5q26 41 51.5 82.5t46 81t33.5 75t14 64.5q1 35 -21.5 55.5t-78.5 22.5q-62 1 -119.5 -17.5t-106 -51t-88 -75
t-65.5 -87.5q-11 -20 -21.5 -43.5t-16.5 -48.5t-6.5 -50.5t8.5 -47.5q10 -26 32 -43.5t59 -23.5q-6 38 6 79q6 21 16 42t23 41q23 32 52.5 55.5t64.5 32.5q13 3 29.5 3.5t32 -3t27.5 -12.5t18 -24q10 -26 -0.5 -54.5t-24.5 -49.5q-15 -23 -36.5 -44.5t-48 -38.5t-56 -28
t-60.5 -12h-15.5t-15.5 1q13 -43 56 -59zM190 -67q27 1 53.5 12t50 28t43.5 38t35 43q12 19 22.5 46t3.5 49q-4 13 -14 19.5t-23 9t-26.5 2t-23.5 -3.5q-32 -8 -60.5 -30.5t-49.5 -53.5q-27 -37 -39 -80q-5 -18 -7 -38t2 -40q8 -1 16.5 -1.5t16.5 0.5zM1362 405q-3 15 -7 21
q-5 8 -11 10t-9.5 0t-3 -7.5t8.5 -11.5t22 -12z" />
    <glyph glyph-name="X" unicode="X" horiz-adv-x="815" 
d="M1016 452q5 0 5 -5t-5 -4q-53 1 -99 -18.5t-86.5 -51.5t-76 -73.5t-66.5 -83.5q-4 -23 -8.5 -46t-9.5 -46q-13 -65 -25 -133t-15 -132t6.5 -120t40.5 -97q19 -25 43 -38q12 -6 25.5 -10t30.5 -5q24 -2 49 5.5t49 21.5q28 17 53.5 40.5t47.5 51.5q2 4 7 1q3 -3 1 -7
q-23 -29 -49 -53t-54 -41q-26 -16 -52.5 -23.5t-52.5 -5.5q-34 1 -60 17q-14 7 -25 17t-21 23q-32 42 -42.5 99.5t-7.5 122.5t15.5 133.5t25.5 134.5q4 18 7.5 36t6.5 35l-52 -76q-45 -65 -91.5 -127.5t-99 -112t-113.5 -79.5t-134 -30q-26 0 -53 4.5t-49 17.5
q-21 12 -32 29.5t-14.5 37t-0.5 40.5t10 42q11 32 32.5 64.5t51.5 62.5q3 4 6.5 0.5t0.5 -7.5q-29 -29 -50 -60.5t-32 -62.5q-13 -38 -9 -76t42 -61q21 -13 47 -17t51 -4q62 1 115.5 29t101.5 73.5t91.5 104t87.5 120.5q23 33 48.5 69t54.5 71q4 27 6.5 51.5t1.5 45.5
q0 44 -15.5 69.5t-55.5 24.5q-41 0 -79.5 -21t-72.5 -55q0 -1 2 -3q20 -27 31 -65q9 -36 12 -66q5 -47 -2.5 -83.5t-21.5 -62.5q-15 -26 -35 -42.5t-40 -21.5q-4 -2 -7 -2t-6 -1q-48 -4 -65 33q-13 27 -7 71q6 43 27 93q17 39 42 78.5t57 71.5q-9 9 -19 17t-22 14h-1
q-29 14 -63 14.5t-66 -10.5t-59.5 -32t-41.5 -50l-1 -1q-2 -6 -6 -2q-6 2 -2 6v1q16 32 44.5 54t62.5 34q35 11 70.5 10.5t65.5 -15.5h1q27 -14 43 -33q35 35 75.5 56.5t83.5 22.5q45 1 62.5 -27t18.5 -77q1 -18 -1 -38t-5 -43q31 38 66.5 72.5t75.5 60.5t84 40.5t94 13.5z
M462 357q-30 -32 -54.5 -70.5t-41.5 -76.5q-20 -49 -26 -90q-6 -42 6 -66q7 -14 20 -21.5t35 -5.5q3 0 11 2q19 5 37 20t32 40q14 26 21 60.5t2 79.5q-3 29 -12 64q-5 17 -11.5 32.5t-17.5 29.5q0 1 -0.5 1t-0.5 1z" />
    <glyph glyph-name="Y" unicode="Y" horiz-adv-x="899" 
d="M841 181q-34 -54 -75.5 -120t-90.5 -133.5t-104.5 -131.5t-117.5 -113.5t-129.5 -79.5t-139.5 -29q-19 0 -39 3.5t-38 11t-32 20.5t-22 33q-8 21 -7 43t7 44t16.5 43t21.5 38q25 39 62.5 74.5t83.5 62.5t99 42t109 12q33 -2 50.5 -14.5t22.5 -32t-1.5 -43t-22.5 -46.5
q-23 -33 -63 -65.5t-83 -55.5q-11 -6 -30 -15.5t-40 -17t-40.5 -9.5t-31.5 6q-4 3 -1.5 7t7.5 1q10 -7 28.5 -4t38.5 10t38 16t27 14q42 23 81 55t61 64q14 21 20.5 41.5t2.5 37.5t-19.5 28t-45.5 13q-54 3 -105.5 -11.5t-96 -40.5t-81 -61.5t-61.5 -72.5q-11 -16 -20.5 -36
t-16 -41t-7.5 -42t7 -40q7 -18 20 -30t29.5 -19t35 -10t36.5 -3q64 -1 125.5 28t119.5 77t111 109.5t99.5 125t86 124.5t69.5 108q20 31 39.5 60.5t37.5 56.5q-38 -38 -82.5 -73.5t-90.5 -64.5q-50 -30 -97.5 -48.5t-88.5 -18.5q-12 0 -24.5 2t-21.5 7.5t-14 15.5t-2 27
q4 25 21.5 57t39.5 66q12 20 23.5 39.5t20.5 38t14.5 35t5.5 29.5q-1 18 -16 29t-52 11q-48 0 -98.5 -9.5t-97 -29.5t-87.5 -50t-69 -71q-10 -14 -18 -31.5t-12.5 -35.5t-4 -36.5t9.5 -35.5q9 -19 27.5 -32.5t47.5 -18.5q-6 37 6 78q7 24 19.5 48.5t29 46.5t37 39t44.5 28
q15 7 35 10.5t39.5 1t36 -12t23.5 -28.5q9 -26 -1.5 -54.5t-24.5 -50.5q-16 -23 -38 -44.5t-48.5 -38.5t-57 -27t-61.5 -10q-7 0 -13.5 0.5t-13.5 1.5q6 -20 19.5 -35.5t36.5 -23.5q5 -2 3.5 -7t-6.5 -3q-26 10 -41.5 28t-21.5 42q-33 6 -54 21t-32 36q-9 18 -10 38
t3.5 39.5t13 38t19.5 34.5q29 42 70.5 72.5t89.5 51t99.5 30.5t100.5 10q50 -1 70 -16t21 -41q0 -16 -6 -35t-16 -39.5t-22.5 -42t-25.5 -42.5q-20 -32 -35.5 -60.5t-19.5 -48.5q-2 -11 0.5 -17.5t8.5 -9.5t13.5 -4t15.5 -1q40 -1 86.5 17.5t95.5 47.5q60 38 117 87t101 99
q37 51 69 81.5t59 34.5q5 0 5.5 -4.5t-4.5 -5.5q-14 -2 -32.5 -18t-38 -40.5t-40 -54t-38 -57t-31 -50.5t-20.5 -34zM353 309q-24 -9 -44.5 -26t-37.5 -38.5t-29.5 -45.5t-19.5 -48q-6 -21 -8 -41t2 -37q6 -1 12.5 -1.5t13.5 -0.5q29 0 57 9.5t53 26t45.5 38t35.5 44.5
q13 19 23 46t3 50q-5 16 -18 23.5t-28.5 9t-31.5 -1.5t-28 -7z" />
    <glyph glyph-name="Z" unicode="Z" horiz-adv-x="833" 
d="M904 371q43 36 94.5 59t117.5 23q67 0 97 -20t25 -43.5t-43 -43t-106 -19.5q-46 1 -89 8t-85 18q-23 -23 -45 -48t-44 -51q-45 -55 -94.5 -106t-115.5 -81q33 -20 49 -53q12 -26 12.5 -54t-7 -56t-20.5 -54.5t-28 -48.5q-30 -44 -74.5 -85.5t-99.5 -73t-119.5 -50
t-134.5 -18.5q-21 0 -43 2.5t-41.5 10t-35.5 21.5t-24 36q-8 21 -7 43.5t7 44.5t16.5 43t22.5 38q25 38 62 73.5t83 62t98.5 41t108.5 11.5q33 -2 50.5 -14.5t23 -32t-1 -43t-22.5 -46.5q-23 -33 -63 -65.5t-83 -55.5q-11 -6 -30 -15.5t-40 -17t-41 -9.5t-32 6q-4 3 -1 7
t7 1q10 -7 28.5 -4t38.5 10t38 16t27 14q42 23 81 55t62 64q14 21 20.5 41.5t2.5 37.5t-19.5 28t-45.5 13q-54 3 -105.5 -11t-96 -40t-81 -61t-61.5 -72q-11 -16 -21 -36t-16 -41t-7 -42t6 -40q8 -21 23 -33.5t33.5 -19t39 -9t39.5 -2.5q64 0 123.5 19t112 51t95 73.5
t72.5 85.5q13 20 26 45t20.5 52t8 54t-10.5 51q-12 28 -41 46q-51 -20 -109 -22q-33 -2 -47 7.5t-12.5 20.5t17.5 20.5t43 9.5q33 -1 59.5 -6.5t47.5 -14.5q28 13 52.5 32t47.5 41.5t44.5 47t42.5 49.5q26 30 51 59t54 55q-21 6 -41.5 12t-41.5 13q-16 -23 -34.5 -41
t-38.5 -32q-37 -26 -76.5 -37t-77.5 -13q-57 -2 -97 11t-62.5 33.5t-25 44.5t17 44.5t61.5 34t109 13.5q56 -1 111.5 -13t111.5 -29q6 10 12 20.5t11 22.5q2 5 6.5 3t2.5 -7q-5 -11 -10.5 -21.5t-11.5 -20.5zM1116 443q-60 0 -105.5 -21.5t-83.5 -56.5q42 -12 82.5 -19.5
t79.5 -8.5q61 0 97 16t41.5 36t-21 37t-90.5 17zM798 388q-56 17 -109 31t-105 14q-64 0 -104 -12t-58 -30.5t-15.5 -40t23.5 -39.5t59.5 -29t91.5 -10q37 2 75 12.5t73 35.5q19 13 36.5 29.5t32.5 38.5zM492 87q-20 0 -34 -6.5t-16 -14t9 -13.5t40 -5q50 3 93 21
q-36 16 -92 18z" />
    <glyph glyph-name="one" unicode="1" horiz-adv-x="394" 
d="M247 311q4 1 6 -1.5t0 -4.5q-2 -9 -18.5 -38t-40.5 -67q-21 -33 -45 -69.5t-44 -67t-34 -51t-15 -21.5q-2 -1 -7 -1q-5 2 -2 11t9 23l34 60q20 32 45 70.5t48 72.5q-16 -15 -33 -29t-32.5 -25.5t-27.5 -20t-18 -11.5q-5 -3 -7.5 2t2.5 7q6 3 18.5 11.5t28.5 20t33 26
t34 29.5q5 4 10 9t11.5 12t16 17.5t22.5 26.5q1 2 1.5 6t4.5 3z" />
    <glyph glyph-name="two" unicode="2" horiz-adv-x="596" 
d="M214 280q-33 -27 -43 -61q-2 -5 -7 -3.5t-3 6.5q12 37 46 66q18 14 39.5 21.5t42.5 7.5q29 0 47 -11t26 -29q7 -14 8.5 -30t-1.5 -32.5t-9.5 -32t-13.5 -27.5q-23 -39 -61 -74.5t-91 -55.5q22 -6 42.5 -9t38.5 -1.5t32 9.5t22 26q2 5 6.5 2.5t2.5 -7.5q-10 -21 -27 -30.5
t-38.5 -10.5t-46 3.5t-49.5 12.5q-21 -8 -43 -12t-46 -4q-23 0 -34.5 9t-12 19.5t11 17.5t34.5 4q22 -3 43.5 -10.5t41.5 -13.5q52 21 90.5 58t60.5 78q6 11 11.5 25.5t9 29.5t3.5 30t-6 27t-19 19.5t-34 7.5q-19 0 -38.5 -5.5t-35.5 -19.5zM88 15q17 0 34 2.5t34 7.5
q-17 5 -34.5 10t-34.5 9q-18 3 -26.5 -1t-8 -10t9.5 -12t26 -6z" />
    <glyph glyph-name="three" unicode="3" horiz-adv-x="532" 
d="M185 251q-2 -3 -7 -1.5t-2 5.5q5 13 15 25t27 20q24 14 61 13q13 -1 27 -5.5t21 -19.5q5 -16 0.5 -32.5t-12.5 -30.5q-10 -17 -26 -31.5t-36 -24.5q8 -10 10 -22t0 -24.5t-7 -24t-11 -20.5q-18 -29 -50.5 -50t-77.5 -25q-16 -2 -32.5 0.5t-27.5 11.5q-13 7 -18.5 18
t-5.5 23t4.5 24t11.5 23q2 5 6.5 2t2.5 -6q-6 -9 -10 -19.5t-4.5 -21t4 -19.5t15.5 -15q10 -8 24.5 -10t28.5 -1q35 3 61.5 24.5t43.5 48.5q8 14 15.5 36t1.5 39q-18 -5 -35 -5q-23 0 -22 11.5t19 17.5q23 6 41 -6q15 11 29 26t23 32q5 9 10.5 24.5t0.5 28.5
q-3 8 -10.5 10.5t-16.5 2.5q-17 1 -30.5 -2.5t-25.5 -9.5q-26 -16 -36 -40zM203 165q7 0 13.5 2.5t12.5 5.5q-6 4 -13 3.5t-14 -2.5q-8 -2 -9.5 -5.5t10.5 -3.5z" />
    <glyph glyph-name="four" unicode="4" horiz-adv-x="596" 
d="M429 320q3 3 6 1t2 -6q-3 -9 -20 -38t-41 -66q-10 -18 -23 -38l-26 -40q13 -2 25 -3t23 -3q5 0 4.5 -4.5t-5.5 -4.5q-12 1 -25.5 2.5t-27.5 3.5q-16 -24 -30 -46t-25.5 -39t-18.5 -27.5t-8 -11.5q-2 -2 -4 -2t-3 2q-3 2 -0.5 11.5t7.5 21.5q5 13 13.5 28t19.5 32
q6 8 12 17t11 17q-18 3 -36 6.5t-34 6.5q-23 4 -45 8t-43 7q-8 -12 -19 -23q-21 -21 -36 -26t-24 -0.5t-11.5 15.5t2 22.5t17 19t32.5 6.5q8 0 17 -1t18 -3q50 63 86 129.5t76 133.5q2 5 6.5 2.5t1.5 -7.5q-39 -67 -74 -132t-84 -128q18 -2 39 -5t43 -8q17 -3 36 -6t38 -7
q19 30 39 60t38 55.5t31.5 43.5t19.5 24zM111 138q4 5 7.5 9.5t7.5 9.5q-8 0 -14.5 0.5t-14.5 1.5q-15 1 -24.5 -4.5t-14 -13.5t-3 -16t8 -10.5t18.5 2t29 21.5z" />
    <glyph glyph-name="five" unicode="5" horiz-adv-x="596" 
d="M98 107q2 5 6.5 2.5t2.5 -7.5q-14 -20 -10 -41t24 -35q24 -14 51 -10.5t51.5 18t44.5 35t31 40.5q7 11 13.5 29t-0.5 31q-7 12 -23 10.5t-26 -4.5q-8 -1 -16.5 -4t-18.5 -7q-3 -1 -5.5 2.5t-0.5 5.5q2 4 11 17.5t20 31.5t23.5 37.5t21.5 33.5q5 9 8.5 15t6.5 10q2 4 7 1
q13 -8 28 -10.5t29 -0.5q17 1 31.5 4t24.5 11q5 2 7.5 -2t-0.5 -8q-11 -8 -27.5 -11t-34.5 -5q-17 0 -33.5 2.5t-26.5 8.5q-2 -3 -5 -8.5t-7 -11.5q-8 -12 -17.5 -27l-19 -30t-18 -28.5t-13.5 -22.5q5 2 11.5 3.5t11.5 3.5q9 2 19.5 3t21 -0.5t19 -6.5t13.5 -15
q8 -17 2.5 -36.5t-15.5 -33.5q-14 -23 -38 -44t-53 -33.5t-59.5 -14.5t-55.5 14q-23 14 -28 39.5t11 48.5z" />
    <glyph glyph-name="six" unicode="6" horiz-adv-x="543" 
d="M340 403q4 2 7 -2t-2 -6q-14 -11 -35.5 -30.5t-45 -44.5t-48 -54.5t-44.5 -59.5q2 3 5 5.5t6 6.5q39 37 87 37q31 -1 41 -21t4.5 -49t-23 -62t-41 -60.5t-50 -45t-50.5 -14.5q-17 2 -28 13t-17 26t-8 31.5t0 29.5q2 16 9.5 34.5t15.5 35.5q20 38 49.5 74.5t61.5 69.5
q29 29 57 51.5t49 34.5zM153 14q21 -2 45 14t45.5 41.5t38.5 56t23 57t-1.5 44.5t-33.5 19q-22 1 -42 -9.5t-39 -26.5q-8 -9 -18.5 -22.5t-20.5 -28.5t-18 -29.5t-11 -26.5q-3 -11 -4 -25.5t2 -28.5t11 -24t23 -11z" />
    <glyph glyph-name="seven" unicode="7" horiz-adv-x="497" 
d="M300 304q-3 -8 -20.5 -37t-39.5 -67q-22 -33 -45.5 -69.5t-43.5 -67t-33.5 -51t-14.5 -21.5q-3 -1 -7 -1q-4 2 -2 11t8 23q5 11 14 26.5t19 33.5q12 18 26.5 42t31 49.5t34 51t33.5 46.5q-11 -2 -24 1.5t-28 8.5q-24 7 -51.5 10.5t-52.5 -12.5q-5 -2 -7 2.5t1 6.5
q29 18 58 14t55 -12q18 -5 34 -7.5t27 2.5q5 5 9.5 11t9.5 11q2 3 6 1t3 -6z" />
    <glyph glyph-name="eight" unicode="8" horiz-adv-x="548" 
d="M174 115q43 10 77 35q0 11 -0.5 22t-1.5 23q0 23 -1 45.5t1 45.5q6 56 33 84.5t54.5 29t44 -27t1.5 -82.5q-11 -48 -44.5 -88t-75.5 -65q-1 -42 -11.5 -77t-43.5 -52q-14 -7 -30 -7t-29.5 6t-22 18t-6.5 29q0 12 4.5 23.5t11.5 21.5q-10 -2 -19 -2h-19q-5 0 -5 5t6 5
q11 0 22.5 0.5t21.5 2.5q14 16 35.5 31.5t50.5 27.5q5 2 7 -2.5t-2 -6.5q-20 -11 -34 -22.5t-25 -22.5zM262 157q32 23 57 57.5t38 72.5q12 37 10.5 60t-11 33.5t-25 8.5t-30 -14.5t-26 -35t-14.5 -54.5q-3 -22 -2.5 -44.5t2.5 -45.5v-19.5t1 -18.5zM163 102
q-10 -10 -16 -24.5t-6 -29.5q0 -27 19 -34.5t42 3.5q29 14 38 45t11 69q-44 -20 -88 -29z" />
    <glyph glyph-name="nine" unicode="9" horiz-adv-x="499" 
d="M115 -3q-4 -3 -7.5 1t0.5 7q46 40 85 93t65 108q-2 -3 -6 -7q-9 -9 -22 -19t-27 -18.5t-28.5 -14t-27.5 -5.5q-27 -1 -39 14t-11 39q2 27 16 56t30 51q17 26 40 47.5t49 35.5q11 6 24.5 10t26 4t23 -5.5t16.5 -20.5q3 -12 2.5 -27.5t-3.5 -33.5q-5 -24 -15 -51t-24 -56
q-28 -57 -71.5 -113t-95.5 -95zM274 241q5 10 8.5 19.5t7.5 19.5q10 29 14.5 53t1.5 38q-3 12 -10.5 15.5t-17 3t-19.5 -5t-17 -8.5q-20 -12 -39 -33t-36 -44q-14 -23 -28 -53.5t-16 -58.5q-1 -13 3 -23.5t21 -11.5q26 1 53 18.5t45 35.5q8 8 15 16t14 19z" />
    <glyph glyph-name="zero" unicode="0" horiz-adv-x="495" 
d="M246 294q-18 0 -35.5 -11.5t-33.5 -30.5t-30 -44t-24 -51q-5 -12 -11.5 -35t-9 -47t4 -42.5t27.5 -20.5q18 -2 36.5 9.5t35 31t31 44.5t24.5 52q5 11 12 35t8.5 48.5t-5.5 43t-30 18.5zM131 1q-30 3 -41.5 22.5t-12 45.5t6 53t14.5 45q11 27 27.5 51.5t36 44t41 31
t43.5 11.5q27 0 36.5 -19.5t9 -46t-8 -53.5t-13.5 -41q-7 -20 -20.5 -45.5t-31.5 -48t-40 -37.5t-47 -13z" />
    <glyph glyph-name="braceleft" unicode="{" horiz-adv-x="422" 
d="M377 249q2 -4 -2.5 -6.5t-7.5 3.5q-5 8 -16 11t-22 4q-17 0 -32.5 -10t-30.5 -26t-29 -35.5t-27 -39.5q-8 -11 -18 -27t-22 -30.5t-25.5 -25t-27.5 -11.5q9 -18 -4.5 -47.5t-32.5 -63.5l-18.5 -37t-18.5 -50t0.5 -42.5t38.5 -14.5q6 2 12 3.5t14 5.5q4 4 7 -1t-2 -7
q-16 -7 -29 -9q-28 -4 -42 4t-17.5 22.5t1 34t12 39t17 36.5t15.5 28q4 7 12.5 21t15.5 30t9.5 30t-5.5 20q-6 0 -4 5t5 4t8 -1q21 -2 40 23t39 60q13 21 28 43t31.5 39.5t36 28.5t43.5 11q14 0 27.5 -4.5t20.5 -17.5z" />
    <glyph glyph-name="braceright" unicode="}" horiz-adv-x="598" 
d="M0 -198q-2 4 2.5 6.5t7.5 -3.5q5 -8 16 -11t22 -4q17 0 32.5 10t30.5 26t29 35.5t27 39.5q7 11 17.5 27t22.5 30.5t25.5 25t27.5 11.5q-9 18 4.5 47.5t32.5 63.5l18.5 37t18.5 50t-0.5 42.5t-38.5 14.5q-6 -2 -12 -3.5t-14 -5.5q-4 -4 -7 1t2 7q16 7 29 9q28 3 42 -4.5
t17.5 -22t-1 -34t-12 -39t-17 -36.5t-15.5 -28q-4 -7 -12.5 -21.5t-15.5 -30t-9.5 -29.5t5.5 -20q6 0 4 -5t-5 -4t-8 1q-21 2 -40 -23t-39 -60q-14 -21 -28.5 -43t-31 -39.5t-36 -28.5t-43.5 -11q-14 0 -27.5 4.5t-20.5 17.5z" />
    <glyph glyph-name="parenleft" unicode="(" horiz-adv-x="398" 
d="M376 249q2 -4 -1.5 -6.5t-5.5 3.5q-5 7 -15 10.5t-18 3.5q-19 -1 -44 -19t-52 -47t-55 -67.5t-52 -79.5q-5 -8 -18 -30t-27 -50.5t-26 -58.5t-16 -54.5t3.5 -39.5t32.5 -13q6 2 12.5 3.5t14.5 5.5q3 4 6 -1t-2 -7q-15 -8 -30 -9q-31 -4 -43.5 10t-12.5 38t9 54t21.5 59
t25 53t19.5 36q25 43 56 84t63 73t62 51.5t54 19.5q11 0 23 -6.5t16 -15.5z" />
    <glyph glyph-name="parenright" unicode=")" horiz-adv-x="439" 
d="M0 -200q-2 4 1.5 6.5t5.5 -3.5q5 -7 15 -10.5t18 -3.5q19 1 44 19t52 47t55 67.5t52 79.5q5 8 18 30t27 50.5t26 58.5t16 54.5t-3.5 39.5t-32.5 13q-6 -2 -12.5 -3.5t-14.5 -5.5q-3 -4 -6 1t2 7q15 7 30 9q31 4 43.5 -10t12.5 -38t-9 -54t-21.5 -59t-25 -53t-19.5 -36
q-26 -43 -56.5 -84t-62.5 -73t-62 -51.5t-54 -19.5q-11 0 -23 6.5t-16 15.5z" />
    <glyph glyph-name="ampersand" unicode="&#x26;" horiz-adv-x="892" 
d="M532 -78q-38 0 -64.5 13.5t-45.5 37.5q-27 -18 -58.5 -29.5t-63.5 -11.5q-34 0 -58.5 11.5t-39.5 30.5q-22 27 -21.5 62t15.5 64q15 33 40 57t55 42t63.5 30.5t65.5 22.5q14 43 43 84.5t69 64.5q24 14 46.5 17.5t35.5 -3.5t12.5 -23.5t-21.5 -41.5q-19 -24 -58.5 -51
t-99.5 -48l-4 -12t-4 -11q21 -2 40.5 -9t39.5 -16q15 -6 29.5 -11.5t28 -7.5t26 0.5t23.5 12.5q3 4 7 0.5t0 -6.5q-13 -17 -28 -22.5t-31.5 -4t-34 8.5t-34.5 16q9 -22 9.5 -44t-4.5 -43q-7 -32 -25.5 -62.5t-45.5 -53.5q13 -25 36.5 -40t58.5 -15q16 0 30.5 3.5t28.5 14.5
q15 12 23.5 30t8 34.5t-10 28t-29.5 10.5q-11 -1 -21 -8t-16 -18q-2 -5 -6.5 -3t-1.5 6q6 14 18 23t26 9q23 2 35.5 -11t14 -32.5t-7 -40.5t-27.5 -36q-15 -11 -32 -15t-35 -4zM435 217q-8 -23 -12.5 -45.5t-6.5 -45.5q-3 -32 0.5 -67t17.5 -64q26 22 43 51t24 59
q5 22 3 45.5t-14 44.5q-14 7 -28 13.5t-27 8.5zM408 217q-13 -2 -23 -13t-17 -36q-1 -5 -6.5 -3.5t-4.5 6.5q7 26 22 41q6 8 14 11t18 5q1 3 2.5 6t2.5 6q-29 -9 -58 -22t-55.5 -31t-48.5 -41t-35 -51q-11 -28 -11.5 -60.5t17.5 -56.5q13 -17 32 -26.5t43 -9.5q32 0 61 10.5
t55 28.5q-20 32 -25 71t-2 75q5 47 19 90zM541 390q-26 -17 -50 -51.5t-41 -77.5q56 22 93 47.5t55 48.5q18 22 18.5 34.5t-10.5 16.5t-29 -0.5t-36 -17.5z" />
    <glyph glyph-name="dollar" unicode="$" horiz-adv-x="450" 
d="M357 403q3 5 8 2t1 -7q-8 -14 -18.5 -30t-21.5 -34q11 -4 18.5 -10.5t11.5 -18.5q3 -12 2 -27.5t-6.5 -29t-15.5 -22.5t-25 -9q-5 0 -5 4.5t5 4.5q11 0 19 8t12.5 20t5.5 25t-2 23q-8 20 -25 22q-17 -26 -34.5 -54.5t-35.5 -56.5q-2 -12 -5 -26v-18q-5 -38 -14.5 -65
t-21.5 -46q-15 -25 -37 -38t-48 -18q-2 -1 -5 -1q-12 -17 -20 -30t-12 -20q-2 -4 -7 -2t-2 6l28 46q-25 3 -38 23q-12 16 -12.5 33.5t8 33t24 27t34.5 16.5q5 2 6 -3.5t-4 -6.5q-15 -4 -28.5 -14t-21 -23.5t-8.5 -28.5t10 -30q6 -7 15.5 -11.5t21.5 -4.5q21 35 49.5 79.5
t59.5 95.5q2 25 5.5 49t10 43.5t17 33.5t28.5 20q15 5 32 3q11 19 22 36t19 31zM220 162l-94 -149q20 4 34.5 17t25.5 29q12 19 20.5 44.5t13.5 58.5zM254 238q14 22 27 42.5t26 42.5q-6 -1 -11 -5q-19 -10 -28 -31t-14 -49z" />
    <glyph glyph-name="asterisk" unicode="*" horiz-adv-x="402" 
d="M174 -34q0 -3 -3 -3t-4 2q0 8 -1 21t-2 22q-6 -11 -11 -18.5t-8 -14.5q-1 -2 -2 -2.5t-1 0.5h-4q-4 4 -3 13q2 3 4.5 6.5t5.5 8.5q2 5 6 11l8 12q-12 0 -23.5 -0.5t-25.5 -0.5q-3 0 -3.5 2.5t3.5 2.5q21 3 46 6q-3 4 -6 8.5t-5 8.5q-3 5 -5.5 9t-4.5 8q-2 10 3 12
q4 4 7 -1q6 -13 19 -31v14q0 11 3 19q0 9 7 9q5 0 5 -4q-3 -17 -3 -39q7 9 14 17.5t12 15.5q2 2 5 0t1 -4q-7 -11 -13.5 -20.5t-13.5 -20.5h26q15 0 20 -1q9 -3 7.5 -7.5t-3.5 -4.5q-11 1 -23.5 1.5t-28.5 0.5h-1q7 -12 14.5 -23.5t15.5 -22.5q2 -2 -1 -4t-5 1
q-5 7 -12 14.5t-15 18.5q0 -11 -0.5 -21t-0.5 -21z" />
    <glyph glyph-name="numbersign" unicode="#" horiz-adv-x="463" 
d="M169 107q3 4 7 1t1 -8q-11 -15 -21 -33q32 2 65 0q9 12 17.5 22t16.5 18q3 4 7 1t1 -8q-6 -8 -11.5 -16t-11.5 -18h31q5 0 5 -4.5t-5 -3.5h-38q-8 -15 -16.5 -28t-16.5 -27h42q5 0 5 -5t-5 -5h-48q-9 -13 -15.5 -24.5t-11.5 -20.5q-2 -4 -9 -1t-2 17q5 17 13 29h-60
q-8 -13 -15 -24.5t-12 -20.5q-2 -4 -9.5 -1t-3.5 17q3 8 7 15l8 14q-11 0 -21 -2q-5 0 -5.5 4.5t4.5 5.5q5 0 12.5 0.5t16.5 1.5q8 14 18 27t21 28q-12 0 -22 -1t-18 -2q-5 -1 -5.5 4t4.5 5q10 2 22 2t26 1q10 12 18.5 22t13.5 18zM175 3q9 14 18.5 27t20.5 28h-64
q-10 -15 -18 -28t-17 -27h60z" />
    <glyph glyph-name="at" unicode="@" horiz-adv-x="446" 
d="M252 8q8 15 12 36t-1 39q-7 17 -21.5 24t-32.5 7q-23 -1 -41.5 -10.5t-31.5 -24.5q-17 -20 -23 -47t2 -51q8 -23 26.5 -34t40.5 -13q14 0 28.5 2.5t28.5 8.5q26 10 43 31q2 2 4.5 0t0.5 -5q-9 -11 -21 -19t-26 -15q-14 -5 -29 -7t-29 -2q-26 1 -49 13t-34 38t-4 53.5
t24 48.5q15 17 37.5 27.5t52.5 10.5q20 0 36.5 -7t24.5 -27q6 -19 2 -40t-12 -37q-11 -23 -26.5 -32.5t-27.5 -8.5q-15 2 -23 13.5t-6 27.5q0 4 1 6q-1 0 -2 -1q-8 -8 -21 -6q-5 1 -9.5 4t-6.5 11q-4 13 5.5 27.5t20.5 20.5q8 4 17 4t17 -6q4 -2 8 -9q3 3 6.5 5t5.5 4t4 -1
t0 -5q-8 -10 -16.5 -22t-13.5 -24q-11 -38 15 -43q9 -1 21.5 8t22.5 27zM183 27q3 8 8 14.5t10 12.5q-3 6 -6 8q-11 9 -21 0q-8 -6 -14.5 -18.5t-6.5 -21.5q0 -8 5 -8q3 -2 7.5 0.5t8.5 4.5q2 4 9 8z" />
    <glyph glyph-name="exclam" unicode="!" horiz-adv-x="403" 
d="M339 299q3 5 8 2t1 -7q-5 -7 -19.5 -30.5t-36 -58t-47.5 -77t-54 -86.5q-20 -33 -40 -64.5t-38 -60.5q-2 -4 -7 -2.5t-5 8.5t10.5 27t28 48t39.5 62t45 68t44.5 66t38.5 56q14 20 22 32.5t10 16.5zM63 -161q-3 9 4 19q7 12 15 12q4 1 8 -2q1 -1 5 -6q3 -5 -5 -18
q-7 -13 -16 -10q-4 -1 -8 1q0 2 -1.5 2.5t-1.5 1.5z" />
    <glyph glyph-name="question" unicode="?" horiz-adv-x="426" 
d="M190 1q-27 -16 -50 -40q-11 -10 -21.5 -21.5t-19.5 -23.5q-3 -4 -7 -1t-2 8q9 12 20 23.5t22 22.5q12 11 24 20.5t26 18.5q12 9 34.5 24.5t47 36t47 44.5t33.5 50q11 24 10 43.5t-11 34t-28.5 22.5t-43.5 9t-49.5 -5.5t-46 -18.5t-39.5 -30t-30 -40q-4 -7 -7.5 -17.5
t-5 -21.5t1.5 -20.5t13 -15.5q7 -3 18 -3q4 0 4 -4.5t-4 -4.5q-6 0 -11.5 1t-10.5 3q-12 6 -16.5 17t-3.5 24t4.5 25.5t8.5 21.5q26 49 73 74t101 27q28 1 52 -7.5t38.5 -25t17 -39.5t-10.5 -52q-13 -27 -37.5 -52t-51.5 -46t-51.5 -36.5t-37.5 -24.5zM44 -161q-3 9 4 19
q7 12 15 12q4 1 8 -2q1 -1 5 -6q3 -5 -5 -18q-7 -13 -16 -10q-4 -1 -8 1q0 2 -1.5 2.5t-1.5 1.5z" />
    <glyph glyph-name="slash" unicode="/" horiz-adv-x="484" 
d="M415 299q3 5 7 2t2 -7q-4 -7 -19 -31t-36.5 -58.5t-47.5 -76.5t-53 -87q-27 -42 -53 -83.5t-48 -76.5t-38.5 -61t-23.5 -38q-2 -4 -6.5 -2t-4.5 8q0 7 14 33t37 63.5t52.5 83t59.5 92t59.5 90.5t51.5 77q19 29 31.5 48t15.5 24z" />
    <glyph glyph-name="backslash" unicode="\" horiz-adv-x="556" 
d="M106 299q3 -5 15.5 -24t31.5 -48q22 -34 51.5 -77.5t59.5 -90t59.5 -92t52.5 -83t37 -63.5t14 -33q0 -6 -4.5 -8t-6.5 2q-8 12 -24 38t-38 61t-48 76.5t-53 83.5q-27 45 -53 87t-47.5 76.5t-36.5 58.5t-19 31q-2 4 2 7t7 -2z" />
    <glyph glyph-name="bar" unicode="|" horiz-adv-x="248" 
d="M104 300q0 5 5 5t5 -4q0 -8 0.5 -36t0.5 -69t0.5 -91t1.5 -102v-99v-90.5v-72v-44.5q0 -4 -5 -4.5t-8 4.5q-4 6 -6 35t-2.5 73.5t0 98.5t1.5 109.5t2.5 108t2.5 92.5q1 35 1.5 57.5t0.5 28.5z" />
    <glyph glyph-name="percent" unicode="%" horiz-adv-x="438" 
d="M118 -4q14 -2 29 12.5t25 34.5q5 9 10.5 26t0.5 25q-2 1 -3 2l-3 3q-9 0 -17 -5t-15.5 -12.5t-13 -16t-8.5 -14.5q-2 -3 -6 -11.5t-6.5 -17.5t-1.5 -17t9 -9zM316 145q-15 -24 -31 -51t-33 -55q-26 -40 -51 -79t-46 -73t-37 -60t-25 -39q-2 -4 -6.5 -1.5t-2.5 6.5
q10 16 27 42.5t38 60.5t45.5 72.5t48.5 77.5l39 61q-4 -2 -7 -4l-6 -4q-17 -10 -35 -14t-39 4q0 -13 -4 -26.5t-10 -24.5q-12 -23 -30 -38.5t-35 -12.5q-15 2 -21.5 10t-7 18.5t3 22t9.5 21.5q12 19 34 36t45 12q8 0 12 -7q19 -8 37 -6t36 13q14 9 26 21t18 22l9 14q4 8 7 4
t1 -8q0 -3 -9 -15zM308 -40q-8 1 -16.5 -4t-15.5 -12.5t-13 -16t-9 -14.5q-5 -9 -9.5 -21t-4.5 -22q0 -8 9 -10q14 -3 29.5 10.5t25.5 33.5q3 10 8 21.5t4 22.5q0 9 -8 12zM247 -151q-22 4 -27 23q-3 12 1 25t10 24q6 9 14.5 19t19 17.5t22 11t22.5 1.5q16 -4 16 -22
q1 -11 -3.5 -24t-9.5 -24q-11 -22 -29.5 -38t-35.5 -13z" />
    <glyph glyph-name="period" unicode="." horiz-adv-x="259" 
d="M103 -65q-6 6 -3 19t10 17q4 2 8 1q2 -1 7 -4q5 -5 2 -19q-3 -15 -12 -15q-3 -2 -8 -2q-1 2 -2.5 2t-1.5 1z" />
    <glyph glyph-name="comma" unicode="," horiz-adv-x="137" 
d="M25 -68q-5 -1 -5.5 3.5t5.5 5.5q8 2 8 12.5t-2 16.5q-1 0 -1 3q2 5 12.5 5.5t10.5 -7.5q4 -12 -3 -25q-5 -6 -11 -9t-14 -5z" />
    <glyph glyph-name="colon" unicode=":" horiz-adv-x="285" 
d="M103 -65q-6 6 -3 19t10 17q4 2 8 1q2 -1 7 -4q5 -5 2 -19q-3 -15 -12 -15q-3 -2 -8 -2q-1 2 -2.5 2t-1.5 1zM103 11q-6 6 -3 19t10 17q4 2 8 1q2 -1 7 -4q5 -5 2 -19q-3 -15 -12 -15q-3 -2 -8 -2q-1 2 -2.5 2t-1.5 1z" />
    <glyph glyph-name="semicolon" unicode=";" horiz-adv-x="282" 
d="M103 11q-6 6 -3 19t10 17q4 2 8 1q2 -1 7 -4q5 -5 2 -19q-3 -15 -12 -15q-3 -2 -8 -2q-1 2 -2.5 2t-1.5 1zM94 -68q-5 -1 -5.5 3.5t5.5 5.5q8 2 8 12.5t-2 16.5q-1 0 -1 3q2 5 12.5 5.5t10.5 -7.5q4 -12 -3 -25q-5 -6 -11 -9t-14 -5z" />
    <glyph glyph-name="plus" unicode="+" horiz-adv-x="532" 
d="M233 204q3 4 7 1t1 -8q-8 -12 -15.5 -25.5t-17.5 -26.5q21 0 39.5 0.5t32.5 1.5q3 0 4.5 -2t1 -5.5t-3.5 -7t-10 -5.5q-16 -3 -37.5 -3t-39.5 1q-12 -19 -24.5 -39t-22.5 -41q-2 -3 -5 -3t-6 2t-4 6t1 11q6 17 18 35t22 31q-21 2 -41 4t-36 4q-4 1 -3.5 6.5t4.5 5.5
q23 -1 45.5 -1.5t45.5 -0.5q11 17 23.5 32.5t20.5 26.5z" />
    <glyph glyph-name="hyphen" unicode="-" horiz-adv-x="504" 
d="M97 135q-5 1 -4.5 6.5t5.5 5.5q44 -2 90 -2.5t89 2.5q3 0 5 -2t2 -5.5t-3.5 -7t-10.5 -5.5q-15 -3 -38 -3t-48 1.5t-48.5 4.5t-38.5 5z" />
    <glyph glyph-name="equal" unicode="=" horiz-adv-x="508" 
d="M98 136q-5 1 -4.5 6t5.5 5q44 -2 89.5 -3t89.5 3q5 0 6.5 -7.5t-14.5 -11.5q-14 -4 -37.5 -4t-48.5 2t-48 5t-38 5zM92 69q-5 1 -4 5t6 4q43 -1 88.5 -2t89.5 3q5 1 6.5 -6t-14.5 -12q-14 -4 -37 -4t-48 2t-48.5 5t-38.5 5z" />
    <glyph glyph-name="agrave" unicode="&#xe0;" horiz-adv-x="239" 
d="M69 175q14 -13 20 -30q2 -5 -0.5 -7t-6.5 1l-10 10t-19 12q-2 1 -2 5.5t2 8.5t6 5t10 -5zM75 59q0 14 -9 20q-14 11 -31 -1q-11 -9 -20.5 -26.5t-8.5 -31.5q0 -10 7 -11q6 -1 13.5 3.5t16 12t16.5 16.5zM119 79q-8 -10 -22 -30t-22 -41q-9 -24 -4.5 -34t16 -11t27 5.5
t29.5 16.5q13 8 25.5 18.5t23.5 21.5q13 11 24.5 23t22.5 24q3 4 6.5 0.5t0.5 -7.5q-23 -24 -47 -47q-11 -11 -24 -21.5t-26 -19.5q-11 -8 -27.5 -15t-32 -7.5t-27 7t-12.5 29.5q-1 14 7 34q-11 -12 -23 -19.5t-23 -5.5q-12 1 -18.5 7t-9.5 14q-5 18 6.5 37t26.5 28
q12 8 28.5 9t27.5 -8q8 -6 12 -18q16 19 29 18.5t6 -8.5z" />
    <glyph glyph-name="aacute" unicode="&#xe1;" horiz-adv-x="239" 
d="M96 175q6 6 10 5t6 -5t1.5 -8.5t-1.5 -5.5q-15 -8 -19 -12l-10 -10q-4 -3 -6.5 -1t-0.5 7q6 17 20 30zM75 59q0 14 -9 20q-14 11 -31 -1q-11 -9 -20.5 -26.5t-8.5 -31.5q0 -10 7 -11q6 -1 13.5 3.5t16 12t16.5 16.5zM119 79q-8 -10 -22 -30t-22 -41q-9 -24 -4.5 -34
t16 -11t27 5.5t29.5 16.5q13 8 25.5 18.5t23.5 21.5q13 11 24.5 23t22.5 24q3 4 6.5 0.5t0.5 -7.5q-23 -24 -47 -47q-11 -11 -24 -21.5t-26 -19.5q-11 -8 -27.5 -15t-32 -7.5t-27 7t-12.5 29.5q-1 14 7 34q-11 -12 -23 -19.5t-23 -5.5q-12 1 -18.5 7t-9.5 14q-5 18 6.5 37
t26.5 28q12 8 28.5 9t27.5 -8q8 -6 12 -18q16 19 29 18.5t6 -8.5z" />
    <glyph glyph-name="acircumflex" unicode="&#xe2;" horiz-adv-x="239" 
d="M118 145q-1 -5 -4 -6t-5 4q-3 7 -3 11.5t-7 14.5q-12 -1 -18 -2.5l-14 -3.5q-5 -2 -6 1.5t2 6.5q8 8 20.5 15t22.5 4q9 -9 11 -21t1 -24zM75 59q0 14 -9 20q-14 11 -31 -1q-11 -9 -20.5 -26.5t-8.5 -31.5q0 -10 7 -11q6 -1 13.5 3.5t16 12t16.5 16.5zM119 79
q-8 -10 -22 -30t-22 -41q-9 -24 -4.5 -34t16 -11t27 5.5t29.5 16.5q13 8 25.5 18.5t23.5 21.5q13 11 24.5 23t22.5 24q3 4 6.5 0.5t0.5 -7.5q-23 -24 -47 -47q-11 -11 -24 -21.5t-26 -19.5q-11 -8 -27.5 -15t-32 -7.5t-27 7t-12.5 29.5q-1 14 7 34q-11 -12 -23 -19.5
t-23 -5.5q-12 1 -18.5 7t-9.5 14q-5 18 6.5 37t26.5 28q12 8 28.5 9t27.5 -8q8 -6 12 -18q16 19 29 18.5t6 -8.5z" />
    <glyph glyph-name="atilde" unicode="&#xe3;" horiz-adv-x="239" 
d="M40 143q-1 2 -1 4.5t2 0.5q8 -7 20 -4t24 7t22 5.5t14 -8.5q2 -5 0.5 -9.5t-3.5 0.5q-3 9 -14 8t-24 -4.5t-24.5 -5.5t-15.5 6zM75 59q0 14 -9 20q-14 11 -31 -1q-11 -9 -20.5 -26.5t-8.5 -31.5q0 -10 7 -11q6 -1 13.5 3.5t16 12t16.5 16.5zM119 79q-8 -10 -22 -30
t-22 -41q-9 -24 -4.5 -34t16 -11t27 5.5t29.5 16.5q13 8 25.5 18.5t23.5 21.5q13 11 24.5 23t22.5 24q3 4 6.5 0.5t0.5 -7.5q-23 -24 -47 -47q-11 -11 -24 -21.5t-26 -19.5q-11 -8 -27.5 -15t-32 -7.5t-27 7t-12.5 29.5q-1 14 7 34q-11 -12 -23 -19.5t-23 -5.5
q-12 1 -18.5 7t-9.5 14q-5 18 6.5 37t26.5 28q12 8 28.5 9t27.5 -8q8 -6 12 -18q16 19 29 18.5t6 -8.5z" />
    <glyph glyph-name="adieresis" unicode="&#xe4;" horiz-adv-x="239" 
d="M61 163q5 0 8 -3.5t3 -7.5q0 -11 -11 -11t-11 11q0 5 3.5 8t7.5 3zM97 163q5 0 8 -3.5t3 -7.5q0 -11 -11 -11t-11 11q0 5 3.5 8t7.5 3zM75 59q0 14 -9 20q-14 11 -31 -1q-11 -9 -20.5 -26.5t-8.5 -31.5q0 -10 7 -11q6 -1 13.5 3.5t16 12t16.5 16.5zM119 79
q-8 -10 -22 -30t-22 -41q-9 -24 -4.5 -34t16 -11t27 5.5t29.5 16.5q13 8 25.5 18.5t23.5 21.5q13 11 24.5 23t22.5 24q3 4 6.5 0.5t0.5 -7.5q-23 -24 -47 -47q-11 -11 -24 -21.5t-26 -19.5q-11 -8 -27.5 -15t-32 -7.5t-27 7t-12.5 29.5q-1 14 7 34q-11 -12 -23 -19.5
t-23 -5.5q-12 1 -18.5 7t-9.5 14q-5 18 6.5 37t26.5 28q12 8 28.5 9t27.5 -8q8 -6 12 -18q16 19 29 18.5t6 -8.5z" />
    <glyph glyph-name="ae" unicode="&#xe6;" horiz-adv-x="240" 
d="M240 72q4 4 7.5 0.5t-0.5 -7.5q-12 -13 -27 -28t-31 -29.5t-33 -26.5t-33 -20q-14 -7 -26.5 -9.5t-22.5 0.5t-16.5 12.5t-7.5 26.5q-1 14 7 34q-11 -12 -23 -19.5t-23 -5.5q-12 1 -18.5 7t-9.5 14q-5 18 6.5 37t26.5 28q12 8 28.5 9t27.5 -8q8 -6 12 -18q10 11 18.5 16.5
t21.5 10.5q11 5 22 5.5t17.5 -3t7.5 -12t-8 -21.5q-8 -14 -28 -26.5t-52 -14.5q-6 -13 -10 -29q-2 -15 1 -23q6 -13 19.5 -12t30.5 11t36 25.5t35.5 31t28.5 28t16 16.5zM75 59q0 14 -9 20q-14 11 -31 -1q-11 -9 -20.5 -26.5t-8.5 -31.5q0 -10 7 -11q6 -1 13.5 3.5t16 12
t16.5 16.5zM132 86q-12 -8 -23.5 -21.5t-20.5 -30.5q26 3 42.5 14t24.5 22q6 9 5.5 14.5t-4.5 7.5t-10.5 0t-13.5 -6z" />
    <glyph glyph-name="egrave" unicode="&#xe8;" horiz-adv-x="151" 
d="M60 175q14 -13 20 -30q2 -5 -0.5 -7t-6.5 1l-10 10t-19 12q-2 1 -2 5.5t2 8.5t6 5t10 -5zM151 72q4 4 7.5 0.5t-0.5 -7.5q-12 -13 -27 -28t-31 -29.5t-33 -26.5t-33 -20q-17 -8 -39 -8t-32 20q-4 7 -4.5 14.5t0.5 15.5q3 16 12 32q11 20 27.5 36.5t36.5 24.5q11 5 22 5.5
t17.5 -3t7.5 -12t-8 -21.5q-8 -14 -28 -26.5t-52 -14.5q-6 -13 -10 -29q-2 -15 1 -23q3 -7 9 -9t13 -1t13.5 3.5t10.5 4.5q16 7 32.5 19.5t32 26.5t29.5 28.5t26 27.5zM43 86q-12 -8 -23.5 -21.5t-20.5 -30.5q26 3 42.5 14t24.5 22q6 9 5.5 14.5t-4.5 7.5t-10.5 0t-13.5 -6z
" />
    <glyph glyph-name="eacute" unicode="&#xe9;" horiz-adv-x="151" 
d="M87 175q6 6 10 5t6 -5t1.5 -8.5t-1.5 -5.5q-15 -8 -19 -12l-10 -10q-4 -3 -6.5 -1t-0.5 7q6 17 20 30zM151 72q4 4 7.5 0.5t-0.5 -7.5q-12 -13 -27 -28t-31 -29.5t-33 -26.5t-33 -20q-17 -8 -39 -8t-32 20q-4 7 -4.5 14.5t0.5 15.5q3 16 12 32q11 20 27.5 36.5t36.5 24.5
q11 5 22 5.5t17.5 -3t7.5 -12t-8 -21.5q-8 -14 -28 -26.5t-52 -14.5q-6 -13 -10 -29q-2 -15 1 -23q3 -7 9 -9t13 -1t13.5 3.5t10.5 4.5q16 7 32.5 19.5t32 26.5t29.5 28.5t26 27.5zM43 86q-12 -8 -23.5 -21.5t-20.5 -30.5q26 3 42.5 14t24.5 22q6 9 5.5 14.5t-4.5 7.5
t-10.5 0t-13.5 -6z" />
    <glyph glyph-name="ecircumflex" unicode="&#xea;" horiz-adv-x="151" 
d="M81 145q-1 -5 -4 -6t-5 4q-3 7 -3 11.5t-7 14.5q-12 -1 -18 -2.5l-14 -3.5q-5 -2 -6 1.5t2 6.5q8 8 20.5 15t22.5 4q9 -9 11 -21t1 -24zM151 72q4 4 7.5 0.5t-0.5 -7.5q-12 -13 -27 -28t-31 -29.5t-33 -26.5t-33 -20q-17 -8 -39 -8t-32 20q-4 7 -4.5 14.5t0.5 15.5
q3 16 12 32q11 20 27.5 36.5t36.5 24.5q11 5 22 5.5t17.5 -3t7.5 -12t-8 -21.5q-8 -14 -28 -26.5t-52 -14.5q-6 -13 -10 -29q-2 -15 1 -23q3 -7 9 -9t13 -1t13.5 3.5t10.5 4.5q16 7 32.5 19.5t32 26.5t29.5 28.5t26 27.5zM43 86q-12 -8 -23.5 -21.5t-20.5 -30.5
q26 3 42.5 14t24.5 22q6 9 5.5 14.5t-4.5 7.5t-10.5 0t-13.5 -6z" />
    <glyph glyph-name="edieresis" unicode="&#xeb;" horiz-adv-x="151" 
d="M28 168q5 0 8 -3.5t3 -7.5q0 -11 -11 -11t-11 11q0 5 3.5 8t7.5 3zM64 168q5 0 8 -3.5t3 -7.5q0 -11 -11 -11t-11 11q0 5 3.5 8t7.5 3zM151 72q4 4 7.5 0.5t-0.5 -7.5q-12 -13 -27 -28t-31 -29.5t-33 -26.5t-33 -20q-17 -8 -39 -8t-32 20q-4 7 -4.5 14.5t0.5 15.5
q3 16 12 32q11 20 27.5 36.5t36.5 24.5q11 5 22 5.5t17.5 -3t7.5 -12t-8 -21.5q-8 -14 -28 -26.5t-52 -14.5q-6 -13 -10 -29q-2 -15 1 -23q3 -7 9 -9t13 -1t13.5 3.5t10.5 4.5q16 7 32.5 19.5t32 26.5t29.5 28.5t26 27.5zM43 86q-12 -8 -23.5 -21.5t-20.5 -30.5
q26 3 42.5 14t24.5 22q6 9 5.5 14.5t-4.5 7.5t-10.5 0t-13.5 -6z" />
    <glyph glyph-name="igrave" unicode="&#xec;" horiz-adv-x="146" 
d="M22 87q4 0 5 -3t-1 -5q-8 -10 -22 -30.5t-22 -40.5q-5 -13 -5 -23q0 -11 5 -16.5t12.5 -6t16 1.5t15.5 6q18 8 37.5 23.5t36.5 31.5q12 11 23.5 23t22.5 24q4 4 7.5 0.5t-0.5 -7.5q-11 -12 -22.5 -24t-23.5 -23q-18 -17 -38 -32t-39 -25q-19 -9 -40.5 -6.5t-29.5 25.5
q-5 16 3 38q8 21 21 37q11 14 21.5 22.5t16.5 9.5zM19 175q14 -13 20 -30q2 -5 -0.5 -7t-6.5 1l-10 10t-19 12q-2 1 -2 5.5t2 8.5t6 5t10 -5z" />
    <glyph glyph-name="iacute" unicode="&#xed;" horiz-adv-x="146" 
d="M22 87q4 0 5 -3t-1 -5q-8 -10 -22 -30.5t-22 -40.5q-5 -13 -5 -23q0 -11 5 -16.5t12.5 -6t16 1.5t15.5 6q18 8 37.5 23.5t36.5 31.5q12 11 23.5 23t22.5 24q4 4 7.5 0.5t-0.5 -7.5q-11 -12 -22.5 -24t-23.5 -23q-18 -17 -38 -32t-39 -25q-19 -9 -40.5 -6.5t-29.5 25.5
q-5 16 3 38q8 21 21 37q11 14 21.5 22.5t16.5 9.5zM59 175q6 6 10 5t6 -5t1.5 -8.5t-1.5 -5.5q-15 -8 -19 -12l-10 -10q-4 -3 -6.5 -1t-0.5 7q6 17 20 30z" />
    <glyph glyph-name="icircumflex" unicode="&#xee;" horiz-adv-x="146" 
d="M22 87q4 0 5 -3t-1 -5q-8 -10 -22 -30.5t-22 -40.5q-5 -13 -5 -23q0 -11 5 -16.5t12.5 -6t16 1.5t15.5 6q18 8 37.5 23.5t36.5 31.5q12 11 23.5 23t22.5 24q4 4 7.5 0.5t-0.5 -7.5q-11 -12 -22.5 -24t-23.5 -23q-18 -17 -38 -32t-39 -25q-19 -9 -40.5 -6.5t-29.5 25.5
q-5 16 3 38q8 21 21 37q11 14 21.5 22.5t16.5 9.5zM74 145q-1 -5 -4 -6t-5 4q-3 7 -3 11.5t-7 14.5q-12 -1 -18 -2.5l-14 -3.5q-5 -2 -6 1.5t2 6.5q8 8 20.5 15t22.5 4q9 -9 11 -21t1 -24z" />
    <glyph glyph-name="idieresis" unicode="&#xef;" horiz-adv-x="146" 
d="M22 87q4 0 5 -3t-1 -5q-8 -10 -22 -30.5t-22 -40.5q-5 -13 -5 -23q0 -11 5 -16.5t12.5 -6t16 1.5t15.5 6q18 8 37.5 23.5t36.5 31.5q12 11 23.5 23t22.5 24q4 4 7.5 0.5t-0.5 -7.5q-11 -12 -22.5 -24t-23.5 -23q-18 -17 -38 -32t-39 -25q-19 -9 -40.5 -6.5t-29.5 25.5
q-5 16 3 38q8 21 21 37q11 14 21.5 22.5t16.5 9.5zM12 168q5 0 8 -3.5t3 -7.5q0 -11 -11 -11t-11 11q0 5 3.5 8t7.5 3zM48 168q5 0 8 -3.5t3 -7.5q0 -11 -11 -11t-11 11q0 5 3.5 8t7.5 3z" />
    <glyph glyph-name="ntilde" unicode="&#xf1;" horiz-adv-x="263" 
d="M40 149q-1 2 -1 4.5t2 0.5q8 -7 20 -4t24 7t22 5.5t14 -8.5q2 -5 0.5 -9.5t-3.5 0.5q-3 9 -14 8t-24 -4.5t-24.5 -5.5t-15.5 6zM-24 -49q-14 6 -20 21q-3 8 -2 18t5 21q4 10 9.5 20t11.5 19q11 16 23 26t18 11q4 0 5 -3t-1 -5q-8 -11 -23 -33t-23 -45q-4 -11 -5 -20.5
t3 -16.5q1 1 5 7q7 11 22.5 34t34.5 45.5t38.5 38t34.5 11.5q14 -4 16.5 -15t-1.5 -26q-2 -8 -5.5 -17.5t-6.5 -19.5q-6 -15 -9.5 -29.5t-1.5 -23t12 -9.5t32 11q30 17 60.5 46t54.5 55q4 4 7.5 0.5t-0.5 -7.5q-25 -26 -55.5 -55t-62.5 -46q-40 -23 -60 -5.5t-5 62.5
q2 7 5 13.5t5 12.5q7 17 11.5 29.5t-0.5 14.5q-12 2 -28 -12t-33 -34.5t-32 -42.5t-25 -37q-2 -2 -5.5 -9.5t-8.5 -4.5z" />
    <glyph glyph-name="ograve" unicode="&#xf2;" 
d="M42 175q14 -13 20 -30q2 -5 -0.5 -7t-6.5 1l-10 10t-19 12q-2 1 -2 5.5t2 8.5t6 5t10 -5zM51 68q4 -2 2.5 -6.5t-6.5 -2.5q-15 3 -30 -9q6 -14 21.5 -18t29.5 -4q5 10 8.5 20.5t1.5 21.5q-1 10 -6.5 16t-13 8t-16 0.5t-15.5 -7.5q-7 -7 -10 -16q19 7 34 -3zM7 40
q-14 -17 -20 -37q-3 -12 -3 -22q2 -16 13 -19q10 -2 19 4t16 13q17 15 31 39q-15 1 -30.5 5.5t-25.5 16.5zM-5 -48q-26 4 -31 28q-3 18 7 41t28 38q-2 10 2 19t12 15q9 8 21.5 11t23.5 0.5t19.5 -11t10.5 -22.5q2 -19 -9 -42l14 2t14 3q24 5 44.5 15.5t30.5 22.5
q4 4 7.5 0.5t0.5 -7.5q-11 -13 -33 -24t-48 -17q-16 -4 -35 -6q-14 -26 -35 -47q-9 -8 -20 -14.5t-24 -4.5z" />
    <glyph glyph-name="oacute" unicode="&#xf3;" 
d="M87 175q6 6 10 5t6 -5t1.5 -8.5t-1.5 -5.5q-15 -8 -19 -12l-10 -10q-4 -3 -6.5 -1t-0.5 7q6 17 20 30zM51 68q4 -2 2.5 -6.5t-6.5 -2.5q-15 3 -30 -9q6 -14 21.5 -18t29.5 -4q5 10 8.5 20.5t1.5 21.5q-1 10 -6.5 16t-13 8t-16 0.5t-15.5 -7.5q-7 -7 -10 -16q19 7 34 -3z
M7 40q-14 -17 -20 -37q-3 -12 -3 -22q2 -16 13 -19q10 -2 19 4t16 13q17 15 31 39q-15 1 -30.5 5.5t-25.5 16.5zM-5 -48q-26 4 -31 28q-3 18 7 41t28 38q-2 10 2 19t12 15q9 8 21.5 11t23.5 0.5t19.5 -11t10.5 -22.5q2 -19 -9 -42l14 2t14 3q24 5 44.5 15.5t30.5 22.5
q4 4 7.5 0.5t0.5 -7.5q-11 -13 -33 -24t-48 -17q-16 -4 -35 -6q-14 -26 -35 -47q-9 -8 -20 -14.5t-24 -4.5z" />
    <glyph glyph-name="ocircumflex" unicode="&#xf4;" 
d="M118 145q-1 -5 -4 -6t-5 4q-3 7 -3 11.5t-7 14.5q-12 -1 -18 -2.5l-14 -3.5q-5 -2 -6 1.5t2 6.5q8 8 20.5 15t22.5 4q9 -9 11 -21t1 -24zM51 68q4 -2 2.5 -6.5t-6.5 -2.5q-15 3 -30 -9q6 -14 21.5 -18t29.5 -4q5 10 8.5 20.5t1.5 21.5q-1 10 -6.5 16t-13 8t-16 0.5
t-15.5 -7.5q-7 -7 -10 -16q19 7 34 -3zM7 40q-14 -17 -20 -37q-3 -12 -3 -22q2 -16 13 -19q10 -2 19 4t16 13q17 15 31 39q-15 1 -30.5 5.5t-25.5 16.5zM-5 -48q-26 4 -31 28q-3 18 7 41t28 38q-2 10 2 19t12 15q9 8 21.5 11t23.5 0.5t19.5 -11t10.5 -22.5q2 -19 -9 -42
l14 2t14 3q24 5 44.5 15.5t30.5 22.5q4 4 7.5 0.5t0.5 -7.5q-11 -13 -33 -24t-48 -17q-16 -4 -35 -6q-14 -26 -35 -47q-9 -8 -20 -14.5t-24 -4.5z" />
    <glyph glyph-name="otilde" unicode="&#xf5;" 
d="M29 146q-1 2 -1 4.5t2 0.5q8 -7 20 -4t24 7t22 5.5t14 -8.5q2 -5 0.5 -9.5t-3.5 0.5q-3 9 -14 8t-24 -4.5t-24.5 -5.5t-15.5 6zM51 68q4 -2 2.5 -6.5t-6.5 -2.5q-15 3 -30 -9q6 -14 21.5 -18t29.5 -4q5 10 8.5 20.5t1.5 21.5q-1 10 -6.5 16t-13 8t-16 0.5t-15.5 -7.5
q-7 -7 -10 -16q19 7 34 -3zM7 40q-14 -17 -20 -37q-3 -12 -3 -22q2 -16 13 -19q10 -2 19 4t16 13q17 15 31 39q-15 1 -30.5 5.5t-25.5 16.5zM-5 -48q-26 4 -31 28q-3 18 7 41t28 38q-2 10 2 19t12 15q9 8 21.5 11t23.5 0.5t19.5 -11t10.5 -22.5q2 -19 -9 -42l14 2t14 3
q24 5 44.5 15.5t30.5 22.5q4 4 7.5 0.5t0.5 -7.5q-11 -13 -33 -24t-48 -17q-16 -4 -35 -6q-14 -26 -35 -47q-9 -8 -20 -14.5t-24 -4.5z" />
    <glyph glyph-name="odieresis" unicode="&#xf6;" 
d="M54 163q5 0 8 -3.5t3 -7.5q0 -11 -11 -11t-11 11q0 5 3.5 8t7.5 3zM90 163q5 0 8 -3.5t3 -7.5q0 -11 -11 -11t-11 11q0 5 3.5 8t7.5 3zM51 68q4 -2 2.5 -6.5t-6.5 -2.5q-15 3 -30 -9q6 -14 21.5 -18t29.5 -4q5 10 8.5 20.5t1.5 21.5q-1 10 -6.5 16t-13 8t-16 0.5
t-15.5 -7.5q-7 -7 -10 -16q19 7 34 -3zM7 40q-14 -17 -20 -37q-3 -12 -3 -22q2 -16 13 -19q10 -2 19 4t16 13q17 15 31 39q-15 1 -30.5 5.5t-25.5 16.5zM-5 -48q-26 4 -31 28q-3 18 7 41t28 38q-2 10 2 19t12 15q9 8 21.5 11t23.5 0.5t19.5 -11t10.5 -22.5q2 -19 -9 -42
l14 2t14 3q24 5 44.5 15.5t30.5 22.5q4 4 7.5 0.5t0.5 -7.5q-11 -13 -33 -24t-48 -17q-16 -4 -35 -6q-14 -26 -35 -47q-9 -8 -20 -14.5t-24 -4.5z" />
    <glyph glyph-name="oslash" unicode="&#xf8;" 
d="M100 147q3 5 7 2t2 -7q3 5 -7 -10t-26 -40t-35.5 -55t-35.5 -54.5t-25.5 -39.5t-5.5 -9q-2 -4 -6.5 -2t-4.5 8q0 4 13.5 23.5t34 48t44.5 64t45 71.5zM51 68q4 -2 2.5 -6.5t-6.5 -2.5q-15 3 -30 -9q6 -14 21.5 -18t29.5 -4q5 10 8.5 20.5t1.5 21.5q-1 10 -6.5 16t-13 8
t-16 0.5t-15.5 -7.5q-7 -7 -10 -16q19 7 34 -3zM7 40q-14 -17 -20 -37q-3 -12 -3 -22q2 -16 13 -19q10 -2 19 4t16 13q17 15 31 39q-15 1 -30.5 5.5t-25.5 16.5zM-5 -48q-26 4 -31 28q-3 18 7 41t28 38q-2 10 2 19t12 15q9 8 21.5 11t23.5 0.5t19.5 -11t10.5 -22.5
q2 -19 -9 -42l14 2t14 3q24 5 44.5 15.5t30.5 22.5q4 4 7.5 0.5t0.5 -7.5q-11 -13 -33 -24t-48 -17q-16 -4 -35 -6q-14 -26 -35 -47q-9 -8 -20 -14.5t-24 -4.5z" />
    <glyph glyph-name="ugrave" unicode="&#xf9;" horiz-adv-x="219" 
d="M44 175q14 -13 20 -30q2 -5 -0.5 -7t-6.5 1l-10 10t-19 12q-2 1 -2 5.5t2 8.5t6 5t10 -5zM99 79q-8 -10 -22 -30.5t-22 -40.5q-5 -15 -5 -24q0 -11 5 -15.5t12 -5.5t15 1t15 5q18 8 38 24t38 32q12 11 23.5 23t22.5 24q4 4 7.5 0.5t-0.5 -7.5q-11 -12 -22.5 -24
t-24.5 -23q-11 -11 -33 -29t-45 -29q-19 -8 -39.5 -5.5t-28.5 25.5q-4 11 -1 25q2 7 5 15q-7 -6 -15 -11.5t-16.5 -8t-17 -1t-14.5 10.5q-4 7 -4 16q1 5 2 9t3 8q5 11 12.5 19.5t14.5 10.5q4 1 6 -2t0 -6q-14 -18 -16 -37q-1 -4 -1 -11q2 -8 8.5 -7.5t14 5t14 10t8.5 7.5
q9 9 18 20t17 20q14 17 23.5 14.5t4.5 -7.5z" />
    <glyph glyph-name="uacute" unicode="&#xfa;" horiz-adv-x="219" 
d="M71 175q6 6 10 5t6 -5t1.5 -8.5t-1.5 -5.5q-15 -8 -19 -12l-10 -10q-4 -3 -6.5 -1t-0.5 7q6 17 20 30zM99 79q-8 -10 -22 -30.5t-22 -40.5q-5 -15 -5 -24q0 -11 5 -15.5t12 -5.5t15 1t15 5q18 8 38 24t38 32q12 11 23.5 23t22.5 24q4 4 7.5 0.5t-0.5 -7.5
q-11 -12 -22.5 -24t-24.5 -23q-11 -11 -33 -29t-45 -29q-19 -8 -39.5 -5.5t-28.5 25.5q-4 11 -1 25q2 7 5 15q-7 -6 -15 -11.5t-16.5 -8t-17 -1t-14.5 10.5q-4 7 -4 16q1 5 2 9t3 8q5 11 12.5 19.5t14.5 10.5q4 1 6 -2t0 -6q-14 -18 -16 -37q-1 -4 -1 -11q2 -8 8.5 -7.5
t14 5t14 10t8.5 7.5q9 9 18 20t17 20q14 17 23.5 14.5t4.5 -7.5z" />
    <glyph glyph-name="ucircumflex" unicode="&#xfb;" horiz-adv-x="219" 
d="M80 145q-1 -5 -4 -6t-5 4q-3 7 -3 11.5t-7 14.5q-12 -1 -18 -2.5l-14 -3.5q-5 -2 -6 1.5t2 6.5q8 8 20.5 15t22.5 4q9 -9 11 -21t1 -24zM99 79q-8 -10 -22 -30.5t-22 -40.5q-5 -15 -5 -24q0 -11 5 -15.5t12 -5.5t15 1t15 5q18 8 38 24t38 32q12 11 23.5 23t22.5 24
q4 4 7.5 0.5t-0.5 -7.5q-11 -12 -22.5 -24t-24.5 -23q-11 -11 -33 -29t-45 -29q-19 -8 -39.5 -5.5t-28.5 25.5q-4 11 -1 25q2 7 5 15q-7 -6 -15 -11.5t-16.5 -8t-17 -1t-14.5 10.5q-4 7 -4 16q1 5 2 9t3 8q5 11 12.5 19.5t14.5 10.5q4 1 6 -2t0 -6q-14 -18 -16 -37
q-1 -4 -1 -11q2 -8 8.5 -7.5t14 5t14 10t8.5 7.5q9 9 18 20t17 20q14 17 23.5 14.5t4.5 -7.5z" />
    <glyph glyph-name="udieresis" unicode="&#xfc;" horiz-adv-x="219" 
d="M40 163q5 0 8 -3.5t3 -7.5q0 -11 -11 -11t-11 11q0 5 3.5 8t7.5 3zM76 163q5 0 8 -3.5t3 -7.5q0 -11 -11 -11t-11 11q0 5 3.5 8t7.5 3zM99 79q-8 -10 -22 -30.5t-22 -40.5q-5 -15 -5 -24q0 -11 5 -15.5t12 -5.5t15 1t15 5q18 8 38 24t38 32q12 11 23.5 23t22.5 24
q4 4 7.5 0.5t-0.5 -7.5q-11 -12 -22.5 -24t-24.5 -23q-11 -11 -33 -29t-45 -29q-19 -8 -39.5 -5.5t-28.5 25.5q-4 11 -1 25q2 7 5 15q-7 -6 -15 -11.5t-16.5 -8t-17 -1t-14.5 10.5q-4 7 -4 16q1 5 2 9t3 8q5 11 12.5 19.5t14.5 10.5q4 1 6 -2t0 -6q-14 -18 -16 -37
q-1 -4 -1 -11q2 -8 8.5 -7.5t14 5t14 10t8.5 7.5q9 9 18 20t17 20q14 17 23.5 14.5t4.5 -7.5z" />
    <glyph glyph-name="yacute" unicode="&#xfd;" horiz-adv-x="218" 
d="M71 175q6 6 10 5t6 -5t1.5 -8.5t-1.5 -5.5q-15 -8 -19 -12l-10 -10q-4 -3 -6.5 -1t-0.5 7q6 17 20 30zM113 99q-14 -17 -29.5 -39.5t-32.5 -47.5q-8 -12 -16 -23.5t-16 -23.5q55 9 106 31.5t93 75.5q3 4 6.5 0.5t0.5 -7.5q-45 -57 -99.5 -80t-113.5 -31
q-24 -34 -50.5 -66.5t-55 -57.5t-60 -40.5t-65.5 -15.5q-21 0 -40 7.5t-31 20.5t-15.5 31.5t5.5 39.5q8 17 26.5 32.5t47.5 25.5q53 17 108 20.5t110 10.5q11 14 20.5 27.5t20.5 27.5q-8 -6 -11 -9q-11 -7 -25.5 -8.5t-23.5 10.5q-5 7 -3.5 17t6 19.5t11.5 17t14 9.5
q4 1 6 -2t0 -6q-7 -8 -13 -22.5t-4 -25.5q1 -5 4.5 -6.5t7 -1t7.5 2.5t7 4q8 6 19.5 17t24 24.5t25 26.5t21.5 22q3 3 6.5 0t0.5 -7zM-219 -216q25 0 50.5 14t51.5 37.5t51.5 53.5t49.5 62q-52 -5 -104.5 -9t-102.5 -20q-27 -9 -43.5 -23t-24.5 -30q-8 -19 -5 -34.5t14 -27
t28 -17.5t35 -6z" />
    <glyph glyph-name="ydieresis" unicode="&#xff;" horiz-adv-x="218" 
d="M40 163q5 0 8 -3.5t3 -7.5q0 -11 -11 -11t-11 11q0 5 3.5 8t7.5 3zM76 163q5 0 8 -3.5t3 -7.5q0 -11 -11 -11t-11 11q0 5 3.5 8t7.5 3zM113 99q-14 -17 -29.5 -39.5t-32.5 -47.5q-8 -12 -16 -23.5t-16 -23.5q55 9 106 31.5t93 75.5q3 4 6.5 0.5t0.5 -7.5
q-45 -57 -99.5 -80t-113.5 -31q-24 -34 -50.5 -66.5t-55 -57.5t-60 -40.5t-65.5 -15.5q-21 0 -40 7.5t-31 20.5t-15.5 31.5t5.5 39.5q8 17 26.5 32.5t47.5 25.5q53 17 108 20.5t110 10.5q11 14 20.5 27.5t20.5 27.5q-8 -6 -11 -9q-11 -7 -25.5 -8.5t-23.5 10.5q-5 7 -3.5 17
t6 19.5t11.5 17t14 9.5q4 1 6 -2t0 -6q-7 -8 -13 -22.5t-4 -25.5q1 -5 4.5 -6.5t7 -1t7.5 2.5t7 4q8 6 19.5 17t24 24.5t25 26.5t21.5 22q3 3 6.5 0t0.5 -7zM-219 -216q25 0 50.5 14t51.5 37.5t51.5 53.5t49.5 62q-52 -5 -104.5 -9t-102.5 -20q-27 -9 -43.5 -23t-24.5 -30
q-8 -19 -5 -34.5t14 -27t28 -17.5t35 -6z" />
    <glyph glyph-name="Lslash" unicode="&#x141;" horiz-adv-x="785" 
d="M668 110q5 2 6 -3.5t-3 -6.5q6 2 -12 -1.5t-47 -10t-64 -14t-64 -13.5t-46 -10t-10 -2q-5 -1 -6.5 3t2.5 9q3 3 26.5 7t58 9.5t76.5 13.5t83 19zM912 442q5 1 5.5 -4t-4.5 -5q-19 -3 -41 -21t-47 -48t-53.5 -69t-59.5 -83t-64.5 -90t-69.5 -91t-74.5 -86.5t-78.5 -74.5
q34 -47 71 -98t80.5 -93t96 -68.5t117.5 -25.5q31 0 61 10t53.5 28t38 44.5t14.5 60.5q-1 11 -2.5 21.5t-5.5 21.5q-2 5 2.5 6.5t6.5 -3.5q8 -26 8 -46q1 -36 -14.5 -64t-40.5 -47.5t-56.5 -30t-64.5 -11.5q-67 -1 -120.5 26t-98 69.5t-82 93.5t-72.5 99q-49 -39 -101 -63.5
t-107 -27.5q-21 -1 -43.5 1.5t-43.5 10t-38 20.5t-26 34q-9 20 -8.5 42.5t6.5 45t16.5 43t22.5 37.5q25 37 61.5 71.5t81 61.5t95 42.5t103.5 15.5q35 0 56 -9.5t30 -25.5q12 -21 4 -52q-6 -28 -28 -61t-54 -64t-68 -53q18 -21 36 -45q69 62 132.5 143.5t121.5 160.5
q11 15 28 39t38 51t44.5 55t47 50.5t46 38t42.5 17.5zM209 -217q51 4 99.5 30t95.5 67q-9 13 -18 24.5t-19 21.5q-26 -14 -52 -22t-55 -4q-32 5 -47.5 22t-14.5 35t17 32.5t46 13.5q29 -1 54.5 -17.5t50.5 -42.5q32 22 62 53t50 63q20 31 26 58q7 25 -2 44q-7 12 -23 19
t-43 7q-52 0 -101.5 -15.5t-93 -41.5t-79 -59.5t-59.5 -69.5q-11 -16 -21 -36t-16.5 -41t-7 -42t8.5 -40q8 -19 24 -31t36 -19t41.5 -9t40.5 0zM358 -63q-24 26 -48 40.5t-50 15.5q-25 1 -38.5 -10.5t-14 -26t12.5 -28.5t40 -18q28 -4 51 4t47 23z" />
    <glyph glyph-name="lslash" unicode="&#x142;" horiz-adv-x="167" 
d="M233 222q5 2 6 -3.5t-3 -6.5q6 2 -12 -1.5t-47 -10t-64 -14t-64 -13.5t-46 -10t-10 -2q-5 -1 -6.5 3t2.5 9q3 3 26.5 7t58 9.5t76.5 13.5t83 19zM246 374q-25 -15 -51.5 -42.5t-51 -59.5t-45 -64.5t-34.5 -57.5q-11 -18 -19 -35t-16 -33q16 11 39.5 29.5t50.5 41.5
q24 20 48 42t46 44q21 22 44 51t32 58q5 16 3 24t-9 10.5t-17 0t-20 -8.5zM-17 -12q-2 19 4.5 46t20.5 59t33 66t42 67q36 53 77 96t78 61q13 6 26.5 9t23.5 -0.5t13.5 -14.5t-3.5 -32q-9 -29 -32.5 -59t-45.5 -53t-46.5 -45t-48.5 -42q-33 -29 -61.5 -50.5t-42.5 -30.5
q-12 -29 -17.5 -51t-3.5 -36q1 -11 8 -14t15.5 -2t17 5t14.5 7q16 9 33 23t33 28q12 11 23.5 23t22.5 24q4 4 7.5 0.5t-0.5 -7.5q-11 -12 -22.5 -24t-23.5 -23q-16 -14 -33 -28t-34 -24q-12 -7 -25 -10.5t-24 -2t-19 9.5t-10 25z" />
    <glyph glyph-name="Scaron" unicode="&#x160;" horiz-adv-x="833" 
d="M846 561q1 5 4 6t5 -4q3 -7 3 -11.5t7 -14.5q12 1 18 2.5l14 3.5q5 2 6 -1.5t-2 -6.5q-8 -8 -20.5 -15t-22.5 -4q-9 9 -11 21t-1 24zM370 -211q79 15 131.5 55t87.5 95t56.5 119t39.5 126q2 6 3.5 11.5t3.5 11.5q-27 -19 -53.5 -37.5t-52.5 -38.5q12 -29 8.5 -55.5
t-18.5 -49.5t-38.5 -43t-50 -36t-53.5 -27.5t-49 -18.5q-8 -2 -16.5 -4t-17.5 -4q-32 -48 -55 -108q19 -2 37 -0.5t37 4.5zM696 222q11 37 22.5 70.5t26.5 61.5t33.5 49t43.5 33q19 10 35 10.5t25 -8t9.5 -24.5t-10.5 -37q-19 -37 -60 -72.5t-95 -73.5l-4 -14t-4 -15
q-17 -65 -38 -133.5t-58.5 -128t-97.5 -103t-154 -58.5q-20 -3 -39 -4.5t-39 0.5q-16 -45 -24.5 -94.5t-8.5 -105.5q0 -5 -5 -5t-5 5q0 57 8.5 107t24.5 95q-28 4 -54 14.5t-47 27.5t-35.5 41t-18.5 54q-32 18 -52.5 45.5t-27.5 63.5q-9 49 8 96.5t51 87t80.5 69t96.5 42.5
t99 6.5t87 -37.5q26 -22 40 -53q10 -23 10 -51q19 -5 35.5 -15.5t27.5 -27.5q28 21 56.5 41.5t57.5 40.5zM286 -214q21 57 51 104h-1q-8 -2 -15 -2.5t-15 -1.5q-54 -5 -95.5 1t-72.5 21q5 -27 19 -48t34 -36.5t44.5 -25t50.5 -12.5zM344 -98q46 69 104 124.5t120 103.5
q-8 15 -20.5 25.5t-28.5 16.5q-3 -36 -24.5 -65t-52.5 -49.5t-67.5 -30t-70.5 -6.5q-32 3 -60.5 18t-47.5 42q-30 -32 -47.5 -74t-12.5 -87q30 -16 72.5 -23t96.5 -1q19 1 39 6zM572 120q-59 -45 -114 -97.5t-100 -117.5q17 3 28 7q30 9 67 28.5t67.5 47t47 61.5t4.5 71z
M730 246q50 35 87.5 68t55.5 67q9 18 9 31t-6.5 19.5t-19.5 6t-29 -9.5q-38 -21 -59.5 -70t-37.5 -112zM125 -74q-3 46 15.5 89t50.5 75q-19 32 -16 68q1 5 6 4.5t4 -5.5q-3 -31 13 -60q26 25 62.5 45.5t77 33t82.5 16.5t79 -4q-1 22 -11 44q-12 28 -37 48q-35 29 -80.5 34
t-92 -8t-90.5 -41.5t-76 -66.5t-48 -83t-7 -90q12 -63 68 -99zM203 88q17 -26 44.5 -40t57.5 -17q33 -3 67 6.5t62 29t46.5 47.5t18.5 64q-37 9 -78.5 5t-81.5 -17t-75.5 -33.5t-60.5 -44.5z" />
    <glyph glyph-name="scaron" unicode="&#x161;" horiz-adv-x="162" 
d="M71 230q1 5 4 6t5 -4q3 -7 2 -15t6 -18q12 1 19 6t15 7q5 2 6 -1.5t-2 -6.5q-8 -8 -20.5 -15t-22.5 -4q-9 9 -11 21t-1 24zM27 85q10 9 18.5 18.5t15.5 17.5q9 11 9.5 16t-3 5.5t-9.5 -3t-11 -9.5q-8 -8 -12.5 -19.5t-7.5 -25.5zM-20 -36q2 8 4 19.5t4 24.5q0 3 0.5 5.5
t0.5 5.5q-31 -11 -38 -36q-4 -13 -1 -23q4 -13 14 -13q8 0 11 5t5 12zM-9 30q5 31 14.5 61.5t32.5 47.5q12 9 22 11.5t15.5 -1t4.5 -12.5t-11 -22q-8 -11 -20.5 -23t-25.5 -23q-2 -8 -2.5 -16t-2.5 -16q10 2 19.5 2.5t20.5 2.5q29 4 57.5 9.5t46.5 20.5q4 3 7 -0.5t-1 -6.5
q-20 -17 -49 -23t-60 -10q-23 -2 -42 -6q-3 -17 -6.5 -33t-10.5 -29q-5 -10 -14 -18t-21 -9q-10 0 -16 6t-8 14q-5 12 0 28q5 19 18 29t32 16z" />
    <glyph glyph-name="Ydieresis" unicode="&#x178;" horiz-adv-x="833" 
d="M752 540q5 0 8 -3.5t3 -7.5q0 -11 -11 -11t-11 11q0 5 3.5 8t7.5 3zM788 540q5 0 8 -3.5t3 -7.5q0 -11 -11 -11t-11 11q0 5 3.5 8t7.5 3zM841 181q-34 -54 -75.5 -120t-90.5 -133.5t-104.5 -131.5t-117.5 -113.5t-129.5 -79.5t-139.5 -29q-19 0 -39 3.5t-38 11t-32 20.5
t-22 33q-8 21 -7 43t7 44t16.5 43t21.5 38q25 39 62.5 74.5t83.5 62.5t99 42t109 12q33 -2 50.5 -14.5t22.5 -32t-1.5 -43t-22.5 -46.5q-23 -33 -63 -65.5t-83 -55.5q-11 -6 -30 -15.5t-40 -17t-40.5 -9.5t-31.5 6q-4 3 -1.5 7t7.5 1q10 -7 28.5 -4t38.5 10t38 16t27 14
q42 23 81 55t61 64q14 21 20.5 41.5t2.5 37.5t-19.5 28t-45.5 13q-54 3 -105.5 -11.5t-96 -40.5t-81 -61.5t-61.5 -72.5q-11 -16 -20.5 -36t-16 -41t-7.5 -42t7 -40q7 -18 20 -30t29.5 -19t35 -10t36.5 -3q64 -1 125.5 28t119.5 77t111 109.5t99.5 125t86 124.5t69.5 108
q20 31 39.5 60.5t37.5 56.5q-38 -38 -82.5 -73.5t-90.5 -64.5q-50 -30 -97.5 -48.5t-88.5 -18.5q-12 0 -24.5 2t-21.5 7.5t-14 15.5t-2 27q4 25 21.5 57t39.5 66q12 20 23.5 39.5t20.5 38t14.5 35t5.5 29.5q-1 18 -16 29t-52 11q-48 0 -98.5 -9.5t-97 -29.5t-87.5 -50
t-69 -71q-10 -14 -18 -31.5t-12.5 -35.5t-4 -36.5t9.5 -35.5q9 -19 27.5 -32.5t47.5 -18.5q-6 37 6 78q7 24 19.5 48.5t29 46.5t37 39t44.5 28q15 7 35 10.5t39.5 1t36 -12t23.5 -28.5q9 -26 -1.5 -54.5t-24.5 -50.5q-16 -23 -38 -44.5t-48.5 -38.5t-57 -27t-61.5 -10
q-7 0 -13.5 0.5t-13.5 1.5q6 -20 19.5 -35.5t36.5 -23.5q5 -2 3.5 -7t-6.5 -3q-26 10 -41.5 28t-21.5 42q-33 6 -54 21t-32 36q-9 18 -10 38t3.5 39.5t13 38t19.5 34.5q29 42 70.5 72.5t89.5 51t99.5 30.5t100.5 10q50 -1 70 -16t21 -41q0 -16 -6 -35t-16 -39.5t-22.5 -42
t-25.5 -42.5q-20 -32 -35.5 -60.5t-19.5 -48.5q-2 -11 0.5 -17.5t8.5 -9.5t13.5 -4t15.5 -1q40 -1 86.5 17.5t95.5 47.5q60 38 117 87t101 99q37 51 69 81.5t59 34.5q5 0 5.5 -4.5t-4.5 -5.5q-14 -2 -32.5 -18t-38 -40.5t-40 -54t-38 -57t-31 -50.5t-20.5 -34zM353 309
q-24 -9 -44.5 -26t-37.5 -38.5t-29.5 -45.5t-19.5 -48q-6 -21 -8 -41t2 -37q6 -1 12.5 -1.5t13.5 -0.5q29 0 57 9.5t53 26t45.5 38t35.5 44.5q13 19 23 46t3 50q-5 16 -18 23.5t-28.5 9t-31.5 -1.5t-28 -7z" />
    <glyph glyph-name="Zcaron" unicode="&#x17d;" horiz-adv-x="833" 
d="M846 561q1 5 4 6t5 -4q3 -7 3 -11.5t7 -14.5q12 1 18 2.5l14 3.5q5 2 6 -1.5t-2 -6.5q-8 -8 -20.5 -15t-22.5 -4q-9 9 -11 21t-1 24zM904 371q43 36 94.5 59t117.5 23q67 0 97 -20t25 -43.5t-43 -43t-106 -19.5q-46 1 -89 8t-85 18q-23 -23 -45 -48t-44 -51
q-45 -55 -94.5 -106t-115.5 -81q33 -20 49 -53q12 -26 12.5 -54t-7 -56t-20.5 -54.5t-28 -48.5q-30 -44 -74.5 -85.5t-99.5 -73t-119.5 -50t-134.5 -18.5q-21 0 -43 2.5t-41.5 10t-35.5 21.5t-24 36q-8 21 -7 43.5t7 44.5t16.5 43t22.5 38q25 38 62 73.5t83 62t98.5 41
t108.5 11.5q33 -2 50.5 -14.5t23 -32t-1 -43t-22.5 -46.5q-23 -33 -63 -65.5t-83 -55.5q-11 -6 -30 -15.5t-40 -17t-41 -9.5t-32 6q-4 3 -1 7t7 1q10 -7 28.5 -4t38.5 10t38 16t27 14q42 23 81 55t62 64q14 21 20.5 41.5t2.5 37.5t-19.5 28t-45.5 13q-54 3 -105.5 -11
t-96 -40t-81 -61t-61.5 -72q-11 -16 -21 -36t-16 -41t-7 -42t6 -40q8 -21 23 -33.5t33.5 -19t39 -9t39.5 -2.5q64 0 123.5 19t112 51t95 73.5t72.5 85.5q13 20 26 45t20.5 52t8 54t-10.5 51q-12 28 -41 46q-51 -20 -109 -22q-33 -2 -47 7.5t-12.5 20.5t17.5 20.5t43 9.5
q33 -1 59.5 -6.5t47.5 -14.5q28 13 52.5 32t47.5 41.5t44.5 47t42.5 49.5q26 30 51 59t54 55q-21 6 -41.5 12t-41.5 13q-16 -23 -34.5 -41t-38.5 -32q-37 -26 -76.5 -37t-77.5 -13q-57 -2 -97 11t-62.5 33.5t-25 44.5t17 44.5t61.5 34t109 13.5q56 -1 111.5 -13t111.5 -29
q6 10 12 20.5t11 22.5q2 5 6.5 3t2.5 -7q-5 -11 -10.5 -21.5t-11.5 -20.5zM1116 443q-60 0 -105.5 -21.5t-83.5 -56.5q42 -12 82.5 -19.5t79.5 -8.5q61 0 97 16t41.5 36t-21 37t-90.5 17zM798 388q-56 17 -109 31t-105 14q-64 0 -104 -12t-58 -30.5t-15.5 -40t23.5 -39.5
t59.5 -29t91.5 -10q37 2 75 12.5t73 35.5q19 13 36.5 29.5t32.5 38.5zM492 87q-20 0 -34 -6.5t-16 -14t9 -13.5t40 -5q50 3 93 21q-36 16 -92 18z" />
    <glyph glyph-name="zcaron" unicode="&#x17e;" horiz-adv-x="199" 
d="M58 267q1 5 4 6t5 -4q3 -7 1.5 -15.5t5.5 -18.5q12 1 19.5 6.5t15.5 7.5q5 2 6 -1.5t-2 -6.5q-8 -8 -20.5 -15t-22.5 -4q-9 9 -11 21t-1 24zM6 65q-3 -4 -7 -1t0 7q6 7 11.5 13.5t11.5 14.5q-3 4 -5 15q0 10 3 19q5 15 13.5 21.5t15.5 5.5t9 -10t-5 -24q-2 -3 -4.5 -7
t-5.5 -9q-2 -2 -4 -5t-4 -5q5 -5 11 -13q11 -17 9 -35q-2 -9 -6 -18.5t-13 -18.5q-4 -5 -8 -7.5t-8 -6.5q10 -14 13 -26q46 12 88.5 34.5t77.5 62.5q3 4 7 0.5t1 -7.5q-36 -42 -80.5 -64.5t-90.5 -35.5q3 -20 -2 -39.5t-14 -36.5q-19 -33 -47 -58q-19 -17 -46.5 -31t-57 -20
t-58 -1t-49.5 28q-14 15 -15.5 33t7.5 35q11 21 30.5 34.5t43 21.5t48.5 12.5t46 8.5q23 4 47.5 8.5t49.5 10.5q-1 14 -11 28q-2 2 -1 4t3 3q2 2 4 3.5t4 3.5q9 10 16 25q8 17 6 32q-1 8 -3.5 12.5t-7.5 9.5q-5 -7 -11 -13.5t-12 -13.5zM-77 -184q41 27 69 69
q13 19 20.5 38.5t7.5 37.5q-25 -6 -49.5 -10.5t-47.5 -8.5q-20 -3 -44 -7.5t-46.5 -12t-41 -20t-28.5 -31.5q-8 -15 -6.5 -30t12.5 -27q15 -17 35 -23t41 -4t41.5 10t36.5 19zM29 107l6 9q2 4 4 7l4 6q6 12 6 17t-3.5 4.5t-8 -6t-7.5 -14.5q-3 -8 -3 -15q0 -2 2 -8z" />
    <glyph glyph-name="dotlessi" unicode="&#x131;" horiz-adv-x="146" 
d="M22 87q4 0 5 -3t-1 -5q-8 -10 -22 -30.5t-22 -40.5q-5 -13 -5 -23q0 -11 5 -16.5t12.5 -6t16 1.5t15.5 6q18 8 37.5 23.5t36.5 31.5q12 11 23.5 23t22.5 24q4 4 7.5 0.5t-0.5 -7.5q-11 -12 -22.5 -24t-23.5 -23q-18 -17 -38 -32t-39 -25q-19 -9 -40.5 -6.5t-29.5 25.5
q-5 16 3 38q8 21 21 37q11 14 21.5 22.5t16.5 9.5z" />
    <glyph glyph-name="thorn" unicode="&#xfe;" horiz-adv-x="227" 
d="M6 300q0 5 5 5t5 -4q0 -8 0.5 -33.5t0.5 -63v-83.5t1 -95q11 13 23 22.5t26 14.5q20 8 34 1t11 -30q-2 -8 -5 -15.5t-7 -15.5q29 8 60.5 23t66.5 46q3 3 6.5 -0.5t-0.5 -6.5q-39 -35 -74 -51t-67 -23q-14 -17 -32.5 -31t-41.5 -22v-79.5t0.5 -70.5t0.5 -55.5v-35.5
q0 -4 -5 -4.5t-8 4.5t-5 25.5t-3 52.5t-1 72.5v85.5q-20 -3 -32 7q-6 5 -7 12.5t3 13.5q5 8 13.5 13.5t23.5 8.5q1 62 2.5 121.5t3.5 104.5q1 35 1.5 57.5t0.5 28.5zM67 -3q7 10 14 22.5t9 23.5q3 13 -2.5 14t-15.5 -2q-17 -7 -30 -18.5t-23 -25.5v-20zM-30 -39q-5 -8 1 -13
q5 -5 12 -6t14 1q0 9 0.5 17.5t0.5 17.5q-22 -6 -28 -17zM59 -14l-40 -5q0 -8 -0.5 -15.5t-0.5 -15.5q11 7 21.5 16t19.5 20z" />
    <glyph glyph-name="Agrave" unicode="&#xc0;" horiz-adv-x="829" 
d="M1027 549q14 -13 20 -30q2 -5 -0.5 -7t-6.5 1l-10 10t-19 12q-2 1 -2 5.5t2 8.5t6 5t10 -5zM564 -411q2 -4 -1.5 -7t-6.5 1q-18 18 -24.5 44.5t-3 60t15.5 72.5t31 81q23 52 53.5 107t65.5 110q-20 5 -38.5 11t-38.5 12q-42 -52 -87.5 -101.5t-95 -89.5t-104 -67.5
t-114.5 -35.5q-38 -5 -73.5 -0.5t-61 20.5t-36 45t2.5 73q13 45 45.5 90.5t75 83.5t89.5 67t91 41q16 4 40 7.5t48.5 1.5t45.5 -12t30 -31q6 -14 5 -29.5t-6 -29.5q22 -2 43.5 -7t41.5 -10q5 6 10.5 12.5t10.5 12.5q20 23 44.5 53t52 60.5t58 59.5t63 51.5t66 36.5t67.5 14
q15 13 28.5 23t24.5 16q16 9 27 9.5t15.5 -4.5t1.5 -14t-15 -19q-11 -10 -29 -16.5t-39 -4.5q-29 -29 -64.5 -69t-73.5 -90q-60 -78 -118 -168q32 -7 57 -5.5t45 17.5q4 3 7 -1t-1 -7q-22 -18 -50.5 -19.5t-62.5 6.5q-17 -27 -33.5 -54t-31.5 -53q-33 -58 -58 -112.5
t-38.5 -101.5t-13.5 -83.5t17 -57.5zM699 67q10 14 19 27.5t19 27.5q49 69 98.5 129.5t92.5 105.5q15 16 30 30q-37 -4 -73.5 -26t-73 -56.5t-73.5 -78t-76 -91.5q-9 -11 -18.5 -22.5t-19.5 -23.5q19 -5 37.5 -11t37.5 -11zM214 -203q53 8 102.5 35.5t96 67.5t91 88.5
t86.5 99.5q-20 5 -40.5 10t-41.5 7q-5 -14 -13.5 -27t-18.5 -27q-20 -27 -46.5 -52.5t-55 -45t-57 -31t-50.5 -11.5q-24 0 -34 11t-10.5 27t6.5 33.5t16 30.5q17 24 45 46.5t66 37.5q33 14 67.5 18t69.5 1q5 13 7 27.5t-3 28.5q-7 18 -25.5 26t-40.5 9t-43.5 -2t-34.5 -7
q-43 -12 -89.5 -40.5t-88 -66t-73.5 -81.5t-45 -88q-12 -41 -2 -67.5t34 -41t57.5 -18t67.5 1.5zM1030 427q-20 -14 -37 -31q17 1 30 6.5t22 12.5q19 15 12 20.5t-27 -8.5zM267 -79q20 0 45.5 11t52 30.5t51.5 44t44 51.5q9 13 16.5 25t12.5 24q-34 2 -66 -2t-64 -17
q-37 -15 -63.5 -36.5t-42.5 -44.5q-7 -11 -13.5 -25.5t-7.5 -28t6.5 -23t28.5 -9.5z" />
    <glyph glyph-name="Aacute" unicode="&#xc1;" horiz-adv-x="829" 
d="M1059 552q6 6 10 5t6 -5t1.5 -8.5t-1.5 -5.5q-15 -8 -19 -12l-10 -10q-4 -3 -6.5 -1t-0.5 7q6 17 20 30zM564 -411q2 -4 -1.5 -7t-6.5 1q-18 18 -24.5 44.5t-3 60t15.5 72.5t31 81q23 52 53.5 107t65.5 110q-20 5 -38.5 11t-38.5 12q-42 -52 -87.5 -101.5t-95 -89.5
t-104 -67.5t-114.5 -35.5q-38 -5 -73.5 -0.5t-61 20.5t-36 45t2.5 73q13 45 45.5 90.5t75 83.5t89.5 67t91 41q16 4 40 7.5t48.5 1.5t45.5 -12t30 -31q6 -14 5 -29.5t-6 -29.5q22 -2 43.5 -7t41.5 -10q5 6 10.5 12.5t10.5 12.5q20 23 44.5 53t52 60.5t58 59.5t63 51.5
t66 36.5t67.5 14q15 13 28.5 23t24.5 16q16 9 27 9.5t15.5 -4.5t1.5 -14t-15 -19q-11 -10 -29 -16.5t-39 -4.5q-29 -29 -64.5 -69t-73.5 -90q-60 -78 -118 -168q32 -7 57 -5.5t45 17.5q4 3 7 -1t-1 -7q-22 -18 -50.5 -19.5t-62.5 6.5q-17 -27 -33.5 -54t-31.5 -53
q-33 -58 -58 -112.5t-38.5 -101.5t-13.5 -83.5t17 -57.5zM699 67q10 14 19 27.5t19 27.5q49 69 98.5 129.5t92.5 105.5q15 16 30 30q-37 -4 -73.5 -26t-73 -56.5t-73.5 -78t-76 -91.5q-9 -11 -18.5 -22.5t-19.5 -23.5q19 -5 37.5 -11t37.5 -11zM214 -203q53 8 102.5 35.5
t96 67.5t91 88.5t86.5 99.5q-20 5 -40.5 10t-41.5 7q-5 -14 -13.5 -27t-18.5 -27q-20 -27 -46.5 -52.5t-55 -45t-57 -31t-50.5 -11.5q-24 0 -34 11t-10.5 27t6.5 33.5t16 30.5q17 24 45 46.5t66 37.5q33 14 67.5 18t69.5 1q5 13 7 27.5t-3 28.5q-7 18 -25.5 26t-40.5 9
t-43.5 -2t-34.5 -7q-43 -12 -89.5 -40.5t-88 -66t-73.5 -81.5t-45 -88q-12 -41 -2 -67.5t34 -41t57.5 -18t67.5 1.5zM1030 427q-20 -14 -37 -31q17 1 30 6.5t22 12.5q19 15 12 20.5t-27 -8.5zM267 -79q20 0 45.5 11t52 30.5t51.5 44t44 51.5q9 13 16.5 25t12.5 24
q-34 2 -66 -2t-64 -17q-37 -15 -63.5 -36.5t-42.5 -44.5q-7 -11 -13.5 -25.5t-7.5 -28t6.5 -23t28.5 -9.5z" />
    <glyph glyph-name="Acircumflex" unicode="&#xc2;" horiz-adv-x="829" 
d="M1057 518q-1 -5 -4 -6t-5 4q-3 7 -3 11.5t-7 14.5q-12 -1 -18 -2.5l-14 -3.5q-5 -2 -6 1.5t2 6.5q8 8 20.5 15t22.5 4q9 -9 11 -21t1 -24zM564 -411q2 -4 -1.5 -7t-6.5 1q-18 18 -24.5 44.5t-3 60t15.5 72.5t31 81q23 52 53.5 107t65.5 110q-20 5 -38.5 11t-38.5 12
q-42 -52 -87.5 -101.5t-95 -89.5t-104 -67.5t-114.5 -35.5q-38 -5 -73.5 -0.5t-61 20.5t-36 45t2.5 73q13 45 45.5 90.5t75 83.5t89.5 67t91 41q16 4 40 7.5t48.5 1.5t45.5 -12t30 -31q6 -14 5 -29.5t-6 -29.5q22 -2 43.5 -7t41.5 -10q5 6 10.5 12.5t10.5 12.5
q20 23 44.5 53t52 60.5t58 59.5t63 51.5t66 36.5t67.5 14q15 13 28.5 23t24.5 16q16 9 27 9.5t15.5 -4.5t1.5 -14t-15 -19q-11 -10 -29 -16.5t-39 -4.5q-29 -29 -64.5 -69t-73.5 -90q-60 -78 -118 -168q32 -7 57 -5.5t45 17.5q4 3 7 -1t-1 -7q-22 -18 -50.5 -19.5t-62.5 6.5
q-17 -27 -33.5 -54t-31.5 -53q-33 -58 -58 -112.5t-38.5 -101.5t-13.5 -83.5t17 -57.5zM699 67q10 14 19 27.5t19 27.5q49 69 98.5 129.5t92.5 105.5q15 16 30 30q-37 -4 -73.5 -26t-73 -56.5t-73.5 -78t-76 -91.5q-9 -11 -18.5 -22.5t-19.5 -23.5q19 -5 37.5 -11t37.5 -11z
M214 -203q53 8 102.5 35.5t96 67.5t91 88.5t86.5 99.5q-20 5 -40.5 10t-41.5 7q-5 -14 -13.5 -27t-18.5 -27q-20 -27 -46.5 -52.5t-55 -45t-57 -31t-50.5 -11.5q-24 0 -34 11t-10.5 27t6.5 33.5t16 30.5q17 24 45 46.5t66 37.5q33 14 67.5 18t69.5 1q5 13 7 27.5t-3 28.5
q-7 18 -25.5 26t-40.5 9t-43.5 -2t-34.5 -7q-43 -12 -89.5 -40.5t-88 -66t-73.5 -81.5t-45 -88q-12 -41 -2 -67.5t34 -41t57.5 -18t67.5 1.5zM1030 427q-20 -14 -37 -31q17 1 30 6.5t22 12.5q19 15 12 20.5t-27 -8.5zM267 -79q20 0 45.5 11t52 30.5t51.5 44t44 51.5
q9 13 16.5 25t12.5 24q-34 2 -66 -2t-64 -17q-37 -15 -63.5 -36.5t-42.5 -44.5q-7 -11 -13.5 -25.5t-7.5 -28t6.5 -23t28.5 -9.5z" />
    <glyph glyph-name="Atilde" unicode="&#xc3;" horiz-adv-x="829" 
d="M993 528q-1 2 -1 4.5t2 0.5q8 -7 20 -4t24 7t22 5.5t14 -8.5q2 -5 0.5 -9.5t-3.5 0.5q-3 9 -14 8t-24 -4.5t-24.5 -5.5t-15.5 6zM564 -411q2 -4 -1.5 -7t-6.5 1q-18 18 -24.5 44.5t-3 60t15.5 72.5t31 81q23 52 53.5 107t65.5 110q-20 5 -38.5 11t-38.5 12
q-42 -52 -87.5 -101.5t-95 -89.5t-104 -67.5t-114.5 -35.5q-38 -5 -73.5 -0.5t-61 20.5t-36 45t2.5 73q13 45 45.5 90.5t75 83.5t89.5 67t91 41q16 4 40 7.5t48.5 1.5t45.5 -12t30 -31q6 -14 5 -29.5t-6 -29.5q22 -2 43.5 -7t41.5 -10q5 6 10.5 12.5t10.5 12.5
q20 23 44.5 53t52 60.5t58 59.5t63 51.5t66 36.5t67.5 14q15 13 28.5 23t24.5 16q16 9 27 9.5t15.5 -4.5t1.5 -14t-15 -19q-11 -10 -29 -16.5t-39 -4.5q-29 -29 -64.5 -69t-73.5 -90q-60 -78 -118 -168q32 -7 57 -5.5t45 17.5q4 3 7 -1t-1 -7q-22 -18 -50.5 -19.5t-62.5 6.5
q-17 -27 -33.5 -54t-31.5 -53q-33 -58 -58 -112.5t-38.5 -101.5t-13.5 -83.5t17 -57.5zM699 67q10 14 19 27.5t19 27.5q49 69 98.5 129.5t92.5 105.5q15 16 30 30q-37 -4 -73.5 -26t-73 -56.5t-73.5 -78t-76 -91.5q-9 -11 -18.5 -22.5t-19.5 -23.5q19 -5 37.5 -11t37.5 -11z
M214 -203q53 8 102.5 35.5t96 67.5t91 88.5t86.5 99.5q-20 5 -40.5 10t-41.5 7q-5 -14 -13.5 -27t-18.5 -27q-20 -27 -46.5 -52.5t-55 -45t-57 -31t-50.5 -11.5q-24 0 -34 11t-10.5 27t6.5 33.5t16 30.5q17 24 45 46.5t66 37.5q33 14 67.5 18t69.5 1q5 13 7 27.5t-3 28.5
q-7 18 -25.5 26t-40.5 9t-43.5 -2t-34.5 -7q-43 -12 -89.5 -40.5t-88 -66t-73.5 -81.5t-45 -88q-12 -41 -2 -67.5t34 -41t57.5 -18t67.5 1.5zM1030 427q-20 -14 -37 -31q17 1 30 6.5t22 12.5q19 15 12 20.5t-27 -8.5zM267 -79q20 0 45.5 11t52 30.5t51.5 44t44 51.5
q9 13 16.5 25t12.5 24q-34 2 -66 -2t-64 -17q-37 -15 -63.5 -36.5t-42.5 -44.5q-7 -11 -13.5 -25.5t-7.5 -28t6.5 -23t28.5 -9.5z" />
    <glyph glyph-name="Adieresis" unicode="&#xc4;" horiz-adv-x="829" 
d="M995 545q5 0 8 -3.5t3 -7.5q0 -11 -11 -11t-11 11q0 5 3.5 8t7.5 3zM1031 545q5 0 8 -3.5t3 -7.5q0 -11 -11 -11t-11 11q0 5 3.5 8t7.5 3zM564 -411q2 -4 -1.5 -7t-6.5 1q-18 18 -24.5 44.5t-3 60t15.5 72.5t31 81q23 52 53.5 107t65.5 110q-20 5 -38.5 11t-38.5 12
q-42 -52 -87.5 -101.5t-95 -89.5t-104 -67.5t-114.5 -35.5q-38 -5 -73.5 -0.5t-61 20.5t-36 45t2.5 73q13 45 45.5 90.5t75 83.5t89.5 67t91 41q16 4 40 7.5t48.5 1.5t45.5 -12t30 -31q6 -14 5 -29.5t-6 -29.5q22 -2 43.5 -7t41.5 -10q5 6 10.5 12.5t10.5 12.5
q20 23 44.5 53t52 60.5t58 59.5t63 51.5t66 36.5t67.5 14q15 13 28.5 23t24.5 16q16 9 27 9.5t15.5 -4.5t1.5 -14t-15 -19q-11 -10 -29 -16.5t-39 -4.5q-29 -29 -64.5 -69t-73.5 -90q-60 -78 -118 -168q32 -7 57 -5.5t45 17.5q4 3 7 -1t-1 -7q-22 -18 -50.5 -19.5t-62.5 6.5
q-17 -27 -33.5 -54t-31.5 -53q-33 -58 -58 -112.5t-38.5 -101.5t-13.5 -83.5t17 -57.5zM699 67q10 14 19 27.5t19 27.5q49 69 98.5 129.5t92.5 105.5q15 16 30 30q-37 -4 -73.5 -26t-73 -56.5t-73.5 -78t-76 -91.5q-9 -11 -18.5 -22.5t-19.5 -23.5q19 -5 37.5 -11t37.5 -11z
M214 -203q53 8 102.5 35.5t96 67.5t91 88.5t86.5 99.5q-20 5 -40.5 10t-41.5 7q-5 -14 -13.5 -27t-18.5 -27q-20 -27 -46.5 -52.5t-55 -45t-57 -31t-50.5 -11.5q-24 0 -34 11t-10.5 27t6.5 33.5t16 30.5q17 24 45 46.5t66 37.5q33 14 67.5 18t69.5 1q5 13 7 27.5t-3 28.5
q-7 18 -25.5 26t-40.5 9t-43.5 -2t-34.5 -7q-43 -12 -89.5 -40.5t-88 -66t-73.5 -81.5t-45 -88q-12 -41 -2 -67.5t34 -41t57.5 -18t67.5 1.5zM1030 427q-20 -14 -37 -31q17 1 30 6.5t22 12.5q19 15 12 20.5t-27 -8.5zM267 -79q20 0 45.5 11t52 30.5t51.5 44t44 51.5
q9 13 16.5 25t12.5 24q-34 2 -66 -2t-64 -17q-37 -15 -63.5 -36.5t-42.5 -44.5q-7 -11 -13.5 -25.5t-7.5 -28t6.5 -23t28.5 -9.5z" />
    <glyph glyph-name="aring" unicode="&#xe5;" horiz-adv-x="239" 
d="M97 159q-2 0 -4 -1.5t-2 -5.5q0 -6 6 -6q7 0 7 6q0 7 -7 7zM97 163q5 0 8 -3.5t3 -7.5q0 -11 -11 -11t-11 11q0 5 3.5 8t7.5 3zM75 59q0 14 -9 20q-14 11 -31 -1q-11 -9 -20.5 -26.5t-8.5 -31.5q0 -10 7 -11q6 -1 13.5 3.5t16 12t16.5 16.5zM119 79q-8 -10 -22 -30
t-22 -41q-9 -24 -4.5 -34t16 -11t27 5.5t29.5 16.5q13 8 25.5 18.5t23.5 21.5q13 11 24.5 23t22.5 24q3 4 6.5 0.5t0.5 -7.5q-23 -24 -47 -47q-11 -11 -24 -21.5t-26 -19.5q-11 -8 -27.5 -15t-32 -7.5t-27 7t-12.5 29.5q-1 14 7 34q-11 -12 -23 -19.5t-23 -5.5
q-12 1 -18.5 7t-9.5 14q-5 18 6.5 37t26.5 28q12 8 28.5 9t27.5 -8q8 -6 12 -18q16 19 29 18.5t6 -8.5z" />
    <glyph glyph-name="Aring" unicode="&#xc5;" horiz-adv-x="829" 
d="M1034 513q-5 0 -5 -6q0 -5 5 -5q6 0 6 5q0 6 -6 6zM1034 519q5 0 8 -3.5t3 -7.5q0 -11 -11 -11t-11 11q0 5 3.5 8t7.5 3zM564 -411q2 -4 -1.5 -7t-6.5 1q-18 18 -24.5 44.5t-3 60t15.5 72.5t31 81q23 52 53.5 107t65.5 110q-20 5 -38.5 11t-38.5 12q-42 -52 -87.5 -101.5
t-95 -89.5t-104 -67.5t-114.5 -35.5q-38 -5 -73.5 -0.5t-61 20.5t-36 45t2.5 73q13 45 45.5 90.5t75 83.5t89.5 67t91 41q16 4 40 7.5t48.5 1.5t45.5 -12t30 -31q6 -14 5 -29.5t-6 -29.5q22 -2 43.5 -7t41.5 -10q5 6 10.5 12.5t10.5 12.5q20 23 44.5 53t52 60.5t58 59.5
t63 51.5t66 36.5t67.5 14q15 13 28.5 23t24.5 16q16 9 27 9.5t15.5 -4.5t1.5 -14t-15 -19q-11 -10 -29 -16.5t-39 -4.5q-29 -29 -64.5 -69t-73.5 -90q-60 -78 -118 -168q32 -7 57 -5.5t45 17.5q4 3 7 -1t-1 -7q-22 -18 -50.5 -19.5t-62.5 6.5q-17 -27 -33.5 -54t-31.5 -53
q-33 -58 -58 -112.5t-38.5 -101.5t-13.5 -83.5t17 -57.5zM699 67q10 14 19 27.5t19 27.5q49 69 98.5 129.5t92.5 105.5q15 16 30 30q-37 -4 -73.5 -26t-73 -56.5t-73.5 -78t-76 -91.5q-9 -11 -18.5 -22.5t-19.5 -23.5q19 -5 37.5 -11t37.5 -11zM214 -203q53 8 102.5 35.5
t96 67.5t91 88.5t86.5 99.5q-20 5 -40.5 10t-41.5 7q-5 -14 -13.5 -27t-18.5 -27q-20 -27 -46.5 -52.5t-55 -45t-57 -31t-50.5 -11.5q-24 0 -34 11t-10.5 27t6.5 33.5t16 30.5q17 24 45 46.5t66 37.5q33 14 67.5 18t69.5 1q5 13 7 27.5t-3 28.5q-7 18 -25.5 26t-40.5 9
t-43.5 -2t-34.5 -7q-43 -12 -89.5 -40.5t-88 -66t-73.5 -81.5t-45 -88q-12 -41 -2 -67.5t34 -41t57.5 -18t67.5 1.5zM1030 427q-20 -14 -37 -31q17 1 30 6.5t22 12.5q19 15 12 20.5t-27 -8.5zM267 -79q20 0 45.5 11t52 30.5t51.5 44t44 51.5q9 13 16.5 25t12.5 24
q-34 2 -66 -2t-64 -17q-37 -15 -63.5 -36.5t-42.5 -44.5q-7 -11 -13.5 -25.5t-7.5 -28t6.5 -23t28.5 -9.5z" />
    <glyph glyph-name="Egrave" unicode="&#xc8;" horiz-adv-x="689" 
d="M676 549q14 -13 20 -30q2 -5 -0.5 -7t-6.5 1l-10 10t-19 12q-2 1 -2 5.5t2 8.5t6 5t10 -5zM658 433q-31 0 -59 -13.5t-51 -35.5q-20 -19 -34.5 -42t-25.5 -48q42 -4 80 -3.5t71 9.5q26 8 46.5 23t31.5 33q12 20 11 34.5t-10.5 24t-25.5 14t-34 4.5zM485 133
q-18 -1 -35 -2.5t-34 -4.5q-85 -16 -148.5 -60t-97.5 -96q-9 -14 -15 -27q38 -5 75 4t71 25q54 27 113 77q4 4 7.5 0t-0.5 -7q-63 -53 -116 -78q-35 -18 -75 -26.5t-80 -3.5q-10 -23 -13 -49t10 -49q9 -15 23 -25t31 -15.5t35 -7.5t35 -2q30 1 63.5 8t70.5 23
q63 27 121.5 71.5t102.5 97.5q32 38 60 86q2 5 6.5 2.5t2.5 -7.5q-14 -24 -29 -45.5t-32 -41.5q-45 -54 -104.5 -99.5t-123.5 -72.5q-38 -16 -72.5 -23.5t-65.5 -8.5q-20 0 -41 2.5t-41.5 9t-37.5 17.5t-28 28q-15 25 -12 53t14 53q-27 8 -46 24t-30 37q-21 38 -15 82.5
t28 80.5q17 29 44.5 55t65.5 45.5t86 30t107 8.5q24 -1 47.5 -2.5t47.5 -3.5q17 44 50 78q28 31 65.5 50t80.5 19q22 0 41 -6t30 -18t11.5 -29t-12.5 -39q-12 -20 -34 -36.5t-51 -24.5q-34 -9 -73.5 -9t-82.5 3q-17 -44 -12 -86q3 -33 21 -55h18t18 -1q22 -3 29 -10.5
t2.5 -14t-16.5 -9.5t-27 3q-8 4 -17 10t-16 12zM475 142q-22 25 -28 59q-6 41 9 85q-45 4 -91 6q-57 2 -104 -8t-84 -29t-64 -44t-43 -53q-20 -34 -26.5 -75.5t13.5 -78.5q22 -41 72 -56q8 16 18 29q37 53 106 98t159 61q31 4 63 6zM503 133q11 -9 19 -12q9 -4 18 -3.5
t12 3.5t-2.5 6t-23.5 5q-5 1 -11 1h-12z" />
    <glyph glyph-name="Eacute" unicode="&#xc9;" horiz-adv-x="689" 
d="M678 549q6 6 10 5t6 -5t1.5 -8.5t-1.5 -5.5q-15 -8 -19 -12l-10 -10q-4 -3 -6.5 -1t-0.5 7q6 17 20 30zM658 433q-31 0 -59 -13.5t-51 -35.5q-20 -19 -34.5 -42t-25.5 -48q42 -4 80 -3.5t71 9.5q26 8 46.5 23t31.5 33q12 20 11 34.5t-10.5 24t-25.5 14t-34 4.5zM485 133
q-18 -1 -35 -2.5t-34 -4.5q-85 -16 -148.5 -60t-97.5 -96q-9 -14 -15 -27q38 -5 75 4t71 25q54 27 113 77q4 4 7.5 0t-0.5 -7q-63 -53 -116 -78q-35 -18 -75 -26.5t-80 -3.5q-10 -23 -13 -49t10 -49q9 -15 23 -25t31 -15.5t35 -7.5t35 -2q30 1 63.5 8t70.5 23
q63 27 121.5 71.5t102.5 97.5q32 38 60 86q2 5 6.5 2.5t2.5 -7.5q-14 -24 -29 -45.5t-32 -41.5q-45 -54 -104.5 -99.5t-123.5 -72.5q-38 -16 -72.5 -23.5t-65.5 -8.5q-20 0 -41 2.5t-41.5 9t-37.5 17.5t-28 28q-15 25 -12 53t14 53q-27 8 -46 24t-30 37q-21 38 -15 82.5
t28 80.5q17 29 44.5 55t65.5 45.5t86 30t107 8.5q24 -1 47.5 -2.5t47.5 -3.5q17 44 50 78q28 31 65.5 50t80.5 19q22 0 41 -6t30 -18t11.5 -29t-12.5 -39q-12 -20 -34 -36.5t-51 -24.5q-34 -9 -73.5 -9t-82.5 3q-17 -44 -12 -86q3 -33 21 -55h18t18 -1q22 -3 29 -10.5
t2.5 -14t-16.5 -9.5t-27 3q-8 4 -17 10t-16 12zM475 142q-22 25 -28 59q-6 41 9 85q-45 4 -91 6q-57 2 -104 -8t-84 -29t-64 -44t-43 -53q-20 -34 -26.5 -75.5t13.5 -78.5q22 -41 72 -56q8 16 18 29q37 53 106 98t159 61q31 4 63 6zM503 133q11 -9 19 -12q9 -4 18 -3.5
t12 3.5t-2.5 6t-23.5 5q-5 1 -11 1h-12z" />
    <glyph glyph-name="Ecircumflex" unicode="&#xca;" horiz-adv-x="689" 
d="M742 518q-1 -5 -4 -6t-5 4q-3 7 -3 11.5t-7 14.5q-12 -1 -18 -2.5l-14 -3.5q-5 -2 -6 1.5t2 6.5q8 8 20.5 15t22.5 4q9 -9 11 -21t1 -24zM658 433q-31 0 -59 -13.5t-51 -35.5q-20 -19 -34.5 -42t-25.5 -48q42 -4 80 -3.5t71 9.5q26 8 46.5 23t31.5 33q12 20 11 34.5
t-10.5 24t-25.5 14t-34 4.5zM485 133q-18 -1 -35 -2.5t-34 -4.5q-85 -16 -148.5 -60t-97.5 -96q-9 -14 -15 -27q38 -5 75 4t71 25q54 27 113 77q4 4 7.5 0t-0.5 -7q-63 -53 -116 -78q-35 -18 -75 -26.5t-80 -3.5q-10 -23 -13 -49t10 -49q9 -15 23 -25t31 -15.5t35 -7.5
t35 -2q30 1 63.5 8t70.5 23q63 27 121.5 71.5t102.5 97.5q32 38 60 86q2 5 6.5 2.5t2.5 -7.5q-14 -24 -29 -45.5t-32 -41.5q-45 -54 -104.5 -99.5t-123.5 -72.5q-38 -16 -72.5 -23.5t-65.5 -8.5q-20 0 -41 2.5t-41.5 9t-37.5 17.5t-28 28q-15 25 -12 53t14 53q-27 8 -46 24
t-30 37q-21 38 -15 82.5t28 80.5q17 29 44.5 55t65.5 45.5t86 30t107 8.5q24 -1 47.5 -2.5t47.5 -3.5q17 44 50 78q28 31 65.5 50t80.5 19q22 0 41 -6t30 -18t11.5 -29t-12.5 -39q-12 -20 -34 -36.5t-51 -24.5q-34 -9 -73.5 -9t-82.5 3q-17 -44 -12 -86q3 -33 21 -55h18
t18 -1q22 -3 29 -10.5t2.5 -14t-16.5 -9.5t-27 3q-8 4 -17 10t-16 12zM475 142q-22 25 -28 59q-6 41 9 85q-45 4 -91 6q-57 2 -104 -8t-84 -29t-64 -44t-43 -53q-20 -34 -26.5 -75.5t13.5 -78.5q22 -41 72 -56q8 16 18 29q37 53 106 98t159 61q31 4 63 6zM503 133
q11 -9 19 -12q9 -4 18 -3.5t12 3.5t-2.5 6t-23.5 5q-5 1 -11 1h-12z" />
    <glyph glyph-name="Edieresis" unicode="&#xcb;" horiz-adv-x="689" 
d="M681 545q5 0 8 -3.5t3 -7.5q0 -11 -11 -11t-11 11q0 5 3.5 8t7.5 3zM717 545q5 0 8 -3.5t3 -7.5q0 -11 -11 -11t-11 11q0 5 3.5 8t7.5 3zM658 433q-31 0 -59 -13.5t-51 -35.5q-20 -19 -34.5 -42t-25.5 -48q42 -4 80 -3.5t71 9.5q26 8 46.5 23t31.5 33q12 20 11 34.5
t-10.5 24t-25.5 14t-34 4.5zM485 133q-18 -1 -35 -2.5t-34 -4.5q-85 -16 -148.5 -60t-97.5 -96q-9 -14 -15 -27q38 -5 75 4t71 25q54 27 113 77q4 4 7.5 0t-0.5 -7q-63 -53 -116 -78q-35 -18 -75 -26.5t-80 -3.5q-10 -23 -13 -49t10 -49q9 -15 23 -25t31 -15.5t35 -7.5
t35 -2q30 1 63.5 8t70.5 23q63 27 121.5 71.5t102.5 97.5q32 38 60 86q2 5 6.5 2.5t2.5 -7.5q-14 -24 -29 -45.5t-32 -41.5q-45 -54 -104.5 -99.5t-123.5 -72.5q-38 -16 -72.5 -23.5t-65.5 -8.5q-20 0 -41 2.5t-41.5 9t-37.5 17.5t-28 28q-15 25 -12 53t14 53q-27 8 -46 24
t-30 37q-21 38 -15 82.5t28 80.5q17 29 44.5 55t65.5 45.5t86 30t107 8.5q24 -1 47.5 -2.5t47.5 -3.5q17 44 50 78q28 31 65.5 50t80.5 19q22 0 41 -6t30 -18t11.5 -29t-12.5 -39q-12 -20 -34 -36.5t-51 -24.5q-34 -9 -73.5 -9t-82.5 3q-17 -44 -12 -86q3 -33 21 -55h18
t18 -1q22 -3 29 -10.5t2.5 -14t-16.5 -9.5t-27 3q-8 4 -17 10t-16 12zM475 142q-22 25 -28 59q-6 41 9 85q-45 4 -91 6q-57 2 -104 -8t-84 -29t-64 -44t-43 -53q-20 -34 -26.5 -75.5t13.5 -78.5q22 -41 72 -56q8 16 18 29q37 53 106 98t159 61q31 4 63 6zM503 133
q11 -9 19 -12q9 -4 18 -3.5t12 3.5t-2.5 6t-23.5 5q-5 1 -11 1h-12z" />
    <glyph glyph-name="Igrave" unicode="&#xcc;" horiz-adv-x="704" 
d="M784 549q14 -13 20 -30q2 -5 -0.5 -7t-6.5 1l-10 10t-19 12q-2 1 -2 5.5t2 8.5t6 5t10 -5zM166 -228q-63 0 -96 22.5t-42 57.5t3.5 77.5t39.5 82.5q26 38 63.5 73t84 61t99 40.5t108.5 10.5q33 -3 50.5 -16t22.5 -32.5t-2 -42.5t-23 -46q-12 -16 -28.5 -32.5t-36 -32
t-41 -29.5t-42.5 -26q-11 -6 -30 -15t-40 -16t-41 -9t-32 6q-4 3 -1 7t7 1q10 -7 28.5 -4.5t38.5 9.5t38.5 16t27.5 14q42 23 81 54t62 63q15 20 21.5 40.5t2.5 38t-19 29t-45 13.5q-54 4 -105.5 -10t-96.5 -39.5t-82 -60t-62 -71.5q-26 -38 -38 -78t-4 -72t39 -53t91 -21
q65 0 127.5 38t122 97t115.5 131.5t107 142.5q43 58 82.5 109.5t74.5 86.5q-28 -6 -57 -13t-54.5 -17.5t-45.5 -25t-29 -33.5q-2 -5 -6.5 -3t-2.5 7q10 22 33 38t52 27.5t61 19t62 12.5q32 29 58 39q17 6 29.5 4t16 -8t-4 -14.5t-29.5 -15.5q-14 -5 -28 -7.5t-28 -5.5
q-30 -30 -64.5 -76.5t-73.5 -102.5q-34 -48 -71.5 -99.5t-77.5 -100.5t-83.5 -93t-90 -77t-95.5 -52t-101 -18zM836 404q21 3 40 9q18 6 23.5 11t2.5 7.5t-12.5 1.5t-19.5 -5q-17 -9 -34 -24z" />
    <glyph glyph-name="Iacute" unicode="&#xcd;" horiz-adv-x="704" 
d="M783 549q6 6 10 5t6 -5t1.5 -8.5t-1.5 -5.5q-15 -8 -19 -12l-10 -10q-4 -3 -6.5 -1t-0.5 7q6 17 20 30zM166 -228q-63 0 -96 22.5t-42 57.5t3.5 77.5t39.5 82.5q26 38 63.5 73t84 61t99 40.5t108.5 10.5q33 -3 50.5 -16t22.5 -32.5t-2 -42.5t-23 -46q-12 -16 -28.5 -32.5
t-36 -32t-41 -29.5t-42.5 -26q-11 -6 -30 -15t-40 -16t-41 -9t-32 6q-4 3 -1 7t7 1q10 -7 28.5 -4.5t38.5 9.5t38.5 16t27.5 14q42 23 81 54t62 63q15 20 21.5 40.5t2.5 38t-19 29t-45 13.5q-54 4 -105.5 -10t-96.5 -39.5t-82 -60t-62 -71.5q-26 -38 -38 -78t-4 -72t39 -53
t91 -21q65 0 127.5 38t122 97t115.5 131.5t107 142.5q43 58 82.5 109.5t74.5 86.5q-28 -6 -57 -13t-54.5 -17.5t-45.5 -25t-29 -33.5q-2 -5 -6.5 -3t-2.5 7q10 22 33 38t52 27.5t61 19t62 12.5q32 29 58 39q17 6 29.5 4t16 -8t-4 -14.5t-29.5 -15.5q-14 -5 -28 -7.5
t-28 -5.5q-30 -30 -64.5 -76.5t-73.5 -102.5q-34 -48 -71.5 -99.5t-77.5 -100.5t-83.5 -93t-90 -77t-95.5 -52t-101 -18zM836 404q21 3 40 9q18 6 23.5 11t2.5 7.5t-12.5 1.5t-19.5 -5q-17 -9 -34 -24z" />
    <glyph glyph-name="Icircumflex" unicode="&#xce;" horiz-adv-x="704" 
d="M832 518q-1 -5 -4 -6t-5 4q-3 7 -3 11.5t-7 14.5q-12 -1 -18 -2.5l-14 -3.5q-5 -2 -6 1.5t2 6.5q8 8 20.5 15t22.5 4q9 -9 11 -21t1 -24zM166 -228q-63 0 -96 22.5t-42 57.5t3.5 77.5t39.5 82.5q26 38 63.5 73t84 61t99 40.5t108.5 10.5q33 -3 50.5 -16t22.5 -32.5
t-2 -42.5t-23 -46q-12 -16 -28.5 -32.5t-36 -32t-41 -29.5t-42.5 -26q-11 -6 -30 -15t-40 -16t-41 -9t-32 6q-4 3 -1 7t7 1q10 -7 28.5 -4.5t38.5 9.5t38.5 16t27.5 14q42 23 81 54t62 63q15 20 21.5 40.5t2.5 38t-19 29t-45 13.5q-54 4 -105.5 -10t-96.5 -39.5t-82 -60
t-62 -71.5q-26 -38 -38 -78t-4 -72t39 -53t91 -21q65 0 127.5 38t122 97t115.5 131.5t107 142.5q43 58 82.5 109.5t74.5 86.5q-28 -6 -57 -13t-54.5 -17.5t-45.5 -25t-29 -33.5q-2 -5 -6.5 -3t-2.5 7q10 22 33 38t52 27.5t61 19t62 12.5q32 29 58 39q17 6 29.5 4t16 -8
t-4 -14.5t-29.5 -15.5q-14 -5 -28 -7.5t-28 -5.5q-30 -30 -64.5 -76.5t-73.5 -102.5q-34 -48 -71.5 -99.5t-77.5 -100.5t-83.5 -93t-90 -77t-95.5 -52t-101 -18zM836 404q21 3 40 9q18 6 23.5 11t2.5 7.5t-12.5 1.5t-19.5 -5q-17 -9 -34 -24z" />
    <glyph glyph-name="Idieresis" unicode="&#xcf;" horiz-adv-x="704" 
d="M758 545q5 0 8 -3.5t3 -7.5q0 -11 -11 -11t-11 11q0 5 3.5 8t7.5 3zM794 545q5 0 8 -3.5t3 -7.5q0 -11 -11 -11t-11 11q0 5 3.5 8t7.5 3zM166 -228q-63 0 -96 22.5t-42 57.5t3.5 77.5t39.5 82.5q26 38 63.5 73t84 61t99 40.5t108.5 10.5q33 -3 50.5 -16t22.5 -32.5
t-2 -42.5t-23 -46q-12 -16 -28.5 -32.5t-36 -32t-41 -29.5t-42.5 -26q-11 -6 -30 -15t-40 -16t-41 -9t-32 6q-4 3 -1 7t7 1q10 -7 28.5 -4.5t38.5 9.5t38.5 16t27.5 14q42 23 81 54t62 63q15 20 21.5 40.5t2.5 38t-19 29t-45 13.5q-54 4 -105.5 -10t-96.5 -39.5t-82 -60
t-62 -71.5q-26 -38 -38 -78t-4 -72t39 -53t91 -21q65 0 127.5 38t122 97t115.5 131.5t107 142.5q43 58 82.5 109.5t74.5 86.5q-28 -6 -57 -13t-54.5 -17.5t-45.5 -25t-29 -33.5q-2 -5 -6.5 -3t-2.5 7q10 22 33 38t52 27.5t61 19t62 12.5q32 29 58 39q17 6 29.5 4t16 -8
t-4 -14.5t-29.5 -15.5q-14 -5 -28 -7.5t-28 -5.5q-30 -30 -64.5 -76.5t-73.5 -102.5q-34 -48 -71.5 -99.5t-77.5 -100.5t-83.5 -93t-90 -77t-95.5 -52t-101 -18zM836 404q21 3 40 9q18 6 23.5 11t2.5 7.5t-12.5 1.5t-19.5 -5q-17 -9 -34 -24z" />
    <glyph glyph-name="Eth" unicode="&#xd0;" horiz-adv-x="1140" 
d="M1011 -6q23 63 25 133t-22 133q-14 37 -37 68.5t-56.5 54.5t-77 36t-98.5 13q-56 0 -103 -13t-84.5 -34t-64.5 -48t-44 -57q-11 -19 -18 -40t-8 -43q15 0 31 -1.5t30 -8.5q19 -8 28 -24.5t7 -36.5q-3 -21 -12 -40q37 -7 76 2q14 18 27.5 36t27.5 35q49 62 91 112.5
t76 75.5q18 12 33.5 16t24.5 -1t9 -19t-12 -38q-15 -28 -43 -63q-18 -22 -41 -45t-49.5 -43.5t-54.5 -37.5t-57 -28q-45 -58 -95.5 -115t-105 -102t-113 -72.5t-119.5 -26.5q-20 0 -40.5 3.5t-38.5 12t-32.5 22.5t-21.5 34q-8 21 -7 43t7.5 44t17 43t22.5 38q24 35 58.5 68
t76.5 58.5t90 41.5t99 17q1 23 8.5 45.5t18.5 42.5q17 30 45 58.5t66.5 50t87 35t106.5 13.5q59 0 106.5 -14t84 -38.5t62.5 -57.5t41 -72q25 -66 23 -137.5t-27 -136.5q-17 -44 -43 -80.5t-60 -64t-75.5 -44.5t-89.5 -21q-51 -4 -89.5 13t-61 48t-26.5 72.5t15 86.5
q18 44 57.5 74.5t97.5 30.5q5 0 5 -5t-5 -5q-55 0 -92 -28.5t-54 -70.5q-18 -42 -14.5 -81.5t24.5 -69t57 -45t84 -10.5q91 10 153.5 67.5t92.5 140.5zM422 188q1 -37 19.5 -63.5t55.5 -36.5q10 19 12 38q3 37 -29 52q-13 6 -28.5 8t-29.5 2zM412 187q-50 -1 -96.5 -16.5
t-87 -40.5t-74 -57t-57.5 -67q-11 -16 -21 -35.5t-16.5 -40.5t-7.5 -42.5t6 -40.5t20.5 -31.5t31 -20t37.5 -10.5t38 -3q51 0 101.5 25.5t99.5 67t96 94t91 107.5q-37 -6 -71 1q-11 -21 -29.5 -40.5t-40.5 -37.5t-44.5 -33t-42.5 -26q-11 -6 -30.5 -15t-40.5 -16t-40.5 -9
t-31.5 6q-5 3 -2 7t8 1q10 -7 28.5 -4.5t38.5 9.5t38 16t27 14q19 10 41 24.5t43 31.5t39 35.5t29 38.5q-38 11 -58.5 40t-21.5 68zM628 104q52 23 99.5 63.5t81.5 81.5q14 17 24.5 32t17.5 29q20 39 5.5 44.5t-42.5 -18.5q-25 -22 -57.5 -63t-71.5 -93q-14 -19 -28 -37.5
t-29 -38.5zM544 144q-5 1 -4.5 6.5t5.5 5.5q22 -1 56.5 -1.5t72 -0.5h72.5t56 2q3 0 5 -2t2 -5.5t-3.5 -7t-10.5 -5.5q-15 -3 -50 -3t-75 1.5t-75.5 4.5t-50.5 5z" />
    <glyph glyph-name="Ntilde" unicode="&#xd1;" horiz-adv-x="925" 
d="M686 507q-1 2 -1 4.5t2 0.5q8 -7 20 -4t24 7t22 5.5t14 -8.5q2 -5 0.5 -9.5t-3.5 0.5q-3 9 -14 8t-24 -4.5t-24.5 -5.5t-15.5 6zM1001 -250q-17 -28 -37.5 -53.5t-43.5 -48.5q-18 -17 -40 -33.5t-46 -27.5t-50 -15t-52 3q-38 10 -61 30.5t-33 49.5t-9 64.5t11 76.5
q12 50 35.5 105t52 111.5t60 111.5t60.5 104q21 36 39 67.5t31.5 57t21 44t7.5 29.5t-10 8.5t-15 -4.5q-21 -10 -50.5 -37.5t-65 -67t-75.5 -87.5t-82 -99q-54 -66 -108.5 -131t-104.5 -116.5t-92 -84t-72 -32.5q-7 -2 -5 6q5 19 31 58.5t61 92.5q33 48 70 103.5t68.5 110.5
t52.5 105.5t22 89.5q1 37 -21.5 59t-76.5 24q-62 1 -119 -17.5t-106 -51t-88 -74t-65 -86.5q-12 -20 -22.5 -44t-16.5 -49t-6.5 -50.5t8.5 -47.5q20 -55 91 -68q-6 38 6 79q14 48 47.5 93t79.5 67q15 7 35.5 11t40.5 2.5t36.5 -11t24.5 -28.5q4 -13 3.5 -27t-5 -28t-11 -27
t-13.5 -23q-20 -29 -48.5 -54.5t-63.5 -42.5q-58 -29 -119 -23q11 -43 56 -59q5 -2 3 -6.5t-7 -2.5q-26 9 -41.5 27.5t-21.5 42.5q-42 6 -66.5 25.5t-35.5 48.5q-9 24 -9 50.5t6.5 52.5t17.5 51t23 46q27 46 66.5 88.5t89.5 75.5t108.5 52t122.5 18q66 -2 93.5 -30t25.5 -73
q-1 -33 -14.5 -72.5t-35 -83t-49.5 -88t-57.5 -87.5t-58 -81.5t-51.5 -69.5q-15 -20 -27 -36.5l-20 -27.5q29 6 69.5 39.5t88 83.5t99.5 112t103 125q41 50 80 97t74.5 86t65.5 67.5t53 40.5q7 4 15 6.5t15 1.5t12 -6.5t5 -17.5q0 -14 -8.5 -37t-23 -52.5t-34 -65.5
t-41.5 -75q-26 -47 -53.5 -97.5t-53 -102t-46 -101.5t-32.5 -95q-11 -39 -13.5 -73t4.5 -61.5t25.5 -47t50.5 -28.5q24 -7 48.5 -2.5t47.5 15.5t44 27t37 31q44 42 77 95h11zM160 -66q32 -4 60.5 2t57.5 20q34 17 61.5 41.5t46.5 51.5q6 9 12 21t10.5 25t5 26t-3.5 25
q-6 17 -21.5 24.5t-33.5 8.5t-36.5 -3t-31.5 -10q-44 -21 -76 -64.5t-45 -89.5q-5 -18 -7.5 -38t1.5 -40z" />
    <glyph glyph-name="Ograve" unicode="&#xd2;" horiz-adv-x="792" 
d="M676 549q14 -13 20 -30q2 -5 -0.5 -7t-6.5 1l-10 10t-19 12q-2 1 -2 5.5t2 8.5t6 5t10 -5zM90 157q2 -4 -1.5 -7t-6.5 1q-25 32 -34 73.5t-4 82.5t24.5 78.5t51.5 62.5q25 19 53 28t58 10t60 -4t58 -13q43 -13 78 -30.5t73 -37.5q45 18 91.5 28t96.5 10q43 0 75 -6
t55 -17q29 -12 43.5 -29t16.5 -34q3 -25 -18 -43q-20 -18 -50.5 -20.5t-56.5 -0.5q3 -25 -1 -54.5t-14 -62.5q-13 -37 -32 -76.5t-45 -78.5q-24 -38 -53 -73t-61 -66q34 11 64 27q51 26 97.5 68t83.5 99q3 5 7 2.5t2 -7.5q-38 -58 -86 -101t-99 -70q-22 -11 -43 -19t-42 -13
q-31 -28 -63.5 -50t-66.5 -37q-35 -15 -77.5 -21t-82 1.5t-71.5 31t-46 67.5q-12 36 -9 76.5t16 80t32 76.5t39 67q50 73 122 136.5t160 101.5q-35 18 -70 34.5t-70 28.5q-27 9 -55.5 14.5t-56.5 5t-55 -9t-51 -26.5q-31 -24 -49 -60t-23 -75.5t3.5 -79t32.5 -69.5zM559 371
q27 8 57.5 11.5t58.5 -2.5t48.5 -24.5t28.5 -53.5q24 -5 53 -3.5t49 18.5q17 15 14 35q-2 14 -15 29t-39 26q-22 10 -53 16t-73 6q-46 0 -89 -9.5t-84 -26.5q10 -5 21 -11t23 -11zM575 363q46 -21 97 -40q18 -6 35 -11t34 -9q-7 30 -25 45.5t-42 21t-50 3t-49 -9.5zM743 290
q-47 7 -93 25.5t-93 41.5q-51 -20 -97 -59t-81 -87q-17 -23 -33 -51.5t-26.5 -59.5t-14 -62.5t3.5 -61.5q9 -37 31.5 -60.5t53 -35.5t65 -13.5t67.5 6.5q36 32 68 70t59 79q51 78 75 153q11 32 15 61.5t0 53.5zM284 -23q-8 30 -5.5 62t12.5 62.5t25.5 59t33.5 52.5
q37 50 86 90t105 61q-11 6 -21 11.5t-21 10.5q-83 -38 -151 -99.5t-116 -133.5q-20 -29 -39 -66t-32.5 -77t-17.5 -80.5t7 -76.5q12 -41 40 -61.5t63.5 -26.5t73 0.5t69.5 19.5q29 14 58.5 32.5t56.5 42.5q-33 -6 -69 -2t-68 18.5t-56 39.5t-34 61z" />
    <glyph glyph-name="Oacute" unicode="&#xd3;" horiz-adv-x="792" 
d="M678 549q6 6 10 5t6 -5t1.5 -8.5t-1.5 -5.5q-15 -8 -19 -12l-10 -10q-4 -3 -6.5 -1t-0.5 7q6 17 20 30zM90 157q2 -4 -1.5 -7t-6.5 1q-25 32 -34 73.5t-4 82.5t24.5 78.5t51.5 62.5q25 19 53 28t58 10t60 -4t58 -13q43 -13 78 -30.5t73 -37.5q45 18 91.5 28t96.5 10
q43 0 75 -6t55 -17q29 -12 43.5 -29t16.5 -34q3 -25 -18 -43q-20 -18 -50.5 -20.5t-56.5 -0.5q3 -25 -1 -54.5t-14 -62.5q-13 -37 -32 -76.5t-45 -78.5q-24 -38 -53 -73t-61 -66q34 11 64 27q51 26 97.5 68t83.5 99q3 5 7 2.5t2 -7.5q-38 -58 -86 -101t-99 -70
q-22 -11 -43 -19t-42 -13q-31 -28 -63.5 -50t-66.5 -37q-35 -15 -77.5 -21t-82 1.5t-71.5 31t-46 67.5q-12 36 -9 76.5t16 80t32 76.5t39 67q50 73 122 136.5t160 101.5q-35 18 -70 34.5t-70 28.5q-27 9 -55.5 14.5t-56.5 5t-55 -9t-51 -26.5q-31 -24 -49 -60t-23 -75.5
t3.5 -79t32.5 -69.5zM559 371q27 8 57.5 11.5t58.5 -2.5t48.5 -24.5t28.5 -53.5q24 -5 53 -3.5t49 18.5q17 15 14 35q-2 14 -15 29t-39 26q-22 10 -53 16t-73 6q-46 0 -89 -9.5t-84 -26.5q10 -5 21 -11t23 -11zM575 363q46 -21 97 -40q18 -6 35 -11t34 -9q-7 30 -25 45.5
t-42 21t-50 3t-49 -9.5zM743 290q-47 7 -93 25.5t-93 41.5q-51 -20 -97 -59t-81 -87q-17 -23 -33 -51.5t-26.5 -59.5t-14 -62.5t3.5 -61.5q9 -37 31.5 -60.5t53 -35.5t65 -13.5t67.5 6.5q36 32 68 70t59 79q51 78 75 153q11 32 15 61.5t0 53.5zM284 -23q-8 30 -5.5 62
t12.5 62.5t25.5 59t33.5 52.5q37 50 86 90t105 61q-11 6 -21 11.5t-21 10.5q-83 -38 -151 -99.5t-116 -133.5q-20 -29 -39 -66t-32.5 -77t-17.5 -80.5t7 -76.5q12 -41 40 -61.5t63.5 -26.5t73 0.5t69.5 19.5q29 14 58.5 32.5t56.5 42.5q-33 -6 -69 -2t-68 18.5t-56 39.5
t-34 61z" />
    <glyph glyph-name="Ocircumflex" unicode="&#xd4;" horiz-adv-x="792" 
d="M684 518q-1 -5 -4 -6t-5 4q-3 7 -3 11.5t-7 14.5q-12 -1 -18 -2.5l-14 -3.5q-5 -2 -6 1.5t2 6.5q8 8 20.5 15t22.5 4q9 -9 11 -21t1 -24zM90 157q2 -4 -1.5 -7t-6.5 1q-25 32 -34 73.5t-4 82.5t24.5 78.5t51.5 62.5q25 19 53 28t58 10t60 -4t58 -13q43 -13 78 -30.5
t73 -37.5q45 18 91.5 28t96.5 10q43 0 75 -6t55 -17q29 -12 43.5 -29t16.5 -34q3 -25 -18 -43q-20 -18 -50.5 -20.5t-56.5 -0.5q3 -25 -1 -54.5t-14 -62.5q-13 -37 -32 -76.5t-45 -78.5q-24 -38 -53 -73t-61 -66q34 11 64 27q51 26 97.5 68t83.5 99q3 5 7 2.5t2 -7.5
q-38 -58 -86 -101t-99 -70q-22 -11 -43 -19t-42 -13q-31 -28 -63.5 -50t-66.5 -37q-35 -15 -77.5 -21t-82 1.5t-71.5 31t-46 67.5q-12 36 -9 76.5t16 80t32 76.5t39 67q50 73 122 136.5t160 101.5q-35 18 -70 34.5t-70 28.5q-27 9 -55.5 14.5t-56.5 5t-55 -9t-51 -26.5
q-31 -24 -49 -60t-23 -75.5t3.5 -79t32.5 -69.5zM559 371q27 8 57.5 11.5t58.5 -2.5t48.5 -24.5t28.5 -53.5q24 -5 53 -3.5t49 18.5q17 15 14 35q-2 14 -15 29t-39 26q-22 10 -53 16t-73 6q-46 0 -89 -9.5t-84 -26.5q10 -5 21 -11t23 -11zM575 363q46 -21 97 -40
q18 -6 35 -11t34 -9q-7 30 -25 45.5t-42 21t-50 3t-49 -9.5zM743 290q-47 7 -93 25.5t-93 41.5q-51 -20 -97 -59t-81 -87q-17 -23 -33 -51.5t-26.5 -59.5t-14 -62.5t3.5 -61.5q9 -37 31.5 -60.5t53 -35.5t65 -13.5t67.5 6.5q36 32 68 70t59 79q51 78 75 153q11 32 15 61.5
t0 53.5zM284 -23q-8 30 -5.5 62t12.5 62.5t25.5 59t33.5 52.5q37 50 86 90t105 61q-11 6 -21 11.5t-21 10.5q-83 -38 -151 -99.5t-116 -133.5q-20 -29 -39 -66t-32.5 -77t-17.5 -80.5t7 -76.5q12 -41 40 -61.5t63.5 -26.5t73 0.5t69.5 19.5q29 14 58.5 32.5t56.5 42.5
q-33 -6 -69 -2t-68 18.5t-56 39.5t-34 61z" />
    <glyph glyph-name="Otilde" unicode="&#xd5;" horiz-adv-x="792" 
d="M563 507q-1 2 -1 4.5t2 0.5q8 -7 20 -4t24 7t22 5.5t14 -8.5q2 -5 0.5 -9.5t-3.5 0.5q-3 9 -14 8t-24 -4.5t-24.5 -5.5t-15.5 6zM90 157q2 -4 -1.5 -7t-6.5 1q-25 32 -34 73.5t-4 82.5t24.5 78.5t51.5 62.5q25 19 53 28t58 10t60 -4t58 -13q43 -13 78 -30.5t73 -37.5
q45 18 91.5 28t96.5 10q43 0 75 -6t55 -17q29 -12 43.5 -29t16.5 -34q3 -25 -18 -43q-20 -18 -50.5 -20.5t-56.5 -0.5q3 -25 -1 -54.5t-14 -62.5q-13 -37 -32 -76.5t-45 -78.5q-24 -38 -53 -73t-61 -66q34 11 64 27q51 26 97.5 68t83.5 99q3 5 7 2.5t2 -7.5
q-38 -58 -86 -101t-99 -70q-22 -11 -43 -19t-42 -13q-31 -28 -63.5 -50t-66.5 -37q-35 -15 -77.5 -21t-82 1.5t-71.5 31t-46 67.5q-12 36 -9 76.5t16 80t32 76.5t39 67q50 73 122 136.5t160 101.5q-35 18 -70 34.5t-70 28.5q-27 9 -55.5 14.5t-56.5 5t-55 -9t-51 -26.5
q-31 -24 -49 -60t-23 -75.5t3.5 -79t32.5 -69.5zM559 371q27 8 57.5 11.5t58.5 -2.5t48.5 -24.5t28.5 -53.5q24 -5 53 -3.5t49 18.5q17 15 14 35q-2 14 -15 29t-39 26q-22 10 -53 16t-73 6q-46 0 -89 -9.5t-84 -26.5q10 -5 21 -11t23 -11zM575 363q46 -21 97 -40
q18 -6 35 -11t34 -9q-7 30 -25 45.5t-42 21t-50 3t-49 -9.5zM743 290q-47 7 -93 25.5t-93 41.5q-51 -20 -97 -59t-81 -87q-17 -23 -33 -51.5t-26.5 -59.5t-14 -62.5t3.5 -61.5q9 -37 31.5 -60.5t53 -35.5t65 -13.5t67.5 6.5q36 32 68 70t59 79q51 78 75 153q11 32 15 61.5
t0 53.5zM284 -23q-8 30 -5.5 62t12.5 62.5t25.5 59t33.5 52.5q37 50 86 90t105 61q-11 6 -21 11.5t-21 10.5q-83 -38 -151 -99.5t-116 -133.5q-20 -29 -39 -66t-32.5 -77t-17.5 -80.5t7 -76.5q12 -41 40 -61.5t63.5 -26.5t73 0.5t69.5 19.5q29 14 58.5 32.5t56.5 42.5
q-33 -6 -69 -2t-68 18.5t-56 39.5t-34 61z" />
    <glyph glyph-name="Odieresis" unicode="&#xd6;" horiz-adv-x="792" 
d="M535 545q5 0 8 -3.5t3 -7.5q0 -11 -11 -11t-11 11q0 5 3.5 8t7.5 3zM571 545q5 0 8 -3.5t3 -7.5q0 -11 -11 -11t-11 11q0 5 3.5 8t7.5 3zM90 157q2 -4 -1.5 -7t-6.5 1q-25 32 -34 73.5t-4 82.5t24.5 78.5t51.5 62.5q25 19 53 28t58 10t60 -4t58 -13q43 -13 78 -30.5
t73 -37.5q45 18 91.5 28t96.5 10q43 0 75 -6t55 -17q29 -12 43.5 -29t16.5 -34q3 -25 -18 -43q-20 -18 -50.5 -20.5t-56.5 -0.5q3 -25 -1 -54.5t-14 -62.5q-13 -37 -32 -76.5t-45 -78.5q-24 -38 -53 -73t-61 -66q34 11 64 27q51 26 97.5 68t83.5 99q3 5 7 2.5t2 -7.5
q-38 -58 -86 -101t-99 -70q-22 -11 -43 -19t-42 -13q-31 -28 -63.5 -50t-66.5 -37q-35 -15 -77.5 -21t-82 1.5t-71.5 31t-46 67.5q-12 36 -9 76.5t16 80t32 76.5t39 67q50 73 122 136.5t160 101.5q-35 18 -70 34.5t-70 28.5q-27 9 -55.5 14.5t-56.5 5t-55 -9t-51 -26.5
q-31 -24 -49 -60t-23 -75.5t3.5 -79t32.5 -69.5zM559 371q27 8 57.5 11.5t58.5 -2.5t48.5 -24.5t28.5 -53.5q24 -5 53 -3.5t49 18.5q17 15 14 35q-2 14 -15 29t-39 26q-22 10 -53 16t-73 6q-46 0 -89 -9.5t-84 -26.5q10 -5 21 -11t23 -11zM575 363q46 -21 97 -40
q18 -6 35 -11t34 -9q-7 30 -25 45.5t-42 21t-50 3t-49 -9.5zM743 290q-47 7 -93 25.5t-93 41.5q-51 -20 -97 -59t-81 -87q-17 -23 -33 -51.5t-26.5 -59.5t-14 -62.5t3.5 -61.5q9 -37 31.5 -60.5t53 -35.5t65 -13.5t67.5 6.5q36 32 68 70t59 79q51 78 75 153q11 32 15 61.5
t0 53.5zM284 -23q-8 30 -5.5 62t12.5 62.5t25.5 59t33.5 52.5q37 50 86 90t105 61q-11 6 -21 11.5t-21 10.5q-83 -38 -151 -99.5t-116 -133.5q-20 -29 -39 -66t-32.5 -77t-17.5 -80.5t7 -76.5q12 -41 40 -61.5t63.5 -26.5t73 0.5t69.5 19.5q29 14 58.5 32.5t56.5 42.5
q-33 -6 -69 -2t-68 18.5t-56 39.5t-34 61z" />
    <glyph glyph-name="Oslash" unicode="&#xd8;" horiz-adv-x="792" 
d="M721 527q3 5 7 2t2 -7q-25 -44 -67.5 -114t-94 -153t-107 -172.5t-107.5 -172t-95.5 -151.5t-70.5 -111q-2 -4 -6.5 -2t-4.5 8q0 8 20.5 45t54.5 92t78 124.5t91.5 143l95 147t88.5 136.5t71.5 112t44.5 73zM90 157q2 -4 -1.5 -7t-6.5 1q-25 32 -34 73.5t-4 82.5
t24.5 78.5t51.5 62.5q25 19 53 28t58 10t60 -4t58 -13q43 -13 78 -30.5t73 -37.5q45 18 91.5 28t96.5 10q43 0 75 -6t55 -17q29 -12 43.5 -29t16.5 -34q3 -25 -18 -43q-20 -18 -50.5 -20.5t-56.5 -0.5q3 -25 -1 -54.5t-14 -62.5q-13 -37 -32 -76.5t-45 -78.5
q-24 -38 -53 -73t-61 -66q34 11 64 27q51 26 97.5 68t83.5 99q3 5 7 2.5t2 -7.5q-38 -58 -86 -101t-99 -70q-22 -11 -43 -19t-42 -13q-31 -28 -63.5 -50t-66.5 -37q-35 -15 -77.5 -21t-82 1.5t-71.5 31t-46 67.5q-12 36 -9 76.5t16 80t32 76.5t39 67q50 73 122 136.5
t160 101.5q-35 18 -70 34.5t-70 28.5q-27 9 -55.5 14.5t-56.5 5t-55 -9t-51 -26.5q-31 -24 -49 -60t-23 -75.5t3.5 -79t32.5 -69.5zM559 371q27 8 57.5 11.5t58.5 -2.5t48.5 -24.5t28.5 -53.5q24 -5 53 -3.5t49 18.5q17 15 14 35q-2 14 -15 29t-39 26q-22 10 -53 16t-73 6
q-46 0 -89 -9.5t-84 -26.5q10 -5 21 -11t23 -11zM575 363q46 -21 97 -40q18 -6 35 -11t34 -9q-7 30 -25 45.5t-42 21t-50 3t-49 -9.5zM743 290q-47 7 -93 25.5t-93 41.5q-51 -20 -97 -59t-81 -87q-17 -23 -33 -51.5t-26.5 -59.5t-14 -62.5t3.5 -61.5q9 -37 31.5 -60.5
t53 -35.5t65 -13.5t67.5 6.5q36 32 68 70t59 79q51 78 75 153q11 32 15 61.5t0 53.5zM284 -23q-8 30 -5.5 62t12.5 62.5t25.5 59t33.5 52.5q37 50 86 90t105 61q-11 6 -21 11.5t-21 10.5q-83 -38 -151 -99.5t-116 -133.5q-20 -29 -39 -66t-32.5 -77t-17.5 -80.5t7 -76.5
q12 -41 40 -61.5t63.5 -26.5t73 0.5t69.5 19.5q29 14 58.5 32.5t56.5 42.5q-33 -6 -69 -2t-68 18.5t-56 39.5t-34 61z" />
    <glyph glyph-name="Ugrave" unicode="&#xd9;" horiz-adv-x="914" 
d="M722 549q14 -13 20 -30q2 -5 -0.5 -7t-6.5 1l-10 10t-19 12q-2 1 -2 5.5t2 8.5t6 5t10 -5zM344 180q-42 1 -79.5 -24.5t-63.5 -63.5q-11 -16 -21 -35t-16 -40t-8.5 -42t1.5 -41q33 -4 64.5 4t59.5 24.5t51.5 40t40.5 49.5q6 9 12 21t10.5 25t6 26t-2.5 24q-6 18 -22 24.5
t-33 7.5zM997 -250q-30 -49 -69 -90.5t-86 -66.5q-29 -15 -62 -19.5t-62 3.5t-52 28.5t-33 55.5q-8 27 -6.5 59.5t9.5 69.5q10 45 29.5 94.5t44 100.5t53.5 103t58 101q-44 -57 -92.5 -115.5t-99.5 -111.5q-16 -17 -37 -38t-45.5 -43t-50.5 -43t-52 -36.5t-50.5 -23.5
t-45.5 -5q-23 4 -30.5 17t-5.5 34q3 19 13 43t26 52t35 59.5t40 64.5q26 41 51.5 82.5t46 81t33.5 75t14 64.5q1 35 -21.5 55.5t-78.5 22.5q-62 1 -119.5 -17.5t-106 -50.5t-87.5 -74t-65 -87q-12 -20 -22.5 -44t-16.5 -49t-6.5 -50.5t8.5 -47.5q20 -55 91 -68q-7 42 7.5 85
t37.5 77q28 40 67.5 66t84.5 25q22 0 43 -8.5t29 -31.5q5 -13 4 -27t-5 -28t-11 -27t-14 -23q-19 -28 -44.5 -51.5t-55.5 -40t-63.5 -24.5t-67.5 -4q13 -43 56 -59q5 -2 3.5 -6.5t-6.5 -2.5q-26 9 -41.5 27.5t-21.5 42.5q-42 6 -66.5 25.5t-35.5 48.5q-9 24 -9 50.5
t6.5 52.5t17 51t22.5 46q27 46 66.5 88.5t89.5 75.5t108.5 52t122.5 18q68 -2 95.5 -28t26.5 -69q-1 -32 -15 -71t-36.5 -82t-49.5 -87.5t-54 -86.5q-39 -61 -69.5 -112.5t-35.5 -83.5q-5 -28 17 -31q23 -3 53.5 9.5t66 38t74 61t78.5 77.5q35 37 70 77.5t68 82t63.5 81.5
t56.5 77q23 38 46.5 76.5t46.5 77.5q2 4 6.5 2t2.5 -7q-5 -9 -9.5 -18.5t-9.5 -18.5q-14 -27 -32.5 -59.5t-38.5 -68.5q-31 -55 -65 -116.5t-65 -123.5t-56 -123t-39 -115q-20 -76 -10 -129q7 -34 26.5 -53.5t45 -26t55 -1.5t56.5 20q45 24 81 62.5t65 84.5h11z" />
    <glyph glyph-name="Uacute" unicode="&#xda;" horiz-adv-x="914" 
d="M778 549q6 6 10 5t6 -5t1.5 -8.5t-1.5 -5.5q-15 -8 -19 -12l-10 -10q-4 -3 -6.5 -1t-0.5 7q6 17 20 30zM344 180q-42 1 -79.5 -24.5t-63.5 -63.5q-11 -16 -21 -35t-16 -40t-8.5 -42t1.5 -41q33 -4 64.5 4t59.5 24.5t51.5 40t40.5 49.5q6 9 12 21t10.5 25t6 26t-2.5 24
q-6 18 -22 24.5t-33 7.5zM997 -250q-30 -49 -69 -90.5t-86 -66.5q-29 -15 -62 -19.5t-62 3.5t-52 28.5t-33 55.5q-8 27 -6.5 59.5t9.5 69.5q10 45 29.5 94.5t44 100.5t53.5 103t58 101q-44 -57 -92.5 -115.5t-99.5 -111.5q-16 -17 -37 -38t-45.5 -43t-50.5 -43t-52 -36.5
t-50.5 -23.5t-45.5 -5q-23 4 -30.5 17t-5.5 34q3 19 13 43t26 52t35 59.5t40 64.5q26 41 51.5 82.5t46 81t33.5 75t14 64.5q1 35 -21.5 55.5t-78.5 22.5q-62 1 -119.5 -17.5t-106 -50.5t-87.5 -74t-65 -87q-12 -20 -22.5 -44t-16.5 -49t-6.5 -50.5t8.5 -47.5q20 -55 91 -68
q-7 42 7.5 85t37.5 77q28 40 67.5 66t84.5 25q22 0 43 -8.5t29 -31.5q5 -13 4 -27t-5 -28t-11 -27t-14 -23q-19 -28 -44.5 -51.5t-55.5 -40t-63.5 -24.5t-67.5 -4q13 -43 56 -59q5 -2 3.5 -6.5t-6.5 -2.5q-26 9 -41.5 27.5t-21.5 42.5q-42 6 -66.5 25.5t-35.5 48.5
q-9 24 -9 50.5t6.5 52.5t17 51t22.5 46q27 46 66.5 88.5t89.5 75.5t108.5 52t122.5 18q68 -2 95.5 -28t26.5 -69q-1 -32 -15 -71t-36.5 -82t-49.5 -87.5t-54 -86.5q-39 -61 -69.5 -112.5t-35.5 -83.5q-5 -28 17 -31q23 -3 53.5 9.5t66 38t74 61t78.5 77.5q35 37 70 77.5
t68 82t63.5 81.5t56.5 77q23 38 46.5 76.5t46.5 77.5q2 4 6.5 2t2.5 -7q-5 -9 -9.5 -18.5t-9.5 -18.5q-14 -27 -32.5 -59.5t-38.5 -68.5q-31 -55 -65 -116.5t-65 -123.5t-56 -123t-39 -115q-20 -76 -10 -129q7 -34 26.5 -53.5t45 -26t55 -1.5t56.5 20q45 24 81 62.5t65 84.5
h11z" />
    <glyph glyph-name="Ucircumflex" unicode="&#xdb;" horiz-adv-x="914" 
d="M790 518q-1 -5 -4 -6t-5 4q-3 7 -3 11.5t-7 14.5q-12 -1 -18 -2.5l-14 -3.5q-5 -2 -6 1.5t2 6.5q8 8 20.5 15t22.5 4q9 -9 11 -21t1 -24zM344 180q-42 1 -79.5 -24.5t-63.5 -63.5q-11 -16 -21 -35t-16 -40t-8.5 -42t1.5 -41q33 -4 64.5 4t59.5 24.5t51.5 40t40.5 49.5
q6 9 12 21t10.5 25t6 26t-2.5 24q-6 18 -22 24.5t-33 7.5zM997 -250q-30 -49 -69 -90.5t-86 -66.5q-29 -15 -62 -19.5t-62 3.5t-52 28.5t-33 55.5q-8 27 -6.5 59.5t9.5 69.5q10 45 29.5 94.5t44 100.5t53.5 103t58 101q-44 -57 -92.5 -115.5t-99.5 -111.5q-16 -17 -37 -38
t-45.5 -43t-50.5 -43t-52 -36.5t-50.5 -23.5t-45.5 -5q-23 4 -30.5 17t-5.5 34q3 19 13 43t26 52t35 59.5t40 64.5q26 41 51.5 82.5t46 81t33.5 75t14 64.5q1 35 -21.5 55.5t-78.5 22.5q-62 1 -119.5 -17.5t-106 -50.5t-87.5 -74t-65 -87q-12 -20 -22.5 -44t-16.5 -49
t-6.5 -50.5t8.5 -47.5q20 -55 91 -68q-7 42 7.5 85t37.5 77q28 40 67.5 66t84.5 25q22 0 43 -8.5t29 -31.5q5 -13 4 -27t-5 -28t-11 -27t-14 -23q-19 -28 -44.5 -51.5t-55.5 -40t-63.5 -24.5t-67.5 -4q13 -43 56 -59q5 -2 3.5 -6.5t-6.5 -2.5q-26 9 -41.5 27.5t-21.5 42.5
q-42 6 -66.5 25.5t-35.5 48.5q-9 24 -9 50.5t6.5 52.5t17 51t22.5 46q27 46 66.5 88.5t89.5 75.5t108.5 52t122.5 18q68 -2 95.5 -28t26.5 -69q-1 -32 -15 -71t-36.5 -82t-49.5 -87.5t-54 -86.5q-39 -61 -69.5 -112.5t-35.5 -83.5q-5 -28 17 -31q23 -3 53.5 9.5t66 38t74 61
t78.5 77.5q35 37 70 77.5t68 82t63.5 81.5t56.5 77q23 38 46.5 76.5t46.5 77.5q2 4 6.5 2t2.5 -7q-5 -9 -9.5 -18.5t-9.5 -18.5q-14 -27 -32.5 -59.5t-38.5 -68.5q-31 -55 -65 -116.5t-65 -123.5t-56 -123t-39 -115q-20 -76 -10 -129q7 -34 26.5 -53.5t45 -26t55 -1.5
t56.5 20q45 24 81 62.5t65 84.5h11z" />
    <glyph glyph-name="Udieresis" unicode="&#xdc;" horiz-adv-x="914" 
d="M724 545q5 0 8 -3.5t3 -7.5q0 -11 -11 -11t-11 11q0 5 3.5 8t7.5 3zM760 545q5 0 8 -3.5t3 -7.5q0 -11 -11 -11t-11 11q0 5 3.5 8t7.5 3zM344 180q-42 1 -79.5 -24.5t-63.5 -63.5q-11 -16 -21 -35t-16 -40t-8.5 -42t1.5 -41q33 -4 64.5 4t59.5 24.5t51.5 40t40.5 49.5
q6 9 12 21t10.5 25t6 26t-2.5 24q-6 18 -22 24.5t-33 7.5zM997 -250q-30 -49 -69 -90.5t-86 -66.5q-29 -15 -62 -19.5t-62 3.5t-52 28.5t-33 55.5q-8 27 -6.5 59.5t9.5 69.5q10 45 29.5 94.5t44 100.5t53.5 103t58 101q-44 -57 -92.5 -115.5t-99.5 -111.5q-16 -17 -37 -38
t-45.5 -43t-50.5 -43t-52 -36.5t-50.5 -23.5t-45.5 -5q-23 4 -30.5 17t-5.5 34q3 19 13 43t26 52t35 59.5t40 64.5q26 41 51.5 82.5t46 81t33.5 75t14 64.5q1 35 -21.5 55.5t-78.5 22.5q-62 1 -119.5 -17.5t-106 -50.5t-87.5 -74t-65 -87q-12 -20 -22.5 -44t-16.5 -49
t-6.5 -50.5t8.5 -47.5q20 -55 91 -68q-7 42 7.5 85t37.5 77q28 40 67.5 66t84.5 25q22 0 43 -8.5t29 -31.5q5 -13 4 -27t-5 -28t-11 -27t-14 -23q-19 -28 -44.5 -51.5t-55.5 -40t-63.5 -24.5t-67.5 -4q13 -43 56 -59q5 -2 3.5 -6.5t-6.5 -2.5q-26 9 -41.5 27.5t-21.5 42.5
q-42 6 -66.5 25.5t-35.5 48.5q-9 24 -9 50.5t6.5 52.5t17 51t22.5 46q27 46 66.5 88.5t89.5 75.5t108.5 52t122.5 18q68 -2 95.5 -28t26.5 -69q-1 -32 -15 -71t-36.5 -82t-49.5 -87.5t-54 -86.5q-39 -61 -69.5 -112.5t-35.5 -83.5q-5 -28 17 -31q23 -3 53.5 9.5t66 38t74 61
t78.5 77.5q35 37 70 77.5t68 82t63.5 81.5t56.5 77q23 38 46.5 76.5t46.5 77.5q2 4 6.5 2t2.5 -7q-5 -9 -9.5 -18.5t-9.5 -18.5q-14 -27 -32.5 -59.5t-38.5 -68.5q-31 -55 -65 -116.5t-65 -123.5t-56 -123t-39 -115q-20 -76 -10 -129q7 -34 26.5 -53.5t45 -26t55 -1.5
t56.5 20q45 24 81 62.5t65 84.5h11z" />
    <glyph glyph-name="Yacute" unicode="&#xdd;" horiz-adv-x="899" 
d="M778 549q6 6 10 5t6 -5t1.5 -8.5t-1.5 -5.5q-15 -8 -19 -12l-10 -10q-4 -3 -6.5 -1t-0.5 7q6 17 20 30zM841 181q-34 -54 -75.5 -120t-90.5 -133.5t-104.5 -131.5t-117.5 -113.5t-129.5 -79.5t-139.5 -29q-19 0 -39 3.5t-38 11t-32 20.5t-22 33q-8 21 -7 43t7 44t16.5 43
t21.5 38q25 39 62.5 74.5t83.5 62.5t99 42t109 12q33 -2 50.5 -14.5t22.5 -32t-1.5 -43t-22.5 -46.5q-23 -33 -63 -65.5t-83 -55.5q-11 -6 -30 -15.5t-40 -17t-40.5 -9.5t-31.5 6q-4 3 -1.5 7t7.5 1q10 -7 28.5 -4t38.5 10t38 16t27 14q42 23 81 55t61 64q14 21 20.5 41.5
t2.5 37.5t-19.5 28t-45.5 13q-54 3 -105.5 -11.5t-96 -40.5t-81 -61.5t-61.5 -72.5q-11 -16 -20.5 -36t-16 -41t-7.5 -42t7 -40q7 -18 20 -30t29.5 -19t35 -10t36.5 -3q64 -1 125.5 28t119.5 77t111 109.5t99.5 125t86 124.5t69.5 108q20 31 39.5 60.5t37.5 56.5
q-38 -38 -82.5 -73.5t-90.5 -64.5q-50 -30 -97.5 -48.5t-88.5 -18.5q-12 0 -24.5 2t-21.5 7.5t-14 15.5t-2 27q4 25 21.5 57t39.5 66q12 20 23.5 39.5t20.5 38t14.5 35t5.5 29.5q-1 18 -16 29t-52 11q-48 0 -98.5 -9.5t-97 -29.5t-87.5 -50t-69 -71q-10 -14 -18 -31.5
t-12.5 -35.5t-4 -36.5t9.5 -35.5q9 -19 27.5 -32.5t47.5 -18.5q-6 37 6 78q7 24 19.5 48.5t29 46.5t37 39t44.5 28q15 7 35 10.5t39.5 1t36 -12t23.5 -28.5q9 -26 -1.5 -54.5t-24.5 -50.5q-16 -23 -38 -44.5t-48.5 -38.5t-57 -27t-61.5 -10q-7 0 -13.5 0.5t-13.5 1.5
q6 -20 19.5 -35.5t36.5 -23.5q5 -2 3.5 -7t-6.5 -3q-26 10 -41.5 28t-21.5 42q-33 6 -54 21t-32 36q-9 18 -10 38t3.5 39.5t13 38t19.5 34.5q29 42 70.5 72.5t89.5 51t99.5 30.5t100.5 10q50 -1 70 -16t21 -41q0 -16 -6 -35t-16 -39.5t-22.5 -42t-25.5 -42.5
q-20 -32 -35.5 -60.5t-19.5 -48.5q-2 -11 0.5 -17.5t8.5 -9.5t13.5 -4t15.5 -1q40 -1 86.5 17.5t95.5 47.5q60 38 117 87t101 99q37 51 69 81.5t59 34.5q5 0 5.5 -4.5t-4.5 -5.5q-14 -2 -32.5 -18t-38 -40.5t-40 -54t-38 -57t-31 -50.5t-20.5 -34zM353 309q-24 -9 -44.5 -26
t-37.5 -38.5t-29.5 -45.5t-19.5 -48q-6 -21 -8 -41t2 -37q6 -1 12.5 -1.5t13.5 -0.5q29 0 57 9.5t53 26t45.5 38t35.5 44.5q13 19 23 46t3 50q-5 16 -18 23.5t-28.5 9t-31.5 -1.5t-28 -7z" />
    <glyph glyph-name="AE" unicode="&#xc6;" horiz-adv-x="1190" 
d="M648 -164q9 -15 23 -25t31 -15.5t35 -7.5t35 -2q30 1 63.5 8t70.5 23q63 27 121.5 71.5t102.5 97.5q32 38 60 86q2 5 6.5 2.5t2.5 -7.5q-14 -24 -29 -45.5t-32 -41.5q-45 -54 -104.5 -99.5t-123.5 -72.5q-38 -16 -72.5 -23.5t-65.5 -8.5q-20 0 -41 2.5t-41.5 9
t-37.5 17.5t-28 28q-5 7 -7 14t-4 15q-22 -45 -38 -87t-23 -77.5t-4.5 -63t16.5 -45.5q2 -4 -1.5 -7t-6.5 1q-18 18 -24.5 44.5t-3 60t15.5 72.5t31 81q23 52 53.5 107t65.5 110q-20 5 -38.5 11t-38.5 12q-42 -52 -87.5 -101.5t-95 -89.5t-104 -67.5t-114.5 -35.5
q-38 -5 -73.5 -0.5t-61 20.5t-36 45t2.5 73q13 45 45.5 90.5t75 83.5t89.5 67t91 41q16 4 40 7.5t48.5 1.5t45.5 -12t30 -31q6 -14 5 -29.5t-6 -29.5q22 -2 43.5 -7t41.5 -10l21 25q20 23 44.5 53t52 60.5t58 59.5t63 51.5t66 36.5t67.5 14q15 13 28.5 23t24.5 16
q31 17 42 6t-9 -30q23 14 48.5 22.5t53.5 8.5q22 0 41 -6t30 -18t11.5 -29t-12.5 -39q-12 -20 -34 -36.5t-51 -24.5l-2 10q26 8 46.5 23t31.5 33q12 20 11 34.5t-10.5 24t-25.5 14t-34 4.5q-31 0 -59 -13.5t-51 -35.5q-18 -17 -33 -38.5t-25.5 -46t-15 -50.5t-1.5 -51
q3 -33 21 -55h18t18 -1q22 -3 29 -10.5t2.5 -14t-16.5 -9.5t-27 3q-8 4 -17 10t-16 12q-18 -1 -35 -2.5t-34 -4.5q-81 -15 -143 -56.5t-97 -90.5q-10 -16 -19.5 -33.5t-15 -35.5t-5 -37t10.5 -37zM214 -203q53 8 102.5 35.5t96 67.5t91 88.5t86.5 99.5q-20 5 -40.5 10
t-41.5 7q-5 -14 -13.5 -27t-18.5 -27q-20 -27 -46.5 -52.5t-55 -45t-57 -31t-50.5 -11.5q-24 0 -34 11t-10.5 27t6.5 33.5t16 30.5q17 24 45 46.5t66 37.5q33 14 67.5 18t69.5 1q5 13 7 27.5t-3 28.5q-7 18 -25.5 26t-40.5 9t-43.5 -2t-34.5 -7q-43 -12 -89.5 -40.5t-88 -66
t-73.5 -81.5t-45 -88q-12 -41 -2 -67.5t34 -41t57.5 -18t67.5 1.5zM913 136q31 4 63 6q-22 25 -28 59q-3 24 0.5 47.5t12.5 46t22 43t28 36.5q5 5 10.5 11t12.5 11q-11 -5 -24 -8t-27 -1q-29 -29 -64.5 -69t-73.5 -90q-35 -45 -65 -88.5t-59 -88.5q38 29 86.5 51.5
t105.5 33.5zM267 -79q20 0 45.5 11t52 30.5t51.5 44t44 51.5q9 13 16.5 25t12.5 24q-34 2 -66 -2t-64 -17q-37 -15 -63.5 -36.5t-42.5 -44.5q-7 -11 -13.5 -25.5t-7.5 -28t6.5 -23t28.5 -9.5zM699 67l38 55q49 69 98.5 129.5t92.5 105.5q15 16 30 30q-37 -4 -73.5 -26
t-73 -56.5t-73.5 -78t-76 -91.5l-38 -46zM1030 427q-20 -14 -37 -31q17 1 30 6.5t22 12.5q19 15 12 20.5t-27 -8.5zM1004 133q11 -9 19 -12q9 -4 18 -3.5t12 3.5t-2.5 6t-23.5 5q-5 1 -11 1h-12z" />
    <glyph glyph-name="oe" unicode="&#x153;" horiz-adv-x="251" 
d="M39 -29q-9 -8 -20 -14.5t-24 -4.5q-26 4 -31 28q-3 18 7 41t28 38q-2 10 2 19t12 15q9 8 21.5 11t23.5 0.5t19.5 -11t10.5 -22.5v-11q10 11 21.5 20.5t25.5 15.5q11 5 22 5.5t17.5 -3t7.5 -12t-8 -21.5q-8 -14 -28 -26.5t-52 -14.5q-6 -13 -10 -29q-2 -15 1 -23
q3 -7 9 -9t13 -1t13.5 3.5t10.5 4.5q16 7 32.5 19.5t32 26.5t29.5 28.5t26 27.5q4 4 7.5 0.5t-0.5 -7.5q-12 -13 -27 -28t-31 -29.5t-33 -26.5t-33 -20q-17 -8 -39 -8t-32 20q-5 9 -5 21q-5 -7 -9.5 -12.5t-9.5 -10.5zM7 40q-14 -17 -20 -37q-3 -12 -3 -22q2 -16 13 -19
q10 -2 19 4t16 13q17 15 31 39q-15 1 -30.5 5.5t-25.5 16.5zM51 68q4 -2 2.5 -6.5t-6.5 -2.5q-15 3 -30 -9q6 -14 21 -18t29 -4q12 23 11 42q-1 10 -6.5 16t-13 8t-16 0.5t-15.5 -7.5q-7 -7 -10 -16q19 7 34 -3zM143 86q-12 -8 -23.5 -21.5t-20.5 -30.5q26 3 42.5 14
t24.5 22q6 9 5.5 14.5t-4.5 7.5t-10.5 0t-13.5 -6z" />
    <glyph glyph-name="OE" unicode="&#x152;" horiz-adv-x="1161" 
d="M401 -223q-35 -15 -77.5 -21t-82 1.5t-71.5 31t-46 67.5q-12 36 -9 76.5t16 80t32 76.5t39 67q50 73 122 136.5t160 101.5q-35 18 -70 34.5t-70 28.5q-27 9 -55.5 14.5t-56.5 5t-55 -9t-51 -26.5q-31 -24 -49 -60t-23 -75.5t3.5 -79t32.5 -69.5q2 -4 -1.5 -7t-6.5 1
q-25 32 -34 73.5t-4 82.5t24.5 78.5t51.5 62.5q25 19 53 28t58 10t60 -4t58 -13q43 -13 78 -30.5t73 -37.5q45 18 91.5 28t96.5 10q43 0 75 -6t55 -17q29 -12 43.5 -29t16.5 -34q3 -25 -18 -43q-20 -18 -50.5 -20.5t-56.5 -0.5q3 -25 -1 -54.5t-14 -62.5
q-11 -32 -27.5 -66.5t-37.5 -69.5q40 35 93.5 62t117.5 38q31 4 63 6q-22 25 -28 59q-7 46 12 93t51 80q28 31 65.5 50t80.5 19q22 0 41 -6t30 -18t11.5 -29t-12.5 -39q-12 -20 -34 -36.5t-51 -24.5l-2 10q26 8 46.5 23t31.5 33q12 20 11 34.5t-10.5 24t-25.5 14t-34 4.5
q-31 0 -59 -13.5t-51 -35.5q-18 -17 -32.5 -39t-25 -46.5t-15.5 -50t-2 -50.5q3 -33 21 -55h18t18 -1q22 -3 29 -10.5t2.5 -14t-16.5 -9.5t-27 3q-8 4 -17 10t-16 12q-18 -1 -35 -2.5t-34 -4.5q-85 -16 -148.5 -60t-97.5 -96q-9 -14 -17 -31t-12 -35t-3 -35.5t9 -32.5
q9 -15 23 -25t31 -15.5t35 -7.5t35 -2q30 1 63.5 8t70.5 23q63 27 121.5 71.5t102.5 97.5q32 38 60 86q2 5 6.5 2.5t2.5 -7.5q-14 -24 -29 -45.5t-32 -41.5q-45 -54 -104.5 -99.5t-123.5 -72.5q-38 -16 -72.5 -23.5t-65.5 -8.5q-20 0 -41 2.5t-41.5 9t-37.5 17.5t-28 28
q-12 20 -12 44t8 47q-41 -47 -88.5 -85t-101.5 -62zM743 290q-47 7 -93 25.5t-93 41.5q-51 -20 -97 -59t-81 -87q-17 -23 -33 -51.5t-26.5 -59.5t-14 -62.5t3.5 -61.5q9 -37 31.5 -60.5t53 -35.5t65 -13.5t67.5 6.5q22 20 41.5 41.5t38.5 44.5q16 27 36 47q33 51 53.5 91.5
t32.5 77.5q11 32 15 61.5t0 53.5zM284 -23q-8 30 -5.5 62t12.5 62.5t25.5 59t33.5 52.5q37 50 86 90t105 61q-11 6 -21 11.5t-21 10.5q-83 -38 -151 -99.5t-116 -133.5q-20 -29 -39 -66t-32.5 -77t-17.5 -80.5t7 -76.5q12 -41 40 -61.5t63.5 -26.5t73 0.5t69.5 19.5
q29 14 58.5 32.5t56.5 42.5q-33 -6 -69 -2t-68 18.5t-56 39.5t-34 61zM559 371q27 8 57.5 11.5t58.5 -2.5t48.5 -24.5t28.5 -53.5q24 -5 53 -3.5t49 18.5q17 15 14 35q-2 14 -15 29t-39 26q-22 10 -53 16t-73 6q-46 0 -89 -9.5t-84 -26.5q10 -5 21 -11t23 -11zM575 363
q46 -21 97 -40q18 -6 35 -11t34 -9q-7 30 -25 45.5t-42 21t-50 3t-49 -9.5zM975 133q11 -9 19 -12q9 -4 18 -3.5t12 3.5t-2.5 6t-23.5 5q-5 1 -11 1h-12z" />
    <glyph glyph-name="cent" unicode="&#xa2;" horiz-adv-x="150" 
d="M71 157q2 5 6.5 3t2.5 -5l-18 -64q22 -5 21 -30q-1 -5 -6 -4.5t-4 5.5q0 16 -14 20q-8 -27 -17 -57t-18 -58q10 5 21 12t22 15q23 18 43 38l40 40q3 4 6.5 0.5t0.5 -7.5q-20 -21 -40.5 -41t-43.5 -37q-14 -11 -27 -19t-26 -13l-23 -73q-2 -4 -8 -3t-5 7l7.5 27.5
t11.5 37.5h-1q-14 0 -23.5 7.5t-14 18.5t-4 24.5t5.5 25.5q7 19 23 35q8 8 20 16.5t26 12.5q10 2 15 2q5 15 10.5 31t10.5 33zM41 81q-8 -4 -16 -11t-14 -15q-13 -18 -20 -36q-3 -6 -5.5 -16t-3 -19t3.5 -16t15 -7h5l41 122z" />
    <glyph glyph-name="asciitilde" unicode="~" horiz-adv-x="219" 
d="M67 50q-1 2 -1 6t2 2q8 -7 20 -4.5t24 6t22 4.5t14 -9q2 -5 0.5 -9.5t-3.5 0.5q-3 9 -14 8t-24 -4.5t-24.5 -5.5t-15.5 6z" />
    <glyph glyph-name="quoteleft" unicode="&#x2018;" horiz-adv-x="247" 
d="M48 275q5 1 5.5 -3.5t-5.5 -5.5q-8 -2 -8 -12.5t2 -16.5q1 0 1 -3q-2 -5 -12.5 -5.5t-10.5 7.5q-4 12 3 25q5 6 11 9t14 5z" />
    <glyph glyph-name="quoteright" unicode="&#x2019;" horiz-adv-x="251" 
d="M25 226q-5 -1 -5.5 3.5t5.5 5.5q8 2 8 12.5t-2 16.5q-1 0 -1 3q2 5 12.5 5.5t10.5 -7.5q4 -12 -3 -25q-5 -6 -11 -9t-14 -5z" />
    <glyph glyph-name="quotedblleft" unicode="&#x201c;" horiz-adv-x="249" 
d="M48 275q5 1 5.5 -3.5t-5.5 -5.5q-8 -2 -8 -12.5t2 -16.5q1 0 1 -3q-2 -5 -12.5 -5.5t-10.5 7.5q-4 12 3 25q5 6 11 9t14 5zM104 275q5 1 5.5 -3.5t-5.5 -5.5q-8 -2 -8 -12.5t2 -16.5q1 0 1 -3q-2 -5 -12.5 -5.5t-10.5 7.5q-4 12 3 25q5 6 11 9t14 5z" />
    <glyph glyph-name="quotedblright" unicode="&#x201d;" horiz-adv-x="256" 
d="M81 226q-5 -1 -5.5 3.5t5.5 5.5q8 2 8 12.5t-2 16.5q-1 0 -1 3q2 5 12.5 5.5t10.5 -7.5q4 -12 -3 -25q-5 -6 -11 -9t-14 -5zM25 226q-5 -1 -5.5 3.5t5.5 5.5q8 2 8 12.5t-2 16.5q-1 0 -1 3q2 5 12.5 5.5t10.5 -7.5q4 -12 -3 -25q-5 -6 -11 -9t-14 -5z" />
    <glyph glyph-name="quotedblbase" unicode="&#x201e;" horiz-adv-x="247" 
d="M81 22q-5 -1 -5.5 3.5t5.5 5.5q8 2 8 12.5t-2 16.5q-1 0 -1 3q2 5 12.5 5.5t10.5 -7.5q4 -12 -3 -25q-5 -6 -11 -9t-14 -5zM25 22q-5 -1 -5.5 3.5t5.5 5.5q8 2 8 12.5t-2 16.5q-1 0 -1 3q2 5 12.5 5.5t10.5 -7.5q4 -12 -3 -25q-5 -6 -11 -9t-14 -5z" />
    <glyph glyph-name="quotedbl" unicode="&#x22;" horiz-adv-x="269" 
d="M191 236q5 1 4 -1.5t-4 -7.5q-2 -5 0.5 -16.5t4.5 -17.5q1 0 1 -3q-2 -5 -12.5 -5.5t-10.5 7.5q-3 10 2 25.5t15 18.5zM159 236q5 1 4 -1.5t-4 -7.5q-2 -5 0.5 -16.5t4.5 -17.5q1 0 1 -3q-2 -5 -12.5 -5.5t-10.5 7.5q-3 10 2 25.5t15 18.5z" />
    <glyph glyph-name="quotesingle" unicode="'" horiz-adv-x="269" 
d="M159 236q5 1 4 -1.5t-4 -7.5q-2 -5 0.5 -16.5t4.5 -17.5q1 0 1 -3q-2 -5 -12.5 -5.5t-10.5 7.5q-3 10 2 25.5t15 18.5z" />
    <glyph glyph-name="exclamdown" unicode="&#xa1;" horiz-adv-x="403" 
d="M75.0205 -161.981q-3 -5 -7.99902 -2q-5 3 -1 6.99902q4.99902 7 19.499 30.498q14.499 23.499 35.9971 57.9971q21.499 34.498 47.4971 76.9951q25.999 42.4971 53.9971 86.4951q19.999 32.998 39.9971 64.4961q19.999 31.498 37.998 60.4961q2 4 7 2.5
q4.99902 -1.5 4.99902 -8.5q0 -6.99902 -10.499 -26.998t-27.998 -47.9971t-39.498 -61.9961q-21.998 -33.998 -44.9971 -67.9961t-44.4971 -65.9961q-21.499 -31.998 -38.498 -55.9961q-13.999 -19.999 -21.998 -32.498q-8 -12.5 -10 -16.499zM351.004 297.99
q3 -9 -4 -18.999q-6.99902 -11.999 -14.999 -11.999q-4 -1 -7.99902 2q-1 1 -5 5.99902q-3 5 5 17.999q6.99902 12.999 15.999 10q3.99902 1 7.99902 -1q0 -2 1.5 -2.5t1.5 -1.5z" />
    <glyph glyph-name="questiondown" unicode="&#xbf;" horiz-adv-x="426" 
d="M256.012 117q26.998 15.999 49.9971 39.998q10.999 9.99902 21.498 21.498q10.5 11.5 19.499 23.499q3 3.99902 7 1q4 -3 2 -8q-9 -11.999 -19.999 -23.498q-10.999 -11.5 -21.999 -22.499q-11.999 -10.999 -23.998 -20.499q-12 -9.49902 -25.999 -18.499
q-11.999 -8.99902 -34.4971 -24.498q-22.499 -15.499 -46.998 -35.998q-24.498 -20.498 -46.9971 -44.4971q-22.498 -23.998 -33.4971 -49.9971q-11 -23.998 -10 -43.4971t10.999 -33.998q10 -14.499 28.499 -22.499q18.498 -7.99902 43.4971 -8.99902
q24.998 -1 49.4971 5.5q24.498 6.49902 45.9971 18.499q21.499 11.999 39.4971 29.998q17.999 17.998 29.999 39.9971q3.99902 7 7.49902 17.499t5 21.499q1.5 10.999 -1.5 20.498q-3 9.5 -12.999 15.499q-7 3 -17.999 3q-4 0 -4 4.5t4 4.5q6 0 11.499 -1q5.5 -1 10.499 -3
q12 -6 16.499 -16.999q4.5 -10.999 3.5 -23.999q-1 -12.999 -4.49902 -25.498q-3.5 -12.499 -8.5 -21.499q-25.998 -48.9971 -72.9951 -73.9951t-100.994 -26.998q-27.998 -1 -51.9971 7.49902q-23.998 8.5 -38.4971 24.999t-16.999 39.4971q-2.5 22.999 10.499 51.9971
q12.999 26.998 37.498 51.9971q24.498 24.998 51.4961 45.9971q26.999 20.999 51.4971 36.498q24.499 15.499 37.498 24.498zM402.003 278.99q3 -9 -4 -18.999q-7 -11.999 -14.999 -11.999q-4 -1 -8 2q-1 1 -4.99902 5.99902q-3 5 4.99902 17.999q7 12.999 15.999 10
q4 1 8 -1q0 -2 1.5 -2.5t1.5 -1.5z" />
    <glyph glyph-name="ccedilla" unicode="&#xe7;" horiz-adv-x="150" 
d="M-28 -73q12 -4 19 2.5t-2 11.5q-2 2 -5.5 3.5t-2.5 3.5q2 3 3 6.5t4 8.5h4q-3 -5 -4 -8.5t-3 -6.5q-1 -2 2.5 -3.5t5.5 -3.5q4 -3 4 -6.5t-4 -6.5t-9.5 -4.5t-11.5 0.5v3zM83 61q-1 -5 -6 -4.5t-4 5.5q1 14 -10 19t-22 0q-8 -4 -16 -11t-14 -15q-13 -18 -20 -36
q-3 -6 -5.5 -16t-3 -19t3.5 -16t15 -7q13 -1 30.5 9t35.5 24q23 18 43 38l40 40q3 4 6.5 0.5t0.5 -7.5q-20 -21 -40.5 -41t-43.5 -37q-19 -15 -37.5 -25.5t-33.5 -10.5q-14 0 -23.5 7.5t-14 18.5t-4 24.5t5.5 25.5q7 19 23 35q8 8 20 16.5t26 12.5q17 5 33.5 -2t14.5 -28z
" />
    <glyph glyph-name="Ccedilla" unicode="&#xc7;" horiz-adv-x="886" 
d="M324 -232q12 -4 19 2.5t-2 11.5q-2 2 -5.5 3.5t-2.5 3.5q2 3 3 6.5t4 8.5h4q-3 -5 -4 -8.5t-3 -6.5q-1 -2 2.5 -3.5t5.5 -3.5q4 -3 4 -6.5t-4 -6.5t-9.5 -4.5t-11.5 0.5v3zM414 -207q58 -5 126 10t134 52q63 35 118.5 88.5t93.5 128.5q2 5 6.5 2.5t2.5 -7.5
q-39 -75 -95.5 -130.5t-120.5 -90.5q-68 -38 -137.5 -53t-129.5 -10q-24 2 -47.5 8.5t-44.5 18t-38 28.5t-27 40q-14 31 -12.5 64.5t9.5 65.5q-54 3 -96 12q-70 15 -107 44q-19 14 -31.5 34t-7.5 45q2 5 6.5 4t3.5 -6q-5 -22 6.5 -39.5t28.5 -30.5t42.5 -23.5t60.5 -18.5
q21 -5 45 -7.5t52 -3.5q10 32 26.5 64t39.5 64q35 51 82 97.5t101 82.5t112.5 58.5t116.5 25.5q34 2 67.5 -5.5t57 -25.5t33.5 -46.5t-2 -68.5q-15 -52 -59 -93t-107 -72q-75 -37 -165.5 -58.5t-178.5 -29.5q-27 -2 -52 -3t-48 -1q-9 -31 -11.5 -65t10.5 -65q18 -42 56 -61
t80 -23zM346 141q-43 -63 -64 -124q23 0 46.5 1t49.5 3q88 8 177.5 29.5t163.5 57.5q60 30 103 69t58 90q11 38 1.5 64t-32 42t-53.5 22t-63 5q-53 -2 -107.5 -24t-105.5 -57.5t-95.5 -81.5t-78.5 -96z" />
    <glyph glyph-name="a" unicode="a" horiz-adv-x="239" 
d="M75 59q0 14 -9 20q-14 11 -31 -1q-11 -9 -20.5 -26.5t-8.5 -31.5q0 -10 7 -11q6 -1 13.5 3.5t16 12t16.5 16.5zM119 79q-8 -10 -22 -30t-22 -41q-9 -24 -4.5 -34t16 -11t27 5.5t29.5 16.5q13 8 25.5 18.5t23.5 21.5q13 11 24.5 23t22.5 24q3 4 6.5 0.5t0.5 -7.5
q-23 -24 -47 -47q-11 -11 -24 -21.5t-26 -19.5q-11 -8 -27.5 -15t-32 -7.5t-27 7t-12.5 29.5q-1 14 7 34q-11 -12 -23 -19.5t-23 -5.5q-12 1 -18.5 7t-9.5 14q-5 18 6.5 37t26.5 28q12 8 28.5 9t27.5 -8q8 -6 12 -18q16 19 29 18.5t6 -8.5z" />
    <glyph glyph-name="b" unicode="b" horiz-adv-x="213" 
d="M-3 0q-2 -4 -6 -3t-4 5q-1 21 5 44.5t15 47t21 45t23 38.5q29 43 66.5 75t79.5 37q19 2 33.5 -5t9.5 -33q-3 -17 -16 -35q-12 -17 -33.5 -37.5t-54.5 -42.5q-18 -12 -36.5 -23t-35.5 -21q-26 -15 -45 -27q-4 -10 -7.5 -19.5t-6.5 -18.5q11 12 22.5 21.5t25.5 14.5
q20 8 34 1t11 -30q-2 -8 -5 -15.5t-7 -15.5q29 8 60.5 23t66.5 46q3 3 6.5 -0.5t-0.5 -6.5q-39 -35 -74 -51t-67 -23q-14 -18 -35 -33.5t-47 -22.5q-11 -3 -24 -3t-21 8q-6 5 -7 12.5t3 13.5q5 8 17 14.5t32 9.5q14 2 28.5 3.5t28.5 3.5q7 10 14 22.5t9 23.5q3 13 -2.5 14
t-15.5 -2q-20 -8 -35 -23t-26 -32zM26 81q8 5 16 9.5t17 9.5q17 11 35.5 21.5t35.5 22.5q63 42 86 78q12 18 15 31q4 19 -7 24t-26 2q-26 -5 -52.5 -26.5t-49.5 -52.5q-21 -27 -38.5 -58.5t-31.5 -60.5zM-7 -55q14 5 27.5 16t24.5 25l-48 -6q-17 -2 -27 -7.5t-14 -11.5
q-5 -8 1 -13q7 -6 17.5 -6t18.5 3z" />
    <glyph glyph-name="c" unicode="c" horiz-adv-x="150" 
d="M83 61q-1 -5 -6 -4.5t-4 5.5q1 14 -10 19t-22 0q-8 -4 -16 -11t-14 -15q-13 -18 -20 -36q-3 -6 -5.5 -16t-3 -19t3.5 -16t15 -7q13 -1 30.5 9t35.5 24q23 18 43 38l40 40q3 4 6.5 0.5t0.5 -7.5q-20 -21 -40.5 -41t-43.5 -37q-19 -15 -37.5 -25.5t-33.5 -10.5
q-14 0 -23.5 7.5t-14 18.5t-4 24.5t5.5 25.5q7 19 23 35q8 8 20 16.5t26 12.5q17 5 33.5 -2t14.5 -28z" />
    </font>
</defs>
</svg>
