<?xml version="1.0" standalone="no"?>
<!DOCTYPE svg PUBLIC "-//W3C//DTD SVG 1.1//EN" "http://www.w3.org/Graphics/SVG/1.1/DTD/svg11.dtd" >
<svg>
<metadata>
Created by FontForge 20120731 at Mon Mar 25 16:13:22 2019
 By www-data
Blueberry (c)Din Studio. 2018. All Rights Reserved
</metadata>
<defs>
<font id="Blueberry-Regular" horiz-adv-x="585" >
  <font-face 
    font-family="Blueberry Regular"
    font-weight="400"
    font-stretch="normal"
    units-per-em="1000"
    panose-1="2 0 5 0 0 0 0 0 0 0"
    ascent="800"
    descent="-200"
    x-height="305"
    cap-height="739"
    bbox="-98.0392 -552 1011 988"
    underline-thickness="50"
    underline-position="-50"
    unicode-range="U+001D-201D"
  />
<missing-glyph horiz-adv-x="500" 
 />
    <glyph glyph-name=".notdef" horiz-adv-x="500" 
 />
    <glyph glyph-name=".null" horiz-adv-x="0" 
 />
    <glyph glyph-name=".null" horiz-adv-x="0" 
 />
    <glyph glyph-name="nonmarkingreturn" horiz-adv-x="508" 
 />
    <glyph glyph-name="space" unicode=" " horiz-adv-x="250" 
 />
    <glyph glyph-name="space" unicode="&#xa0;" horiz-adv-x="250" 
 />
    <glyph glyph-name="exclam" unicode="!" horiz-adv-x="369" 
d="M256 -284q24 -10 20 -26q-4 -15 -44.5 -29t-87 -13.5t-60.5 22.5q-10 14 7 27q36 23 81 29t84 -10zM145 642q29 46 106 48q64 1 89 -27q14 -15 4 -34q-50 -98 -112 -547q-35 -256 -26 -253q-2 -16 -26.5 -24t-50.5 -3.5t-31 18.5q-24 78 -31 243t13 336.5t65 242.5z" />
    <glyph glyph-name="quotedbl" unicode="&#x22;" horiz-adv-x="265" 
d="M46 781q2 1 6 3.5t14.5 6t20 3t20 -8t17.5 -23.5q11 -30 2 -60t-26 -52.5t-29 -23.5q-10 0 -17.5 5.5t-9.5 11.5l-3 6q11 2 21.5 18.5t15.5 32.5t2 18q-3 -1 -8 -2t-16.5 -3t-12.5 1q-7 5 -11.5 14t-2 24t16.5 29zM161 774q2 1 5.5 2.5t13.5 2.5t18 -0.5t16 -9.5t12 -22
q9 -35 -18 -73.5t-45 -36.5q-9 1 -14.5 6.5t-6.5 10.5l-2 6q14 1 30.5 25.5t12.5 29.5q-28 -3 -32 1q-10 5 -9.5 24t19.5 34z" />
    <glyph glyph-name="numbersign" unicode="#" horiz-adv-x="756" 
d="M705 241q33 -3 16 -34q-16 -24 -32 -28q-66 0 -98 1q-7 -24 -21.5 -72.5t-21.5 -72.5q63 -2 111 -13q12 -5 12 -16.5t-10.5 -23.5t-22.5 -13q-37 -4 -111 -2q-57 -173 -74 -211q-4 -8 -18 -14t-31.5 -7.5t-34.5 0.5t-27.5 9t-9.5 18q4 36 51 210q-41 1 -107 1
q-43 -134 -48 -144q-10 -23 -67 -23t-56 29q1 51 22 132q-63 -6 -100 9q-10 3 -14.5 12.5t5.5 17.5q24 16 125 24q17 62 41 130q-45 -2 -72 4q-14 4 -22.5 13t2.5 22q31 22 115 28q25 71 51 133q15 34 37 51.5t42 17t35.5 -6t21.5 -14.5q8 -12 -36 -168q43 3 105 5
q69 222 91 240q19 15 53.5 15.5t49.5 -19.5q12 -22 -48 -236q64 -2 96 -4zM402 38q19 66 41 141q-60 -2 -104 -5q-6 -18 -20 -65.5t-22 -71.5q37 1 105 1z" />
    <glyph glyph-name="dollar" unicode="$" horiz-adv-x="554" 
d="M235 110q19 -9 54 -25.5t55 -26.5t47 -26.5t42 -31t25.5 -35.5t10.5 -44q0 -77 -65 -126t-160 -54q5 -72 9 -83q-3 -12 -24.5 -11.5t-24.5 9.5q-6 11 -16 86q-88 6 -148 40.5t-87 81.5q-20 43 10 82q26 33 58 23q18 -5 31 -28q42 -75 125 -96q-7 64 -16 199
q-44 24 -74.5 46t-62.5 54.5t-47.5 74.5t-14.5 91q2 82 55 143t143 78q4 39 11 79q4 18 26 23t41.5 -2.5t17.5 -21.5q-6 -28 -9 -72q82 -6 137 -53t65 -112.5t-21 -138.5q-16 -41 -55 -54.5t-70 3.5t-26 52q12 57 4.5 128t-40.5 97q-8 -151 -6 -349zM92 259q7 -55 64 -101
q-7 177 -1 306q-44 -23 -57 -86.5t-6 -118.5zM320 -111q13 32 -9.5 58t-74.5 55q2 -113 4 -162q62 6 80 49z" />
    <glyph glyph-name="percent" unicode="%" horiz-adv-x="690" 
d="M664 459h1h-1zM529 -265h1h-1zM197 217q-33 -3 -58 29.5t-32.5 80t-3.5 96t28 82.5t62 34q42 0 69 -32t32 -78.5t-2 -93t-33 -81t-62 -37.5zM187 258q11 0 20 24t12.5 58.5t2.5 68.5t-11 57.5t-28 22.5q-25 -2 -30 -88q-5 -91 17 -130q7 -14 17 -13zM522 114
q48 0 79.5 -37t37.5 -91t-2 -108t-38.5 -93.5t-72.5 -43.5q-38 -3 -66.5 34.5t-37.5 92.5t-4.5 111t32.5 95.5t72 39.5zM515 -211q21 0 34 68t4 134.5t-43 64.5q-23 -1 -32 -69t2 -134.5t35 -63.5zM521 523q19 30 44 43.5t45.5 9t37.5 -19t19.5 -41t-7.5 -55.5
q-54 -75 -253 -365t-234 -338q-40 -64 -81 -58q-28 5 -34 38q-5 29 14 60q293 484 449 726z" />
    <glyph glyph-name="ampersand" unicode="&#x26;" horiz-adv-x="732" 
d="M604 -303h-16h16zM505 -265q4 0 10.5 -0.5t24 -3t30.5 -6t23.5 -10.5t10.5 -17q-1 -28 -71 -35q-87 -6 -171 37q-73 -48 -149 -55.5t-128 15.5t-78 63q-21 33 -22.5 72.5t16 80.5t35.5 71t45 66q-72 134 -99.5 254t-13.5 205.5t55.5 147t104 90.5t136.5 26q93 -5 168 -80
t71 -185q-2 -54 -17.5 -104t-49 -102t-57.5 -83.5t-75 -90t-69 -80.5q53 -96 120 -169q56 71 121 180q13 23 67 22q52 0 59 -23q2 -6 -1 -13q-70 -152 -159 -241q31 -22 63 -32zM144 516q-44 -174 34 -382q81 98 120.5 189.5t37.5 158.5t-25.5 114t-64.5 71q-5 3 -24 -13.5
t-42.5 -54.5t-35.5 -83zM157 -110q-26 -58 -21 -109t40 -61.5t100 39.5q-62 53 -119 131z" />
    <glyph glyph-name="quotesingle" unicode="'" horiz-adv-x="207" 
d="M46 779q2 1 6 3.5t14.5 6t20 3t20 -8t17.5 -23.5q11 -30 2 -60t-26 -52.5t-29 -23.5q-10 0 -17.5 5.5t-9.5 11.5l-3 6q11 2 21.5 18.5t15.5 32.5t2 18q-3 -1 -8 -2t-16.5 -3t-12.5 1q-7 5 -11.5 14t-2 24t16.5 29z" />
    <glyph glyph-name="parenleft" unicode="(" horiz-adv-x="354" 
d="M231 947h1h-1zM127 939q11 16 61 18q43 1 41 -13q0 -2 -1 -4q-69 -131 -111 -302t-52 -356t26 -378.5t119 -350.5q7 -14 -19 -20q-40 -8 -79 7q-13 5 -18 12q-89 111 -136.5 274.5t-50 331t22.5 327t78 281t119 173.5z" />
    <glyph glyph-name="parenright" unicode=")" horiz-adv-x="383" 
d="M136 919q66 -52 119 -173.5t78 -281t22.5 -327t-50 -331t-136.5 -274.5q-17 -21 -72 -21q-46 0 -45 16q0 3 1 5q83 157 119 350.5t26 379t-52 356.5t-111 302q-6 10 14 14q37 8 73 -6q10 -4 14 -9z" />
    <glyph glyph-name="asterisk" unicode="*" horiz-adv-x="273" 
d="M142 714q67 4 81 -23q6 -12 -10.5 -22t-36.5 -15l-20 -4q2 -2 4 -6.5t7 -15t8 -20t2 -18.5t-7 -13q-11 -6 -28 10.5t-29 36.5l-12 20q-1 -3 -3.5 -8l-8.5 -17t-12 -20.5t-14 -15t-14 -4.5q-9 3 -9 22t4 37l5 17q-8 1 -18.5 4t-28 13.5t-15.5 22.5t24.5 16.5t44.5 2.5
l21 -1q1 6 5 25t6 27.5t6 20.5t9.5 16.5t12.5 3.5q10 -2 16.5 -25t7.5 -45z" />
    <glyph glyph-name="plus" unicode="+" horiz-adv-x="680" 
d="M649 73q-43 -6 -152 -6q0 -67 3 -116t4 -55.5t-2 -40.5q-3 -20 -31 -28t-57.5 0t-34.5 26q-12 39 -12 211q-7 0 -23 -0.5t-24 -0.5q-81 -2 -106 5q-20 6 -24.5 16.5t13.5 22.5q9 5 19 9t23.5 6t21 3t25 2.5t21.5 1.5q17 2 55 4q6 152 20 186q10 24 59 22.5t55 -27.5
q4 -31 3.5 -38t-4 -50.5t-4.5 -88.5q102 2 166 -10q13 -3 23 -10.5t8 -18.5q-5 -19 -45 -25z" />
    <glyph glyph-name="comma" unicode="," horiz-adv-x="207" 
d="M51 -196q10 4 25.5 8t49 0.5t49.5 -25.5q26 -33 -12.5 -76t-71.5 -44q-16 0 -28 5t-15 10l-4 5q17 2 34 16.5t25 29t3 16.5q-6 -1 -13.5 -2t-26 -3t-19.5 1q-11 4 -18.5 12.5t-3.5 21.5t26 25z" />
    <glyph glyph-name="hyphen" unicode="-" 
d="M303 208q51 5 117.5 3.5t116.5 -17.5q12 -4 22.5 -16t8.5 -29q-5 -31 -45 -40q-43 -8 -125.5 -8.5t-92.5 -1.5q-18 -1 -55 -3.5t-56 -2.5q-6 0 -25.5 -1t-29 -1t-24.5 2t-27 8q-20 9 -24.5 26t13.5 37q9 8 19 13.5t23.5 9t21.5 5t24.5 3t21.5 2.5q48 7 116 11z" />
    <glyph glyph-name="hyphen" unicode="&#xad;" 
d="M303 208q51 5 117.5 3.5t116.5 -17.5q12 -4 22.5 -16t8.5 -29q-5 -31 -45 -40q-43 -8 -125.5 -8.5t-92.5 -1.5q-18 -1 -55 -3.5t-56 -2.5q-6 0 -25.5 -1t-29 -1t-24.5 2t-27 8q-20 9 -24.5 26t13.5 37q9 8 19 13.5t23.5 9t21.5 5t24.5 3t21.5 2.5q48 7 116 11z" />
    <glyph glyph-name="period" unicode="." horiz-adv-x="212" 
d="M125 -211q32 0 55 -12.5t23 -29.5t-23 -29.5t-55 -12.5t-55 12.5t-23 29.5t23 29.5t55 12.5z" />
    <glyph glyph-name="slash" unicode="/" horiz-adv-x="496" 
d="M364 899q14 25 69.5 25t60.5 -31q3 -25 -12 -90q-3 -15 -9.5 -45t-9.5 -45q-24 -112 -37 -167q-25 -113 -79 -339q-42 -176 -84 -338q-14 -54 -44 -162q-5 -17 -15 -55.5t-19 -67.5t-20 -54q-4 -9 -18.5 -15t-33 -7.5t-36.5 0t-29 9t-10 19.5q2 26 8.5 55.5t17.5 67.5
t15 55q13 55 41 165q51 202 83 338q54 226 79 339q6 28 18.5 83.5t18.5 83.5q3 14 8 43t8.5 47.5t11 43t17.5 42.5z" />
    <glyph glyph-name="zero" unicode="0" 
d="M156 700q115 39 198 -106q79 -140 95 -373q16 -244 -49 -410q-28 -72 -70 -115q-41 -42 -100.5 -57t-118.5 -1q-80 19 -131.5 100t-67.5 190.5t-6.5 236t41.5 237t87.5 193.5t121.5 105zM176 -305q17 -1 32.5 30.5t27 86t20.5 124.5t13.5 148t6 156t-3 149t-13 125.5
t-24 87t-35.5 32.5q-44 0 -74.5 -146t-36 -321t16.5 -322.5t70 -149.5z" />
    <glyph glyph-name="one" unicode="1" horiz-adv-x="399" 
d="M77 397q-11 0 -19 4.5t-13.5 12t-9 19t-5 21.5t-2.5 22.5t-1 20.5t0.5 17t0.5 10q0 13 105 117l42 42q21 21 65 28.5t86.5 -4t57.5 -39.5q-37 -223 -35 -990q0 -16 -14 -30t-34.5 -20.5t-42 -7t-40 12t-24.5 36.5q-61 238 -45 729q-14 0 -38.5 -0.5t-33.5 -0.5z" />
    <glyph glyph-name="two" unicode="2" horiz-adv-x="596" 
d="M498 -243q7 -2 10.5 -10t3 -19.5t-3 -24.5t-6.5 -25t-8 -22t-8 -16t-7 -6q-114 15 -463 -11q-13 -1 -29.5 22.5t-21 51t11.5 49.5q142 153 210.5 290t89.5 301q31 234 -71 301q-50 -19 -90.5 -90.5t-52.5 -166.5t20 -197q5 -14 -12.5 -21t-39 -4t-27.5 13
q-49 79 -56.5 168.5t17.5 160t60 122.5t69 73q31 19 74 26.5t90 3t91.5 -27.5t78.5 -60.5t52.5 -102t12.5 -146.5q-13 -176 -90.5 -323.5t-217.5 -308.5q236 24 313 0z" />
    <glyph glyph-name="three" unicode="3" horiz-adv-x="578" 
d="M80 251q1 -16 -21 -20t-46 5t-28 24q-18 66 -10 138.5t32 135.5t68 110.5t98 64.5q83 25 159 -1t110 -102q85 -199 -110 -464q118 -33 170.5 -125t1.5 -208q-26 -58 -69.5 -98.5t-91.5 -57.5t-99.5 -21.5t-94 5.5t-73 29t-38.5 43q-4 12 9.5 32.5t19.5 19.5
q10 -1 36 -9.5t51.5 -17t57.5 -11t58 3.5t49.5 31.5t35.5 69.5q22 79 -18.5 152t-102.5 86q5 -1 -1 -2q-40 -4 -88 9q-56 15 -35 46q38 55 71.5 119t60 137.5t24.5 141.5t-38 110q-68 -32 -111.5 -154.5t-36.5 -221.5z" />
    <glyph glyph-name="four" unicode="4" horiz-adv-x="617" 
d="M269 -322q-6 207 -5 272q-50 -18 -117 -16q-79 3 -131.5 42.5t-75 100.5t-29.5 138.5t1 152.5t21.5 145.5t26 115t20.5 63.5q10 24 71 20.5t64 -33.5q1 -15 -10 -125t-18.5 -217.5t10.5 -205.5t69 -110q17 -4 45.5 2.5t55.5 21.5q19 462 67 634q7 27 42.5 33.5t67.5 -5.5
t32 -30q0 -20 -6.5 -132.5t-15 -344t-12.5 -533.5q0 -27 -43 -38.5t-86 2t-44 47.5z" />
    <glyph glyph-name="five" unicode="5" 
d="M83 -336q-25 24 34 34q12 2 35 4q12 1 14 2h-2q-6 0 -6 0.5t4 1.5q102 36 158 179q19 50 31 111q12 48 7.5 100.5t-18.5 97t-47.5 73t-79.5 27.5q-11 -10 -31.5 -18t-46 -7t-46 15t-31.5 56.5t-4 109.5q10 93 7.5 133.5t-10 44t-15.5 6.5t-8 22q0 36 128.5 48t261.5 4
t156 -22q9 -6 8.5 -31t-8.5 -28q-45 -19 -146.5 -24.5t-177.5 -2.5q7 -70 -3 -214q189 12 279 -121q73 -110 53 -268q-19 -153 -115 -258q-85 -93 -204 -106q-130 -14 -177 31z" />
    <glyph glyph-name="six" unicode="6" horiz-adv-x="620" 
d="M534 -294q-53 -63 -141.5 -78t-161.5 20q-56 25 -96 73t-59.5 105t-31.5 123t-10 127t4 118q5 68 33 155t70.5 168t103 135.5t121.5 52.5q47 -1 86 -26.5t63.5 -64t43.5 -85.5t24.5 -92t7.5 -83.5t-7 -60.5q-11 -41 -63 -54q-50 -14 -75 10q-13 12 -10 32q4 25 -3 111.5
t-25.5 168.5t-42.5 81q-36 -1 -70 -90t-52.5 -227t-11.5 -268q48 30 108 38q61 8 110.5 -7t80.5 -45.5t48.5 -72.5t18 -87.5t-15.5 -92t-47 -84.5zM352 -272q33 -3 59 26t35 72t7 87t-25 75t-62 31q-26 0 -66.5 -35.5t-47.5 -82.5q3 -74 31.5 -121.5t68.5 -51.5z" />
    <glyph glyph-name="seven" unicode="7" 
d="M539 691q14 -2 20 -52t-7 -101q-9 -30 -68.5 -194.5t-110.5 -343t-70 -336.5q-2 -19 -39 -27.5t-80 -5.5t-78 15t-35 29q7 227 166 552q21 42 60 119q78 150 86 191q9 46 -28 47h-2q-270 -8 -298 3q-16 11 -35 54.5t-1 50.5q69 20 259.5 16.5t260.5 -17.5z" />
    <glyph glyph-name="eight" unicode="8" horiz-adv-x="592" 
d="M536 -113q15 -76 -33 -138.5t-125 -92.5q-72 -30 -166 -29t-163 41q-47 27 -66.5 72.5t-13 94t35.5 93.5t78.5 81.5t103.5 50.5q-65 41 -113 111.5t-69.5 148.5t-10.5 159t58 139q59 73 159.5 89t177.5 -39q63 -46 83 -131t5 -172q-12 -73 -51.5 -158.5t-86.5 -124.5
q9 -7 43 -25t61.5 -35t55.5 -53.5t37 -81.5zM142 518q-20 -78 -5 -152t57 -143q29 -46 64 -80q73 109 92 224q5 45 5 90t-16 91t-47 75q-21 20 -37 21.5t-40 -14.5q-50 -35 -73 -112zM236 -306q73 -1 132 54t50 126q-2 18 -9 34t-14.5 27.5t-21 23t-23 18.5t-25 15t-23 11
t-22 8.5t-16.5 6.5q-2 -1 -12.5 -5t-15.5 -7q-40 -22 -67.5 -61.5t-35.5 -81.5t-2 -80.5t34 -63.5t71 -25z" />
    <glyph glyph-name="nine" unicode="9" horiz-adv-x="638" 
d="M128 -317h1h-1zM415 230h1h-1zM201 -373q-8 -3 -31.5 4.5t-39 23t-1.5 29.5q2 2 36 37.5t48.5 51.5t47 59t51 78t40 89t33.5 110h-2q-73 -25 -160.5 -10.5t-143.5 67.5q-91 84 -96 229t80 235q49 51 124 68t142 -4q84 -25 144.5 -103t88 -181.5t20.5 -223.5t-47 -228.5
t-126.5 -199t-207.5 -131.5zM329 167q33 13 85 61q10 84 -1 156t-33 117t-49.5 77t-50 45t-36.5 13q-21 0 -57 -36q-69 -87 -69.5 -196.5t64.5 -189.5t147 -47z" />
    <glyph glyph-name="colon" unicode=":" horiz-adv-x="212" 
d="M125 3q32 0 55 -12.5t23 -29.5t-23 -29.5t-55 -12.5t-55 12.5t-23 29.5t23 29.5t55 12.5zM125 244q32 0 55 -12.5t23 -29.5t-23 -29.5t-55 -12.5t-55 12.5t-23 29.5t23 29.5t55 12.5z" />
    <glyph glyph-name="semicolon" unicode=";" horiz-adv-x="212" 
d="M110 244q32 0 55 -12.5t23 -29.5t-23 -29.5t-55 -12.5t-55 12.5t-23 29.5t23 29.5t55 12.5zM61 -7q10 4 25.5 8t49 0.5t49.5 -25.5q26 -33 -12.5 -76t-71.5 -44q-16 0 -27.5 5t-15.5 10l-4 5q17 2 34 16.5t25 29t3 16.5q-6 -1 -13.5 -2t-26 -3t-19.5 1q-11 4 -18.5 12.5
t-3.5 21.5t26 25z" />
    <glyph glyph-name="semicolon" unicode="&#x37e;" horiz-adv-x="212" 
d="M110 244q32 0 55 -12.5t23 -29.5t-23 -29.5t-55 -12.5t-55 12.5t-23 29.5t23 29.5t55 12.5zM61 -7q10 4 25.5 8t49 0.5t49.5 -25.5q26 -33 -12.5 -76t-71.5 -44q-16 0 -27.5 5t-15.5 10l-4 5q17 2 34 16.5t25 29t3 16.5q-6 -1 -13.5 -2t-26 -3t-19.5 1q-11 4 -18.5 12.5
t-3.5 21.5t26 25z" />
    <glyph glyph-name="less" unicode="&#x3c;" horiz-adv-x="453" 
d="M161 78l264 -348q11 -14 3 -29.5t-25 -15.5q-40 0 -66 3q-28 2 -101.5 98.5t-124 175.5t-83.5 134q-7 9 0 17q31 51 73.5 116t111.5 149t103 90q47 8 80 4q8 -1 11.5 -7.5t-1.5 -13.5q-154 -217 -244 -330q-16 -21 -1 -43z" />
    <glyph glyph-name="equal" unicode="=" horiz-adv-x="502" 
d="M81 156q-20 5 -34.5 17.5t1.5 31.5q7 9 16 15t21 10t20 6t22.5 4t19.5 3q46 8 107 13q54 3 109 0q3 0 17.5 -1t19 -1t17 -1.5t19.5 -3.5t16.5 -6t17.5 -9q25 -20 12 -39.5t-38 -24.5q-21 -8 -91 -1.5t-92 5.5q-42 -1 -86 -9q-5 -1 -31 -6t-31 -4.5t-32 1.5zM473 87
q22 -12 18.5 -26t-18 -25.5t-27.5 -14.5q-27 -6 -60 -6.5t-72 2t-61 1.5q-66 -2 -98 -4q-5 0 -22.5 -2.5t-25.5 -3t-21 1t-24 6.5q-15 6 -22.5 16.5t2.5 28.5q9 11 23.5 18t22.5 9t30 5t24 3q74 12 110 13q47 6 111.5 3t109.5 -25z" />
    <glyph glyph-name="greater" unicode="&#x3e;" horiz-adv-x="453" 
d="M430 86h1h-1zM60 448zM430 100q5 -9 0 -17q-27 -45 -57 -92t-85 -128.5t-100.5 -134t-67.5 -54.5q-43 -3 -66 -2q-17 0 -25 16t3 29l264 348q16 21 -1 43q-79 99 -244 330q-5 6 -1.5 13t11.5 8q42 2 80 -4q26 -5 70 -50.5t93 -115.5t75 -109.5t51 -79.5z" />
    <glyph glyph-name="question" unicode="?" horiz-adv-x="755" 
d="M417 -327zM268 677q48 16 108 17.5t118.5 -10.5t111 -41.5t81.5 -72.5q39 -58 40.5 -130.5t-22.5 -134.5t-65 -121q-31 -45 -74 -91t-72 -76t-61.5 -83t-55.5 -121q-3 -9 -16.5 -15t-31 -7.5t-34 0.5t-28 9t-11.5 18q1 46 22.5 97.5t41 81t64 87.5t55.5 73
q57 81 87.5 156.5t20.5 154.5q-9 70 -58 119t-116 39q-68 -10 -121.5 -66t-63.5 -124q-9 -59 15 -115.5t77 -87.5l4 -1q3 -2 6 -3l3 -1q6 4 26 4.5t37 -9.5t8 -25q-14 -25 -51 -34.5t-82 1.5t-87.5 37t-72 76t-32.5 114q-5 97 63 175t166 110zM418 -302q23 -10 19 -26
q-3 -15 -44 -29t-87 -13.5t-61 22.5q-9 15 7 27q36 23 81.5 29t84.5 -10z" />
    <glyph glyph-name="at" unicode="@" horiz-adv-x="1000" 
d="M186 494q78 49 160 72t156.5 21t144 -25t125 -62.5t97 -95.5t62.5 -120.5t18.5 -140.5t-31.5 -153q-28 -76 -84 -132t-127 -57q-15 -1 -34.5 3.5t-45 15t-44 35t-21.5 59.5q-5 -8 -15 -20t-40 -33t-61 -24q-96 -8 -154 52t-59 161q-1 123 49.5 184t148.5 59
q72 -2 121 -45q-3 8 3 38q6 29 45.5 41.5t78.5 -1.5t41 -51q4 -69 0.5 -128.5t-9 -108.5t-10 -83.5t-3 -54t12.5 -20.5q24 -2 52 34.5t48.5 100.5t22.5 133q2 87 -27.5 160t-80 120.5t-118 73.5t-137.5 25t-141.5 -32t-127.5 -90q-63 -66 -92 -148.5t-25 -161t32.5 -152.5
t75 -127.5t108 -82.5t125.5 -20q32 16 74 10.5t49 -22.5q2 -4 -1 -8.5t-11 -8t-15.5 -6.5t-19.5 -5.5t-19 -4t-17 -3.5l-10 -2q-157 -30 -290.5 61t-177.5 247q-42 152 12.5 296.5t185.5 226.5zM562 3q2 100 -9 172q-3 21 -32.5 38t-69.5 13t-63 -54t-23.5 -108.5t24 -107
t68.5 -49.5q36 -1 68.5 28.5t36.5 67.5z" />
    <glyph glyph-name="A" unicode="A" horiz-adv-x="610" 
d="M254 -214q-7 -28 -32 -45t-56 -17t-55 17.5t-31 52.5q-18 92 -18 195q0 194 54.5 378.5t133.5 257.5q45 40 102 40q56 0 95 -36q72 -64 103 -219t31 -344q0 -147 -16 -266q-1 -25 -22 -41.5t-46 -16.5q-17 0 -29.5 10t-14.5 30q0 24 2.5 74t2.5 79q0 31 -1 48v1
q0 13 -32 23.5t-72 10.5q-55 0 -86 -19q-12 -9 -12 -26q0 -2 -0.5 -21.5t-1.5 -49t-1 -54.5q0 -30 2 -62zM327 500q-33 -65 -48.5 -177.5t-15.5 -206.5v-20q0 -8 3 -10t12 -2q57 3 122 3q38 0 56 -2l2 -1h2q7 0 7 10q1 18 1 62q0 272 -45 349q-18 25 -50 25t-46 -30z" />
    <glyph glyph-name="B" unicode="B" horiz-adv-x="705" 
d="M308 708q6 6 18.5 13t39.5 15t55 8q47 0 92 -21q84 -38 127.5 -119.5t43.5 -181.5q0 -85 -30.5 -164t-93.5 -141t-149 -85q66 -13 113 -30.5t88 -55t55 -91.5q7 -25 7 -54q0 -95 -74 -161t-185 -66q-47 0 -100 15q-12 4 -16 4q-9 0 -17 -12q-5 -7 -30 -14.5t-52 -7.5
q-80 0 -94 63q-66 232 -66 623q0 196 16 436q6 41 44 60.5t89 19.5q47 0 83 -14.5t36 -35.5v-3zM531 -203q0 56 -38 106t-113 56q-2 0 -8 0.5t-10 0.5q-78 0 -78 -51v-1q0 -6 -0.5 -16t-0.5 -16q0 -35 4.5 -103.5t5.5 -81.5q1 -47 94 -56h14q61 0 95.5 40t34.5 122zM338 75
q87 50 136.5 162t49.5 226q0 84 -29 141t-84 63h-9q-34 0 -65 -13.5t-34 -31.5q-5 -33 -10 -172t-5 -259q0 -86 2 -115v-2q0 -7 15 -7q19 0 33 8z" />
    <glyph glyph-name="C" unicode="C" horiz-adv-x="793" 
d="M478 759q79 -2 139 -39t94 -99.5t51 -135t17 -154.5q0 -40 -5 -87q-4 -43 -39.5 -73t-75.5 -30q-35 0 -58.5 27t-23.5 81v9q4 90 4 146q0 59 -4.5 104t-16 86.5t-35.5 64t-58 22.5h-1q-61 0 -105.5 -83t-65 -204.5t-20.5 -261.5q0 -127 17 -234.5t53.5 -178t85.5 -71.5h3
q45 0 81 33t41 109q3 31 25 47.5t51 16.5t49.5 -16.5t20.5 -45.5v-4q-1 -21 -9.5 -47.5t-29.5 -58.5t-51 -58t-79 -44.5t-109 -19.5q-87 1 -158 53t-116 137t-69.5 190.5t-24.5 218.5q0 116 25.5 221t74.5 191t130 137t183 51h9z" />
    <glyph glyph-name="D" unicode="D" horiz-adv-x="801" 
d="M36 666q6 70 42.5 103t85.5 33q46 0 84.5 -24.5t42.5 -58.5q3 2 18 14t22.5 16t25 12t39 11t49.5 3h4q83 0 148.5 -39t105 -106t59.5 -151.5t20 -181.5q0 -120 -30.5 -239t-85 -217t-140 -158.5t-185.5 -60.5q-38 0 -85 11q-4 2 -6 2q-6 0 -9 -20q-1 -20 -20.5 -32
t-47.5 -12q-33 0 -61.5 17.5t-36.5 51.5q-53 207 -53 609q0 249 14 417zM294 621q0 -2 -8.5 -134.5t-15 -237.5t-12.5 -247.5t-6 -230.5q0 -21 16 -41.5t35 -20.5q70 0 124.5 46t86.5 123.5t48.5 169t16.5 190.5q0 172 -44.5 298t-118.5 132h-12q-32 0 -59.5 -12t-38.5 -24z
" />
    <glyph glyph-name="E" unicode="E" horiz-adv-x="505" 
d="M86 523q18 54 83 80.5t146 26.5q62 0 111.5 -14.5t62.5 -36.5q3 -8 3 -13q0 -19 -24 -19q-35 4 -78 4q-78 0 -121 -14q-9 -2 -15.5 -15t-6.5 -25q-15 -96 -15 -313q0 -84 6 -108q2 -11 31 -11q11 0 37 2t38 2q44 0 45 -21q0 -26 -71.5 -31.5t-76.5 -12.5q-7 -13 -7 -56
q0 -53 10 -136q8 -42 52 -42q23 0 67.5 13.5t54.5 13.5q11 0 12 -7v-3q0 -24 -66.5 -46t-128.5 -24h-10q-58 0 -89 27q-41 36 -60.5 160.5t-19.5 282.5q0 244 30 336z" />
    <glyph glyph-name="F" unicode="F" horiz-adv-x="453" 
d="M188 -267q-6 -9 -24 -9q-19 0 -38.5 12t-29.5 36q-18 41 -31.5 209.5t-13.5 328.5q0 147 12 199q15 72 80 105.5t147 33.5q56 0 98 -14t44 -33v-2q0 -16 -33.5 -21.5t-76 -10.5t-57.5 -19q-35 -33 -35 -396v-32q0 -12 45 -15t90.5 -8t46.5 -21q-1 -16 -45.5 -25.5
t-89.5 -15.5t-46 -14q-28 -276 -43 -288z" />
    <glyph glyph-name="G" unicode="G" horiz-adv-x="692" 
d="M555 199q-24 1 -39.5 16t-22.5 44t-9 57t-2 71v72q0 46 -2.5 76t-10.5 61t-26.5 46.5t-46.5 15.5h-1q-50 0 -88 -77t-56 -192t-18 -245q0 -124 16.5 -226.5t54 -171t90.5 -68.5h7q34 3 62 41.5t40.5 85t12.5 85.5q0 48 -18 48q-39 1 -57.5 15t-18.5 36q0 20 13.5 39.5
t30.5 26.5q39 16 76 16q56 0 91 -35t35 -91v-6q-5 -121 -77 -218t-186 -103h-16q-74 0 -134.5 36t-99.5 95t-65.5 138.5t-37.5 163t-11 172.5q0 116 19 217.5t51 158.5q92 163 267 163h4q68 0 121.5 -20t87 -52t56 -76t31.5 -89.5t9 -94.5q0 -90 -26 -158q-27 -74 -90 -74
q-3 0 -8 0.5t-8 0.5z" />
    <glyph glyph-name="H" unicode="H" horiz-adv-x="553" 
d="M55 617q15 38 55 38q21 0 38 -12t21 -32q2 -15 2 -66q0 -119 -19 -470q0 -14 10 -14q1 0 3 0.5t4 0.5q33 4 74 4q38 0 69 -4h2q6 0 6 9q-2 97 -2 211q0 304 17 361q7 25 33.5 40t57.5 15q69 0 89 -56q17 -47 17 -190q0 -192 -25.5 -451t-45.5 -305q-20 -44 -64 -44
q-21 0 -36.5 11t-19.5 30q-8 37 -12.5 75.5t-5.5 63t-2.5 70.5t-2.5 72v2q0 7 -9 7q-5 0 -8 -1q-10 1 -33 1q-17 0 -105 -5q-9 0 -9 -8v-7q-5 -205 -24 -245q-11 -24 -36 -24q-29 0 -35 21q-37 107 -37 420q0 162 10 306t23 176z" />
    <glyph glyph-name="I" unicode="I" horiz-adv-x="287" 
d="M232 -267q-25 -40 -66 -40q-33 0 -59 33q-13 18 -31 258.5t-18 446.5q0 149 11 230q8 40 33 59t59 19q39 0 72.5 -22t37.5 -52q6 -49 6 -148q0 -129 -9 -317t-19.5 -323t-16.5 -144z" />
    <glyph glyph-name="J" unicode="J" horiz-adv-x="727" 
d="M124 641q-19 2 -19 37t20 43q56 25 187 45.5t242 20.5q86 0 136 -15q13 -5 13 -29q0 -31 -21 -35q-37 -8 -74 -23.5t-37 -23.5v-1q16 -62 16 -242q0 -73 -4 -144t-14.5 -153t-27 -153t-44 -138t-63 -114.5t-85.5 -76t-110 -28.5q-50 0 -89 16.5t-60.5 43.5t-32.5 56.5
t-11 60.5q0 34 12 58t33 28q1 0 3.5 0.5t3.5 0.5q40 0 45 -89q2 -31 22.5 -48t51.5 -17h8q129 5 129 445q0 229 -26 414q-5 38 -15.5 46t-60.5 8q-30 0 -128 7z" />
    <glyph glyph-name="K" unicode="K" horiz-adv-x="666" 
d="M294 690q11 -41 11 -146q0 -210 -39 -578v-4q54 23 99 72t75 112.5t52.5 130.5t36 137.5t21.5 121t12.5 94.5t4.5 46v3q0 18 12 28t30 10q20 0 34.5 -12t15.5 -33v-26q0 -160 -54.5 -334t-136.5 -268q75 -77 117 -172.5t42 -160.5v-4q-1 -45 -36 -72.5t-77 -27.5
q-28 0 -49 14.5t-26 41.5q-30 165 -95 273q-18 -19 -40.5 -30.5t-35.5 -13.5l-14 -3q-1 -58 -10.5 -154.5t-25.5 -135.5q-10 -26 -47 -26q-28 0 -57 16t-39 39q-37 86 -37 449q0 210 15.5 390t43.5 234q30 57 96 57q35 0 64 -18.5t37 -49.5z" />
    <glyph glyph-name="L" unicode="L" horiz-adv-x="562" 
d="M272 606q11 -36 11 -154q0 -133 -11.5 -322t-21.5 -272q0 -2 -0.5 -5t-0.5 -4q0 -24 27 -31q27 -8 98.5 -18t114.5 -23t43 -37q-1 -21 -28 -25q-152 -15 -214 -15q-80 0 -125.5 18.5t-55.5 63.5q-19 68 -37 248t-18 349q0 130 13 225q4 30 36 49.5t71 19.5q77 0 98 -67z
" />
    <glyph glyph-name="M" unicode="M" horiz-adv-x="1000" 
d="M708 608q19 71 60.5 108.5t89.5 37.5q51 0 92.5 -42.5t54.5 -118.5q6 -36 6 -95q0 -161 -34.5 -447t-52.5 -369q-11 -47 -67 -47q-27 0 -50 12.5t-30 31.5q-28 84 -28 357q0 265 20 405q-7 -31 -80.5 -221.5t-80.5 -215.5q-7 -29 -26.5 -46t-43.5 -17q-47 0 -76 59
q-45 124 -74 216.5t-40.5 134t-17.5 57.5q0 -140 -16 -406.5t-29 -307.5q-20 -68 -81 -68q-26 0 -50 15t-35 39q-27 60 -43.5 213.5t-16.5 325.5q0 267 38 406q16 61 54 92t85 31t86.5 -30t52.5 -81l15 -53q16 -54 39.5 -132.5t48 -158.5t47 -141.5t32.5 -72.5
q25 109 84.5 305t66.5 224z" />
    <glyph glyph-name="N" unicode="N" horiz-adv-x="836" 
d="M630 655q10 45 36.5 68.5t58.5 23.5q34 0 61.5 -24t36.5 -66q10 -48 10 -173q0 -111 -9.5 -228t-29.5 -233.5t-58.5 -190.5t-89.5 -74h-8q-46 5 -93.5 66.5t-84 147t-67 170t-52 148t-29.5 69.5q0 -2 -5 -161.5t-17.5 -327t-32.5 -215.5q-26 -59 -71 -59q-25 0 -47 20.5
t-31 54.5q-54 177 -54 515q0 300 43 454q7 24 36.5 48.5t64.5 24.5q62 0 103 -83q29 -58 56 -117t59.5 -141t48 -120.5t58.5 -154.5t54 -144l3 60q3 60 8 151t11.5 187t14.5 182t16 122z" />
    <glyph glyph-name="O" unicode="O" horiz-adv-x="557" 
d="M251 -225q-68 1 -119 64.5t-75.5 160t-24.5 207.5q0 117 27.5 216t90.5 166t152 67h6q75 -2 130 -62.5t80.5 -151.5t25.5 -199q0 -88 -18.5 -170t-53 -149.5t-91 -108t-126.5 -40.5h-4zM250 519h-1q-51 0 -84 -102.5t-33 -230.5q0 -107 26 -181t76 -76h2q48 0 77.5 99.5
t29.5 226.5q0 110 -24 186.5t-69 77.5z" />
    <glyph glyph-name="P" unicode="P" horiz-adv-x="653" 
d="M259 -294q-28 -41 -80 -41q-47 0 -63 37q-41 115 -41 424q0 158 11.5 301t28.5 198q15 47 44 70t63 23q35 0 63 -22t32 -55q10 18 44 31.5t76 13.5q109 0 178 -95q26 -36 42 -107.5t16 -153.5q0 -72 -14 -136t-44 -120.5t-84 -89.5t-127 -33q-51 0 -109 16
q0 -39 -10.5 -138t-25.5 -123zM319 559q-4 -4 -10 -140.5t-9.5 -261.5t-3.5 -135q35 -22 67 -22q50 0 88 53t55.5 129.5t17.5 161.5q0 69 -12.5 126t-39.5 93.5t-64 36.5q-39 0 -89 -41z" />
    <glyph glyph-name="Q" unicode="Q" horiz-adv-x="832" 
d="M389 797h8q89 0 156.5 -44.5t107.5 -122t60 -172.5t20 -206q0 -161 -39 -319q105 -154 105 -247q0 -20 -6 -37q-9 -27 -29 -27q-22 0 -50 33q-7 8 -32 39t-47 58t-25 30q-40 -83 -95.5 -122.5t-138.5 -42.5h-7q-87 0 -154 43.5t-107.5 118.5t-61 168t-20.5 198
q0 118 25 232.5t69.5 207.5t112.5 151.5t148 60.5zM559 45q38 95 38 230q0 90 -17 171t-49.5 134t-72.5 54h-2q-53 0 -95.5 -80.5t-64 -200t-21.5 -245.5q0 -140 29.5 -240.5t87.5 -124.5q17 0 28.5 3t30 14t35 40t29.5 75q-15 19 -37.5 35t-37.5 20q-23 6 -23 31
q0 30 31 62.5t68 32.5q6 0 16 -2q14 -3 27 -9z" />
    <glyph glyph-name="R" unicode="R" horiz-adv-x="753" 
d="M366 716q42 48 117 48q14 0 22 -1q128 -16 194.5 -110.5t66.5 -259.5q0 -35 -3 -72q-20 -272 -211 -363q1 -2 14 -11t32.5 -25.5t41 -38t42 -54t32.5 -68.5q8 -24 8 -40q0 -45 -63 -71q-18 -7 -32 -7q-54 0 -80 53q-26 52 -55.5 92t-52.5 61.5t-50.5 37t-41.5 20t-33 9.5
q-6 1 -8 2q-1 -8 -8 -173.5t-8 -173.5q-10 -61 -74 -61q-37 0 -71.5 21t-44.5 51q-36 114 -36 600q0 377 24 521q9 57 48 86.5t89 29.5q51 0 92.5 -28t48.5 -75zM435 664q-61 -20 -71 -58q-3 -12 -6.5 -41.5t-7 -84t-7.5 -111t-10.5 -154.5t-12.5 -183v-5q0 -13 13 -17
q35 -12 64 -12q60 0 104.5 47.5t67 114t30.5 146.5q4 33 4 77q0 75 -13.5 138t-45 105.5t-76.5 42.5q-18 0 -33 -5z" />
    <glyph glyph-name="S" unicode="S" horiz-adv-x="553" 
d="M318 677q72 -4 120.5 -51t68 -110.5t19.5 -139.5q0 -136 -52 -211q-26 -37 -67 -37q-23 0 -40 15t-23 46q-4 24 -4 72q0 21 1 68t1 70q0 168 -53 168q-9 0 -23 -6q-60 -27 -84 -98.5t-24 -149.5q0 -35 3 -52q10 -63 33 -112t51.5 -79.5t61 -54.5t62.5 -43.5t54.5 -40.5
t40 -51.5t15.5 -70.5q0 -63 -62.5 -109.5t-133.5 -46.5h-13q-89 7 -136 49.5t-47 87.5q0 42 33 48q14 3 24 3q26 0 45.5 -15t30 -33t30.5 -33t47 -15h6q25 1 53.5 19.5t28.5 41.5v1q-1 26 -28 42t-69.5 29t-88 30.5t-90.5 57.5t-70 98q-35 83 -35 178q0 108 41.5 208.5
t112 163.5t150.5 63h10z" />
    <glyph glyph-name="T" unicode="T" horiz-adv-x="888" 
d="M855 671q24 -14 24 -41q0 -29 -27 -42q-32 -13 -119 -30.5t-138 -22.5q7 -67 7 -169q0 -206 -27.5 -460.5t-54.5 -348.5q-4 -14 -26 -24t-47 -10q-50 0 -63 38q-20 20 -39.5 193t-19.5 412q0 178 13 367q-46 0 -130.5 17.5t-123.5 28.5q-44 13 -44 53q0 35 33 47
q118 44 348 44q142 0 270.5 -16t163.5 -36z" />
    <glyph glyph-name="U" unicode="U" horiz-adv-x="679" 
d="M76 577q15 40 84 40q29 0 54 -9.5t34 -26.5q32 -57 32 -174q0 -71 -16 -222t-16 -213q0 -85 22.5 -131.5t77.5 -46.5h3q50 1 82 63.5t37 131.5q33 387 33 533q0 26 -1 37v1q0 38 57 38q27 0 52 -11t32 -28q27 -63 27 -224q0 -178 -30.5 -370t-71.5 -252q-15 -22 -39 -29
q-9 -3 -17 -3q-42 0 -42 93q0 8 0.5 20t0.5 16q-27 -40 -73.5 -61.5t-98.5 -21.5q-56 0 -106.5 25t-81.5 72q-37 55 -56 174.5t-19 257.5q0 227 40 321z" />
    <glyph glyph-name="V" unicode="V" horiz-adv-x="753" 
d="M500 714q9 36 37 54.5t66 18.5q51 0 91.5 -30.5t40.5 -78.5v-1q-1 -57 -14.5 -152.5t-37.5 -212.5t-62 -236.5t-82.5 -220t-103.5 -167.5t-121 -75h-5q-62 0 -113 69.5t-82 175t-52.5 239.5t-30 254.5t-8.5 228.5q0 103 8 159q2 17 23 28t45 11q47 0 54 -35
q5 -23 19 -278t43 -467.5t76 -212.5q20 0 37.5 62.5t34 168.5t34 222.5t44.5 249.5t59 226z" />
    <glyph glyph-name="W" unicode="W" horiz-adv-x="862" 
d="M835 539q12 -94 12 -193q0 -85 -7.5 -165.5t-26 -159.5t-46.5 -138t-72 -95.5t-99 -36.5q-25 0 -49 7q-34 3 -68.5 44.5t-51.5 82.5q-28 -51 -51.5 -80t-61.5 -55q-32 -21 -83 -21q-45 0 -84.5 19t-59.5 59q-65 114 -65 433q0 211 21 291q13 45 44.5 67.5t69.5 22.5
q33 0 59.5 -16t32.5 -41q8 -33 8 -111q0 -64 -8 -227t-8 -232q0 -167 35 -167h1q48 4 75 55q14 26 23.5 120t14.5 192.5t5 101.5q1 17 13 27t26 10q15 0 25.5 -12t10.5 -35q0 -19 -1.5 -91t-1.5 -114q0 -119 10 -150q5 -16 24 -35.5t36 -19.5q6 0 12 3q15 8 28 40t21 77
t14.5 102.5t10.5 113t6.5 113t3 98t1 73t0.5 33.5q2 36 32 56t70 20q38 0 66.5 -17.5t32.5 -48.5z" />
    <glyph glyph-name="X" unicode="X" horiz-adv-x="671" 
d="M668 642v-2q0 -113 -74.5 -329t-148.5 -345q-4 -7 -4 -14q0 -4 2 -10q35 -92 62.5 -147.5t39 -68.5t20 -25.5t12.5 -33.5q1 -4 1 -12q0 -22 -16 -41q-10 -12 -32 -12q-53 2 -95.5 34t-89.5 114q-4 7 -8 7t-10 -8q-55 -79 -134 -138q-12 -9 -33 -9q-25 0 -46 11.5
t-21 29.5q0 17 18 35q16 25 73.5 89.5t73.5 91.5q5 8 5 12t-3 10l-18 40q-17 40 -40.5 95t-51.5 132t-51.5 151t-39.5 151t-16 133q0 24 3 45q6 40 50.5 70t91.5 30q44 0 67 -27q13 -15 21 -74t38 -211t87 -339q35 64 97.5 238.5t108.5 336.5q5 17 10 24.5t15 7.5h4
q14 -1 23 -13.5t9 -28.5z" />
    <glyph glyph-name="Y" unicode="Y" horiz-adv-x="636" 
d="M220 52q-52 7 -93 54t-63.5 116.5t-34 144.5t-11.5 151q0 94 15 151q9 39 42.5 61.5t71.5 22.5q32 0 53 -16.5t21 -47.5v-7q-4 -44 -4 -106q0 -103 12 -196.5t38.5 -159.5t62.5 -66h1q44 1 76.5 50.5t49 126t25 147t12 135t4.5 68.5q4 24 22.5 38.5t40.5 14.5
q20 0 34.5 -12.5t15.5 -35.5q1 -13 1 -48q0 -52 -3.5 -106t-16 -126t-32.5 -131t-56 -112.5t-84 -80.5q-14 -13 -14 -50q0 -29 13.5 -120.5t13.5 -139.5q0 -60 -18 -99q-12 -25 -40 -38.5t-60 -13.5q-33 0 -57.5 14.5t-30.5 40.5q-9 48 -9 97q0 54 11 136t11 102
q0 38 -20 41z" />
    <glyph glyph-name="Z" unicode="Z" horiz-adv-x="618" 
d="M585 -166q30 -37 30 -92q0 -36 -12.5 -66.5t-33.5 -44.5q-17 -12 -79.5 -22t-134.5 -10q-112 0 -194 28.5t-94 92.5q-3 14 -3 30q0 21 4.5 45t16 55.5t23 58.5t35 71.5t41 77t52.5 92t58.5 99t69.5 116t75 126.5q23 37 30 67q-120 -33 -280 -50q-7 -1 -19 -1
q-57 0 -86 32t-29 80q0 45 24 83q22 36 108.5 64.5t178.5 28.5q96 0 161.5 -37t73.5 -117q1 -6 1 -18q0 -76 -59 -203t-128.5 -234t-141.5 -213.5t-83 -128.5q147 21 249 21q122 0 146 -31z" />
    <glyph glyph-name="bracketleft" unicode="[" horiz-adv-x="317" 
d="M256 -474q43 -6 47 -25q0 -1 0.5 -2.5t0.5 -2.5q0 -13 -31 -26q-25 -9 -53 -9q-80 0 -129 58q-35 43 -35 148v24v6q-1 698 -1 969v122q5 88 58 130q43 34 104 34q38 0 67 -14q18 -8 18 -18q0 -12 -22.5 -22t-39.5 -11h7q-8 -3 -14 -8q-11 -10 -21 -34q-11 -28 -11 -644
l2 -557q3 -111 53 -118z" />
    <glyph glyph-name="backslash" unicode="\" horiz-adv-x="446" 
d="M376 -300q13 -68 20 -112q15 -73 15 -90q0 -10 -1 -15q-2 -16 -22.5 -25.5t-46.5 -9.5q-51 0 -63 24q-7 13 -12 30t-7 28t-6 34.5t-5 29.5l-24 132q-16 91 -47.5 273.5t-47.5 273.5q-9 50 -27 149t-27 149q-18 94 -27 142q-18 88 -18 121q0 15 1 22q2 15 20.5 23t42.5 8
q48 0 59 -21q22 -42 44 -162q11 -55 31 -165q51 -279 102 -575q7 -44 22.5 -132t23.5 -132z" />
    <glyph glyph-name="bracketright" unicode="]" horiz-adv-x="362" 
d="M123 945q18 3 38 3q91 0 138 -64q34 -45 34 -147v-32q-1 -234 -1 -559q-1 -378 -2.5 -448t-11.5 -103q-1 -1 -1 -2q-18 -59 -68.5 -94.5t-112.5 -35.5q-41 0 -80 18q-20 9 -20 24q0 14 19 22q13 5 23 5q6 0 17 -2t16 -2q23 0 45 35q19 31 24 76q6 48 6 1114q-2 54 -13 83
q-10 26 -25.5 36.5t-28.5 9t-26 2t-20 18.5q-2 4 -2 10q0 24 52 33z" />
    <glyph glyph-name="asciicircum" unicode="^" horiz-adv-x="379" 
d="M304 466q41 -1 76.5 -33.5t35.5 -53.5q0 -5 -3 -7q-12 -6 -25 -6l-14 3q-47 73 -67 74h-1q-12 0 -26 -16.5t-25.5 -35t-13.5 -19.5q-10 -4 -34 -4q-21 0 -21 7v1q6 21 44 55.5t74 34.5z" />
    <glyph glyph-name="underscore" unicode="_" 
d="M267 -261q64 2 98 2q84 0 136 -13q31 -8 31 -30v-4q-5 -24 -45 -30q-49 -7 -128 -7h-29q-41 0 -61 -1q-18 -1 -55 -2.5t-56 -1.5q-36 -2 -55 -2q-32 0 -51 7q-26 10 -26 26q0 11 15 22q11 8 27.5 13t23.5 6.5t33 3.5l26 3q38 4 116 8z" />
    <glyph glyph-name="grave" unicode="`" horiz-adv-x="1000" 
d="M448 653q14 21 40 21q43 0 101.5 -53t76.5 -97q2 -4 2 -11q0 -8 -6.5 -14.5t-13.5 -8.5l-6 -2q-8 3 -21.5 7.5t-48.5 20t-61.5 31t-48.5 38t-22 43.5q0 13 8 25z" />
    <glyph glyph-name="a" unicode="a" horiz-adv-x="575" 
d="M417 -322q-38 4 -38 24q0 6 3 20t3 22q0 9 -3 18l-1 1q-1 0 -5.5 -6.5t-12.5 -16t-20 -19.5t-32.5 -17.5t-45.5 -8.5h-14q-144 0 -191 149q-8 26 -8 52q0 85 60 157.5t159 72.5q36 0 64.5 -10t43 -19.5t16.5 -9.5q4 0 4 9v4v50.5t-1 58t-4.5 54.5t-11 54t-19.5 41
t-32.5 31.5t-47.5 11.5q-46 -2 -86 -52t-41 -154q0 -24 -14 -36.5t-34 -12.5q-23 0 -41 14.5t-19 38.5q0 3 -0.5 11t-0.5 11q0 105 62.5 167t179.5 62h17q76 0 129.5 -29t81.5 -80t40 -108.5t12 -127.5q0 -133 -47 -330q-25 -98 -95 -98q-1 0 -5 0.5t-5 0.5zM275 -248h1
q46 0 80.5 35t36.5 58q9 82 9 129v50q0 10 -31.5 27t-58.5 17q-102 -1 -121 -106q-6 -42 -6 -71q0 -137 90 -139z" />
    <glyph glyph-name="b" unicode="b" horiz-adv-x="578" 
d="M228 -350q-4 -17 -21.5 -28t-39.5 -11q-47 0 -56 44q-45 233 -45 502q0 294 45 531q6 36 29 55t52 19q31 0 54.5 -20t24.5 -54q2 -36 2 -108q0 -89 -6.5 -221t-6.5 -149q0 -5 1 -5t5 4.5t12 11.5t18.5 13.5t28.5 11.5t39 6h7q56 0 98.5 -20.5t65 -50.5t36.5 -71.5
t18 -74.5t4 -69q0 -29 -1 -39q-4 -68 -32 -131.5t-84.5 -109t-128.5 -45.5h-2q-31 0 -54.5 7.5t-36 15t-15.5 7.5q-7 0 -11 -21zM256 127q-17 -354 -17 -355v-16q0 -1 -0.5 -5t-0.5 -6q0 -5 5 -9q48 -29 80 -29h6q37 2 63 44.5t36 99.5t10 123q0 65 -10.5 117t-27.5 67
q-23 19 -54 19q-32 0 -60.5 -17.5t-29.5 -32.5z" />
    <glyph glyph-name="c" unicode="c" horiz-adv-x="432" 
d="M333 199v1q0 5 5.5 49.5t5.5 74.5q0 112 -67 112q-2 0 -5.5 -0.5t-5.5 -0.5q-37 -4 -56 -84t-19 -191q0 -116 20 -204t54 -89q14 0 27 8.5t26 38t15 77.5q1 16 15 24.5t32 8.5q17 0 29 -7.5t12 -19.5v-3q-6 -60 -27.5 -103.5t-48 -63t-47.5 -28t-36 -8.5h-3
q-66 0 -117 57.5t-76 144t-25 182.5q0 88 21.5 160.5t71 121t120.5 49.5h2q85 0 130 -77t45 -181q0 -31 -2 -46v-5t-0.5 -6t-1.5 -6.5t-2.5 -7t-4 -6.5t-6.5 -7t-9 -5.5t-12 -4t-16 -2.5h-9q-36 0 -36 33q0 3 0.5 8t0.5 6z" />
    <glyph glyph-name="d" unicode="d" horiz-adv-x="617" 
d="M30 -13v4q0 132 54 199.5t159 67.5h9q78 -1 136 -50v23q0 136 14 287t35 212q16 47 72 47q25 0 46.5 -13t28.5 -36q13 -40 13 -194q0 -238 -26 -518t-56 -299q-23 -16 -50 -16q-32 0 -43 19q-15 23 -23 114l-3 -4q-4 -5 -10 -12t-14.5 -15.5t-19.5 -17.5t-23.5 -17
t-28 -13.5t-31.5 -7.5q-8 -1 -23 -1q-98 0 -156.5 67t-59.5 174zM389 126q-3 21 -31.5 39.5t-67.5 18.5q-11 0 -16 -1q-44 -5 -70 -59t-26 -124q0 -71 26.5 -122t76.5 -52h3q40 0 75 33t39 74q0 5 0.5 15.5t0.5 16.5q0 101 -10 161z" />
    <glyph glyph-name="e" unicode="e" horiz-adv-x="449" 
d="M428 213q-7 -26 -27.5 -45.5t-54 -30t-55.5 -15.5t-59 -9t-38 -4q-3 -69 -3 -120q0 -112 16 -154t53 -46q2 0 6 -0.5t5 -0.5q28 0 48 12.5t31.5 36t18 46.5t11.5 55q5 34 15 41q6 5 16 5q33 0 33 -48q0 -70 -58.5 -151.5t-136.5 -81.5h-5q-68 2 -116.5 66t-68 142
t-19.5 154v19q8 388 199 388q33 0 67 -10q68 -19 98.5 -75t30.5 -119q0 -30 -7 -55zM299 394q-10 2 -15 2q-23 0 -40.5 -21t-25 -52t-11 -55t-3.5 -40v-5q0 -26 51 -26q30 0 73 13q37 11 37 63q0 39 -20 76.5t-46 44.5z" />
    <glyph glyph-name="f" unicode="f" horiz-adv-x="495" 
d="M199 -372q-41 1 -60 161t-22 369q-86 20 -86 37q1 19 86 27q7 322 67 370q56 44 151 44q43 0 85 -9t66.5 -20.5t25.5 -20.5v-3q0 -23 -32 -35t-71 -15t-72 -14t-35 -32q-8 -105 -8 -237q0 -12 4.5 -16.5t27.5 -8t77 -5.5q20 -1 31.5 -9t11.5 -18q0 -23 -44 -23
q-114 -7 -114 -56v-1q-2 -32 -5.5 -93.5t-6.5 -98t-7.5 -88.5t-10 -83t-13.5 -62t-19.5 -45.5t-25.5 -14.5h-1z" />
    <glyph glyph-name="g" unicode="g" horiz-adv-x="467" 
d="M265 353q5 19 28 29.5t51 10.5q54 0 66 -31q2 -6 6 -38.5t8.5 -94.5t4.5 -123q0 -75 -6 -142t-24 -139t-46.5 -123t-77 -84.5t-112.5 -33.5h-3q-51 0 -92 49.5t-41 140.5v15q3 19 23 22h6q20 0 26.5 -26.5t6.5 -58.5t16 -58.5t52 -26.5q10 0 16 1q16 2 28.5 17.5t21 42
t14 53.5t9 63t5 58.5t3 51.5t1.5 32q-4 -3 -18.5 -12.5t-22.5 -13.5q-36 -22 -80 -22q-83 0 -115 85q-22 59 -22 132q0 31 3 61q7 88 49.5 133t99.5 45q67 0 114 -53h1q1 1 1 4q0 2 -0.5 9.5t-0.5 11.5q0 9 1 13zM175 -19q39 2 60.5 32t21.5 64q0 32 -1 94.5t-1 93.5v1
q0 18 -18.5 31.5t-39.5 13.5h-4q-46 -2 -70.5 -53t-24.5 -120q0 -64 20 -110.5t54 -46.5h3z" />
    <glyph glyph-name="h" unicode="h" horiz-adv-x="561" 
d="M210 689q8 -32 8 -80q0 -16 -4.5 -136.5t-4.5 -242.5v-23q10 18 44.5 36t72.5 22q63 -1 107 -21.5t68.5 -58.5t35.5 -85.5t11 -108.5q0 -86 -20 -204q-6 -27 -30 -41.5t-54 -14.5q-29 0 -49.5 13t-20.5 36q0 2 0.5 4t0.5 4q20 113 20 219q0 185 -75 193q-2 0 -6 0.5
t-6 0.5q-60 0 -95 -55q-8 -12 -16 -176.5t-8 -204.5q-1 -20 -18.5 -32t-40.5 -12q-52 0 -65 47q-16 62 -27.5 308t-11.5 448q0 113 4 149t30.5 56t61.5 20q31 0 56 -15.5t32 -44.5z" />
    <glyph glyph-name="i" unicode="i" horiz-adv-x="268" 
d="M64 309q1 21 25 34t57 13q36 0 62.5 -14.5t30.5 -42.5q3 -24 3 -73q0 -104 -13.5 -243.5t-32.5 -205.5q-7 -38 -49 -38q-40 0 -63 31q-23 55 -23 370q0 55 2 161q0 2 0.5 4.5t0.5 3.5zM153 595q44 -5 76 -23t32 -53v-1q-3 -79 -114 -79h-9q-42 1 -71 21.5t-29 49.5
q0 7 1 10q7 33 37 54.5t66 21.5q2 0 5.5 -0.5t5.5 -0.5z" />
    <glyph glyph-name="j" unicode="j" horiz-adv-x="634" 
d="M454 451q1 -1 1 -3q-1 1 -1 3zM605 468q-4 -3 -47.5 -5t-83 -6t-39.5 -12v-1q4 -4 10 -41.5t10.5 -103t4.5 -133.5q0 -73 -5 -139.5t-19.5 -135t-36.5 -117.5t-59.5 -80.5t-85.5 -31.5q-34 0 -77 17q-52 26 -91.5 80.5t-41.5 137.5v2q0 15 15 15h2q11 0 15 -14
q10 -46 47 -95t60 -49q1 0 2 0.5t2 0.5q28 8 47.5 86t27.5 192.5t11 198t3 156.5v36q0 1 -2 5t-3 5t-3 4t-4 4t-5 2t-7 1q-21 1 -58.5 3.5t-68 4t-57.5 1.5q-12 1 -20 10.5t-8 22.5q0 26 24 37q22 11 123.5 20t210.5 9q121 0 195 -13q9 -2 19 -16.5t10 -29.5q0 -18 -17 -28z
M444 699q-4 -79 -115 -79h-9q-42 1 -71 21.5t-29 49.5q0 7 1 10q7 33 37.5 54.5t66.5 21.5q1 0 5 -0.5t5 -0.5q44 -5 76.5 -23t32.5 -53v-1z" />
    <glyph glyph-name="k" unicode="k" horiz-adv-x="620" 
d="M68 650v13q0 68 37.5 101t92.5 33q53 0 96 -27t43 -65q0 -1 -0.5 -3.5t-0.5 -4.5q-64 -570 -64 -594q70 89 160.5 175.5t126.5 91.5q9 5 21 5q15 0 26.5 -9.5t11.5 -24.5q0 -12 -11 -26q-51 -62 -119 -130h2q29 0 56.5 -77.5t27.5 -157.5q0 -99 -46 -127q-20 -13 -42 -13
q-36 0 -60 35q-15 21 -28.5 75l-24 96t-19.5 42q-2 0 -4 -2l-87 -99q-4 -5 -5.5 -46.5t-4 -85.5t-26 -83t-68.5 -44h-7q-52 0 -70 81t-18 255q0 59 2.5 221t2.5 262q0 88 -1 133z" />
    <glyph glyph-name="l" unicode="l" horiz-adv-x="268" 
d="M21 670q0 43 29 67.5t70 24.5q51 0 89 -36t38 -102v-5q-5 -96 -16.5 -469t-14.5 -438q0 -33 -24.5 -51.5t-56.5 -18.5q-33 0 -56.5 18.5t-24.5 53.5q-21 169 -33 956z" />
    <glyph glyph-name="m" unicode="m" horiz-adv-x="854" 
d="M827 -151q-1 -20 -29 -36t-57 -16q-47 0 -47 40q0 1 0.5 5t0.5 5q14 116 14 255q0 48 -3 79q-3 95 -46 95q-29 0 -66 -39t-44 -65q-14 -48 -20 -168q-2 -33 -2 -81l1 -49q-1 -22 -23 -36.5t-46 -14.5q-31 0 -31 22q0 4 3 104t3 117v4q-5 88 -29.5 133t-56.5 45
q-37 0 -68.5 -53t-37.5 -141q-6 -54 -8 -125t-4 -103q-1 -26 -23.5 -43.5t-49.5 -17.5q-50 0 -63 56l-1 9q-2 9 -4.5 24.5t-5.5 36.5t-6.5 47t-7 54t-6.5 58.5t-5.5 59.5t-4 58.5t-1.5 54.5q0 122 34 125q30 22 61 26q7 1 19 1q26 0 43.5 -7.5t24.5 -20.5t9.5 -24t2.5 -25.5
v-16.5q7 6 18.5 15t45 24t63.5 15q91 0 137 -125q17 55 77 99.5t126 44.5q37 0 70 -17q76 -40 76 -215q0 -127 -33 -273z" />
    <glyph glyph-name="n" unicode="n" horiz-adv-x="617" 
d="M63 327q10 45 38.5 67t65.5 22q39 0 70 -22.5t31 -53.5q0 -8 -1 -12l27 10q26 10 55 16.5t59 6.5q46 0 83 -16q67 -22 98 -103t31 -190t-26.5 -201.5t-60.5 -105.5q-20 -10 -36 -10q-17 0 -33 11q-17 13 -17 63q0 32 13 139t13 166q0 110 -38 166q-18 28 -52 28
q-29 0 -59 -18.5t-46 -45.5q-9 -17 -9 -41q0 -5 0.5 -15t0.5 -14q-6 -185 -40 -379q-4 -25 -27 -39t-52 -14q-31 0 -55.5 15.5t-28.5 43.5q-13 94 -13 316q0 173 9 210z" />
    <glyph glyph-name="o" unicode="o" horiz-adv-x="474" 
d="M231 388q108 0 165.5 -80t57.5 -193q0 -117 -58.5 -209.5t-157.5 -99.5h-11q-59 0 -104 46t-67 114.5t-22 145.5q0 73 20 134t66 101.5t111 40.5zM219 -119q31 0 53.5 75t22.5 163q0 77 -20.5 127.5t-62.5 50.5h-3q-31 -1 -47.5 -60t-16.5 -141q0 -87 18.5 -151t52.5 -64
h3z" />
    <glyph glyph-name="p" unicode="p" horiz-adv-x="631" 
d="M436 11q-18 -3 -36 -3q-56 0 -115 32q-7 4 -12 4t-6 -15q-3 -44 -4.5 -122.5t-7.5 -125t-23 -83.5q-8 -20 -31 -31.5t-50 -11.5q-58 0 -69 48q-35 151 -35 585q0 44 0.5 89t1 78.5t1 60.5t1 43t0.5 17q4 41 44 66t89 25q44 0 73.5 -20.5t29.5 -58.5v-1q0 -8 -0.5 -26
t-0.5 -27q1 -1 2 -1q2 -1 3 -1q64 83 157 83q60 0 103 -35q81 -65 81 -220q0 -81 -22 -177q-34 -146 -174 -172zM273 120v-1q0 -15 28 -28.5t59 -13.5q45 0 60 31q20 38 32.5 115t12.5 156q0 76 -12.5 125t-36.5 49h-3q-32 -5 -80 -59.5t-49 -80.5q-2 -164 -11 -293z" />
    <glyph glyph-name="q" unicode="q" horiz-adv-x="658" 
d="M444 -32q-3 -3 -26 -14t-68.5 -24.5t-86.5 -13.5q-108 0 -160 91q-55 98 -55 255q0 131 42 209q26 50 72.5 81.5t104.5 31.5q89 0 178 -79q3 27 7 79q1 27 34 45.5t74 18.5q39 0 66 -18t31 -55q1 -5 1 -27q0 -26 -1.5 -71.5t-4.5 -102t-6.5 -122t-7.5 -132t-7.5 -130.5
t-7 -120t-6.5 -98.5t-5 -67.5l-1 -24q-4 -33 -24 -50t-47 -17q-25 0 -46.5 16t-28.5 44q-8 32 -14 157t-7 138zM231 348q-10 -67 -10 -143q0 -190 75 -215q20 -5 33 -5q56 0 109 62q4 4 4 12v147l-1 -1q-1 16 -1 142v9q0 9 -4 13q-54 58 -108 58q-34 0 -60 -22.5t-37 -56.5z
" />
    <glyph glyph-name="r" unicode="r" horiz-adv-x="548" 
d="M503 170q-18 0 -22 22q-1 6 -4.5 29.5t-6 32t-11.5 25t-24 30.5q-14 13 -33 13q-36 0 -71.5 -40t-37.5 -76q-9 -154 -27 -281t-36 -153q-13 -23 -47 -23q-24 0 -46.5 12t-27.5 31q-21 73 -30 250.5t-9 289.5v18q0 54 37 88t83 34q35 0 61 -22t33 -64q1 -26 13 -26
q8 0 26.5 13t46 26t56.5 13q12 0 26 -3q41 -8 69 -39.5t37.5 -63.5t9.5 -62q0 -11 -2 -21q-4 -27 -24.5 -40t-36.5 -13h-2z" />
    <glyph glyph-name="s" unicode="s" horiz-adv-x="564" 
d="M558 -109q0 -82 -72.5 -131.5t-174.5 -49.5h-3q-99 1 -168 37t-99 87q-7 15 -7 32q0 30 19.5 52.5t43.5 22.5q27 0 44 -30q27 -47 73 -74.5t96 -27.5h3q35 0 60.5 14t34.5 36q4 11 4 22q0 30 -37.5 58.5t-90.5 56t-106 62t-90.5 90.5t-37.5 125v7q2 97 73.5 162t188.5 65
h9q100 -1 160 -60t60 -143q0 -50 -24 -101q-11 -29 -35 -44t-52 -15q-27 0 -46 14t-19 37q0 1 0.5 4t0.5 5q7 47 7 86q0 154 -87 154h-5q-39 -2 -63.5 -32.5t-32 -65.5t-7.5 -76q0 -19 2 -41q7 -48 48.5 -86t95.5 -63.5t107.5 -50t90 -59.5t36.5 -79z" />
    <glyph glyph-name="t" unicode="t" horiz-adv-x="589" 
d="M337 -311h-5q-112 0 -151 80.5t-39 258.5q0 52 11 342q-93 10 -99 42v1q0 14 33.5 29.5t74.5 15.5q1 9 6.5 70.5t11.5 113t9 57.5q4 29 63 29q25 0 45.5 -7.5t24.5 -19.5q7 -22 7 -58q0 -29 -19 -168v-4q0 -11 14 -11q7 -1 62.5 -6.5t63.5 -7.5q10 -3 18.5 -12t8.5 -19
t-10 -17q-12 -8 -66.5 -16t-89.5 -9q-3 0 -9 -50.5t-11.5 -135.5t-5.5 -161q0 -270 62 -270h1q35 0 61 37t37 82.5t11 86.5v9q0 32 19 48.5t46 16.5q24 0 43 -12t21 -31q0 -2 0.5 -7t0.5 -8q0 -27 -5 -59t-21.5 -74.5t-42.5 -75.5t-73 -56.5t-108 -23.5z" />
    <glyph glyph-name="u" unicode="u" horiz-adv-x="624" 
d="M227 -269q-61 7 -104 48.5t-63 97t-24 123.5q-4 82 -4 115q0 89 19.5 135.5t71.5 46.5q17 0 33 -4q38 -8 55 -26.5t17 -63.5v-14q-10 -70 -10 -230q0 -67 4 -90q6 -32 32 -48t59 -16t57.5 15t24.5 40v1q-1 10 -1 36q0 30 2 73.5t5.5 87t6.5 80t6 64.5l2 29
q2 33 29.5 53.5t63.5 20.5q33 0 58.5 -19.5t31.5 -58.5q6 -38 6 -144q0 -231 -36 -309q-10 -20 -44 -41.5t-64 -21.5q-41 0 -53 42q-4 16 -11 16q-6 0 -14 -4q-74 -36 -130 -36q-8 0 -26 2z" />
    <glyph glyph-name="v" unicode="v" horiz-adv-x="519" 
d="M381 339q9 29 45 29q32 0 60.5 -24t28.5 -63q0 -14 -4 -27q-22 -76 -66 -205t-65 -178q-45 -104 -129 -104q-46 0 -91 36q-57 46 -87.5 188.5t-30.5 286.5v20q0 27 53 27q25 0 45.5 -8t21.5 -22q2 -220 17.5 -320.5t50.5 -100.5h2q22 2 51 91.5t60.5 221.5t37.5 152z" />
    <glyph glyph-name="w" unicode="w" horiz-adv-x="794" 
d="M784 305v-4q0 -4 0.5 -10.5t1 -15t0.5 -20.5v-24q0 -36 -2 -71.5t-8.5 -82t-16.5 -86t-29 -80t-43.5 -69t-61.5 -46t-82 -17.5h-7q-64 2 -103.5 54.5t-49.5 121.5q-3 -3 -11 -35t-18.5 -64t-38.5 -60.5t-67 -30.5h-8q-58 0 -97.5 52t-57 137.5t-23.5 157.5t-6 151
q0 24 1 53t1 32q0 27 60 27q27 0 47.5 -7.5t21.5 -20.5v-3q0 -5 -8.5 -104t-8.5 -165q0 -186 63 -190h2q85 0 85 402v43q0 18 15 28t36 10q20 0 35 -9t16 -23q-5 -100 -5 -157q0 -89 7.5 -147.5t22.5 -87t32 -38.5t42 -10q21 0 37 26.5t25 66t15 91.5t8 96.5t2 87.5
q0 9 -0.5 22.5t-0.5 18.5v1q0 44 27 69t63 25t61.5 -24.5t25.5 -69.5v-1z" />
    <glyph glyph-name="x" unicode="x" horiz-adv-x="651" 
d="M232 -20l12 -11zM45 -219q3 5 89.5 84.5t106.5 108.5q3 4 3 7q0 2 -4 10q-136 186 -190 302q-9 19 -9 40q0 36 25 63.5t58 27.5q35 0 63 -31q6 -7 11 -13t9.5 -12t12 -18t13.5 -22t19 -32.5t24 -41.5t33 -57.5t41 -72.5q22 37 71 157.5t57 170.5q3 20 26 20
q18 0 34 -14.5t16 -38.5q0 -5 -2 -17q0 -3 -16.5 -53.5t-51.5 -134.5t-72 -145q-5 -7 -5 -16t7 -17q2 -6 43 -52t94 -107.5t78 -95.5q4 -6 4 -10q0 -19 -33.5 -39.5t-64.5 -20.5q-6 0 -16 2q-30 10 -110 92.5t-91 100.5q-6 7 -10 7q-5 0 -9 -7q-16 -20 -43 -51t-70.5 -74
t-71.5 -61q-11 -6 -20 -6q-19 0 -35.5 18.5t-16.5 36.5q0 6 3 12z" />
    <glyph glyph-name="y" unicode="y" horiz-adv-x="634" 
d="M400 400q2 34 31.5 53t67.5 19q33 0 58 -14t30 -40q12 -60 12 -209q0 -57 -3.5 -111t-13 -117t-24.5 -116t-40.5 -104t-59 -86.5t-82 -57t-107.5 -21.5h-6q-111 2 -166 58.5t-55 149.5q0 45 11 88q7 14 32 14q31 0 31 -20q0 -5 -1 -7q-13 -39 -13 -71q0 -54 32 -83
t78 -29h9q40 2 69 22.5t45 49.5t24.5 76.5t11 89.5t2.5 103q-19 -20 -55.5 -37t-76.5 -17h-3q-53 1 -93 26t-62 60.5t-35.5 84.5t-17.5 89.5t-4 84.5l5 89q1 22 30 36t63 14q31 0 51 -12.5t20 -37.5v-6q-8 -82 -8 -133q0 -221 101 -221q32 0 64.5 22t32.5 32q7 108 15 289z
" />
    <glyph glyph-name="z" unicode="z" horiz-adv-x="561" 
d="M475 493q3 -4 3 -13q0 -37 -76 -152t-152.5 -233t-76.5 -162v-1q21 4 77 16.5t105.5 21t80.5 8.5q3 0 8 -0.5t7 -0.5q9 -1 54 -53t45 -79q0 -18 -23 -19q-92 -5 -210.5 -28.5t-157.5 -24.5q-10 -1 -24 -1q-95 0 -95 72q0 24 13 59q19 50 61.5 121t75 117t98.5 135.5
t80 109.5q3 4 3 9q0 1 -0.5 3t-0.5 3q-6 11 -27 11q-25 0 -103.5 -23.5t-106.5 -23.5t-33 16q-1 0 -10 16t-18.5 41t-9.5 43q0 28 25 32q140 27 234 27q125 0 154 -47z" />
    <glyph glyph-name="braceleft" unicode="{" horiz-adv-x="439" 
d="M364 -454q17 -2 33 -10t16 -21q0 -3 -1 -5q-7 -27 -68 -27h-1q-70 0 -116 33.5t-64.5 84.5t-27 119t-7.5 129.5t-2.5 124.5t-15.5 96q-14 39 -39 67q-33 38 -33 53q0 12 8 20q59 65 81 141.5t22 169.5q0 38 -4 109.5t-4 104.5q0 113 40 173q20 30 54 48t70 18
q41 0 73 -23q9 -7 9 -13q0 -10 -17 -18t-28 -9q-18 -2 -30 -23t-17.5 -62t-7 -81t-1.5 -100q0 -17 0.5 -51.5t0.5 -50.5q0 -150 -15 -202q-20 -73 -59 -119q-2 -3 -8 -8.5t-10 -10.5t-5 -10v-3l-1 -2q0 -7 13 -22q30 -34 41 -57q23 -47 23 -159q0 -30 -2 -92t-2 -91
q0 -48 4 -82.5t14.5 -67t31.5 -50.5t52 -21z" />
    <glyph glyph-name="bar" unicode="|" horiz-adv-x="247" 
d="M116 893q4 11 23.5 18t43.5 7q50 0 59 -23q12 -30 12 -83q0 -2 -3 -86q0 -116 -1 -174q0 -111 -2 -335q0 -57 -1 -170.5t-1 -170.5q-1 -56 -1 -168v-68q0 -67 -9 -106q-4 -16 -24 -25t-45 -9q-57 0 -63 32q-8 35 -8 94q0 14 0.5 40.5t0.5 39.5q1 29 1 87t1 87
q0 111 2 335q0 57 0.5 170.5t1.5 170.5q1 28 1 84t1 84q0 13 -1 40t-1 41q0 56 13 88z" />
    <glyph glyph-name="braceright" unicode="}" horiz-adv-x="425" 
d="M251 922q40 -60 40 -173q0 -33 -4 -104.5t-4 -109.5q0 -93 22 -169.5t81 -141.5q8 -8 8 -19q0 -7 -4 -15t-7 -12.5t-12 -14.5t-10 -12q-27 -30 -39 -67q-12 -33 -15.5 -96t-2.5 -124.5t-7.5 -129.5t-27 -119t-64.5 -84.5t-116 -33.5h-1q-61 0 -69 27q0 1 -0.5 2.5
t-0.5 2.5q0 13 16.5 21t33.5 10q31 3 52 21t31.5 50.5t14.5 67t4 82.5q0 29 -2 91t-2 92q0 112 23 159q11 23 41 57q12 14 12 20q0 5 -1 7q-1 5 -4.5 10t-9.5 10.5t-8 8.5q-39 46 -59 119q-15 52 -15 202q0 16 0.5 50.5t0.5 51.5q0 60 -1.5 100t-7 81t-17.5 62t-30 23
q-11 1 -28.5 9t-17.5 18q0 7 9 13q32 23 74 23q36 0 70 -18t54 -48z" />
    <glyph glyph-name="asciitilde" unicode="~" horiz-adv-x="1000" 
d="M845 392q9 19 53 19q22 0 38.5 -6.5t16.5 -17.5q0 -3 -2 -7q-17 -40 -53 -61.5t-80 -21.5q-22 0 -44 6q-37 10 -89 50q-14 12 -21 17q-14 5 -14 11q-6 -1 -12 -11.5t-7 -18.5q5 -5 5 -9v-4q0 -19 -38 -25q-2 0 -7 -0.5t-8 -0.5q-25 0 -43.5 9t-18.5 28q0 8 5 21
q22 52 104 62q6 1 18 1q62 0 119 -42q2 -1 26 -20q2 -1 12.5 -7.5t13.5 -9.5l12 12q5 6 14 26z" />
    <glyph glyph-name="quoteleft" unicode="&#x2018;" horiz-adv-x="265" 
d="M328 634q-17 -11 -36 -11q-28 0 -42 31q-6 15 -6 31q0 34 21.5 68.5t37.5 35.5h1q10 0 17 -5.5t9 -11.5l3 -5q-15 -3 -28 -28t-13 -39q0 -2 1 -3q21 6 32 6q4 0 5 -1q15 -11 15 -31t-17 -37z" />
    <glyph glyph-name="quoteright" unicode="&#x2019;" horiz-adv-x="265" 
d="M54 777q17 12 37 12q28 0 41 -31q6 -15 6 -31q0 -35 -21.5 -69t-37.5 -36h-1q-10 0 -17 6t-9 12l-3 5q14 3 27 27.5t13 37.5q0 4 -1 4q-20 -5 -31 -5q-5 0 -6 1q-15 11 -15 30t18 37z" />
    <glyph glyph-name="quotedblleft" unicode="&#x201c;" horiz-adv-x="265" 
d="M215 634q-17 -11 -36 -11q-28 0 -42 31q-6 15 -6 31q0 34 21.5 68.5t37.5 35.5h1q10 0 17 -5.5t10 -11.5l2 -5q-15 -3 -28 -28t-13 -39q0 -2 1 -3q21 6 32 6q4 0 5 -1q15 -11 15 -31t-17 -37zM99 641q-12 -6 -26 -6q-30 0 -39 34q-2 10 -2 15q0 32 24.5 63t40.5 31h1
q9 -1 14.5 -6.5t7.5 -11.5l1 -5q-13 0 -28 -21.5t-15 -31.5v-2q11 2 20 2t12 -3q10 -8 10 -23q0 -20 -21 -35z" />
    <glyph glyph-name="quotedblright" unicode="&#x201d;" horiz-adv-x="265" 
d="M60 777q17 12 37 12q28 0 41 -31q6 -15 6 -31q0 -35 -21.5 -69t-37.5 -36h-1q-10 0 -17 6t-9 12l-3 5q14 3 27 27.5t13 37.5q0 4 -1 4q-20 -5 -31 -5q-5 0 -6 1q-15 11 -15 30t18 37zM175 770q12 6 26 6q30 0 39 -33q2 -10 2 -16q0 -32 -24 -63t-40 -31h-1
q-9 1 -14.5 6.5t-6.5 10.5l-2 6q13 1 28 22t15 31v2q-10 -1 -19 -1q-11 0 -13 2q-10 8 -10 24q0 19 20 34z" />
    </font>
</defs>
</svg>
