<?xml version="1.0" standalone="no"?>
<!DOCTYPE svg PUBLIC "-//W3C//DTD SVG 1.1//EN" "http://www.w3.org/Graphics/SVG/1.1/DTD/svg11.dtd" >
<svg>
<metadata>
Created by FontForge 20120731 at Tue Apr  9 11:40:09 2019
 By www-data
Digitized data copyright The Monotype Corporation 1991-1995. All rights reserved. Gill Sans is a trademark of The Monotype Corporation which may be registered in certain jurisdictions.
</metadata>
<defs>
<font id="GillSansAltOneWGLLight" horiz-adv-x="1451" >
  <font-face 
    font-family="Gill Sans for Oriflame Light"
    font-weight="300"
    font-stretch="normal"
    units-per-em="2048"
    panose-1="2 11 3 2 2 1 4 2 2 3"
    ascent="1638"
    descent="-410"
    x-height="920"
    cap-height="1396"
    bbox="-440 -677 2476 2030"
    underline-thickness="102"
    underline-position="-103"
    unicode-range="U+0020-FB02"
  />
<missing-glyph horiz-adv-x="2048" 
d="M256 0v1536h1536v-1536h-1536zM384 128h1280v1280h-1280v-1280z" />
    <glyph glyph-name=".notdef" horiz-adv-x="2048" 
d="M256 0v1536h1536v-1536h-1536zM384 128h1280v1280h-1280v-1280z" />
    <glyph glyph-name="NULL" horiz-adv-x="0" 
 />
    <glyph glyph-name="nonmarkingreturn" horiz-adv-x="569" 
 />
    <glyph glyph-name="space" unicode=" " horiz-adv-x="569" 
 />
    <glyph glyph-name="exclam" unicode="!" horiz-adv-x="362" 
d="M248 1397l-35 -1004h-63l-35 1004h133zM248 199v-199h-133v199h133z" />
    <glyph glyph-name="quotedbl" unicode="&#x22;" horiz-adv-x="569" 
d="M358 1401h136v-223l-25 -256h-86l-25 256v223zM76 1401h135v-223l-25 -256h-86l-24 256v223z" />
    <glyph glyph-name="numbersign" unicode="#" horiz-adv-x="1352" 
d="M535 1397h94l-86 -420h389l88 420h94l-88 -420h168v-95h-186l-82 -391h268v-94h-289l-86 -416h-94l86 416h-389l-86 -416h-94l86 416h-170v94h190l80 391h-270v95h291zM522 882l-80 -391h389l82 391h-391z" />
    <glyph glyph-name="dollar" unicode="$" horiz-adv-x="1067" 
d="M932 1229v-115q-171 129 -350 143v-534q409 -109 409 -383q0 -126 -103 -234t-306 -124v-222h-99v222q-242 17 -411 163v113q213 -159 411 -180v567q-401 120 -401 369q0 127 101.5 227t299.5 113v61h99v-61q198 -12 350 -125zM483 754v503q-136 -4 -216.5 -76.5
t-80.5 -160.5q0 -185 297 -266zM582 612v-534q136 8 220.5 82t84.5 174q0 104 -74 167.5t-231 110.5z" />
    <glyph glyph-name="percent" unicode="%" horiz-adv-x="1430" 
d="M369 1415q135 0 232 -97t97 -233q0 -135 -97 -232t-232 -97q-136 0 -233 96.5t-97 232.5t97 233t233 97zM369 844q99 0 170 71t71 170q0 100 -71 171t-170 71t-170.5 -71.5t-71.5 -170.5q0 -100 71 -170.5t171 -70.5zM1321 1409l-1124 -1432h-103l1127 1432h100z
M1061 635q135 0 232.5 -97t97.5 -233q0 -135 -97.5 -232.5t-232.5 -97.5q-136 0 -233 97t-97 233t97 233t233 97zM1061 63q99 0 170.5 71.5t71.5 170.5t-71.5 170.5t-170.5 71.5t-170.5 -72t-71.5 -170q0 -100 71 -171t171 -71z" />
    <glyph glyph-name="ampersand" unicode="&#x26;" horiz-adv-x="1260" 
d="M1040 696h115q-65 -204 -192 -395l284 -301h-137l-211 219q-205 -237 -481 -237q-164 0 -264.5 91.5t-100.5 239.5q0 275 346 426q-174 181 -174 326q0 128 96 216.5t236 88.5q132 0 218.5 -82.5t86.5 -206.5q0 -222 -293 -370l318 -330q95 142 153 315zM500 786
q262 109 262 285q0 85 -60 142t-151 57q-94 0 -157.5 -57.5t-63.5 -141.5q0 -130 170 -285zM825 295l-354 369q-156 -67 -228.5 -145t-72.5 -191q0 -116 71.5 -181t198.5 -65q210 0 385 213z" />
    <glyph glyph-name="quotesingle" unicode="'" horiz-adv-x="455" 
d="M160 1401h135v-223l-25 -256h-86l-24 256v223z" />
    <glyph glyph-name="parenleft" unicode="(" horiz-adv-x="682" 
d="M666 1415q-192 -175 -295 -427.5t-103 -514.5q0 -261 104 -514.5t296 -429.5h-103q-401 404 -401 944t399 942h103z" />
    <glyph glyph-name="parenright" unicode=")" horiz-adv-x="682" 
d="M14 -471q192 176 296 429.5t104 514.5t-104 513.5t-296 428.5h103q401 -404 401 -942q0 -540 -401 -944h-103z" />
    <glyph glyph-name="asterisk" unicode="*" horiz-adv-x="961" 
d="M809 1255l-287 -231l4 -10l369 33v-97l-369 41l-6 -12l289 -234l-70 -69l-237 289l-10 -2l34 -379h-94l37 379l-8 2l-236 -289l-71 69l290 234l-4 10l-374 -35v95l372 -37l2 12l-286 231l71 72l234 -285l10 5l-37 368h94l-34 -366l10 -7l237 285z" />
    <glyph glyph-name="plus" unicode="+" horiz-adv-x="1352" 
d="M139 764h492v491h90v-491h491v-90h-491v-492h-90v492h-492v90z" />
    <glyph glyph-name="comma" unicode="," horiz-adv-x="362" 
d="M248 199v-156q0 -182 -133 -283v72q43 60 43 168h-43v199h133z" />
    <glyph glyph-name="hyphen" unicode="-" horiz-adv-x="641" 
d="M563 510v-96h-485v96h485z" />
    <glyph glyph-name="period" unicode="." horiz-adv-x="362" 
d="M248 199v-199h-133v199h133z" />
    <glyph glyph-name="slash" unicode="/" horiz-adv-x="575" 
d="M457 1415h94l-449 -1433h-96z" />
    <glyph glyph-name="zero" unicode="0" horiz-adv-x="1024" 
d="M512 1415q188 0 317 -188.5t129 -534.5q0 -322 -126.5 -516t-315.5 -194q-198 0 -324 190.5t-126 501.5q0 387 135.5 564t310.5 177zM508 80q156 0 251 176t95 446q0 264 -92.5 439.5t-249.5 175.5q-148 0 -245 -172.5t-97 -446.5q0 -277 94.5 -447.5t243.5 -170.5z" />
    <glyph glyph-name="one" unicode="1" horiz-adv-x="1024" 
d="M625 0h-109v1251l-364 -305l-46 80l474 389h45v-1415z" />
    <glyph glyph-name="two" unicode="2" horiz-adv-x="1024" 
d="M92 1165v123q155 127 326 127t290 -116.5t119 -284.5q0 -333 -514 -918h650v-96h-887q647 623 647 1012q0 129 -90 217t-223 88q-88 0 -158 -36t-160 -116z" />
    <glyph glyph-name="three" unicode="3" horiz-adv-x="1024" 
d="M152 1225v100q122 90 294 90q183 0 299.5 -99t116.5 -253q0 -110 -65 -196t-189 -124v-4q271 -91 271 -356q0 -185 -123.5 -293t-294.5 -108q-174 0 -322 69v96q144 -67 310 -67q145 0 235 82t90 215q0 143 -95.5 227.5t-264.5 81.5v98q154 0 249 79.5t95 191.5
q0 111 -91.5 186.5t-228.5 75.5q-150 0 -286 -92z" />
    <glyph glyph-name="four" unicode="4" horiz-adv-x="1024" 
d="M770 1415v-792h195v-84h-195v-539h-104v539h-637v34l702 842h39zM666 623v589l-492 -589h492z" />
    <glyph glyph-name="five" unicode="5" horiz-adv-x="1024" 
d="M791 1397v-97h-494v-442q57 9 112 9q209 0 336 -117.5t127 -315.5q0 -194 -129 -323t-323 -129q-162 0 -336 92v119q195 -113 340 -113q150 0 247 98t97 248q0 164 -103 256.5t-274 92.5q-93 0 -192 -30v652h592z" />
    <glyph glyph-name="six" unicode="6" horiz-adv-x="1024" 
d="M707 1415l61 -74q-448 -317 -520 -694q147 109 309 109q167 0 279 -109.5t112 -271.5q0 -171 -112 -282t-285 -111q-194 0 -310 133.5t-116 357.5q0 512 582 942zM229 526q-4 -36 -4 -71q0 -170 90 -272.5t230 -102.5q127 0 213 80.5t86 199.5q0 126 -87 211.5t-214 85.5
q-164 0 -314 -131z" />
    <glyph glyph-name="seven" unicode="7" horiz-adv-x="1024" 
d="M973 1397l-639 -1415l-90 38l577 1280h-762v97h914z" />
    <glyph glyph-name="eight" unicode="8" horiz-adv-x="1024" 
d="M324 727q-183 124 -183 315q0 151 110 262t259 111q153 0 263 -109.5t110 -261.5q0 -197 -178 -317q206 -124 206 -346q0 -168 -114.5 -283.5t-280.5 -115.5q-168 0 -284.5 114t-116.5 277q0 228 209 354zM246 1044q0 -114 77.5 -193t190.5 -79q114 0 189 79t75 198
q0 111 -78 189.5t-190 78.5q-110 0 -187 -79.5t-77 -193.5zM807 387q0 119 -86.5 203t-210.5 84q-121 0 -206 -87.5t-85 -209.5q0 -123 86 -210t211 -87q127 0 209 87t82 220z" />
    <glyph glyph-name="nine" unicode="9" horiz-adv-x="1024" 
d="M295 -18l-57 75q462 333 524 691q-163 -105 -307 -105q-165 0 -277 110.5t-112 272.5q0 170 110.5 279.5t282.5 109.5q199 0 314.5 -131t115.5 -358q0 -521 -594 -944zM780 872q3 32 3 62q0 180 -83.5 281.5t-234.5 101.5q-124 0 -209.5 -81.5t-85.5 -203.5
q0 -124 82.5 -207.5t206.5 -83.5q176 0 321 131z" />
    <glyph glyph-name="colon" unicode=":" horiz-adv-x="362" 
d="M248 920v-199h-133v199h133zM248 199v-199h-133v199h133z" />
    <glyph glyph-name="semicolon" unicode=";" horiz-adv-x="362" 
d="M248 920v-199h-133v199h133zM248 199v-156q0 -182 -133 -283v72q43 60 43 168h-43v199h133z" />
    <glyph glyph-name="less" unicode="&#x3c;" horiz-adv-x="1352" 
d="M139 674v86l1073 450v-100l-950 -393l950 -393v-101z" />
    <glyph glyph-name="equal" unicode="=" horiz-adv-x="1352" 
d="M139 1010h1073v-90h-1073v90zM139 516h1073v-90h-1073v90z" />
    <glyph glyph-name="greater" unicode="&#x3e;" horiz-adv-x="1352" 
d="M1212 674l-1073 -451v101l951 393l-951 393v100l1073 -450v-86z" />
    <glyph glyph-name="question" unicode="?" horiz-adv-x="575" 
d="M51 1219l47 159q72 37 140 37q114 0 185 -80t71 -211q0 -72 -26.5 -153.5t-113.5 -205.5t-106 -175t-19 -94q0 -63 39 -129l-37 -29q-79 91 -79 188q0 47 18.5 103t96.5 181.5t100 195t22 129.5q0 80 -45 136t-108 56q-99 0 -164 -108h-21zM307 199v-199h-133v199h133z
" />
    <glyph glyph-name="at" unicode="@" horiz-adv-x="1638" 
d="M1143 1034h125l-170 -803q-12 -52 -12 -75q0 -45 49 -45q120 0 255.5 164.5t135.5 412.5q0 276 -171 460.5t-497 184.5q-340 0 -559 -225t-219 -576q0 -346 218 -561t570 -215q439 0 672 312h102q-113 -191 -320 -292.5t-456 -101.5q-389 0 -629.5 238t-240.5 623
q0 373 233.5 626.5t640.5 253.5q348 0 544 -209.5t196 -517.5q0 -281 -167.5 -474.5t-348.5 -193.5q-121 0 -121 112q0 30 8 69l-4 4q-154 -185 -338 -185q-148 0 -247 120t-99 302q0 245 151 431t363 186q207 0 299 -193h4zM676 117q156 0 270.5 189.5t114.5 381.5
q0 123 -72.5 203t-183.5 80q-170 0 -277.5 -172t-107.5 -363q0 -138 73 -228.5t183 -90.5z" />
    <glyph glyph-name="A" unicode="A" horiz-adv-x="1366" 
d="M713 1407l645 -1407h-113l-221 483h-682l-221 -483h-113l645 1407h60zM983 573l-301 658l-299 -658h600z" />
    <glyph glyph-name="B" unicode="B" horiz-adv-x="1087" 
d="M164 1397h291q229 0 347 -96t118 -265q0 -202 -201 -311q323 -70 323 -354q0 -170 -126.5 -270.5t-342.5 -100.5h-409v1397zM272 1307v-557h150q381 0 381 278q0 279 -385 279h-146zM272 659v-569h289q179 0 272 77t93 206q0 286 -412 286h-242z" />
    <glyph glyph-name="C" unicode="C" horiz-adv-x="1386" 
d="M1325 1298v-118q-254 135 -498 135q-260 0 -435 -177t-175 -442q0 -268 176 -441t449 -173q228 0 497 143v-112q-248 -131 -495 -131q-319 0 -531.5 204.5t-212.5 509.5q0 307 217 513t517 206q236 0 491 -117z" />
    <glyph glyph-name="D" unicode="D" horiz-adv-x="1516" 
d="M162 1397h489q371 0 566.5 -195t195.5 -504q0 -303 -193.5 -500.5t-549.5 -197.5h-508v1397zM270 1307v-1217h394q271 0 451.5 166.5t180.5 441.5q0 269 -178 439t-461 170h-387z" />
    <glyph glyph-name="E" unicode="E" horiz-adv-x="1004" 
d="M926 1397v-90h-654v-559h637v-91h-637v-567h670v-90h-778v1397h762z" />
    <glyph glyph-name="F" unicode="F" horiz-adv-x="897" 
d="M879 1397v-90h-611v-531h551v-90h-551v-686h-108v1397h719z" />
    <glyph glyph-name="G" unicode="G" horiz-adv-x="1473" 
d="M1331 1296v-122q-248 141 -495 141q-265 0 -441 -176t-176 -441t174 -440.5t473 -175.5q216 0 383 86v377h-295v90h404v-535q-247 -118 -496 -118q-325 0 -542.5 206t-217.5 514q0 306 213.5 509.5t536.5 203.5q220 0 479 -119z" />
    <glyph glyph-name="H" unicode="H" horiz-adv-x="1473" 
d="M1311 1397v-1397h-109v662h-932v-662h-108v1397h108v-645h932v645h109z" />
    <glyph glyph-name="I" unicode="I" horiz-adv-x="426" 
d="M268 1397v-1397h-108v1397h108z" />
    <glyph glyph-name="J" unicode="J" horiz-adv-x="426" 
d="M276 1397v-1397q0 -231 -87 -319t-206 -88q-28 0 -65 4l-10 102q34 -8 64 -8q196 0 196 280v1426h108z" />
    <glyph glyph-name="K" unicode="K" horiz-adv-x="1087" 
d="M1069 1397l-668 -697l732 -700h-138l-731 698v-698h-108v1397h108v-695l670 695h135z" />
    <glyph glyph-name="L" unicode="L" horiz-adv-x="961" 
d="M270 1397v-1307h691v-90h-799v1397h108z" />
    <glyph glyph-name="M" unicode="M" horiz-adv-x="1599" 
d="M799 748l532 649h109v-1397h-109v1239l-532 -653l-533 653v-1239h-108v1397h108z" />
    <glyph glyph-name="N" unicode="N" horiz-adv-x="1579" 
d="M1419 1397v-1397h-90l-1061 1221v-1221h-108v1397h92l1059 -1221v1221h108z" />
    <glyph glyph-name="O" unicode="O" horiz-adv-x="1686" 
d="M842 1415q310 0 525.5 -208.5t215.5 -508.5q0 -299 -215.5 -507.5t-525.5 -208.5q-309 0 -523.5 208.5t-214.5 507.5q0 300 214.5 508.5t523.5 208.5zM846 82q261 0 440.5 178.5t179.5 437.5q0 260 -179.5 438.5t-440.5 178.5q-262 0 -443.5 -178.5t-181.5 -438.5
q0 -259 181.5 -437.5t443.5 -178.5z" />
    <glyph glyph-name="P" unicode="P" horiz-adv-x="1044" 
d="M160 1397h385q221 0 338.5 -99t117.5 -270q0 -173 -118.5 -274t-347.5 -101h-267v-653h-108v1397zM268 1307v-564h260q175 0 266 74t91 209q0 129 -89 205t-255 76h-273z" />
    <glyph glyph-name="Q" unicode="Q" horiz-adv-x="1686" 
d="M1522 -152l-121 -141q-365 45 -635 275q-298 27 -480 237t-182 477q0 305 212.5 512t525.5 207q315 0 528 -205.5t213 -509.5q0 -250 -164.5 -460t-494.5 -258q241 -164 438 -164q68 0 137 51zM838 82q259 0 443.5 180.5t184.5 435.5q0 259 -180.5 438t-441.5 179
q-259 0 -441 -180.5t-182 -436.5q0 -255 180 -435.5t437 -180.5z" />
    <glyph glyph-name="R" unicode="R" horiz-adv-x="1174" 
d="M162 1397h358q225 0 344 -97.5t119 -263.5q0 -242 -266 -340q69 -33 186 -213l316 -483h-127l-244 383q-122 192 -190 239.5t-199 47.5h-189v-670h-108v1397zM270 1307v-547h232q177 0 270.5 71.5t93.5 202.5q0 129 -95 201t-273 72h-228z" />
    <glyph glyph-name="S" unicode="S" horiz-adv-x="961" 
d="M819 1327v-119q-182 107 -313 107q-126 0 -210.5 -76.5t-84.5 -189.5q0 -81 50 -146t209 -125t232 -100t124 -116t51 -197q0 -161 -118 -272t-288 -111q-174 0 -358 122v127q203 -149 352 -149q124 0 209.5 80.5t85.5 197.5q0 89 -53 160.5t-215 133.5t-231.5 100
t-118 108.5t-48.5 181.5q0 154 118 262.5t284 108.5q163 0 323 -88z" />
    <glyph glyph-name="T" unicode="T" horiz-adv-x="1174" 
d="M1165 1397v-90h-524v-1307h-109v1307h-524v90h1157z" />
    <glyph glyph-name="U" unicode="U" horiz-adv-x="1430" 
d="M1192 1397h108v-762q0 -313 -163 -483t-422 -170q-258 0 -421 168t-163 460v787h109v-783q0 -250 132.5 -391t342.5 -141q212 0 344.5 142.5t132.5 404.5v768z" />
    <glyph glyph-name="V" unicode="V" horiz-adv-x="1217" 
d="M1210 1397l-585 -1411h-31l-588 1411h109l495 -1182l492 1182h108z" />
    <glyph glyph-name="W" unicode="W" horiz-adv-x="2111" 
d="M1057 1165l-469 -1179h-29l-561 1411h111l462 -1159l469 1159h33l467 -1159l463 1159h111l-562 -1411h-26z" />
    <glyph glyph-name="X" unicode="X" horiz-adv-x="1409" 
d="M705 795l530 602h139l-600 -682l635 -715h-139l-565 639l-566 -639h-139l633 715l-600 682h139z" />
    <glyph glyph-name="Y" unicode="Y" horiz-adv-x="1194" 
d="M1194 1397l-543 -647v-750h-108v750l-543 647h131l467 -553l465 553h131z" />
    <glyph glyph-name="Z" unicode="Z" horiz-adv-x="1300" 
d="M1233 1397l10 -39l-1046 -1268h1054v-90h-1222l-11 31l1047 1276h-999v90h1167z" />
    <glyph glyph-name="bracketleft" unicode="[" horiz-adv-x="618" 
d="M240 1300v-1654h364v-97h-463v1848h463v-97h-364z" />
    <glyph glyph-name="backslash" unicode="\" horiz-adv-x="575" 
d="M475 -18l-450 1433h96l448 -1433h-94z" />
    <glyph glyph-name="bracketright" unicode="]" horiz-adv-x="618" 
d="M379 -354v1654h-365v97h463v-1848h-463v97h365z" />
    <glyph glyph-name="asciicircum" unicode="^" horiz-adv-x="1352" 
d="M676 1415l448 -536l-65 -54l-383 461l-385 -461l-64 54z" />
    <glyph glyph-name="underscore" unicode="_" horiz-adv-x="1024" 
d="M-12 -154h1048v-102h-1048v102z" />
    <glyph glyph-name="grave" unicode="`" horiz-adv-x="682" 
d="M158 1386h166l213 -319h-68z" />
    <glyph glyph-name="a" unicode="a" horiz-adv-x="874" 
d="M862 160v-82q-127 -96 -186 -96q-34 0 -47 22.5t-19 91.5q-145 -114 -288 -114q-104 0 -176 68t-72 165q0 150 139 236.5t397 99.5v117q0 188 -204 188q-130 0 -281 -117v101q156 98 297 98q125 0 206 -61.5t81 -178.5v-573q0 -47 22 -47q28 0 131 82zM610 182v287
q-189 7 -313.5 -66.5t-124.5 -187.5q0 -64 52 -108t130 -44q126 0 256 119z" />
    <glyph glyph-name="b" unicode="b" horiz-adv-x="1044" 
d="M127 51v1346h98v-609q147 150 332 150q180 0 295 -125.5t115 -323.5q0 -230 -140.5 -368.5t-373.5 -138.5q-153 0 -326 69zM225 678v-557q114 -43 226 -43q178 0 294.5 114.5t116.5 290.5q0 163 -90 268t-227 105q-164 0 -320 -178z" />
    <glyph glyph-name="c" unicode="c" horiz-adv-x="854" 
d="M776 893v-109q-132 58 -239 58q-154 0 -250.5 -107t-96.5 -278q0 -174 96.5 -276.5t258.5 -102.5q118 0 248 53v-102q-138 -47 -256 -47q-202 0 -326.5 128t-124.5 336q0 217 125.5 354.5t320.5 137.5q107 0 244 -45z" />
    <glyph glyph-name="d" unicode="d" horiz-adv-x="1044" 
d="M920 1397v-1397h-99v72q-126 -90 -272 -90q-196 0 -330.5 138.5t-134.5 340.5q0 205 132.5 341t332.5 136q127 0 272 -74v533h99zM821 162v594q-132 86 -268 86q-159 0 -262 -105.5t-103 -269.5q0 -167 110 -278t275 -111q128 0 248 84z" />
    <glyph glyph-name="e" unicode="e" horiz-adv-x="981" 
d="M911 494h-725q-3 -24 -3 -48q0 -154 110 -261t260 -107q175 0 342 137v-111q-158 -122 -354 -122q-199 0 -329 138t-130 351q0 202 120 334.5t302 132.5q171 0 289 -119.5t118 -324.5zM199 573h596q-52 269 -291 269q-113 0 -195.5 -70.5t-109.5 -198.5z" />
    <glyph glyph-name="f" unicode="f" horiz-adv-x="492" 
d="M680 1376v-92q-99 35 -166 35q-223 0 -223 -285v-114h178v-80h-178v-840h-98v840h-170v80h170v151q0 159 92.5 251.5t226.5 92.5q73 0 168 -39z" />
    <glyph glyph-name="g" unicode="g" horiz-adv-x="874" 
d="M854 920v-80h-209q127 -116 127 -244q0 -115 -49.5 -182t-118 -97.5t-182.5 -60t-143 -55.5t-29 -60q0 -40 37.5 -64t233 -35t263.5 -75t68 -170q0 -125 -109 -196.5t-303 -71.5q-193 0 -298 67.5t-105 178.5q0 180 268 223v4q-149 35 -149 131q0 97 184 150v4
q-121 36 -183.5 119.5t-62.5 185.5q0 145 101 236.5t290 91.5h369zM432 348q101 0 173.5 72.5t72.5 173.5t-72.5 172.5t-175.5 71.5q-102 0 -172 -70t-70 -170q0 -104 71 -177t173 -73zM446 -389q143 0 227.5 49t84.5 129q0 162 -293 162q-334 0 -334 -170t315 -170z" />
    <glyph glyph-name="h" unicode="h" horiz-adv-x="1004" 
d="M225 1397v-637h4q115 178 303 178q156 0 249 -100t93 -275v-563h-98v524q0 318 -250 318q-179 0 -301 -197v-645h-98v1397h98z" />
    <glyph glyph-name="i" unicode="i" horiz-adv-x="385" 
d="M242 1397v-168h-99v168h99zM242 920v-920h-99v920h99z" />
    <glyph glyph-name="j" unicode="j" horiz-adv-x="385" 
d="M238 1397v-168h-99v168h99zM238 920v-1022q0 -173 -73 -271t-200 -98l-22 84q105 2 150.5 69t45.5 218v1020h99z" />
    <glyph glyph-name="k" unicode="k" horiz-adv-x="874" 
d="M219 1397v-1397h-98v1397h98zM870 920l-503 -437l581 -483h-135l-580 483l508 437h129z" />
    <glyph glyph-name="l" unicode="l" horiz-adv-x="385" 
d="M242 1397v-1397h-99v1397h99z" />
    <glyph glyph-name="m" unicode="m" horiz-adv-x="1579" 
d="M221 920v-162h4q112 180 293 180q211 0 297 -221q130 221 320 221q143 0 231 -102t88 -271v-565h-98v522q0 149 -63 234.5t-177 85.5q-85 0 -148 -51t-130 -164v-627h-99v524q0 153 -65.5 235.5t-175.5 82.5q-160 0 -277 -197v-645h-98v920h98z" />
    <glyph glyph-name="n" unicode="n" horiz-adv-x="1004" 
d="M225 920v-160h4q115 178 303 178q156 0 249 -100t93 -277v-561h-98v524q0 318 -250 318q-183 0 -301 -197v-645h-98v920h98z" />
    <glyph glyph-name="o" unicode="o" horiz-adv-x="1110" 
d="M555 938q200 0 333.5 -137t133.5 -342q0 -204 -133.5 -340.5t-333.5 -136.5t-334.5 136.5t-134.5 340.5q0 205 134.5 342t334.5 137zM555 78q155 0 259 108.5t104 272.5q0 163 -104.5 273t-258.5 110q-156 0 -260.5 -109t-104.5 -274q0 -164 104.5 -272.5t260.5 -108.5z
" />
    <glyph glyph-name="p" unicode="p" horiz-adv-x="1044" 
d="M227 920v-52q139 70 277 70q196 0 325 -135t129 -340q0 -202 -133 -341.5t-325 -139.5q-133 0 -273 69v-522h-98v1391h98zM227 774v-627q125 -69 254 -69q165 0 267 104t102 273q0 168 -108 277.5t-273 109.5q-118 0 -242 -68z" />
    <glyph glyph-name="q" unicode="q" horiz-adv-x="1044" 
d="M915 920v-1391h-98v524q-154 -71 -301 -71q-193 0 -316.5 129t-123.5 331q0 213 130 354.5t324 141.5q141 0 287 -82v64h98zM817 152v608q-132 82 -266 82q-158 0 -264.5 -117t-106.5 -291q0 -164 98 -263t259 -99q141 0 280 80z" />
    <glyph glyph-name="r" unicode="r" horiz-adv-x="682" 
d="M764 829l-57 -92q-115 105 -185 105q-138 0 -295 -264v-578h-98v920h98v-242h4q165 260 322 260q90 0 211 -109z" />
    <glyph glyph-name="s" unicode="s" horiz-adv-x="725" 
d="M633 860v-106q-140 94 -252 94q-83 0 -140 -45t-57 -111q0 -47 34.5 -86.5t191 -99.5t204.5 -125t48 -145q0 -107 -87 -180.5t-215 -73.5q-139 0 -276 84v96q163 -84 289 -84q85 0 139.5 45t54.5 115q0 48 -35.5 88.5t-192 102.5t-203 122.5t-46.5 134.5
q0 105 86.5 178.5t210.5 73.5q113 0 246 -78z" />
    <glyph glyph-name="t" unicode="t" horiz-adv-x="618" 
d="M307 1225v-305h258v-80h-258v-547q0 -132 21.5 -173.5t115.5 -41.5q72 0 168 45v-94q-97 -47 -190 -47q-91 0 -152 52t-61 144v662h-248v80h248v219l67 86h31z" />
    <glyph glyph-name="u" unicode="u" horiz-adv-x="1004" 
d="M776 0v152h-4q-64 -92 -131.5 -131t-171.5 -39q-148 0 -245 96t-97 272v570h98v-568q0 -128 70 -201t182 -73q96 0 163.5 44t135.5 152v646h98v-920h-98z" />
    <glyph glyph-name="v" unicode="v" horiz-adv-x="874" 
d="M874 920l-395 -938h-61l-418 938h100l346 -775l332 775h96z" />
    <glyph glyph-name="w" unicode="w" horiz-adv-x="1450" 
d="M1450 920l-397 -938h-47l-283 747l-285 -747h-45l-393 938h96l314 -750l288 750h54l280 -750l320 750h98z" />
    <glyph glyph-name="x" unicode="x" horiz-adv-x="981" 
d="M500 403l-361 -403h-127l420 471l-420 449h127l361 -381l360 381h127l-422 -449l422 -471h-127z" />
    <glyph glyph-name="y" unicode="y" horiz-adv-x="854" 
d="M866 920l-688 -1391h-100l321 649l-387 742h103l334 -644l317 644h100z" />
    <glyph glyph-name="z" unicode="z" horiz-adv-x="811" 
d="M780 920l8 -31l-604 -799h604v-90h-757l-11 31l609 798h-570v91h721z" />
    <glyph glyph-name="braceleft" unicode="{" horiz-adv-x="682" 
d="M100 397v131q103 2 148 76t45 260v199q0 351 293 334v-111q-119 0 -149.5 -50.5t-30.5 -172.5v-199q0 -330 -199 -401q199 -71 199 -402v-198q0 -122 30.5 -172.5t149.5 -50.5v-111q-293 -17 -293 334v198q0 187 -45 261t-148 75z" />
    <glyph glyph-name="bar" unicode="|" horiz-adv-x="455" 
d="M176 1397h98v-1868h-98v1868z" />
    <glyph glyph-name="braceright" unicode="}" horiz-adv-x="682" 
d="M582 528v-131q-103 -1 -148 -75t-45 -261v-198q0 -351 -293 -334v111q119 0 149.5 50.5t30.5 172.5v198q0 331 199 402q-199 71 -199 401v199q0 122 -30.5 172.5t-149.5 50.5v111q293 17 293 -334v-199q0 -186 45 -260t148 -76z" />
    <glyph glyph-name="asciitilde" unicode="~" horiz-adv-x="1352" 
d="M137 596v111q166 120 287 120q79 0 261 -80.5t243 -80.5q63 0 126 33t158 102v-111q-165 -121 -280 -121q-82 0 -259 81t-247 81q-64 0 -121 -26.5t-168 -108.5z" />
    <glyph glyph-name="Adieresis" unicode="&#xc4;" horiz-adv-x="1366" 
d="M713 1407l645 -1407h-113l-221 483h-682l-221 -483h-113l645 1407h60zM983 573l-301 658l-299 -658h600zM774 1659q0 37 27 64t63 27q37 0 63.5 -27t26.5 -64q0 -36 -26.5 -63t-63.5 -27q-36 0 -63 27t-27 63zM412 1659q0 37 26.5 64t63.5 27q36 0 63 -27t27 -64
q0 -36 -27 -63t-63 -27q-37 0 -63.5 27t-26.5 63z" />
    <glyph glyph-name="Aring" unicode="&#xc5;" horiz-adv-x="1366" 
d="M713 1407l645 -1407h-113l-221 483h-682l-221 -483h-113l645 1407h60zM983 573l-301 658l-299 -658h600zM504 1662q0 74 52 125.5t126 51.5q73 0 124.5 -51.5t51.5 -125.5q0 -73 -51.5 -125.5t-124.5 -52.5t-125.5 52.5t-52.5 125.5zM803 1662q0 51 -35.5 86t-85.5 35
q-51 0 -87 -35t-36 -86q0 -50 36.5 -86t86.5 -36t85.5 36t35.5 86z" />
    <glyph glyph-name="Ccedilla" unicode="&#xc7;" horiz-adv-x="1386" 
d="M1339 225v-112q-248 -131 -495 -131q-34 0 -47 4l-17 -58q127 -22 127 -129q0 -73 -55.5 -115.5t-145.5 -42.5q-44 0 -90 11l11 65q38 -3 67 -3q133 0 133 79q0 77 -127 80l35 117q-290 40 -462.5 238t-172.5 468q0 307 217 513t517 206q236 0 491 -117v-118
q-254 135 -498 135q-260 0 -435 -177t-175 -442q0 -268 176 -441t449 -173q228 0 497 143z" />
    <glyph glyph-name="Eacute" unicode="&#xc9;" horiz-adv-x="1004" 
d="M926 1397v-90h-654v-559h637v-91h-637v-567h670v-90h-778v1397h762zM854 1833l-311 -319h-68l213 319h166z" />
    <glyph glyph-name="Ntilde" unicode="&#xd1;" horiz-adv-x="1579" 
d="M1419 1397v-1397h-90l-1061 1221v-1221h-108v1397h92l1059 -1221v1221h108zM1125 1764q5 -84 -44.5 -140.5t-123.5 -56.5q-50 0 -177.5 50.5t-172.5 50.5q-74 0 -86 -99h-66q0 87 44.5 141t123.5 54q66 0 185 -50t163 -50q79 0 92 100h62z" />
    <glyph glyph-name="Odieresis" unicode="&#xd6;" horiz-adv-x="1686" 
d="M842 1415q310 0 525.5 -208.5t215.5 -508.5q0 -299 -215.5 -507.5t-525.5 -208.5q-309 0 -523.5 208.5t-214.5 507.5q0 300 214.5 508.5t523.5 208.5zM846 82q261 0 440.5 178.5t179.5 437.5q0 260 -179.5 438.5t-440.5 178.5q-262 0 -443.5 -178.5t-181.5 -438.5
q0 -259 181.5 -437.5t443.5 -178.5zM934 1659q0 37 27 64t63 27q37 0 63.5 -27t26.5 -64q0 -36 -26.5 -63t-63.5 -27q-36 0 -63 27t-27 63zM572 1659q0 37 26.5 64t63.5 27q36 0 63 -27t27 -64q0 -36 -27 -63t-63 -27q-37 0 -63.5 27t-26.5 63z" />
    <glyph glyph-name="Udieresis" unicode="&#xdc;" horiz-adv-x="1430" 
d="M1192 1397h108v-762q0 -313 -163 -483t-422 -170q-258 0 -421 168t-163 460v787h109v-783q0 -250 132.5 -391t342.5 -141q212 0 344.5 142.5t132.5 404.5v768zM807 1659q0 37 27 64t63 27q37 0 63.5 -27t26.5 -64q0 -36 -26.5 -63t-63.5 -27q-36 0 -63 27t-27 63z
M445 1659q0 37 26.5 64t63.5 27q36 0 63 -27t27 -64q0 -36 -27 -63t-63 -27q-37 0 -63.5 27t-26.5 63z" />
    <glyph glyph-name="aacute" unicode="&#xe1;" horiz-adv-x="874" 
d="M862 160v-82q-127 -96 -186 -96q-34 0 -47 22.5t-19 91.5q-145 -114 -288 -114q-104 0 -176 68t-72 165q0 150 139 236.5t397 99.5v117q0 188 -204 188q-130 0 -281 -117v101q156 98 297 98q125 0 206 -61.5t81 -178.5v-573q0 -47 22 -47q28 0 131 82zM610 182v287
q-189 7 -313.5 -66.5t-124.5 -187.5q0 -64 52 -108t130 -44q126 0 256 119zM776 1386l-311 -319h-68l213 319h166z" />
    <glyph glyph-name="agrave" unicode="&#xe0;" horiz-adv-x="874" 
d="M862 160v-82q-127 -96 -186 -96q-34 0 -47 22.5t-19 91.5q-145 -114 -288 -114q-104 0 -176 68t-72 165q0 150 139 236.5t397 99.5v117q0 188 -204 188q-130 0 -281 -117v101q156 98 297 98q125 0 206 -61.5t81 -178.5v-573q0 -47 22 -47q28 0 131 82zM610 182v287
q-189 7 -313.5 -66.5t-124.5 -187.5q0 -64 52 -108t130 -44q126 0 256 119zM178 1386h166l213 -319h-68z" />
    <glyph glyph-name="acircumflex" unicode="&#xe2;" horiz-adv-x="874" 
d="M862 160v-82q-127 -96 -186 -96q-34 0 -47 22.5t-19 91.5q-145 -114 -288 -114q-104 0 -176 68t-72 165q0 150 139 236.5t397 99.5v117q0 188 -204 188q-130 0 -281 -117v101q156 98 297 98q125 0 206 -61.5t81 -178.5v-573q0 -47 22 -47q28 0 131 82zM610 182v287
q-189 7 -313.5 -66.5t-124.5 -187.5q0 -64 52 -108t130 -44q126 0 256 119zM503 1384l217 -335h-78l-203 223l-205 -223h-78l222 335h125z" />
    <glyph glyph-name="adieresis" unicode="&#xe4;" horiz-adv-x="874" 
d="M862 160v-82q-127 -96 -186 -96q-34 0 -47 22.5t-19 91.5q-145 -114 -288 -114q-104 0 -176 68t-72 165q0 150 139 236.5t397 99.5v117q0 188 -204 188q-130 0 -281 -117v101q156 98 297 98q125 0 206 -61.5t81 -178.5v-573q0 -47 22 -47q28 0 131 82zM610 182v287
q-189 7 -313.5 -66.5t-124.5 -187.5q0 -64 52 -108t130 -44q126 0 256 119zM529 1212q0 37 27 64t63 27q37 0 63.5 -27t26.5 -64q0 -36 -26.5 -63t-63.5 -27q-36 0 -63 27t-27 63zM167 1212q0 37 26.5 64t63.5 27q36 0 63 -27t27 -64q0 -36 -27 -63t-63 -27q-37 0 -63.5 27
t-26.5 63z" />
    <glyph glyph-name="atilde" unicode="&#xe3;" horiz-adv-x="874" 
d="M862 160v-82q-127 -96 -186 -96q-34 0 -47 22.5t-19 91.5q-145 -114 -288 -114q-104 0 -176 68t-72 165q0 150 139 236.5t397 99.5v117q0 188 -204 188q-130 0 -281 -117v101q156 98 297 98q125 0 206 -61.5t81 -178.5v-573q0 -47 22 -47q28 0 131 82zM610 182v287
q-189 7 -313.5 -66.5t-124.5 -187.5q0 -64 52 -108t130 -44q126 0 256 119zM772 1317q5 -84 -44.5 -140.5t-123.5 -56.5q-50 0 -177.5 50.5t-172.5 50.5q-74 0 -86 -99h-66q0 87 44.5 141t123.5 54q66 0 185 -50t163 -50q79 0 92 100h62z" />
    <glyph glyph-name="aring" unicode="&#xe5;" horiz-adv-x="874" 
d="M862 160v-82q-127 -96 -186 -96q-34 0 -47 22.5t-19 91.5q-145 -114 -288 -114q-104 0 -176 68t-72 165q0 150 139 236.5t397 99.5v117q0 188 -204 188q-130 0 -281 -117v101q156 98 297 98q125 0 206 -61.5t81 -178.5v-573q0 -47 22 -47q28 0 131 82zM610 182v287
q-189 7 -313.5 -66.5t-124.5 -187.5q0 -64 52 -108t130 -44q126 0 256 119zM260 1214q0 74 52 125.5t126 51.5q73 0 124.5 -51.5t51.5 -125.5q0 -73 -51.5 -125.5t-124.5 -52.5t-125.5 52.5t-52.5 125.5zM559 1214q0 51 -35.5 86t-85.5 35q-51 0 -87 -35t-36 -86
q0 -50 36.5 -86t86.5 -36t85.5 36t35.5 86z" />
    <glyph glyph-name="ccedilla" unicode="&#xe7;" horiz-adv-x="854" 
d="M793 131v-102q-138 -47 -256 -47q-26 0 -37 4l-17 -58q127 -22 127 -129q0 -73 -55.5 -115.5t-145.5 -42.5q-44 0 -90 11l11 65q38 -3 67 -3q133 0 133 79q0 77 -127 80l35 117q-166 31 -259 154.5t-93 301.5q0 217 125.5 354.5t320.5 137.5q107 0 244 -45v-109
q-132 58 -239 58q-154 0 -250.5 -107t-96.5 -278q0 -174 96.5 -276.5t258.5 -102.5q118 0 248 53z" />
    <glyph glyph-name="eacute" unicode="&#xe9;" horiz-adv-x="981" 
d="M911 494h-725q-3 -24 -3 -48q0 -154 110 -261t260 -107q175 0 342 137v-111q-158 -122 -354 -122q-199 0 -329 138t-130 351q0 202 120 334.5t302 132.5q171 0 289 -119.5t118 -324.5zM199 573h596q-52 269 -291 269q-113 0 -195.5 -70.5t-109.5 -198.5zM842 1386
l-311 -319h-68l213 319h166z" />
    <glyph glyph-name="egrave" unicode="&#xe8;" horiz-adv-x="981" 
d="M911 494h-725q-3 -24 -3 -48q0 -154 110 -261t260 -107q175 0 342 137v-111q-158 -122 -354 -122q-199 0 -329 138t-130 351q0 202 120 334.5t302 132.5q171 0 289 -119.5t118 -324.5zM199 573h596q-52 269 -291 269q-113 0 -195.5 -70.5t-109.5 -198.5zM307 1386h166
l213 -319h-68z" />
    <glyph glyph-name="ecircumflex" unicode="&#xea;" horiz-adv-x="981" 
d="M911 494h-725q-3 -24 -3 -48q0 -154 110 -261t260 -107q175 0 342 137v-111q-158 -122 -354 -122q-199 0 -329 138t-130 351q0 202 120 334.5t302 132.5q171 0 289 -119.5t118 -324.5zM199 573h596q-52 269 -291 269q-113 0 -195.5 -70.5t-109.5 -198.5zM556 1384
l217 -335h-78l-203 223l-205 -223h-78l222 335h125z" />
    <glyph glyph-name="edieresis" unicode="&#xeb;" horiz-adv-x="981" 
d="M911 494h-725q-3 -24 -3 -48q0 -154 110 -261t260 -107q175 0 342 137v-111q-158 -122 -354 -122q-199 0 -329 138t-130 351q0 202 120 334.5t302 132.5q171 0 289 -119.5t118 -324.5zM199 573h596q-52 269 -291 269q-113 0 -195.5 -70.5t-109.5 -198.5zM582 1212
q0 37 27 64t63 27q37 0 63.5 -27t26.5 -64q0 -36 -26.5 -63t-63.5 -27q-36 0 -63 27t-27 63zM220 1212q0 37 26.5 64t63.5 27q36 0 63 -27t27 -64q0 -36 -27 -63t-63 -27q-37 0 -63.5 27t-26.5 63z" />
    <glyph glyph-name="iacute" unicode="&#xed;" horiz-adv-x="385" 
d="M242 920v-920h-99v920h99zM547 1386l-311 -319h-68l213 319h166z" />
    <glyph glyph-name="igrave" unicode="&#xec;" horiz-adv-x="385" 
d="M242 920v-920h-99v920h99zM-70 1386h166l213 -319h-68z" />
    <glyph glyph-name="icircumflex" unicode="&#xee;" horiz-adv-x="385" 
d="M242 920v-920h-99v920h99zM260 1384l217 -335h-78l-203 223l-205 -223h-78l222 335h125z" />
    <glyph glyph-name="idieresis" unicode="&#xef;" horiz-adv-x="385" 
d="M242 920v-920h-99v920h99zM286 1212q0 37 27 64t63 27q37 0 63.5 -27t26.5 -64q0 -36 -26.5 -63t-63.5 -27q-36 0 -63 27t-27 63zM-76 1212q0 37 26.5 64t63.5 27q36 0 63 -27t27 -64q0 -36 -27 -63t-63 -27q-37 0 -63.5 27t-26.5 63z" />
    <glyph glyph-name="ntilde" unicode="&#xf1;" horiz-adv-x="1004" 
d="M225 920v-160h4q115 178 303 178q156 0 249 -100t93 -277v-561h-98v524q0 318 -250 318q-183 0 -301 -197v-645h-98v920h98zM838 1317q5 -84 -44.5 -140.5t-123.5 -56.5q-50 0 -177.5 50.5t-172.5 50.5q-74 0 -86 -99h-66q0 87 44.5 141t123.5 54q66 0 185 -50t163 -50
q79 0 92 100h62z" />
    <glyph glyph-name="oacute" unicode="&#xf3;" horiz-adv-x="1110" 
d="M555 938q200 0 333.5 -137t133.5 -342q0 -204 -133.5 -340.5t-333.5 -136.5t-334.5 136.5t-134.5 340.5q0 205 134.5 342t334.5 137zM555 78q155 0 259 108.5t104 272.5q0 163 -104.5 273t-258.5 110q-156 0 -260.5 -109t-104.5 -274q0 -164 104.5 -272.5t260.5 -108.5z
M907 1386l-311 -319h-68l213 319h166z" />
    <glyph glyph-name="ograve" unicode="&#xf2;" horiz-adv-x="1110" 
d="M555 938q200 0 333.5 -137t133.5 -342q0 -204 -133.5 -340.5t-333.5 -136.5t-334.5 136.5t-134.5 340.5q0 205 134.5 342t334.5 137zM555 78q155 0 259 108.5t104 272.5q0 163 -104.5 273t-258.5 110q-156 0 -260.5 -109t-104.5 -274q0 -164 104.5 -272.5t260.5 -108.5z
M373 1386h166l213 -319h-68z" />
    <glyph glyph-name="ocircumflex" unicode="&#xf4;" horiz-adv-x="1110" 
d="M555 938q200 0 333.5 -137t133.5 -342q0 -204 -133.5 -340.5t-333.5 -136.5t-334.5 136.5t-134.5 340.5q0 205 134.5 342t334.5 137zM555 78q155 0 259 108.5t104 272.5q0 163 -104.5 273t-258.5 110q-156 0 -260.5 -109t-104.5 -274q0 -164 104.5 -272.5t260.5 -108.5z
M621 1384l217 -335h-78l-203 223l-205 -223h-78l222 335h125z" />
    <glyph glyph-name="odieresis" unicode="&#xf6;" horiz-adv-x="1110" 
d="M555 938q200 0 333.5 -137t133.5 -342q0 -204 -133.5 -340.5t-333.5 -136.5t-334.5 136.5t-134.5 340.5q0 205 134.5 342t334.5 137zM555 78q155 0 259 108.5t104 272.5q0 163 -104.5 273t-258.5 110q-156 0 -260.5 -109t-104.5 -274q0 -164 104.5 -272.5t260.5 -108.5z
M647 1212q0 37 27 64t63 27q37 0 63.5 -27t26.5 -64q0 -36 -26.5 -63t-63.5 -27q-36 0 -63 27t-27 63zM285 1212q0 37 26.5 64t63.5 27q36 0 63 -27t27 -64q0 -36 -27 -63t-63 -27q-37 0 -63.5 27t-26.5 63z" />
    <glyph glyph-name="otilde" unicode="&#xf5;" horiz-adv-x="1110" 
d="M555 938q200 0 333.5 -137t133.5 -342q0 -204 -133.5 -340.5t-333.5 -136.5t-334.5 136.5t-134.5 340.5q0 205 134.5 342t334.5 137zM555 78q155 0 259 108.5t104 272.5q0 163 -104.5 273t-258.5 110q-156 0 -260.5 -109t-104.5 -274q0 -164 104.5 -272.5t260.5 -108.5z
M891 1317q5 -84 -44.5 -140.5t-123.5 -56.5q-50 0 -177.5 50.5t-172.5 50.5q-74 0 -86 -99h-66q0 87 44.5 141t123.5 54q66 0 185 -50t163 -50q79 0 92 100h62z" />
    <glyph glyph-name="uacute" unicode="&#xfa;" horiz-adv-x="1004" 
d="M776 0v152h-4q-64 -92 -131.5 -131t-171.5 -39q-148 0 -245 96t-97 272v570h98v-568q0 -128 70 -201t182 -73q96 0 163.5 44t135.5 152v646h98v-920h-98zM854 1386l-311 -319h-68l213 319h166z" />
    <glyph glyph-name="ugrave" unicode="&#xf9;" horiz-adv-x="1004" 
d="M776 0v152h-4q-64 -92 -131.5 -131t-171.5 -39q-148 0 -245 96t-97 272v570h98v-568q0 -128 70 -201t182 -73q96 0 163.5 44t135.5 152v646h98v-920h-98zM319 1386h166l213 -319h-68z" />
    <glyph glyph-name="ucircumflex" unicode="&#xfb;" horiz-adv-x="1004" 
d="M776 0v152h-4q-64 -92 -131.5 -131t-171.5 -39q-148 0 -245 96t-97 272v570h98v-568q0 -128 70 -201t182 -73q96 0 163.5 44t135.5 152v646h98v-920h-98zM568 1384l217 -335h-78l-203 223l-205 -223h-78l222 335h125z" />
    <glyph glyph-name="udieresis" unicode="&#xfc;" horiz-adv-x="1004" 
d="M776 0v152h-4q-64 -92 -131.5 -131t-171.5 -39q-148 0 -245 96t-97 272v570h98v-568q0 -128 70 -201t182 -73q96 0 163.5 44t135.5 152v646h98v-920h-98zM599 1212q0 37 27 64t63 27q37 0 63.5 -27t26.5 -64q0 -36 -26.5 -63t-63.5 -27q-36 0 -63 27t-27 63zM237 1212
q0 37 26.5 64t63.5 27q36 0 63 -27t27 -64q0 -36 -27 -63t-63 -27q-37 0 -63.5 27t-26.5 63z" />
    <glyph glyph-name="dagger" unicode="&#x2020;" horiz-adv-x="1004" 
d="M567 1415l-37 -579l420 26v-112l-420 26l37 -1247h-133l39 1247l-422 -26v112l422 -26l-39 579h133z" />
    <glyph glyph-name="degree" unicode="&#xb0;" horiz-adv-x="819" 
d="M125 1130q0 118 83.5 201.5t201.5 83.5t202 -83.5t84 -201.5q0 -117 -84.5 -201.5t-201.5 -84.5q-118 0 -201.5 84.5t-83.5 201.5zM614 1128q0 85 -60 145t-144 60t-143.5 -60t-59.5 -145q0 -84 59.5 -143t143.5 -59t144 59.5t60 142.5z" />
    <glyph glyph-name="cent" unicode="&#xa2;" horiz-adv-x="854" 
d="M840 1307l-138 -389q44 -13 70 -25v-109q-56 29 -102 41l-256 -727q61 -20 133 -20q127 0 246 55v-96q-118 -56 -249 -56q-77 0 -163 19l-139 -387h-90l151 424q-217 126 -217 403q0 232 126.5 365t335.5 133q35 0 70 -4l134 373h88zM336 137l254 705h-49
q-156 0 -253.5 -104.5t-97.5 -282.5q0 -202 146 -318z" />
    <glyph glyph-name="sterling" unicode="&#xa3;" horiz-adv-x="1130" 
d="M1038 1397l49 -97q-63 17 -110 17q-163 0 -280 -142.5t-205 -449.5h217v-96h-246l-137 -520q149 14 213 14q90 0 203.5 -21.5t156.5 -21.5q103 0 203 55v-108q-90 -45 -197 -45q-38 0 -169.5 21.5t-221.5 21.5q-138 0 -321 -35l172 639h-172v96h198q190 690 549 690
q50 0 98 -18z" />
    <glyph glyph-name="section" unicode="&#xa7;" horiz-adv-x="811" 
d="M690 1190h-104q-31 135 -176 135q-78 0 -133.5 -51t-55.5 -123q0 -64 42.5 -136t218.5 -225t226 -243t50 -172q0 -90 -42 -165t-130 -167q100 -114 100 -244q0 -121 -80 -195.5t-211 -74.5q-108 0 -183.5 58.5t-88.5 162.5h102q29 -131 174 -131q83 0 138 51.5t55 128.5
q0 60 -41.5 128.5t-218 221t-228 245t-51.5 177.5q0 156 172 326q-102 129 -102 248t81 194.5t210 75.5q111 0 186.5 -60.5t89.5 -164.5zM524 109q140 129 140 258q0 73 -45 144t-330 323q-131 -126 -131 -261q0 -64 37 -132.5t162 -179t167 -152.5z" />
    <glyph glyph-name="bullet" unicode="&#x2022;" horiz-adv-x="1024" 
d="M262 698q0 103 74 176.5t176 73.5t176 -73.5t74 -176.5q0 -102 -74 -175.5t-176 -73.5t-176 73.5t-74 175.5z" />
    <glyph glyph-name="paragraph" unicode="&#xb6;" horiz-adv-x="1331" 
d="M1272 1397v-139h-197v-1735h-127v1735h-266v-1735h-131v1033q-203 -8 -327 113t-124 309q0 194 132.5 306.5t347.5 112.5h692z" />
    <glyph glyph-name="germandbls" unicode="&#xdf;" horiz-adv-x="1024" 
d="M127 0v997q0 199 99.5 308.5t279.5 109.5q162 0 267.5 -95.5t105.5 -242.5q0 -89 -47 -176.5t-138 -124.5q246 -95 246 -370q0 -186 -104 -305t-263 -119q-60 0 -127 18v102q68 -24 123 -24q121 0 194 89t73 236q0 144 -72 230t-205 96v92q98 -6 156.5 68t58.5 182
q0 120 -73 191t-195 71q-281 0 -281 -354v-979h-98z" />
    <glyph glyph-name="registered" unicode="&#xae;" horiz-adv-x="1638" 
d="M55 727q0 315 224.5 539.5t539.5 224.5t539.5 -224.5t224.5 -539.5t-224.5 -539.5t-539.5 -224.5t-539.5 224.5t-224.5 539.5zM1487 727q0 275 -196.5 471.5t-471.5 196.5t-471 -196.5t-196 -471.5t196 -471.5t471 -196.5t471.5 196.5t196.5 471.5zM512 1120h332
q127 0 199.5 -56.5t72.5 -156.5q0 -185 -219 -223q86 -52 124.5 -106t125.5 -261h-121q-107 235 -169 294t-200 59h-47v-353h-98v803zM610 750h133q139 0 197.5 33t58.5 116q0 81 -53.5 111t-187.5 30h-148v-290z" />
    <glyph glyph-name="copyright" unicode="&#xa9;" horiz-adv-x="1638" 
d="M55 727q0 315 224.5 539.5t539.5 224.5t539.5 -224.5t224.5 -539.5t-224.5 -539.5t-539.5 -224.5t-539.5 224.5t-224.5 539.5zM1487 727q0 275 -196.5 471.5t-471.5 196.5t-471 -196.5t-196 -471.5t196 -471.5t471 -196.5t471.5 196.5t196.5 471.5zM1151 920l-96 -25
q-72 166 -228 166q-122 0 -202 -87t-80 -229q0 -164 75 -264t197 -100q183 0 252 205l90 -33q-33 -121 -124.5 -191.5t-211.5 -70.5q-165 0 -274 124.5t-109 313.5q0 178 108 297t281 119q211 0 322 -225z" />
    <glyph glyph-name="trademark" unicode="&#x2122;" horiz-adv-x="1925" 
d="M205 1397h635v-84h-265v-729h-104v729h-266v84zM934 1397h153l206 -647l212 647h156v-813h-92v729l-244 -729h-70l-229 729v-729h-92v813z" />
    <glyph glyph-name="acute" unicode="&#xb4;" horiz-adv-x="682" 
d="M692 1386l-311 -319h-68l213 319h166z" />
    <glyph glyph-name="dieresis" unicode="&#xa8;" horiz-adv-x="682" 
d="M432 1212q0 37 27 64t63 27q37 0 63.5 -27t26.5 -64q0 -36 -26.5 -63t-63.5 -27q-36 0 -63 27t-27 63zM70 1212q0 37 26.5 64t63.5 27q36 0 63 -27t27 -64q0 -36 -27 -63t-63 -27q-37 0 -63.5 27t-26.5 63z" />
    <glyph glyph-name="notequal" unicode="&#x2260;" horiz-adv-x="1124" 
d="M1106 279h-621l-184 -330l-100 57l151 273h-321v112h385l157 285h-542v112h606l186 336l101 -57l-156 -279h338v-112h-399l-160 -285h559v-112z" />
    <glyph glyph-name="AE" unicode="&#xc6;" horiz-adv-x="1772" 
d="M1675 1397v-90h-657v-557h643v-91h-643v-569h676v-90h-785v659h-409l-410 -659h-119l873 1397h831zM559 750h350v571z" />
    <glyph glyph-name="Oslash" unicode="&#xd8;" horiz-adv-x="1686" 
d="M399 121l-129 -144l-77 60l131 145q-220 218 -220 516q0 300 214.5 508.5t523.5 208.5q255 0 461 -151l129 143l75 -51l-137 -152q213 -209 213 -506q0 -299 -215.5 -507.5t-525.5 -208.5q-237 0 -443 139zM399 264l832 922q-160 129 -385 129q-262 0 -443.5 -178.5
t-181.5 -438.5q0 -253 178 -434zM1300 1124l-829 -923q165 -119 375 -119q261 0 440.5 178.5t179.5 437.5q0 237 -166 426z" />
    <glyph glyph-name="infinity" unicode="&#x221e;" horiz-adv-x="1460" 
d="M689 812q105 132 164 174q80 58 169 58q105 0 196.5 -76t91.5 -245q0 -118 -34 -185.5t-106 -108.5t-148 -41q-89 0 -169 57q-59 43 -164 175q-136 -171 -289 -171q-101 0 -173.5 76.5t-72.5 190.5q0 113 72.5 190t173.5 77q153 0 289 -171zM758 717q87 -135 159 -185
q46 -33 103 -33q76 0 127.5 56t51.5 158q0 106 -52.5 162t-130.5 56q-49 0 -92 -28q-58 -39 -166 -186zM620 716q-80 100 -128 128.5t-92 28.5q-58 0 -96.5 -41t-38.5 -113q0 -71 40 -113.5t97 -42.5q101 0 218 153z" />
    <glyph glyph-name="plusminus" unicode="&#xb1;" horiz-adv-x="1352" 
d="M139 764h492v491h90v-491h491v-90h-491v-492h-90v492h-492v90zM139 90h1073v-90h-1073v90z" />
    <glyph glyph-name="lessequal" unicode="&#x2264;" horiz-adv-x="1124" 
d="M1077 240l-1018 471v127l1018 471v-127l-887 -408l887 -407v-127zM1077 0h-1018v112h1018v-112z" />
    <glyph glyph-name="greaterequal" unicode="&#x2265;" horiz-adv-x="1124" 
d="M1077 711l-1018 -471v127l887 407l-887 408v127l1018 -471v-127zM1077 0h-1018v112h1018v-112z" />
    <glyph glyph-name="yen" unicode="&#xa5;" horiz-adv-x="1139" 
d="M4 1466h148l423 -725l418 725h142l-430 -725h366v-96h-434v-156h434v-96h-434v-393h-131v393h-438v96h438v156h-438v96h370z" />
    <glyph glyph-name="mu1" unicode="&#xb5;" horiz-adv-x="1139" 
d="M207 920h98v-478q0 -370 270 -370q271 0 271 342v506h98v-920h-98v102q-105 -120 -273 -120q-160 0 -268 120v-464h-98v1282z" />
    <glyph glyph-name="partialdiff" unicode="&#x2202;" horiz-adv-x="1012" 
d="M422 1138l-135 60q70 157 168 225t192 68q76 0 137.5 -39.5t92.5 -90.5q47 -79 69.5 -187t22.5 -248q0 -288 -86.5 -512.5t-233.5 -331.5t-289 -107q-137 0 -222.5 91t-85.5 256q0 226 153 387q197 207 649 215q-4 168 -24 256t-68 135.5t-113 47.5q-62 0 -121 -49.5
t-106 -175.5zM850 796q-244 -14 -357.5 -68t-187 -176.5t-73.5 -248.5q0 -83 51 -137t119 -54q75 0 160 55q117 76 190.5 234.5t97.5 394.5z" />
    <glyph glyph-name="summation" unicode="&#x2211;" horiz-adv-x="1460" 
d="M1386 -431h-1264v187l620 788l-603 772v175h1237v-164h-988l607 -775l-649 -822h1040v-161z" />
    <glyph glyph-name="product" unicode="&#x220f;" horiz-adv-x="1686" 
d="M161 1491h1362v-1922h-191v1748h-978v-1748h-193v1922z" />
    <glyph glyph-name="pi" unicode="&#xf006;" horiz-adv-x="1124" 
d="M0 1063h1124v-158h-162v-905h-189v905h-426v-905h-188v905h-159v158z" />
    <glyph glyph-name="integral" unicode="&#x222b;" horiz-adv-x="561" 
d="M602 1760q0 -39 -29.5 -64t-75.5 -25q-37 0 -60 25t-44 25q-18 0 -27.5 -14.5t-9.5 -43.5q0 -34 19.5 -256t19.5 -551q0 -505 -30 -709.5t-79 -282.5q-26 -41 -67.5 -62t-85.5 -21q-49 0 -86 35t-37 85q0 38 25.5 65t64.5 27q34 0 65.5 -33t44.5 -33q25 0 39.5 44.5
t14.5 153.5q0 37 -6 197t-6 562q0 481 17 638.5t41 215.5q29 70 69 104t84 34q57 0 98 -32.5t41 -83.5z" />
    <glyph glyph-name="ordfeminine" unicode="&#xaa;" horiz-adv-x="575" 
d="M573 971v-74q-94 -59 -131 -59q-47 0 -55 59q-88 -59 -172 -59q-72 0 -122 42t-50 103q0 87 88.5 140.5t255.5 62.5v63q0 103 -119 103q-79 0 -192 -78v80q104 61 203 61q92 0 143 -42.5t51 -115.5v-303q0 -41 19 -41q3 0 81 58zM387 1126q-120 0 -188 -39t-68 -106
q0 -36 29 -59t76 -23q72 0 151 66v161z" />
    <glyph glyph-name="ordmasculine" unicode="&#xba;" horiz-adv-x="725" 
d="M362 1415q131 0 221.5 -84.5t90.5 -204.5q0 -129 -86 -208.5t-226 -79.5q-134 0 -222.5 82t-88.5 206q0 126 87.5 207.5t223.5 81.5zM362 905q97 0 158.5 62.5t61.5 158.5q0 95 -63 158.5t-157 63.5q-95 0 -157 -62.5t-62 -159.5q0 -98 61 -159.5t158 -61.5z" />
    <glyph glyph-name="ohm" unicode="&#x2126;" horiz-adv-x="1573" 
d="M496 160q-108 67 -165 130q-87 96 -134 225.5t-47 286.5q0 196 79.5 360.5t231 252.5t347.5 88q336 0 516 -254q131 -186 131 -448q0 -168 -54 -297.5t-141 -222.5q-53 -58 -149 -121l364 6v-166h-575v177q80 40 124 78q72 61 122 145t75.5 179t25.5 198
q0 138 -49.5 277.5t-150 212.5t-243.5 73q-191 0 -296 -120q-146 -169 -146 -440q0 -217 91 -372.5t251 -227.5v-180h-577v168z" />
    <glyph glyph-name="ae" unicode="&#xe6;" horiz-adv-x="1366" 
d="M1290 498h-592v-121q0 -143 74.5 -221t190.5 -78q162 0 327 121v-113q-168 -104 -338 -104q-172 0 -293 143q-196 -143 -346 -143q-105 0 -175 67.5t-70 169.5q0 129 113.5 206.5t418.5 152.5v67q0 203 -184 203q-145 0 -305 -115v103q149 102 319 102q169 0 250 -141
q106 141 256 141q160 0 257 -122.5t97 -317.5zM698 578h484q-6 122 -78 193t-170 71q-97 0 -164 -72t-72 -192zM600 182v316q-438 -106 -438 -283q0 -64 49 -108t123 -44q110 0 266 119z" />
    <glyph glyph-name="oslash" unicode="&#xf8;" horiz-adv-x="1110" 
d="M270 74l-116 -135l-68 61l119 135q-119 130 -119 324q0 205 134.5 342t334.5 137q160 0 281 -90l108 123l64 -51l-111 -127q125 -140 125 -334q0 -204 -133.5 -340.5t-333.5 -136.5q-159 0 -285 92zM272 211l496 561q-90 70 -213 70q-156 0 -260.5 -109t-104.5 -274
q0 -141 82 -248zM827 713l-489 -563q100 -72 217 -72q155 0 259 108.5t104 272.5q0 158 -91 254z" />
    <glyph glyph-name="questiondown" unicode="&#xbf;" horiz-adv-x="575" 
d="M231 745v199h134v-199h-134zM487 -274l-47 -160q-71 -37 -139 -37q-114 0 -185 80t-71 211q0 72 26.5 153.5t113.5 205.5t105.5 175t18.5 95q0 62 -39 129l37 28q80 -91 80 -188q0 -46 -18.5 -102.5t-97 -182t-100 -195t-21.5 -128.5q0 -81 44.5 -137t108.5 -56
q98 0 164 109h20z" />
    <glyph glyph-name="exclamdown" unicode="&#xa1;" horiz-adv-x="362" 
d="M115 745v199h133v-199h-133zM115 -453l35 1004h63l35 -1004h-133z" />
    <glyph glyph-name="logicalnot" unicode="&#xac;" horiz-adv-x="1352" 
d="M139 989h1073v-581h-90v491h-983v90z" />
    <glyph glyph-name="radical" unicode="&#x221a;" horiz-adv-x="1124" 
d="M1055 1868l-307 -1946l-498 1028l-197 -96l-33 68l299 147l404 -825l260 1634z" />
    <glyph glyph-name="florin" unicode="&#x192;" horiz-adv-x="1139" 
d="M735 1067h223l-22 -96h-219l-248 -1141q-30 -142 -92.5 -201t-183.5 -59q-81 0 -179 31l23 100q88 -23 145 -23q74 0 109.5 35t52.5 115l246 1143h-168l18 96h168l49 213q51 215 265 215q61 0 182 -33l-21 -98q-81 20 -153 20q-60 0 -97 -28.5t-65 -149.5z" />
    <glyph glyph-name="approxequal" unicode="&#x2248;" horiz-adv-x="1124" 
d="M1022 874h51q-21 -155 -95.5 -238t-186.5 -83q-97 0 -304 117q-139 78 -211 78q-149 0 -178 -187h-47q20 154 93.5 238t181.5 84q47 0 107 -19.5t224 -107.5q118 -62 193 -62q144 0 172 180zM1022 487h51q-21 -155 -95.5 -238t-186.5 -83q-96 0 -268.5 97t-246.5 97
q-149 0 -178 -186h-47q20 153 93.5 236.5t181.5 83.5q47 0 112 -21.5t219 -103.5q118 -62 193 -62q144 0 172 180z" />
    <glyph glyph-name="Delta" unicode="&#x2206;" horiz-adv-x="1253" 
d="M668 1409l577 -1409h-1233zM594 1059l-447 -959h844z" />
    <glyph glyph-name="guillemotleft" unicode="&#xab;" horiz-adv-x="1024" 
d="M600 473l385 -459h-123l-387 459l387 459h123zM164 473l385 -459h-123l-387 459l387 459h123z" />
    <glyph glyph-name="guillemotright" unicode="&#xbb;" horiz-adv-x="1024" 
d="M860 473l-385 459h123l387 -459l-387 -459h-123zM424 473l-385 459h123l387 -459l-387 -459h-123z" />
    <glyph glyph-name="ellipsis" unicode="&#x2026;" horiz-adv-x="2048" 
d="M1772 199v-199h-134v199h134zM1090 199v-199h-134v199h134zM408 199v-199h-134v199h134z" />
    <glyph glyph-name="nonbreakingspace" unicode="&#xa0;" horiz-adv-x="569" 
 />
    <glyph glyph-name="Agrave" unicode="&#xc0;" horiz-adv-x="1366" 
d="M713 1407l645 -1407h-113l-221 483h-682l-221 -483h-113l645 1407h60zM983 573l-301 658l-299 -658h600zM400 1833h166l213 -319h-68z" />
    <glyph glyph-name="Atilde" unicode="&#xc3;" horiz-adv-x="1366" 
d="M713 1407l645 -1407h-113l-221 483h-682l-221 -483h-113l645 1407h60zM983 573l-301 658l-299 -658h600zM1018 1764q5 -84 -44.5 -140.5t-123.5 -56.5q-50 0 -177.5 50.5t-172.5 50.5q-74 0 -86 -99h-66q0 87 44.5 141t123.5 54q66 0 185 -50t163 -50q79 0 92 100h62z
" />
    <glyph glyph-name="Otilde" unicode="&#xd5;" horiz-adv-x="1686" 
d="M842 1415q310 0 525.5 -208.5t215.5 -508.5q0 -299 -215.5 -507.5t-525.5 -208.5q-309 0 -523.5 208.5t-214.5 507.5q0 300 214.5 508.5t523.5 208.5zM846 82q261 0 440.5 178.5t179.5 437.5q0 260 -179.5 438.5t-440.5 178.5q-262 0 -443.5 -178.5t-181.5 -438.5
q0 -259 181.5 -437.5t443.5 -178.5zM1178 1764q5 -84 -44.5 -140.5t-123.5 -56.5q-50 0 -177.5 50.5t-172.5 50.5q-74 0 -86 -99h-66q0 87 44.5 141t123.5 54q66 0 185 -50t163 -50q79 0 92 100h62z" />
    <glyph glyph-name="OE" unicode="&#x152;" horiz-adv-x="1835" 
d="M1743 1397v-90h-660v-562h646v-90h-646v-565h674v-90h-921q-348 0 -550 205t-202 491q0 291 203 496t544 205h912zM975 1307h-121q-306 0 -479.5 -178.5t-173.5 -432.5t176.5 -430t480.5 -176h117v1217z" />
    <glyph glyph-name="oe" unicode="&#x153;" horiz-adv-x="1706" 
d="M1624 496h-639q-7 -204 70 -311t221 -107q174 0 328 137v-113q-151 -120 -340 -120q-238 0 -334 215q-162 -215 -393 -215q-197 0 -325 131t-128 346q0 211 129.5 345t333.5 134q238 0 383 -195q46 91 133.5 143t181.5 52q165 0 276 -123.5t103 -318.5zM989 573h520
q-10 129 -81.5 199t-180.5 70q-102 0 -178.5 -73t-79.5 -196zM543 78q151 0 244.5 110t93.5 289q0 170 -88.5 267.5t-243.5 97.5q-161 0 -261 -104.5t-100 -274.5q0 -167 101 -276t254 -109z" />
    <glyph glyph-name="endash" unicode="&#x2013;" horiz-adv-x="1024" 
d="M-12 545h1048v-66h-1048v66z" />
    <glyph glyph-name="emdash" unicode="&#x2014;" horiz-adv-x="2048" 
d="M-12 545h2072v-66h-2072v66z" />
    <glyph glyph-name="quotedblleft" unicode="&#x201c;" horiz-adv-x="811" 
d="M563 963v155q0 182 133 283v-72q-43 -60 -43 -168h43v-198h-133zM115 963v155q0 182 133 283v-72q-43 -60 -43 -168h43v-198h-133z" />
    <glyph glyph-name="quotedblright" unicode="&#x201d;" horiz-adv-x="811" 
d="M696 1401v-156q0 -182 -133 -282v71q43 61 43 168h-43v199h133zM248 1401v-156q0 -182 -133 -282v71q43 61 43 168h-43v199h133z" />
    <glyph glyph-name="quoteleft" unicode="&#x2018;" horiz-adv-x="362" 
d="M115 963v155q0 182 133 283v-72q-43 -60 -43 -168h43v-198h-133z" />
    <glyph glyph-name="quoteright" unicode="&#x2019;" horiz-adv-x="362" 
d="M248 1401v-156q0 -182 -133 -282v71q43 61 43 168h-43v199h133z" />
    <glyph glyph-name="divide" unicode="&#xf7;" horiz-adv-x="1352" 
d="M756 1059q0 -34 -23.5 -57t-56.5 -23q-34 0 -57 23t-23 57q0 33 23 56.5t57 23.5q33 0 56.5 -23.5t23.5 -56.5zM139 764h1073v-90h-1073v90zM756 379q0 -34 -23.5 -57t-56.5 -23q-34 0 -57 23t-23 57t23 57t57 23q33 0 56.5 -23t23.5 -57z" />
    <glyph glyph-name="lozenge" unicode="&#x25ca;" horiz-adv-x="1012" 
d="M962 763l-397 -763h-122l-397 763l397 763h122zM839 763l-335 652l-335 -652l335 -652z" />
    <glyph glyph-name="ydieresis" unicode="&#xff;" horiz-adv-x="854" 
d="M866 920l-688 -1391h-100l321 649l-387 742h103l334 -644l317 644h100zM529 1212q0 37 27 64t63 27q37 0 63.5 -27t26.5 -64q0 -36 -26.5 -63t-63.5 -27q-36 0 -63 27t-27 63zM167 1212q0 37 26.5 64t63.5 27q36 0 63 -27t27 -64q0 -36 -27 -63t-63 -27q-37 0 -63.5 27
t-26.5 63z" />
    <glyph glyph-name="Ydieresis" unicode="&#x178;" horiz-adv-x="1194" 
d="M1194 1397l-543 -647v-750h-108v750l-543 647h131l467 -553l465 553h131zM688 1659q0 37 27 64t63 27q37 0 63.5 -27t26.5 -64q0 -36 -26.5 -63t-63.5 -27q-36 0 -63 27t-27 63zM326 1659q0 37 26.5 64t63.5 27q36 0 63 -27t27 -64q0 -36 -27 -63t-63 -27q-37 0 -63.5 27
t-26.5 63z" />
    <glyph glyph-name="fraction" unicode="&#x2215;" horiz-adv-x="276" 
d="M717 1415l-1077 -1470h-80l1077 1470h80z" />
    <glyph glyph-name="Euro" unicode="&#x20ac;" horiz-adv-x="1145" 
d="M301 860h705l-19 -98h-696q-3 -30 -3 -61q0 -29 3 -70h674l-19 -99h-645q30 -214 145.5 -331t276.5 -117q157 0 360 139v-112q-184 -129 -364 -129q-193 0 -343 133.5t-192 416.5h-151l18 99h125q-2 27 -2 61t2 70h-143l18 98h133q41 259 186.5 407t358.5 148
q174 0 367 -102l-21 -105q-184 105 -342 105q-166 0 -281.5 -121t-150.5 -332z" />
    <glyph glyph-name="guilsinglleft" unicode="&#x2039;" horiz-adv-x="575" 
d="M158 473l385 -459h-123l-387 459l387 459h123z" />
    <glyph glyph-name="guilsinglright" unicode="&#x203a;" horiz-adv-x="575" 
d="M418 473l-385 459h123l387 -459l-387 -459h-123z" />
    <glyph glyph-name="fi" unicode="&#xfb01;" horiz-adv-x="981" 
d="M481 920v-80h-190v-840h-98v840h-168v80h168v114q0 185 84.5 283t244.5 98q298 0 316 -258h-99q-17 176 -213 176q-123 0 -179 -71.5t-56 -227.5v-114h190zM838 920v-920h-99v920h99z" />
    <glyph glyph-name="fl" unicode="&#xfb02;" horiz-adv-x="981" 
d="M485 920v-80h-190v-840h-98v840h-170v80h170v159q0 158 87.5 247t221.5 89q69 0 137 -31v-96q-89 31 -145 31q-97 0 -150 -62.5t-53 -173.5v-163h190zM838 1397v-1397h-99v1397h99z" />
    <glyph glyph-name="daggerdbl" unicode="&#x2021;" horiz-adv-x="981" 
d="M436 473l29 369l-412 -29v113l412 -29l-39 518h129l-37 -518l410 29v-113l-410 29l27 -369l-27 -371l410 29v-113l-410 29l37 -518h-129l39 518l-412 -29v113l412 -29z" />
    <glyph glyph-name="periodcentered" unicode="&#x2219;" horiz-adv-x="575" 
d="M178 709q0 45 32.5 77.5t78.5 32.5t78 -32.5t32 -77.5q0 -46 -32 -78.5t-78 -32.5t-78.5 32.5t-32.5 78.5z" />
    <glyph glyph-name="quotesinglbase" unicode="&#x201a;" horiz-adv-x="362" 
d="M248 199v-156q0 -182 -133 -283v72q43 60 43 168h-43v199h133z" />
    <glyph glyph-name="quotedblbase" unicode="&#x201e;" horiz-adv-x="811" 
d="M692 199v-156q0 -182 -133 -283v72q43 60 43 168h-43v199h133zM252 199v-156q0 -182 -133 -283v72q43 60 43 168h-43v199h133z" />
    <glyph glyph-name="perthousand" unicode="&#x2030;" horiz-adv-x="2154" 
d="M362 1415q135 0 232.5 -97t97.5 -233q0 -135 -97.5 -232t-232.5 -97q-136 0 -232.5 96.5t-96.5 232.5t96.5 233t232.5 97zM362 844q100 0 171 71t71 170q0 100 -71 171t-171 71q-98 0 -169.5 -71.5t-71.5 -170.5q0 -100 71 -170.5t170 -70.5zM1292 1409l-1124 -1432h-102
l1126 1432h100zM1032 635q135 0 232.5 -97t97.5 -233q0 -135 -97.5 -232.5t-232.5 -97.5q-136 0 -233 97t-97 233t97 233t233 97zM1032 63q100 0 171 71.5t71 170.5t-71 170.5t-171 71.5q-99 0 -170 -72t-71 -170q0 -100 70.5 -171t170.5 -71zM1792 635q135 0 232.5 -97
t97.5 -233q0 -135 -97.5 -232.5t-232.5 -97.5q-136 0 -233 97t-97 233t97 233t233 97zM1792 63q99 0 170.5 71.5t71.5 170.5t-71.5 170.5t-170.5 71.5t-170.5 -72t-71.5 -170q0 -100 71 -171t171 -71z" />
    <glyph glyph-name="Acircumflex" unicode="&#xc2;" horiz-adv-x="1366" 
d="M713 1407l645 -1407h-113l-221 483h-682l-221 -483h-113l645 1407h60zM983 573l-301 658l-299 -658h600zM748 1831l217 -335h-78l-203 223l-205 -223h-78l222 335h125z" />
    <glyph glyph-name="Ecircumflex" unicode="&#xca;" horiz-adv-x="1004" 
d="M926 1397v-90h-654v-559h637v-91h-637v-567h670v-90h-778v1397h762zM568 1831l217 -335h-78l-203 223l-205 -223h-78l222 335h125z" />
    <glyph glyph-name="Aacute" unicode="&#xc1;" horiz-adv-x="1366" 
d="M713 1407l645 -1407h-113l-221 483h-682l-221 -483h-113l645 1407h60zM983 573l-301 658l-299 -658h600zM973 1833l-311 -319h-68l213 319h166z" />
    <glyph glyph-name="Edieresis" unicode="&#xcb;" horiz-adv-x="1004" 
d="M926 1397v-90h-654v-559h637v-91h-637v-567h670v-90h-778v1397h762zM594 1659q0 37 27 64t63 27q37 0 63.5 -27t26.5 -64q0 -36 -26.5 -63t-63.5 -27q-36 0 -63 27t-27 63zM232 1659q0 37 26.5 64t63.5 27q36 0 63 -27t27 -64q0 -36 -27 -63t-63 -27q-37 0 -63.5 27
t-26.5 63z" />
    <glyph glyph-name="Egrave" unicode="&#xc8;" horiz-adv-x="1004" 
d="M926 1397v-90h-654v-559h637v-91h-637v-567h670v-90h-778v1397h762zM319 1833h166l213 -319h-68z" />
    <glyph glyph-name="Iacute" unicode="&#xcd;" horiz-adv-x="426" 
d="M268 1397v-1397h-108v1397h108zM567 1833l-311 -319h-68l213 319h166z" />
    <glyph glyph-name="Icircumflex" unicode="&#xce;" horiz-adv-x="426" 
d="M268 1397v-1397h-108v1397h108zM281 1831l217 -335h-78l-203 223l-205 -223h-78l222 335h125z" />
    <glyph glyph-name="Idieresis" unicode="&#xcf;" horiz-adv-x="426" 
d="M268 1397v-1397h-108v1397h108zM307 1659q0 37 27 64t63 27q37 0 63.5 -27t26.5 -64q0 -36 -26.5 -63t-63.5 -27q-36 0 -63 27t-27 63zM-55 1659q0 37 26.5 64t63.5 27q36 0 63 -27t27 -64q0 -36 -27 -63t-63 -27q-37 0 -63.5 27t-26.5 63z" />
    <glyph glyph-name="Igrave" unicode="&#xcc;" horiz-adv-x="426" 
d="M268 1397v-1397h-108v1397h108zM-49 1833h166l213 -319h-68z" />
    <glyph glyph-name="Oacute" unicode="&#xd3;" horiz-adv-x="1686" 
d="M842 1415q310 0 525.5 -208.5t215.5 -508.5q0 -299 -215.5 -507.5t-525.5 -208.5q-309 0 -523.5 208.5t-214.5 507.5q0 300 214.5 508.5t523.5 208.5zM846 82q261 0 440.5 178.5t179.5 437.5q0 260 -179.5 438.5t-440.5 178.5q-262 0 -443.5 -178.5t-181.5 -438.5
q0 -259 181.5 -437.5t443.5 -178.5zM1194 1833l-311 -319h-68l213 319h166z" />
    <glyph glyph-name="Ocircumflex" unicode="&#xd4;" horiz-adv-x="1686" 
d="M842 1415q310 0 525.5 -208.5t215.5 -508.5q0 -299 -215.5 -507.5t-525.5 -208.5q-309 0 -523.5 208.5t-214.5 507.5q0 300 214.5 508.5t523.5 208.5zM846 82q261 0 440.5 178.5t179.5 437.5q0 260 -179.5 438.5t-440.5 178.5q-262 0 -443.5 -178.5t-181.5 -438.5
q0 -259 181.5 -437.5t443.5 -178.5zM908 1831l217 -335h-78l-203 223l-205 -223h-78l222 335h125z" />
    <glyph glyph-name="apple" unicode="&#xf000;" horiz-adv-x="1618" 
d="M1123 1617q0 -64 -30 -140t-95 -141q-45 -45 -92 -66t-125 -25q2 152 79.5 263t256.5 152q4 -13 5 -23t1 -20zM1509 414q-19 -62 -50.5 -126t-75.5 -131q-66 -101 -132 -151t-132 -50q-52 0 -143.5 33t-154.5 33t-146.5 -34.5t-135.5 -34.5q-78 0 -155 66.5t-153 199.5
q-75 131 -113 260t-38 256q0 235 115.5 383t291.5 148q75 0 181.5 -31t141.5 -31q45 0 147 35t177 35q97 0 176 -40.5t150 -128.5q-111 -94 -147.5 -172.5t-36.5 -160.5q0 -127 71 -229t162 -129z" />
    <glyph glyph-name="Ograve" unicode="&#xd2;" horiz-adv-x="1686" 
d="M842 1415q310 0 525.5 -208.5t215.5 -508.5q0 -299 -215.5 -507.5t-525.5 -208.5q-309 0 -523.5 208.5t-214.5 507.5q0 300 214.5 508.5t523.5 208.5zM846 82q261 0 440.5 178.5t179.5 437.5q0 260 -179.5 438.5t-440.5 178.5q-262 0 -443.5 -178.5t-181.5 -438.5
q0 -259 181.5 -437.5t443.5 -178.5zM659 1833h166l213 -319h-68z" />
    <glyph glyph-name="Uacute" unicode="&#xda;" horiz-adv-x="1430" 
d="M1192 1397h108v-762q0 -313 -163 -483t-422 -170q-258 0 -421 168t-163 460v787h109v-783q0 -250 132.5 -391t342.5 -141q212 0 344.5 142.5t132.5 404.5v768zM1067 1833l-311 -319h-68l213 319h166z" />
    <glyph glyph-name="Ucircumflex" unicode="&#xdb;" horiz-adv-x="1430" 
d="M1192 1397h108v-762q0 -313 -163 -483t-422 -170q-258 0 -421 168t-163 460v787h109v-783q0 -250 132.5 -391t342.5 -141q212 0 344.5 142.5t132.5 404.5v768zM781 1831l217 -335h-78l-203 223l-205 -223h-78l222 335h125z" />
    <glyph glyph-name="Ugrave" unicode="&#xd9;" horiz-adv-x="1430" 
d="M1192 1397h108v-762q0 -313 -163 -483t-422 -170q-258 0 -421 168t-163 460v787h109v-783q0 -250 132.5 -391t342.5 -141q212 0 344.5 142.5t132.5 404.5v768zM532 1833h166l213 -319h-68z" />
    <glyph glyph-name="dotlessi" unicode="&#x131;" horiz-adv-x="385" 
d="M242 920v-920h-99v920h99z" />
    <glyph glyph-name="circumflex" unicode="&#x2c6;" horiz-adv-x="682" 
d="M406 1384l217 -335h-78l-203 223l-205 -223h-78l222 335h125z" />
    <glyph glyph-name="tilde" unicode="&#x2dc;" horiz-adv-x="682" 
d="M676 1317q5 -84 -44.5 -140.5t-123.5 -56.5q-50 0 -177.5 50.5t-172.5 50.5q-74 0 -86 -99h-66q0 87 44.5 141t123.5 54q66 0 185 -50t163 -50q79 0 92 100h62z" />
    <glyph glyph-name="macron" unicode="&#x2c9;" horiz-adv-x="682" 
d="M614 1276v-105h-546v105h546z" />
    <glyph glyph-name="breve" unicode="&#x2d8;" horiz-adv-x="682" 
d="M541 1325h80q-89 -233 -277 -233q-179 0 -283 233h84q66 -137 197 -137q127 0 199 137z" />
    <glyph glyph-name="dotaccent" unicode="&#x2d9;" horiz-adv-x="682" 
d="M250 1212q0 37 26.5 64t63.5 27t63.5 -27t26.5 -64q0 -36 -26.5 -63t-63.5 -27t-63.5 27t-26.5 63z" />
    <glyph glyph-name="ring" unicode="&#x2da;" horiz-adv-x="682" 
d="M164 1214q0 74 52 125.5t126 51.5q73 0 124.5 -51.5t51.5 -125.5q0 -73 -51.5 -125.5t-124.5 -52.5t-125.5 52.5t-52.5 125.5zM463 1214q0 51 -35.5 86t-85.5 35q-51 0 -87 -35t-36 -86q0 -50 36.5 -86t86.5 -36t85.5 36t35.5 86z" />
    <glyph glyph-name="cedilla" unicode="&#xb8;" horiz-adv-x="682" 
d="M406 16l-25 -88q127 -22 127 -129q0 -73 -55.5 -115.5t-146.5 -42.5q-43 0 -89 11l10 65q39 -3 68 -3q133 0 133 79q0 77 -127 80l43 143h62z" />
    <glyph glyph-name="hungarumlaut" unicode="&#x2dd;" horiz-adv-x="682" 
d="M788 1386l-311 -319h-67l213 319h165zM516 1386l-311 -319h-68l213 319h166z" />
    <glyph glyph-name="ogonek" unicode="&#x2db;" horiz-adv-x="682" 
d="M475 -260v-78q-44 -11 -83 -11q-87 0 -140 48.5t-53 120.5q0 94 62.5 147t86.5 53h66q-70 -66 -89.5 -98t-19.5 -69q0 -115 136 -115q16 0 34 2z" />
    <glyph glyph-name="caron" unicode="&#x2c7;" horiz-adv-x="682" 
d="M406 1049h-125l-222 335h78l205 -223l203 223h78z" />
    <glyph glyph-name="Lslash" unicode="&#x141;" horiz-adv-x="961" 
d="M270 1397v-678l342 280v-102l-342 -281v-526h691v-90h-799v537l-248 -205v102l248 205v758h108z" />
    <glyph glyph-name="lslash" unicode="&#x142;" horiz-adv-x="385" 
d="M242 1397v-629l204 176v-102l-204 -172v-670h-99v596l-200 -174v102l200 170v703h99z" />
    <glyph glyph-name="Scaron" unicode="&#x160;" horiz-adv-x="961" 
d="M819 1327v-119q-182 107 -313 107q-126 0 -210.5 -76.5t-84.5 -189.5q0 -81 50 -146t209 -125t232 -100t124 -116t51 -197q0 -161 -118 -272t-288 -111q-174 0 -358 122v127q203 -149 352 -149q124 0 209.5 80.5t85.5 197.5q0 89 -53 160.5t-215 133.5t-231.5 100
t-118 108.5t-48.5 181.5q0 154 118 262.5t284 108.5q163 0 323 -88zM546 1496h-125l-222 335h78l205 -223l203 223h78z" />
    <glyph glyph-name="scaron" unicode="&#x161;" horiz-adv-x="725" 
d="M633 860v-106q-140 94 -252 94q-83 0 -140 -45t-57 -111q0 -47 34.5 -86.5t191 -99.5t204.5 -125t48 -145q0 -107 -87 -180.5t-215 -73.5q-139 0 -276 84v96q163 -84 289 -84q85 0 139.5 45t54.5 115q0 48 -35.5 88.5t-192 102.5t-203 122.5t-46.5 134.5
q0 105 86.5 178.5t210.5 73.5q113 0 246 -78zM429 1049h-125l-222 335h78l205 -223l203 223h78z" />
    <glyph glyph-name="Zcaron" horiz-adv-x="1300" 
d="M1233 1397l10 -39l-1046 -1268h1054v-90h-1222l-11 31l1047 1276h-999v90h1167zM716 1496h-125l-222 335h78l205 -223l203 223h78z" />
    <glyph glyph-name="Zcaron" unicode="&#x17d;" horiz-adv-x="1300" 
d="M1233 1397l10 -39l-1046 -1268h1054v-90h-1222l-11 31l1047 1276h-999v90h1167zM716 1496h-125l-222 335h78l205 -223l203 223h78z" />
    <glyph glyph-name="zcaron" horiz-adv-x="811" 
d="M780 920l8 -31l-604 -799h604v-90h-757l-11 31l609 798h-570v91h721zM472 1049h-125l-222 335h78l205 -223l203 223h78z" />
    <glyph glyph-name="zcaron" unicode="&#x17e;" horiz-adv-x="811" 
d="M780 920l8 -31l-604 -799h604v-90h-757l-11 31l609 798h-570v91h721zM472 1049h-125l-222 335h78l205 -223l203 223h78z" />
    <glyph glyph-name="brokenbar" unicode="&#xa6;" horiz-adv-x="455" 
d="M176 1397h98v-684h-98v684zM176 346h98v-817h-98v817z" />
    <glyph glyph-name="sfthyphen" unicode="&#xad;" horiz-adv-x="641" 
d="M563 510v-96h-485v96h485z" />
    <glyph glyph-name="macron" unicode="&#xaf;" horiz-adv-x="1024" 
d="M-12 1612h1048v-103h-1048v103z" />
    <glyph glyph-name="Eth" unicode="&#xd0;" horiz-adv-x="1516" 
d="M162 1397h489q371 0 566.5 -195t195.5 -504q0 -303 -193.5 -500.5t-549.5 -197.5h-508v655h-209v90h209v652zM270 1307v-562h453v-90h-453v-565h394q271 0 451.5 166.5t180.5 441.5q0 269 -178 439t-461 170h-387z" />
    <glyph glyph-name="eth" unicode="&#xf0;" horiz-adv-x="1145" 
d="M989 1329l-237 -108q321 -274 321 -709q0 -242 -138 -386t-370 -144q-206 0 -346.5 136t-140.5 335q0 206 143 345.5t354 139.5q228 0 367 -168l4 4q-76 235 -289 404l-292 -138l-31 68l256 119q-76 54 -184 96l38 74q134 -50 242 -125l272 125zM578 63
q176 0 283.5 110.5t107.5 291.5q0 173 -110 282t-286 109q-169 0 -285 -116.5t-116 -286.5q0 -168 115 -279t291 -111z" />
    <glyph glyph-name="Yacute" unicode="&#xdd;" horiz-adv-x="1194" 
d="M1194 1397l-543 -647v-750h-108v750l-543 647h131l467 -553l465 553h131zM948 1833l-311 -319h-68l213 319h166z" />
    <glyph glyph-name="yacute" unicode="&#xfd;" horiz-adv-x="854" 
d="M866 920l-688 -1391h-100l321 649l-387 742h103l334 -644l317 644h100zM769 1386l-311 -319h-68l213 319h166z" />
    <glyph glyph-name="Thorn" unicode="&#xde;" horiz-adv-x="1044" 
d="M160 1397h108v-326h277q221 0 338.5 -98.5t117.5 -270.5q0 -173 -118.5 -273.5t-347.5 -100.5h-267v-328h-108v1397zM268 981v-563h260q175 0 266 73.5t91 208.5q0 130 -89 205.5t-255 75.5h-273z" />
    <glyph glyph-name="thorn" unicode="&#xfe;" horiz-adv-x="1044" 
d="M227 1397v-529q139 70 277 70q196 0 325 -135t129 -340q0 -202 -133 -341.5t-325 -139.5q-133 0 -273 69v-522h-98v1868h98zM227 774v-627q125 -69 254 -69q165 0 267 104t102 273q0 168 -108 277.5t-273 109.5q-118 0 -242 -68z" />
    <glyph glyph-name="minus" unicode="&#x2212;" horiz-adv-x="1352" 
d="M139 764h1073v-90h-1073v90z" />
    <glyph glyph-name="multiply" unicode="&#xd7;" horiz-adv-x="1352" 
d="M264 1067l66 66l346 -347l346 347l65 -66l-346 -346l346 -346l-65 -66l-346 346l-346 -346l-66 66l346 346z" />
    <glyph glyph-name="onesuperior" unicode="&#xb9;" horiz-adv-x="641" 
d="M362 1407v-727h-86v727h86z" />
    <glyph glyph-name="twosuperior" unicode="&#xb2;" horiz-adv-x="641" 
d="M78 1262v84q99 69 205 69q107 0 180.5 -61t73.5 -150q0 -166 -297 -461h376v-63h-555q188 158 289 296.5t101 229.5q0 63 -50.5 105.5t-124.5 42.5q-49 0 -87.5 -18t-110.5 -74z" />
    <glyph glyph-name="threesuperior" unicode="&#xb3;" horiz-adv-x="641" 
d="M98 1294v70q75 51 185 51q113 0 185.5 -52.5t72.5 -133.5q0 -119 -133 -162v-4q143 -42 143 -182q0 -90 -73.5 -150.5t-184.5 -60.5q-108 0 -203 39v65q94 -43 195 -43q83 0 132.5 40.5t49.5 107.5q0 151 -215 151v64q95 0 150 35.5t55 95.5q0 55 -50 92t-126 37
q-89 0 -183 -60z" />
    <glyph glyph-name="onehalf" unicode="&#xbd;" horiz-adv-x="1706" 
d="M374 1407v-727h-86v727h86zM1285 1415l-1077 -1470h-80l1077 1470h80zM990 584v84q99 69 205 69q107 0 180.5 -61t73.5 -150q0 -166 -297 -461h376v-63h-555q188 158 289 296.5t101 229.5q0 63 -50.5 105.5t-124.5 42.5q-49 0 -87.5 -18t-110.5 -74z" />
    <glyph glyph-name="onequarter" unicode="&#xbc;" horiz-adv-x="1706" 
d="M374 1407v-727h-86v727h86zM1285 1415l-1077 -1470h-80l1077 1470h80zM1305 739v-405h114v-58h-114v-274h-86v274h-375v27l420 436h41zM1219 334v268l-258 -268h258z" />
    <glyph glyph-name="threequarters" unicode="&#xbe;" horiz-adv-x="1706" 
d="M142 1294v70q75 51 185 51q113 0 185.5 -52.5t72.5 -133.5q0 -119 -133 -162v-4q143 -42 143 -182q0 -90 -73.5 -150.5t-184.5 -60.5q-108 0 -203 39v65q94 -43 195 -43q83 0 132.5 40.5t49.5 107.5q0 151 -215 151v64q95 0 150 35.5t55 95.5q0 55 -50 92t-126 37
q-89 0 -183 -60zM1389 1415l-1077 -1470h-80l1077 1470h80zM1413 739v-405h114v-58h-114v-274h-86v274h-375v27l420 436h41zM1327 334v268l-258 -268h258z" />
    <glyph glyph-name="foursuperior" unicode="&#xf003;" horiz-adv-x="641" 
d="M489 1417v-405h114v-58h-114v-274h-86v274h-375v27l420 436h41zM403 1012v268l-258 -268h258z" />
    <glyph glyph-name="periodcentered" unicode="&#xb7;" horiz-adv-x="683" 
d="M726 700q0 -36 -26.5 -62.5t-62.5 -26.5q-37 0 -63 26.5t-26 62.5q0 37 26 63t63 26q36 0 62.5 -26t26.5 -63z" />
    <glyph glyph-name="Amacron" unicode="&#x100;" horiz-adv-x="1365" 
d="M713 1407l645 -1407h-113l-221 483h-682l-221 -483h-113l645 1407h60zM983 573l-301 658l-299 -658h600zM955 1680v-105h-546v105h546z" />
    <glyph glyph-name="amacron" unicode="&#x101;" horiz-adv-x="875" 
d="M862 160v-82q-127 -96 -186 -96q-34 0 -47 22.5t-19 91.5q-145 -114 -288 -114q-104 0 -176 68t-72 165q0 150 139 236.5t397 99.5v117q0 188 -204 188q-130 0 -281 -117v101q156 98 297 98q125 0 206 -61.5t81 -178.5v-573q0 -47 22 -47q28 0 131 82zM610 182v287
q-189 7 -313.5 -66.5t-124.5 -187.5q0 -64 52 -108t130 -44q126 0 256 119zM697 1276v-105h-546v105h546z" />
    <glyph glyph-name="Abreve" unicode="&#x102;" horiz-adv-x="1365" 
d="M713 1407l645 -1407h-113l-221 483h-682l-221 -483h-113l645 1407h60zM983 573l-301 658l-299 -658h600zM882 1726h80q-89 -233 -277 -233q-179 0 -283 233h84q66 -137 197 -137q127 0 199 137z" />
    <glyph glyph-name="abreve" unicode="&#x103;" horiz-adv-x="875" 
d="M862 160v-82q-127 -96 -186 -96q-34 0 -47 22.5t-19 91.5q-145 -114 -288 -114q-104 0 -176 68t-72 165q0 150 139 236.5t397 99.5v117q0 188 -204 188q-130 0 -281 -117v101q156 98 297 98q125 0 206 -61.5t81 -178.5v-573q0 -47 22 -47q28 0 131 82zM610 182v287
q-189 7 -313.5 -66.5t-124.5 -187.5q0 -64 52 -108t130 -44q126 0 256 119zM623 1325h80q-89 -233 -277 -233q-179 0 -283 233h84q66 -137 197 -137q127 0 199 137z" />
    <glyph glyph-name="Aogonek" unicode="&#x104;" horiz-adv-x="1365" 
d="M1333 0q-88 -84 -88 -147q0 -115 136 -115q16 0 34 2v-78q-44 -11 -83 -11q-83 0 -138 46.5t-55 122.5q0 112 106 181l-221 482h-682l-221 -483h-113l645 1407h60l645 -1407h-25zM983 573l-301 658l-299 -658h600z" />
    <glyph glyph-name="aogonek" unicode="&#x105;" horiz-adv-x="875" 
d="M807 -261v-77q-47 -10 -85 -10q-86 0 -138 48.5t-52 122.5q0 101 103 175q-17 18 -24 99q-143 -115 -289 -115q-102 0 -175.5 67t-73.5 165q0 141 127 230.5t411 106.5v117q0 182 -205 182q-133 0 -280 -111v101q153 98 296 98q99 0 169 -37.5t94.5 -92t24.5 -167.5v-471
q0 -71 1.5 -81.5t16.5 -10.5q38 0 135 82v-83q-80 -56 -120 -76q-106 -54 -106 -151q0 -46 35.5 -79.5t97.5 -33.5q16 0 37 2zM611 472q-219 -3 -328.5 -78.5t-109.5 -180.5q0 -70 56 -111t125 -41q127 0 257 120v291z" />
    <glyph glyph-name="Cacute" unicode="&#x106;" horiz-adv-x="1387" 
d="M1325 1298v-118q-254 135 -498 135q-260 0 -435 -177t-175 -442q0 -268 176 -441t449 -173q228 0 497 143v-112q-248 -131 -495 -131q-319 0 -531.5 204.5t-212.5 509.5q0 307 217 513t517 206q236 0 491 -117zM1081 1787l-311 -319h-68l213 319h166z" />
    <glyph glyph-name="cacute" unicode="&#x107;" horiz-adv-x="853" 
d="M776 893v-109q-132 58 -239 58q-154 0 -250.5 -107t-96.5 -278q0 -174 96.5 -276.5t258.5 -102.5q118 0 248 53v-102q-138 -47 -256 -47q-202 0 -326.5 128t-124.5 336q0 217 125.5 354.5t320.5 137.5q107 0 244 -45zM774 1386l-311 -319h-68l213 319h166z" />
    <glyph glyph-name="Ccircumflex" unicode="&#x108;" horiz-adv-x="1387" 
d="M1325 1298v-118q-254 135 -498 135q-260 0 -435 -177t-175 -442q0 -268 176 -441t449 -173q228 0 497 143v-112q-248 -131 -495 -131q-319 0 -531.5 204.5t-212.5 509.5q0 307 217 513t517 206q236 0 491 -117zM859 1788l217 -335h-78l-203 223l-205 -223h-78l222 335
h125z" />
    <glyph glyph-name="ccircumflex" unicode="&#x109;" horiz-adv-x="853" 
d="M776 893v-109q-132 58 -239 58q-154 0 -250.5 -107t-96.5 -278q0 -174 96.5 -276.5t258.5 -102.5q118 0 248 53v-102q-138 -47 -256 -47q-202 0 -326.5 128t-124.5 336q0 217 125.5 354.5t320.5 137.5q107 0 244 -45zM517 1384l217 -335h-78l-203 223l-205 -223h-78
l222 335h125z" />
    <glyph glyph-name="Cdot" unicode="&#x10a;" horiz-adv-x="1387" 
d="M1325 1298v-118q-254 135 -498 135q-260 0 -435 -177t-175 -442q0 -268 176 -441t449 -173q228 0 497 143v-112q-248 -131 -495 -131q-319 0 -531.5 204.5t-212.5 509.5q0 307 217 513t517 206q236 0 491 -117zM705 1578q0 37 26.5 64t63.5 27t63.5 -27t26.5 -64
q0 -36 -26.5 -63t-63.5 -27t-63.5 27t-26.5 63z" />
    <glyph glyph-name="cdot" unicode="&#x10b;" horiz-adv-x="853" 
d="M776 893v-109q-132 58 -239 58q-154 0 -250.5 -107t-96.5 -278q0 -174 96.5 -276.5t258.5 -102.5q118 0 248 53v-102q-138 -47 -256 -47q-202 0 -326.5 128t-124.5 336q0 217 125.5 354.5t320.5 137.5q107 0 244 -45zM406 1212q0 37 26.5 64t63.5 27t63.5 -27t26.5 -64
q0 -36 -26.5 -63t-63.5 -27t-63.5 27t-26.5 63z" />
    <glyph glyph-name="Ccaron" unicode="&#x10c;" horiz-adv-x="1387" 
d="M1325 1298v-118q-254 135 -498 135q-260 0 -435 -177t-175 -442q0 -268 176 -441t449 -173q228 0 497 143v-112q-248 -131 -495 -131q-319 0 -531.5 204.5t-212.5 509.5q0 307 217 513t517 206q236 0 491 -117zM912 1453h-125l-222 335h78l205 -223l203 223h78z" />
    <glyph glyph-name="ccaron" unicode="&#x10d;" horiz-adv-x="853" 
d="M776 893v-109q-132 58 -239 58q-154 0 -250.5 -107t-96.5 -278q0 -174 96.5 -276.5t258.5 -102.5q118 0 248 53v-102q-138 -47 -256 -47q-202 0 -326.5 128t-124.5 336q0 217 125.5 354.5t320.5 137.5q107 0 244 -45zM596 1049h-125l-222 335h78l205 -223l203 223h78z
" />
    <glyph glyph-name="Dcaron" unicode="&#x10e;" horiz-adv-x="1515" 
d="M162 1397h489q371 0 566.5 -195t195.5 -504q0 -303 -193.5 -500.5t-549.5 -197.5h-508v1397zM270 1307v-1217h394q271 0 451.5 166.5t180.5 441.5q0 269 -178 439t-461 170h-387zM780 1453h-125l-222 335h78l205 -223l203 223h78z" />
    <glyph glyph-name="dcaron" unicode="&#x10f;" horiz-adv-x="1067" 
d="M920 1397v-1397h-99v72q-126 -90 -272 -90q-196 0 -330.5 138.5t-134.5 340.5q0 205 132.5 341t332.5 136q127 0 272 -74v533h99zM821 162v594q-132 86 -268 86q-159 0 -262 -105.5t-103 -269.5q0 -167 110 -278t275 -111q128 0 248 84zM1132 1401v-156q0 -182 -133 -282
v71q43 61 43 168h-43v199h133z" />
    <glyph glyph-name="Dslash" unicode="&#x110;" horiz-adv-x="1515" 
d="M161 655h-161v87h161v655h424q214 0 327.5 -23.5t237.5 -114t194 -239t70 -322.5q0 -141 -48 -268t-126 -213t-183.5 -136t-190 -65.5t-281.5 -15.5h-424v655zM271 655v-567h327q167 0 269 26.5t202 100t162 204.5t62 278q0 146 -56.5 269.5t-162.5 207t-201.5 108
t-274.5 24.5h-327v-564h451v-87h-451z" />
    <glyph glyph-name="dmacron" unicode="&#x111;" horiz-adv-x="1045" 
d="M919 1197h126v-83h-126v-1114h-97v71q-125 -90 -273 -90q-183 0 -324.5 131.5t-141.5 347.5q0 209 134 343.5t330 134.5q134 0 275 -74v250h-315v83h315v200h97v-200zM822 755q-130 90 -269 90q-160 0 -260.5 -107.5t-100.5 -270.5q0 -172 111.5 -283t269.5 -111
q132 0 249 88v594z" />
    <glyph glyph-name="Emacron" unicode="&#x112;" horiz-adv-x="1003" 
d="M926 1397v-90h-654v-559h637v-91h-637v-567h670v-90h-778v1397h762zM826 1680v-105h-546v105h546z" />
    <glyph glyph-name="emacron" unicode="&#x113;" horiz-adv-x="981" 
d="M911 494h-725q-3 -24 -3 -48q0 -154 110 -261t260 -107q175 0 342 137v-111q-158 -122 -354 -122q-199 0 -329 138t-130 351q0 202 120 334.5t302 132.5q171 0 289 -119.5t118 -324.5zM199 573h596q-52 269 -291 269q-113 0 -195.5 -70.5t-109.5 -198.5zM791 1276v-105
h-546v105h546z" />
    <glyph glyph-name="Ebreve" unicode="&#x114;" horiz-adv-x="1003" 
d="M926 1397v-90h-654v-559h637v-91h-637v-567h670v-90h-778v1397h762zM753 1726h80q-89 -233 -277 -233q-179 0 -283 233h84q66 -137 197 -137q127 0 199 137z" />
    <glyph glyph-name="ebreve" unicode="&#x115;" horiz-adv-x="981" 
d="M911 494h-725q-3 -24 -3 -48q0 -154 110 -261t260 -107q175 0 342 137v-111q-158 -122 -354 -122q-199 0 -329 138t-130 351q0 202 120 334.5t302 132.5q171 0 289 -119.5t118 -324.5zM199 573h596q-52 269 -291 269q-113 0 -195.5 -70.5t-109.5 -198.5zM698 1325h80
q-89 -233 -277 -233q-179 0 -283 233h84q66 -137 197 -137q127 0 199 137z" />
    <glyph glyph-name="Edot" unicode="&#x116;" horiz-adv-x="1003" 
d="M926 1397v-90h-654v-559h637v-91h-637v-567h670v-90h-778v1397h762zM486 1627q0 37 26.5 64t63.5 27t63.5 -27t26.5 -64q0 -36 -26.5 -63t-63.5 -27t-63.5 27t-26.5 63z" />
    <glyph glyph-name="edot" unicode="&#x117;" horiz-adv-x="981" 
d="M911 494h-725q-3 -24 -3 -48q0 -154 110 -261t260 -107q175 0 342 137v-111q-158 -122 -354 -122q-199 0 -329 138t-130 351q0 202 120 334.5t302 132.5q171 0 289 -119.5t118 -324.5zM199 573h596q-52 269 -291 269q-113 0 -195.5 -70.5t-109.5 -198.5zM429 1212
q0 37 26.5 64t63.5 27t63.5 -27t26.5 -64q0 -36 -26.5 -63t-63.5 -27t-63.5 27t-26.5 63z" />
    <glyph glyph-name="Eogonek" unicode="&#x118;" horiz-adv-x="1003" 
d="M942 -338q-44 -11 -83 -11q-83 0 -138 46.5t-55 122.5q0 111 105 180h-607v1397h762v-90h-654v-559h637v-91h-637v-567h670v-90h-82q-88 -84 -88 -147q0 -115 136 -115q16 0 34 2v-78z" />
    <glyph glyph-name="eogonek" unicode="&#x119;" horiz-adv-x="981" 
d="M662 -261v-77q-48 -10 -85 -10q-86 0 -138.5 48t-52.5 121q0 94 92 164q-179 23 -287 156.5t-108 328.5q0 199 118 333.5t303 134.5q172 0 288.5 -118.5t118.5 -322.5h-721v-34q0 -168 103 -279t259 -111q183 0 344 142v-110q-137 -111 -336 -124q-68 -68 -68 -127
q0 -51 35.5 -84t97.5 -33q16 0 37 2zM796 573q-25 137 -104.5 206.5t-186.5 69.5q-111 0 -197.5 -77.5t-106.5 -198.5h595z" />
    <glyph glyph-name="Ecaron" unicode="&#x11a;" horiz-adv-x="1003" 
d="M926 1397v-90h-654v-559h637v-91h-637v-567h670v-90h-778v1397h762zM640 1453h-125l-222 335h78l205 -223l203 223h78z" />
    <glyph glyph-name="ecaron" unicode="&#x11b;" horiz-adv-x="981" 
d="M911 494h-725q-3 -24 -3 -48q0 -154 110 -261t260 -107q175 0 342 137v-111q-158 -122 -354 -122q-199 0 -329 138t-130 351q0 202 120 334.5t302 132.5q171 0 289 -119.5t118 -324.5zM199 573h596q-52 269 -291 269q-113 0 -195.5 -70.5t-109.5 -198.5zM563 1049h-125
l-222 335h78l205 -223l203 223h78z" />
    <glyph glyph-name="Gcircumflex" unicode="&#x11c;" horiz-adv-x="1472" 
d="M1331 1296v-122q-248 141 -495 141q-265 0 -441 -176t-176 -441t174 -440.5t473 -175.5q216 0 383 86v377h-295v90h404v-535q-247 -118 -496 -118q-325 0 -542.5 206t-217.5 514q0 306 213.5 509.5t536.5 203.5q220 0 479 -119zM870 1788l217 -335h-78l-203 223
l-205 -223h-78l222 335h125z" />
    <glyph glyph-name="gcircumflex" unicode="&#x11d;" horiz-adv-x="875" 
d="M854 920v-80h-209q127 -116 127 -244q0 -115 -49.5 -182t-118 -97.5t-182.5 -60t-143 -55.5t-29 -60q0 -40 37.5 -64t233 -35t263.5 -75t68 -170q0 -125 -109 -196.5t-303 -71.5q-193 0 -298 67.5t-105 178.5q0 180 268 223v4q-149 35 -149 131q0 97 184 150v4
q-121 36 -183.5 119.5t-62.5 185.5q0 145 101 236.5t290 91.5h369zM432 348q101 0 173.5 72.5t72.5 173.5t-72.5 172.5t-175.5 71.5q-102 0 -172 -70t-70 -170q0 -104 71 -177t173 -73zM446 -389q143 0 227.5 49t84.5 129q0 162 -293 162q-334 0 -334 -170t315 -170z
M510 1384l217 -335h-78l-203 223l-205 -223h-78l222 335h125z" />
    <glyph glyph-name="Gbreve" unicode="&#x11e;" horiz-adv-x="1472" 
d="M1331 1296v-122q-248 141 -495 141q-265 0 -441 -176t-176 -441t174 -440.5t473 -175.5q216 0 383 86v377h-295v90h404v-535q-247 -118 -496 -118q-325 0 -542.5 206t-217.5 514q0 306 213.5 509.5t536.5 203.5q220 0 479 -119zM1000 1726h80q-89 -233 -277 -233
q-179 0 -283 233h84q66 -137 197 -137q127 0 199 137z" />
    <glyph glyph-name="gbreve" unicode="&#x11f;" horiz-adv-x="875" 
d="M854 920v-80h-209q127 -116 127 -244q0 -115 -49.5 -182t-118 -97.5t-182.5 -60t-143 -55.5t-29 -60q0 -40 37.5 -64t233 -35t263.5 -75t68 -170q0 -125 -109 -196.5t-303 -71.5q-193 0 -298 67.5t-105 178.5q0 180 268 223v4q-149 35 -149 131q0 97 184 150v4
q-121 36 -183.5 119.5t-62.5 185.5q0 145 101 236.5t290 91.5h369zM432 348q101 0 173.5 72.5t72.5 173.5t-72.5 172.5t-175.5 71.5q-102 0 -172 -70t-70 -170q0 -104 71 -177t173 -73zM446 -389q143 0 227.5 49t84.5 129q0 162 -293 162q-334 0 -334 -170t315 -170z
M645 1325h80q-89 -233 -277 -233q-179 0 -283 233h84q66 -137 197 -137q127 0 199 137z" />
    <glyph glyph-name="Gdot" unicode="&#x120;" horiz-adv-x="1472" 
d="M1331 1296v-122q-248 141 -495 141q-265 0 -441 -176t-176 -441t174 -440.5t473 -175.5q216 0 383 86v377h-295v90h404v-535q-247 -118 -496 -118q-325 0 -542.5 206t-217.5 514q0 306 213.5 509.5t536.5 203.5q220 0 479 -119zM703 1578q0 37 26.5 64t63.5 27t63.5 -27
t26.5 -64q0 -36 -26.5 -63t-63.5 -27t-63.5 27t-26.5 63z" />
    <glyph glyph-name="gdot" unicode="&#x121;" horiz-adv-x="875" 
d="M854 920v-80h-209q127 -116 127 -244q0 -115 -49.5 -182t-118 -97.5t-182.5 -60t-143 -55.5t-29 -60q0 -40 37.5 -64t233 -35t263.5 -75t68 -170q0 -125 -109 -196.5t-303 -71.5q-193 0 -298 67.5t-105 178.5q0 180 268 223v4q-149 35 -149 131q0 97 184 150v4
q-121 36 -183.5 119.5t-62.5 185.5q0 145 101 236.5t290 91.5h369zM432 348q101 0 173.5 72.5t72.5 173.5t-72.5 172.5t-175.5 71.5q-102 0 -172 -70t-70 -170q0 -104 71 -177t173 -73zM446 -389q143 0 227.5 49t84.5 129q0 162 -293 162q-334 0 -334 -170t315 -170z
M369 1212q0 37 26.5 64t63.5 27t63.5 -27t26.5 -64q0 -36 -26.5 -63t-63.5 -27t-63.5 27t-26.5 63z" />
    <glyph glyph-name="Gcedilla" unicode="&#x122;" horiz-adv-x="1472" 
d="M1357 100q-268 -121 -526 -119h-15l-15 -53q127 -22 127 -129q0 -75 -56.5 -116.5t-145.5 -41.5q-43 0 -89 11l10 65q39 -3 68 -3q133 0 133 79q0 77 -127 80l33 112q-285 37 -468 238.5t-183 479.5q0 311 214 512t534 201q224 0 480 -120v-122q-220 139 -500 139
q-262 0 -434.5 -175.5t-172.5 -440.5q0 -259 174 -437.5t430 -178.5q202 0 421 88v376h-295v92h403v-537z" />
    <glyph glyph-name="gcedilla" unicode="&#x123;" horiz-adv-x="875" 
d="M854 920v-80h-209q127 -116 127 -244q0 -115 -49.5 -182t-118 -97.5t-182.5 -60t-143 -55.5t-29 -60q0 -40 37.5 -64t233 -35t263.5 -75t68 -170q0 -125 -109 -196.5t-303 -71.5q-193 0 -298 67.5t-105 178.5q0 180 268 223v4q-149 35 -149 131q0 97 184 150v4
q-121 36 -183.5 119.5t-62.5 185.5q0 145 101 236.5t290 91.5h369zM432 348q101 0 173.5 72.5t72.5 173.5t-72.5 172.5t-175.5 71.5q-102 0 -172 -70t-70 -170q0 -104 71 -177t173 -73zM446 -389q143 0 227.5 49t84.5 129q0 162 -293 162q-334 0 -334 -170t315 -170z
M353 1047v155q0 182 133 283v-72q-43 -60 -43 -168h43v-198h-133z" />
    <glyph glyph-name="Hcircumflex" unicode="&#x124;" horiz-adv-x="1472" 
d="M1311 1397v-1397h-109v662h-932v-662h-108v1397h108v-645h932v645h109zM800 1788l217 -335h-78l-203 223l-205 -223h-78l222 335h125z" />
    <glyph glyph-name="hcircumflex" unicode="&#x125;" horiz-adv-x="1003" 
d="M225 1397v-637h4q115 178 303 178q156 0 249 -100t93 -275v-563h-98v524q0 318 -250 318q-179 0 -301 -197v-645h-98v1397h98zM567 1796l217 -335h-78l-203 223l-205 -223h-78l222 335h125z" />
    <glyph glyph-name="Hbar" unicode="&#x126;" horiz-adv-x="1472" 
d="M1310 1119h162v-87h-162v-1032h-107v662h-934v-662h-107v1032h-162v87h162v278h107v-278h934v278h107v-278zM269 1032v-278h934v278h-934z" />
    <glyph glyph-name="hbar" unicode="&#x127;" horiz-adv-x="1003" 
d="M226 1190h356v-82h-356v-356q109 186 307 186q92 0 165 -38t112 -98.5t51.5 -125.5t12.5 -201v-475h-100v484q0 113 -20 185.5t-83.5 123t-154.5 50.5q-194 0 -290 -207v-636h-97v1108h-129v82h129v207h97v-207z" />
    <glyph glyph-name="Itilde" unicode="&#x128;" horiz-adv-x="427" 
d="M268 1397v-1397h-108v1397h108zM544 1713q5 -84 -44.5 -140.5t-123.5 -56.5q-50 0 -177.5 50.5t-172.5 50.5q-74 0 -86 -99h-66q0 87 44.5 141t123.5 54q66 0 185 -50t163 -50q79 0 92 100h62z" />
    <glyph glyph-name="itilde" unicode="&#x129;" horiz-adv-x="384" 
d="M242 920v-920h-99v920h99zM529 1317q5 -84 -44.5 -140.5t-123.5 -56.5q-50 0 -177.5 50.5t-172.5 50.5q-74 0 -86 -99h-66q0 87 44.5 141t123.5 54q66 0 185 -50t163 -50q79 0 92 100h62z" />
    <glyph glyph-name="Imacron" unicode="&#x12a;" horiz-adv-x="427" 
d="M268 1397v-1397h-108v1397h108zM434 1680v-105h-546v105h546z" />
    <glyph glyph-name="imacron" unicode="&#x12b;" horiz-adv-x="384" 
d="M242 920v-920h-99v920h99zM466 1276v-105h-546v105h546z" />
    <glyph glyph-name="Ibreve" unicode="&#x12c;" horiz-adv-x="427" 
d="M268 1397v-1397h-108v1397h108zM355 1726h80q-89 -233 -277 -233q-179 0 -283 233h84q66 -137 197 -137q127 0 199 137z" />
    <glyph glyph-name="ibreve" unicode="&#x12d;" horiz-adv-x="384" 
d="M242 920v-920h-99v920h99zM395 1325h80q-89 -233 -277 -233q-179 0 -283 233h84q66 -137 197 -137q127 0 199 137z" />
    <glyph glyph-name="Iogonek" unicode="&#x12e;" horiz-adv-x="427" 
d="M248 0q-88 -84 -88 -147q0 -115 136 -115q16 0 34 2v-78q-44 -11 -83 -11q-83 0 -138 46.5t-55 122.5q0 111 106 181v1396h108v-1397h-20z" />
    <glyph glyph-name="iogonek" unicode="&#x12f;" horiz-adv-x="384" 
d="M240 1397v-167h-97v167h97zM222 0q-87 -82 -87 -147q0 -49 35.5 -82.5t97.5 -33.5q16 0 37 2v-77q-48 -10 -85 -10q-87 0 -139 48t-52 118q0 112 114 182v920h97v-920h-18z" />
    <glyph glyph-name="Idotaccent" unicode="&#x130;" horiz-adv-x="427" 
d="M268 1397v-1397h-108v1397h108zM127 1578q0 37 26.5 64t63.5 27t63.5 -27t26.5 -64q0 -36 -26.5 -63t-63.5 -27t-63.5 27t-26.5 63z" />
    <glyph glyph-name="IJ" unicode="&#x132;" horiz-adv-x="853" 
d="M267 1397v-1397h-109v1397h109zM705 1397v-1374q0 -227 -80 -326.5t-235 -103.5l-43 -1l-13 108q23 -9 51 -9q110 0 160 76t50 269v1361h110z" />
    <glyph glyph-name="ij" unicode="&#x133;" horiz-adv-x="768" 
d="M241 1397v-163h-98v163h98zM622 1397v-163h-98v163h98zM241 920v-920h-98v920h98zM622 920v-864q0 -244 -29.5 -334.5t-93.5 -140.5t-158 -53l-22 88l14 3q66 14 95.5 31t53 58t33 113.5t9.5 234.5v864h98z" />
    <glyph glyph-name="Jcircumflex" unicode="&#x134;" horiz-adv-x="426" 
d="M276 1397v-1397q0 -231 -87 -319t-206 -88q-28 0 -65 4l-10 102q34 -8 64 -8q196 0 196 280v1426h108zM267 1788l217 -335h-78l-203 223l-205 -223h-78l222 335h125z" />
    <glyph glyph-name="jcircumflex" unicode="&#x135;" horiz-adv-x="384" 
d="M253 1384l218 -336h-79l-201 224l-205 -224h-79l222 336h124zM239 920v-957q0 -257 -77 -343.5t-195 -91.5l-28 84q81 7 125.5 44.5t60 99t15.5 214.5v950h99z" />
    <glyph glyph-name="Kcedilla" unicode="&#x136;" horiz-adv-x="1088" 
d="M1069 1397l-668 -697l732 -700h-138l-731 698v-698h-108v1397h108v-695l670 695h135zM394 -349l10 67q33 -6 63 -6q140 0 140 84q0 76 -130 76l10 57q17 2 32 2q72 0 119 -35.5t47 -95.5q0 -68 -53.5 -113t-150.5 -45q-40 0 -87 9z" />
    <glyph glyph-name="kcedilla" unicode="&#x137;" horiz-adv-x="875" 
d="M219 1397v-1397h-98v1397h98zM870 920l-503 -437l581 -483h-135l-580 483l508 437h129zM298 -349l10 67q33 -6 63 -6q140 0 140 84q0 76 -130 76l10 57q17 2 32 2q72 0 119 -35.5t47 -95.5q0 -68 -53.5 -113t-150.5 -45q-40 0 -87 9z" />
    <glyph glyph-name="kgreenlandic" unicode="&#x138;" horiz-adv-x="874" 
d="M219 920v-920h-98v920h98zM871 920l-499 -436l582 -484h-141l-579 484l507 436h130z" />
    <glyph glyph-name="Lacute" unicode="&#x139;" horiz-adv-x="960" 
d="M270 1397v-1307h691v-90h-799v1397h108zM836 1787l-311 -319h-68l213 319h166z" />
    <glyph glyph-name="lacute" unicode="&#x13a;" horiz-adv-x="384" 
d="M242 1397v-1397h-99v1397h99zM422 1780l-311 -319h-68l213 319h166z" />
    <glyph glyph-name="Lcedilla" unicode="&#x13b;" horiz-adv-x="960" 
d="M270 1397v-1307h691v-90h-799v1397h108zM356 -349l10 67q33 -6 63 -6q140 0 140 84q0 76 -130 76l10 57q17 2 32 2q72 0 119 -35.5t47 -95.5q0 -68 -53.5 -113t-150.5 -45q-40 0 -87 9z" />
    <glyph glyph-name="lcedilla" unicode="&#x13c;" horiz-adv-x="384" 
d="M242 1397v-1397h-99v1397h99zM45 -349l10 67q33 -6 63 -6q140 0 140 84q0 76 -130 76l10 57q17 2 32 2q72 0 119 -35.5t47 -95.5q0 -68 -53.5 -113t-150.5 -45q-40 0 -87 9z" />
    <glyph glyph-name="Lcaron" unicode="&#x13d;" horiz-adv-x="960" 
d="M270 1397v-1307h691v-90h-799v1397h108zM762 1401v-156q0 -182 -133 -282v71q43 61 43 168h-43v199h133z" />
    <glyph glyph-name="lcaron" unicode="&#x13e;" horiz-adv-x="385" 
d="M242 1397v-1397h-99v1397h99zM451 1401v-156q0 -182 -133 -282v71q43 61 43 168h-43v199h133z" />
    <glyph glyph-name="Ldot" unicode="&#x13f;" horiz-adv-x="960" 
d="M270 1397v-1307h691v-90h-799v1397h108zM688 701q0 -36 -26.5 -62.5t-62.5 -26.5q-37 0 -63 26.5t-26 62.5q0 37 26 63t63 26q36 0 62.5 -26t26.5 -63z" />
    <glyph glyph-name="ldot" unicode="&#x140;" horiz-adv-x="597" 
d="M242 1397v-1397h-99v1397h99zM577 700q0 -36 -26.5 -62.5t-62.5 -26.5q-37 0 -63 26.5t-26 62.5q0 37 26 63t63 26q36 0 62.5 -26t26.5 -63z" />
    <glyph glyph-name="Nacute" unicode="&#x143;" horiz-adv-x="1579" 
d="M1419 1397v-1397h-90l-1061 1221v-1221h-108v1397h92l1059 -1221v1221h108zM1063 1787l-311 -319h-68l213 319h166z" />
    <glyph glyph-name="nacute" unicode="&#x144;" horiz-adv-x="1003" 
d="M225 920v-160h4q115 178 303 178q156 0 249 -100t93 -277v-561h-98v524q0 318 -250 318q-183 0 -301 -197v-645h-98v920h98zM751 1386l-311 -319h-68l213 319h166z" />
    <glyph glyph-name="Ncedilla" unicode="&#x145;" horiz-adv-x="1579" 
d="M1419 1397v-1397h-90l-1061 1221v-1221h-108v1397h92l1059 -1221v1221h108zM640 -349l10 67q33 -6 63 -6q140 0 140 84q0 76 -130 76l10 57q17 2 32 2q72 0 119 -35.5t47 -95.5q0 -68 -53.5 -113t-150.5 -45q-40 0 -87 9z" />
    <glyph glyph-name="ncedilla" unicode="&#x146;" horiz-adv-x="1003" 
d="M225 920v-160h4q115 178 303 178q156 0 249 -100t93 -277v-561h-98v524q0 318 -250 318q-183 0 -301 -197v-645h-98v920h98zM352 -349l10 67q33 -6 63 -6q140 0 140 84q0 76 -130 76l10 57q17 2 32 2q72 0 119 -35.5t47 -95.5q0 -68 -53.5 -113t-150.5 -45q-40 0 -87 9z
" />
    <glyph glyph-name="Ncaron" unicode="&#x147;" horiz-adv-x="1579" 
d="M1419 1397v-1397h-90l-1061 1221v-1221h-108v1397h92l1059 -1221v1221h108zM874 1453h-125l-222 335h78l205 -223l203 223h78z" />
    <glyph glyph-name="ncaron" unicode="&#x148;" horiz-adv-x="1003" 
d="M225 920v-160h4q115 178 303 178q156 0 249 -100t93 -277v-561h-98v524q0 318 -250 318q-183 0 -301 -197v-645h-98v920h98zM594 1049h-125l-222 335h78l205 -223l203 223h78z" />
    <glyph glyph-name="napostrophe" unicode="&#x149;" horiz-adv-x="1084" 
d="M307 920v-160h4q115 178 303 178q156 0 249 -100t93 -277v-561h-98v524q0 318 -250 318q-183 0 -301 -197v-645h-98v920h98zM136 1401v-156q0 -182 -133 -282v71q43 61 43 168h-43v199h133z" />
    <glyph glyph-name="Eng" unicode="&#x14a;" horiz-adv-x="1446" 
d="M950 -300q23 -9 49 -9q95 0 135.5 77.5t40.5 267.5v641q0 373 -116 503.5t-331 130.5q-344 0 -459 -307v-1004h-107v1397h107v-213q159 232 471 232q158 0 279.5 -63.5t193 -199.5t71.5 -455v-675q0 -216 -69.5 -323t-251.5 -108z" />
    <glyph glyph-name="eng" unicode="&#x14b;" horiz-adv-x="1003" 
d="M875 497v-534q0 -257 -77 -343.5t-195 -91.5l-27 84q77 7 122.5 42.5t61.5 100.5t16 267v466q0 210 -82.5 282.5t-179.5 72.5q-186 0 -288 -198v-645h-98v920h98v-160q117 178 300 178q143 0 246 -93.5t103 -347.5z" />
    <glyph glyph-name="Omacron" unicode="&#x14c;" horiz-adv-x="1685" 
d="M842 1415q310 0 525.5 -208.5t215.5 -508.5q0 -299 -215.5 -507.5t-525.5 -208.5q-309 0 -523.5 208.5t-214.5 507.5q0 300 214.5 508.5t523.5 208.5zM846 82q261 0 440.5 178.5t179.5 437.5q0 260 -179.5 438.5t-440.5 178.5q-262 0 -443.5 -178.5t-181.5 -438.5
q0 -259 181.5 -437.5t443.5 -178.5zM1115 1680v-105h-546v105h546z" />
    <glyph glyph-name="omacron" unicode="&#x14d;" horiz-adv-x="1109" 
d="M555 938q200 0 333.5 -137t133.5 -342q0 -204 -133.5 -340.5t-333.5 -136.5t-334.5 136.5t-134.5 340.5q0 205 134.5 342t334.5 137zM555 78q155 0 259 108.5t104 272.5q0 163 -104.5 273t-258.5 110q-156 0 -260.5 -109t-104.5 -274q0 -164 104.5 -272.5t260.5 -108.5z
M827 1276v-105h-546v105h546z" />
    <glyph glyph-name="Obreve" unicode="&#x14e;" horiz-adv-x="1685" 
d="M842 1415q310 0 525.5 -208.5t215.5 -508.5q0 -299 -215.5 -507.5t-525.5 -208.5q-309 0 -523.5 208.5t-214.5 507.5q0 300 214.5 508.5t523.5 208.5zM846 82q261 0 440.5 178.5t179.5 437.5q0 260 -179.5 438.5t-440.5 178.5q-262 0 -443.5 -178.5t-181.5 -438.5
q0 -259 181.5 -437.5t443.5 -178.5zM1041 1726h80q-89 -233 -277 -233q-179 0 -283 233h84q66 -137 197 -137q127 0 199 137z" />
    <glyph glyph-name="obreve" unicode="&#x14f;" horiz-adv-x="1109" 
d="M555 938q200 0 333.5 -137t133.5 -342q0 -204 -133.5 -340.5t-333.5 -136.5t-334.5 136.5t-134.5 340.5q0 205 134.5 342t334.5 137zM555 78q155 0 259 108.5t104 272.5q0 163 -104.5 273t-258.5 110q-156 0 -260.5 -109t-104.5 -274q0 -164 104.5 -272.5t260.5 -108.5z
M755 1325h80q-89 -233 -277 -233q-179 0 -283 233h84q66 -137 197 -137q127 0 199 137z" />
    <glyph glyph-name="Odblacute" unicode="&#x150;" horiz-adv-x="1685" 
d="M842 1415q310 0 525.5 -208.5t215.5 -508.5q0 -299 -215.5 -507.5t-525.5 -208.5q-309 0 -523.5 208.5t-214.5 507.5q0 300 214.5 508.5t523.5 208.5zM846 82q261 0 440.5 178.5t179.5 437.5q0 260 -179.5 438.5t-440.5 178.5q-262 0 -443.5 -178.5t-181.5 -438.5
q0 -259 181.5 -437.5t443.5 -178.5zM1265 1787l-311 -319h-67l213 319h165zM993 1787l-311 -319h-68l213 319h166z" />
    <glyph glyph-name="odblacute" unicode="&#x151;" horiz-adv-x="1109" 
d="M555 938q200 0 333.5 -137t133.5 -342q0 -204 -133.5 -340.5t-333.5 -136.5t-334.5 136.5t-134.5 340.5q0 205 134.5 342t334.5 137zM555 78q155 0 259 108.5t104 272.5q0 163 -104.5 273t-258.5 110q-156 0 -260.5 -109t-104.5 -274q0 -164 104.5 -272.5t260.5 -108.5z
M967 1386l-311 -319h-67l213 319h165zM695 1386l-311 -319h-68l213 319h166z" />
    <glyph glyph-name="Racute" unicode="&#x154;" horiz-adv-x="1173" 
d="M162 1397h358q225 0 344 -97.5t119 -263.5q0 -242 -266 -340q69 -33 186 -213l316 -483h-127l-244 383q-122 192 -190 239.5t-199 47.5h-189v-670h-108v1397zM270 1307v-547h232q177 0 270.5 71.5t93.5 202.5q0 129 -95 201t-273 72h-228zM798 1787l-311 -319h-68
l213 319h166z" />
    <glyph glyph-name="racute" unicode="&#x155;" horiz-adv-x="683" 
d="M764 829l-57 -92q-115 105 -185 105q-138 0 -295 -264v-578h-98v920h98v-242h4q165 260 322 260q90 0 211 -109zM675 1386l-311 -319h-68l213 319h166z" />
    <glyph glyph-name="Rcedilla" unicode="&#x156;" horiz-adv-x="1173" 
d="M162 1397h358q225 0 344 -97.5t119 -263.5q0 -242 -266 -340q69 -33 186 -213l316 -483h-127l-244 383q-122 192 -190 239.5t-199 47.5h-189v-670h-108v1397zM270 1307v-547h232q177 0 270.5 71.5t93.5 202.5q0 129 -95 201t-273 72h-228zM461 -349l10 67q33 -6 63 -6
q140 0 140 84q0 76 -130 76l10 57q17 2 32 2q72 0 119 -35.5t47 -95.5q0 -68 -53.5 -113t-150.5 -45q-40 0 -87 9z" />
    <glyph glyph-name="rcedilla" unicode="&#x157;" horiz-adv-x="683" 
d="M764 829l-57 -92q-115 105 -185 105q-138 0 -295 -264v-578h-98v920h98v-242h4q165 260 322 260q90 0 211 -109zM217 -349l10 67q33 -6 63 -6q140 0 140 84q0 76 -130 76l10 57q17 2 32 2q72 0 119 -35.5t47 -95.5q0 -68 -53.5 -113t-150.5 -45q-40 0 -87 9z" />
    <glyph glyph-name="Rcaron" unicode="&#x158;" horiz-adv-x="1173" 
d="M162 1397h358q225 0 344 -97.5t119 -263.5q0 -242 -266 -340q69 -33 186 -213l316 -483h-127l-244 383q-122 192 -190 239.5t-199 47.5h-189v-670h-108v1397zM270 1307v-547h232q177 0 270.5 71.5t93.5 202.5q0 129 -95 201t-273 72h-228zM602 1453h-125l-222 335h78
l205 -223l203 223h78z" />
    <glyph glyph-name="rcaron" unicode="&#x159;" horiz-adv-x="683" 
d="M764 829l-57 -92q-115 105 -185 105q-138 0 -295 -264v-578h-98v920h98v-242h4q165 260 322 260q90 0 211 -109zM506 1049h-125l-222 335h78l205 -223l203 223h78z" />
    <glyph glyph-name="Sacute" unicode="&#x15a;" horiz-adv-x="960" 
d="M819 1327v-119q-182 107 -313 107q-126 0 -210.5 -76.5t-84.5 -189.5q0 -81 50 -146t209 -125t232 -100t124 -116t51 -197q0 -161 -118 -272t-288 -111q-174 0 -358 122v127q203 -149 352 -149q124 0 209.5 80.5t85.5 197.5q0 89 -53 160.5t-215 133.5t-231.5 100
t-118 108.5t-48.5 181.5q0 154 118 262.5t284 108.5q163 0 323 -88zM762 1787l-311 -319h-68l213 319h166z" />
    <glyph glyph-name="sacute" unicode="&#x15b;" horiz-adv-x="725" 
d="M633 860v-106q-140 94 -252 94q-83 0 -140 -45t-57 -111q0 -47 34.5 -86.5t191 -99.5t204.5 -125t48 -145q0 -107 -87 -180.5t-215 -73.5q-139 0 -276 84v96q163 -84 289 -84q85 0 139.5 45t54.5 115q0 48 -35.5 88.5t-192 102.5t-203 122.5t-46.5 134.5
q0 105 86.5 178.5t210.5 73.5q113 0 246 -78zM624 1386l-311 -319h-68l213 319h166z" />
    <glyph glyph-name="Scircumflex" unicode="&#x15c;" horiz-adv-x="960" 
d="M819 1327v-119q-182 107 -313 107q-126 0 -210.5 -76.5t-84.5 -189.5q0 -81 50 -146t209 -125t232 -100t124 -116t51 -197q0 -161 -118 -272t-288 -111q-174 0 -358 122v127q203 -149 352 -149q124 0 209.5 80.5t85.5 197.5q0 89 -53 160.5t-215 133.5t-231.5 100
t-118 108.5t-48.5 181.5q0 154 118 262.5t284 108.5q163 0 323 -88zM552 1788l217 -335h-78l-203 223l-205 -223h-78l222 335h125z" />
    <glyph glyph-name="scircumflex" unicode="&#x15d;" horiz-adv-x="725" 
d="M633 860v-106q-140 94 -252 94q-83 0 -140 -45t-57 -111q0 -47 34.5 -86.5t191 -99.5t204.5 -125t48 -145q0 -107 -87 -180.5t-215 -73.5q-139 0 -276 84v96q163 -84 289 -84q85 0 139.5 45t54.5 115q0 48 -35.5 88.5t-192 102.5t-203 122.5t-46.5 134.5
q0 105 86.5 178.5t210.5 73.5q113 0 246 -78zM437 1384l217 -335h-78l-203 223l-205 -223h-78l222 335h125z" />
    <glyph glyph-name="Scedilla" unicode="&#x15e;" horiz-adv-x="960" 
d="M819 1327v-119q-182 107 -313 107q-124 0 -209.5 -75t-85.5 -191q0 -86 53.5 -150t205.5 -121q162 -61 238 -104t122.5 -118.5t46.5 -190.5q0 -156 -111 -265t-270 -117l-15 -55q127 -22 127 -129q0 -75 -56.5 -116.5t-145.5 -41.5q-43 0 -89 11l10 65q39 -3 68 -3
q133 0 133 79q0 77 -127 80l33 111q-157 11 -321 120v127q203 -149 352 -149q124 0 209.5 79.5t85.5 198.5q0 97 -58 166.5t-210 127.5q-166 63 -237.5 103.5t-116 111t-44.5 175.5q0 157 118.5 264t283.5 107q163 0 323 -88z" />
    <glyph glyph-name="scedilla" unicode="&#x15f;" horiz-adv-x="725" 
d="M386 -17l-15 -55q127 -22 127 -129q0 -75 -56.5 -116.5t-145.5 -41.5q-43 0 -89 11l10 65q39 -3 68 -3q133 0 133 79q0 77 -127 80l33 111q-121 9 -240 82v96q163 -84 289 -84q82 0 138 43.5t56 116.5q0 57 -46.5 97.5t-181.5 93.5q-150 59 -199.5 119.5t-49.5 137.5
q0 110 88.5 181t208.5 71q113 0 246 -78v-106q-140 94 -252 94q-79 0 -138 -43.5t-59 -112.5q0 -57 45.5 -96t179.5 -90q147 -56 200 -119.5t53 -150.5q0 -102 -79.5 -174t-196.5 -79z" />
    <glyph glyph-name="Tcedilla" unicode="&#x162;" horiz-adv-x="1173" 
d="M1165 1397v-90h-524v-1307h-109v1307h-524v90h1157zM425 -349l10 67q33 -6 63 -6q140 0 140 84q0 76 -130 76l10 57q17 2 32 2q72 0 119 -35.5t47 -95.5q0 -68 -53.5 -113t-150.5 -45q-40 0 -87 9z" />
    <glyph glyph-name="tcedilla" unicode="&#x163;" horiz-adv-x="619" 
d="M307 1225v-305h258v-80h-258v-547q0 -132 21.5 -173.5t115.5 -41.5q72 0 168 45v-94q-97 -47 -190 -47q-91 0 -152 52t-61 144v662h-248v80h248v219l67 86h31zM187 -349l10 67q33 -6 63 -6q140 0 140 84q0 76 -130 76l10 57q17 2 32 2q72 0 119 -35.5t47 -95.5
q0 -68 -53.5 -113t-150.5 -45q-40 0 -87 9z" />
    <glyph glyph-name="Tcaron" unicode="&#x164;" horiz-adv-x="1173" 
d="M1165 1397v-90h-524v-1307h-109v1307h-524v90h1157zM651 1453h-125l-222 335h78l205 -223l203 223h78z" />
    <glyph glyph-name="tcaron" unicode="&#x165;" horiz-adv-x="832" 
d="M307 1225v-305h258v-80h-258v-547q0 -132 21.5 -173.5t115.5 -41.5q72 0 168 45v-94q-97 -47 -190 -47q-91 0 -152 52t-61 144v662h-248v80h248v219l67 86h31zM772 1397v-119q0 -220 -133 -315v70q42 67 42 168h-42v196h133z" />
    <glyph glyph-name="Tbar" unicode="&#x166;" horiz-adv-x="1173" 
d="M643 744h472v-87h-472v-657h-110v657h-474v87h474v563h-525v90h1158v-90h-523v-563z" />
    <glyph glyph-name="tbar" unicode="&#x167;" horiz-adv-x="619" 
d="M308 609h283v-82h-283v-252q0 -85 7.5 -116t39.5 -55t92 -24q69 0 166 43v-95q-100 -46 -191 -46q-77 0 -132 39.5t-68.5 89t-13.5 164.5v252h-246v82h246v229h-246v82h246v220l69 84h31v-304h258v-82h-258v-229z" />
    <glyph glyph-name="Utilde" unicode="&#x168;" horiz-adv-x="1429" 
d="M1192 1397h108v-762q0 -313 -163 -483t-422 -170q-258 0 -421 168t-163 460v787h109v-783q0 -250 132.5 -391t342.5 -141q212 0 344.5 142.5t132.5 404.5v768zM1047 1713q5 -84 -44.5 -140.5t-123.5 -56.5q-50 0 -177.5 50.5t-172.5 50.5q-74 0 -86 -99h-66
q0 87 44.5 141t123.5 54q66 0 185 -50t163 -50q79 0 92 100h62z" />
    <glyph glyph-name="utilde" unicode="&#x169;" horiz-adv-x="1003" 
d="M776 0v152h-4q-64 -92 -131.5 -131t-171.5 -39q-148 0 -245 96t-97 272v570h98v-568q0 -128 70 -201t182 -73q96 0 163.5 44t135.5 152v646h98v-920h-98zM825 1317q5 -84 -44.5 -140.5t-123.5 -56.5q-50 0 -177.5 50.5t-172.5 50.5q-74 0 -86 -99h-66q0 87 44.5 141
t123.5 54q66 0 185 -50t163 -50q79 0 92 100h62z" />
    <glyph glyph-name="Umacron" unicode="&#x16a;" horiz-adv-x="1429" 
d="M1192 1397h108v-762q0 -313 -163 -483t-422 -170q-258 0 -421 168t-163 460v787h109v-783q0 -250 132.5 -391t342.5 -141q212 0 344.5 142.5t132.5 404.5v768zM999 1680v-105h-546v105h546z" />
    <glyph glyph-name="umacron" unicode="&#x16b;" horiz-adv-x="1003" 
d="M776 0v152h-4q-64 -92 -131.5 -131t-171.5 -39q-148 0 -245 96t-97 272v570h98v-568q0 -128 70 -201t182 -73q96 0 163.5 44t135.5 152v646h98v-920h-98zM765 1276v-105h-546v105h546z" />
    <glyph glyph-name="Ubreve" unicode="&#x16c;" horiz-adv-x="1429" 
d="M1192 1397h108v-762q0 -313 -163 -483t-422 -170q-258 0 -421 168t-163 460v787h109v-783q0 -250 132.5 -391t342.5 -141q212 0 344.5 142.5t132.5 404.5v768zM915 1726h80q-89 -233 -277 -233q-179 0 -283 233h84q66 -137 197 -137q127 0 199 137z" />
    <glyph glyph-name="ubreve" unicode="&#x16d;" horiz-adv-x="1003" 
d="M776 0v152h-4q-64 -92 -131.5 -131t-171.5 -39q-148 0 -245 96t-97 272v570h98v-568q0 -128 70 -201t182 -73q96 0 163.5 44t135.5 152v646h98v-920h-98zM693 1325h80q-89 -233 -277 -233q-179 0 -283 233h84q66 -137 197 -137q127 0 199 137z" />
    <glyph glyph-name="Uring" unicode="&#x16e;" horiz-adv-x="1429" 
d="M1192 1397h108v-762q0 -313 -163 -483t-422 -170q-258 0 -421 168t-163 460v787h109v-783q0 -250 132.5 -391t342.5 -141q212 0 344.5 142.5t132.5 404.5v768zM557 1670q0 74 52 125.5t126 51.5q73 0 124.5 -51.5t51.5 -125.5q0 -73 -51.5 -125.5t-124.5 -52.5
t-125.5 52.5t-52.5 125.5zM856 1670q0 51 -35.5 86t-85.5 35q-51 0 -87 -35t-36 -86q0 -50 36.5 -86t86.5 -36t85.5 36t35.5 86z" />
    <glyph glyph-name="uring" unicode="&#x16f;" horiz-adv-x="1003" 
d="M776 0v152h-4q-64 -92 -131.5 -131t-171.5 -39q-148 0 -245 96t-97 272v570h98v-568q0 -128 70 -201t182 -73q96 0 163.5 44t135.5 152v646h98v-920h-98zM340 1214q0 74 52 125.5t126 51.5q73 0 124.5 -51.5t51.5 -125.5q0 -73 -51.5 -125.5t-124.5 -52.5t-125.5 52.5
t-52.5 125.5zM639 1214q0 51 -35.5 86t-85.5 35q-51 0 -87 -35t-36 -86q0 -50 36.5 -86t86.5 -36t85.5 36t35.5 86z" />
    <glyph glyph-name="Udblacute" unicode="&#x170;" horiz-adv-x="1429" 
d="M1192 1397h108v-762q0 -313 -163 -483t-422 -170q-258 0 -421 168t-163 460v787h109v-783q0 -250 132.5 -391t342.5 -141q212 0 344.5 142.5t132.5 404.5v768zM1139 1787l-311 -319h-67l213 319h165zM867 1787l-311 -319h-68l213 319h166z" />
    <glyph glyph-name="udblacute" unicode="&#x171;" horiz-adv-x="1003" 
d="M776 0v152h-4q-64 -92 -131.5 -131t-171.5 -39q-148 0 -245 96t-97 272v570h98v-568q0 -128 70 -201t182 -73q96 0 163.5 44t135.5 152v646h98v-920h-98zM927 1386l-311 -319h-67l213 319h165zM655 1386l-311 -319h-68l213 319h166z" />
    <glyph glyph-name="Uogonek" unicode="&#x172;" horiz-adv-x="1421" 
d="M1095 -260v-78q-43 -11 -83 -11q-83 0 -138 46.5t-55 122.5q0 50 21.5 95t125.5 116q-112 -49 -251 -49q-268 0 -426 172.5t-158 455.5v787h109v-783q0 -239 127 -385.5t348 -146.5q224 0 350.5 149t126.5 398v768h108v-762q0 -151 -48.5 -302t-211.5 -308
q-41 -39 -96 -103q-19 -35 -19 -69q0 -115 133 -115q18 0 37 2z" />
    <glyph glyph-name="uogonek" unicode="&#x173;" horiz-adv-x="1003" 
d="M847 0q-86 -77 -86 -148q0 -48 35.5 -81.5t97.5 -33.5q16 0 37 2v-77q-48 -10 -85 -10q-87 0 -139 48t-52 118q0 111 114 182v151q-135 -170 -315 -170q-149 0 -242 98.5t-93 322.5v518h98v-518q0 -116 19 -182.5t81 -109t148 -42.5q208 0 304 209v643h98v-920h-20z" />
    <glyph glyph-name="Wcircumflex" unicode="&#x174;" horiz-adv-x="2112" 
d="M1057 1165l-469 -1179h-29l-561 1411h111l462 -1159l469 1159h33l467 -1159l463 1159h111l-562 -1411h-26zM1121 1788l217 -335h-78l-203 223l-205 -223h-78l222 335h125z" />
    <glyph glyph-name="wcircumflex" unicode="&#x175;" 
d="M1450 920l-397 -938h-47l-283 747l-285 -747h-45l-393 938h96l314 -750l288 750h54l280 -750l320 750h98zM790 1384l217 -335h-78l-203 223l-205 -223h-78l222 335h125z" />
    <glyph glyph-name="Ycircumflex" unicode="&#x176;" horiz-adv-x="1195" 
d="M1194 1397l-543 -647v-750h-108v750l-543 647h131l467 -553l465 553h131zM660 1788l217 -335h-78l-203 223l-205 -223h-78l222 335h125z" />
    <glyph glyph-name="ycircumflex" unicode="&#x177;" horiz-adv-x="853" 
d="M866 920l-688 -1391h-100l321 649l-387 742h103l334 -644l317 644h100zM505 1384l217 -335h-78l-203 223l-205 -223h-78l222 335h125z" />
    <glyph glyph-name="Zacute" unicode="&#x179;" horiz-adv-x="1301" 
d="M1233 1397l10 -39l-1046 -1268h1054v-90h-1222l-11 31l1047 1276h-999v90h1167zM909 1787l-311 -319h-68l213 319h166z" />
    <glyph glyph-name="zacute" unicode="&#x17a;" horiz-adv-x="811" 
d="M780 920l8 -31l-604 -799h604v-90h-757l-11 31l609 798h-570v91h721zM656 1386l-311 -319h-68l213 319h166z" />
    <glyph glyph-name="Zdot" unicode="&#x17b;" horiz-adv-x="1301" 
d="M1233 1397l10 -39l-1046 -1268h1054v-90h-1222l-11 31l1047 1276h-999v90h1167zM595 1627q0 37 26.5 64t63.5 27t63.5 -27t26.5 -64q0 -36 -26.5 -63t-63.5 -27t-63.5 27t-26.5 63z" />
    <glyph glyph-name="zdot" unicode="&#x17c;" horiz-adv-x="811" 
d="M780 920l8 -31l-604 -799h604v-90h-757l-11 31l609 798h-570v91h721zM357 1212q0 37 26.5 64t63.5 27t63.5 -27t26.5 -64q0 -36 -26.5 -63t-63.5 -27t-63.5 27t-26.5 63z" />
    <glyph glyph-name="longs" unicode="&#x17f;" horiz-adv-x="443" 
d="M632 1375v-91q-95 32 -164 32q-111 0 -167.5 -64t-56.5 -217v-1035h-100v1035q0 199 96 290t224 91q78 0 168 -41z" />
    <glyph glyph-name="Aringacute" unicode="&#x1fa;" horiz-adv-x="1365" 
d="M769 2030h250l-401 -263h-100zM1358 0h-113l-221 483h-682l-221 -483h-113l622 1358q-126 46 -126 171q0 75 51.5 126t126.5 51q74 0 125 -51.5t51 -125.5q0 -126 -123 -170zM682 1650q-52 0 -87.5 -34.5t-35.5 -86.5q0 -51 36 -86.5t87 -35.5t86 35.5t35 86.5t-35 86
t-86 35zM983 573l-301 658l-299 -658h600z" />
    <glyph glyph-name="aringacute" unicode="&#x1fb;" horiz-adv-x="875" 
d="M862 160v-82q-127 -96 -186 -96q-34 0 -47 22.5t-19 91.5q-145 -114 -288 -114q-104 0 -176 68t-72 165q0 150 139 236.5t397 99.5v117q0 188 -204 188q-130 0 -281 -117v101q156 98 297 98q125 0 206 -61.5t81 -178.5v-573q0 -47 22 -47q28 0 131 82zM610 182v287
q-189 7 -313.5 -66.5t-124.5 -187.5q0 -64 52 -108t130 -44q126 0 256 119zM260 1214q0 74 52 125.5t126 51.5q73 0 124.5 -51.5t51.5 -125.5q0 -73 -51.5 -125.5t-124.5 -52.5t-125.5 52.5t-52.5 125.5zM559 1214q0 51 -35.5 86t-85.5 35q-51 0 -87 -35t-36 -86
q0 -50 36.5 -86t86.5 -36t85.5 36t35.5 86zM702 1766l-311 -319h-68l213 319h166z" />
    <glyph glyph-name="AEacute" unicode="&#x1fc;" horiz-adv-x="1771" 
d="M1675 1397v-90h-657v-557h643v-91h-643v-569h676v-90h-785v659h-409l-410 -659h-119l873 1397h831zM559 750h350v571zM1433 1787l-311 -319h-68l213 319h166z" />
    <glyph glyph-name="aeacute" unicode="&#x1fd;" horiz-adv-x="1365" 
d="M1290 498h-592v-121q0 -143 74.5 -221t190.5 -78q162 0 327 121v-113q-168 -104 -338 -104q-172 0 -293 143q-196 -143 -346 -143q-105 0 -175 67.5t-70 169.5q0 129 113.5 206.5t418.5 152.5v67q0 203 -184 203q-145 0 -305 -115v103q149 102 319 102q169 0 250 -141
q106 141 256 141q160 0 257 -122.5t97 -317.5zM698 578h484q-6 122 -78 193t-170 71q-97 0 -164 -72t-72 -192zM600 182v316q-438 -106 -438 -283q0 -64 49 -108t123 -44q110 0 266 119zM1012 1386l-311 -319h-68l213 319h166z" />
    <glyph glyph-name="Oslashacute" unicode="&#x1fe;" horiz-adv-x="1685" 
d="M399 121l-129 -144l-77 60l131 145q-220 218 -220 516q0 300 214.5 508.5t523.5 208.5q255 0 461 -151l129 143l75 -51l-137 -152q213 -209 213 -506q0 -299 -215.5 -507.5t-525.5 -208.5q-237 0 -443 139zM399 264l832 922q-160 129 -385 129q-262 0 -443.5 -178.5
t-181.5 -438.5q0 -253 178 -434zM1300 1124l-829 -923q165 -119 375 -119q261 0 440.5 178.5t179.5 437.5q0 237 -166 426zM1094 1787l-311 -319h-68l213 319h166z" />
    <glyph glyph-name="oslashacute" unicode="&#x1ff;" horiz-adv-x="1109" 
d="M270 74l-116 -135l-68 61l119 135q-119 130 -119 324q0 205 134.5 342t334.5 137q160 0 281 -90l108 123l64 -51l-111 -127q125 -140 125 -334q0 -204 -133.5 -340.5t-333.5 -136.5q-159 0 -285 92zM272 211l496 561q-90 70 -213 70q-156 0 -260.5 -109t-104.5 -274
q0 -141 82 -248zM827 713l-489 -563q100 -72 217 -72q155 0 259 108.5t104 272.5q0 158 -91 254zM803 1386l-311 -319h-68l213 319h166z" />
    <glyph glyph-name="tonos" unicode="&#x384;" horiz-adv-x="683" 
d="M338 1386h141l-106 -287h-77z" />
    <glyph glyph-name="dieresistonos" unicode="&#x385;" horiz-adv-x="683" 
d="M316 1386h142l-107 -287h-77zM199 1188q0 -37 -26.5 -63t-62.5 -26q-37 0 -63 26t-26 63q0 36 26 62.5t63 26.5q36 0 62.5 -26.5t26.5 -62.5zM663 1188q0 -37 -26.5 -63t-62.5 -26q-37 0 -63 26t-26 63q0 36 26 62.5t63 26.5t63 -26.5t26 -62.5z" />
    <glyph glyph-name="Alphatonos" unicode="&#x386;" horiz-adv-x="1365" 
d="M713 1407l645 -1407h-113l-221 483h-682l-221 -483h-113l645 1407h60zM983 573l-301 658l-299 -658h600zM343 1415h141l-106 -287h-77z" />
    <glyph glyph-name="anoteleia" unicode="&#x387;" horiz-adv-x="432" 
d="M277 859q0 -25 -17.5 -43.5t-43.5 -18.5t-43.5 18.5t-17.5 43.5t18 43t43 18t43 -18t18 -43z" />
    <glyph glyph-name="Epsilontonos" unicode="&#x388;" horiz-adv-x="1004" 
d="M926 1397v-90h-654v-559h637v-91h-637v-567h670v-90h-778v1397h762zM-43 1415h141l-106 -287h-77z" />
    <glyph glyph-name="Etatonos" unicode="&#x389;" horiz-adv-x="1478" 
d="M1311 1397v-1397h-109v662h-932v-662h-108v1397h108v-645h932v645h109zM-43 1415h141l-106 -287h-77z" />
    <glyph glyph-name="Iotatonos" unicode="&#x38a;" horiz-adv-x="434" 
d="M268 1397v-1397h-108v1397h108zM-43 1415h141l-106 -287h-77z" />
    <glyph glyph-name="Omicrontonos" unicode="&#x38c;" horiz-adv-x="1686" 
d="M842 1415q310 0 525.5 -208.5t215.5 -508.5q0 -299 -215.5 -507.5t-525.5 -208.5q-309 0 -523.5 208.5t-214.5 507.5q0 300 214.5 508.5t523.5 208.5zM846 82q261 0 440.5 178.5t179.5 437.5q0 260 -179.5 438.5t-440.5 178.5q-262 0 -443.5 -178.5t-181.5 -438.5
q0 -259 181.5 -437.5t443.5 -178.5zM133 1415h141l-106 -287h-77z" />
    <glyph glyph-name="Upsilontonos" unicode="&#x38e;" horiz-adv-x="1325" 
d="M1324 1397l-543 -647v-750h-108v750l-543 647h131l467 -553l465 553h131zM-43 1415h141l-106 -287h-77z" />
    <glyph glyph-name="Omegatonos" unicode="&#x38f;" horiz-adv-x="1478" 
d="M986 91h378v-91h-503v94q213 156 312.5 315.5t99.5 365.5q0 244 -151.5 390.5t-382.5 146.5q-147 0 -257 -55.5t-193.5 -173.5t-83.5 -308q0 -206 99.5 -365.5t312.5 -315.5v-94h-503v91h378q-239 176 -324 336t-85 350q0 284 187 461.5t469 177.5q183 0 330.5 -77.5
t236.5 -221t89 -340.5q0 -190 -85 -350t-324 -336zM72 1415h141l-106 -287h-77z" />
    <glyph glyph-name="iotadieresistonos" unicode="&#x390;" horiz-adv-x="528" 
d="M198 920h99v-756q0 -78 36 -78q40 0 116 42v-85q-37 -23 -96.5 -42t-88.5 -19q-34 0 -50 24.5t-16 96.5v817zM240 1386h142l-107 -287h-77zM123 1188q0 -37 -26.5 -63t-62.5 -26q-37 0 -63 26t-26 63q0 36 26 62.5t63 26.5q36 0 62.5 -26.5t26.5 -62.5zM587 1188
q0 -37 -26.5 -63t-62.5 -26q-37 0 -63 26t-26 63q0 36 26 62.5t63 26.5t63 -26.5t26 -62.5z" />
    <glyph glyph-name="Alpha" unicode="&#x391;" horiz-adv-x="1365" 
d="M713 1407l645 -1407h-113l-221 483h-682l-221 -483h-113l645 1407h60zM983 573l-301 658l-299 -658h600z" />
    <glyph glyph-name="Beta" unicode="&#x392;" horiz-adv-x="1088" 
d="M164 1397h291q229 0 347 -96t118 -265q0 -202 -201 -311q323 -70 323 -354q0 -170 -126.5 -270.5t-342.5 -100.5h-409v1397zM272 1307v-557h150q381 0 381 278q0 279 -385 279h-146zM272 659v-569h289q179 0 272 77t93 206q0 286 -412 286h-242z" />
    <glyph glyph-name="Gamma" unicode="&#x393;" horiz-adv-x="963" 
d="M963 1397v-89h-694v-1308h-107v1397h801z" />
    <glyph glyph-name="Delta" unicode="&#x394;" horiz-adv-x="1356" 
d="M645 1406h65l639 -1406h-1342zM678 1229l-516 -1136h1032z" />
    <glyph glyph-name="Epsilon" unicode="&#x395;" horiz-adv-x="1003" 
d="M926 1397v-90h-654v-559h637v-91h-637v-567h670v-90h-778v1397h762z" />
    <glyph glyph-name="Zeta" unicode="&#x396;" horiz-adv-x="1301" 
d="M1233 1397l10 -39l-1046 -1268h1054v-90h-1222l-11 31l1047 1276h-999v90h1167z" />
    <glyph glyph-name="Eta" unicode="&#x397;" horiz-adv-x="1472" 
d="M1311 1397v-1397h-109v662h-932v-662h-108v1397h108v-645h932v645h109z" />
    <glyph glyph-name="Theta" unicode="&#x398;" horiz-adv-x="1685" 
d="M842 -18q-313 0 -526.5 209t-213.5 511q0 295 210 504.5t531 209.5q320 0 530 -210t210 -502q0 -307 -216 -514.5t-525 -207.5zM839 83q257 0 440.5 176.5t183.5 445.5q0 241 -175 423.5t-443 182.5q-264 0 -442.5 -178.5t-178.5 -435.5q0 -254 177 -434t438 -180z
M1253 751v-96h-819v96h819z" />
    <glyph glyph-name="Iota" unicode="&#x399;" horiz-adv-x="427" 
d="M268 1397v-1397h-108v1397h108z" />
    <glyph glyph-name="Kappa" unicode="&#x39a;" horiz-adv-x="1088" 
d="M1069 1397l-668 -697l732 -700h-138l-731 698v-698h-108v1397h108v-695l670 695h135z" />
    <glyph glyph-name="Lambda" unicode="&#x39b;" horiz-adv-x="1356" 
d="M646 1406h64l639 -1406h-111l-560 1228l-560 -1228h-111z" />
    <glyph glyph-name="Mu" unicode="&#x39c;" horiz-adv-x="1600" 
d="M799 748l532 649h109v-1397h-109v1239l-532 -653l-533 653v-1239h-108v1397h108z" />
    <glyph glyph-name="Nu" unicode="&#x39d;" horiz-adv-x="1579" 
d="M1419 1397v-1397h-90l-1061 1221v-1221h-108v1397h92l1059 -1221v1221h108z" />
    <glyph glyph-name="Xi" unicode="&#x39e;" horiz-adv-x="1164" 
d="M1104 1397v-91h-1044v91h1044zM914 744v-91h-664v91h664zM1104 91v-91h-1044v91h1044z" />
    <glyph glyph-name="Omicron" unicode="&#x39f;" horiz-adv-x="1685" 
d="M842 1415q310 0 525.5 -208.5t215.5 -508.5q0 -299 -215.5 -507.5t-525.5 -208.5q-309 0 -523.5 208.5t-214.5 507.5q0 300 214.5 508.5t523.5 208.5zM846 82q261 0 440.5 178.5t179.5 437.5q0 260 -179.5 438.5t-440.5 178.5q-262 0 -443.5 -178.5t-181.5 -438.5
q0 -259 181.5 -437.5t443.5 -178.5z" />
    <glyph glyph-name="Pi" unicode="&#x3a0;" horiz-adv-x="1477" 
d="M1315 0h-106v1306h-940v-1306h-107v1397h1153v-1397z" />
    <glyph glyph-name="Rho" unicode="&#x3a1;" horiz-adv-x="1045" 
d="M160 1397h385q221 0 338.5 -99t117.5 -270q0 -173 -118.5 -274t-347.5 -101h-267v-653h-108v1397zM268 1307v-564h260q175 0 266 74t91 209q0 129 -89 205t-255 76h-273z" />
    <glyph glyph-name="Sigma" unicode="&#x3a3;" horiz-adv-x="1188" 
d="M1085 1397v-91h-838l530 -605l-534 -610h885v-91h-1098l606 701l-606 696h1055z" />
    <glyph glyph-name="Tau" unicode="&#x3a4;" horiz-adv-x="1173" 
d="M1165 1397v-90h-524v-1307h-109v1307h-524v90h1157z" />
    <glyph glyph-name="Upsilon" unicode="&#x3a5;" horiz-adv-x="1195" 
d="M1194 1397l-543 -647v-750h-108v750l-543 647h131l467 -553l465 553h131z" />
    <glyph glyph-name="Phi" unicode="&#x3a6;" horiz-adv-x="1538" 
d="M823 0h-108v218q-154 5 -246 23t-191 86t-152.5 170t-53.5 219q0 125 65.5 240t197 187t380.5 72v182h108v-182q249 0 381 -72.5t197 -187.5t65 -239q0 -195 -151.5 -345.5t-491.5 -152.5v-218zM715 1112q-272 0 -396 -118t-124 -274q0 -125 74.5 -226t172 -133.5
t273.5 -39.5v791zM823 1112v-791q179 7 275.5 40t171 133.5t74.5 225.5q0 107 -60 198t-167 142.5t-294 51.5z" />
    <glyph glyph-name="Chi" unicode="&#x3a7;" horiz-adv-x="1408" 
d="M705 795l530 602h139l-600 -682l635 -715h-139l-565 639l-566 -639h-139l633 715l-600 682h139z" />
    <glyph glyph-name="Psi" unicode="&#x3a8;" horiz-adv-x="1551" 
d="M829 0h-107v398q-146 13 -265.5 82.5t-205 203t-116 295t-30.5 418.5h107q0 -359 60 -526t191.5 -268t258.5 -101v895h107v-895q127 0 259 101t191.5 268t59.5 526h108q-2 -251 -27 -404t-109.5 -293.5t-208.5 -214.5t-273 -87v-398z" />
    <glyph glyph-name="Omega" unicode="&#x3a9;" horiz-adv-x="1478" 
d="M986 91h378v-91h-503v94q213 156 312.5 315.5t99.5 365.5q0 244 -151.5 390.5t-382.5 146.5q-147 0 -257 -55.5t-193.5 -173.5t-83.5 -308q0 -206 99.5 -365.5t312.5 -315.5v-94h-503v91h378q-239 176 -324 336t-85 350q0 284 187 461.5t469 177.5q183 0 330.5 -77.5
t236.5 -221t89 -340.5q0 -190 -85 -350t-324 -336z" />
    <glyph glyph-name="Iotadieresis" unicode="&#x3aa;" horiz-adv-x="427" 
d="M268 1397v-1397h-108v1397h108zM295 1580q0 37 27 64t63 27q37 0 63.5 -27t26.5 -64q0 -36 -26.5 -63t-63.5 -27q-36 0 -63 27t-27 63zM-67 1580q0 37 26.5 64t63.5 27q36 0 63 -27t27 -64q0 -36 -27 -63t-63 -27q-37 0 -63.5 27t-26.5 63z" />
    <glyph glyph-name="Upsilondieresis" unicode="&#x3ab;" horiz-adv-x="1195" 
d="M1194 1397l-543 -647v-750h-108v750l-543 647h131l467 -553l465 553h131zM675 1580q0 37 27 64t63 27q37 0 63.5 -27t26.5 -64q0 -36 -26.5 -63t-63.5 -27q-36 0 -63 27t-27 63zM313 1580q0 37 26.5 64t63.5 27q36 0 63 -27t27 -64q0 -36 -27 -63t-63 -27q-37 0 -63.5 27
t-26.5 63z" />
    <glyph glyph-name="alphatonos" unicode="&#x3ac;" horiz-adv-x="1090" 
d="M819 920h98v-766q0 -70 39 -70q29 0 114 43v-85q-111 -60 -178 -60q-34 0 -53 20t-20 82q-135 -102 -298 -102q-172 0 -303 128t-131 346q0 206 131.5 344t326.5 138q127 0 274 -80v62zM819 765q-130 81 -262 81q-159 0 -262 -110.5t-103 -275.5q0 -154 96 -270.5
t238 -116.5q138 0 293 116v576zM562 1386h141l-106 -287h-77z" />
    <glyph glyph-name="epsilontonos" unicode="&#x3ad;" horiz-adv-x="865" 
d="M752 882v-94q-164 58 -294 58q-105 0 -162.5 -48t-57.5 -121q0 -175 287 -183v-76q-183 0 -252 -51.5t-69 -116.5q0 -70 64 -123.5t202 -53.5q181 0 326 65v-89q-134 -67 -337 -67q-156 0 -258 80.5t-102 191.5q0 71 48 129t110 82q-123 80 -123 212q0 106 94 183.5
t255 77.5q134 0 269 -56zM478 1386h141l-106 -287h-77z" />
    <glyph glyph-name="etatonos" unicode="&#x3ae;" horiz-adv-x="1050" 
d="M922 -472h-99v960q0 358 -265 358q-178 0 -284 -214v-632h-99v767q0 44 -7 55.5t-29 11.5q-44 0 -113 -43v85q98 62 179 62q69 0 69 -87v-100q96 187 311 187q141 0 239 -92t98 -333v-985zM556 1386h141l-106 -287h-77z" />
    <glyph glyph-name="iotatonos" unicode="&#x3af;" horiz-adv-x="528" 
d="M198 920h99v-756q0 -78 36 -78q40 0 116 42v-85q-37 -23 -96.5 -42t-88.5 -19q-34 0 -50 24.5t-16 96.5v817zM240 1386h141l-106 -287h-77z" />
    <glyph glyph-name="upsilondieresistonos" unicode="&#x3b0;" horiz-adv-x="991" 
d="M764 920h99v-519q0 -123 -28.5 -209.5t-122.5 -148t-211 -61.5q-111 0 -203.5 53t-131 131.5t-38.5 249.5v504h99v-483q0 -136 18 -199.5t86.5 -114t163.5 -50.5q93 0 161.5 46.5t88 107t19.5 189.5v504zM470 1386h142l-107 -287h-77zM353 1188q0 -37 -26.5 -63
t-62.5 -26q-37 0 -63 26t-26 63q0 36 26 62.5t63 26.5q36 0 62.5 -26.5t26.5 -62.5zM817 1188q0 -37 -26.5 -63t-62.5 -26q-37 0 -63 26t-26 63q0 36 26 62.5t63 26.5t63 -26.5t26 -62.5z" />
    <glyph glyph-name="alpha" unicode="&#x3b1;" horiz-adv-x="1090" 
d="M819 920h98v-766q0 -70 39 -70q29 0 114 43v-85q-111 -60 -178 -60q-34 0 -53 20t-20 82q-135 -102 -298 -102q-172 0 -303 128t-131 346q0 206 131.5 344t326.5 138q127 0 274 -80v62zM819 765q-130 81 -262 81q-159 0 -262 -110.5t-103 -275.5q0 -154 96 -270.5
t238 -116.5q138 0 293 116v576z" />
    <glyph glyph-name="beta" unicode="&#x3b2;" horiz-adv-x="1079" 
d="M275 -466h-100v1415q0 167 29.5 254t125.5 150t220 63q162 0 265 -99.5t103 -246.5q0 -99 -53.5 -180.5t-149.5 -114.5q123 -26 200.5 -124.5t77.5 -249.5q0 -176 -113 -297.5t-289 -121.5q-195 0 -316 135v-583zM543 815q125 0 197.5 69t72.5 183q0 112 -74.5 184.5
t-188.5 72.5q-275 0 -275 -322v-634q0 -133 81.5 -214t210.5 -81q149 0 235 94.5t86 244.5q0 156 -98.5 237t-246.5 81v85z" />
    <glyph glyph-name="gamma" unicode="&#x3b3;" horiz-adv-x="1047" 
d="M889 920h108q-61 -103 -194 -387t-207 -533q34 -119 34 -263q0 -99 -19.5 -154t-50.5 -55q-69 0 -69 216q0 138 28 256q-87 322 -220 584.5t-206 262.5q-34 0 -77 -60l-36 79q67 72 130 72q95 0 218 -208t231 -574q89 324 330 764z" />
    <glyph glyph-name="delta" unicode="&#x3b4;" horiz-adv-x="1111" 
d="M890 1321l-32 -77q-228 80 -356 80q-196 0 -196 -96q0 -29 27 -60t150 -85q187 -81 298.5 -159t177 -199.5t65.5 -261.5q0 -203 -128.5 -342t-341.5 -139q-215 0 -341 143t-126 338q0 198 126 336.5t311 138.5q62 0 130 -25q-25 14 -136 63q-202 89 -254 139.5t-52 108.5
q0 79 77 135.5t198 56.5q182 0 403 -95zM557 73q154 0 258 111.5t104 274.5q0 175 -104 281t-260 106t-259.5 -105.5t-103.5 -279.5q0 -172 105.5 -280t259.5 -108z" />
    <glyph glyph-name="epsilon" unicode="&#x3b5;" horiz-adv-x="865" 
d="M752 882v-94q-164 58 -294 58q-105 0 -162.5 -48t-57.5 -121q0 -175 287 -183v-76q-183 0 -252 -51.5t-69 -116.5q0 -70 64 -123.5t202 -53.5q181 0 326 65v-89q-134 -67 -337 -67q-156 0 -258 80.5t-102 191.5q0 71 48 129t110 82q-123 80 -123 212q0 106 94 183.5
t255 77.5q134 0 269 -56z" />
    <glyph glyph-name="zeta" unicode="&#x3b6;" horiz-adv-x="964" 
d="M136 1351l68 65q201 -145 349 -147q154 131 271 131q71 0 71 -51q0 -64 -84 -120.5t-238 -56.5q-229 -254 -307.5 -449t-78.5 -368q0 -97 33 -161t88 -92t184 -28q238 0 313.5 -78t75.5 -192q0 -136 -103 -206t-227 -70q-84 0 -180 27l23 83q93 -18 148 -18
q87 0 160.5 46t73.5 141q0 81 -51.5 128t-214.5 47q-162 0 -249 38t-133 121t-46 209q0 422 387 833q-181 35 -333 168z" />
    <glyph glyph-name="eta" unicode="&#x3b7;" horiz-adv-x="1050" 
d="M922 -472h-99v960q0 358 -265 358q-178 0 -284 -214v-632h-99v767q0 44 -7 55.5t-29 11.5q-44 0 -113 -43v85q98 62 179 62q69 0 69 -87v-100q96 187 311 187q141 0 239 -92t98 -333v-985z" />
    <glyph glyph-name="theta" unicode="&#x3b8;" horiz-adv-x="999" 
d="M503 -18q-192 0 -298 186.5t-106 532.5q0 366 115 540.5t285 174.5q172 0 286.5 -173.5t114.5 -543.5q0 -363 -111 -540t-286 -177zM795 741q2 300 -98 457q-80 126 -203 126q-114 0 -200 -140.5t-90 -442.5h591zM204 656q0 -269 81 -426t220 -157q126 0 208 155.5
t82 427.5h-591z" />
    <glyph glyph-name="iota" unicode="&#x3b9;" horiz-adv-x="528" 
d="M198 920h99v-756q0 -78 36 -78q40 0 116 42v-85q-37 -23 -96.5 -42t-88.5 -19q-34 0 -50 24.5t-16 96.5v817z" />
    <glyph glyph-name="kappa" unicode="&#x3ba;" horiz-adv-x="1005" 
d="M925 922v-95q-49 27 -84 27q-49 0 -120 -65l-341 -308l578 -481h-141l-574 481l437 392q73 65 153 65q42 0 92 -16zM128 920h99v-920h-99v920z" />
    <glyph glyph-name="lambda" unicode="&#x3bb;" horiz-adv-x="913" 
d="M120 0h-102l381 924l-111 276q-45 113 -109 135l43 81q53 -14 85 -51.5t77 -149.5l392 -976q65 -160 137 -183l-40 -74q-58 9 -96 50.5t-83 154.5l-246 611z" />
    <glyph glyph-name="mu" unicode="&#x3bc;" horiz-adv-x="1050" 
d="M776 920h99v-775q0 -59 35 -59q40 0 116 42v-86q-33 -21 -92 -40.5t-88 -19.5q-70 0 -70 93v62q-97 -155 -252 -155q-163 0 -297 175v-629h-99v1392h99v-637q113 -210 288 -210q115 0 188 77.5t73 258.5v511z" />
    <glyph glyph-name="nu" unicode="&#x3bd;" horiz-adv-x="927" 
d="M0 920h101l350 -791q314 438 314 635q0 84 -88 137l90 37q94 -60 94 -165q0 -146 -124.5 -377t-285.5 -414h-39z" />
    <glyph glyph-name="xi" unicode="&#x3be;" horiz-adv-x="994" 
d="M829 917v-86q-329 0 -471.5 -148.5t-142.5 -338.5q0 -93 35.5 -152.5t95.5 -85t209 -25.5q127 0 200.5 -20.5t123.5 -89t50 -165.5q0 -130 -98.5 -204t-250.5 -74q-92 0 -162 26l23 84q69 -18 130 -18q114 0 183.5 49t69.5 139q0 174 -243 174q-133 0 -204.5 10.5
t-134 52t-97.5 117t-35 180.5q0 163 95 299t302 220q-77 15 -123.5 67t-46.5 119q0 79 67 154q-171 41 -253 148l67 67q103 -125 266 -139q161 117 286 117q45 0 70 -20t25 -41q0 -55 -87.5 -101.5t-207.5 -46.5q-20 0 -63 3q-78 -67 -78 -130q0 -141 249 -141h151z" />
    <glyph glyph-name="omicron" unicode="&#x3bf;" horiz-adv-x="1109" 
d="M556 938q200 0 333.5 -137t133.5 -342q0 -204 -133.5 -340.5t-333.5 -136.5t-334.5 136.5t-134.5 340.5q0 205 134.5 342t334.5 137zM556 78q155 0 259 108.5t104 272.5q0 163 -104.5 273t-258.5 110q-156 0 -260.5 -109t-104.5 -274q0 -164 104.5 -272.5t260.5 -108.5z
" />
    <glyph glyph-name="pi1" unicode="&#x3c0;" horiz-adv-x="1174" 
d="M1159 920v-87h-185v-833h-99v833h-548v-833h-99v833q-130 0 -200 -36v84q72 39 257 39h874z" />
    <glyph glyph-name="rho" unicode="&#x3c1;" horiz-adv-x="1062" 
d="M227 -472h-99v873q0 187 35.5 288.5t129 175t233.5 73.5q212 0 331 -141.5t119 -330.5q0 -201 -121 -342.5t-311 -141.5q-208 0 -317 152v-606zM534 846q-128 0 -217.5 -91t-89.5 -304q0 -187 87 -282.5t218 -95.5q152 0 245.5 112t93.5 298q0 177 -102 270t-235 93z" />
    <glyph glyph-name="sigma1" unicode="&#x3c2;" horiz-adv-x="955" 
d="M905 833l-54 -78q-123 91 -259 91q-181 0 -290.5 -135t-109.5 -348q0 -92 32.5 -161.5t95 -98t186.5 -28.5q131 0 207.5 -23.5t127 -89t50.5 -158.5q0 -127 -97.5 -201.5t-247.5 -74.5q-82 0 -169 26l26 84q78 -18 143 -18q113 0 176.5 54.5t63.5 141.5q0 59 -34 98.5
t-83.5 52t-154.5 15.5q-175 3 -257.5 43.5t-126 132.5t-43.5 219q0 238 141.5 399.5t357.5 161.5q189 0 319 -105z" />
    <glyph glyph-name="sigma" unicode="&#x3c3;" horiz-adv-x="1127" 
d="M1166 920v-90h-338q195 -119 195 -358q0 -208 -126.5 -349t-345.5 -141q-215 0 -339.5 140t-124.5 339q0 176 116.5 317.5t401.5 141.5h561zM556 827q-138 0 -251 -93t-113 -274q0 -174 102.5 -280.5t258.5 -106.5q160 0 262.5 110.5t102.5 275.5q0 176 -109 272t-253 96
z" />
    <glyph glyph-name="tau" unicode="&#x3c4;" horiz-adv-x="833" 
d="M473 830v-830h-98v830h-122q-147 0 -219 -33v89q74 34 196 34h590v-90h-347z" />
    <glyph glyph-name="upsilon" unicode="&#x3c5;" horiz-adv-x="991" 
d="M764 920h99v-519q0 -123 -28.5 -209.5t-122.5 -148t-211 -61.5q-111 0 -203.5 53t-131 131.5t-38.5 249.5v504h99v-483q0 -136 18 -199.5t86.5 -114t163.5 -50.5q93 0 161.5 46.5t88 107t19.5 189.5v504z" />
    <glyph glyph-name="phi" unicode="&#x3c6;" horiz-adv-x="1204" 
d="M651 1413v-475q231 -14 348.5 -154t117.5 -324q0 -187 -120.5 -325t-345.5 -153v-454h-98v454q-220 10 -343 150.5t-123 325.5q0 187 121.5 328t344.5 152v475h98zM651 73q178 10 269.5 120.5t91.5 265.5q0 166 -96.5 275t-264.5 112v-773zM553 846
q-164 -3 -262.5 -111.5t-98.5 -276.5t101.5 -274.5t259.5 -110.5v773z" />
    <glyph glyph-name="chi" unicode="&#x3c7;" horiz-adv-x="1131" 
d="M1025 920l-408 -681l300 -502q71 -118 152 -126l-44 -80q-56 1 -97.5 38.5t-85.5 110.5l-280 468l-362 -599h-110l415 690l-277 463q-64 107 -93 127t-71 26l52 83q38 0 73.5 -23t110.5 -147l262 -436l355 588h108z" />
    <glyph glyph-name="psi" unicode="&#x3c8;" horiz-adv-x="1136" 
d="M519 1413h99v-1340q122 11 206.5 101t84.5 306v438h99v-456q0 -197 -95 -326.5t-295 -153.5v-454h-99v454q-167 13 -279 133.5t-112 364.5v438h99v-419q0 -155 31 -234.5t102.5 -134t158.5 -57.5v1340z" />
    <glyph glyph-name="omega" unicode="&#x3c9;" horiz-adv-x="1540" 
d="M1147 920h123q184 -233 184 -475q0 -199 -106.5 -331t-269.5 -132q-221 0 -308 205q-92 -205 -302 -205q-183 0 -282 138t-99 326q0 233 183 474h124q-202 -243 -202 -473q0 -156 76.5 -265t195.5 -109q87 0 150 58.5t85 139.5t22 271v148h99v-141q0 -178 19 -264
t86 -149t156 -63q118 0 193 111.5t75 268.5q0 242 -202 467z" />
    <glyph glyph-name="iotadieresis" unicode="&#x3ca;" horiz-adv-x="528" 
d="M198 920h99v-756q0 -78 36 -78q40 0 116 42v-85q-37 -23 -96.5 -42t-88.5 -19q-34 0 -50 24.5t-16 96.5v817zM331 1212q0 37 27 64t63 27q37 0 63.5 -27t26.5 -64q0 -36 -26.5 -63t-63.5 -27q-36 0 -63 27t-27 63zM-31 1212q0 37 26.5 64t63.5 27q36 0 63 -27t27 -64
q0 -36 -27 -63t-63 -27q-37 0 -63.5 27t-26.5 63z" />
    <glyph glyph-name="upsilondieresis" unicode="&#x3cb;" horiz-adv-x="991" 
d="M764 920h99v-519q0 -123 -28.5 -209.5t-122.5 -148t-211 -61.5q-111 0 -203.5 53t-131 131.5t-38.5 249.5v504h99v-483q0 -136 18 -199.5t86.5 -114t163.5 -50.5q93 0 161.5 46.5t88 107t19.5 189.5v504zM584 1212q0 37 27 64t63 27q37 0 63.5 -27t26.5 -64
q0 -36 -26.5 -63t-63.5 -27q-36 0 -63 27t-27 63zM222 1212q0 37 26.5 64t63.5 27q36 0 63 -27t27 -64q0 -36 -27 -63t-63 -27q-37 0 -63.5 27t-26.5 63z" />
    <glyph glyph-name="omicrontonos" unicode="&#x3cc;" horiz-adv-x="1109" 
d="M555 938q200 0 333.5 -137t133.5 -342q0 -204 -133.5 -340.5t-333.5 -136.5t-334.5 136.5t-134.5 340.5q0 205 134.5 342t334.5 137zM555 78q155 0 259 108.5t104 272.5q0 163 -104.5 273t-258.5 110q-156 0 -260.5 -109t-104.5 -274q0 -164 104.5 -272.5t260.5 -108.5z
M558 1386h141l-106 -287h-77z" />
    <glyph glyph-name="upsilontonos" unicode="&#x3cd;" horiz-adv-x="991" 
d="M764 920h99v-519q0 -123 -28.5 -209.5t-122.5 -148t-211 -61.5q-111 0 -203.5 53t-131 131.5t-38.5 249.5v504h99v-483q0 -136 18 -199.5t86.5 -114t163.5 -50.5q93 0 161.5 46.5t88 107t19.5 189.5v504zM492 1386h141l-106 -287h-77z" />
    <glyph glyph-name="omegatonos" unicode="&#x3ce;" horiz-adv-x="1540" 
d="M1147 920h123q184 -233 184 -475q0 -199 -106.5 -331t-269.5 -132q-221 0 -308 205q-92 -205 -302 -205q-183 0 -282 138t-99 326q0 233 183 474h124q-202 -243 -202 -473q0 -156 76.5 -265t195.5 -109q87 0 150 58.5t85 139.5t22 271v148h99v-141q0 -178 19 -264
t86 -149t156 -63q118 0 193 111.5t75 268.5q0 242 -202 467zM759 1386h141l-106 -287h-77z" />
    <glyph glyph-name="afii10023" unicode="&#x401;" horiz-adv-x="1003" 
d="M926 1397v-90h-654v-559h637v-91h-637v-567h670v-90h-778v1397h762zM593 1659q0 37 27 64t63 27q37 0 63.5 -27t26.5 -64q0 -36 -26.5 -63t-63.5 -27q-36 0 -63 27t-27 63zM231 1659q0 37 26.5 64t63.5 27q36 0 63 -27t27 -64q0 -36 -27 -63t-63 -27q-37 0 -63.5 27
t-26.5 63z" />
    <glyph glyph-name="afii10051" unicode="&#x402;" horiz-adv-x="1388" 
d="M532 0v1306h-524v90h1157v-90h-524v-491q37 50 120.5 86.5t159.5 36.5q191 0 306.5 -126.5t115.5 -326.5q0 -207 -118 -346t-310 -139q-72 0 -123 14v107q41 -21 115 -21q147 1 233.5 105.5t86.5 287.5q0 156 -87 250t-233 94q-168 0 -266 -145v-692h-109z" />
    <glyph glyph-name="afii10052" unicode="&#x403;" horiz-adv-x="922" 
d="M162 1396h760v-90h-652v-1306h-108v1396zM735 1855l-311 -319h-68l213 319h166z" />
    <glyph glyph-name="afii10053" unicode="&#x404;" horiz-adv-x="1386" 
d="M219 733h958v-90h-958q19 -249 191.5 -405t430.5 -156q226 0 498 143v-113q-246 -130 -495 -130q-320 -1 -532 203t-212 511q1 307 216 513t517 206q237 0 492 -117v-119q-256 136 -498 136q-251 0 -422.5 -164.5t-185.5 -417.5z" />
    <glyph glyph-name="afii10054" unicode="&#x405;" horiz-adv-x="960" 
d="M819 1327v-119q-182 107 -313 107q-126 0 -210.5 -76.5t-84.5 -189.5q0 -81 50 -146t209 -125t232 -100t124 -116t51 -197q0 -161 -118 -272t-288 -111q-174 0 -358 122v127q203 -149 352 -149q124 0 209.5 80.5t85.5 197.5q0 89 -53 160.5t-215 133.5t-231.5 100
t-118 108.5t-48.5 181.5q0 154 118 262.5t284 108.5q163 0 323 -88z" />
    <glyph glyph-name="afii10055" unicode="&#x406;" horiz-adv-x="426" 
d="M268 1397v-1397h-108v1397h108z" />
    <glyph glyph-name="afii10056" unicode="&#x407;" horiz-adv-x="426" 
d="M268 1397v-1397h-108v1397h108zM307 1659q0 37 27 64t63 27q37 0 63.5 -27t26.5 -64q0 -36 -26.5 -63t-63.5 -27q-36 0 -63 27t-27 63zM-55 1659q0 37 26.5 64t63.5 27q36 0 63 -27t27 -64q0 -36 -27 -63t-63 -27q-37 0 -63.5 27t-26.5 63z" />
    <glyph glyph-name="afii10057" unicode="&#x408;" horiz-adv-x="426" 
d="M276 1397v-1397q0 -231 -87 -319t-206 -88q-28 0 -65 4l-10 102q34 -8 64 -8q196 0 196 280v1426h108z" />
    <glyph glyph-name="afii10058" unicode="&#x409;" horiz-adv-x="1874" 
d="M646 1405h67l276 -615h373q226 1 348 -101t121 -288q0 -179 -129.5 -290t-345.5 -111h-112l-564 1224l-560 -1224h-112zM1309 92l33 -2q181 -11 277 74t96 237q0 299 -373 299h-310z" />
    <glyph glyph-name="afii10059" unicode="&#x40a;" horiz-adv-x="2122" 
d="M1612 0h-410v661h-932v-661h-108v1396h108v-645h932v645h109v-645h309q219 0 339 -92.5t120 -263.5q0 -180 -125.5 -287.5t-341.5 -107.5zM1599 661h-288v-571h288q363 0 363 301q0 127 -93.5 199t-269.5 71z" />
    <glyph glyph-name="afii10060" unicode="&#x40b;" horiz-adv-x="1382" 
d="M532 1306h-524v90h1157v-90h-524v-385h258q203 0 311.5 -97.5t108.5 -276.5v-547h-109v473q0 221 -79 289.5t-279 68.5h-211v-831h-109v1306z" />
    <glyph glyph-name="afii10061" unicode="&#x40c;" horiz-adv-x="1200" 
d="M162 1396h108v-636h137q107 0 171 44.5t116 155.5l129 277q41 87 90 123t144 36h49v-90h-52q-64 0 -90 -22.5t-61 -97.5l-109 -238q-90 -198 -182 -236q48 -7 106 -53.5t164 -218.5l275 -440h-137l-240 409q-152 260 -334 260h-176v-669h-108v1396zM820 1810l-311 -319
h-68l213 319h166z" />
    <glyph glyph-name="afii10062" unicode="&#x40e;" horiz-adv-x="1216" 
d="M631 340l471 1056h108l-493 -1095q-88 -195 -141 -257t-154 -62q-136 0 -183 53v117q45 -74 181 -74q96 0 161 143l-575 1175h108zM811 1773h80q-89 -233 -277 -233q-179 0 -283 233h84q66 -137 197 -137q127 0 199 137z" />
    <glyph glyph-name="afii10145" unicode="&#x40f;" horiz-adv-x="1473" 
d="M790 0v-241h-108v241h-520v1396h108v-1306h932v1306h109v-1396h-521z" />
    <glyph glyph-name="afii10017" unicode="&#x410;" horiz-adv-x="1366" 
d="M713 1407l645 -1407h-113l-221 483h-682l-221 -483h-113l645 1407h60zM983 573l-301 658l-299 -658h600z" />
    <glyph glyph-name="afii10018" unicode="&#x411;" horiz-adv-x="1106" 
d="M272 1396v-2h715v-90h-715v-514h309q229 0 354.5 -103t125.5 -286q0 -178 -134.5 -289.5t-353.5 -111.5h-409v1396h108zM561 700h-289v-610h289q187 0 285 84t98 227q0 142 -97.5 221t-285.5 78z" />
    <glyph glyph-name="afii10019" unicode="&#x412;" horiz-adv-x="1087" 
d="M164 1397h291q229 0 347 -96t118 -265q0 -202 -201 -311q323 -70 323 -354q0 -170 -126.5 -270.5t-342.5 -100.5h-409v1397zM272 1307v-557h150q381 0 381 278q0 279 -385 279h-146zM272 659v-569h289q179 0 272 77t93 206q0 286 -412 286h-242z" />
    <glyph glyph-name="afii10020" unicode="&#x413;" horiz-adv-x="922" 
d="M162 1396h760v-90h-652v-1306h-108v1396z" />
    <glyph glyph-name="afii10021" unicode="&#x414;" horiz-adv-x="1550" 
d="M745 1405h60l565 -1315h162v-401h-109v311h-1296v-311h-109v401h162zM1257 90l-485 1134l-479 -1134h964z" />
    <glyph glyph-name="afii10022" unicode="&#x415;" horiz-adv-x="1003" 
d="M926 1397v-90h-654v-559h637v-91h-637v-567h670v-90h-778v1397h762z" />
    <glyph glyph-name="afii10024" unicode="&#x416;" horiz-adv-x="1878" 
d="M794 760h90v636h109v-636h90q107 0 171 44.5t116 155.5l129 277q39 84 88 121.5t145 37.5h50v-90h-52q-64 0 -90.5 -22.5t-60.5 -97.5l-109 -238q-36 -79 -91 -148t-101 -88q78 -21 135.5 -76t144.5 -196l275 -440h-138l-239 409q-152 260 -346 260h-117v-669h-109v669
h-116q-194 0 -346 -260l-240 -409h-137l274 440q82 131 139.5 190.5t141.5 81.5q-107 49 -193 236l-108 238q-32 71 -57.5 95.5t-94.5 24.5h-51v90h49q96 0 145 -36.5t89 -122.5l129 -277q52 -111 116 -155.5t170 -44.5z" />
    <glyph glyph-name="afii10025" unicode="&#x417;" horiz-adv-x="1024" 
d="M461 686h-238v98h268q143 1 234.5 81.5t91.5 188.5q0 263 -356 263q-218 0 -381 -93v101q147 90 409 90q195 0 320 -91.5t125 -246.5q0 -100 -70 -200t-170 -134q115 -40 186.5 -135t71.5 -225q0 -193 -138.5 -297t-359.5 -104q-187 0 -395 71v109q155 -82 383 -82
q170 0 282 81.5t111 221.5q0 140 -100.5 221.5t-273.5 81.5z" />
    <glyph glyph-name="afii10026" unicode="&#x418;" horiz-adv-x="1472" 
d="M1241 1396h69v-1396h-108v1204l-963 -1204h-77v1396h108v-1216z" />
    <glyph glyph-name="afii10027" unicode="&#x419;" horiz-adv-x="1472" 
d="M1241 1396h69v-1396h-108v1204l-963 -1204h-77v1396h108v-1216zM936 1773h80q-89 -233 -277 -233q-179 0 -283 233h84q66 -137 197 -137q127 0 199 137z" />
    <glyph glyph-name="afii10028" unicode="&#x41a;" horiz-adv-x="1202" 
d="M162 1396h108v-636h137q107 0 171 44.5t116 155.5l129 277q41 87 90 123t144 36h49v-90h-52q-64 0 -90 -22.5t-61 -97.5l-109 -238q-90 -198 -182 -236q48 -7 106 -53.5t164 -218.5l275 -440h-137l-240 409q-152 260 -334 260h-176v-669h-108v1396z" />
    <glyph glyph-name="afii10029" unicode="&#x41b;" horiz-adv-x="1366" 
d="M653 1405h59l646 -1405h-113l-565 1224l-559 -1224h-113z" />
    <glyph glyph-name="afii10030" unicode="&#x41c;" horiz-adv-x="1599" 
d="M799 748l532 649h109v-1397h-109v1239l-532 -653l-533 653v-1239h-108v1397h108z" />
    <glyph glyph-name="afii10031" unicode="&#x41d;" horiz-adv-x="1472" 
d="M1311 1397v-1397h-109v662h-932v-662h-108v1397h108v-645h932v645h109z" />
    <glyph glyph-name="afii10032" unicode="&#x41e;" horiz-adv-x="1685" 
d="M842 1415q310 0 525.5 -208.5t215.5 -508.5q0 -299 -215.5 -507.5t-525.5 -208.5q-309 0 -523.5 208.5t-214.5 507.5q0 300 214.5 508.5t523.5 208.5zM846 82q261 0 440.5 178.5t179.5 437.5q0 260 -179.5 438.5t-440.5 178.5q-262 0 -443.5 -178.5t-181.5 -438.5
q0 -259 181.5 -437.5t443.5 -178.5z" />
    <glyph glyph-name="afii10033" unicode="&#x41f;" horiz-adv-x="1472" 
d="M162 1396h1148v-1396h-108v1306h-932v-1306h-108v1396z" />
    <glyph glyph-name="afii10034" unicode="&#x420;" horiz-adv-x="1044" 
d="M160 1397h385q221 0 338.5 -99t117.5 -270q0 -173 -118.5 -274t-347.5 -101h-267v-653h-108v1397zM268 1307v-564h260q175 0 266 74t91 209q0 129 -89 205t-255 76h-273z" />
    <glyph glyph-name="afii10035" unicode="&#x421;" horiz-adv-x="1386" 
d="M1325 1298v-118q-254 135 -498 135q-260 0 -435 -177t-175 -442q0 -268 176 -441t449 -173q228 0 497 143v-112q-248 -131 -495 -131q-319 0 -531.5 204.5t-212.5 509.5q0 307 217 513t517 206q236 0 491 -117z" />
    <glyph glyph-name="afii10036" unicode="&#x422;" horiz-adv-x="1173" 
d="M1165 1397v-90h-524v-1307h-109v1307h-524v90h1157z" />
    <glyph glyph-name="afii10037" unicode="&#x423;" horiz-adv-x="1216" 
d="M631 340l471 1056h108l-493 -1095q-88 -195 -141 -257t-154 -62q-136 0 -183 53v117q45 -74 181 -74q96 0 161 143l-575 1175h108z" />
    <glyph glyph-name="afii10038" unicode="&#x424;" horiz-adv-x="1568" 
d="M733 1396h108v-92q304 0 493 -165t189 -441q0 -274 -187 -436t-495 -162v-100h-108v100q-309 1 -498.5 162.5t-189.5 435.5q0 277 190.5 441.5t497.5 164.5v92zM841 1214v-1024q257 0 411.5 136.5t154.5 371.5q0 237 -155 376.5t-411 139.5zM733 190v1024
q-257 0 -414 -139.5t-158 -376.5q0 -234 157 -371t415 -137z" />
    <glyph glyph-name="afii10039" unicode="&#x425;" horiz-adv-x="1409" 
d="M705 795l530 602h139l-600 -682l635 -715h-139l-565 639l-566 -639h-139l633 715l-600 682h139z" />
    <glyph glyph-name="afii10040" unicode="&#x426;" horiz-adv-x="1489" 
d="M1202 1396h108v-1306h158v-331h-108v241h-1198v1396h108v-1306h932v1306z" />
    <glyph glyph-name="afii10041" unicode="&#x427;" horiz-adv-x="1151" 
d="M880 1396h109v-1396h-109v555q-82 -8 -190 -8h-39q-287 0 -446.5 145.5t-159.5 392.5v311h108v-331q0 -194 134.5 -311t338.5 -117h66q74 0 188 8v751z" />
    <glyph glyph-name="afii10042" unicode="&#x428;" horiz-adv-x="1960" 
d="M270 90h655v1306h109v-1306h655v1306h109v-1396h-1636v1396h108v-1306z" />
    <glyph glyph-name="afii10043" unicode="&#x429;" horiz-adv-x="1976" 
d="M270 90h655v1306h109v-1306h655v1306h109v-1306h158v-331h-109v241h-1685v1396h108v-1306z" />
    <glyph glyph-name="afii10044" unicode="&#x42a;" horiz-adv-x="1239" 
d="M706 0h-409v1306h-297v90h405v-606h310q228 1 353.5 -102.5t125.5 -286.5q0 -178 -134.5 -289.5t-353.5 -111.5zM694 700h-289v-610h289q187 0 285 84.5t98 226.5t-97.5 220.5t-285.5 78.5z" />
    <glyph glyph-name="afii10045" unicode="&#x42b;" horiz-adv-x="1581" 
d="M573 0h-409v1396h108v-606h309q229 0 354.5 -103t125.5 -286q0 -178 -134.5 -289.5t-353.5 -111.5zM561 700h-289v-610h289q187 0 285 84t98 227q0 142 -97.5 221t-285.5 78zM1308 1396h109v-1396h-109v1396z" />
    <glyph glyph-name="afii10046" unicode="&#x42c;" horiz-adv-x="1106" 
d="M573 0h-409v1396h108v-606h309q229 0 354.5 -103t125.5 -286q0 -178 -134.5 -289.5t-353.5 -111.5zM561 700h-289v-610h289q187 0 285 84t98 227q0 142 -97.5 221t-285.5 78z" />
    <glyph glyph-name="afii10047" unicode="&#x42d;" horiz-adv-x="1386" 
d="M1167 643h-895v90h895q-14 253 -185.5 417.5t-422.5 164.5q-243 0 -498 -136v119q255 117 492 117q302 0 517.5 -206t215.5 -513t-212 -510.5t-532 -203.5q-249 0 -495 130v113q272 -143 497 -143q260 0 432.5 156t190.5 405z" />
    <glyph glyph-name="afii10048" unicode="&#x42e;" horiz-adv-x="2048" 
d="M270 651v-651h-108v1396h108v-655h199q17 287 227 480.5t508 193.5q312 0 527 -207.5t214 -509.5q0 -301 -214.5 -508.5t-526.5 -207.5q-296 0 -506.5 192t-228.5 477h-199zM1208 1315q-263 0 -443.5 -178t-181.5 -439q1 -261 181.5 -438.5t443.5 -177.5t442 177.5
t179 438.5q0 262 -179 439.5t-442 177.5z" />
    <glyph glyph-name="afii10049" unicode="&#x42f;" horiz-adv-x="1218" 
d="M1057 1396v-1396h-109v616h-170q-139 0 -221.5 -35.5t-186.5 -197.5l-243 -383h-127l299 450q105 158 211 189q-132 25 -217.5 131t-85.5 235q0 167 132.5 279.5t358.5 111.5h359zM661 706h287v600h-227q-178 0 -287.5 -85.5t-110.5 -215.5q1 -137 90 -218t248 -81z" />
    <glyph glyph-name="afii10065" unicode="&#x430;" horiz-adv-x="874" 
d="M862 160v-82q-127 -96 -186 -96q-34 0 -47 22.5t-19 91.5q-145 -114 -288 -114q-104 0 -176 68t-72 165q0 150 139 236.5t397 99.5v117q0 188 -204 188q-130 0 -281 -117v101q156 98 297 98q125 0 206 -61.5t81 -178.5v-573q0 -47 22 -47q28 0 131 82zM610 182v287
q-189 7 -313.5 -66.5t-124.5 -187.5q0 -64 52 -108t130 -44q126 0 256 119z" />
    <glyph glyph-name="afii10066" unicode="&#x431;" horiz-adv-x="1053" 
d="M762 1390l194 25l-16 -98l-236 -31q-274 -36 -381.5 -182t-107.5 -426h2q37 114 134.5 187t209.5 73q167 0 286 -138t119 -335q1 -220 -113 -351.5t-300 -131.5q-204 -1 -318 130t-114 353q0 308 44 502t194 293t403 130zM553 841q-136 0 -228 -108.5t-92 -267.5
q0 -180 87.5 -283.5t232.5 -103.5q139 0 224 104t85 283q0 156 -90 266t-219 110z" />
    <glyph glyph-name="afii10067" unicode="&#x432;" horiz-adv-x="888" 
d="M479 0h-352v919h309q147 0 231.5 -64.5t83.5 -160.5q0 -72 -45 -135t-118 -86q101 -12 157 -73.5t56 -156.5q0 -111 -89 -177t-233 -66zM401 839h-176v-333h190q107 0 169.5 48.5t62.5 121.5q0 77 -65.5 120t-180.5 43zM450 426h-225v-346h250q221 0 221 186
q0 160 -246 160z" />
    <glyph glyph-name="afii10068" unicode="&#x433;" horiz-adv-x="715" 
d="M127 919h573v-90h-475v-829h-98v919z" />
    <glyph glyph-name="afii10069" unicode="&#x434;" horiz-adv-x="1090" 
d="M950 80h120v-321h-90v241h-870v-241h-90v321h123l383 858h61zM851 80l-299 694l-309 -694h608z" />
    <glyph glyph-name="afii10070" unicode="&#x435;" horiz-adv-x="981" 
d="M911 494h-725q-3 -24 -3 -48q0 -154 110 -261t260 -107q175 0 342 137v-111q-158 -122 -354 -122q-199 0 -329 138t-130 351q0 202 120 334.5t302 132.5q171 0 289 -119.5t118 -324.5zM199 573h596q-52 269 -291 269q-113 0 -195.5 -70.5t-109.5 -198.5z" />
    <glyph glyph-name="afii10072" unicode="&#x436;" horiz-adv-x="1356" 
d="M528 520h105v417h90v-417h104q130 0 180 143l47 133q51 141 199 141h39v-90h-39q-90 0 -119 -88l-39 -121q-15 -49 -57 -100.5t-78 -58.5q105 -37 213 -218l158 -261h-117l-160 266q-60 101 -118 137.5t-144 36.5h-69v-440h-90v440h-70q-87 0 -144.5 -37t-117.5 -137
l-160 -266h-117l158 261q110 181 213 218q-35 7 -77 58.5t-58 100.5l-39 121q-28 88 -119 88h-39v90h39q149 0 199 -141l47 -133q51 -143 180 -143z" />
    <glyph glyph-name="afii10073" unicode="&#x437;" horiz-adv-x="834" 
d="M338 442h-121v80h155q115 0 186 51.5t70 122.5q0 162 -253 162q-141 0 -293 -78v84q147 74 315 74q146 0 241 -59.5t95 -161.5q0 -72 -50.5 -136t-123.5 -90q188 -65 188 -243q0 -125 -107.5 -195.5t-260.5 -70.5q-178 0 -314 53v88q129 -62 301 -62q121 0 199 53t78 146
q0 182 -305 182z" />
    <glyph glyph-name="afii10074" unicode="&#x438;" horiz-adv-x="1020" 
d="M794 0v749l-612 -757h-55v927h98v-751l612 751h56v-919h-99z" />
    <glyph glyph-name="afii10075" unicode="&#x439;" horiz-adv-x="1020" 
d="M794 0v749l-612 -757h-55v927h98v-751l612 751h56v-919h-99zM710 1325h80q-89 -233 -277 -233q-179 0 -283 233h84q66 -137 197 -137q127 0 199 137z" />
    <glyph glyph-name="afii10076" unicode="&#x43a;" horiz-adv-x="872" 
d="M127 938h90v-418h88q98 0 142 30t73 113l47 133q51 142 199 142h39v-90h-39q-88 0 -119 -88l-43 -123q-44 -125 -121 -160q82 -14 203 -215l158 -262h-117l-160 266q-73 122 -122 148t-122 26h-106v-440h-90v938z" />
    <glyph glyph-name="afii10077" unicode="&#x43b;" horiz-adv-x="874" 
d="M418 938h61l395 -938h-96l-332 774l-346 -774h-100z" />
    <glyph glyph-name="afii10078" unicode="&#x43c;" horiz-adv-x="1239" 
d="M233 919l387 -745l387 745h57l61 -919h-94l-47 688l-364 -688l-373 688l-39 -688h-94l61 919h58z" />
    <glyph glyph-name="afii10079" unicode="&#x43d;" horiz-adv-x="1020" 
d="M794 919h99v-919h-99v438h-569v-438h-98v919h98v-401h569v401z" />
    <glyph glyph-name="afii10080" unicode="&#x43e;" horiz-adv-x="1110" 
d="M555 938q200 0 333.5 -137t133.5 -342q0 -204 -133.5 -340.5t-333.5 -136.5t-334.5 136.5t-134.5 340.5q0 205 134.5 342t334.5 137zM555 78q155 0 259 108.5t104 272.5q0 163 -104.5 273t-258.5 110q-156 0 -260.5 -109t-104.5 -274q0 -164 104.5 -272.5t260.5 -108.5z
" />
    <glyph glyph-name="afii10081" unicode="&#x43f;" horiz-adv-x="1020" 
d="M127 919h766v-919h-99v839h-569v-839h-98v919z" />
    <glyph glyph-name="afii10082" unicode="&#x440;" horiz-adv-x="1044" 
d="M227 920v-52q139 70 277 70q196 0 325 -135t129 -340q0 -202 -133 -341.5t-325 -139.5q-133 0 -273 69v-522h-98v1391h98zM227 774v-627q125 -69 254 -69q165 0 267 104t102 273q0 168 -108 277.5t-273 109.5q-118 0 -242 -68z" />
    <glyph glyph-name="afii10083" unicode="&#x441;" horiz-adv-x="854" 
d="M776 893v-109q-132 58 -239 58q-154 0 -250.5 -107t-96.5 -278q0 -174 96.5 -276.5t258.5 -102.5q118 0 248 53v-102q-138 -47 -256 -47q-202 0 -326.5 128t-124.5 336q0 217 125.5 354.5t320.5 137.5q107 0 244 -45z" />
    <glyph glyph-name="afii10084" unicode="&#x442;" horiz-adv-x="945" 
d="M14 919h917v-90h-409v-829h-99v829h-409v90z" />
    <glyph glyph-name="afii10085" unicode="&#x443;" horiz-adv-x="854" 
d="M866 920l-688 -1391h-100l321 649l-387 742h103l334 -644l317 644h100z" />
    <glyph glyph-name="afii10086" unicode="&#x444;" horiz-adv-x="1192" 
d="M646 1396v-458q185 0 322 -143t137 -336q0 -192 -137 -334.5t-322 -142.5v-453h-98v453q-184 -1 -322.5 142t-138.5 335q0 193 138.5 336t322.5 143v458h98zM646 839v-759q138 0 246.5 114.5t107.5 264.5q0 150 -108 265.5t-246 114.5zM548 80v759q-140 0 -248 -114.5
t-109 -265.5q0 -150 109 -264.5t248 -114.5z" />
    <glyph glyph-name="afii10087" unicode="&#x445;" horiz-adv-x="981" 
d="M500 403l-361 -403h-127l420 471l-420 449h127l361 -381l360 381h127l-422 -449l422 -471h-127z" />
    <glyph glyph-name="afii10088" unicode="&#x446;" horiz-adv-x="1034" 
d="M776 919h98v-839h123v-270h-90v190h-780v919h98v-839h551v839z" />
    <glyph glyph-name="afii10089" unicode="&#x447;" horiz-adv-x="911" 
d="M686 919h98v-919h-98v454q-102 -120 -289 -120q-336 0 -336 374v211h98v-227q0 -279 259 -279q103 0 176 48t92 135v323z" />
    <glyph glyph-name="afii10090" unicode="&#x448;" horiz-adv-x="1351" 
d="M127 0v919h98v-839h401v839h99v-839h401v839h98v-919h-1097z" />
    <glyph glyph-name="afii10091" unicode="&#x449;" horiz-adv-x="1383" 
d="M1257 0h-1130v919h98v-839h401v839h99v-839h401v839h98v-839h123v-270h-90v190z" />
    <glyph glyph-name="afii10092" unicode="&#x44a;" horiz-adv-x="968" 
d="M10 919h326v-346h249q345 0 345 -278q0 -138 -92 -216.5t-242 -78.5h-359v829h-227v90zM592 493h-256v-413h270q106 0 163 58t56 157q0 198 -233 198z" />
    <glyph glyph-name="afii10093" unicode="&#x44b;" horiz-adv-x="1194" 
d="M485 0h-358v919h98v-346h250q344 0 344 -278q0 -138 -91.5 -216.5t-242.5 -78.5zM481 493h-256v-413h270q107 0 163.5 58t56.5 157q0 198 -234 198zM968 919h99v-919h-99v919z" />
    <glyph glyph-name="afii10094" unicode="&#x44c;" horiz-adv-x="858" 
d="M485 0h-358v919h98v-346h250q344 0 344 -278q0 -138 -91.5 -216.5t-242.5 -78.5zM481 493h-256v-413h270q107 0 163.5 58t56.5 157q0 198 -234 198z" />
    <glyph glyph-name="afii10095" unicode="&#x44d;" horiz-adv-x="854" 
d="M194 506h467q-14 152 -107.5 243.5t-236.5 91.5q-104 0 -239 -57v109q140 45 243 45q197 0 322 -137.5t125 -354.5q0 -209 -124 -336.5t-327 -127.5q-114 0 -256 46v103q133 -53 248 -53q153 0 247 90.5t105 246.5h-467v91z" />
    <glyph glyph-name="afii10096" unicode="&#x44e;" horiz-adv-x="1407" 
d="M241 919v-424h146q13 193 144.5 318t322.5 125q201 0 334 -136.5t133 -342.5q0 -205 -133 -341t-334 -136q-190 0 -320.5 122t-146.5 311h-146v-415h-98v919h98zM854 841q-157 0 -260.5 -108t-104.5 -274q1 -165 104.5 -273t260.5 -108q156 0 259.5 108t102.5 273
q1 164 -102.5 273.5t-259.5 108.5z" />
    <glyph glyph-name="afii10097" unicode="&#x44f;" horiz-adv-x="930" 
d="M803 919v-919h-99v381h-153q-89 0 -150.5 -35t-130.5 -137l-139 -209h-119l160 239q87 131 166 158q-211 65 -211 272q0 120 100 185t279 65h297zM454 461h250v378h-178q-168 0 -231.5 -45t-63.5 -141q0 -192 223 -192z" />
    <glyph glyph-name="afii10071" unicode="&#x451;" horiz-adv-x="981" 
d="M911 494h-725q-3 -24 -3 -48q0 -154 110 -261t260 -107q175 0 342 137v-111q-158 -122 -354 -122q-199 0 -329 138t-130 351q0 202 120 334.5t302 132.5q171 0 289 -119.5t118 -324.5zM199 573h596q-52 269 -291 269q-113 0 -195.5 -70.5t-109.5 -198.5zM582 1212
q0 37 27 64t63 27q37 0 63.5 -27t26.5 -64q0 -36 -26.5 -63t-63.5 -27q-36 0 -63 27t-27 63zM220 1212q0 37 26.5 64t63.5 27q36 0 63 -27t27 -64q0 -36 -27 -63t-63 -27q-37 0 -63.5 27t-26.5 63z" />
    <glyph glyph-name="afii10099" unicode="&#x452;" horiz-adv-x="985" 
d="M225 1265h403v-90h-403v-415h4q119 178 303 178q145 0 234.5 -101t89.5 -274v-616q0 -418 -305 -418h-119v90h137q88 0 138.5 76t50.5 201v628q0 149 -61 233t-171 84q-175 0 -301 -196v-645h-98v1175h-127v90h127v131h98v-131z" />
    <glyph glyph-name="afii10100" unicode="&#x453;" horiz-adv-x="733" 
d="M127 919h573v-90h-475v-829h-98v919zM645 1386l-311 -319h-68l213 319h166z" />
    <glyph glyph-name="afii10101" unicode="&#x454;" horiz-adv-x="854" 
d="M192 502h465v-91h-465q13 -154 107 -243.5t246 -89.5q114 0 247 53v-103q-141 -46 -256 -46q-202 -1 -326 127t-124 337q0 217 125 354.5t321 137.5q103 0 244 -45v-109q-136 57 -240 57q-142 1 -236.5 -92t-107.5 -247z" />
    <glyph glyph-name="afii10102" unicode="&#x455;" horiz-adv-x="725" 
d="M633 860v-106q-140 94 -252 94q-83 0 -140 -45t-57 -111q0 -47 34.5 -86.5t191 -99.5t204.5 -125t48 -145q0 -107 -87 -180.5t-215 -73.5q-139 0 -276 84v96q163 -84 289 -84q85 0 139.5 45t54.5 115q0 48 -35.5 88.5t-192 102.5t-203 122.5t-46.5 134.5
q0 105 86.5 178.5t210.5 73.5q113 0 246 -78z" />
    <glyph glyph-name="afii10103" unicode="&#x456;" horiz-adv-x="385" 
d="M242 1397v-168h-99v168h99zM242 920v-920h-99v920h99z" />
    <glyph glyph-name="afii10104" unicode="&#x457;" horiz-adv-x="385" 
d="M242 920v-920h-99v920h99zM286 1212q0 37 27 64t63 27q37 0 63.5 -27t26.5 -64q0 -36 -26.5 -63t-63.5 -27q-36 0 -63 27t-27 63zM-76 1212q0 37 26.5 64t63.5 27q36 0 63 -27t27 -64q0 -36 -27 -63t-63 -27q-37 0 -63.5 27t-26.5 63z" />
    <glyph glyph-name="afii10105" unicode="&#x458;" horiz-adv-x="385" 
d="M238 1397v-168h-99v168h99zM238 920v-1022q0 -173 -73 -271t-200 -98l-22 84q105 2 150.5 69t45.5 218v1020h99z" />
    <glyph glyph-name="afii10106" unicode="&#x459;" horiz-adv-x="1260" 
d="M418 938h61l170 -402h213q176 0 268.5 -70.5t91.5 -191.5q0 -129 -97 -201.5t-257 -72.5h-90l-332 774l-346 -774h-100zM841 80h37q113 0 176.5 53t63.5 141q0 182 -270 182h-166z" />
    <glyph glyph-name="afii10107" unicode="&#x45a;" horiz-adv-x="1512" 
d="M1120 0h-326v438h-569v-438h-98v919h98v-401h569v401h99v-401h221q176 0 268.5 -67.5t91.5 -186.5q1 -127 -93.5 -195.5t-260.5 -68.5zM1100 438h-207v-358h237q240 0 240 182q0 176 -270 176z" />
    <glyph glyph-name="afii10108" unicode="&#x45b;" horiz-adv-x="1003" 
d="M225 1276h483v-90h-483v-426h4q119 178 303 178q157 0 249.5 -100t92.5 -275v-563h-98v524q0 317 -250 317q-175 0 -301 -196v-645h-98v1186h-127v90h127v120h98v-120z" />
    <glyph glyph-name="afii10109" unicode="&#x45c;" horiz-adv-x="874" 
d="M127 938h90v-418h88q98 0 142 30t73 113l47 133q51 142 199 142h39v-90h-39q-88 0 -119 -88l-43 -123q-44 -125 -121 -160q82 -14 203 -215l158 -262h-117l-160 266q-73 122 -122 148t-122 26h-106v-440h-90v938zM690 1363l-311 -319h-68l213 319h166z" />
    <glyph glyph-name="afii10110" unicode="&#x45e;" horiz-adv-x="854" 
d="M866 920l-688 -1391h-100l321 649l-387 742h103l334 -644l317 644h100zM646 1325h80q-89 -233 -277 -233q-179 0 -283 233h84q66 -137 197 -137q127 0 199 137z" />
    <glyph glyph-name="afii10193" unicode="&#x45f;" horiz-adv-x="1020" 
d="M559 0v-190h-98v190h-334v919h98v-839h569v839h99v-919h-334z" />
    <glyph glyph-name="afii10050" unicode="&#x490;" horiz-adv-x="932" 
d="M823 1509h99v-203h-652v-1306h-108v1396h661v113z" />
    <glyph glyph-name="afii10098" unicode="&#x491;" horiz-adv-x="731" 
d="M618 1001h99v-172h-476v-829h-98v919h475v82z" />
    <glyph glyph-name="Wgrave" unicode="&#x1e80;" horiz-adv-x="2112" 
d="M1057 1165l-469 -1179h-29l-561 1411h111l462 -1159l469 1159h33l467 -1159l463 1159h111l-562 -1411h-26zM782 1787h166l213 -319h-68z" />
    <glyph glyph-name="wgrave" unicode="&#x1e81;" 
d="M1450 920l-397 -938h-47l-283 747l-285 -747h-45l-393 938h96l314 -750l288 750h54l280 -750l320 750h98zM380 1386h166l213 -319h-68z" />
    <glyph glyph-name="Wacute" unicode="&#x1e82;" horiz-adv-x="2112" 
d="M1057 1165l-469 -1179h-29l-561 1411h111l462 -1159l469 1159h33l467 -1159l463 1159h111l-562 -1411h-26zM1331 1787l-311 -319h-68l213 319h166z" />
    <glyph glyph-name="wacute" unicode="&#x1e83;" 
d="M1450 920l-397 -938h-47l-283 747l-285 -747h-45l-393 938h96l314 -750l288 750h54l280 -750l320 750h98zM1070 1386l-311 -319h-68l213 319h166z" />
    <glyph glyph-name="Wdieresis" unicode="&#x1e84;" horiz-adv-x="2112" 
d="M1057 1165l-469 -1179h-29l-561 1411h111l462 -1159l469 1159h33l467 -1159l463 1159h111l-562 -1411h-26zM1136 1580q0 37 27 64t63 27q37 0 63.5 -27t26.5 -64q0 -36 -26.5 -63t-63.5 -27q-36 0 -63 27t-27 63zM774 1580q0 37 26.5 64t63.5 27q36 0 63 -27t27 -64
q0 -36 -27 -63t-63 -27q-37 0 -63.5 27t-26.5 63z" />
    <glyph glyph-name="wdieresis" unicode="&#x1e85;" 
d="M1450 920l-397 -938h-47l-283 747l-285 -747h-45l-393 938h96l314 -750l288 750h54l280 -750l320 750h98zM814 1212q0 37 27 64t63 27q37 0 63.5 -27t26.5 -64q0 -36 -26.5 -63t-63.5 -27q-36 0 -63 27t-27 63zM452 1212q0 37 26.5 64t63.5 27q36 0 63 -27t27 -64
q0 -36 -27 -63t-63 -27q-37 0 -63.5 27t-26.5 63z" />
    <glyph glyph-name="Ygrave" unicode="&#x1ef2;" horiz-adv-x="1195" 
d="M1194 1397l-543 -647v-750h-108v750l-543 647h131l467 -553l465 553h131zM321 1787h166l213 -319h-68z" />
    <glyph glyph-name="ygrave" unicode="&#x1ef3;" horiz-adv-x="853" 
d="M866 920l-688 -1391h-100l321 649l-387 742h103l334 -644l317 644h100zM97 1386h166l213 -319h-68z" />
    <glyph glyph-name="afii00208" unicode="&#x2015;" horiz-adv-x="1536" 
d="M1449 544v-64h-1362v64h1362z" />
    <glyph glyph-name="underscoredbl" unicode="&#x2017;" horiz-adv-x="1024" 
d="M-12 -154h1048v-102h-1048v102zM-12 -333h1048v-103h-1048v103z" />
    <glyph glyph-name="quotereversed" unicode="&#x201b;" horiz-adv-x="363" 
d="M115 1397h133v-196h-42q0 -101 42 -168v-70q-133 95 -133 315v119z" />
    <glyph glyph-name="minute" unicode="&#x2032;" horiz-adv-x="448" 
d="M205 1416h148l-64 -240l-97 -267h-91z" />
    <glyph glyph-name="second" unicode="&#x2033;" horiz-adv-x="576" 
d="M205 1416h148l-64 -240l-97 -267h-91zM470 1416h148l-64 -240l-97 -267h-91z" />
    <glyph glyph-name="exclamdbl" unicode="&#x203c;" horiz-adv-x="789" 
d="M243 1397l-18 -666l-21 -337h-57l-35 1003h131zM677 1397l-18 -666l-20 -337h-57l-36 1003h131zM243 197v-197h-131v197h131zM677 197v-197h-131v197h131z" />
    <glyph glyph-name="radicalex" unicode="&#x203e;" horiz-adv-x="1024" 
d="M-42 1869h1109v-74h-1109v74z" />
    <glyph glyph-name="fraction1" unicode="&#x2044;" horiz-adv-x="277" 
d="M717 1416l-1077 -1471h-80l1078 1471h79z" />
    <glyph glyph-name="nsuperior" unicode="&#x207f;" horiz-adv-x="640" 
d="M154 1115v-70q71 81 189 81q75 0 131.5 -36t77 -91.5t20.5 -158.5v-280h-88v284q0 134 -49.5 174t-104.5 40q-101 0 -176 -112v-386h-86v555h86z" />
    <glyph glyph-name="franc" unicode="&#x20a3;" horiz-adv-x="896" 
d="M268 464h358v-86h-358v-378h-107v378h-132v86h132v933h717v-91h-610v-530h551v-90h-551v-222z" />
    <glyph glyph-name="afii08941" unicode="&#x20a4;" horiz-adv-x="1130" 
d="M498 733l-31 -112h217v-86h-241l-117 -427q136 15 216 15q85 0 204 -21q103 -18 154 -18q108 0 202 52v-109q-85 -45 -195 -45q-50 0 -178 21q-130 21 -213 21q-141 0 -323 -34l150 545h-174v86h198l30 112h-180v86h204q180 597 519 597q52 0 99 -19l50 -97
q-61 21 -116 21q-293 0 -451 -502h211v-86h-235z" />
    <glyph glyph-name="peseta" unicode="&#x20a7;" horiz-adv-x="2057" 
d="M156 1397h284q171 0 248.5 -11.5t153 -60t114.5 -125.5t39 -172q0 -98 -43 -178.5t-110.5 -123t-149 -57.5t-238.5 -15h-191v-654h-107v1397zM263 1308v-565h197q266 0 340 84.5t74 197.5q0 94 -47.5 162.5t-130 94.5t-253.5 26h-180zM1197 995v-244h207v-84h-207v-441
q0 -66 5.5 -88.5t28.5 -40t68 -17.5q54 0 143 39v-97q-85 -40 -163 -40q-64 0 -110.5 33.5t-58 75t-11.5 135.5v441h-155v84h155v170l60 74h38zM1970 699v-107q-123 82 -212 82q-67 0 -108 -35.5t-41 -79.5q0 -31 27.5 -64t152.5 -78q127 -46 164.5 -102.5t37.5 -117.5
q0 -89 -69.5 -152t-179.5 -63q-115 0 -230 70v100q136 -78 239 -78q65 0 103.5 33t38.5 80q0 85 -143 139q-97 36 -136.5 59t-68.5 69.5t-29 99.5q0 87 73 149.5t174 62.5q98 0 207 -67z" />
    <glyph glyph-name="afii61248" unicode="&#x2105;" horiz-adv-x="1429" 
d="M562 788q-102 -45 -186 -45q-144 0 -240.5 99t-96.5 241q0 132 94.5 232.5t242.5 100.5q81 0 172 -39v-105q-87 55 -171 55q-111 0 -180.5 -74t-69.5 -174q0 -101 70 -174t176 -73q87 0 189 55v-99zM1322 1416l-1125 -1434h-102l1127 1434h100zM1391 318
q0 -139 -97 -237.5t-232 -98.5t-232 98.5t-97 237.5t96.5 237.5t232.5 98.5t232.5 -98t96.5 -238zM1303 317q0 103 -71 176t-170 73q-100 0 -171 -73t-71 -176t71 -176t171 -73q99 0 170 73t71 176z" />
    <glyph glyph-name="afii61289" unicode="&#x2113;" horiz-adv-x="735" 
d="M41 423l177 235v455q0 241 68 310t166 69q102 0 161 -69.5t59 -165.5q0 -198 -285 -590v-419q0 -91 14 -111.5t43 -20.5q51 0 198 107v-161q-106 -88 -224 -88q-94 0 -147 57.5t-53 183.5v228l-79 -98zM387 900q91 156 118 224.5t27 128.5q0 57 -22 88.5t-53 31.5
q-49 0 -59.5 -64.5t-10.5 -181.5v-227z" />
    <glyph glyph-name="afii61352" unicode="&#x2116;" horiz-adv-x="2279" 
d="M1202 176v1048q0 197 203 197h119v-94h-113q-54 0 -77 -22t-23 -89v-1216h-90l-951 1204v-1204h-108v1396h90zM2218 692q0 -141 -101 -242.5t-243 -101.5q-141 0 -241.5 101t-100.5 243t100.5 242t241.5 100q142 0 243 -100t101 -242zM1630 690q0 -101 71.5 -172.5
t172.5 -71.5q102 0 174 71.5t72 172.5t-72.5 173.5t-173.5 72.5t-172 -72t-72 -174zM1503 233h750v-108h-750v108z" />
    <glyph glyph-name="estimated" unicode="&#x212e;" horiz-adv-x="1229" 
d="M321 531v-371q120 -121 298 -121q254 0 395 246l72 -43q-118 -170 -231.5 -223t-235.5 -53q-232 0 -380.5 158.5t-148.5 406.5q0 252 149.5 408.5t379.5 156.5q214 0 366 -142t163 -423h-827zM917 605v297q-124 121 -300 121q-175 0 -296 -122v-296h596z" />
    <glyph glyph-name="oneeighth" unicode="&#x215b;" horiz-adv-x="1579" 
d="M1355 1416l-1077 -1471h-80l1078 1471h79zM377 1406v-727h-86v727h86zM1375 379q117 -64 117 -179q0 -86 -70 -148t-175 -62q-104 0 -176.5 61t-72.5 145q0 118 119 183q-102 62 -102 161q0 75 66 135.5t163 60.5q95 0 163.5 -58t68.5 -138q0 -101 -101 -161zM1247 408
q63 0 104 38.5t41 94.5t-44 93t-105 37q-62 0 -103.5 -39t-41.5 -95q0 -55 44 -92t105 -37zM1249 57q69 0 113 41.5t44 106.5q0 63 -50.5 100.5t-111.5 37.5q-67 0 -113.5 -42t-46.5 -103q0 -60 49 -100.5t116 -40.5z" />
    <glyph glyph-name="threeeighths" unicode="&#x215c;" horiz-adv-x="1579" 
d="M80 1365q76 51 187 51q119 0 187.5 -55.5t68.5 -131.5q0 -115 -138 -164q148 -47 148 -184q0 -97 -77.5 -154t-179.5 -57q-110 0 -203 39v66q92 -44 195 -44q84 0 132.5 40.5t48.5 107.5q0 151 -214 151v63q89 0 147 35t58 97q0 58 -52 93.5t-125 35.5q-91 0 -183 -59v70
zM1350 1416l-1078 -1471h-80l1078 1471h80zM1375 379q117 -64 117 -179q0 -86 -70 -148t-175 -62q-104 0 -176.5 61t-72.5 145q0 118 120 183q-103 62 -103 161q0 75 66 135.5t163 60.5q95 0 163.5 -58t68.5 -138q0 -101 -101 -161zM1247 408q63 0 104 38.5t41 94.5t-44 93
t-105 37q-62 0 -103.5 -39t-41.5 -95q0 -55 44 -92t105 -37zM1249 57q69 0 113 41.5t44 106.5q0 63 -50.5 100.5t-111.5 37.5q-67 0 -113.5 -42t-46.5 -103q0 -60 49.5 -100.5t115.5 -40.5z" />
    <glyph glyph-name="fiveeighths" unicode="&#x215d;" horiz-adv-x="1536" 
d="M1328 1416l-1078 -1471h-79l1077 1471h80zM488 1406v-61h-290v-213q38 3 57 3q129 0 205.5 -63.5t76.5 -164.5q0 -99 -79 -168t-200 -69q-104 0 -210 51v78q123 -66 211 -66q80 0 135 46.5t55 123.5q0 83 -57.5 127.5t-144.5 44.5q-51 0 -130 -17v348h371zM1353 379
q118 -64 118 -179q0 -86 -70.5 -148t-175.5 -62q-103 0 -175.5 61t-72.5 145q0 118 119 183q-103 62 -103 161q0 75 66.5 135.5t162.5 60.5q99 0 165.5 -59t66.5 -137q0 -101 -101 -161zM1225 408q63 0 104 38.5t41 94.5t-43.5 93t-105.5 37q-61 0 -103 -39t-42 -95
q0 -57 44.5 -93t104.5 -36zM1228 57q68 0 112.5 41.5t44.5 106.5q0 60 -49 99t-114 39q-67 0 -113 -42t-46 -103q0 -60 49 -100.5t116 -40.5z" />
    <glyph glyph-name="seveneighths" unicode="&#x215e;" horiz-adv-x="1536" 
d="M551 1416l-385 -746l-74 28l339 650h-446v68h566zM1324 1416l-1078 -1471h-80l1078 1471h80zM1355 379q118 -64 118 -179q0 -86 -70.5 -148t-175.5 -62q-103 0 -176 61t-73 145q0 118 120 183q-103 62 -103 161q0 75 66.5 135.5t162.5 60.5t164 -58t68 -138
q0 -101 -101 -161zM1227 408q63 0 104 38.5t41 94.5t-44 93t-105 37q-62 0 -103.5 -39t-41.5 -95q0 -55 44 -92t105 -37zM1229 57q69 0 113.5 41.5t44.5 106.5q0 63 -50.5 100.5t-112.5 37.5q-67 0 -113 -42t-46 -103q0 -60 49 -100.5t115 -40.5z" />
    <glyph glyph-name="arrowleft" unicode="&#x2190;" horiz-adv-x="2048" 
d="M492 157q-121 135 -209 205.5t-204 131.5v46q116 61 203 130.5t210 205.5h76q-46 -96 -77.5 -147.5t-88.5 -124.5h1566v-175h-1566q55 -69 88 -122.5t78 -149.5h-76z" />
    <glyph glyph-name="arrowup" unicode="&#x2191;" horiz-adv-x="1024" 
d="M153 926q135 122 205.5 209.5t131.5 203.5h45q61 -116 130.5 -202.5t206.5 -210.5v-76q-97 46 -148.5 78t-123.5 88v-1445h-175v1445q-69 -54 -122.5 -87t-149.5 -79v76z" />
    <glyph glyph-name="arrowright" unicode="&#x2192;" horiz-adv-x="2048" 
d="M1555 876q122 -135 209.5 -205t203.5 -132v-45q-116 -61 -202.5 -130.5t-210.5 -206.5h-76q46 97 78 148.5t88 123.5h-1566v175h1566q-54 69 -87 122.5t-79 149.5h76z" />
    <glyph glyph-name="arrowdown" unicode="&#x2193;" horiz-adv-x="1024" 
d="M871 -16q-135 -122 -205.5 -209.5t-131.5 -203.5h-45q-61 116 -131 202.5t-206 210.5v76q97 -46 148.5 -78t123.5 -88v1445h175v-1445q69 54 122.5 87t149.5 79v-76z" />
    <glyph glyph-name="arrowboth" unicode="&#x2194;" horiz-adv-x="2048" 
d="M402 604h1243q-54 68 -87 122t-79 150h76q122 -135 209.5 -205t203.5 -132v-45q-116 -61 -202.5 -130.5t-210.5 -206.5h-76q46 97 77.5 148t88.5 124h-1243q55 -69 88 -122.5t78 -149.5h-76q-121 135 -209 205.5t-204 131.5v46q116 61 203 130.5t210 205.5h76
q-46 -96 -77.5 -147.5t-88.5 -124.5z" />
    <glyph glyph-name="arrowupdn" unicode="&#x2195;" horiz-adv-x="1024" 
d="M600 1139v-1243q68 54 122 87.5t150 79.5v-77q-135 -121 -205.5 -208.5t-131.5 -204.5h-45q-61 116 -131 203t-206 210v77q96 -47 147.5 -78t124.5 -89v1243q-69 -54 -122.5 -87t-149.5 -79v76q135 122 205.5 209.5t131.5 204.5h45q61 -117 130.5 -203.5t206.5 -210.5
v-76q-97 46 -148.5 78t-123.5 88z" />
    <glyph glyph-name="arrowupdnbse" unicode="&#x21a8;" horiz-adv-x="1024" 
d="M599 1139v-1243q68 54 122 87.5t150 79.5v-77q-135 -121 -205.5 -208.5t-131.5 -204.5h-45q-61 116 -131 203t-206 210v77q96 -47 147.5 -78t124.5 -89v1243q-69 -54 -122.5 -87t-149.5 -79v76q135 122 205.5 209.5t131.5 204.5h45q61 -117 130.5 -203.5t206.5 -210.5
v-76q-97 46 -148.5 78t-123.5 88zM152 -502h719v-175h-719v175z" />
    <glyph glyph-name="orthogonal" unicode="&#x221f;" horiz-adv-x="2048" 
d="M123 0v1782h135v-1647h1667v-135h-1802z" />
    <glyph glyph-name="intersection" unicode="&#x2229;" horiz-adv-x="1472" 
d="M293 0h-135v545q0 278 13.5 392t81 222.5t200 182.5t283.5 74q153 0 285 -74.5t197.5 -178t81 -218.5t15.5 -400v-545h-134v552q0 241 -12 345t-60.5 187.5t-152.5 142t-220 58.5t-220.5 -59.5t-151.5 -140.5t-59 -186t-12 -347v-552z" />
    <glyph glyph-name="equivalence" unicode="&#x2261;" horiz-adv-x="1344" 
d="M135 1182h1074v-89h-1074v89zM135 768h1074v-93h-1074v93zM135 351h1074v-93h-1074v93z" />
    <glyph glyph-name="house" unicode="&#x2302;" horiz-adv-x="1229" 
d="M153 0v634l461 519l462 -519v-634h-923zM234 81h761v519l-381 427l-380 -427v-519z" />
    <glyph glyph-name="revlogicalnot" unicode="&#x2310;" horiz-adv-x="1344" 
d="M1209 989v-90h-981v-491h-93v581h1074z" />
    <glyph glyph-name="integraltp" unicode="&#x2320;" horiz-adv-x="1237" 
d="M691 -515h-145v1811q0 219 89.5 330t202.5 111q67 0 102.5 -32.5t35.5 -76.5q0 -40 -25.5 -66t-62.5 -26q-30 0 -57 15q-18 10 -41.5 46.5t-46.5 36.5q-17 0 -31 -12q-10 -8 -14 -27q-7 -33 -7 -139v-1971z" />
    <glyph glyph-name="integralbt" unicode="&#x2321;" horiz-adv-x="1237" 
d="M546 1737h145v-1811q0 -219 -89.5 -330t-202.5 -111q-67 0 -102.5 32.5t-35.5 76.5q0 40 25.5 66t61.5 26q31 0 59 -16q18 -10 41 -46t46 -36q17 0 31 11q10 8 14 29q7 32 7 138v1971z" />
    <glyph glyph-name="SF100000" unicode="&#x2500;" 
d="M1473 534h-1496v175h1496v-175z" />
    <glyph glyph-name="SF110000" unicode="&#x2502;" 
d="M638 -621v2485h175v-2485h-175z" />
    <glyph glyph-name="SF010000" unicode="&#x250c;" 
d="M1474 709v-175h-661v-1155h-175v1330h836z" />
    <glyph glyph-name="SF030000" unicode="&#x2510;" 
d="M637 534h-660v175h835v-1330h-175v1155z" />
    <glyph glyph-name="SF020000" unicode="&#x2514;" 
d="M638 534v1330h175v-1155h661v-175h-836z" />
    <glyph glyph-name="SF040000" unicode="&#x2518;" 
d="M812 534h-835v175h660v1155h175v-1330z" />
    <glyph glyph-name="SF080000" unicode="&#x251c;" 
d="M638 -621v2485h175v-1155h661v-175h-661v-1155h-175z" />
    <glyph glyph-name="SF090000" unicode="&#x2524;" 
d="M637 -621v1155h-660v175h660v1155h175v-2485h-175z" />
    <glyph glyph-name="SF060000" unicode="&#x252c;" 
d="M637 534h-660v175h1496v-175h-661v-1155h-175v1155z" />
    <glyph glyph-name="SF070000" unicode="&#x2534;" 
d="M1473 534h-1496v175h660v1155h175v-1155h661v-175z" />
    <glyph glyph-name="SF050000" unicode="&#x253c;" 
d="M637 534h-660v175h660v1155h175v-1155h661v-175h-661v-1155h-175v1155z" />
    <glyph glyph-name="SF430000" unicode="&#x2550;" 
d="M1473 724h-1496v175h1496v-175zM1473 344h-1496v175h1496v-175z" />
    <glyph glyph-name="SF240000" unicode="&#x2551;" 
d="M829 -621v2485h175v-2485h-175zM448 -621v2485h175v-2485h-175z" />
    <glyph glyph-name="SF510000" unicode="&#x2552;" 
d="M638 -621v1520h836v-175h-661v-205h661v-175h-661v-965h-175z" />
    <glyph glyph-name="SF520000" unicode="&#x2553;" 
d="M448 -621v1330h1027v-175h-471v-1155h-175v1155h-206v-1155h-175z" />
    <glyph glyph-name="SF390000" unicode="&#x2554;" 
d="M623 -621h-175v1520h1026v-175h-851v-1345zM1004 344v-965h-175v1140h645v-175h-470z" />
    <glyph glyph-name="SF220000" unicode="&#x2555;" 
d="M637 344h-660v175h660v205h-660v175h835v-1520h-175v965z" />
    <glyph glyph-name="SF210000" unicode="&#x2556;" 
d="M448 -621v1155h-471v175h1026v-1330h-175v1155h-206v-1155h-174z" />
    <glyph glyph-name="SF250000" unicode="&#x2557;" 
d="M828 -621v1345h-851v175h1026v-1520h-175zM447 344h-470v175h645v-1140h-175v965z" />
    <glyph glyph-name="SF500000" unicode="&#x2558;" 
d="M638 344v1520h175v-965h661v-175h-661v-205h661v-175h-836z" />
    <glyph glyph-name="SF490000" unicode="&#x2559;" 
d="M1475 534h-1027v1330h175v-1155h206v1155h175v-1155h471v-175z" />
    <glyph glyph-name="SF380000" unicode="&#x255a;" 
d="M623 1864v-1345h850v-175h-1025v1520h175zM1004 899h470v-175h-645v1140h175v-965z" />
    <glyph glyph-name="SF280000" unicode="&#x255b;" 
d="M812 344h-835v175h660v205h-660v175h660v965h175v-1520z" />
    <glyph glyph-name="SF270000" unicode="&#x255c;" 
d="M1003 534h-1026v175h470v1155h175v-1155h206v1155h175v-1330z" />
    <glyph glyph-name="SF260000" unicode="&#x255d;" 
d="M828 1864h175v-1520h-1026v175h851v1345zM447 899v965h175v-1140h-645v175h470z" />
    <glyph glyph-name="SF360000" unicode="&#x255e;" 
d="M638 -621v2485h175v-965h661v-175h-661v-205h661v-175h-661v-965h-175z" />
    <glyph glyph-name="SF370000" unicode="&#x255f;" 
d="M829 -621v2485h175v-1155h470v-175h-470v-1155h-175zM448 -621v2485h175v-2485h-175z" />
    <glyph glyph-name="SF420000" unicode="&#x2560;" 
d="M448 -621v2485h175v-2485h-175zM829 724v1140h175v-965h470v-175h-645zM829 -621v1140h645v-175h-470v-965h-175z" />
    <glyph glyph-name="SF190000" unicode="&#x2561;" 
d="M637 344h-660v175h660v205h-660v175h660v965h175v-2485h-175v965z" />
    <glyph glyph-name="SF200000" unicode="&#x2562;" 
d="M447 -621l1 1155h-471v175h470v1155h175v-2485h-175zM828 -621v2485h175v-2485h-175z" />
    <glyph glyph-name="SF230000" unicode="&#x2563;" 
d="M828 -621v2485h175v-2485h-175zM622 1864v-1140h-645v175h470v965h175zM447 344h-470v175h645v-1140h-175v965z" />
    <glyph glyph-name="SF470000" unicode="&#x2564;" 
d="M1473 724h-1496v175h1496v-175zM637 344h-660v175h1496v-175h-661v-965h-175v965z" />
    <glyph glyph-name="SF480000" unicode="&#x2565;" 
d="M447 -621v1155h-470v175h1496v-175h-470v-1155h-175v1155h-206v-1155h-175z" />
    <glyph glyph-name="SF410000" unicode="&#x2566;" 
d="M1473 724h-1496v175h1496v-175zM447 344h-470v175h645v-1140h-175v965zM828 -621v1140h645v-175h-470v-965h-175z" />
    <glyph glyph-name="SF450000" unicode="&#x2567;" 
d="M1473 724h-1496v175h660v965h175v-965h661v-175zM1473 344h-1496v175h1496v-175z" />
    <glyph glyph-name="SF460000" unicode="&#x2568;" 
d="M1473 534h-1496v175h470v1155h175v-1155h206v1155h175v-1155h470v-175z" />
    <glyph glyph-name="SF400000" unicode="&#x2569;" 
d="M622 724h-645v175h470v965h175v-1140zM1473 724h-645v1140h175v-965h470v-175zM1473 344h-1496v175h1496v-175z" />
    <glyph glyph-name="SF540000" unicode="&#x256a;" 
d="M637 344h-660v175h660v205h-660v175h660v965h175v-965h661v-175h-661v-205h661v-175h-661v-965h-175v965z" />
    <glyph glyph-name="SF530000" unicode="&#x256b;" 
d="M447 -621v1155h-470v175h470v1155h175v-1155h206v1155h175v-1155h470v-175h-470v-1155h-175v1155h-206v-1155h-175z" />
    <glyph glyph-name="SF440000" unicode="&#x256c;" 
d="M1003 899h470v-175h-645v1140h175v-965zM447 899v965h175v-1140h-645v175h470zM447 344h-470v175h645v-1140h-175v965zM1003 344v-965h-175v1140h645v-175h-470z" />
    <glyph glyph-name="upblock" unicode="&#x2580;" 
d="M1473 621h-1496v1243h1496v-1243z" />
    <glyph glyph-name="dnblock" unicode="&#x2584;" 
d="M1473 -621h-1496v1242h1496v-1242z" />
    <glyph glyph-name="block" unicode="&#x2588;" 
d="M-23 -621v2485h1496v-2485h-1496z" />
    <glyph glyph-name="lfblock" unicode="&#x258c;" 
d="M-23 -621v2485h748v-2485h-748z" />
    <glyph glyph-name="rtblock" unicode="&#x2590;" 
d="M726 -621v2485h748v-2485h-748z" />
    <glyph glyph-name="ltshade" unicode="&#x2591;" 
d="M0 1864h121v-125h-121v125zM482 1864h121v-125h-121v125zM965 1864h121v-125h-121v125zM241 1615h121v-125h-121v125zM723 1615h121v-125h-121v125zM1206 1615h121v-125h-121v125zM965 1366h121v-125h-121v125zM482 1366h121v-125h-121v125zM0 1366h121v-125h-121v125z
M1206 1117h121v-125h-121v125zM723 1117h121v-125h-121v125zM241 1117h121v-125h-121v125zM0 867h121v-125h-121v125zM482 867h121v-125h-121v125zM965 867h121v-125h-121v125zM1206 618h121v-125h-121v125zM723 618h121v-125h-121v125zM241 618h121v-125h-121v125zM0 369
h121v-125h-121v125zM482 369h121v-125h-121v125zM965 369h121v-125h-121v125zM241 120h121v-125h-121v125zM723 120h121v-125h-121v125zM1206 120h121v-125h-121v125zM965 -130h121v-125h-121v125zM482 -130h121v-125h-121v125zM0 -130h121v-125h-121v125zM241 -379h121
v-125h-121v125zM723 -379h121v-125h-121v125zM1206 -379h121v-125h-121v125z" />
    <glyph glyph-name="shade" unicode="&#x2592;" 
d="M121 1864h120v-125h-120v125zM362 1864h120v-125h-120v125zM603 1864h121v-125h-121v125zM844 1864h121v-125h-121v125zM1086 1864h120v-125h-120v125zM1327 1864h120v-125h-120v125zM0 1615h121v-125h-121v125zM241 1615h121v-125h-121v125zM482 1615h121v-125h-121v125
zM724 1615h120v-125h-120v125zM965 1615h121v-125h-121v125zM1206 1615h121v-125h-121v125zM121 1366h120v-125h-120v125zM362 1366h120v-125h-120v125zM603 1366h121v-125h-121v125zM844 1366h121v-125h-121v125zM1086 1366h120v-125h-120v125zM1327 1366h120v-125h-120
v125zM241 1116h121v-124h-121v124zM482 1116h121v-124h-121v124zM724 1116h120v-124h-120v124zM965 1116h121v-124h-121v124zM1206 1116h121v-124h-121v124zM0 1116h121v-124h-121v124zM121 867h120v-125h-120v125zM362 867h120v-125h-120v125zM603 867h121v-125h-121v125z
M844 867h121v-125h-121v125zM1086 867h120v-125h-120v125zM1327 867h120v-125h-120v125zM0 618h121v-125h-121v125zM482 618h121v-125h-121v125zM724 618h120v-125h-120v125zM965 618h121v-125h-121v125zM1206 618h121v-125h-121v125zM241 618h121v-125h-121v125zM1327 369
h120v-125h-120v125zM1086 369h120v-125h-120v125zM844 369h121v-125h-121v125zM603 369h121v-125h-121v125zM362 369h120v-125h-120v125zM121 369h120v-125h-120v125zM0 119h121v-124h-121v124zM241 119h121v-124h-121v124zM482 119h121v-124h-121v124zM724 119h120v-124
h-120v124zM965 119h121v-124h-121v124zM1206 119h121v-124h-121v124zM1327 -130h120v-125h-120v125zM1086 -130h120v-125h-120v125zM844 -130h121v-125h-121v125zM603 -130h121v-125h-121v125zM362 -130h120v-125h-120v125zM121 -130h120v-125h-120v125zM0 -379h121v-125
h-121v125zM241 -379h121v-125h-121v125zM482 -379h121v-125h-121v125zM724 -379h120v-125h-120v125zM965 -380l121 1v-125h-121v124zM1206 -379h121v-125h-121v125z" />
    <glyph glyph-name="dkshade" unicode="&#x2593;" 
d="M1447 1490v-374h-120v-124h120v-374h-120v-125h120v-374h-120v-124h120v-374h-120v-125h120v-124h-1447v373h121v125h-121v374h121v125h-121v373h121v125h-121v374h121v125h-121v373h121v125h120v-125h121v125h120v-125h121v125h121v-125h120v125h121v-125h121v125h120
v-125h121v125h120v-249h-120v-125h120zM121 1615v-125h120v125h-120zM362 1615v-125h120v125h-120zM603 1615v-125h121v125h-121zM844 1615v-125h121v125h-121zM1086 1615v-125h120v125h-120zM1327 1366h-121v-125h121v125zM1086 1366h-121v-125h121v125zM844 1366h-120
v-125h120v125zM603 1366h-121v-125h121v125zM362 1366h-121v-125h121v125zM121 1116v-124h120v124h-120zM362 1116v-124h120v124h-120zM603 1116v-124h121v124h-121zM844 1116v-124h121v124h-121zM1086 1116v-124h120v124h-120zM362 867h-121v-125h121v125zM482 867v-125
h121v125h-121zM724 867v-125h120v125h-120zM965 867v-125h121v125h-121zM1206 867v-125h121v125h-121zM121 618v-125h120v125h-120zM603 618v-125h121v125h-121zM482 493v125h-120v-125h120zM844 618v-125h121v125h-121zM1086 618v-125h120v125h-120zM1327 244v125h-121
v-125h121zM1086 244v125h-121v-125h121zM844 244v125h-120v-125h120zM603 244v125h-121v-125h121zM362 244v125h-121v-125h121zM121 119v-124h120v124h-120zM362 119v-124h120v124h-120zM603 119v-124h121v124h-121zM844 119v-124h121v124h-121zM1086 119v-124h120v124h-120
zM1327 -255v125h-121v-125h121zM1086 -255v125h-121v-125h121zM844 -255v125h-120v-125h120zM603 -255v125h-121v-125h121zM362 -255v125h-121v-125h121zM121 -379v-125h120v125h-120zM362 -379v-125h120v125h-120zM603 -379v-125h121v125h-121zM844 -379v-125h121v125h-121
zM1086 -379v-125h120v125h-120z" />
    <glyph glyph-name="filledbox" unicode="&#x25a0;" horiz-adv-x="1237" 
d="M146 944h944v-944h-944v944z" />
    <glyph glyph-name="H22073" unicode="&#x25a1;" horiz-adv-x="1237" 
d="M146 944h944v-944h-944v944zM222 868v-792h792v792h-792z" />
    <glyph glyph-name="H18543" unicode="&#x25aa;" horiz-adv-x="726" 
d="M594 909v-464h-463v463z" />
    <glyph glyph-name="H18551" unicode="&#x25ab;" horiz-adv-x="726" 
d="M594 909v-464h-463v463zM518 833l-311 -1v-311h311v312z" />
    <glyph glyph-name="filledrect" unicode="&#x25ac;" horiz-adv-x="2048" 
d="M340 386h1368v-386h-1368v386z" />
    <glyph glyph-name="triagup" unicode="&#x25b2;" horiz-adv-x="2027" 
d="M304 0l710 1419l710 -1419h-1420z" />
    <glyph glyph-name="triagrt" unicode="&#x25ba;" horiz-adv-x="2027" 
d="M288 1417l1451 -724l-1451 -724v1448z" />
    <glyph glyph-name="triagdn" unicode="&#x25bc;" horiz-adv-x="2027" 
d="M1724 1388l-710 -1419l-710 1419h1420z" />
    <glyph glyph-name="triaglf" unicode="&#x25c4;" horiz-adv-x="2027" 
d="M1739 1417v-1448l-1451 724z" />
    <glyph glyph-name="circle" unicode="&#x25cb;" horiz-adv-x="1237" 
d="M619 1018q110 0 216 -57t165 -163t59 -220q0 -183 -129 -312t-311 -129q-183 0 -312 129t-129 312q0 115 59 220.5t165 162.5t217 57zM619 942q-93 0 -180 -47t-136 -135t-49 -182q0 -151 107 -258t258 -107t257.5 107t106.5 258q0 94 -49 182t-136 135t-179 47z" />
    <glyph glyph-name="H18533" unicode="&#x25cf;" horiz-adv-x="1237" 
d="M619 1018q110 0 216 -57t165 -163t59 -220q0 -183 -129 -312t-311 -129q-183 0 -312 129t-129 312q0 115 59 220.5t165 162.5t217 57z" />
    <glyph glyph-name="invbullet" unicode="&#x25d8;" horiz-adv-x="1237" 
d="M128 0v980h980v-980h-980zM618 692q-84 0 -143 -59t-59 -143q0 -83 59.5 -142.5t142.5 -59.5q84 0 143 59.5t59 142.5q0 84 -59 143t-143 59z" />
    <glyph glyph-name="invcircle" unicode="&#x25d9;" horiz-adv-x="1237" 
d="M42 0v1155h1155v-1155h-1155zM619 1018q-111 0 -216.5 -57t-164.5 -163t-59 -221q0 -182 129 -311t311 -129q183 0 312 129t129 311q0 115 -59 221t-164.5 163t-217.5 57zM620 942q91 0 178.5 -47t136.5 -134.5t49 -183.5q0 -151 -106.5 -257.5t-257.5 -106.5
q-152 0 -258.5 106.5t-106.5 257.5q0 96 49 183.5t136.5 134.5t179.5 47z" />
    <glyph glyph-name="openbullet" unicode="&#x25e6;" horiz-adv-x="726" 
d="M363 928q104 0 177.5 -73.5t73.5 -177.5t-73.5 -177.5t-177.5 -73.5t-177.5 73.5t-73.5 177.5t73 177.5t178 73.5zM363 852q-73 0 -124 -51.5t-51 -123.5q0 -73 51.5 -124t123.5 -51t123.5 51t51.5 124q0 72 -51 123.5t-124 51.5z" />
    <glyph glyph-name="smileface" unicode="&#x263a;" horiz-adv-x="2048" 
d="M1024 1156q160 0 313 -82.5t239 -236t86 -319.5q0 -165 -84.5 -316.5t-236.5 -236t-317 -84.5q-166 0 -317.5 84.5t-236 236t-84.5 316.5q0 166 85.5 319.5t238.5 236t314 82.5zM1024 1063q-137 0 -267.5 -70.5t-204 -201.5t-73.5 -273q0 -141 72 -270.5t202 -201.5
t271 -72t271 72t202 201.5t72 270.5q0 142 -73.5 273t-204 201.5t-267.5 70.5zM779 731q34 0 57.5 -23.5t23.5 -57.5q0 -33 -23.5 -57t-57.5 -24q-33 0 -57 24t-24 57q0 34 24 57.5t57 23.5zM1268 731q34 0 57.5 -23.5t23.5 -57.5q0 -33 -23.5 -57t-57.5 -24q-33 0 -57 24
t-24 57q0 34 23.5 57.5t57.5 23.5zM730 313l62 36q79 -144 232 -144t231 144l63 -36q-50 -95 -123.5 -145t-170.5 -50q-98 0 -171 50t-123 145z" />
    <glyph glyph-name="invsmileface" unicode="&#x263b;" horiz-adv-x="2048" 
d="M1024 1156q160 0 313 -82.5t239 -236t86 -319.5q0 -165 -84.5 -316.5t-236.5 -236t-317 -84.5q-166 0 -317.5 84.5t-236 236t-84.5 316.5q0 166 85.5 319.5t238.5 236t314 82.5zM779 731q-33 0 -57 -23.5t-24 -57.5q0 -33 24 -57t57 -24q34 0 57.5 24t23.5 57
q0 34 -23.5 57.5t-57.5 23.5zM1268 731q-34 0 -57.5 -23.5t-23.5 -57.5q0 -33 24 -57t57 -24q34 0 57.5 24t23.5 57q0 34 -23.5 57.5t-57.5 23.5zM730 313q50 -95 123 -145t171 -50q97 0 170.5 50t123.5 145l-63 36q-78 -144 -231 -144t-232 144z" />
    <glyph glyph-name="sun" unicode="&#x263c;" horiz-adv-x="1877" 
d="M902 1621h76v-337q102 -7 181.5 -38.5t167.5 -102.5l290 284l52 -53l-286 -286q73 -95 103 -169q38 -96 41 -185h335v-69h-335q-19 -193 -143 -351l285 -291l-57 -50l-283 282q-98 -72 -171 -100.5t-180 -40.5v-337h-76v337q-112 15 -188.5 46t-156.5 92l-294 -278
l-51 51l285 286q-66 84 -100 166t-45 188h-336v69h336q9 106 42 185.5t102 163.5l-284 287l48 57l292 -282q101 70 179.5 100.5t170.5 38.5v337zM937 1211q-129 0 -252 -66t-191.5 -189.5t-68.5 -256.5t67.5 -255t189.5 -190t255 -68t255 68t190 190t68 255t-69 256.5
t-192 189.5t-252 66z" />
    <glyph glyph-name="female" unicode="&#x2640;" horiz-adv-x="1536" 
d="M796 461v-402h459v-59h-459v-439h-59v439h-460v59h460v402q-103 0 -225.5 65.5t-195 191t-72.5 265.5q0 136 69.5 261t193.5 194t261 69q136 0 260.5 -69.5t193.5 -194t69 -260.5q0 -209 -143.5 -360.5t-351.5 -161.5zM767 1451q-118 0 -230.5 -60.5t-175.5 -173.5
t-63 -235q0 -195 137.5 -332.5t331.5 -137.5q195 0 332.5 137.5t137.5 332.5q0 122 -63 235t-175.5 173.5t-231.5 60.5z" />
    <glyph glyph-name="male" unicode="&#x2642;" horiz-adv-x="1536" 
d="M1216 1620l36 -16l163 -666l-57 -15l-142 581l-358 -768q148 -75 224 -202t76 -272q0 -136 -69 -260.5t-193.5 -194t-261.5 -69.5q-136 0 -260.5 69.5t-193.5 194t-69 260.5q0 217 153.5 370t372.5 153q78 0 166 -27l360 771l-537 -265l-24 53zM634 731
q-118 0 -230.5 -60.5t-175.5 -173.5t-63 -235q0 -195 137.5 -332.5t331.5 -137.5q195 0 332.5 137.5t137.5 332.5q0 122 -63 235t-175.5 173.5t-231.5 60.5z" />
    <glyph glyph-name="spade" unicode="&#x2660;" horiz-adv-x="1344" 
d="M673 1231q26 -108 80 -193t192.5 -210.5t175.5 -193t37 -136.5q0 -95 -64 -159t-154 -64q-82 0 -154 57q-54 42 -101 133q1 -147 38.5 -233.5t119.5 -136t219 -58.5l7 -37h-792l7 37q184 0 285.5 107.5t97.5 320.5q-45 -95 -111.5 -142.5t-149.5 -47.5q-90 0 -155 65
t-65 154q0 74 32 133q45 83 146.5 166t149.5 137q74 83 107.5 148t51.5 153z" />
    <glyph glyph-name="club" unicode="&#x2663;" horiz-adv-x="1344" 
d="M1098 0h-848l8 34q165 35 219 69q81 51 132.5 151t51.5 210q0 16 -1 47q-61 -124 -148.5 -181t-178.5 -57q-116 0 -197 81t-81 199q0 116 74 195.5t165 81.5q63 -2 166 -53q-42 69 -54.5 105t-12.5 77q0 115 79 193.5t198 78.5q117 0 197.5 -78.5t80.5 -189.5
q0 -88 -69 -186q84 40 101 45q27 8 61 8q100 0 173.5 -78.5t73.5 -194.5q0 -120 -80.5 -201.5t-196.5 -82.5q-77 4 -134.5 33t-107.5 80q-35 37 -87 125q4 -159 48.5 -251.5t136.5 -153.5q62 -41 223 -72z" />
    <glyph glyph-name="heart" unicode="&#x2665;" horiz-adv-x="1344" 
d="M674 -24q-31 118 -88.5 221.5t-222.5 321.5q-121 160 -149 203q-46 70 -66.5 128.5t-20.5 118.5q0 111 74 186t180 76q113 -1 194 -79q61 -58 99 -173q32 112 92 171q83 81 191 81q109 0 184.5 -74t75.5 -176q0 -91 -43.5 -188t-170.5 -257q-164 -207 -239 -340
q-59 -105 -90 -220z" />
    <glyph glyph-name="diamond" unicode="&#x2666;" horiz-adv-x="1344" 
d="M671 1234q88 -154 218 -327q150 -200 242 -303q-74 -78 -242 -302q-136 -182 -218 -326q-27 52 -74 121q-81 120 -201 279q-26 35 -183 228q101 115 260 328q118 158 198 302z" />
    <glyph glyph-name="musicalnote" unicode="&#x266a;" horiz-adv-x="1024" 
d="M486 1363h38q172 0 227 -14q79 -20 139 -77q45 -42 71 -118.5t26 -178.5v-103h-99v43q0 68 -28.5 115.5t-84.5 72.5q-73 32 -162 32h-28v-835q0 -121 -32 -188.5t-110 -108t-170 -40.5q-109 0 -172.5 61.5t-63.5 161.5q0 105 76 176.5t199 71.5q78 0 174 -46v975z" />
    <glyph glyph-name="musicalnotedbl" unicode="&#x266b;" horiz-adv-x="1536" 
d="M534 1271l796 248v-1108q0 -124 -31.5 -187t-107 -104t-170.5 -41q-109 0 -174 62.5t-65 161.5q0 100 77 172.5t199 72.5q40 0 70.5 -7t99.5 -36v724l-595 -185v-836q0 -121 -32 -188.5t-110 -107.5t-170 -40q-109 0 -172.5 61.5t-63.5 160.5q0 105 76 176.5t199 71.5
q78 0 174 -46v975z" />
    <glyph glyph-name="fi1" unicode="&#xf001;" horiz-adv-x="981" 
d="M481 920v-80h-190v-840h-98v840h-168v80h168v114q0 185 84.5 283t244.5 98q298 0 316 -258h-99q-17 176 -213 176q-123 0 -179 -71.5t-56 -227.5v-114h190zM838 920v-920h-99v920h99z" />
    <glyph glyph-name="fl1" unicode="&#xf002;" horiz-adv-x="981" 
d="M485 920v-80h-190v-840h-98v840h-170v80h170v159q0 158 87.5 247t221.5 89q69 0 137 -31v-96q-89 31 -145 31q-97 0 -150 -62.5t-53 -173.5v-163h190zM838 1397v-1397h-99v1397h99z" />
    <glyph glyph-name="commaaccent" unicode="&#xf004;" horiz-adv-x="683" 
d="M408 1397v-119q0 -220 -133 -315v70q42 67 42 168h-42v196h133z" />
    <glyph glyph-name="undercommaaccent" unicode="&#xf005;" horiz-adv-x="683" 
d="M217 -349l10 67q33 -6 63 -6q140 0 140 84q0 76 -130 76l10 57q17 2 32 2q72 0 119 -35.5t47 -95.5q0 -68 -53.5 -113t-150.5 -45q-40 0 -87 9z" />
    <glyph glyph-name="currency" unicode="&#xa4;" horiz-adv-x="1139" 
d="M291 1042q127 99 276 99q150 0 279 -99l129 129l65 -65l-129 -129q99 -124 99 -277q0 -152 -99 -278l129 -129l-65 -66l-129 129q-124 -98 -279 -98q-154 0 -276 98l-129 -129l-66 66l129 129q-98 129 -98 278q0 154 98 277l-129 129l66 65zM911 700q0 142 -100.5 242
t-243.5 100q-142 0 -242 -99.5t-100 -242.5q0 -142 100 -243t242 -101t243 101t101 243z" />
    <glyph glyph-name="uni0492" unicode="&#x492;" horiz-adv-x="922" 
d="M922 1307h-652v-535h312v-90h-312v-682h-108v682h-150v90h150v625h760v-90z" />
    <glyph glyph-name="uni0493" unicode="&#x493;" horiz-adv-x="715" 
d="M700 829h-475v-317h240v-88h-240v-424h-98v424h-107v88h107v408h573v-91z" />
    <glyph glyph-name="uni049A" unicode="&#x49a;" horiz-adv-x="1210" 
d="M1190 -242h-109v242h-61l-228 391q-64 108 -121.5 167.5t-112.5 85.5t-112 26h-176v-670h-108v1397h108v-637h138q108 0 171.5 45.5t112.5 149.5l131 282q38 81 87 120.5t147 39.5h49v-90h-51q-65 0 -92.5 -25t-59.5 -96l-90 -198q-59 -131 -106 -193.5t-95 -81.5
q52 -11 106 -53t163 -218l219 -352h90v-332z" />
    <glyph glyph-name="uni049B" unicode="&#x49b;" horiz-adv-x="911" 
d="M874 -190h-90v190h-57q-172 286 -203.5 334.5t-75.5 77t-124 28.5h-107v-440h-90v920h90v-400h88q89 0 130.5 24.5t59.5 61t72 191.5q24 70 74 105.5t125 35.5h39v-90h-39q-45 0 -74 -21.5t-44 -65.5l-44 -124q-43 -125 -121 -160q41 -7 90.5 -59t107.5 -148l116 -190h77
v-270z" />
    <glyph glyph-name="uni04A2" unicode="&#x4a2;" horiz-adv-x="1491" 
d="M1468 -242h-106v242h-160v662h-932v-662h-108v1397h108v-645h932v645h109v-1307h157v-332zM1473 0z" />
    <glyph glyph-name="uni04A3" unicode="&#x4a3;" horiz-adv-x="1053" 
d="M1016 -190h-90v190h-131v438h-570v-438h-98v920h98v-402h570v402h98v-840h123v-270zM1020 0z" />
    <glyph glyph-name="uni04AE" unicode="&#x4ae;" horiz-adv-x="1194" 
d="M1194 1397l-543 -647v-750h-108v750l-543 647h131l467 -553l465 553h131z" />
    <glyph glyph-name="uni04AF" unicode="&#x4af;" horiz-adv-x="874" 
d="M874 920l-387 -920v-471h-98v471l-389 920h100l336 -801l342 801h96z" />
    <glyph glyph-name="uni04B0" unicode="&#x4b0;" horiz-adv-x="1194" 
d="M1194 1397l-543 -647v-29h516v-90h-516v-631h-108v631h-516v90h516v29l-543 647h131l467 -553l465 553h131z" />
    <glyph glyph-name="uni04B1" unicode="&#x4b1;" horiz-adv-x="874" 
d="M874 920l-387 -920h357v-90h-357v-381h-98v381h-358v90h358l-389 920h100l336 -801l342 801h96z" />
    <glyph glyph-name="uni04BA" unicode="&#x4ba;" horiz-adv-x="1112" 
d="M1049 0h-109v473q0 207 -73 282.5t-285 75.5h-312v-831h-108v1397h108v-475h359q201 0 310.5 -97.5t109.5 -277.5v-547z" />
    <glyph glyph-name="uni04BB" unicode="&#x4bb;" horiz-adv-x="1004" 
d="M225 1397v-637h4q115 178 303 178q156 0 249 -100t93 -275v-563h-98v524q0 318 -250 318q-179 0 -301 -197v-645h-98v1397h98z" />
    <glyph glyph-name="uni04C0" unicode="&#x4c0;" horiz-adv-x="426" 
d="M268 1397v-1397h-108v1397h108z" />
    <glyph glyph-name="uni04D8" unicode="&#x4d8;" horiz-adv-x="1427" 
d="M102 1298q257 117 502 117q315 0 519 -204.5t204 -526.5q0 -295 -171 -498.5t-454 -203.5q-276 0 -445 196t-169 500v41h1120q-11 269 -180.5 432.5t-417.5 163.5q-251 0 -508 -135v118zM1206 629h-999q0 -213 138 -380t360 -167q205 0 341.5 150t159.5 397z" />
    <glyph glyph-name="afii10846" unicode="&#x4d9;" horiz-adv-x="981" 
d="M86 815q157 123 354 123q200 0 329.5 -138t129.5 -351q0 -201 -121 -334t-301 -133q-169 0 -288 119.5t-119 330.5h725q4 32 4 41q0 155 -110 262t-261 107q-177 0 -342 -137v110zM782 346h-596q26 -134 99 -201t192 -67q104 0 190 68t115 200z" />
    <glyph glyph-name="uni04E8" unicode="&#x4e8;" horiz-adv-x="1686" 
d="M842 1415q311 0 526 -209t215 -508q0 -300 -215.5 -508t-525.5 -208q-308 0 -523 209t-215 507t214.5 507.5t523.5 209.5zM1464 743q-16 240 -191 406t-427 166q-254 0 -432 -168t-191 -404h1241zM1464 653h-1241q13 -235 191 -403t432 -168q253 0 429.5 167.5
t188.5 403.5z" />
    <glyph glyph-name="uni04E9" unicode="&#x4e9;" horiz-adv-x="1110" 
d="M555 938q200 0 333.5 -137t133.5 -342q0 -203 -133.5 -340t-333.5 -137q-201 0 -335 137.5t-134 339.5q0 204 134 341.5t335 137.5zM915 506q-12 139 -113.5 237.5t-246.5 98.5q-147 0 -247.5 -96.5t-114.5 -239.5h722zM915 416h-722q12 -146 114 -242t248 -96
q145 0 246.5 96.5t113.5 241.5z" />
    <glyph glyph-name="uni10D0" unicode="&#x10d0;" horiz-adv-x="960" 
d="M227 504q-35 -65 -35 -138q0 -119 84.5 -203.5t203.5 -84.5q120 0 204 85t84 205q0 111 -92 214l-170 166q-92 96 -92 190h104q0 -62 92 -151q147 -141 170 -170q92 -117 92 -249q0 -159 -116 -272.5t-276 -113.5t-276 113t-116 271q0 98 47 184z" />
    <glyph glyph-name="uni10D1" unicode="&#x10d1;" horiz-adv-x="1110" 
d="M1022 459q0 -203 -132 -340t-335 -137t-336 137t-133 340q0 205 135 342q117 120 285 135v80q0 86 -54 128q-50 37 -100 73q-54 59 -54 186v12h98v-12q0 -98 54 -143q50 -35 100 -69q54 -55 54 -175v-80q168 -15 285 -135q133 -137 133 -342zM918 459q0 160 -102 271.5
t-261 111.5q-161 0 -263 -110.5t-102 -272.5q0 -161 102.5 -271t262.5 -110t263 111q100 109 100 270z" />
    <glyph glyph-name="uni10D2" unicode="&#x10d2;" horiz-adv-x="1110" 
d="M1022 6q0 -203 -132 -340t-335 -137t-336 137t-133 340q0 205 135 342q75 77 181 114q28 8 130 44q109 42 143 63q82 51 82 123t-64 117q-57 39 -133 39q-112 0 -252 -94v106q133 78 246 78q116 0 203 -67q94 -72 94 -185q0 -74 -46 -134q-32 -42 -116 -84
q113 -32 200 -120q133 -137 133 -342zM918 6q0 160 -102 271.5t-261 111.5q-161 0 -263 -110.5t-102 -272.5q0 -161 102.5 -271t262.5 -110t263 111q100 109 100 270z" />
    <glyph glyph-name="uni10D3" unicode="&#x10d3;" horiz-adv-x="1838" 
d="M1750 459q0 -203 -132 -340t-335 -137t-336 137t-133 340q0 119 45 215q-19 31 -45 58q-105 110 -259 110q-161 0 -263 -110.5t-102 -272.5q0 -192 123 -331q94 -106 282 -199q156 -71 312 -141q230 -112 230 -259h-104q0 34 -24 66q-40 54 -185 122q-80 28 -149 28
q-175 0 -238 -10q-82 -13 -209 -70l-39 88q187 83 365 87q-213 106 -322 229q-146 164 -146 390q0 204 133 341.5t336 137.5q225 0 363 -171q140 171 365 171q203 0 335 -137.5t132 -341.5zM1646 459q0 160 -102 271.5t-261 111.5q-161 0 -263 -110.5t-102 -272.5
q0 -161 102.5 -271t262.5 -110t263 111q100 109 100 270z" />
    <glyph glyph-name="uni10D4" unicode="&#x10d4;" horiz-adv-x="902" 
d="M772 -90q0 -381 -329 -381q-298 0 -316 258h99q17 -176 213 -176q235 0 235 299v647q0 299 -235 299q-196 0 -213 -176h-99q18 258 316 258q329 0 329 -381v-647z" />
    <glyph glyph-name="uni10D5" unicode="&#x10d5;" horiz-adv-x="902" 
d="M772 -90q0 -381 -329 -381q-298 0 -316 258h99q17 -176 213 -176q235 0 235 299v177q0 182 -305 182h-21v80h55q96 0 174 39q97 49 97 134v35q0 299 -235 299q-196 0 -213 -176h-99q18 258 316 258q329 0 329 -381v-13q0 -72 -59 -139q-55 -60 -129 -87q188 -65 188 -243
v-165z" />
    <glyph glyph-name="uni10D6" unicode="&#x10d6;" horiz-adv-x="1480" 
d="M1403 489q0 -230 -140.5 -368.5t-357.5 -138.5q-161 0 -253 105q-89 100 -89 263v523q-90 -86 -216 -86q-130 0 -222 92t-92 222t92 222t222 92q131 0 222.5 -92t91.5 -222v-313q147 150 332 150q188 0 302 -132q108 -126 108 -317zM556 1101q0 91 -59.5 154.5
t-149.5 63.5q-89 0 -149 -63.5t-60 -154.5t60 -154.5t149 -63.5q90 0 149.5 63.5t59.5 154.5zM1298 483q0 152 -80 257q-89 116 -237 116q-164 0 -320 -178v-326q0 -128 70 -201t168 -73q167 0 283 114.5t116 290.5z" />
    <glyph glyph-name="uni10D7" unicode="&#x10d7;" horiz-adv-x="1942" 
d="M1854 459q0 -171 -94 -303q-96 -135 -249 -174l-25 93q119 32 192 142q72 107 72 242q0 160 -102 271.5t-261 111.5q-161 0 -263 -110.5t-102 -272.5q0 -203 -132 -340t-335 -137t-336 137t-133 340q0 204 133 341.5t336 137.5q200 0 334 -137q50 -52 81 -113
q32 61 83 113q134 137 334 137q203 0 335 -137.5t132 -341.5zM918 459q0 160 -102 271.5t-261 111.5q-161 0 -263 -110.5t-102 -272.5q0 -161 102.5 -271t262.5 -110t263 111q100 109 100 270z" />
    <glyph glyph-name="uni10D8" unicode="&#x10d8;" horiz-adv-x="1110" 
d="M1022 459q0 -171 -94 -303q-96 -135 -249 -174l-25 93q119 32 192 142q72 107 72 242q0 160 -102 271.5t-261 111.5q-161 0 -263 -110.5t-102 -272.5q0 -136 73 -244t193 -140l-25 -93q-154 39 -249.5 172.5t-95.5 304.5q0 204 133 341.5t336 137.5t335 -137.5
t132 -341.5z" />
    <glyph glyph-name="uni10D9" unicode="&#x10d9;" horiz-adv-x="821" 
d="M691 -90q0 -381 -329 -381q-298 0 -316 258h99q17 -176 213 -176q235 0 235 299v177q0 182 -305 182h-21v80h55q93 0 174 44q97 53 97 139v55q0 138 -44 198q-52 71 -187 71v82q329 0 329 -351v-33q0 -73 -59 -144q-56 -66 -129 -92q188 -65 188 -243v-165z" />
    <glyph glyph-name="uni10DA" unicode="&#x10da;" horiz-adv-x="2564" 
d="M2476 459q0 -171 -94 -303q-96 -135 -249 -174l-25 93q119 32 192 142q72 107 72 242q0 164 -86 270q-91 113 -247 113q-158 0 -249 -112q-86 -105 -86 -271h-104q0 164 -86 270q-91 113 -247 113q-158 0 -249 -112q-86 -105 -86 -271h-104q0 164 -86 270
q-91 113 -247 113q-305 0 -305 -392q0 -191 311 -335q231 -107 672 -202q320 -64 640 -127q81 -18 159 -69q86 -55 110 -115q14 -35 14 -73h-104q0 34 -24 66q-116 157 -680 157q-165 0 -238 -14q-77 -14 -209 -73l-39 88q116 51 167.5 64t154.5 15q-1038 207 -1038 627
q0 212 102 341q110 138 307 138q257 0 385 -250q129 250 387 250q257 0 385 -250q129 250 387 250q200 0 321 -138q116 -133 116 -341z" />
    <glyph glyph-name="uni10DB" unicode="&#x10db;" horiz-adv-x="1044" 
d="M917 350q0 -163 -88 -263q-93 -105 -254 -105q-217 0 -357.5 138.5t-140.5 368.5q0 191 108 317q114 132 302 132q185 0 332 -150v246q0 299 -235 299q-196 0 -213 -176h-99q18 258 316 258q329 0 329 -381v-684zM819 352v326q-156 178 -320 178q-147 0 -236 -116
q-81 -105 -81 -257q0 -176 116.5 -290.5t282.5 -114.5q98 0 168 73t70 201z" />
    <glyph glyph-name="uni10DC" unicode="&#x10dc;" horiz-adv-x="1044" 
d="M967 489q0 -230 -140.5 -368.5t-357.5 -138.5q-161 0 -254 105q-88 100 -88 263v623q0 160 66 274q84 148 251 148h443v-90h-435q-113 0 -174 -102q-53 -90 -53 -228v-187q147 150 332 150q188 0 302 -132q108 -126 108 -317zM862 483q0 152 -81 257q-89 116 -236 116
q-164 0 -320 -178v-326q0 -128 70 -201t168 -73q166 0 282.5 114.5t116.5 290.5z" />
    <glyph glyph-name="uni10DD" unicode="&#x10dd;" horiz-adv-x="1942" 
d="M1854 459q0 -171 -94 -303q-96 -135 -249 -174l-25 93q119 32 192 142q72 107 72 242q0 160 -102 271.5t-261 111.5q-161 0 -263 -110.5t-102 -272.5h-104q0 160 -102 271.5t-261 111.5q-161 0 -263 -110.5t-102 -272.5q0 -136 73 -244t193 -140l-25 -93
q-154 39 -249.5 172.5t-95.5 304.5q0 204 133 341.5t336 137.5q200 0 334 -137q50 -52 81 -113q32 61 83 113q134 137 334 137q203 0 335 -137.5t132 -341.5z" />
    <glyph glyph-name="uni10DE" unicode="&#x10de;" horiz-adv-x="856" 
d="M726 363q0 -381 -329 -381q-298 0 -316 258h99q17 -176 213 -176q235 0 235 299v177q0 182 -305 182h-21v80h55q95 0 174 39q97 49 97 134v35q0 167 -169 167q-145 0 -215 55q-73 56 -81 183h99q8 -87 51 -121.5t142 -34.5q115 0 191 -66q80 -69 80 -183v-13
q0 -72 -60 -139q-54 -60 -128 -87q188 -65 188 -243v-165z" />
    <glyph glyph-name="uni10DF" unicode="&#x10df;" horiz-adv-x="930" 
d="M800 -90q0 -381 -329 -381q-298 0 -316 258h99q17 -176 213 -176q235 0 235 299v948h-184l66 -246q6 -22 6 -59q0 -110 -75 -191.5t-184 -81.5q-108 0 -182.5 75t-74.5 184q0 37 10 74l92 -25q-6 -22 -6 -49q0 -68 46 -115.5t114 -47.5q70 0 117 53t47 124q0 23 -3 34
l-93 351h402v-1028z" />
    <glyph glyph-name="uni10E0" unicode="&#x10e0;" horiz-adv-x="1942" 
d="M1854 459q0 -171 -94 -303q-96 -135 -249 -174l-25 93q119 32 192 142q72 107 72 242q0 161 -100 270q-104 113 -263 113q-160 0 -262.5 -110.5t-102.5 -272.5h-104q0 161 -100 270q-104 113 -263 113q-160 0 -262.5 -110.5t-102.5 -272.5q0 -136 73 -244t193 -140
l-25 -93q-154 39 -249.5 172.5t-95.5 304.5v1q0 344 131 524q139 193 457 241q249 38 322 55q234 55 268 135l89 -37q-49 -117 -297 -183q-82 -22 -368 -65q-350 -53 -448 -311q130 119 315 119q199 0 334 -137q48 -49 81 -113q31 61 83 113q136 137 334 137
q204 0 335.5 -137.5t131.5 -341.5z" />
    <glyph glyph-name="uni10E1" unicode="&#x10e1;" horiz-adv-x="1044" 
d="M958 392q0 -158 -137 -281q-144 -129 -352 -129q-161 0 -254 105q-88 100 -88 263v1047h98v-1045q0 -128 70 -201t168 -73q164 0 282 103q109 96 109 211q0 80 -59 163t-59 194q0 87 55 189l92 -50q-43 -78 -43 -139q0 -77 59 -164t59 -193z" />
    <glyph glyph-name="uni10E2" unicode="&#x10e2;" horiz-adv-x="1328" 
d="M1240 106q0 -239 -169 -408t-408 -169t-408 169t-169 408q0 154 77 286q74 128 201 205l36 -51q-99 -63 -156 -187q-54 -118 -54 -253q0 -200 137.5 -340.5t335.5 -140.5t335.5 140.5t137.5 340.5q0 150 -80.5 273.5t-211.5 179.5q7 -24 7 -51q0 -80 -57 -127
q-51 -43 -127 -43q-74 0 -126 39q-59 46 -59 126q0 81 56 131q-60 46 -60 127q0 77 51.5 127t129.5 50q76 0 129 -43q59 -48 59 -129q0 -64 -37 -108q188 -48 308 -199q122 -155 122 -353zM763 766q0 88 -104 88q-97 0 -97 -93q0 -81 101 -81q100 0 100 86zM767 508
q0 88 -104 88q-97 0 -97 -93q0 -81 101 -81q100 0 100 86z" />
    <glyph glyph-name="uni10E3" unicode="&#x10e3;" horiz-adv-x="930" 
d="M800 -90q0 -381 -329 -381q-298 0 -316 258h99q17 -176 213 -176q235 0 235 299v769q0 68 -45 115.5t-113 47.5q-70 0 -117 -53t-47 -124v-82h-96v96q0 68 -46 115.5t-114 47.5h-53v96h53q136 0 211 -111q78 111 208 111q108 0 182.5 -75t74.5 -184v-769z" />
    <glyph glyph-name="uni10E4" unicode="&#x10e4;" horiz-adv-x="1882" 
d="M1794 -90q0 -381 -329 -381q-298 0 -316 258h99q17 -176 213 -176q235 0 235 299v74q0 95 -76 151q-82 61 -229 61h-21v80h49q85 0 174 76q97 82 97 182v15q0 293 -333 293q-158 0 -249 -112q-86 -105 -86 -271q0 -203 -132 -340t-335 -137t-336 137t-133 340
q0 204 133 341.5t336 137.5q200 0 334 -137q50 -52 81 -113q129 250 387 250q437 0 437 -389v-8q0 -75 -71 -171.5t-137 -114.5q93 -32 150.5 -112t57.5 -171v-62zM918 459q0 160 -102 271.5t-261 111.5q-161 0 -263 -110.5t-102 -272.5q0 -161 102.5 -271t262.5 -110
t263 111q100 109 100 270z" />
    <glyph glyph-name="uni10E5" unicode="&#x10e5;" horiz-adv-x="861" 
d="M731 -90q0 -381 -329 -381q-298 0 -316 258h99q17 -176 213 -176q235 0 235 299v647q0 299 -235 299q-196 0 -213 -176h-99q18 258 316 258q147 0 230 -82v523h99v-1469z" />
    <glyph glyph-name="uni10E6" unicode="&#x10e6;" horiz-adv-x="1942" 
d="M1854 459q0 -171 -94 -303q-96 -135 -249 -174l-25 93q119 32 192 142q72 107 72 242q0 160 -102 271.5t-261 111.5q-161 0 -263 -110.5t-102 -272.5h-104q0 160 -102 271.5t-261 111.5q-161 0 -263 -110.5t-102 -272.5q0 -192 123 -331q94 -106 282 -199
q156 -71 312 -141q230 -112 230 -259h-104q0 34 -24 66q-40 54 -185 122q-80 28 -149 28q-175 0 -238 -10q-82 -13 -209 -70l-39 88q187 83 365 87q-213 106 -322 229q-146 164 -146 390q0 204 133 341.5t336 137.5q200 0 334 -137q50 -52 81 -113q32 61 83 113
q134 137 334 137q203 0 335 -137.5t132 -341.5z" />
    <glyph glyph-name="uni10E7" unicode="&#x10e7;" horiz-adv-x="950" 
d="M820 -90q0 -381 -329 -381q-298 0 -316 258h99q17 -176 213 -176q235 0 235 299v194q-92 -122 -254 -122q-183 0 -288 145q-93 129 -93 319q0 234 196 492l111 -18q-202 -243 -202 -473q0 -140 64 -247q77 -127 208 -127q84 0 150 59q63 55 86 139q22 81 22 271v396h98
v-1028z" />
    <glyph glyph-name="uni10E8" unicode="&#x10e8;" horiz-adv-x="1080" 
d="M953 350q0 -163 -88 -263q-93 -105 -254 -105q-216 0 -357 139t-141 368q0 192 108 317q114 132 302 132q185 0 332 -150v368q0 68 -45 115.5t-113 47.5q-70 0 -117 -53t-47 -124v-82h-90v96q0 68 -48 115.5t-116 47.5t-113 -47.5t-45 -115.5v-96h-98v96q0 109 74.5 184
t182.5 75q133 0 208 -111q78 111 208 111q108 0 182.5 -75t74.5 -184v-806zM855 352v326q-156 178 -320 178q-147 0 -236 -116q-81 -105 -81 -257q0 -175 117 -290t282 -115q98 0 168 73t70 201z" />
    <glyph glyph-name="uni10E9" unicode="&#x10e9;" horiz-adv-x="1175" 
d="M1057 459q0 -171 -94 -303q-96 -135 -249 -174l-25 93q119 32 192 142q72 107 72 242q0 160 -102 271.5t-261 111.5q-161 0 -263 -110.5t-102 -272.5v-459h-98v1083q0 148 123 246q109 86 235 86q244 0 244 -172q0 -266 -504 -297v-179q139 171 365 171q203 0 335 -137.5
t132 -341.5zM633 1243q0 76 -148 76q-94 0 -173 -64q-87 -71 -87 -172v-42q408 22 408 202z" />
    <glyph glyph-name="uni10EA" unicode="&#x10ea;" horiz-adv-x="1044" 
d="M958 -61q0 -158 -137 -281q-144 -129 -352 -129q-161 0 -254 105q-88 100 -88 263v1041h98v-1039q0 -128 70 -201t168 -73q165 0 285 103q112 96 112 211v124q0 182 -305 182h-21v80h55q96 0 174 39q97 49 97 134v35q0 167 -119 167q-106 0 -152 54t-55 184h99
q9 -98 23 -122q19 -34 81 -34q89 0 152 -66q69 -71 69 -183v-13q0 -72 -59 -139q-55 -60 -129 -87q188 -65 188 -243v-112z" />
    <glyph glyph-name="uni10EB" unicode="&#x10eb;" horiz-adv-x="1044" 
d="M917 350q0 -163 -88 -263q-93 -105 -254 -105q-217 0 -357.5 138.5t-140.5 368.5q0 191 108 317q114 132 302 132q185 0 332 -150v246q0 285 -223 285l2 96q146 0 234 -100q85 -96 85 -244v-721zM819 352v326q-156 178 -320 178q-147 0 -236 -116q-81 -105 -81 -257
q0 -176 116.5 -290.5t282.5 -114.5q98 0 168 73t70 201z" />
    <glyph glyph-name="uni10EC" unicode="&#x10ec;" horiz-adv-x="1080" 
d="M1057 1060h-98v96q0 68 -45 115.5t-113 47.5t-116 -47.5t-48 -115.5v-96h-90v82q0 71 -47 124t-117 53q-68 0 -113 -47.5t-45 -115.5v-368q147 150 332 150q168 0 299 -104.5t131 -244.5q0 -51 -20 -100l-384 -960h-61q-395 824 -395 911v716q0 109 74 184t183 75
q130 0 208 -111q75 111 208 111q109 0 183 -75t74 -184v-96zM862 483q15 38 15 80q0 113 -100.5 203t-231.5 90q-164 0 -320 -178v-238q0 -54 325 -748z" />
    <glyph glyph-name="uni10ED" unicode="&#x10ed;" horiz-adv-x="960" 
d="M872 368q0 -159 -116 -272.5t-276 -113.5t-276 113t-116 271q0 98 47 184l92 -46q-35 -64 -35 -138q0 -119 84.5 -203.5t203.5 -84.5q120 0 204 85t84 205q0 97 -67 185q-32 42 -141 142q-91 84 -121 143q-55 -37 -100 -37q-85 0 -147 46q-73 53 -73 146q0 88 63.5 146
t152.5 58q37 0 79 -24v242h104v-309q6 -3 11 -6l108 -54l196 98v-96l-100 -50l96 -48v-96l-192 96l-110 -55q19 -49 113 -136q114 -104 155 -161q77 -108 77 -230zM541 998l-206 103q-50 0 -81 -30t-31 -78q0 -96 116 -96z" />
    <glyph glyph-name="uni10EE" unicode="&#x10ee;" horiz-adv-x="1044" 
d="M967 489q0 -230 -140.5 -368.5t-357.5 -138.5q-161 0 -254 105q-88 100 -88 263v1047h98v-609q147 150 332 150q188 0 302 -132q108 -126 108 -317zM862 483q0 152 -81 257q-89 116 -236 116q-164 0 -320 -178v-326q0 -128 70 -201t168 -73q166 0 282.5 114.5
t116.5 290.5z" />
    <glyph glyph-name="uni10EF" unicode="&#x10ef;" horiz-adv-x="1005" 
d="M952 385q-108 -95 -174 -95q-57 0 -136 54l-109 74l-157 -231q152 -12 245 -100q81 -78 81 -172v-5q0 -381 -329 -381q-298 0 -316 258h99q17 -176 213 -176q235 0 235 299v17q0 182 -305 182h-21v80l187 276l-107 73q-59 40 -94 40q-34 0 -117 -73l-54 61q108 95 174 95
q57 0 136 -54l109 -74l93 137q40 59 40 94q0 34 -73 117l61 54q95 -107 95 -174q0 -57 -54 -136l-94 -139l107 -73q59 -40 94 -40q34 0 117 73z" />
    <glyph glyph-name="uni10F0" unicode="&#x10f0;" horiz-adv-x="902" 
d="M773 309q0 -327 -330 -327q-298 0 -316 258h99q17 -176 213 -176q235 0 235 245q0 61 -33 101.5t-90 40.5h-80v80h80q57 0 91 42q33 39 33 100t-33.5 101.5t-90.5 40.5h-80v80h80q57 0 91 42q33 39 33 100t-33.5 101.5t-90.5 40.5q-144 0 -212 54q-71 55 -80 182h99
q8 -87 51 -121.5t142 -34.5q92 0 157 -65t65 -157q0 -116 -95 -182q95 -66 95 -182t-95 -182q95 -66 95 -182z" />
    <glyph glyph-name="Idotaccent" horiz-adv-x="426" 
d="M268 1397v-1397h-108v1397h108zM124 1689q0 37 26.5 64t63.5 27t63.5 -27t26.5 -64q0 -36 -26.5 -63t-63.5 -27t-63.5 27t-26.5 63z" />
    <glyph glyph-name="uni018F" unicode="&#x18f;" horiz-adv-x="1427" 
d="M102 1298q257 117 502 117q315 0 519 -204.5t204 -526.5q0 -295 -171 -498.5t-454 -203.5q-276 0 -445 196t-169 500v41h1120q-11 269 -180.5 432.5t-417.5 163.5q-251 0 -508 -135v118zM1206 629h-999q0 -213 138 -380t360 -167q205 0 341.5 150t159.5 397z" />
    <glyph glyph-name="uni0259" unicode="&#x259;" horiz-adv-x="981" 
d="M86 815q157 123 354 123q200 0 329.5 -138t129.5 -351q0 -201 -121 -334t-301 -133q-169 0 -288 119.5t-119 330.5h725q4 32 4 41q0 155 -110 262t-261 107q-177 0 -342 -137v110zM782 346h-596q26 -134 99 -201t192 -67q104 0 190 68t115 200z" />
    </font>
</defs>
</svg>
