<?xml version="1.0" standalone="no"?>
<!DOCTYPE svg PUBLIC "-//W3C//DTD SVG 1.1//EN" "http://www.w3.org/Graphics/SVG/1.1/DTD/svg11.dtd" >
<svg>
<metadata>
Created by FontForge 20120731 at Mon Mar 25 17:27:37 2019
 By www-data
</metadata>
<defs>
<font id="LineeDEMORegular" horiz-adv-x="800" >
  <font-face 
    font-family="Linee-DEMO"
    font-weight="400"
    font-stretch="normal"
    units-per-em="1000"
    panose-1="0 0 0 0 0 0 0 0 0 0"
    ascent="800"
    descent="-200"
    x-height="700"
    cap-height="700"
    bbox="50 0 917 700"
    underline-thickness="0"
    underline-position="0"
    unicode-range="U+000A-00AD"
  />
<missing-glyph horiz-adv-x="527" 
d="M50 700h427v-700h-427v700zM78 680l185 -309l186 309h-371zM251 350l-180 300v-601zM264 329l-185 -308h370zM276 350l181 -303v605z" />
    <glyph glyph-name=".notdef" horiz-adv-x="527" 
d="M50 700h427v-700h-427v700zM78 680l185 -309l186 309h-371zM251 350l-180 300v-601zM264 329l-185 -308h370zM276 350l181 -303v605z" />
    <glyph glyph-name=".null" horiz-adv-x="0" 
 />
    <glyph glyph-name=".null" horiz-adv-x="0" 
 />
    <glyph glyph-name="nonmarkingreturn" horiz-adv-x="333" 
 />
    <glyph glyph-name="LF" unicode="&#xa;" horiz-adv-x="0" 
 />
    <glyph glyph-name="controlCR" unicode="&#xd;" horiz-adv-x="0" 
 />
    <glyph glyph-name="space" unicode=" " horiz-adv-x="395" 
 />
    <glyph glyph-name="A" unicode="A" 
d="M665 615q37 -5 61 -33t24 -65v-517h-200v167h-300v-167h-200v617h83v83h434q37 0 65 -24t33 -61zM167 667v-384h383v50h-333v284h414q-5 21 -23 35.5t-41 14.5h-400zM250 500v-133h300v133h-300zM217 33v134h-50v-134h50zM133 200h500v300h-50v-250h-450v333h-50v-550h50
v167zM633 33v134h-50v-134h50zM717 33v484q0 27 -19.5 46.5t-47.5 19.5h-400v-50h417v-500h50z" />
    <glyph glyph-name="A" unicode="&#xc5;" 
d="M665 615q37 -5 61 -33t24 -65v-517h-200v167h-300v-167h-200v617h83v83h434q37 0 65 -24t33 -61zM167 667v-384h383v50h-333v284h414q-5 21 -23 35.5t-41 14.5h-400zM250 500v-133h300v133h-300zM217 33v134h-50v-134h50zM133 200h500v300h-50v-250h-450v333h-50v-550h50
v167zM633 33v134h-50v-134h50zM717 33v484q0 27 -19.5 46.5t-47.5 19.5h-400v-50h417v-500h50z" />
    <glyph glyph-name="A" unicode="&#xc4;" 
d="M665 615q37 -5 61 -33t24 -65v-517h-200v167h-300v-167h-200v617h83v83h434q37 0 65 -24t33 -61zM167 667v-384h383v50h-333v284h414q-5 21 -23 35.5t-41 14.5h-400zM250 500v-133h300v133h-300zM217 33v134h-50v-134h50zM133 200h500v300h-50v-250h-450v333h-50v-550h50
v167zM633 33v134h-50v-134h50zM717 33v484q0 27 -19.5 46.5t-47.5 19.5h-400v-50h417v-500h50z" />
    <glyph glyph-name="A" unicode="&#xc3;" 
d="M665 615q37 -5 61 -33t24 -65v-517h-200v167h-300v-167h-200v617h83v83h434q37 0 65 -24t33 -61zM167 667v-384h383v50h-333v284h414q-5 21 -23 35.5t-41 14.5h-400zM250 500v-133h300v133h-300zM217 33v134h-50v-134h50zM133 200h500v300h-50v-250h-450v333h-50v-550h50
v167zM633 33v134h-50v-134h50zM717 33v484q0 27 -19.5 46.5t-47.5 19.5h-400v-50h417v-500h50z" />
    <glyph glyph-name="A" unicode="&#xc2;" 
d="M665 615q37 -5 61 -33t24 -65v-517h-200v167h-300v-167h-200v617h83v83h434q37 0 65 -24t33 -61zM167 667v-384h383v50h-333v284h414q-5 21 -23 35.5t-41 14.5h-400zM250 500v-133h300v133h-300zM217 33v134h-50v-134h50zM133 200h500v300h-50v-250h-450v333h-50v-550h50
v167zM633 33v134h-50v-134h50zM717 33v484q0 27 -19.5 46.5t-47.5 19.5h-400v-50h417v-500h50z" />
    <glyph glyph-name="A" unicode="&#xc1;" 
d="M665 615q37 -5 61 -33t24 -65v-517h-200v167h-300v-167h-200v617h83v83h434q37 0 65 -24t33 -61zM167 667v-384h383v50h-333v284h414q-5 21 -23 35.5t-41 14.5h-400zM250 500v-133h300v133h-300zM217 33v134h-50v-134h50zM133 200h500v300h-50v-250h-450v333h-50v-550h50
v167zM633 33v134h-50v-134h50zM717 33v484q0 27 -19.5 46.5t-47.5 19.5h-400v-50h417v-500h50z" />
    <glyph glyph-name="A" unicode="&#xc0;" 
d="M665 615q37 -5 61 -33t24 -65v-517h-200v167h-300v-167h-200v617h83v83h434q37 0 65 -24t33 -61zM167 667v-384h383v50h-333v284h414q-5 21 -23 35.5t-41 14.5h-400zM250 500v-133h300v133h-300zM217 33v134h-50v-134h50zM133 200h500v300h-50v-250h-450v333h-50v-550h50
v167zM633 33v134h-50v-134h50zM717 33v484q0 27 -19.5 46.5t-47.5 19.5h-400v-50h417v-500h50z" />
    <glyph glyph-name="B" unicode="B" 
d="M133 0v83h-83v534h83v83h434q37 0 65 -24t33 -61q37 -5 61 -33t24 -65v-84q0 -53 -45 -83q45 -30 45 -83v-84q0 -37 -24 -65t-61 -33q-5 -37 -33 -61t-65 -24h-434zM567 33q27 0 46.5 19.5t19.5 47.5v150h-50v-167h-416v-50h400zM550 200v50h-300v-50h300zM717 183v84
q0 27 -19.5 46.5t-47.5 19.5h-483v-133h50v83h450v-164q21 5 35.5 23t14.5 41zM250 500v-50h300v50h-300zM583 500v-133h50v133h-50zM717 517q0 27 -19.5 46.5t-47.5 19.5h-400v-50h417v-164q21 5 35.5 23t14.5 41v84zM167 667v-300h383v50h-333v200h414q-5 21 -23 35.5
t-41 14.5h-400zM83 117h467v50h-417v416h-50v-466z" />
    <glyph glyph-name="C" unicode="C" 
d="M135 85q-37 5 -61 33t-24 65v334q0 37 24 65t61 33q5 37 33 61t65 24h334q37 0 65 -24t33 -61q37 -5 61 -33t24 -65v-100h-200v83h-300v-300h300v83h200v-100q0 -37 -24 -65t-61 -33q-5 -37 -33 -61t-65 -24h-334q-37 0 -65 24t-33 61zM667 250v-131q21 5 35.5 23
t14.5 41v67h-50zM583 250v-167h-414q5 -21 23 -35.5t41 -14.5h334q27 0 46.5 19.5t19.5 47.5v150h-50zM633 450v50h-50v-50h50zM717 517q0 27 -19.5 46.5t-47.5 19.5h-400v-50h417v-83h50v67zM233 667q-27 0 -46.5 -19.5t-19.5 -47.5v-400h50v417h414q-5 21 -23 35.5
t-41 14.5h-334zM83 517v-334q0 -27 19.5 -46.5t47.5 -19.5h400v50h-417v414q-21 -5 -35.5 -23t-14.5 -41z" />
    <glyph glyph-name="C" unicode="&#xc7;" 
d="M135 85q-37 5 -61 33t-24 65v334q0 37 24 65t61 33q5 37 33 61t65 24h334q37 0 65 -24t33 -61q37 -5 61 -33t24 -65v-100h-200v83h-300v-300h300v83h200v-100q0 -37 -24 -65t-61 -33q-5 -37 -33 -61t-65 -24h-334q-37 0 -65 24t-33 61zM667 250v-131q21 5 35.5 23
t14.5 41v67h-50zM583 250v-167h-414q5 -21 23 -35.5t41 -14.5h334q27 0 46.5 19.5t19.5 47.5v150h-50zM633 450v50h-50v-50h50zM717 517q0 27 -19.5 46.5t-47.5 19.5h-400v-50h417v-83h50v67zM233 667q-27 0 -46.5 -19.5t-19.5 -47.5v-400h50v417h414q-5 21 -23 35.5
t-41 14.5h-334zM83 517v-334q0 -27 19.5 -46.5t47.5 -19.5h400v50h-417v414q-21 -5 -35.5 -23t-14.5 -41z" />
    <glyph glyph-name="D" unicode="D" 
d="M665 615q37 -5 61 -33t24 -65v-334q0 -37 -24 -65t-61 -33q-5 -37 -33 -61t-65 -24h-517v700h517q37 0 65 -24t33 -61zM83 667v-50h548q-5 21 -23 35.5t-41 14.5h-484zM567 33q27 0 46.5 19.5t19.5 47.5v400h-50v-417h-500v-50h484zM217 200v300h-50v-300h50zM250 500
v-300h300v300h-300zM717 183v334q0 27 -19.5 46.5t-47.5 19.5h-567v-466h467v50h-417v366h534v-414q21 5 35.5 23t14.5 41z" />
    <glyph glyph-name="E" unicode="E" 
d="M133 617v83h617v-200h-500v-50h250v-200h-250v-50h500v-200h-617v83h-83v534h83zM717 33v50h-550v-50h550zM717 167h-584v416h-50v-466h634v50zM467 283v50h-217v-50h217zM717 533v50h-467v-50h467zM167 667v-467h50v167h250v50h-250v200h500v50h-550z" />
    <glyph glyph-name="E" unicode="&#xcb;" 
d="M133 617v83h617v-200h-500v-50h250v-200h-250v-50h500v-200h-617v83h-83v534h83zM717 33v50h-550v-50h550zM717 167h-584v416h-50v-466h634v50zM467 283v50h-217v-50h217zM717 533v50h-467v-50h467zM167 667v-467h50v167h250v50h-250v200h500v50h-550z" />
    <glyph glyph-name="E" unicode="&#xca;" 
d="M133 617v83h617v-200h-500v-50h250v-200h-250v-50h500v-200h-617v83h-83v534h83zM717 33v50h-550v-50h550zM717 167h-584v416h-50v-466h634v50zM467 283v50h-217v-50h217zM717 533v50h-467v-50h467zM167 667v-467h50v167h250v50h-250v200h500v50h-550z" />
    <glyph glyph-name="E" unicode="&#xc9;" 
d="M133 617v83h617v-200h-500v-50h250v-200h-250v-50h500v-200h-617v83h-83v534h83zM717 33v50h-550v-50h550zM717 167h-584v416h-50v-466h634v50zM467 283v50h-217v-50h217zM717 533v50h-467v-50h467zM167 667v-467h50v167h250v50h-250v200h500v50h-550z" />
    <glyph glyph-name="E" unicode="&#xc8;" 
d="M133 617v83h617v-200h-500v-50h250v-200h-250v-50h500v-200h-617v83h-83v534h83zM717 33v50h-550v-50h550zM717 167h-584v416h-50v-466h634v50zM467 283v50h-217v-50h217zM717 533v50h-467v-50h467zM167 667v-467h50v167h250v50h-250v200h500v50h-550z" />
    <glyph glyph-name="F" unicode="F" 
d="M133 617v83h617v-200h-500v-50h250v-200h-250v-250h-200v617h83zM467 283v50h-300v-300h50v250h250zM467 417h-334v166h-50v-550h50v334h334v50zM717 533v50h-467v-50h467zM167 667v-217h50v167h500v50h-550z" />
    <glyph glyph-name="G" unicode="G" 
d="M567 700q36 0 64 -24t34 -59h85v-117h-500v-300h300v50h-167v200h267q41 0 70.5 -29.5t29.5 -70.5v-167q0 -37 -24 -65t-61 -33q-5 -37 -33 -61t-65 -24h-334q-37 0 -65 24t-33 61q-37 5 -61 33t-24 65v334q0 37 24 65t61 33q5 37 33 61t65 24h334zM417 417v-50h250v-248
q21 5 35.5 23t14.5 41v167q0 28 -19.5 47.5t-47.5 19.5h-233zM417 283h166v-200h-414q5 -21 23 -35.5t41 -14.5h334q27 0 46.5 19.5t19.5 47.5v233h-216v-50zM550 167h-417v414q-21 -5 -35.5 -23t-14.5 -41v-334q0 -27 19.5 -46.5t47.5 -19.5h400v50zM217 200v417h414
q-5 21 -23 35.5t-41 14.5h-334q-27 0 -46.5 -19.5t-19.5 -47.5v-400h50zM717 533v50h-467v-50h467z" />
    <glyph glyph-name="H" unicode="H" 
d="M550 700h200v-700h-200v250h-300v-250h-200v700h200v-250h300v250zM583 667v-217h50v217h-50zM217 33v217h-50v-217h50zM633 33v300h-500v334h-50v-634h50v250h450v-250h50zM717 667h-50v-250h-450v250h-50v-300h500v-334h50v634z" />
    <glyph glyph-name="I" unicode="I" horiz-adv-x="467" 
d="M417 200v-200h-367v200h83v300h-83v200h367v-200h-84v-300h84zM383 533v50h-50v-50h50zM83 667v-50h167v-500h133v50h-83v450h83v50h-300zM83 167v-50h50v50h-50zM383 33v50h-166v500h-134v-50h84v-450h-84v-50h300z" />
    <glyph glyph-name="I" unicode="&#xcf;" horiz-adv-x="467" 
d="M417 200v-200h-367v200h83v300h-83v200h367v-200h-84v-300h84zM383 533v50h-50v-50h50zM83 667v-50h167v-500h133v50h-83v450h83v50h-300zM83 167v-50h50v50h-50zM383 33v50h-166v500h-134v-50h84v-450h-84v-50h300z" />
    <glyph glyph-name="I" unicode="&#xce;" horiz-adv-x="467" 
d="M417 200v-200h-367v200h83v300h-83v200h367v-200h-84v-300h84zM383 533v50h-50v-50h50zM83 667v-50h167v-500h133v50h-83v450h83v50h-300zM83 167v-50h50v50h-50zM383 33v50h-166v500h-134v-50h84v-450h-84v-50h300z" />
    <glyph glyph-name="I" unicode="&#xcd;" horiz-adv-x="467" 
d="M417 200v-200h-367v200h83v300h-83v200h367v-200h-84v-300h84zM383 533v50h-50v-50h50zM83 667v-50h167v-500h133v50h-83v450h83v50h-300zM83 167v-50h50v50h-50zM383 33v50h-166v500h-134v-50h84v-450h-84v-50h300z" />
    <glyph glyph-name="I" unicode="&#xcc;" horiz-adv-x="467" 
d="M417 200v-200h-367v200h83v300h-83v200h367v-200h-84v-300h84zM383 533v50h-50v-50h50zM83 667v-50h167v-500h133v50h-83v450h83v50h-300zM83 167v-50h50v50h-50zM383 33v50h-166v500h-134v-50h84v-450h-84v-50h300z" />
    <glyph glyph-name="J" unicode="J" horiz-adv-x="550" 
d="M415 85q-5 -37 -33 -61t-65 -24h-267v200h250v300h-167v200h284v-83h83v-434q0 -37 -24 -65t-61 -33zM167 667v-50h216v50h-216zM167 533h250v-414q21 5 35.5 23t14.5 41v400h-300v-50zM83 167v-50h217v50h-217zM83 83v-50h234q27 0 46.5 19.5t19.5 47.5v400h-50v-417
h-250z" />
    <glyph glyph-name="K" unicode="K" 
d="M417 417v-134h83v-83h83v-83h167v-117h-283v83h-84v84h-83v83h-50v-250h-200v700h200v-250h50v83h83v84h84v83h283v-117h-167v-83h-83v-83h-83zM333 417h-166v-50h216v83h84v83h83v84h167v50h-217v-84h-83v-83h-84v-83zM167 667v-217h50v217h-50zM133 33v217h-50v-217h50
zM217 33v217h-50v-217h50zM467 250h-84v83h-250v334h-50v-384h250v-83h84v-83h83v-84h217v50h-167v84h-83v83z" />
    <glyph glyph-name="L" unicode="L" 
d="M135 85q-37 5 -61 33t-24 65v517h200v-500h500v-200h-517q-37 0 -65 24t-33 61zM717 33v50h-548q5 -21 23 -35.5t41 -14.5h484zM167 667v-467h50v467h-50zM83 667v-484q0 -27 19.5 -46.5t47.5 -19.5h567v50h-584v500h-50z" />
    <glyph glyph-name="M" unicode="M" horiz-adv-x="967" 
d="M832 615q36 -5 60.5 -33t24.5 -65v-517h-200v500h-50v-150q0 -37 -24 -64.5t-60 -33.5v-2h-183q-41 0 -70.5 29.5t-29.5 70.5v150h-50v-500h-200v517q0 37 24 65t61 33q5 37 33 61t65 24h84q37 0 65 -24t33 -61q44 -6 68 -43q25 37 68 43q6 37 34 61t65 24h83
q37 0 65 -24t34 -61zM133 33v548q-21 -5 -35.5 -23t-14.5 -41v-484h50zM217 33v584h164q-5 21 -23 35.5t-41 14.5h-84q-27 0 -46.5 -19.5t-19.5 -47.5v-567h50zM250 533h167v-166h50v150q0 27 -19.5 46.5t-47.5 19.5h-150v-50zM550 283v298q-22 -5 -36 -23t-14 -41v-184
h-117v167h-50v-150q0 -28 19.5 -47.5t47.5 -19.5h150zM633 350v267h165q-6 21 -24 35.5t-41 14.5h-83q-28 0 -47.5 -19.5t-19.5 -47.5v-315q22 6 36 24t14 41zM800 33v467h-50v-467h50zM883 33v484q0 27 -19.5 46.5t-46.5 19.5h-150v-50h166v-500h50z" />
    <glyph glyph-name="N" unicode="N" 
d="M550 700h200v-700h-200v250h-83v83h-84v84h-83v83h-50v-500h-200v617h83v83h284v-83h83v-84h50v167zM583 667v-217h50v217h-50zM133 33v550h-50v-550h50zM217 33v584h166v50h-216v-634h50zM250 533h217v50h-217v-50zM333 450h217v50h-217v-50zM633 33v300h-133v-50h83
v-250h50zM717 33v300h-50v-300h50zM717 667h-50v-250h-250v-50h300v300z" />
    <glyph glyph-name="N" unicode="&#xd1;" 
d="M550 700h200v-700h-200v250h-83v83h-84v84h-83v83h-50v-500h-200v617h83v83h284v-83h83v-84h50v167zM583 667v-217h50v217h-50zM133 33v550h-50v-550h50zM217 33v584h166v50h-216v-634h50zM250 533h217v50h-217v-50zM333 450h217v50h-217v-50zM633 33v300h-133v-50h83
v-250h50zM717 33v300h-50v-300h50zM717 667h-50v-250h-250v-50h300v300z" />
    <glyph glyph-name="O" unicode="O" 
d="M665 615q37 -5 61 -33t24 -65v-334q0 -37 -24 -65t-61 -33q-5 -37 -33 -61t-65 -24h-334q-37 0 -65 24t-33 61q-37 5 -61 33t-24 65v334q0 37 24 65t61 33q5 37 33 61t65 24h334q37 0 65 -24t33 -61zM233 667q-27 0 -46.5 -19.5t-19.5 -47.5v-400h50v417h414
q-5 21 -23 35.5t-41 14.5h-334zM250 500v-300h300v300h-300zM83 183q0 -27 19.5 -46.5t47.5 -19.5h400v50h-417v414q-21 -5 -35.5 -23t-14.5 -41v-334zM567 33q27 0 46.5 19.5t19.5 47.5v400h-50v-417h-414q5 -21 23 -35.5t41 -14.5h334zM717 183v334q0 27 -19.5 46.5
t-47.5 19.5h-400v-50h417v-414q21 5 35.5 23t14.5 41z" />
    <glyph glyph-name="O" unicode="&#xd8;" 
d="M665 615q37 -5 61 -33t24 -65v-334q0 -37 -24 -65t-61 -33q-5 -37 -33 -61t-65 -24h-334q-37 0 -65 24t-33 61q-37 5 -61 33t-24 65v334q0 37 24 65t61 33q5 37 33 61t65 24h334q37 0 65 -24t33 -61zM233 667q-27 0 -46.5 -19.5t-19.5 -47.5v-400h50v417h414
q-5 21 -23 35.5t-41 14.5h-334zM250 500v-300h300v300h-300zM83 183q0 -27 19.5 -46.5t47.5 -19.5h400v50h-417v414q-21 -5 -35.5 -23t-14.5 -41v-334zM567 33q27 0 46.5 19.5t19.5 47.5v400h-50v-417h-414q5 -21 23 -35.5t41 -14.5h334zM717 183v334q0 27 -19.5 46.5
t-47.5 19.5h-400v-50h417v-414q21 5 35.5 23t14.5 41z" />
    <glyph glyph-name="O" unicode="&#xd6;" 
d="M665 615q37 -5 61 -33t24 -65v-334q0 -37 -24 -65t-61 -33q-5 -37 -33 -61t-65 -24h-334q-37 0 -65 24t-33 61q-37 5 -61 33t-24 65v334q0 37 24 65t61 33q5 37 33 61t65 24h334q37 0 65 -24t33 -61zM233 667q-27 0 -46.5 -19.5t-19.5 -47.5v-400h50v417h414
q-5 21 -23 35.5t-41 14.5h-334zM250 500v-300h300v300h-300zM83 183q0 -27 19.5 -46.5t47.5 -19.5h400v50h-417v414q-21 -5 -35.5 -23t-14.5 -41v-334zM567 33q27 0 46.5 19.5t19.5 47.5v400h-50v-417h-414q5 -21 23 -35.5t41 -14.5h334zM717 183v334q0 27 -19.5 46.5
t-47.5 19.5h-400v-50h417v-414q21 5 35.5 23t14.5 41z" />
    <glyph glyph-name="O" unicode="&#xd5;" 
d="M665 615q37 -5 61 -33t24 -65v-334q0 -37 -24 -65t-61 -33q-5 -37 -33 -61t-65 -24h-334q-37 0 -65 24t-33 61q-37 5 -61 33t-24 65v334q0 37 24 65t61 33q5 37 33 61t65 24h334q37 0 65 -24t33 -61zM233 667q-27 0 -46.5 -19.5t-19.5 -47.5v-400h50v417h414
q-5 21 -23 35.5t-41 14.5h-334zM250 500v-300h300v300h-300zM83 183q0 -27 19.5 -46.5t47.5 -19.5h400v50h-417v414q-21 -5 -35.5 -23t-14.5 -41v-334zM567 33q27 0 46.5 19.5t19.5 47.5v400h-50v-417h-414q5 -21 23 -35.5t41 -14.5h334zM717 183v334q0 27 -19.5 46.5
t-47.5 19.5h-400v-50h417v-414q21 5 35.5 23t14.5 41z" />
    <glyph glyph-name="O" unicode="&#xd4;" 
d="M665 615q37 -5 61 -33t24 -65v-334q0 -37 -24 -65t-61 -33q-5 -37 -33 -61t-65 -24h-334q-37 0 -65 24t-33 61q-37 5 -61 33t-24 65v334q0 37 24 65t61 33q5 37 33 61t65 24h334q37 0 65 -24t33 -61zM233 667q-27 0 -46.5 -19.5t-19.5 -47.5v-400h50v417h414
q-5 21 -23 35.5t-41 14.5h-334zM250 500v-300h300v300h-300zM83 183q0 -27 19.5 -46.5t47.5 -19.5h400v50h-417v414q-21 -5 -35.5 -23t-14.5 -41v-334zM567 33q27 0 46.5 19.5t19.5 47.5v400h-50v-417h-414q5 -21 23 -35.5t41 -14.5h334zM717 183v334q0 27 -19.5 46.5
t-47.5 19.5h-400v-50h417v-414q21 5 35.5 23t14.5 41z" />
    <glyph glyph-name="O" unicode="&#xd3;" 
d="M665 615q37 -5 61 -33t24 -65v-334q0 -37 -24 -65t-61 -33q-5 -37 -33 -61t-65 -24h-334q-37 0 -65 24t-33 61q-37 5 -61 33t-24 65v334q0 37 24 65t61 33q5 37 33 61t65 24h334q37 0 65 -24t33 -61zM233 667q-27 0 -46.5 -19.5t-19.5 -47.5v-400h50v417h414
q-5 21 -23 35.5t-41 14.5h-334zM250 500v-300h300v300h-300zM83 183q0 -27 19.5 -46.5t47.5 -19.5h400v50h-417v414q-21 -5 -35.5 -23t-14.5 -41v-334zM567 33q27 0 46.5 19.5t19.5 47.5v400h-50v-417h-414q5 -21 23 -35.5t41 -14.5h334zM717 183v334q0 27 -19.5 46.5
t-47.5 19.5h-400v-50h417v-414q21 5 35.5 23t14.5 41z" />
    <glyph glyph-name="O" unicode="&#xd2;" 
d="M665 615q37 -5 61 -33t24 -65v-334q0 -37 -24 -65t-61 -33q-5 -37 -33 -61t-65 -24h-334q-37 0 -65 24t-33 61q-37 5 -61 33t-24 65v334q0 37 24 65t61 33q5 37 33 61t65 24h334q37 0 65 -24t33 -61zM233 667q-27 0 -46.5 -19.5t-19.5 -47.5v-400h50v417h414
q-5 21 -23 35.5t-41 14.5h-334zM250 500v-300h300v300h-300zM83 183q0 -27 19.5 -46.5t47.5 -19.5h400v50h-417v414q-21 -5 -35.5 -23t-14.5 -41v-334zM567 33q27 0 46.5 19.5t19.5 47.5v400h-50v-417h-414q5 -21 23 -35.5t41 -14.5h334zM717 183v334q0 27 -19.5 46.5
t-47.5 19.5h-400v-50h417v-414q21 5 35.5 23t14.5 41z" />
    <glyph glyph-name="P" unicode="P" 
d="M665 615q37 -5 61 -33t24 -65v-167q0 -37 -24 -65t-61 -34q-5 -36 -33 -60t-65 -24h-317v-167h-200v617h83v83h434q37 0 65 -24t33 -61zM133 33v550h-50v-550h50zM217 33v584h414q-5 21 -23 35.5t-41 14.5h-400v-634h50zM250 333v-50h300v50h-300zM250 367h300v133h-300
v-133zM567 200q27 0 46.5 19.5t19.5 47.5v233h-50v-250h-333v-50h317zM717 350v167q0 27 -19.5 46.5t-47.5 19.5h-400v-50h417v-248q21 6 35.5 24t14.5 41z" />
    <glyph glyph-name="Q" unicode="Q" 
d="M665 615q37 -5 61 -33t24 -65v-350h-83v-50h83v-117h-200v83h-50v-83h-267q-37 0 -65 24t-33 61q-37 5 -61 33t-24 65v334q0 37 24 65t61 33q5 37 33 61t65 24h334q37 0 65 -24t33 -61zM233 667q-27 0 -46.5 -19.5t-19.5 -47.5v-400h50v417h414q-5 21 -23 35.5t-41 14.5
h-334zM383 367h167v133h-300v-300h133v167zM467 333h-50v-133h50v133zM467 33v50h-298q5 -21 23 -35.5t41 -14.5h234zM150 117h400v216h-50v-166h-367v414q-21 -5 -35.5 -23t-14.5 -41v-334q0 -27 19.5 -46.5t47.5 -19.5zM717 83h-84v417h-50v-467h134v50zM717 200v317
q0 27 -19.5 46.5t-47.5 19.5h-400v-50h417v-333h50z" />
    <glyph glyph-name="R" unicode="R" 
d="M665 615q37 -5 61 -33t24 -65v-84q0 -37 -24 -65t-61 -33q-5 -37 -33 -61t-65 -24h-67v-50h83v-83h84v-117h-284v83h-83v84h-50v-167h-200v617h83v83h434q37 0 65 -24t33 -61zM133 33v550h-50v-550h50zM217 33v584h414q-5 21 -23 35.5t-41 14.5h-400v-634h50zM250 417
v-50h300v50h-300zM250 450h300v50h-300v-50zM333 117h50v50h-50v-50zM550 167h-50v-134h133v50h-83v84zM467 33v217h-217v-50h167v-167h50zM567 283q27 0 46.5 19.5t19.5 47.5v150h-50v-167h-333v-50h317zM717 433v84q0 27 -19.5 46.5t-47.5 19.5h-400v-50h417v-164
q21 5 35.5 23t14.5 41z" />
    <glyph glyph-name="S" unicode="S" 
d="M135 615q5 37 33 61t65 24h517v-200h-500v-50h317q37 0 65 -24t33 -61q37 -5 61 -33t24 -65v-84q0 -37 -24 -65t-61 -33q-5 -37 -33 -61t-65 -24h-517v200h500v50h-317q-37 0 -65 24t-33 61q-37 5 -61 33t-24 65v84q0 37 24 65t61 33zM83 167v-50h467v50h-467zM567 33
q27 0 46.5 19.5t19.5 47.5v150h-50v-167h-500v-50h484zM567 417h-317v-50h381q-5 21 -23 35.5t-41 14.5zM217 333v167h-50v-150q0 -28 19.5 -47.5t46.5 -19.5h434v-164q21 5 35.5 23t14.5 41v84q0 27 -19.5 46.5t-47.5 19.5h-433zM717 533v50h-567q-28 0 -47.5 -19.5
t-19.5 -46.5v-84q0 -23 14.5 -41t35.5 -23v164h584zM717 617v50h-484q-23 0 -41 -14.5t-23 -35.5h548z" />
    <glyph glyph-name="T" unicode="T" 
d="M50 700h700v-200h-250v-500h-200v500h-250v200zM83 667v-50h300v50h-300zM467 33v467h-50v-467h50zM717 533v50h-217v-50h217zM717 667h-300v-84h-334v-50h250v-500h50v500h84v84h250v50z" />
    <glyph glyph-name="U" unicode="U" 
d="M550 700h200v-517q0 -37 -24 -65t-61 -33q-5 -37 -33 -61t-65 -24h-334q-37 0 -65 24t-33 61q-37 5 -61 33t-24 65v517h200v-500h300v500zM167 667v-467h50v467h-50zM83 183q0 -27 19.5 -46.5t47.5 -19.5h400v50h-417v500h-50v-484zM567 33q27 0 46.5 19.5t19.5 47.5v567
h-50v-584h-414q5 -21 23 -35.5t41 -14.5h334zM717 667h-50v-548q21 5 35.5 23t14.5 41v484z" />
    <glyph glyph-name="U" unicode="&#xdc;" 
d="M550 700h200v-517q0 -37 -24 -65t-61 -33q-5 -37 -33 -61t-65 -24h-334q-37 0 -65 24t-33 61q-37 5 -61 33t-24 65v517h200v-500h300v500zM167 667v-467h50v467h-50zM83 183q0 -27 19.5 -46.5t47.5 -19.5h400v50h-417v500h-50v-484zM567 33q27 0 46.5 19.5t19.5 47.5v567
h-50v-584h-414q5 -21 23 -35.5t41 -14.5h334zM717 667h-50v-548q21 5 35.5 23t14.5 41v484z" />
    <glyph glyph-name="U" unicode="&#xdb;" 
d="M550 700h200v-517q0 -37 -24 -65t-61 -33q-5 -37 -33 -61t-65 -24h-334q-37 0 -65 24t-33 61q-37 5 -61 33t-24 65v517h200v-500h300v500zM167 667v-467h50v467h-50zM83 183q0 -27 19.5 -46.5t47.5 -19.5h400v50h-417v500h-50v-484zM567 33q27 0 46.5 19.5t19.5 47.5v567
h-50v-584h-414q5 -21 23 -35.5t41 -14.5h334zM717 667h-50v-548q21 5 35.5 23t14.5 41v484z" />
    <glyph glyph-name="U" unicode="&#xda;" 
d="M550 700h200v-517q0 -37 -24 -65t-61 -33q-5 -37 -33 -61t-65 -24h-334q-37 0 -65 24t-33 61q-37 5 -61 33t-24 65v517h200v-500h300v500zM167 667v-467h50v467h-50zM83 183q0 -27 19.5 -46.5t47.5 -19.5h400v50h-417v500h-50v-484zM567 33q27 0 46.5 19.5t19.5 47.5v567
h-50v-584h-414q5 -21 23 -35.5t41 -14.5h334zM717 667h-50v-548q21 5 35.5 23t14.5 41v484z" />
    <glyph glyph-name="U" unicode="&#xd9;" 
d="M550 700h200v-517q0 -37 -24 -65t-61 -33q-5 -37 -33 -61t-65 -24h-334q-37 0 -65 24t-33 61q-37 5 -61 33t-24 65v517h200v-500h300v500zM167 667v-467h50v467h-50zM83 183q0 -27 19.5 -46.5t47.5 -19.5h400v50h-417v500h-50v-484zM567 33q27 0 46.5 19.5t19.5 47.5v567
h-50v-584h-414q5 -21 23 -35.5t41 -14.5h334zM717 667h-50v-548q21 5 35.5 23t14.5 41v484z" />
    <glyph glyph-name="V" unicode="V" 
d="M550 700h200v-367h-83v-83h-84v-167h-83v-83h-200v83h-83v167h-84v83h-83v367h200v-250h83v-250h134v250h83v250zM83 367h50v300h-50v-300zM167 283h50v384h-50v-384zM467 33v50h-134v-50h134zM550 117v50h-250v250h-50v-300h300zM550 200v217h-50v-217h50zM633 283v384
h-50v-384h50zM717 667h-50v-300h50v300z" />
    <glyph glyph-name="W" unicode="W" horiz-adv-x="967" 
d="M717 700h200v-517q0 -37 -24.5 -65t-60.5 -33q-6 -37 -34 -61t-65 -24h-83q-37 0 -65 24t-34 61q-43 6 -68 43q-24 -37 -68 -43q-5 -37 -33 -61t-65 -24h-84q-37 0 -65 24t-33 61q-37 5 -61 33t-24 65v517h200v-500h50v150q0 37 24 64.5t59 33.5v2h184q41 0 70.5 -29.5
t29.5 -70.5v-150h50v500zM167 667v-467h50v467h-50zM83 183q0 -27 19.5 -46.5t47.5 -19.5h150v50h-167v500h-50v-484zM317 33q27 0 46.5 19.5t19.5 47.5v315q-21 -6 -35.5 -24t-14.5 -41v-267h-164q5 -21 23 -35.5t41 -14.5h84zM417 119q21 5 35.5 23t14.5 41v184h116v-167
h50v150q0 28 -19.5 47.5t-46.5 19.5h-150v-298zM500 183q0 -27 19.5 -46.5t47.5 -19.5h150v50h-167v166h-50v-150zM733 33q28 0 47.5 19.5t19.5 47.5v567h-50v-584h-165q6 -21 24 -35.5t41 -14.5h83zM883 667h-50v-548q22 5 36 23t14 41v484z" />
    <glyph glyph-name="X" unicode="X" 
d="M633 617v83h117v-200h-83v-83h-84v-134h84v-83h83v-200h-117v83h-83v84h-83v83h-134v-83h-83v-84h-83v-83h-117v200h83v83h84v134h-84v83h-83v200h117v-83h83v-84h83v-83h134v83h83v84h83zM83 533h50v134h-50v-134zM167 450h50v133h-50v-133zM133 33v134h-50v-134h50z
M217 117v133h-50v-133h50zM300 200v133h-50v-133h50zM717 167h-50v-134h50v134zM633 250h-50v-133h50v133zM550 200v133h-167v84h-83v83h-50v-133h83v-84h167v-83h50zM417 367h133v133h-50v-83h-83v-50zM583 450h50v133h-50v-133zM667 667v-134h50v134h-50z" />
    <glyph glyph-name="Y" unicode="Y" 
d="M550 700h200v-200h-83v-83h-84v-84h-83v-333h-200v333h-83v84h-84v83h-83v200h200v-167h300v167zM83 533h50v134h-50v-134zM167 450h216v50h-166v167h-50v-217zM250 367h50v50h-50v-50zM467 33v300h-50v-300h50zM550 367v50h-217v-384h50v334h167zM633 450v217h-50v-167
h-166v-50h216zM717 667h-50v-134h50v134z" />
    <glyph glyph-name="Y" unicode="&#xdd;" 
d="M550 700h200v-200h-83v-83h-84v-84h-83v-333h-200v333h-83v84h-84v83h-83v200h200v-167h300v167zM83 533h50v134h-50v-134zM167 450h216v50h-166v167h-50v-217zM250 367h50v50h-50v-50zM467 33v300h-50v-300h50zM550 367v50h-217v-384h50v334h167zM633 450v217h-50v-167
h-166v-50h216zM717 667h-50v-134h50v134z" />
    <glyph glyph-name="Z" unicode="Z" 
d="M667 700v-83h83v-284h-83v-83h-334v-50h417v-200h-700v200h83v83h84v84h83v83h250v50h-500v200h617zM83 533h467v50h-467v-50zM583 617v-167h50v217h-550v-50h500zM717 33v50h-634v-50h634zM717 167h-634v-50h634v50zM300 200v50h-133v-50h133zM633 283v50h-383v-50h383z
M717 583h-50v-166h-334v-50h384v216z" />
    <glyph glyph-name="a" unicode="a" 
d="M665 615q37 -5 61 -33t24 -65v-517h-200v167h-300v-167h-200v617h83v83h434q37 0 65 -24t33 -61zM167 667v-384h383v50h-333v284h414q-5 21 -23 35.5t-41 14.5h-400zM250 500v-133h300v133h-300zM217 33v134h-50v-134h50zM133 200h500v300h-50v-250h-450v333h-50v-550h50
v167zM633 33v134h-50v-134h50zM717 33v484q0 27 -19.5 46.5t-47.5 19.5h-400v-50h417v-500h50z" />
    <glyph glyph-name="a" unicode="&#xe5;" 
d="M665 615q37 -5 61 -33t24 -65v-517h-200v167h-300v-167h-200v617h83v83h434q37 0 65 -24t33 -61zM167 667v-384h383v50h-333v284h414q-5 21 -23 35.5t-41 14.5h-400zM250 500v-133h300v133h-300zM217 33v134h-50v-134h50zM133 200h500v300h-50v-250h-450v333h-50v-550h50
v167zM633 33v134h-50v-134h50zM717 33v484q0 27 -19.5 46.5t-47.5 19.5h-400v-50h417v-500h50z" />
    <glyph glyph-name="a" unicode="&#xe4;" 
d="M665 615q37 -5 61 -33t24 -65v-517h-200v167h-300v-167h-200v617h83v83h434q37 0 65 -24t33 -61zM167 667v-384h383v50h-333v284h414q-5 21 -23 35.5t-41 14.5h-400zM250 500v-133h300v133h-300zM217 33v134h-50v-134h50zM133 200h500v300h-50v-250h-450v333h-50v-550h50
v167zM633 33v134h-50v-134h50zM717 33v484q0 27 -19.5 46.5t-47.5 19.5h-400v-50h417v-500h50z" />
    <glyph glyph-name="a" unicode="&#xe3;" 
d="M665 615q37 -5 61 -33t24 -65v-517h-200v167h-300v-167h-200v617h83v83h434q37 0 65 -24t33 -61zM167 667v-384h383v50h-333v284h414q-5 21 -23 35.5t-41 14.5h-400zM250 500v-133h300v133h-300zM217 33v134h-50v-134h50zM133 200h500v300h-50v-250h-450v333h-50v-550h50
v167zM633 33v134h-50v-134h50zM717 33v484q0 27 -19.5 46.5t-47.5 19.5h-400v-50h417v-500h50z" />
    <glyph glyph-name="a" unicode="&#xe2;" 
d="M665 615q37 -5 61 -33t24 -65v-517h-200v167h-300v-167h-200v617h83v83h434q37 0 65 -24t33 -61zM167 667v-384h383v50h-333v284h414q-5 21 -23 35.5t-41 14.5h-400zM250 500v-133h300v133h-300zM217 33v134h-50v-134h50zM133 200h500v300h-50v-250h-450v333h-50v-550h50
v167zM633 33v134h-50v-134h50zM717 33v484q0 27 -19.5 46.5t-47.5 19.5h-400v-50h417v-500h50z" />
    <glyph glyph-name="a" unicode="&#xe1;" 
d="M665 615q37 -5 61 -33t24 -65v-517h-200v167h-300v-167h-200v617h83v83h434q37 0 65 -24t33 -61zM167 667v-384h383v50h-333v284h414q-5 21 -23 35.5t-41 14.5h-400zM250 500v-133h300v133h-300zM217 33v134h-50v-134h50zM133 200h500v300h-50v-250h-450v333h-50v-550h50
v167zM633 33v134h-50v-134h50zM717 33v484q0 27 -19.5 46.5t-47.5 19.5h-400v-50h417v-500h50z" />
    <glyph glyph-name="a" unicode="&#xe0;" 
d="M665 615q37 -5 61 -33t24 -65v-517h-200v167h-300v-167h-200v617h83v83h434q37 0 65 -24t33 -61zM167 667v-384h383v50h-333v284h414q-5 21 -23 35.5t-41 14.5h-400zM250 500v-133h300v133h-300zM217 33v134h-50v-134h50zM133 200h500v300h-50v-250h-450v333h-50v-550h50
v167zM633 33v134h-50v-134h50zM717 33v484q0 27 -19.5 46.5t-47.5 19.5h-400v-50h417v-500h50z" />
    <glyph glyph-name="b" unicode="b" 
d="M133 0v83h-83v534h83v83h434q37 0 65 -24t33 -61q37 -5 61 -33t24 -65v-84q0 -53 -45 -83q45 -30 45 -83v-84q0 -37 -24 -65t-61 -33q-5 -37 -33 -61t-65 -24h-434zM567 33q27 0 46.5 19.5t19.5 47.5v150h-50v-167h-416v-50h400zM550 200v50h-300v-50h300zM717 183v84
q0 27 -19.5 46.5t-47.5 19.5h-483v-133h50v83h450v-164q21 5 35.5 23t14.5 41zM250 500v-50h300v50h-300zM583 500v-133h50v133h-50zM717 517q0 27 -19.5 46.5t-47.5 19.5h-400v-50h417v-164q21 5 35.5 23t14.5 41v84zM167 667v-300h383v50h-333v200h414q-5 21 -23 35.5
t-41 14.5h-400zM83 117h467v50h-417v416h-50v-466z" />
    <glyph glyph-name="c" unicode="c" 
d="M135 85q-37 5 -61 33t-24 65v334q0 37 24 65t61 33q5 37 33 61t65 24h334q37 0 65 -24t33 -61q37 -5 61 -33t24 -65v-100h-200v83h-300v-300h300v83h200v-100q0 -37 -24 -65t-61 -33q-5 -37 -33 -61t-65 -24h-334q-37 0 -65 24t-33 61zM667 250v-131q21 5 35.5 23
t14.5 41v67h-50zM583 250v-167h-414q5 -21 23 -35.5t41 -14.5h334q27 0 46.5 19.5t19.5 47.5v150h-50zM633 450v50h-50v-50h50zM717 517q0 27 -19.5 46.5t-47.5 19.5h-400v-50h417v-83h50v67zM233 667q-27 0 -46.5 -19.5t-19.5 -47.5v-400h50v417h414q-5 21 -23 35.5
t-41 14.5h-334zM83 517v-334q0 -27 19.5 -46.5t47.5 -19.5h400v50h-417v414q-21 -5 -35.5 -23t-14.5 -41z" />
    <glyph glyph-name="c" unicode="&#xe7;" 
d="M135 85q-37 5 -61 33t-24 65v334q0 37 24 65t61 33q5 37 33 61t65 24h334q37 0 65 -24t33 -61q37 -5 61 -33t24 -65v-100h-200v83h-300v-300h300v83h200v-100q0 -37 -24 -65t-61 -33q-5 -37 -33 -61t-65 -24h-334q-37 0 -65 24t-33 61zM667 250v-131q21 5 35.5 23
t14.5 41v67h-50zM583 250v-167h-414q5 -21 23 -35.5t41 -14.5h334q27 0 46.5 19.5t19.5 47.5v150h-50zM633 450v50h-50v-50h50zM717 517q0 27 -19.5 46.5t-47.5 19.5h-400v-50h417v-83h50v67zM233 667q-27 0 -46.5 -19.5t-19.5 -47.5v-400h50v417h414q-5 21 -23 35.5
t-41 14.5h-334zM83 517v-334q0 -27 19.5 -46.5t47.5 -19.5h400v50h-417v414q-21 -5 -35.5 -23t-14.5 -41z" />
    <glyph glyph-name="d" unicode="d" 
d="M665 615q37 -5 61 -33t24 -65v-334q0 -37 -24 -65t-61 -33q-5 -37 -33 -61t-65 -24h-517v700h517q37 0 65 -24t33 -61zM83 667v-50h548q-5 21 -23 35.5t-41 14.5h-484zM567 33q27 0 46.5 19.5t19.5 47.5v400h-50v-417h-500v-50h484zM217 200v300h-50v-300h50zM250 500
v-300h300v300h-300zM717 183v334q0 27 -19.5 46.5t-47.5 19.5h-567v-466h467v50h-417v366h534v-414q21 5 35.5 23t14.5 41z" />
    <glyph glyph-name="e" unicode="e" 
d="M133 617v83h617v-200h-500v-50h250v-200h-250v-50h500v-200h-617v83h-83v534h83zM717 33v50h-550v-50h550zM717 167h-584v416h-50v-466h634v50zM467 283v50h-217v-50h217zM717 533v50h-467v-50h467zM167 667v-467h50v167h250v50h-250v200h500v50h-550z" />
    <glyph glyph-name="e" unicode="&#xeb;" 
d="M133 617v83h617v-200h-500v-50h250v-200h-250v-50h500v-200h-617v83h-83v534h83zM717 33v50h-550v-50h550zM717 167h-584v416h-50v-466h634v50zM467 283v50h-217v-50h217zM717 533v50h-467v-50h467zM167 667v-467h50v167h250v50h-250v200h500v50h-550z" />
    <glyph glyph-name="e" unicode="&#xea;" 
d="M133 617v83h617v-200h-500v-50h250v-200h-250v-50h500v-200h-617v83h-83v534h83zM717 33v50h-550v-50h550zM717 167h-584v416h-50v-466h634v50zM467 283v50h-217v-50h217zM717 533v50h-467v-50h467zM167 667v-467h50v167h250v50h-250v200h500v50h-550z" />
    <glyph glyph-name="e" unicode="&#xe9;" 
d="M133 617v83h617v-200h-500v-50h250v-200h-250v-50h500v-200h-617v83h-83v534h83zM717 33v50h-550v-50h550zM717 167h-584v416h-50v-466h634v50zM467 283v50h-217v-50h217zM717 533v50h-467v-50h467zM167 667v-467h50v167h250v50h-250v200h500v50h-550z" />
    <glyph glyph-name="e" unicode="&#xe8;" 
d="M133 617v83h617v-200h-500v-50h250v-200h-250v-50h500v-200h-617v83h-83v534h83zM717 33v50h-550v-50h550zM717 167h-584v416h-50v-466h634v50zM467 283v50h-217v-50h217zM717 533v50h-467v-50h467zM167 667v-467h50v167h250v50h-250v200h500v50h-550z" />
    <glyph glyph-name="f" unicode="f" 
d="M133 617v83h617v-200h-500v-50h250v-200h-250v-250h-200v617h83zM467 283v50h-300v-300h50v250h250zM467 417h-334v166h-50v-550h50v334h334v50zM717 533v50h-467v-50h467zM167 667v-217h50v167h500v50h-550z" />
    <glyph glyph-name="g" unicode="g" 
d="M567 700q36 0 64 -24t34 -59h85v-117h-500v-300h300v50h-167v200h267q41 0 70.5 -29.5t29.5 -70.5v-167q0 -37 -24 -65t-61 -33q-5 -37 -33 -61t-65 -24h-334q-37 0 -65 24t-33 61q-37 5 -61 33t-24 65v334q0 37 24 65t61 33q5 37 33 61t65 24h334zM417 417v-50h250v-248
q21 5 35.5 23t14.5 41v167q0 28 -19.5 47.5t-47.5 19.5h-233zM417 283h166v-200h-414q5 -21 23 -35.5t41 -14.5h334q27 0 46.5 19.5t19.5 47.5v233h-216v-50zM550 167h-417v414q-21 -5 -35.5 -23t-14.5 -41v-334q0 -27 19.5 -46.5t47.5 -19.5h400v50zM217 200v417h414
q-5 21 -23 35.5t-41 14.5h-334q-27 0 -46.5 -19.5t-19.5 -47.5v-400h50zM717 533v50h-467v-50h467z" />
    <glyph glyph-name="h" unicode="h" 
d="M550 700h200v-700h-200v250h-300v-250h-200v700h200v-250h300v250zM583 667v-217h50v217h-50zM217 33v217h-50v-217h50zM633 33v300h-500v334h-50v-634h50v250h450v-250h50zM717 667h-50v-250h-450v250h-50v-300h500v-334h50v634z" />
    <glyph glyph-name="i" unicode="i" horiz-adv-x="467" 
d="M417 200v-200h-367v200h83v300h-83v200h367v-200h-84v-300h84zM383 533v50h-50v-50h50zM83 667v-50h167v-500h133v50h-83v450h83v50h-300zM83 167v-50h50v50h-50zM383 33v50h-166v500h-134v-50h84v-450h-84v-50h300z" />
    <glyph glyph-name="i" unicode="&#xef;" horiz-adv-x="467" 
d="M417 200v-200h-367v200h83v300h-83v200h367v-200h-84v-300h84zM383 533v50h-50v-50h50zM83 667v-50h167v-500h133v50h-83v450h83v50h-300zM83 167v-50h50v50h-50zM383 33v50h-166v500h-134v-50h84v-450h-84v-50h300z" />
    <glyph glyph-name="i" unicode="&#xee;" horiz-adv-x="467" 
d="M417 200v-200h-367v200h83v300h-83v200h367v-200h-84v-300h84zM383 533v50h-50v-50h50zM83 667v-50h167v-500h133v50h-83v450h83v50h-300zM83 167v-50h50v50h-50zM383 33v50h-166v500h-134v-50h84v-450h-84v-50h300z" />
    <glyph glyph-name="i" unicode="&#xed;" horiz-adv-x="467" 
d="M417 200v-200h-367v200h83v300h-83v200h367v-200h-84v-300h84zM383 533v50h-50v-50h50zM83 667v-50h167v-500h133v50h-83v450h83v50h-300zM83 167v-50h50v50h-50zM383 33v50h-166v500h-134v-50h84v-450h-84v-50h300z" />
    <glyph glyph-name="i" unicode="&#xec;" horiz-adv-x="467" 
d="M417 200v-200h-367v200h83v300h-83v200h367v-200h-84v-300h84zM383 533v50h-50v-50h50zM83 667v-50h167v-500h133v50h-83v450h83v50h-300zM83 167v-50h50v50h-50zM383 33v50h-166v500h-134v-50h84v-450h-84v-50h300z" />
    <glyph glyph-name="j" unicode="j" horiz-adv-x="550" 
d="M415 85q-5 -37 -33 -61t-65 -24h-267v200h250v300h-167v200h284v-83h83v-434q0 -37 -24 -65t-61 -33zM167 667v-50h216v50h-216zM167 533h250v-414q21 5 35.5 23t14.5 41v400h-300v-50zM83 167v-50h217v50h-217zM83 83v-50h234q27 0 46.5 19.5t19.5 47.5v400h-50v-417
h-250z" />
    <glyph glyph-name="k" unicode="k" 
d="M417 417v-134h83v-83h83v-83h167v-117h-283v83h-84v84h-83v83h-50v-250h-200v700h200v-250h50v83h83v84h84v83h283v-117h-167v-83h-83v-83h-83zM333 417h-166v-50h216v83h84v83h83v84h167v50h-217v-84h-83v-83h-84v-83zM167 667v-217h50v217h-50zM133 33v217h-50v-217h50
zM217 33v217h-50v-217h50zM467 250h-84v83h-250v334h-50v-384h250v-83h84v-83h83v-84h217v50h-167v84h-83v83z" />
    <glyph glyph-name="l" unicode="l" 
d="M135 85q-37 5 -61 33t-24 65v517h200v-500h500v-200h-517q-37 0 -65 24t-33 61zM717 33v50h-548q5 -21 23 -35.5t41 -14.5h484zM167 667v-467h50v467h-50zM83 667v-484q0 -27 19.5 -46.5t47.5 -19.5h567v50h-584v500h-50z" />
    <glyph glyph-name="m" unicode="m" horiz-adv-x="967" 
d="M832 615q36 -5 60.5 -33t24.5 -65v-517h-200v500h-50v-150q0 -37 -24 -64.5t-60 -33.5v-2h-183q-41 0 -70.5 29.5t-29.5 70.5v150h-50v-500h-200v517q0 37 24 65t61 33q5 37 33 61t65 24h84q37 0 65 -24t33 -61q44 -6 68 -43q25 37 68 43q6 37 34 61t65 24h83
q37 0 65 -24t34 -61zM133 33v548q-21 -5 -35.5 -23t-14.5 -41v-484h50zM217 33v584h164q-5 21 -23 35.5t-41 14.5h-84q-27 0 -46.5 -19.5t-19.5 -47.5v-567h50zM250 533h167v-166h50v150q0 27 -19.5 46.5t-47.5 19.5h-150v-50zM550 283v298q-22 -5 -36 -23t-14 -41v-184
h-117v167h-50v-150q0 -28 19.5 -47.5t47.5 -19.5h150zM633 350v267h165q-6 21 -24 35.5t-41 14.5h-83q-28 0 -47.5 -19.5t-19.5 -47.5v-315q22 6 36 24t14 41zM800 33v467h-50v-467h50zM883 33v484q0 27 -19.5 46.5t-46.5 19.5h-150v-50h166v-500h50z" />
    <glyph glyph-name="n" unicode="n" 
d="M550 700h200v-700h-200v250h-83v83h-84v84h-83v83h-50v-500h-200v617h83v83h284v-83h83v-84h50v167zM583 667v-217h50v217h-50zM133 33v550h-50v-550h50zM217 33v584h166v50h-216v-634h50zM250 533h217v50h-217v-50zM333 450h217v50h-217v-50zM633 33v300h-133v-50h83
v-250h50zM717 33v300h-50v-300h50zM717 667h-50v-250h-250v-50h300v300z" />
    <glyph glyph-name="n" unicode="&#xf1;" 
d="M550 700h200v-700h-200v250h-83v83h-84v84h-83v83h-50v-500h-200v617h83v83h284v-83h83v-84h50v167zM583 667v-217h50v217h-50zM133 33v550h-50v-550h50zM217 33v584h166v50h-216v-634h50zM250 533h217v50h-217v-50zM333 450h217v50h-217v-50zM633 33v300h-133v-50h83
v-250h50zM717 33v300h-50v-300h50zM717 667h-50v-250h-250v-50h300v300z" />
    <glyph glyph-name="o" unicode="o" 
d="M665 615q37 -5 61 -33t24 -65v-334q0 -37 -24 -65t-61 -33q-5 -37 -33 -61t-65 -24h-334q-37 0 -65 24t-33 61q-37 5 -61 33t-24 65v334q0 37 24 65t61 33q5 37 33 61t65 24h334q37 0 65 -24t33 -61zM233 667q-27 0 -46.5 -19.5t-19.5 -47.5v-400h50v417h414
q-5 21 -23 35.5t-41 14.5h-334zM250 500v-300h300v300h-300zM83 183q0 -27 19.5 -46.5t47.5 -19.5h400v50h-417v414q-21 -5 -35.5 -23t-14.5 -41v-334zM567 33q27 0 46.5 19.5t19.5 47.5v400h-50v-417h-414q5 -21 23 -35.5t41 -14.5h334zM717 183v334q0 27 -19.5 46.5
t-47.5 19.5h-400v-50h417v-414q21 5 35.5 23t14.5 41z" />
    <glyph glyph-name="o" unicode="&#xf8;" 
d="M665 615q37 -5 61 -33t24 -65v-334q0 -37 -24 -65t-61 -33q-5 -37 -33 -61t-65 -24h-334q-37 0 -65 24t-33 61q-37 5 -61 33t-24 65v334q0 37 24 65t61 33q5 37 33 61t65 24h334q37 0 65 -24t33 -61zM233 667q-27 0 -46.5 -19.5t-19.5 -47.5v-400h50v417h414
q-5 21 -23 35.5t-41 14.5h-334zM250 500v-300h300v300h-300zM83 183q0 -27 19.5 -46.5t47.5 -19.5h400v50h-417v414q-21 -5 -35.5 -23t-14.5 -41v-334zM567 33q27 0 46.5 19.5t19.5 47.5v400h-50v-417h-414q5 -21 23 -35.5t41 -14.5h334zM717 183v334q0 27 -19.5 46.5
t-47.5 19.5h-400v-50h417v-414q21 5 35.5 23t14.5 41z" />
    <glyph glyph-name="o" unicode="&#xf6;" 
d="M665 615q37 -5 61 -33t24 -65v-334q0 -37 -24 -65t-61 -33q-5 -37 -33 -61t-65 -24h-334q-37 0 -65 24t-33 61q-37 5 -61 33t-24 65v334q0 37 24 65t61 33q5 37 33 61t65 24h334q37 0 65 -24t33 -61zM233 667q-27 0 -46.5 -19.5t-19.5 -47.5v-400h50v417h414
q-5 21 -23 35.5t-41 14.5h-334zM250 500v-300h300v300h-300zM83 183q0 -27 19.5 -46.5t47.5 -19.5h400v50h-417v414q-21 -5 -35.5 -23t-14.5 -41v-334zM567 33q27 0 46.5 19.5t19.5 47.5v400h-50v-417h-414q5 -21 23 -35.5t41 -14.5h334zM717 183v334q0 27 -19.5 46.5
t-47.5 19.5h-400v-50h417v-414q21 5 35.5 23t14.5 41z" />
    <glyph glyph-name="o" unicode="&#xf5;" 
d="M665 615q37 -5 61 -33t24 -65v-334q0 -37 -24 -65t-61 -33q-5 -37 -33 -61t-65 -24h-334q-37 0 -65 24t-33 61q-37 5 -61 33t-24 65v334q0 37 24 65t61 33q5 37 33 61t65 24h334q37 0 65 -24t33 -61zM233 667q-27 0 -46.5 -19.5t-19.5 -47.5v-400h50v417h414
q-5 21 -23 35.5t-41 14.5h-334zM250 500v-300h300v300h-300zM83 183q0 -27 19.5 -46.5t47.5 -19.5h400v50h-417v414q-21 -5 -35.5 -23t-14.5 -41v-334zM567 33q27 0 46.5 19.5t19.5 47.5v400h-50v-417h-414q5 -21 23 -35.5t41 -14.5h334zM717 183v334q0 27 -19.5 46.5
t-47.5 19.5h-400v-50h417v-414q21 5 35.5 23t14.5 41z" />
    <glyph glyph-name="o" unicode="&#xf4;" 
d="M665 615q37 -5 61 -33t24 -65v-334q0 -37 -24 -65t-61 -33q-5 -37 -33 -61t-65 -24h-334q-37 0 -65 24t-33 61q-37 5 -61 33t-24 65v334q0 37 24 65t61 33q5 37 33 61t65 24h334q37 0 65 -24t33 -61zM233 667q-27 0 -46.5 -19.5t-19.5 -47.5v-400h50v417h414
q-5 21 -23 35.5t-41 14.5h-334zM250 500v-300h300v300h-300zM83 183q0 -27 19.5 -46.5t47.5 -19.5h400v50h-417v414q-21 -5 -35.5 -23t-14.5 -41v-334zM567 33q27 0 46.5 19.5t19.5 47.5v400h-50v-417h-414q5 -21 23 -35.5t41 -14.5h334zM717 183v334q0 27 -19.5 46.5
t-47.5 19.5h-400v-50h417v-414q21 5 35.5 23t14.5 41z" />
    <glyph glyph-name="o" unicode="&#xf3;" 
d="M665 615q37 -5 61 -33t24 -65v-334q0 -37 -24 -65t-61 -33q-5 -37 -33 -61t-65 -24h-334q-37 0 -65 24t-33 61q-37 5 -61 33t-24 65v334q0 37 24 65t61 33q5 37 33 61t65 24h334q37 0 65 -24t33 -61zM233 667q-27 0 -46.5 -19.5t-19.5 -47.5v-400h50v417h414
q-5 21 -23 35.5t-41 14.5h-334zM250 500v-300h300v300h-300zM83 183q0 -27 19.5 -46.5t47.5 -19.5h400v50h-417v414q-21 -5 -35.5 -23t-14.5 -41v-334zM567 33q27 0 46.5 19.5t19.5 47.5v400h-50v-417h-414q5 -21 23 -35.5t41 -14.5h334zM717 183v334q0 27 -19.5 46.5
t-47.5 19.5h-400v-50h417v-414q21 5 35.5 23t14.5 41z" />
    <glyph glyph-name="o" unicode="&#xf2;" 
d="M665 615q37 -5 61 -33t24 -65v-334q0 -37 -24 -65t-61 -33q-5 -37 -33 -61t-65 -24h-334q-37 0 -65 24t-33 61q-37 5 -61 33t-24 65v334q0 37 24 65t61 33q5 37 33 61t65 24h334q37 0 65 -24t33 -61zM233 667q-27 0 -46.5 -19.5t-19.5 -47.5v-400h50v417h414
q-5 21 -23 35.5t-41 14.5h-334zM250 500v-300h300v300h-300zM83 183q0 -27 19.5 -46.5t47.5 -19.5h400v50h-417v414q-21 -5 -35.5 -23t-14.5 -41v-334zM567 33q27 0 46.5 19.5t19.5 47.5v400h-50v-417h-414q5 -21 23 -35.5t41 -14.5h334zM717 183v334q0 27 -19.5 46.5
t-47.5 19.5h-400v-50h417v-414q21 5 35.5 23t14.5 41z" />
    <glyph glyph-name="p" unicode="p" 
d="M665 615q37 -5 61 -33t24 -65v-167q0 -37 -24 -65t-61 -34q-5 -36 -33 -60t-65 -24h-317v-167h-200v617h83v83h434q37 0 65 -24t33 -61zM133 33v550h-50v-550h50zM217 33v584h414q-5 21 -23 35.5t-41 14.5h-400v-634h50zM250 333v-50h300v50h-300zM250 367h300v133h-300
v-133zM567 200q27 0 46.5 19.5t19.5 47.5v233h-50v-250h-333v-50h317zM717 350v167q0 27 -19.5 46.5t-47.5 19.5h-400v-50h417v-248q21 6 35.5 24t14.5 41z" />
    <glyph glyph-name="q" unicode="q" 
d="M665 615q37 -5 61 -33t24 -65v-350h-83v-50h83v-117h-200v83h-50v-83h-267q-37 0 -65 24t-33 61q-37 5 -61 33t-24 65v334q0 37 24 65t61 33q5 37 33 61t65 24h334q37 0 65 -24t33 -61zM233 667q-27 0 -46.5 -19.5t-19.5 -47.5v-400h50v417h414q-5 21 -23 35.5t-41 14.5
h-334zM383 367h167v133h-300v-300h133v167zM467 333h-50v-133h50v133zM467 33v50h-298q5 -21 23 -35.5t41 -14.5h234zM150 117h400v216h-50v-166h-367v414q-21 -5 -35.5 -23t-14.5 -41v-334q0 -27 19.5 -46.5t47.5 -19.5zM717 83h-84v417h-50v-467h134v50zM717 200v317
q0 27 -19.5 46.5t-47.5 19.5h-400v-50h417v-333h50z" />
    <glyph glyph-name="r" unicode="r" 
d="M665 615q37 -5 61 -33t24 -65v-84q0 -37 -24 -65t-61 -33q-5 -37 -33 -61t-65 -24h-67v-50h83v-83h84v-117h-284v83h-83v84h-50v-167h-200v617h83v83h434q37 0 65 -24t33 -61zM133 33v550h-50v-550h50zM217 33v584h414q-5 21 -23 35.5t-41 14.5h-400v-634h50zM250 417
v-50h300v50h-300zM250 450h300v50h-300v-50zM333 117h50v50h-50v-50zM550 167h-50v-134h133v50h-83v84zM467 33v217h-217v-50h167v-167h50zM567 283q27 0 46.5 19.5t19.5 47.5v150h-50v-167h-333v-50h317zM717 433v84q0 27 -19.5 46.5t-47.5 19.5h-400v-50h417v-164
q21 5 35.5 23t14.5 41z" />
    <glyph glyph-name="s" unicode="s" 
d="M135 615q5 37 33 61t65 24h517v-200h-500v-50h317q37 0 65 -24t33 -61q37 -5 61 -33t24 -65v-84q0 -37 -24 -65t-61 -33q-5 -37 -33 -61t-65 -24h-517v200h500v50h-317q-37 0 -65 24t-33 61q-37 5 -61 33t-24 65v84q0 37 24 65t61 33zM83 167v-50h467v50h-467zM567 33
q27 0 46.5 19.5t19.5 47.5v150h-50v-167h-500v-50h484zM567 417h-317v-50h381q-5 21 -23 35.5t-41 14.5zM217 333v167h-50v-150q0 -28 19.5 -47.5t46.5 -19.5h434v-164q21 5 35.5 23t14.5 41v84q0 27 -19.5 46.5t-47.5 19.5h-433zM717 533v50h-567q-28 0 -47.5 -19.5
t-19.5 -46.5v-84q0 -23 14.5 -41t35.5 -23v164h584zM717 617v50h-484q-23 0 -41 -14.5t-23 -35.5h548z" />
    <glyph glyph-name="s" unicode="&#xdf;" 
d="M135 615q5 37 33 61t65 24h517v-200h-500v-50h317q37 0 65 -24t33 -61q37 -5 61 -33t24 -65v-84q0 -37 -24 -65t-61 -33q-5 -37 -33 -61t-65 -24h-517v200h500v50h-317q-37 0 -65 24t-33 61q-37 5 -61 33t-24 65v84q0 37 24 65t61 33zM83 167v-50h467v50h-467zM567 33
q27 0 46.5 19.5t19.5 47.5v150h-50v-167h-500v-50h484zM567 417h-317v-50h381q-5 21 -23 35.5t-41 14.5zM217 333v167h-50v-150q0 -28 19.5 -47.5t46.5 -19.5h434v-164q21 5 35.5 23t14.5 41v84q0 27 -19.5 46.5t-47.5 19.5h-433zM717 533v50h-567q-28 0 -47.5 -19.5
t-19.5 -46.5v-84q0 -23 14.5 -41t35.5 -23v164h584zM717 617v50h-484q-23 0 -41 -14.5t-23 -35.5h548z" />
    <glyph glyph-name="t" unicode="t" 
d="M50 700h700v-200h-250v-500h-200v500h-250v200zM83 667v-50h300v50h-300zM467 33v467h-50v-467h50zM717 533v50h-217v-50h217zM717 667h-300v-84h-334v-50h250v-500h50v500h84v84h250v50z" />
    <glyph glyph-name="u" unicode="u" 
d="M550 700h200v-517q0 -37 -24 -65t-61 -33q-5 -37 -33 -61t-65 -24h-334q-37 0 -65 24t-33 61q-37 5 -61 33t-24 65v517h200v-500h300v500zM167 667v-467h50v467h-50zM83 183q0 -27 19.5 -46.5t47.5 -19.5h400v50h-417v500h-50v-484zM567 33q27 0 46.5 19.5t19.5 47.5v567
h-50v-584h-414q5 -21 23 -35.5t41 -14.5h334zM717 667h-50v-548q21 5 35.5 23t14.5 41v484z" />
    <glyph glyph-name="u" unicode="&#xfc;" 
d="M550 700h200v-517q0 -37 -24 -65t-61 -33q-5 -37 -33 -61t-65 -24h-334q-37 0 -65 24t-33 61q-37 5 -61 33t-24 65v517h200v-500h300v500zM167 667v-467h50v467h-50zM83 183q0 -27 19.5 -46.5t47.5 -19.5h400v50h-417v500h-50v-484zM567 33q27 0 46.5 19.5t19.5 47.5v567
h-50v-584h-414q5 -21 23 -35.5t41 -14.5h334zM717 667h-50v-548q21 5 35.5 23t14.5 41v484z" />
    <glyph glyph-name="u" unicode="&#xfb;" 
d="M550 700h200v-517q0 -37 -24 -65t-61 -33q-5 -37 -33 -61t-65 -24h-334q-37 0 -65 24t-33 61q-37 5 -61 33t-24 65v517h200v-500h300v500zM167 667v-467h50v467h-50zM83 183q0 -27 19.5 -46.5t47.5 -19.5h400v50h-417v500h-50v-484zM567 33q27 0 46.5 19.5t19.5 47.5v567
h-50v-584h-414q5 -21 23 -35.5t41 -14.5h334zM717 667h-50v-548q21 5 35.5 23t14.5 41v484z" />
    <glyph glyph-name="u" unicode="&#xfa;" 
d="M550 700h200v-517q0 -37 -24 -65t-61 -33q-5 -37 -33 -61t-65 -24h-334q-37 0 -65 24t-33 61q-37 5 -61 33t-24 65v517h200v-500h300v500zM167 667v-467h50v467h-50zM83 183q0 -27 19.5 -46.5t47.5 -19.5h400v50h-417v500h-50v-484zM567 33q27 0 46.5 19.5t19.5 47.5v567
h-50v-584h-414q5 -21 23 -35.5t41 -14.5h334zM717 667h-50v-548q21 5 35.5 23t14.5 41v484z" />
    <glyph glyph-name="u" unicode="&#xf9;" 
d="M550 700h200v-517q0 -37 -24 -65t-61 -33q-5 -37 -33 -61t-65 -24h-334q-37 0 -65 24t-33 61q-37 5 -61 33t-24 65v517h200v-500h300v500zM167 667v-467h50v467h-50zM83 183q0 -27 19.5 -46.5t47.5 -19.5h400v50h-417v500h-50v-484zM567 33q27 0 46.5 19.5t19.5 47.5v567
h-50v-584h-414q5 -21 23 -35.5t41 -14.5h334zM717 667h-50v-548q21 5 35.5 23t14.5 41v484z" />
    <glyph glyph-name="v" unicode="v" 
d="M550 700h200v-367h-83v-83h-84v-167h-83v-83h-200v83h-83v167h-84v83h-83v367h200v-250h83v-250h134v250h83v250zM83 367h50v300h-50v-300zM167 283h50v384h-50v-384zM467 33v50h-134v-50h134zM550 117v50h-250v250h-50v-300h300zM550 200v217h-50v-217h50zM633 283v384
h-50v-384h50zM717 667h-50v-300h50v300z" />
    <glyph glyph-name="w" unicode="w" horiz-adv-x="967" 
d="M717 700h200v-517q0 -37 -24.5 -65t-60.5 -33q-6 -37 -34 -61t-65 -24h-83q-37 0 -65 24t-34 61q-43 6 -68 43q-24 -37 -68 -43q-5 -37 -33 -61t-65 -24h-84q-37 0 -65 24t-33 61q-37 5 -61 33t-24 65v517h200v-500h50v150q0 37 24 64.5t59 33.5v2h184q41 0 70.5 -29.5
t29.5 -70.5v-150h50v500zM167 667v-467h50v467h-50zM83 183q0 -27 19.5 -46.5t47.5 -19.5h150v50h-167v500h-50v-484zM317 33q27 0 46.5 19.5t19.5 47.5v315q-21 -6 -35.5 -24t-14.5 -41v-267h-164q5 -21 23 -35.5t41 -14.5h84zM417 119q21 5 35.5 23t14.5 41v184h116v-167
h50v150q0 28 -19.5 47.5t-46.5 19.5h-150v-298zM500 183q0 -27 19.5 -46.5t47.5 -19.5h150v50h-167v166h-50v-150zM733 33q28 0 47.5 19.5t19.5 47.5v567h-50v-584h-165q6 -21 24 -35.5t41 -14.5h83zM883 667h-50v-548q22 5 36 23t14 41v484z" />
    <glyph glyph-name="x" unicode="x" 
d="M633 617v83h117v-200h-83v-83h-84v-134h84v-83h83v-200h-117v83h-83v84h-83v83h-134v-83h-83v-84h-83v-83h-117v200h83v83h84v134h-84v83h-83v200h117v-83h83v-84h83v-83h134v83h83v84h83zM83 533h50v134h-50v-134zM167 450h50v133h-50v-133zM133 33v134h-50v-134h50z
M217 117v133h-50v-133h50zM300 200v133h-50v-133h50zM717 167h-50v-134h50v134zM633 250h-50v-133h50v133zM550 200v133h-167v84h-83v83h-50v-133h83v-84h167v-83h50zM417 367h133v133h-50v-83h-83v-50zM583 450h50v133h-50v-133zM667 667v-134h50v134h-50z" />
    <glyph glyph-name="y" unicode="y" 
d="M550 700h200v-200h-83v-83h-84v-84h-83v-333h-200v333h-83v84h-84v83h-83v200h200v-167h300v167zM83 533h50v134h-50v-134zM167 450h216v50h-166v167h-50v-217zM250 367h50v50h-50v-50zM467 33v300h-50v-300h50zM550 367v50h-217v-384h50v334h167zM633 450v217h-50v-167
h-166v-50h216zM717 667h-50v-134h50v134z" />
    <glyph glyph-name="y" unicode="&#xff;" 
d="M550 700h200v-200h-83v-83h-84v-84h-83v-333h-200v333h-83v84h-84v83h-83v200h200v-167h300v167zM83 533h50v134h-50v-134zM167 450h216v50h-166v167h-50v-217zM250 367h50v50h-50v-50zM467 33v300h-50v-300h50zM550 367v50h-217v-384h50v334h167zM633 450v217h-50v-167
h-166v-50h216zM717 667h-50v-134h50v134z" />
    <glyph glyph-name="y" unicode="&#xfd;" 
d="M550 700h200v-200h-83v-83h-84v-84h-83v-333h-200v333h-83v84h-84v83h-83v200h200v-167h300v167zM83 533h50v134h-50v-134zM167 450h216v50h-166v167h-50v-217zM250 367h50v50h-50v-50zM467 33v300h-50v-300h50zM550 367v50h-217v-384h50v334h167zM633 450v217h-50v-167
h-166v-50h216zM717 667h-50v-134h50v134z" />
    <glyph glyph-name="z" unicode="z" 
d="M667 700v-83h83v-284h-83v-83h-334v-50h417v-200h-700v200h83v83h84v84h83v83h250v50h-500v200h617zM83 533h467v50h-467v-50zM583 617v-167h50v217h-550v-50h500zM717 33v50h-634v-50h634zM717 167h-634v-50h634v50zM300 200v50h-133v-50h133zM633 283v50h-383v-50h383z
M717 583h-50v-166h-334v-50h384v216z" />
    <glyph glyph-name="nonbreakingspace" unicode="&#xa0;" horiz-adv-x="395" 
 />
    <glyph glyph-name="softhyphen" unicode="&#xad;" horiz-adv-x="0" 
 />
  </font>
</defs>
</svg>
