<?xml version="1.0" standalone="no"?>
<!DOCTYPE svg PUBLIC "-//W3C//DTD SVG 1.1//EN" "http://www.w3.org/Graphics/SVG/1.1/DTD/svg11.dtd" >
<svg>
<metadata>
Created by FontForge 20120731 at Mon Mar 25 17:01:55 2019
 By www-data
Typeface (c) (your company). 2019. All Rights Reserved
</metadata>
<defs>
<font id="MakawFree" horiz-adv-x="1014" >
  <font-face 
    font-family="Makaw Free"
    font-weight="400"
    font-stretch="normal"
    units-per-em="2048"
    panose-1="2 0 5 0 0 0 0 0 0 0"
    ascent="1638"
    descent="-410"
    x-height="1522.5"
    cap-height="1429"
    bbox="0 -418 1146 1843.73"
    underline-thickness="150"
    underline-position="-142"
    unicode-range="U+001D-00FF"
  />
<missing-glyph horiz-adv-x="1024" 
d="M100 0v1434h824v-1434h-824zM150 50h724v1334h-724v-1334zM325 1148q31 28 58 43q53 30 112 30q92 0 148 -47.5t56 -127.5q0 -49 -23 -98.5t-87 -129.5q-63 -80 -99 -132t-36 -99q0 -38 24 -133h-32q-35 97 -35 148q0 76 81.5 218t81.5 217q0 57 -33 90t-91 33
q-38 0 -69 -17q-26 -15 -56 -40v45zM389 334l57 58q11 10 20 10q10 0 22 -11l56 -60q9 -11 9 -20q0 -11 -10 -22l-56 -62q-14 -14 -21 -14q-11 0 -20 10l-61 71q-7 9 -7 18q0 10 11 22z" />
    <glyph glyph-name=".notdef" horiz-adv-x="1024" 
d="M100 0v1434h824v-1434h-824zM150 50h724v1334h-724v-1334zM325 1148q31 28 58 43q53 30 112 30q92 0 148 -47.5t56 -127.5q0 -49 -23 -98.5t-87 -129.5q-63 -80 -99 -132t-36 -99q0 -38 24 -133h-32q-35 97 -35 148q0 76 81.5 218t81.5 217q0 57 -33 90t-91 33
q-38 0 -69 -17q-26 -15 -56 -40v45zM389 334l57 58q11 10 20 10q10 0 22 -11l56 -60q9 -11 9 -20q0 -11 -10 -22l-56 -62q-14 -14 -21 -14q-11 0 -20 10l-61 71q-7 9 -7 18q0 10 11 22z" />
    <glyph glyph-name="uni0000" horiz-adv-x="0" 
 />
    <glyph glyph-name="uni0000" horiz-adv-x="0" 
 />
    <glyph glyph-name="nonmarkingreturn" horiz-adv-x="508" 
 />
    <glyph glyph-name="space" unicode=" " horiz-adv-x="508" 
 />
    <glyph glyph-name="space" unicode="&#xa0;" horiz-adv-x="508" 
 />
    <glyph glyph-name="exclam" unicode="!" horiz-adv-x="672" 
 />
    <glyph glyph-name="quotedbl" unicode="&#x22;" horiz-adv-x="672" 
 />
    <glyph glyph-name="numbersign" unicode="#" horiz-adv-x="1336" 
 />
    <glyph glyph-name="dollar" unicode="$" 
 />
    <glyph glyph-name="percent" unicode="%" horiz-adv-x="1610" 
 />
    <glyph glyph-name="ampersand" unicode="&#x26;" horiz-adv-x="1683" 
 />
    <glyph glyph-name="quotesingle" unicode="'" horiz-adv-x="346" 
 />
    <glyph glyph-name="parenleft" unicode="(" horiz-adv-x="758" 
 />
    <glyph glyph-name="parenright" unicode=")" horiz-adv-x="758" 
 />
    <glyph glyph-name="asterisk" unicode="*" horiz-adv-x="1024" 
 />
    <glyph glyph-name="plus" unicode="+" 
 />
    <glyph glyph-name="comma" unicode="," horiz-adv-x="557" 
 />
    <glyph glyph-name="hyphen" unicode="-" horiz-adv-x="670" 
 />
    <glyph glyph-name="hyphen" unicode="&#xad;" horiz-adv-x="670" 
 />
    <glyph glyph-name="period" unicode="." horiz-adv-x="557" 
 />
    <glyph glyph-name="slash" unicode="/" horiz-adv-x="569" 
 />
    <glyph glyph-name="zero" unicode="0" 
 />
    <glyph glyph-name="one" unicode="1" 
 />
    <glyph glyph-name="two" unicode="2" 
 />
    <glyph glyph-name="three" unicode="3" 
 />
    <glyph glyph-name="four" unicode="4" 
 />
    <glyph glyph-name="five" unicode="5" 
 />
    <glyph glyph-name="six" unicode="6" 
 />
    <glyph glyph-name="seven" unicode="7" 
 />
    <glyph glyph-name="eight" unicode="8" 
 />
    <glyph glyph-name="nine" unicode="9" 
 />
    <glyph glyph-name="colon" unicode=":" horiz-adv-x="557" 
 />
    <glyph glyph-name="semicolon" unicode=";" horiz-adv-x="557" 
 />
    <glyph glyph-name="semicolon" unicode="&#x37e;" horiz-adv-x="557" 
 />
    <glyph glyph-name="less" unicode="&#x3c;" 
 />
    <glyph glyph-name="equal" unicode="=" 
 />
    <glyph glyph-name="greater" unicode="&#x3e;" 
 />
    <glyph glyph-name="question" unicode="?" horiz-adv-x="748" 
 />
    <glyph glyph-name="at" unicode="@" horiz-adv-x="2019" 
 />
    <glyph glyph-name="A" unicode="A" horiz-adv-x="826" 
d="M752 -149v0q29 1 49.5 20.5t23.5 49.5q1 39 -15 75q-5 12 -9 24q-23 60 -49 118q-31 70 -49 144q-6 21 -13 43q-3 13 -5 28q-2 9 -4 19q-10 31 15 55q13 12 11.5 27.5t-12.5 28.5q-1 0 -1 1q-5 5 -10 8q-17 8 -24.5 22.5t-10.5 31.5q-28 150 -58 300q-4 18 -7 35
q-3 15 -6 31q-6 41 -18 81q-44 140 -95 278q-6 18 -13 36q-19 64 -54 122q-20 27 -52 35.5t-61 -8.5q-4 -2 -7.5 -6.5t-3.5 -7.5q1 -19 -3 -34.5t-22 -25.5q-1 -1 -1.5 -2.5t-0.5 -3.5v-3q-4 -14 -8 -27q-28 -98 -42 -198v-7q-6 -64 -20 -126q-30 -132 -44 -265l-4 -34
q-3 -28 -5 -56q-2 -37 -7 -73q-19 -119 -45 -236l-12 -56q-23 -108 -56 -214q-4 -11 1 -23q15 -41 58 -50q17 -3 34 -3q48 -2 58 45q6 24 10 49l4 22l10 48q11 53 22 107q4 29 34 35q32 6 65 13q40 9 81 16q40 7 81 -1q28 -7 57 -7q25 1 32 -23q7 -28 16 -56q7 -23 14 -47
q17 -59 36 -118q8 -26 18 -51q25 -62 37 -128q5 -24 29.5 -41t50.5 -17zM376 1127v0q15 -25 20 -53q2 -9 5 -17q12 -41 22 -83q0 -1 1 -3q8 -31 13 -63q18 -121 35 -242q8 -49 21 -96l10 -40q4 -14 1 -19t-17 -8q-108 -33 -219 -54q-6 -1 -13 -1h-1q-18 -2 -18 16v4
q0 39 3 78q1 6 2 13q8 103 24 206q0 1 1 3q3 22 9.5 42.5t22.5 37.5q12 12 15 30q6 32 14 64q3 14 6 29l10 44q9 44 19 88q1 2 1 5q1 5 3 10.5t10 8.5z" />
    <glyph glyph-name="B" unicode="B" horiz-adv-x="791" 
d="M610 620v0q2 -1 3 -2q2 -1 3 -2t1 -3q7 -64 -1 -129q-1 -16 -16 -22q-54 -20 -93 -62l-6 -4q-32 -30 -60 -64q-14 -16 -28 -31q-79 -92 -58 -210q2 -15 9 -28q18 -49 71 -57q31 -2 61 -9q30 -6 57 2q64 10 101 61q58 90 80 195q28 171 28 345q2 112 -39 216q-17 43 -4 84
q20 69 37 139q12 49 16 100q3 57 9 115q10 80 -5 158q-17 99 -113 131q-15 4 -30 7l-30 8q-114 31 -221 -16q-24 -11 -45 -28q-64 -56 -108 -128q-4 -6 -8 -13q-9 -14 -19 -27q-6 -7 -11 -16q-7 -14 -19 -24q-6 5 -7.5 11t-1.5 11v2q-3 48 -5 96v4q-4 34 7 67q5 15 0.5 28.5
t-13.5 25.5q-2 3 -6 6q-5 3 -7 8q-11 23 -30.5 29.5t-42.5 4.5q-51 0 -53 -49q-5 -50 -8 -101q-1 -14 -1 -28q-4 -63 -4 -126q1 -105 7 -210q0 -8 1 -16v-18q5 -101 12 -203q10 -103 13 -206v-70q-1 -47 1 -94q5 -101 2 -202q-2 -41 -4 -83t-3 -85q-1 -31 2 -62
q5 -37 40 -51q11 -4 22 -6q5 -2 10 -3q41 -8 65 15.5t17 58.5q-1 4 -1 7q-3 11 -6 21q-8 26 -8 52q1 11 1 22q0 37 1 75q1 25 3 51q2 42 3 83q0 50 2 100q2 63 2 126q-1 50 -1 100q0 63 -1 126q0 19 -1 37q-9 90 19 177q2 7 2 14q0 5 1 10q10 61 48 109q56 68 116 133l8 8
q28 30 64 51q55 33 116 57q11 4 23 6q22 5 28 -18q15 -46 19 -94q10 -184 -36 -363q-4 -20 -26 -24q-89 -15 -160 -73q-13 -11 -25 -23l-28 -26q-62 -59 -64 -145q-2 -34 12 -66q30 -71 108 -73q22 0 42 6q88 24 154 87q3 3 7 5q2 1 3 2zM604 325v0q0 -4 -1 -9
q-5 -77 -39 -147q-15 -30 -46 -38q-26 -5 -30 21q-3 37 14 70q9 18 20 34q3 6 7 11q20 31 46 58l12 12v0q2 3 5 4.5t7 0.5q3 -2 4 -4.5t1 -5.5v-2v-3v-2zM514 763v0v-2q-1 -4 -2 -7q-23 -56 -70 -94q-4 -4 -10 -1.5t-9 8.5q-7 16 4 31q30 44 76 70q1 1 3.5 0.5t4.5 -1.5v0
q1 0 1.5 -0.5t0.5 -1.5q1 -1 1 -2z" />
    <glyph glyph-name="C" unicode="C" horiz-adv-x="749" 
d="M173 637v0h2q0 25 1 49q0 55 4 110q3 40 7 81q8 62 10 125q1 21 5 43q18 109 57 213q33 91 92 167q25 31 57 55l24 20q34 25 62 -12q17 -22 13 -50q-2 -29 7 -57q1 -5 2 -9q14 -43 59 -33q6 1 12 4q10 5 19 6q22 -1 29.5 10.5t9.5 28.5q4 26 2 52q-6 55 -32 105
q-23 51 -75 70q-14 5 -27 10q-69 30 -136 1q-211 -89 -286 -306q-5 -19 -15 -35q-12 -21 -17 -44q-18 -68 -28 -137l-6 -38q-17 -90 -20 -181v-67v-92q-5 -210 29 -417q12 -99 59 -187q44 -88 139 -116q82 -21 154 17q78 35 132 102q17 24 39 43q33 28 57 64q22 31 43 62
q19 29 39 57q35 59 46 126l4 18q2 11 2 22v16q1 25 -14 39q-5 5 -12 6.5t-14 2.5q-8 0 -16 2.5t-14 10.5q-1 1 -4 0.5t-7 -1.5q-1 -1 -3 -1q-22 -5 -34 -24q-12 -20 -26 -40q-27 -37 -45 -80q-37 -99 -99 -186q-51 -72 -131 -110q-23 -10 -47 -8q-18 1 -28 16l-6 10
q-21 31 -32 67q-37 143 -43 290q-1 38 -1 76q1 17 1 34z" />
    <glyph glyph-name="D" unicode="D" horiz-adv-x="854" 
d="M161 1048v0q-1 1 -1 2q-1 0 -1 1l2 -4q-11 32 -8 65v24q-2 42 -3 85q-1 64 -4 129q-4 41 -10 81q-11 65 -9 131q1 23 -17 37q-26 18 -52.5 9.5t-38.5 -39.5q-19 -61 -11 -124v-2q1 -13 1 -26q4 -57 6 -113q1 -18 1 -36q-1 -27 2 -55q10 -115 0 -229q-5 -62 3 -123
q14 -114 11 -229q-2 -76 -3 -152q-3 -95 -4 -190q-1 -40 1 -80q3 -63 60 -69q19 -2 38 -3q39 -3 42 40l2 20q7 62 5 123q-1 62 -1 123q0 43 -1 86q0 22 3 44q0 5 1 9q14 118 41 233l6 28q16 80 64 142q101 130 230 226q37 27 78 41q16 4 30.5 -4t20.5 -24q4 -10 6 -21
q29 -135 33 -275q0 -29 -1 -58q-2 -32 -2 -64q0 -98 -11 -194q-1 -18 -3 -35q-15 -141 -56 -276q-21 -75 -73 -130q-18 -20 -41 -25q-32 -5 -62 4q-5 1 -9.5 3t-7.5 6q-4 6 -9 12q-11 14 -19.5 29.5t-10.5 35.5q-3 32 -9 63q-3 18 -6 37q-4 26 -25 36q-10 6 -18 0
q-1 -1 -3 -2q-17 -14 -31.5 -30t-20.5 -39q-22 -68 -3 -137q1 -5 3 -10q6 -17 9 -36q16 -83 89 -98q73 -19 148 -16q55 3 99 39q68 61 106 150q60 155 86 321q16 93 28 187l10 66q13 90 12 181q-3 71 -11 142q-2 14 -3 28q-6 78 -36 149q-35 83 -111 121q-40 18 -82 30
q-97 30 -186 -22q-60 -34 -109 -87q-82 -89 -128 -205q-8 -20 -18 -39z" />
    <glyph glyph-name="E" unicode="E" horiz-adv-x="694" 
d="M341 1256v0l6 22q6 23 11 45q23 93 91 161q11 12 24 16.5t27 7.5q6 1 12 -1t10 -7q7 -12 16 -24q16 -17 25 -40q9 -27 35.5 -39.5t53.5 -5.5q42 11 37 54q0 9 -3 19q-21 83 -93 129q-71 43 -152 32q-107 -19 -174 -103q-55 -65 -71 -151q-8 -44 -18 -89l-10 -52
q-4 -23 -26 -32q-24 -11 -50 -15q-3 -1 -6 -1q-26 -4 -51 -12q-35 -13 -23 -49q7 -18 5 -37q-1 -16 12 -25q18 -17 43 -19q17 0 33 -2q7 0 13 2q5 2 9.5 2.5t10.5 -1.5q2 -71 -10 -139q-18 -125 -24 -249l-4 -64q-8 -90 -6 -181q1 -9 1 -18q3 -30 1 -59q-2 -77 13 -153
q10 -59 43 -106q52 -84 151 -74q29 4 56 13q29 11 59 20q99 29 172 102q28 31 37 72q2 8 -1.5 14.5t-7.5 12.5q-8 9 -11 20q-1 7 -6.5 9.5t-11.5 1.5q-8 0 -16 -3l-8 -2q-13 -3 -25.5 -2.5t-21.5 13.5q-5 7 -12 7t-14 -3q-47 -15 -83 -47q-25 -24 -51 -44l-8 -6
q-25 -23 -59 -30q-15 13 -19.5 30t-4.5 35q-1 5 -1 9l-2 20q-14 134 -18 268q0 113 14 226q9 77 22 153q16 94 26 189q0 5 1 10q2 11 6 15.5t15 5.5q12 1 23 1q6 1 11 1q23 1 47 2q60 3 121 6q27 1 52 9q36 13 44 52q8 38 -23 63q-29 24 -67 22q-26 -2 -52 -2q-48 1 -97 -6
h-3q-18 -5 -45 1z" />
    <glyph glyph-name="F" unicode="F" horiz-adv-x="995" 
d="M379 1758v0q-5 4 -6.5 9.5t-2.5 10.5l-2 8q-9 29 -33.5 39t-46.5 6q-53 -12 -53 -69q0 -5 1 -11t1 -13q1 -18 -3.5 -25.5t-22.5 -12.5q-53 -17 -102 -44q-61 -38 -84 -107q-3 -7 -2 -14t7 -13q29 -21 65 -28q11 -3 20 -1t18 7q2 0 3 1q33 14 67 27q16 7 21 4t5 -19
l6 -108q1 -40 3 -79q3 -36 -5 -50t-41 -27q-13 -6 -27 -10l-18 -6l-10 -4q-25 -9 -48 -19q-18 -8 -32 -21q-22 -21 -6 -48q20 -32 58.5 -42.5t71.5 5.5q6 4 12 7q18 12 40 18q18 4 20 -13q2 -22 5 -44q6 -40 7 -81v-2q-2 -62 4 -123q4 -45 4 -91v-29q1 -18 1 -37
q0 -32 1 -64q6 -80 14 -160l2 -22q5 -48 -1 -96q-4 -33 -8 -65q-8 -95 -34 -186q-11 -36 22 -58q5 -3 11 -6t11.5 -7t8.5 -9q12 -24 32 -31.5t44 -7.5q34 1 54.5 22t18.5 55q-9 129 -11 259q-5 170 -16 339l-4 84q-3 55 -6 111q-5 144 -19 287q-2 15 1 19.5t17 7.5l48 12
q77 25 160 24h1q10 -1 19 0t17 6q48 34 83 80q7 10 6 23.5t-10 20.5q-30 23 -67 19q-21 -4 -41 -10q-3 -1 -6 -1q-37 -10 -76 -10q-43 0 -86 -3l-34 -2q-7 -1 -14 -3q-7 -3 -14 -3.5t-13 5.5q-5 5 -6.5 12t-1.5 14q0 8 -1 15l-2 14q0 5 -1 9q-9 81 -3 162q1 16 1 31
q1 21 21 29q11 4 22 9q25 10 50 18l86 22l62 16q94 28 191 13q9 -2 19 -2q68 -4 132 17q17 7 29 23.5t11 31.5q-3 38 -39 56q-41 18 -84 14l-34 -2q-93 -5 -187 -14q-132 -11 -254 -65q-6 -3 -12 -3q-3 -1 -5 -1zM5 1213v0q-2 1 -4 1q0 -1 -1 -1v-2h1q1 -1 3 -1v0.5v1.5
q1 0 1 1z" />
    <glyph glyph-name="G" unicode="G" horiz-adv-x="801" 
d="M6 717v0h-1h-1v-25v-56q-4 -88 8 -173q24 -140 74 -274q49 -117 162 -177q31 -18 68 -24h3q10 -3 20 -2q71 9 127 54q14 13 31 23q52 32 92 79q19 21 39 40q65 94 89 206q1 6 1 11q2 11 4 23q30 123 -22 239q-21 45 -62 71q-6 4 -13 8q-12 7 -23 16q-43 32 -94 46
q-33 11 -67 5q-47 -9 -91 -30q-44 -22 -72 -62q-37 -50 17 -79q33 -15 69 -19q12 -2 23 4q29 14 60 17l28 6q13 2 26 1h3q5 -1 8.5 -3.5t4.5 -7.5l4 -18q6 -23 5 -49q-14 -117 -7 -235q1 -17 -7 -32q-33 -53 -76 -98q-12 -13 -23 -26q-3 -4 -7 -6.5t-9 -3.5h-2
q-42 -7 -84 -1q-30 5 -46 32q-18 31 -34 64q-25 56 -40 115l-8 26q-33 121 -28 247q1 81 8 163v10q7 108 29 214q17 77 38 152q5 17 10 35q39 138 133 247q20 25 50 25h22q38 1 74 -3q25 -2 45.5 -13t30.5 -37q9 -27 35 -38q7 -3 14 -8t9 -14q7 -25 25 -35.5t40 -14.5
q39 -7 62 27q21 28 4 58q-10 17 -21 32q-51 65 -115 117l-14 12q-114 93 -259 79q-10 0 -19 -4q-6 -2 -12 -5q-50 -17 -93 -50q-86 -66 -127 -166q-5 -11 -9 -22q-17 -37 -25 -78q-5 -21 -15 -42q-1 -1 -1 -3q-11 -26 -19 -54q-20 -76 -28 -154q-6 -44 -13 -88
q-7 -40 -7 -81q-1 -69 -1 -137v-56z" />
    <glyph glyph-name="H" unicode="H" horiz-adv-x="724" 
d="M619 -3q7 1 14 4q41 24 41 65q0 14 -5 29v1q-4 16 -11 30q-13 26 -19 54q-20 82 -20 167l1 178l-1 146l-1 85l1 14v15q0 26 23 39q8 8 30 13q34 6 47 37q5 12 5 21q0 40 -80 48q-16 2 -16 18l1 8q0 7 1 13q14 158 21.5 227t7.5 139q0 29 -1 57l-1 95q-1 32 -26 48
q-17 12 -36 12q-27 0 -63 -23q-22 -12 -28 -22q-3 -6 -3 -16q0 -8 2 -19q10 -58 10 -116l-1 -29l1 -51q0 -17 -34 -335q-3 -26 -27 -28q-114 -20 -221 -64l-5 -2q-16 -9 -42 -9l-1 43q0 45 -1 89l-1 57q0 56 7 111t9 111q2 40 6 81v5q0 19 -7 34q-3 8 -5.5 15t-11.5 13
q-20 11 -32 11l-6 -1q-79 -24 -91 -110l-11 -115q-26 -226 -26 -390v-8q0 -22 -9 -42q-4 -7 -4 -15q0 -6 3 -12q9 -22 9 -45q0 -13 -3 -26v-3q-3 -27 -3 -54l1 -52q2 -169 7 -217q5 -69 5 -138l-1 -69q0 -29 9 -56l2 -10q12 -41 64 -41l21 -1q22 0 37 15q33 31 33 71
q0 12 -3 25q-16 91 -16 245q0 45 2 90q2 60 2 121v19q0 29 2 58q0 24 2.5 33t31.5 24q4 1 7 3q11 5 23 9l33 11q88 31 159 39q19 3 26 3q13 0 13 -16v-25q0 -22 2 -43q5 -53 5 -107l-1 -36l-1 -48l1 -49v-99q0 -108 19 -196q12 -52 12 -106q1 -38 40 -48q30 -7 62 -7h14z
" />
    <glyph glyph-name="I" unicode="I" horiz-adv-x="466" 
d="M113 -85q27 0 50 18q27 21 59 29q101 27 160 35q22 2 41 10q43 20 43 60q0 13 -7 26q-18 32 -53 36l-22 1h-11q-36 0 -41 4.5t-5 13.5l1 8l1 30q0 38 -4 75q-13 160 -14 216q1 7 1 29q0 33 -3 67q-6 69 -6 139l1 136q0 96 -3 192v63q0 88 6 181q31 4 57.5 16t55.5 15
q37 5 37 53q0 15 -9 29q-18 30 -96 32q-135 -7 -267 -37l-51 -9q-34 -7 -34 -37q0 -7 2.5 -14.5t2.5 -15.5v-6q0 -34 46 -42q27 -8 46 -8q15 0 32 6q11 5 17 5q3 0 7.5 -4t4.5 -65q0 -152 3 -308v-43q0 -66 -2 -131l-1 -96q0 -64 2 -128q5 -122 9 -158q6 -65 6 -162
q-1 -11 -1 -23q0 -22 4 -45l1 -7q0 -14 -15.5 -20.5t-30.5 -15.5q-28 -17 -62 -24q-26 -4 -45 -25q-11 -12 -11 -24t8.5 -22t16.5 -19q27 -36 73 -36z" />
    <glyph glyph-name="J" unicode="J" horiz-adv-x="503" 
d="M306 -10q21 0 40 11q74 40 87 103q2 8 7 16q10 31 11 43l5 95q9 160 9 224v16q0 41 4 83l-1 19q-7 83 -7 167q1 154 15 309q4 76 11 129q16 101 16 203l-1 51q-2 62 -48 101q-30 26 -70 28q-14 2 -42 2q-46 0 -62 -8q-74 -40 -125 -72l-13 -9q-49 -38 -109 -55
q-33 -11 -33 -40q0 -9 3 -20q3 -7 7 -23q7 -25 32 -34q35 -12 52 -12q34 0 84 50q42 37 91 63q7 4 13 4q20 0 34 -165q10 -134 10 -258q0 -44 -2 -88q-8 -67 -8 -135q0 -35 2 -71q1 -16 1 -38q0 -77 -2 -154l1 -89q0 -45 -5 -89q-4 -39 -4 -77q-2 -56 -14 -110
q-3 -17 -15 -17q-5 0 -13 4q-97 55 -116 103q-8 18 -29 56q-7 11 -16 11q-7 0 -15 -5q-18 -12 -37 -12q-8 0 -16 1.5t-13 1.5q-8 0 -9 -10q0 -20 1 -39l1 -11q0 -19 -11 -35l1 1q4 -31 15 -59l6 -15q6 -18 19 -32q48 -53 111 -75q29 -11 55 -27q7 -4 16 -4l3 -1zM9 210z" />
    <glyph glyph-name="K" unicode="K" horiz-adv-x="948" 
d="M101 -73q1 0 19 1t39 21q39 47 39 103l-1 13q-1 37 -1 75l-1 84q-6 113 -6 226q0 142 4 177v25q2 12 16 19q8 4 13 11q19 28 40 52l10 13q22 -17 34 -38l2 -3q106 -167 269 -279q42 -32 74 -32q29 0 39 35q0 15 8 27q11 15 11 29q0 16 -13 30t-21.5 29.5t-22.5 29.5
q-35 31 -69 63l-88 79q-64 55 -88 135q-4 15 -4 18q0 5 4 9.5t57 41.5q40 28 78 58q26 20 52 38q37 25 71 54l146 127q42 35 83 71q28 23 47 54q7 13 7 26q0 6 -1 11q-9 51 -59 51q-10 0 -20 -3q-33 -9 -66 -11q-66 -2 -328 -259q-90 -88 -185 -172l-26 -24h-1
q-15 -15 -33 -27l-9 -7q-12 -12 -22 -12q-5 0 -11 3.5t-6 25.5l1 7q0 24 -4 40q-10 76 -10 152q0 28 1 55q2 36 2 72q0 58 -5 116q-3 0 -3 19q0 14 4 28q2 8 2 15q0 19 -12 40q-13 26 -38 26q-6 0 -14 -2q-17 -5 -34 -5l-8 -1q-58 -3 -61 -41q-2 -15 -2 -128q0 -203 20 -405
l3 -30q5 -35 5 -84q0 -42 6 -83q2 -14 2 -28t-2 -28.5t-2 -28.5q0 -22 5 -44v-3q0 -4 -1 -8t-1 -7t-0.5 -6.5t-0.5 -8.5v-9q9 -40 9 -80q0 -24 -3 -48q-4 -51 -4 -86q0 -51 6 -102q3 -23 3 -46l-1 -50v-33q0 -51 -12 -101l-1 -11q0 -9 4 -20q18 -41 66 -41z" />
    <glyph glyph-name="L" unicode="L" horiz-adv-x="587" 
d="M248 -23q31 2 62 7q90 6 142 80q21 29 49 52q17 15 34 32l11 12q23 25 36 56q5 11 5 22q0 8 -2 16q-19 42 -62 42q-37 0 -96 -63q-16 -19 -34 -38q-15 -16 -30 -34q-23 -26 -53 -41q-19 -9 -34 -9q-31 0 -52 34q-20 37 -24 78l-2 17q-8 46 -11 93q-3 36 -7 71
q-7 53 -7 107l1 60q0 68 -5 136q-5 62 -5 125q0 55 4 111v101q0 59 -2 118q-2 42 -2 83q0 42 2 83l1 38q0 26 3 53v6q0 30 -28 44q-23 11 -47 11q-9 0 -19 -2q-35 -4 -37 -42q-8 -105 -15 -153q-24 -203 -24 -407v-140q0 -133 15 -264q0 -25 7 -63q14 -75 17 -152
q4 -70 19 -138q18 -89 102 -126q36 -16 76 -16h12z" />
    <glyph glyph-name="M" unicode="M" horiz-adv-x="824" 
d="M770 -10q25 0 39.5 15t14.5 37v8q-8 77 -24 171q-32 155 -32 459q0 87 5 141q6 72 6 418v40q0 35 6 71l2 14q0 36 -24 51q-13 9 -29 9q-19 0 -76 -25h-2q-8 -4 -14 -12q-34 -46 -34 -123v-14q-1 -76 -28 -146q-51 -137 -109 -272q-24 -66 -65 -123q-8 -12 -16 -12
q-7 0 -13 10q-59 99 -93 192q-14 37 -30 74q-11 28 -29 116q-21 99 -48 196q-5 19 -5 37q-1 15 0.5 30.5t1.5 33.5q-1 48 -36 81q-13 13 -34 13q-11 0 -23 -2l-15 -1l-3 1q-34 0 -50 -22q-13 -16 -13 -38v-6q1 -30 1 -87l1 -78q0 -100 7 -201q18 -208 18 -418l-1 -47
q0 -100 11 -202l9 -90q2 -49 13 -160q7 -53 36 -98q26 -41 74 -41q26 0 41.5 15.5t15.5 39.5q0 22 -9 41q-17 43 -17 89l1 181q0 106 -16 225q-5 37 -8 74q-5 55 -5 77q0 3 2 7t3 8q12 -7 23 -26l25 -50q23 -54 57 -98q21 -27 38 -58q13 -25 36 -34t52 -9q22 0 35 19l5 8
q21 32 43 84q28 64 74 144l19 31l1 3q4 7 9 7q7 -4 8 -20q3 -32 3 -63q0 -27 -2 -53l-1 -24q0 -58 12 -104l3 -20q7 -107 23 -213q20 -136 32 -189l5 -26q13 -52 66 -62z" />
    <glyph glyph-name="N" unicode="N" horiz-adv-x="866" 
d="M212 763v0q6 1 8.5 -1t3.5 -5l1 -1q28 -42 55 -83l104 -158l2 -4q13 -21 30 -38q47 -46 78 -104q3 -6 7 -12q3 -4 5 -8q70 -107 120 -225q15 -38 36 -73q20 -30 54.5 -36.5t64.5 13.5q22 15 18 41q-2 12 -6 23q-7 18 7 31q23 24 18 57q-6 73 4 144q23 175 27 350v20
q-1 120 13 240q4 31 1 62q-6 50 -6 101q0 14 -1 29v12q0 25 -3 50q-15 120 2 240q2 20 1 41v12q0 21 -19 32q-8 4 -17 8q-14 5 -25 13q-26 17 -51 14t-50 -13q-28 -12 -24 -43q9 -64 6 -129v-24q-1 -73 -1 -145q0 -29 1 -58q3 -144 -8 -288q-2 -21 0 -43v-6q10 -117 7 -234
q-2 -39 4 -77q6 -37 -6 -77q-20 13 -28 30q-1 2 -3 3q-30 47 -72 84q-25 23 -41 53q-32 55 -64 111q-28 49 -56 97q-35 58 -54 123q-8 24 -18 47q-2 6 -5 11l-24 60q-37 91 -76 180q-25 53 -20 112q9 57 -45 81q-23 9 -27 31q-4 14 -5 28q-4 29 -30 33q-31 8 -62 0
q-42 -13 -38 -58q1 -6 1 -13q4 -37 5 -73v-9q-1 -63 8 -126q5 -31 3 -62q-6 -78 -4 -156v-60v-59q1 -95 -4 -190q0 -14 -2 -27q-2 -25 -2 -50q-1 -47 0 -94v-89v-37q1 -80 -3 -160q-3 -53 -5 -105l-2 -54q0 -47 34 -76q29 -25 67 -17q32 5 36 39q0 10 2 20l2 14q0 15 12 24
q25 19 25 50q1 12 3 24q3 21 4 43q2 37 3 73q0 29 2 57q2 57 6 115q7 115 8 231q0 48 8 93z" />
    <glyph glyph-name="O" unicode="O" horiz-adv-x="964" 
d="M17 802v0q1 -214 39 -425q13 -80 40 -158q33 -97 112 -159q62 -47 138 -63q29 -6 57 3q18 7 37 6q52 -4 95 27q75 48 137 112q32 31 51 69l32 64q24 45 45 91q33 73 54 149q29 109 67 216q31 86 36 178q7 114 -30 222q-37 94 -77 187q-31 75 -98 122q-78 59 -174 77
q-12 2 -25 6q-4 1 -7 2q-119 35 -243 27q-54 -2 -98 -34q-54 -43 -86 -102q-48 -95 -75 -197q-44 -162 -31 -329q2 -31 3 -62q1 -15 1 -29zM171 836v0q-13 151 3 279q8 60 30 116q6 14 12 29q14 34 27 70q9 25 26.5 41.5t37.5 31.5q5 3 9 7q5 3 9.5 2t8.5 -4q59 -41 128 -21
q50 10 101 5q60 -4 96 -55q63 -83 101 -179q4 -9 7 -17q6 -14 11 -28q13 -29 14 -61q-1 -20 -1 -41q0 -126 -20 -251q-12 -61 -37 -119q-24 -59 -42 -121q-12 -39 -26 -79q-4 -9 -7 -18q-9 -32 -26 -62q-18 -31 -28 -66q-29 -74 -92 -120q-69 -52 -155 -39q-64 13 -87 75
q-35 74 -55 153q-40 174 -43 353l-2 36q-3 49 0 83z" />
    <glyph glyph-name="P" unicode="P" horiz-adv-x="923" 
d="M23 739v0v-37v-83l-2 -70q-2 -28 -2 -55q-1 -27 0 -53q3 -52 7 -105q1 -10 1 -20q5 -113 30 -224q1 -2 1 -4q3 -7 3 -15q4 -43 27.5 -61t59.5 -24q9 -2 22 3.5t23.5 14t12.5 17.5l4 20q5 21 6.5 41.5t-7.5 42.5q-12 31 -10 66q-1 125 -16 249q-16 128 13 253q1 5 2 11
q7 42 31 78q9 15 13 32q1 2 1 4q44 125 107 241q15 31 38 55q20 19 39 38q57 55 115 108q66 51 149 62q19 2 28 -15v-1q6 -10 10 -21q19 -67 21 -137q-2 -64 -14 -127q-3 -23 -6 -45q-20 -127 -78 -241q-54 -103 -163 -140q-42 -18 -58 24q-5 13 -12 23.5t-19 17.5
q-5 3 -7 9l-4 6q-11 14 -19 15t-21 -9q-12 -8 -20 -20q-2 -2 -3 -4q-8 -11 -21 -7h-3.5h-3t-2.5 -1l-6 -10q-6 -8 -10 -17t-2 -20q2 -9 3 -19q1 -9 3 -19q10 -45 46 -71q54 -38 122 -39q102 4 191 56q73 43 113 116q17 29 33 58q66 114 88 243q7 43 15 86l8 46
q23 115 -7 229q-20 63 -66 110q-40 45 -101 48q-102 6 -201 -15q-54 -12 -101 -43q-67 -48 -115 -115q-72 -95 -112 -206q-1 -2 -1 -4q-2 -7 -5.5 -13.5t-9.5 -11.5q-1 -1 -3 -1h-3.5t-1.5 1q-2 9 -3 19q0 29 -1 59q0 59 -3 119q-5 94 -12 189q-3 40 -6 79v4q0 6 -1 11
q-4 18 -20.5 36t-32.5 21q-35 2 -60 -17.5t-28 -47.5q0 -10 -1 -20q-2 -17 -2 -33q-2 -89 -3 -177q0 -49 2 -97q3 -35 7 -70q3 -32 5 -64q12 -156 9 -312z" />
    <glyph glyph-name="Q" unicode="Q" horiz-adv-x="878" 
d="M447 1567v0q-87 1 -176 -38q-83 -35 -140 -106q-18 -19 -16 -44q1 -18 -8 -33q-1 -2 -1 -3q-53 -120 -70 -250q-4 -29 -7 -59q-3 -28 -7 -55q-21 -160 -22 -322q2 -122 10 -244q1 -8 1 -15q3 -36 15 -71q16 -53 34 -105q34 -105 121 -176q54 -45 120 -29q52 11 99 37
q114 61 192 165q8 12 18 22q14 18 28 2q8 -8 15 -18l16 -20q27 -33 52 -67q15 -20 35 -33q20 -12 44 -9t40 20q4 5 6 12q3 7 3.5 14.5t-3.5 13.5q-11 17 -10.5 34t7.5 35q8 29 -9 55q-10 14 -21 27q-7 8 -14 17q-28 34 -57 68q-19 20 -5 43q2 3 3 7q1 3 3 6q55 116 75 243
q23 133 44 266q16 78 5 158q-1 6 0 12q0 6 -1 12q-1 8 -2 17q-1 25 -8 49q-3 12 -6 23q-9 48 -39 87q-40 47 -70 100l-2 2q-23 37 -56 66q-97 86 -236 84zM608 551v0q-35 33 -53 69q-1 2 -2 3q-17 35 -56 49q-24 6 -47 -1t-38 -27q-4 -6 -7 -13q-3 -9 -9 -17
q-18 -20 -14.5 -39t19.5 -37q45 -57 89 -113q12 -15 24 -31q8 -10 11 -15.5t1 -11t-8 -15.5q-65 -110 -179 -170q-38 -21 -64.5 -15.5t-48.5 49.5q-64 120 -72 257q-2 164 19 326q7 56 12 113q6 63 14 126q15 122 56 239q11 37 39 65q11 10 20 21q7 10 13 21q10 18 25 33
l24 -4q31 -4 61 -9q15 -2 28 -8q21 -9 43 -18q50 -18 96 -46q70 -44 93 -124v0q6 -21 9 -42q16 -136 -10 -272q-8 -37 -17 -73q-23 -90 -36 -181q-8 -44 -35 -89z" />
    <glyph glyph-name="R" unicode="R" horiz-adv-x="773" 
d="M539 793v0q-5 12 -10 23q-8 20 -16 38q-12 28 -26 56q-11 22 -26 40q-22 27 -55 22q-57 -10 -70 -68q-5 -42 -44 -59q-9 -4 -15 -11q-4 -3 -7 -6q-27 -23 -45 -53q-8 -13 -16 -25q-20 -25 -18.5 -43.5t26.5 -45.5l2 -2q7 -8 16 -14q12 -7 25 -15q44 -30 96 -40
q47 -5 58 -48l4 -8v-1q46 -103 113 -195q22 -29 52 -49q39 -22 78 -2q13 6 17.5 19.5t-1.5 25.5q-8 14 -11.5 22.5t-3 19t2.5 30.5v2q2 17 -2 34q-5 20 -12 39q-1 1 -1 2l-8 22q-15 44 -32 86q-13 30 12 50q61 52 101 122q39 63 39 136q1 16 1 32q-1 59 3 117q7 104 -6 206
q-10 98 -79 166q-84 89 -204 76q-79 -10 -154 -39q-40 -16 -76 -40q-44 -27 -77 -65q-2 -3 -5.5 -4t-6.5 2q-2 1 -3.5 3t-1.5 5q0 52 -1 105q0 9 1 18q2 18 -1 35q-10 74 -87 68q-24 0 -37 -19q-2 -3 -3 -6q-13 -19 -17 -43q-1 -20 -3 -40q-5 -49 -4 -99q1 -59 1 -118
t1 -118v-20q2 -106 10 -211q3 -28 5 -56q20 -156 12 -313q-1 -14 0 -27v-7l2 -44q3 -48 1 -95q-1 -69 8 -137q2 -18 3 -36q3 -16 8 -33q3 -9 5 -18q4 -16 9 -33q12 -38 16 -78q4 -39 39 -50q14 -4 30 -6q4 -1 7 -1q29 -3 51.5 17t24.5 47q0 28 -1 56v6l-2 32q-2 27 -2 55
q2 133 -19 264q-3 21 -7 43q-9 52 -15 104q-2 27 -5 54q-10 78 -10 157v6q-1 31 4 61l14 66q9 45 19 90q31 145 122 264q16 25 42 38q65 27 135 34q20 2 35 -12q49 -41 53 -104q6 -108 11 -216q5 -70 -12 -138q-15 -55 -57 -105z" />
    <glyph glyph-name="S" unicode="S" horiz-adv-x="619" 
d="M242 -5q50 0 96 25q46 23 88 51q67 43 67 121l2 19l3 49q8 144 8 188q0 30 -2 61q-21 185 -88 358q-34 92 -82 178q-71 131 -122 284q-13 40 -13 82q0 57 27 89q19 22 44 24l24 1q34 0 66 -10q59 -20 74 -46q7 -13 7 -33q0 -22 -9 -54l-2 -5q-4 -12 -4 -24q0 -9 2 -17
t2 -14q0 -13 -8 -24q-4 -7 -6.5 -13.5t-5.5 -13.5t-3 -14q0 -11 7 -21q26 -38 70 -38q31 0 55 23q46 51 61 118q12 66 14 71q6 18 6 33q0 16 -9 36q-13 33 -52 61l-9 7q-85 64 -186 98q-41 18 -83 18q-38 0 -76 -15q-72 -26 -123 -82.5t-51 -135.5q0 -66 42 -172l25 -64
q22 -63 52 -123q64 -124 109 -256l9 -24q17 -44 43 -144q12 -47 26 -96t14 -101v-7q-6 -215 -13 -243l-2 -11q-1 -13 -12 -19q-42 -23 -87 -23q-48 0 -69 27q-24 30 -24 66l2 31q0 56 -43 95q-60 -22 -84 -81q-19 -46 -19 -93q0 -90 50 -131q66 -48 146 -61q2 0 3 -1
q22 -4 43 -4z" />
    <glyph glyph-name="T" unicode="T" horiz-adv-x="952" 
d="M466 0q63 0 69 49q3 25 3 51q0 49 -6 73q-5 31 -6 63q-3 65 -12 129l-1 10q-11 98 -15 196l-4 61q2 14 2 49q3 43 3 85q0 85 -12 170q-10 59 -10 84q0 13 7 25q21 36 21 78l1 4l1 30q0 41 -6 81q-3 29 -3 58q0 38 5 77q1 4 1 9q2 19 21 22l2 1q43 9 87 9q43 0 87 -9
q20 -6 39 -6q25 0 49 9.5t48 9.5h5q41 0 79 18q31 17 31 56l-1 14q-3 25 -35 32q-6 2 -11.5 4t-12.5 2l-44 1q-34 0 -67 -4q-29 -5 -57 -5l-25 1q-43 3 -86 3t-87 -3q-26 -3 -76 -3l-60 1q-49 0 -98 -7q-35 -5 -71 -5q-27 0 -54 3q-75 9 -112 9q-11 0 -21 -5
q-34 -15 -34 -39q0 -11 8 -25q19 -33 56 -40l61 -10q72 -11 145 -11l42 1q17 0 22.5 -6t5.5 -23v-10q-5 -99 -5 -198q0 -165 5 -254q7 -102 7 -204v-26q1 -120 10 -239l5 -78q1 -15 4 -29q7 -27 10 -124v-14q0 -58 15 -114q2 -7 2 -14l-1 -17q0 -32 31 -46q21 -10 43 -10z
" />
    <glyph glyph-name="U" unicode="U" horiz-adv-x="733" 
d="M398 1q24 0 49 5q130 24 144 80q53 210 71 209l8 47q23 132 38 266q19 162 18 259l-1 48q-2 69 -2 139q0 136 4 159q6 34 6 68q0 20 -1 40l-2 31q-3 45 -11 90q-9 58 -62 57l-17 -2q-49 -5 -53 -54l-2 -49q-1 -25 -5 -50q-1 -5 -2 -11q-8 -66 -8 -180l-1 -74l1 -68v-10
q0 -14 -2 -28q-7 -46 -7 -91v-20q0 -61 -5 -112l-4 -60q-8 -127 -28 -254q-18 -117 -66 -224l-2 -5q-10 -22 -24 -43q-4 -5 -7 -11q-7 -11 -14 -11q-6 0 -12 9l-3 4q-29 43 -58 141q-34 119 -39 134q-61 176 -90 359q-11 67 -13 134q-3 116 -22 229q-10 58 -11 115
q0 27 -3 44q-4 24 -4 47q0 48 21 93q7 16 7 32q0 56 -43 60q-25 3 -48 10q-5 2 -23 2q-55 0 -62 -46l-3 -24q-5 -42 -5 -83q0 -64 9 -128l5 -42l12 -90q8 -58 18 -213q3 -46 13 -168q7 -83 10 -167q4 -99 27 -253q24 -162 83 -261q45 -76 150 -66q15 2 31 -5q20 -8 40 -8z
" />
    <glyph glyph-name="V" unicode="V" horiz-adv-x="911" 
d="M452 -2q30 0 55 23q107 92 156 298q23 99 70 284q18 67 35 135q9 42 15.5 86t17.5 85.5t18 82.5q14 78 31 155q20 87 33 175q2 12 5 23l5 34q5 57 15 114q3 15 3 38q0 64 -60 64h-11q-39 -5 -47 -34q-3 -12 -10 -21q-24 -35 -27 -77q-22 -155 -79 -405l-41 -191
q-24 -114 -45 -228q-30 -161 -73 -318l-2 -4q-13 -57 -38 -109q-2 -5 -9 -5t-7 5q-12 17 -21 35l-82 174q-47 96 -54 203q-3 80 -27 156v2q-20 58 -28 120l-1 4q-2 26 -7 53q-21 121 -51 239q-14 67 -16 69q-29 108 -34 220q-1 22 -7 43q-11 37 -48 37q-9 0 -44 -10
q-32 -6 -35 -39q-2 -20 -5 -39l-2 -18h2v-29q12 -115 39 -227q24 -89 36 -179q10 -93 39 -222q11 -45 20 -90q4 -24 10 -47q13 -56 19 -113q7 -72 32 -139q39 -140 107 -269q3 -5 5 -11q8 -17 39 -69q19 -29 48.5 -46.5t55.5 -17.5z" />
    <glyph glyph-name="W" unicode="W" horiz-adv-x="1146" 
d="M413 -14q85 0 156 301q9 42 20 87l10 45q13 -14 18 -27q7 -22 7 -33q31 -142 99 -270q24 -46 67 -74q32 -20 62 -20q15 0 45 9.5t52 59.5l33 90q17 43 17 90q1 53 10 143q6 53 9 106q1 43 15 85q6 20 10 42q27 142 46 285l1 12q4 35 10 69l1 3q28 130 38 263l3 36
q4 27 4 54q0 46 -11 91q-2 11 -2 23v20q-3 61 -61 61q-19 0 -34 -9q-28 -16 -28 -49v-22q0 -32 -5 -63l-2 -20q-10 -77 -13 -121q-8 -105 -29 -208q-23 -115 -37 -231q-22 -180 -46 -257q-33 -106 -49 -215l-1 -2q0 -7 -9 -9q-20 34 -29 74q-43 145 -60 296l-18 158
q-4 37 -22 67t-51 34h-24l-48 -1q-55 -4 -55 -59v-14q0 -85 -11 -169l-8 -68q-8 -114 -59 -311q-8 -30 -14 -58t-21 -39q-11 10 -14 25l-21 80q-23 75 -39 152q-10 50 -26 98q-27 84 -41 171q-14 63 -17 101q-2 48 -10 96l-1 6q-7 38 -8 75q-2 81 -14 161l-11 102
q-2 34 -6 67q-8 62 -8 126v19q0 18 -7 37q-14 37 -48 37q-8 0 -17 -3q-21 -8 -42 -8h-5q-41 0 -54 -39q-10 -30 -10 -116q0 -97 15 -193q2 -20 6 -40q8 -48 10 -97q2 -45 9 -90q11 -70 18 -139.5t17 -124.5q6 -35 9 -69q6 -80 22 -158q42 -266 206 -475q31 -37 74 -51
q14 -5 27 -5z" />
    <glyph glyph-name="X" unicode="X" horiz-adv-x="922" 
d="M86 -27q44 0 65 45q20 51 53 95q74 106 111 180q43 80 74 116q17 -12 24 -25t15 -23q15 -23 27 -49q40 -96 110 -174q6 -9 16 -18q43 -45 78 -97q27 -42 73 -42l17 1q58 10 58 49q0 18 -12 41q-30 69 -84 123q-23 21 -40 47q-56 85 -96 178q-35 89 -87 171q-5 8 -5 16
t5 15q38 68 88 202l10 25q34 78 58 160q24 87 68 164q10 19 17 35q49 108 126 198q29 33 52 70q15 20 15 42q0 10 -6.5 31t-48.5 28h-28q-10 2 -19 2q-43 0 -61 -46q-26 -52 -59 -96.5t-58 -91.5l-26 -49q-47 -87 -62 -121q-34 -61 -52 -129q-19 -77 -51 -150
q-14 -33 -59 -127l-14 33q-33 71 -51 138q-4 19 -11 37q-35 83 -60 169l-28 85q-38 109 -48 225q-4 32 -19 60q-4 9 -12 14q-20 12 -40 12q-16 0 -34 -7.5t-31 -21t-13 -43.5v-14q0 -22 4 -44l45 -177q11 -42 26 -82q20 -47 30 -97q14 -58 34 -115q11 -31 20.5 -61.5
t20.5 -63.5q27 -87 82 -214q6 -14 6 -27q0 -17 -8 -30.5t-14 -27.5q-50 -80 -76 -134q-42 -86 -97 -163q-65 -98 -99 -173q-5 -11 -5 -20q0 -16 18 -31q27 -23 61 -23h7z" />
    <glyph glyph-name="Y" unicode="Y" horiz-adv-x="845" 
d="M570 758v0q7 -3 9 -7.5t2 -9.5q-1 -15 -1 -31q1 -38 -4 -75q-8 -67 -7 -134q2 -119 -40 -231q-23 -70 -91 -99q-26 -10 -51 -21q-10 -5 -20 -9q-12 -6 -22 3q-14 13 -19 32q-6 21 -23 36q-2 2 -2.5 5.5t-0.5 7.5q0 3 -1 5v8v7v2q0 6 -2 12q-5 16 -20 27.5t-31 7.5l-16 -4
q-15 -2 -28.5 -7.5t-22.5 -19.5q-26 -8 -17 -33q15 -53 22 -108q7 -37 38 -59q53 -44 121 -55h4q13 -2 25 -4q112 -23 203 47q77 56 103 147q45 140 61 286q9 87 25 171q30 166 42 334q8 106 22 211q17 111 11 224q-5 60 -54 90q-29 18 -57.5 8.5t-40.5 -40.5
q-13 -41 -22 -83q-19 -105 -58 -203q-30 -74 -49 -151q-1 -3 -1 -6q-1 -7 -4 -13q-63 -154 -171 -282q-37 -44 -84 -79q-36 -26 -52 15q-1 0 -1 1q-3 6 -4 13q-2 11 -5 22q-20 78 -17 158q2 20 2 40v13q2 60 -9 120q-11 61 -13 124q-4 106 0 211v2q2 23 0 47q-3 61 -65 69
q-15 2 -31 4q-13 2 -25 4q-15 3 -21.5 -1.5t-9.5 -18.5q-8 -31 -16 -61q-2 -9 -4 -17q-27 -92 -13 -186q4 -17 2 -34q-5 -62 1 -124q2 -31 3 -63q7 -159 46 -313q23 -102 114 -154q69 -41 142 -10q51 22 95 56q63 53 111 120q15 19 30 39q6 8 12 17z" />
    <glyph glyph-name="Z" unicode="Z" horiz-adv-x="1024" 
d="M294 552v0l-12 6q-11 7 -23 12q-69 30 -133 -7q-8 -5 -15 -10q-29 -19 -60 -34q-37 -16 -44 -59q-7 -53 13 -103q19 -51 71 -66q57 -17 113 0q16 5 24 2t15 -19q41 -76 116 -118q25 -15 48 -32q101 -78 225 -103q8 -2 17 -4q27 -5 54 -9q116 -19 227 22q53 20 74 71
q7 17 4.5 28t-17.5 21q-18 13 -24 34q-25 63 -88 38q-14 -6 -26 -14q-31 -19 -68 -21q-69 -8 -139 -1q-79 9 -154 36q-16 5 -29 16q-52 51 -92 111q-10 15 -9 27t14 25q110 126 196 270q6 9 11 18q4 6 6 12q3 7 7.5 13.5t11.5 9.5q7 2 14 0t14 -5t13 -5q88 -27 180 -25
q102 12 172 86q5 6 8 14q3 6 6 11q9 14 6 26t-12 23q-19 25 -51 20q-45 -7 -85 -29q-22 -13 -46 -4q-60 19 -122 26q-15 1 -29 5q-10 4 -8 15l4 16l4 12q7 28 16 56q18 54 27 111q5 31 9 62l22 148q12 63 -8 123q-6 15 -11 30q-17 49 -42 94q-3 5 -5 9q-8 15 -18 28
q-75 106 -204 87q-8 -1 -15 -2q-14 -2 -28 -6q-59 -13 -93 -63q-26 -42 -51 -85q-10 -18 -20 -35q-29 -54 -37 -114q-5 -56 34 -96q3 -5 8.5 -8.5t11.5 -4.5q35 -6 71 -7q30 1 35 33q1 10 1 20q0 49 15 96q0 2 1 3q26 83 107 115q23 10 41 -5q61 -51 60 -130q-2 -21 -5 -41
q-4 -27 -6 -55q-13 -155 -77 -296q-9 -23 -14.5 -31.5t-12 -7t-18.5 9.5q-7 5 -18 11q-18 11 -38 20q-29 15 -61 9q-34 -9 -68 -21q-9 -3 -19 -6q-5 -3 -10 -7q-1 -1 -1 -2q-17 -14 -8 -34q14 -32 44 -49q6 -3 12 -7q54 -32 112 -58q16 -8 9 -24l-8 -18q-13 -31 -30 -59
q-26 -40 -46 -84q-15 -38 -46 -67z" />
    <glyph glyph-name="bracketleft" unicode="[" horiz-adv-x="758" 
 />
    <glyph glyph-name="backslash" unicode="\" horiz-adv-x="569" 
 />
    <glyph glyph-name="bracketright" unicode="]" horiz-adv-x="758" 
 />
    <glyph glyph-name="asciicircum" unicode="^" 
 />
    <glyph glyph-name="underscore" unicode="_" horiz-adv-x="1024" 
d="M0 -100h1024v-60h-1024v60z" />
    <glyph glyph-name="grave" unicode="`" horiz-adv-x="1024" 
d="M673 1079h-69l-330 202q-31 20 -46.5 40t-15.5 42q0 31 20.5 51t53.5 20q20 0 40.5 -12t55.5 -47z" />
    <glyph glyph-name="a" unicode="a" horiz-adv-x="826" 
d="M752 -149v0q29 1 49.5 20.5t23.5 49.5q1 39 -15 75q-5 12 -9 24q-23 60 -49 118q-31 70 -49 144q-6 21 -13 43q-3 13 -5 28q-2 9 -4 19q-10 31 15 55q13 12 11.5 27.5t-12.5 28.5q-1 0 -1 1q-5 5 -10 8q-17 8 -24.5 22.5t-10.5 31.5q-28 150 -58 300q-4 18 -7 35
q-3 15 -6 31q-6 41 -18 81q-44 140 -95 278q-6 18 -13 36q-19 64 -54 122q-20 27 -52 35.5t-61 -8.5q-4 -2 -7.5 -6.5t-3.5 -7.5q1 -19 -3 -34.5t-22 -25.5q-1 -1 -1.5 -2.5t-0.5 -3.5v-3q-4 -14 -8 -27q-28 -98 -42 -198v-7q-6 -64 -20 -126q-30 -132 -44 -265l-4 -34
q-3 -28 -5 -56q-2 -37 -7 -73q-19 -119 -45 -236l-12 -56q-23 -108 -56 -214q-4 -11 1 -23q15 -41 58 -50q17 -3 34 -3q48 -2 58 45q6 24 10 49l4 22l10 48q11 53 22 107q4 29 34 35q32 6 65 13q40 9 81 16q40 7 81 -1q28 -7 57 -7q25 1 32 -23q7 -28 16 -56q7 -23 14 -47
q17 -59 36 -118q8 -26 18 -51q25 -62 37 -128q5 -24 29.5 -41t50.5 -17zM376 1127v0q15 -25 20 -53q2 -9 5 -17q12 -41 22 -83q0 -1 1 -3q8 -31 13 -63q18 -121 35 -242q8 -49 21 -96l10 -40q4 -14 1 -19t-17 -8q-108 -33 -219 -54q-6 -1 -13 -1h-1q-18 -2 -18 16v4
q0 39 3 78q1 6 2 13q8 103 24 206q0 1 1 3q3 22 9.5 42.5t22.5 37.5q12 12 15 30q6 32 14 64q3 14 6 29l10 44q9 44 19 88q1 2 1 5q1 5 3 10.5t10 8.5z" />
    <glyph glyph-name="b" unicode="b" horiz-adv-x="791" 
d="M610 620v0q2 -1 3 -2q2 -1 3 -2t1 -3q7 -64 -1 -129q-1 -16 -16 -22q-54 -20 -93 -62l-6 -4q-32 -30 -60 -64q-14 -16 -28 -31q-79 -92 -58 -210q2 -15 9 -28q18 -49 71 -57q31 -2 61 -9q30 -6 57 2q64 10 101 61q58 90 80 195q28 171 28 345q2 112 -39 216q-17 43 -4 84
q20 69 37 139q12 49 16 100q3 57 9 115q10 80 -5 158q-17 99 -113 131q-15 4 -30 7l-30 8q-114 31 -221 -16q-24 -11 -45 -28q-64 -56 -108 -128q-4 -6 -8 -13q-9 -14 -19 -27q-6 -7 -11 -16q-7 -14 -19 -24q-6 5 -7.5 11t-1.5 11v2q-3 48 -5 96v4q-4 34 7 67q5 15 0.5 28.5
t-13.5 25.5q-2 3 -6 6q-5 3 -7 8q-11 23 -30.5 29.5t-42.5 4.5q-51 0 -53 -49q-5 -50 -8 -101q-1 -14 -1 -28q-4 -63 -4 -126q1 -105 7 -210q0 -8 1 -16v-18q5 -101 12 -203q10 -103 13 -206v-70q-1 -47 1 -94q5 -101 2 -202q-2 -41 -4 -83t-3 -85q-1 -31 2 -62
q5 -37 40 -51q11 -4 22 -6q5 -2 10 -3q41 -8 65 15.5t17 58.5q-1 4 -1 7q-3 11 -6 21q-8 26 -8 52q1 11 1 22q0 37 1 75q1 25 3 51q2 42 3 83q0 50 2 100q2 63 2 126q-1 50 -1 100q0 63 -1 126q0 19 -1 37q-9 90 19 177q2 7 2 14q0 5 1 10q10 61 48 109q56 68 116 133l8 8
q28 30 64 51q55 33 116 57q11 4 23 6q22 5 28 -18q15 -46 19 -94q10 -184 -36 -363q-4 -20 -26 -24q-89 -15 -160 -73q-13 -11 -25 -23l-28 -26q-62 -59 -64 -145q-2 -34 12 -66q30 -71 108 -73q22 0 42 6q88 24 154 87q3 3 7 5q2 1 3 2zM604 325v0q0 -4 -1 -9
q-5 -77 -39 -147q-15 -30 -46 -38q-26 -5 -30 21q-3 37 14 70q9 18 20 34q3 6 7 11q20 31 46 58l12 12v0q2 3 5 4.5t7 0.5q3 -2 4 -4.5t1 -5.5v-2v-3v-2zM514 763v0v-2q-1 -4 -2 -7q-23 -56 -70 -94q-4 -4 -10 -1.5t-9 8.5q-7 16 4 31q30 44 76 70q1 1 3.5 0.5t4.5 -1.5v0
q1 0 1.5 -0.5t0.5 -1.5q1 -1 1 -2z" />
    <glyph glyph-name="c" unicode="c" horiz-adv-x="749" 
d="M173 627v0h2q0 25 1 49q0 55 4 110q3 40 7 81q8 62 10 125q1 21 5 43q18 109 57 213q33 91 92 167q25 31 57 55l24 20q34 25 62 -12q17 -22 13 -50q-2 -29 7 -57q1 -5 2 -9q14 -43 59 -33q6 1 12 4q10 5 19 6q22 -1 29.5 10.5t9.5 28.5q4 26 2 52q-6 55 -32 105
q-23 51 -75 70q-14 5 -27 10q-69 30 -136 1q-211 -89 -286 -306q-5 -19 -15 -35q-12 -21 -17 -44q-18 -68 -28 -137l-6 -38q-17 -90 -20 -181v-67v-92q-5 -210 29 -417q12 -99 59 -187q44 -88 139 -116q82 -21 154 17q78 35 132 102q17 24 39 43q33 28 57 64q22 31 43 62
q19 29 39 57q35 59 46 126l4 18q2 11 2 22v16q1 25 -14 39q-5 5 -12 6.5t-14 2.5q-8 0 -16 2.5t-14 10.5q-1 1 -4 0.5t-7 -1.5q-1 -1 -3 -1q-22 -5 -34 -24q-12 -20 -26 -40q-27 -37 -45 -80q-37 -99 -99 -186q-51 -72 -131 -110q-23 -10 -47 -8q-18 1 -28 16l-6 10
q-21 31 -32 67q-37 143 -43 290q-1 38 -1 76q1 17 1 34z" />
    <glyph glyph-name="d" unicode="d" horiz-adv-x="854" 
d="M161 1043v0l-1 1q-1 1 -1 2l2 -4q-11 31 -8 65v24q-2 42 -3 83q-1 65 -4 129q-4 41 -10 81q-11 64 -9 131q1 22 -17 36q-26 18 -52.5 9.5t-38.5 -39.5q-19 -60 -11 -123v-3q1 -12 1 -25q4 -56 6 -112q1 -18 1 -36q-1 -28 2 -55q10 -114 0 -228q-5 -61 3 -122
q14 -114 11 -228q-2 -76 -3 -152q-3 -94 -4 -188q-1 -40 1 -80q3 -63 60 -68q19 -3 38 -3q39 -3 42 39l2 20q7 61 5 123q-1 61 -1 122q0 42 -1 85q0 22 3 44q0 5 1 9q14 118 41 232l6 28q16 79 64 141q101 130 230 225q37 26 78 40q16 5 30.5 -3t20.5 -24q4 -10 6 -21
q29 -135 33 -273q0 -29 -1 -58q-2 -32 -2 -64q0 -97 -11 -193q-1 -18 -3 -35q-15 -140 -56 -275q-21 -75 -73 -129q-18 -20 -41 -25q-32 -5 -62 4q-5 1 -9.5 3.5t-7.5 5.5q-4 6 -9 12q-11 14 -19.5 29.5t-10.5 35.5q-3 31 -9 62q-3 19 -6 37q-4 26 -25 36q-10 6 -18 0
q-1 -1 -3 -2q-17 -13 -31.5 -29.5t-20.5 -39.5q-22 -67 -3 -136q1 -4 3 -9q6 -18 9 -36q16 -84 89 -98q73 -19 148 -16q55 3 99 39q68 60 106 149q60 154 86 320q16 92 28 185l10 66q13 89 12 180q-3 71 -11 141q-2 14 -3 29q-6 77 -36 148q-35 83 -111 120q-40 18 -82 30
q-97 30 -186 -21q-60 -35 -109 -88q-82 -88 -128 -204q-8 -19 -18 -38z" />
    <glyph glyph-name="e" unicode="e" horiz-adv-x="694" 
d="M341 1256v0l6 22q6 23 11 45q23 93 91 161q11 12 24 16.5t27 7.5q6 1 12 -1t10 -7q7 -12 16 -24q16 -17 25 -40q9 -27 35.5 -39.5t53.5 -5.5q42 11 37 54q0 9 -3 19q-21 83 -93 129q-71 43 -152 32q-107 -19 -174 -103q-55 -65 -71 -151q-8 -44 -18 -89l-10 -52
q-4 -23 -26 -32q-24 -11 -50 -15q-3 -1 -6 -1q-26 -4 -51 -12q-35 -13 -23 -49q7 -18 5 -37q-1 -16 12 -25q18 -17 43 -19q17 0 33 -2q7 0 13 2q5 2 9.5 2.5t10.5 -1.5q2 -71 -10 -139q-18 -125 -24 -249l-4 -64q-8 -90 -6 -181q1 -9 1 -18q3 -30 1 -59q-2 -77 13 -153
q10 -59 43 -106q52 -84 151 -74q29 4 56 13q29 11 59 20q99 29 172 102q28 31 37 72q2 8 -1.5 14.5t-7.5 12.5q-8 9 -11 20q-1 7 -6.5 9.5t-11.5 1.5q-8 0 -16 -3l-8 -2q-13 -3 -25.5 -2.5t-21.5 13.5q-5 7 -12 7t-14 -3q-47 -15 -83 -47q-25 -24 -51 -44l-8 -6
q-25 -23 -59 -30q-15 13 -19.5 30t-4.5 35q-1 5 -1 9l-2 20q-14 134 -18 268q0 113 14 226q9 77 22 153q16 94 26 189q0 5 1 10q2 11 6 15.5t15 5.5q12 1 23 1q6 1 11 1q23 1 47 2q60 3 121 6q27 1 52 9q36 13 44 52q8 38 -23 63q-29 24 -67 22q-26 -2 -52 -2q-48 1 -97 -6
h-3q-18 -5 -45 1z" />
    <glyph glyph-name="f" unicode="f" horiz-adv-x="995" 
d="M379 1748v0q-5 4 -6.5 9.5t-2.5 10.5l-2 8q-9 29 -33.5 39t-46.5 6q-53 -12 -53 -69q0 -5 1 -11t1 -13q1 -18 -3.5 -25.5t-22.5 -12.5q-53 -17 -102 -44q-61 -38 -84 -107q-3 -7 -2 -14t7 -13q29 -21 65 -28q11 -3 20 -1t18 7q2 0 3 1q33 14 67 27q16 7 21 4t5 -19
l6 -108q1 -40 3 -79q3 -36 -5 -50t-41 -27q-13 -6 -27 -10l-18 -6l-10 -4q-25 -9 -48 -19q-18 -8 -32 -21q-22 -21 -6 -48q20 -32 58.5 -42.5t71.5 5.5q6 4 12 7q18 12 40 18q18 4 20 -13q2 -22 5 -44q6 -40 7 -81v-2q-2 -62 4 -123q4 -45 4 -91v-29q1 -18 1 -37
q0 -32 1 -64q6 -80 14 -160l2 -22q5 -48 -1 -96q-4 -33 -8 -65q-8 -95 -34 -186q-11 -36 22 -58q5 -3 11 -6t11.5 -7t8.5 -9q12 -24 32 -31.5t44 -7.5q34 1 54.5 22t18.5 55q-9 129 -11 259q-5 170 -16 339l-4 84q-3 55 -6 111q-5 144 -19 287q-2 15 1 19.5t17 7.5l48 12
q77 25 160 24h1q10 -1 19 0t17 6q48 34 83 80q7 10 6 23.5t-10 20.5q-30 23 -67 19q-21 -4 -41 -10q-3 -1 -6 -1q-37 -10 -76 -10q-43 0 -86 -3l-34 -2q-7 -1 -14 -3q-7 -3 -14 -3.5t-13 5.5q-5 5 -6.5 12t-1.5 14q0 8 -1 15l-2 14q0 5 -1 9q-9 81 -3 162q1 16 1 31
q1 21 21 29q11 4 22 9q25 10 50 18l86 22l62 16q94 28 191 13q9 -2 19 -2q68 -4 132 17q17 7 29 23.5t11 31.5q-3 38 -39 56q-41 18 -84 14l-34 -2q-93 -5 -187 -14q-132 -11 -254 -65q-6 -3 -12 -3q-3 -1 -5 -1zM5 1203v0q-2 1 -4 1q0 -1 -1 -1v-2h1q1 -1 3 -1v0.5v1.5
q1 0 1 1z" />
    <glyph glyph-name="g" unicode="g" horiz-adv-x="801" 
d="M6 717v0h-1h-1v-25v-56q-4 -88 8 -173q24 -140 74 -274q49 -117 162 -177q31 -18 68 -24h3q10 -3 20 -2q71 9 127 54q14 13 31 23q52 32 92 79q19 21 39 40q65 94 89 206q1 6 1 11q2 11 4 23q30 123 -22 239q-21 45 -62 71q-6 4 -13 8q-12 7 -23 16q-43 32 -94 46
q-33 11 -67 5q-47 -9 -91 -30q-44 -22 -72 -62q-37 -50 17 -79q33 -15 69 -19q12 -2 23 4q29 14 60 17l28 6q13 2 26 1h3q5 -1 8.5 -3.5t4.5 -7.5l4 -18q6 -23 5 -49q-14 -117 -7 -235q1 -17 -7 -32q-33 -53 -76 -98q-12 -13 -23 -26q-3 -4 -7 -6.5t-9 -3.5h-2
q-42 -7 -84 -1q-30 5 -46 32q-18 31 -34 64q-25 56 -40 115l-8 26q-33 121 -28 247q1 81 8 163v10q7 108 29 214q17 77 38 152q5 17 10 35q39 138 133 247q20 25 50 25h22q38 1 74 -3q25 -2 45.5 -13t30.5 -37q9 -27 35 -38q7 -3 14 -8t9 -14q7 -25 25 -35.5t40 -14.5
q39 -7 62 27q21 28 4 58q-10 17 -21 32q-51 65 -115 117l-14 12q-114 93 -259 79q-10 0 -19 -4q-6 -2 -12 -5q-50 -17 -93 -50q-86 -66 -127 -166q-5 -11 -9 -22q-17 -37 -25 -78q-5 -21 -15 -42q-1 -1 -1 -3q-11 -26 -19 -54q-20 -76 -28 -154q-6 -44 -13 -88
q-7 -40 -7 -81q-1 -69 -1 -137v-56z" />
    <glyph glyph-name="h" unicode="h" horiz-adv-x="724" 
d="M619 -3q7 1 14 4q41 24 41 65q0 14 -5 29v1q-4 16 -11 30q-13 26 -19 54q-20 82 -20 167l1 178l-1 146l-1 85l1 14v15q0 26 23 39q8 8 30 13q34 6 47 37q5 12 5 21q0 40 -80 48q-16 2 -16 18l1 8q0 7 1 13q14 158 21.5 227t7.5 139q0 29 -1 57l-1 95q-1 32 -26 48
q-17 12 -36 12q-27 0 -63 -23q-22 -12 -28 -22q-3 -6 -3 -16q0 -8 2 -19q10 -58 10 -116l-1 -29l1 -51q0 -17 -34 -335q-3 -26 -27 -28q-114 -20 -221 -64l-5 -2q-16 -9 -42 -9l-1 43q0 45 -1 89l-1 57q0 56 7 111t9 111q2 40 6 81v5q0 19 -7 34q-3 8 -5.5 15t-11.5 13
q-20 11 -32 11l-6 -1q-79 -24 -91 -110l-11 -115q-26 -226 -26 -390v-8q0 -22 -9 -42q-4 -7 -4 -15q0 -6 3 -12q9 -22 9 -45q0 -13 -3 -26v-3q-3 -27 -3 -54l1 -52q2 -169 7 -217q5 -69 5 -138l-1 -69q0 -29 9 -56l2 -10q12 -41 64 -41l21 -1q22 0 37 15q33 31 33 71
q0 12 -3 25q-16 91 -16 245q0 45 2 90q2 60 2 121v19q0 29 2 58q0 24 2.5 33t31.5 24q4 1 7 3q11 5 23 9l33 11q88 31 159 39q19 3 26 3q13 0 13 -16v-25q0 -22 2 -43q5 -53 5 -107l-1 -36l-1 -48l1 -49v-99q0 -108 19 -196q12 -52 12 -106q1 -38 40 -48q30 -7 62 -7h14z
" />
    <glyph glyph-name="i" unicode="i" horiz-adv-x="466" 
d="M113 -85q27 0 50 18q27 21 59 29q101 27 160 35q22 2 41 10q43 20 43 60q0 13 -7 26q-18 32 -53 36l-22 1h-11q-36 0 -41 4.5t-5 13.5l1 8l1 30q0 38 -4 75q-13 160 -14 216q1 7 1 29q0 33 -3 67q-6 69 -6 139l1 136q0 96 -3 192v63q0 88 6 181q31 4 57.5 16t55.5 15
q37 5 37 53q0 15 -9 29q-18 30 -96 32q-135 -7 -267 -37l-51 -9q-34 -7 -34 -37q0 -7 2.5 -14.5t2.5 -15.5v-6q0 -34 46 -42q27 -8 46 -8q15 0 32 6q11 5 17 5q3 0 7.5 -4t4.5 -65q0 -152 3 -308v-43q0 -66 -2 -131l-1 -96q0 -64 2 -128q5 -122 9 -158q6 -65 6 -162
q-1 -11 -1 -23q0 -22 4 -45l1 -7q0 -14 -15.5 -20.5t-30.5 -15.5q-28 -17 -62 -24q-26 -4 -45 -25q-11 -12 -11 -24t8.5 -22t16.5 -19q27 -36 73 -36z" />
    <glyph glyph-name="j" unicode="j" horiz-adv-x="503" 
d="M306 0q21 0 40 11q74 40 87 103q2 8 7 16q10 31 11 43l5 95q9 160 9 224v16q0 41 4 83l-1 19q-7 83 -7 167q1 154 15 309q4 76 11 129q16 101 16 203l-1 51q-2 62 -48 101q-30 26 -70 28q-14 2 -42 2q-46 0 -62 -8q-74 -40 -125 -72l-13 -9q-49 -38 -109 -55
q-33 -11 -33 -40q0 -9 3 -20q3 -7 7 -23q7 -25 32 -34q35 -12 52 -12q34 0 84 50q42 37 91 63q7 4 13 4q20 0 34 -165q10 -134 10 -258q0 -44 -2 -88q-8 -67 -8 -135q0 -35 2 -71q1 -16 1 -38q0 -77 -2 -154l1 -89q0 -45 -5 -89q-4 -39 -4 -77q-2 -56 -14 -110
q-3 -17 -15 -17q-5 0 -13 4q-97 55 -116 103q-8 18 -29 56q-7 11 -16 11q-7 0 -15 -5q-18 -12 -37 -12q-8 0 -16 1.5t-13 1.5q-8 0 -9 -10q0 -20 1 -39l1 -11q0 -19 -11 -35l1 1q4 -31 15 -59l6 -15q6 -18 19 -32q48 -53 111 -75q29 -11 55 -27q7 -4 16 -4l3 -1zM9 220z" />
    <glyph glyph-name="k" unicode="k" horiz-adv-x="948" 
d="M101 -73q1 0 19 1t39 21q39 47 39 103l-1 13q-1 37 -1 75l-1 84q-6 113 -6 226q0 142 4 177v25q2 12 16 19q8 4 13 11q19 28 40 52l10 13q22 -17 34 -38l2 -3q106 -167 269 -279q42 -32 74 -32q29 0 39 35q0 15 8 27q11 15 11 29q0 16 -13 30t-21.5 29.5t-22.5 29.5
q-35 31 -69 63l-88 79q-64 55 -88 135q-4 15 -4 18q0 5 4 9.5t57 41.5q40 28 78 58q26 20 52 38q37 25 71 54l146 127q42 35 83 71q28 23 47 54q7 13 7 26q0 6 -1 11q-9 51 -59 51q-10 0 -20 -3q-33 -9 -66 -11q-66 -2 -328 -259q-90 -88 -185 -172l-26 -24h-1
q-15 -15 -33 -27l-9 -7q-12 -12 -22 -12q-5 0 -11 3.5t-6 25.5l1 7q0 24 -4 40q-10 76 -10 152q0 28 1 55q2 36 2 72q0 58 -5 116q-3 0 -3 19q0 14 4 28q2 8 2 15q0 19 -12 40q-13 26 -38 26q-6 0 -14 -2q-17 -5 -34 -5l-8 -1q-58 -3 -61 -41q-2 -15 -2 -128q0 -203 20 -405
l3 -30q5 -35 5 -84q0 -42 6 -83q2 -14 2 -28t-2 -28.5t-2 -28.5q0 -22 5 -44v-3q0 -4 -1 -8t-1 -7t-0.5 -6.5t-0.5 -8.5v-9q9 -40 9 -80q0 -24 -3 -48q-4 -51 -4 -86q0 -51 6 -102q3 -23 3 -46l-1 -50v-33q0 -51 -12 -101l-1 -11q0 -9 4 -20q18 -41 66 -41z" />
    <glyph glyph-name="l" unicode="l" horiz-adv-x="587" 
d="M248 -23q31 2 62 7q90 6 142 80q21 29 49 52q17 15 34 32l11 12q23 25 36 56q5 11 5 22q0 8 -2 16q-19 42 -62 42q-37 0 -96 -63q-16 -19 -34 -38q-15 -16 -30 -34q-23 -26 -53 -41q-19 -9 -34 -9q-31 0 -52 34q-20 37 -24 78l-2 17q-8 46 -11 93q-3 36 -7 71
q-7 53 -7 107l1 60q0 68 -5 136q-5 62 -5 125q0 55 4 111v101q0 59 -2 118q-2 42 -2 83q0 42 2 83l1 38q0 26 3 53v6q0 30 -28 44q-23 11 -47 11q-9 0 -19 -2q-35 -4 -37 -42q-8 -105 -15 -153q-24 -203 -24 -407v-140q0 -133 15 -264q0 -25 7 -63q14 -75 17 -152
q4 -70 19 -138q18 -89 102 -126q36 -16 76 -16h12z" />
    <glyph glyph-name="m" unicode="m" horiz-adv-x="824" 
d="M770 -10q25 0 39.5 15t14.5 37v8q-8 77 -24 171q-32 155 -32 459q0 87 5 141q6 72 6 418v40q0 35 6 71l2 14q0 36 -24 51q-13 9 -29 9q-19 0 -76 -25h-2q-8 -4 -14 -12q-34 -46 -34 -123v-14q-1 -76 -28 -146q-51 -137 -109 -272q-24 -66 -65 -123q-8 -12 -16 -12
q-7 0 -13 10q-59 99 -93 192q-14 37 -30 74q-11 28 -29 116q-21 99 -48 196q-5 19 -5 37q-1 15 0.5 30.5t1.5 33.5q-1 48 -36 81q-13 13 -34 13q-11 0 -23 -2l-15 -1l-3 1q-34 0 -50 -22q-13 -16 -13 -38v-6q1 -30 1 -87l1 -78q0 -100 7 -201q18 -208 18 -418l-1 -47
q0 -100 11 -202l9 -90q2 -49 13 -160q7 -53 36 -98q26 -41 74 -41q26 0 41.5 15.5t15.5 39.5q0 22 -9 41q-17 43 -17 89l1 181q0 106 -16 225q-5 37 -8 74q-5 55 -5 77q0 3 2 7t3 8q12 -7 23 -26l25 -50q23 -54 57 -98q21 -27 38 -58q13 -25 36 -34t52 -9q22 0 35 19l5 8
q21 32 43 84q28 64 74 144l19 31l1 3q4 7 9 7q7 -4 8 -20q3 -32 3 -63q0 -27 -2 -53l-1 -24q0 -58 12 -104l3 -20q7 -107 23 -213q20 -136 32 -189l5 -26q13 -52 66 -62z" />
    <glyph glyph-name="n" unicode="n" horiz-adv-x="866" 
d="M212 743v0q6 1 8.5 -1t3.5 -5l1 -1q28 -42 55 -83l104 -158l2 -4q13 -21 30 -38q47 -46 78 -104q3 -6 7 -12q3 -4 5 -8q70 -107 120 -225q15 -38 36 -73q20 -30 54.5 -36.5t64.5 13.5q22 15 18 41q-2 12 -6 23q-7 18 7 31q23 24 18 57q-6 73 4 144q23 175 27 350v20
q-1 120 13 240q4 31 1 62q-6 50 -6 101q0 14 -1 29v12q0 25 -3 50q-15 120 2 240q2 20 1 41v12q0 21 -19 32q-8 4 -17 8q-14 5 -25 13q-26 17 -51 14t-50 -13q-28 -12 -24 -43q9 -64 6 -129v-24q-1 -73 -1 -145q0 -29 1 -58q3 -144 -8 -288q-2 -21 0 -43v-6q10 -117 7 -234
q-2 -39 4 -77q6 -37 -6 -77q-20 13 -28 30q-1 2 -3 3q-30 47 -72 84q-25 23 -41 53q-32 55 -64 111q-28 49 -56 97q-35 58 -54 123q-8 24 -18 47q-2 6 -5 11l-24 60q-37 91 -76 180q-25 53 -20 112q9 57 -45 81q-23 9 -27 31q-4 14 -5 28q-4 29 -30 33q-31 8 -62 0
q-42 -13 -38 -58q1 -6 1 -13q4 -37 5 -73v-9q-1 -63 8 -126q5 -31 3 -62q-6 -78 -4 -156v-60v-59q1 -95 -4 -190q0 -14 -2 -27q-2 -25 -2 -50q-1 -47 0 -94v-89v-37q1 -80 -3 -160q-3 -53 -5 -105l-2 -54q0 -47 34 -76q29 -25 67 -17q32 5 36 39q0 10 2 20l2 14q0 15 12 24
q25 19 25 50q1 12 3 24q3 21 4 43q2 37 3 73q0 29 2 57q2 57 6 115q7 115 8 231q0 48 8 93z" />
    <glyph glyph-name="o" unicode="o" horiz-adv-x="964" 
d="M17 802v0q1 -214 39 -425q13 -80 40 -158q33 -97 112 -159q62 -47 138 -63q29 -6 57 3q18 7 37 6q52 -4 95 27q75 48 137 112q32 31 51 69l32 64q24 45 45 91q33 73 54 149q29 109 67 216q31 86 36 178q7 114 -30 222q-37 94 -77 187q-31 75 -98 122q-78 59 -174 77
q-12 2 -25 6q-4 1 -7 2q-119 35 -243 27q-54 -2 -98 -34q-54 -43 -86 -102q-48 -95 -75 -197q-44 -162 -31 -329q2 -31 3 -62q1 -15 1 -29zM171 836v0q-13 151 3 279q8 60 30 116q6 14 12 29q14 34 27 70q9 25 26.5 41.5t37.5 31.5q5 3 9 7q5 3 9.5 2t8.5 -4q59 -41 128 -21
q50 10 101 5q60 -4 96 -55q63 -83 101 -179q4 -9 7 -17q6 -14 11 -28q13 -29 14 -61q-1 -20 -1 -41q0 -126 -20 -251q-12 -61 -37 -119q-24 -59 -42 -121q-12 -39 -26 -79q-4 -9 -7 -18q-9 -32 -26 -62q-18 -31 -28 -66q-29 -74 -92 -120q-69 -52 -155 -39q-64 13 -87 75
q-35 74 -55 153q-40 174 -43 353l-2 36q-3 49 0 83z" />
    <glyph glyph-name="p" unicode="p" horiz-adv-x="923" 
d="M23 739v0v-37v-83l-2 -70q-2 -28 -2 -55q-1 -27 0 -53q3 -52 7 -105q1 -10 1 -20q5 -113 30 -224q1 -2 1 -4q3 -7 3 -15q4 -43 27.5 -61t59.5 -24q9 -2 22 3.5t23.5 14t12.5 17.5l4 20q5 21 6.5 41.5t-7.5 42.5q-12 31 -10 66q-1 125 -16 249q-16 128 13 253q1 5 2 11
q7 42 31 78q9 15 13 32q1 2 1 4q44 125 107 241q15 31 38 55q20 19 39 38q57 55 115 108q66 51 149 62q19 2 28 -15v-1q6 -10 10 -21q19 -67 21 -137q-2 -64 -14 -127q-3 -23 -6 -45q-20 -127 -78 -241q-54 -103 -163 -140q-42 -18 -58 24q-5 13 -12 23.5t-19 17.5
q-5 3 -7 9l-4 6q-11 14 -19 15t-21 -9q-12 -8 -20 -20q-2 -2 -3 -4q-8 -11 -21 -7h-3.5h-3t-2.5 -1l-6 -10q-6 -8 -10 -17t-2 -20q2 -9 3 -19q1 -9 3 -19q10 -45 46 -71q54 -38 122 -39q102 4 191 56q73 43 113 116q17 29 33 58q66 114 88 243q7 43 15 86l8 46
q23 115 -7 229q-20 63 -66 110q-40 45 -101 48q-102 6 -201 -15q-54 -12 -101 -43q-67 -48 -115 -115q-72 -95 -112 -206q-1 -2 -1 -4q-2 -7 -5.5 -13.5t-9.5 -11.5q-1 -1 -3 -1h-3.5t-1.5 1q-2 9 -3 19q0 29 -1 59q0 59 -3 119q-5 94 -12 189q-3 40 -6 79v4q0 6 -1 11
q-4 18 -20.5 36t-32.5 21q-35 2 -60 -17.5t-28 -47.5q0 -10 -1 -20q-2 -17 -2 -33q-2 -89 -3 -177q0 -49 2 -97q3 -35 7 -70q3 -32 5 -64q12 -156 9 -312z" />
    <glyph glyph-name="q" unicode="q" horiz-adv-x="878" 
d="M447 1557v0q-87 1 -176 -38q-83 -35 -140 -106q-18 -19 -16 -44q1 -18 -8 -33q-1 -2 -1 -3q-53 -120 -70 -250q-4 -29 -7 -59q-3 -28 -7 -55q-21 -160 -22 -322q2 -122 10 -244q1 -8 1 -15q3 -36 15 -71q16 -53 34 -105q34 -105 121 -176q54 -45 120 -29q52 11 99 37
q114 61 192 165q8 12 18 22q14 18 28 2q8 -8 15 -18l16 -20q27 -33 52 -67q15 -20 35 -33q20 -12 44 -9t40 20q4 5 6 12q3 7 3.5 14.5t-3.5 13.5q-11 17 -10.5 34t7.5 35q8 29 -9 55q-10 14 -21 27q-7 8 -14 17q-28 34 -57 68q-19 20 -5 43q2 3 3 7q1 3 3 6q55 116 75 243
q23 133 44 266q16 78 5 158q-1 6 0 12q0 6 -1 12q-1 8 -2 17q-1 25 -8 49q-3 12 -6 23q-9 48 -39 87q-40 47 -70 100l-2 2q-23 37 -56 66q-97 86 -236 84zM608 541v0q-35 33 -53 69q-1 2 -2 3q-17 35 -56 49q-24 6 -47 -1t-38 -27q-4 -6 -7 -13q-3 -9 -9 -17
q-18 -20 -14.5 -39t19.5 -37q45 -57 89 -113q12 -15 24 -31q8 -10 11 -15.5t1 -11t-8 -15.5q-65 -110 -179 -170q-38 -21 -64.5 -15.5t-48.5 49.5q-64 120 -72 257q-2 164 19 326q7 56 12 113q6 63 14 126q15 122 56 239q11 37 39 65q11 10 20 21q7 10 13 21q10 18 25 33
l24 -4q31 -4 61 -9q15 -2 28 -8q21 -9 43 -18q50 -18 96 -46q70 -44 93 -124v0q6 -21 9 -42q16 -136 -10 -272q-8 -37 -17 -73q-23 -90 -36 -181q-8 -44 -35 -89z" />
    <glyph glyph-name="r" unicode="r" horiz-adv-x="773" 
d="M539 793v0q-5 12 -10 23q-8 20 -16 38q-12 28 -26 56q-11 22 -26 40q-22 27 -55 22q-57 -10 -70 -68q-5 -42 -44 -59q-9 -4 -15 -11q-4 -3 -7 -6q-27 -23 -45 -53q-8 -13 -16 -25q-20 -25 -18.5 -43.5t26.5 -45.5l2 -2q7 -8 16 -14q12 -7 25 -15q44 -30 96 -40
q47 -5 58 -48l4 -8v-1q46 -103 113 -195q22 -29 52 -49q39 -22 78 -2q13 6 17.5 19.5t-1.5 25.5q-8 14 -11.5 22.5t-3 19t2.5 30.5v2q2 17 -2 34q-5 20 -12 39q-1 1 -1 2l-8 22q-15 44 -32 86q-13 30 12 50q61 52 101 122q39 63 39 136q1 16 1 32q-1 59 3 117q7 104 -6 206
q-10 98 -79 166q-84 89 -204 76q-79 -10 -154 -39q-40 -16 -76 -40q-44 -27 -77 -65q-2 -3 -5.5 -4t-6.5 2q-2 1 -3.5 3t-1.5 5q0 52 -1 105q0 9 1 18q2 18 -1 35q-10 74 -87 68q-24 0 -37 -19q-2 -3 -3 -6q-13 -19 -17 -43q-1 -20 -3 -40q-5 -49 -4 -99q1 -59 1 -118
t1 -118v-20q2 -106 10 -211q3 -28 5 -56q20 -156 12 -313q-1 -14 0 -27v-7l2 -44q3 -48 1 -95q-1 -69 8 -137q2 -18 3 -36q3 -16 8 -33q3 -9 5 -18q4 -16 9 -33q12 -38 16 -78q4 -39 39 -50q14 -4 30 -6q4 -1 7 -1q29 -3 51.5 17t24.5 47q0 28 -1 56v6l-2 32q-2 27 -2 55
q2 133 -19 264q-3 21 -7 43q-9 52 -15 104q-2 27 -5 54q-10 78 -10 157v6q-1 31 4 61l14 66q9 45 19 90q31 145 122 264q16 25 42 38q65 27 135 34q20 2 35 -12q49 -41 53 -104q6 -108 11 -216q5 -70 -12 -138q-15 -55 -57 -105z" />
    <glyph glyph-name="s" unicode="s" horiz-adv-x="619" 
d="M242 -5q50 0 96 25q46 23 88 51q67 43 67 121l2 19l3 49q8 144 8 188q0 30 -2 61q-21 185 -88 358q-34 92 -82 178q-71 131 -122 284q-13 40 -13 82q0 57 27 89q19 22 44 24l24 1q34 0 66 -10q59 -20 74 -46q7 -13 7 -33q0 -22 -9 -54l-2 -5q-4 -12 -4 -24q0 -9 2 -17
t2 -14q0 -13 -8 -24q-4 -7 -6.5 -13.5t-5.5 -13.5t-3 -14q0 -11 7 -21q26 -38 70 -38q31 0 55 23q46 51 61 118q12 66 14 71q6 18 6 33q0 16 -9 36q-13 33 -52 61l-9 7q-85 64 -186 98q-41 18 -83 18q-38 0 -76 -15q-72 -26 -123 -82.5t-51 -135.5q0 -66 42 -172l25 -64
q22 -63 52 -123q64 -124 109 -256l9 -24q17 -44 43 -144q12 -47 26 -96t14 -101v-7q-6 -215 -13 -243l-2 -11q-1 -13 -12 -19q-42 -23 -87 -23q-48 0 -69 27q-24 30 -24 66l2 31q0 56 -43 95q-60 -22 -84 -81q-19 -46 -19 -93q0 -90 50 -131q66 -48 146 -61q2 0 3 -1
q22 -4 43 -4z" />
    <glyph glyph-name="t" unicode="t" horiz-adv-x="952" 
d="M466 -10q63 0 69 49q3 25 3 51q0 49 -6 73q-5 31 -6 63q-3 65 -12 129l-1 10q-11 98 -15 196l-4 61q2 14 2 49q3 43 3 85q0 85 -12 170q-10 59 -10 84q0 13 7 25q21 36 21 78l1 4l1 30q0 41 -6 81q-3 29 -3 58q0 38 5 77q1 4 1 9q2 19 21 22l2 1q43 9 87 9q43 0 87 -9
q20 -6 39 -6q25 0 49 9.5t48 9.5h5q41 0 79 18q31 17 31 56l-1 14q-3 25 -35 32q-6 2 -11.5 4t-12.5 2l-44 1q-34 0 -67 -4q-29 -5 -57 -5l-25 1q-43 3 -86 3t-87 -3q-26 -3 -76 -3l-60 1q-49 0 -98 -7q-35 -5 -71 -5q-27 0 -54 3q-75 9 -112 9q-11 0 -21 -5
q-34 -15 -34 -39q0 -11 8 -25q19 -33 56 -40l61 -10q72 -11 145 -11l42 1q17 0 22.5 -6t5.5 -23v-10q-5 -99 -5 -198q0 -165 5 -254q7 -102 7 -204v-26q1 -120 10 -239l5 -78q1 -15 4 -29q7 -27 10 -124v-14q0 -58 15 -114q2 -7 2 -14l-1 -17q0 -32 31 -46q21 -10 43 -10z
" />
    <glyph glyph-name="u" unicode="u" horiz-adv-x="733" 
d="M398 1q24 0 49 5q130 24 144 80q53 210 71 209l8 47q23 132 38 266q19 162 18 259l-1 48q-2 69 -2 139q0 136 4 159q6 34 6 68q0 20 -1 40l-2 31q-3 45 -11 90q-9 58 -62 57l-17 -2q-49 -5 -53 -54l-2 -49q-1 -25 -5 -50q-1 -5 -2 -11q-8 -66 -8 -180l-1 -74l1 -68v-10
q0 -14 -2 -28q-7 -46 -7 -91v-20q0 -61 -5 -112l-4 -60q-8 -127 -28 -254q-18 -117 -66 -224l-2 -5q-10 -22 -24 -43q-4 -5 -7 -11q-7 -11 -14 -11q-6 0 -12 9l-3 4q-29 43 -58 141q-34 119 -39 134q-61 176 -90 359q-11 67 -13 134q-3 116 -22 229q-10 58 -11 115
q0 27 -3 44q-4 24 -4 47q0 48 21 93q7 16 7 32q0 56 -43 60q-25 3 -48 10q-5 2 -23 2q-55 0 -62 -46l-3 -24q-5 -42 -5 -83q0 -64 9 -128l5 -42l12 -90q8 -58 18 -213q3 -46 13 -168q7 -83 10 -167q4 -99 27 -253q24 -162 83 -261q45 -76 150 -66q15 2 31 -5q20 -8 40 -8z
" />
    <glyph glyph-name="v" unicode="v" horiz-adv-x="911" 
d="M452 -42q30 0 55 23q107 92 156 298q23 99 70 284q18 67 35 135q9 42 15.5 86t17.5 85.5t18 82.5q14 78 31 155q20 87 33 175q2 12 5 23l5 34q5 57 15 114q3 15 3 38q0 64 -60 64h-11q-39 -5 -47 -34q-3 -12 -10 -21q-24 -35 -27 -77q-22 -155 -79 -405l-41 -191
q-24 -114 -45 -228q-30 -161 -73 -318l-2 -4q-13 -57 -38 -109q-2 -5 -9 -5t-7 5q-12 17 -21 35l-82 174q-47 96 -54 203q-3 80 -27 156v2q-20 58 -28 120l-1 4q-2 26 -7 53q-21 121 -51 239q-14 67 -16 69q-29 108 -34 220q-1 22 -7 43q-11 37 -48 37q-9 0 -44 -10
q-32 -6 -35 -39q-2 -20 -5 -39l-2 -18h2v-29q12 -115 39 -227q24 -89 36 -179q10 -93 39 -222q11 -45 20 -90q4 -24 10 -47q13 -56 19 -113q7 -72 32 -139q39 -140 107 -269q3 -5 5 -11q8 -17 39 -69q19 -29 48.5 -46.5t55.5 -17.5z" />
    <glyph glyph-name="w" unicode="w" horiz-adv-x="1146" 
d="M413 -44q85 0 156 301q9 42 20 87l10 45q13 -14 18 -27q7 -22 7 -33q31 -142 99 -270q24 -46 67 -74q32 -20 62 -20q15 0 45 9.5t52 59.5l33 90q17 43 17 90q1 53 10 143q6 53 9 106q1 43 15 85q6 20 10 42q27 142 46 285l1 12q4 35 10 69l1 3q28 130 38 263l3 36
q4 27 4 54q0 46 -11 91q-2 11 -2 23v20q-3 61 -61 61q-19 0 -34 -9q-28 -16 -28 -49v-22q0 -32 -5 -63l-2 -20q-10 -77 -13 -121q-8 -105 -29 -208q-23 -115 -37 -231q-22 -180 -46 -257q-33 -106 -49 -215l-1 -2q0 -7 -9 -9q-20 34 -29 74q-43 145 -60 296l-18 158
q-4 37 -22 67t-51 34h-24l-48 -1q-55 -4 -55 -59v-14q0 -85 -11 -169l-8 -68q-8 -114 -59 -311q-8 -30 -14 -58t-21 -39q-11 10 -14 25l-21 80q-23 75 -39 152q-10 50 -26 98q-27 84 -41 171q-14 63 -17 101q-2 48 -10 96l-1 6q-7 38 -8 75q-2 81 -14 161l-11 102
q-2 34 -6 67q-8 62 -8 126v19q0 18 -7 37q-14 37 -48 37q-8 0 -17 -3q-21 -8 -42 -8h-5q-41 0 -54 -39q-10 -30 -10 -116q0 -97 15 -193q2 -20 6 -40q8 -48 10 -97q2 -45 9 -90q11 -70 18 -139.5t17 -124.5q6 -35 9 -69q6 -80 22 -158q42 -266 206 -475q31 -37 74 -51
q14 -5 27 -5z" />
    <glyph glyph-name="x" unicode="x" horiz-adv-x="922" 
d="M86 -27q44 0 65 45q20 51 53 95q74 106 111 180q43 80 74 116q17 -12 24 -25t15 -23q15 -23 27 -49q40 -96 110 -174q6 -9 16 -18q43 -45 78 -97q27 -42 73 -42l17 1q58 10 58 49q0 18 -12 41q-30 69 -84 123q-23 21 -40 47q-56 85 -96 178q-35 89 -87 171q-5 8 -5 16
t5 15q38 68 88 202l10 25q34 78 58 160q24 87 68 164q10 19 17 35q49 108 126 198q29 33 52 70q15 20 15 42q0 10 -6.5 31t-48.5 28h-28q-10 2 -19 2q-43 0 -61 -46q-26 -52 -59 -96.5t-58 -91.5l-26 -49q-47 -87 -62 -121q-34 -61 -52 -129q-19 -77 -51 -150
q-14 -33 -59 -127l-14 33q-33 71 -51 138q-4 19 -11 37q-35 83 -60 169l-28 85q-38 109 -48 225q-4 32 -19 60q-4 9 -12 14q-20 12 -40 12q-16 0 -34 -7.5t-31 -21t-13 -43.5v-14q0 -22 4 -44l45 -177q11 -42 26 -82q20 -47 30 -97q14 -58 34 -115q11 -31 20.5 -61.5
t20.5 -63.5q27 -87 82 -214q6 -14 6 -27q0 -17 -8 -30.5t-14 -27.5q-50 -80 -76 -134q-42 -86 -97 -163q-65 -98 -99 -173q-5 -11 -5 -20q0 -16 18 -31q27 -23 61 -23h7z" />
    <glyph glyph-name="y" unicode="y" horiz-adv-x="845" 
d="M570 758v0q7 -3 9 -7.5t2 -9.5q-1 -15 -1 -31q1 -38 -4 -75q-8 -67 -7 -134q2 -119 -40 -231q-23 -70 -91 -99q-26 -10 -51 -21q-10 -5 -20 -9q-12 -6 -22 3q-14 13 -19 32q-6 21 -23 36q-2 2 -2.5 5.5t-0.5 7.5q0 3 -1 5v8v7v2q0 6 -2 12q-5 16 -20 27.5t-31 7.5l-16 -4
q-15 -2 -28.5 -7.5t-22.5 -19.5q-26 -8 -17 -33q15 -53 22 -108q7 -37 38 -59q53 -44 121 -55h4q13 -2 25 -4q112 -23 203 47q77 56 103 147q45 140 61 286q9 87 25 171q30 166 42 334q8 106 22 211q17 111 11 224q-5 60 -54 90q-29 18 -57.5 8.5t-40.5 -40.5
q-13 -41 -22 -83q-19 -105 -58 -203q-30 -74 -49 -151q-1 -3 -1 -6q-1 -7 -4 -13q-63 -154 -171 -282q-37 -44 -84 -79q-36 -26 -52 15q-1 0 -1 1q-3 6 -4 13q-2 11 -5 22q-20 78 -17 158q2 20 2 40v13q2 60 -9 120q-11 61 -13 124q-4 106 0 211v2q2 23 0 47q-3 61 -65 69
q-15 2 -31 4q-13 2 -25 4q-15 3 -21.5 -1.5t-9.5 -18.5q-8 -31 -16 -61q-2 -9 -4 -17q-27 -92 -13 -186q4 -17 2 -34q-5 -62 1 -124q2 -31 3 -63q7 -159 46 -313q23 -102 114 -154q69 -41 142 -10q51 22 95 56q63 53 111 120q15 19 30 39q6 8 12 17z" />
    <glyph glyph-name="z" unicode="z" horiz-adv-x="1024" 
d="M294 562v0l-12 6q-11 7 -23 12q-69 30 -133 -7q-8 -5 -15 -10q-29 -19 -60 -34q-37 -16 -44 -59q-7 -53 13 -103q19 -51 71 -66q57 -17 113 0q16 5 24 2t15 -19q41 -76 116 -118q25 -15 48 -32q101 -78 225 -103q8 -2 17 -4q27 -5 54 -9q116 -19 227 22q53 20 74 71
q7 17 4.5 28t-17.5 21q-18 13 -24 34q-25 63 -88 38q-14 -6 -26 -14q-31 -19 -68 -21q-69 -8 -139 -1q-79 9 -154 36q-16 5 -29 16q-52 51 -92 111q-10 15 -9 27t14 25q110 126 196 270q6 9 11 18q4 6 6 12q3 7 7.5 13.5t11.5 9.5q7 2 14 0t14 -5t13 -5q88 -27 180 -25
q102 12 172 86q5 6 8 14q3 6 6 11q9 14 6 26t-12 23q-19 25 -51 20q-45 -7 -85 -29q-22 -13 -46 -4q-60 19 -122 26q-15 1 -29 5q-10 4 -8 15l4 16l4 12q7 28 16 56q18 54 27 111q5 31 9 62l22 148q12 63 -8 123q-6 15 -11 30q-17 49 -42 94q-3 5 -5 9q-8 15 -18 28
q-75 106 -204 87q-8 -1 -15 -2q-14 -2 -28 -6q-59 -13 -93 -63q-26 -42 -51 -85q-10 -18 -20 -35q-29 -54 -37 -114q-5 -56 34 -96q3 -5 8.5 -8.5t11.5 -4.5q35 -6 71 -7q30 1 35 33q1 10 1 20q0 49 15 96q0 2 1 3q26 83 107 115q23 10 41 -5q61 -51 60 -130q-2 -21 -5 -41
q-4 -27 -6 -55q-13 -155 -77 -296q-9 -23 -14.5 -31.5t-12 -7t-18.5 9.5q-7 5 -18 11q-18 11 -38 20q-29 15 -61 9q-34 -9 -68 -21q-9 -3 -19 -6q-5 -3 -10 -7q-1 -1 -1 -2q-17 -14 -8 -34q14 -32 44 -49q6 -3 12 -7q54 -32 112 -58q16 -8 9 -24l-8 -18q-13 -31 -30 -59
q-26 -40 -46 -84q-15 -38 -46 -67z" />
    <glyph glyph-name="braceleft" unicode="{" 
 />
    <glyph glyph-name="bar" unicode="|" 
 />
    <glyph glyph-name="braceright" unicode="}" 
 />
    <glyph glyph-name="asciitilde" unicode="~" 
 />
    <glyph glyph-name="exclamdown" unicode="&#xa1;" horiz-adv-x="672" 
 />
    <glyph glyph-name="cent" unicode="&#xa2;" horiz-adv-x="1139" 
 />
    <glyph glyph-name="sterling" unicode="&#xa3;" 
 />
    <glyph glyph-name="currency" unicode="&#xa4;" 
 />
    <glyph glyph-name="yen" unicode="&#xa5;" horiz-adv-x="1262" 
 />
    <glyph glyph-name="brokenbar" unicode="&#xa6;" 
 />
    <glyph glyph-name="section" unicode="&#xa7;" 
 />
    <glyph glyph-name="dieresis" unicode="&#xa8;" horiz-adv-x="1024" 
 />
    <glyph glyph-name="copyright" unicode="&#xa9;" horiz-adv-x="1674" 
 />
    <glyph glyph-name="ordfeminine" unicode="&#xaa;" horiz-adv-x="648" 
 />
    <glyph glyph-name="guillemotleft" unicode="&#xab;" horiz-adv-x="944" 
 />
    <glyph glyph-name="logicalnot" unicode="&#xac;" 
 />
    <glyph glyph-name="registered" unicode="&#xae;" horiz-adv-x="1674" 
 />
    <glyph glyph-name="macron" unicode="&#xaf;" horiz-adv-x="670" 
 />
    <glyph glyph-name="degree" unicode="&#xb0;" horiz-adv-x="674" 
d="M339 1372q-86 0 -147.5 -61t-61.5 -148t61 -147t148 -60t147 60t60 147t-60.5 148t-146.5 61zM339 1442q115 0 196 -81.5t81 -196.5q0 -114 -82 -196t-197 -82q-117 0 -197 81t-80 197t81.5 197t197.5 81z" />
    <glyph glyph-name="plusminus" unicode="&#xb1;" 
 />
    <glyph glyph-name="uni00B2" unicode="&#xb2;" 
 />
    <glyph glyph-name="uni00B3" unicode="&#xb3;" 
 />
    <glyph glyph-name="acute" unicode="&#xb4;" horiz-adv-x="1024" 
d="M607 1375q35 35 55.5 47t40.5 12q33 0 53.5 -20t20.5 -51q0 -22 -15.5 -42t-46.5 -40l-330 -203h-69z" />
    <glyph glyph-name="mu" unicode="&#xb5;" horiz-adv-x="1180" 
 />
    <glyph glyph-name="paragraph" unicode="&#xb6;" horiz-adv-x="1024" 
d="M929 1435v-70h-127v-1365h-82v1365h-166v-1365h-84v738q-174 8 -275.5 102.5t-101.5 245.5q0 157 107.5 253t285.5 96h443z" />
    <glyph glyph-name="periodcentered" unicode="&#xb7;" horiz-adv-x="508" 
d="M145 740l82 84q15 14 29 14q13 0 31 -16l80 -86q12 -16 12 -29q0 -15 -14 -31l-80 -88q-20 -20 -29 -20q-16 0 -29 14l-88 101q-10 13 -10 26q0 15 16 31z" />
    <glyph glyph-name="periodcentered" unicode="&#x2219;" horiz-adv-x="508" 
d="M145 740l82 84q15 14 29 14q13 0 31 -16l80 -86q12 -16 12 -29q0 -15 -14 -31l-80 -88q-20 -20 -29 -20q-16 0 -29 14l-88 101q-10 13 -10 26q0 15 16 31z" />
    <glyph glyph-name="cedilla" unicode="&#xb8;" horiz-adv-x="1024" 
d="M360 -290q85 -52 152 -52q66 0 94.5 21.5t28.5 66.5t-49 64q-40 16 -102 16q-16 0 -34 -2l48 176h63l-37 -104q32 4 62 5q86 0 134 -40.5t48 -113.5q0 -76 -58.5 -120.5t-160.5 -44.5q-109 0 -189 32v96z" />
    <glyph glyph-name="uni00B9" unicode="&#xb9;" 
 />
    <glyph glyph-name="ordmasculine" unicode="&#xba;" horiz-adv-x="718" 
 />
    <glyph glyph-name="guillemotright" unicode="&#xbb;" horiz-adv-x="944" 
d="M115 176h-14v37l205 266l-205 266v37h14l342 -303zM428 176h-14v37l205 266l-205 266v37h14l342 -303z" />
    <glyph glyph-name="onequarter" unicode="&#xbc;" horiz-adv-x="1708" 
 />
    <glyph glyph-name="onehalf" unicode="&#xbd;" horiz-adv-x="1964" 
 />
    <glyph glyph-name="threequarters" unicode="&#xbe;" horiz-adv-x="1708" 
 />
    <glyph glyph-name="questiondown" unicode="&#xbf;" horiz-adv-x="748" 
 />
    <glyph glyph-name="Agrave" unicode="&#xc0;" horiz-adv-x="1540" 
 />
    <glyph glyph-name="Aacute" unicode="&#xc1;" horiz-adv-x="1540" 
 />
    <glyph glyph-name="Acircumflex" unicode="&#xc2;" horiz-adv-x="1540" 
 />
    <glyph glyph-name="Atilde" unicode="&#xc3;" horiz-adv-x="1540" 
 />
    <glyph glyph-name="Adieresis" unicode="&#xc4;" horiz-adv-x="1540" 
 />
    <glyph glyph-name="Aring" unicode="&#xc5;" horiz-adv-x="1540" 
 />
    <glyph glyph-name="AE" unicode="&#xc6;" horiz-adv-x="2118" 
 />
    <glyph glyph-name="Ccedilla" unicode="&#xc7;" horiz-adv-x="1399" 
 />
    <glyph glyph-name="Egrave" unicode="&#xc8;" horiz-adv-x="1151" 
 />
    <glyph glyph-name="Eacute" unicode="&#xc9;" horiz-adv-x="1151" 
 />
    <glyph glyph-name="Ecircumflex" unicode="&#xca;" horiz-adv-x="1151" 
 />
    <glyph glyph-name="Edieresis" unicode="&#xcb;" horiz-adv-x="1151" 
 />
    <glyph glyph-name="Igrave" unicode="&#xcc;" horiz-adv-x="657" 
 />
    <glyph glyph-name="Iacute" unicode="&#xcd;" horiz-adv-x="657" 
 />
    <glyph glyph-name="Icircumflex" unicode="&#xce;" horiz-adv-x="657" 
 />
    <glyph glyph-name="Idieresis" unicode="&#xcf;" horiz-adv-x="657" 
 />
    <glyph glyph-name="Eth" unicode="&#xd0;" horiz-adv-x="1518" 
 />
    <glyph glyph-name="Ntilde" unicode="&#xd1;" horiz-adv-x="1554" 
 />
    <glyph glyph-name="Ograve" unicode="&#xd2;" horiz-adv-x="1614" 
 />
    <glyph glyph-name="Oacute" unicode="&#xd3;" horiz-adv-x="1614" 
 />
    <glyph glyph-name="Ocircumflex" unicode="&#xd4;" horiz-adv-x="1614" 
 />
    <glyph glyph-name="Otilde" unicode="&#xd5;" horiz-adv-x="1614" 
 />
    <glyph glyph-name="Odieresis" unicode="&#xd6;" horiz-adv-x="1614" 
 />
    <glyph glyph-name="multiply" unicode="&#xd7;" 
d="M507 618l-247 -247l-99 99l247 247l-247 248l99 98l247 -247l248 247l98 -99l-247 -247l247 -247l-99 -99z" />
    <glyph glyph-name="Oslash" unicode="&#xd8;" horiz-adv-x="1614" 
 />
    <glyph glyph-name="Ugrave" unicode="&#xd9;" horiz-adv-x="1501" 
 />
    <glyph glyph-name="Uacute" unicode="&#xda;" horiz-adv-x="1501" 
 />
    <glyph glyph-name="Ucircumflex" unicode="&#xdb;" horiz-adv-x="1501" 
 />
    <glyph glyph-name="Udieresis" unicode="&#xdc;" horiz-adv-x="1501" 
 />
    <glyph glyph-name="Yacute" unicode="&#xdd;" horiz-adv-x="1233" 
 />
    <glyph glyph-name="Thorn" unicode="&#xde;" horiz-adv-x="1120" 
 />
    <glyph glyph-name="germandbls" unicode="&#xdf;" horiz-adv-x="1251" 
 />
    <glyph glyph-name="agrave" unicode="&#xe0;" horiz-adv-x="922" 
 />
    <glyph glyph-name="aacute" unicode="&#xe1;" horiz-adv-x="922" 
 />
    <glyph glyph-name="acircumflex" unicode="&#xe2;" horiz-adv-x="922" 
 />
    <glyph glyph-name="atilde" unicode="&#xe3;" horiz-adv-x="922" 
 />
    <glyph glyph-name="adieresis" unicode="&#xe4;" horiz-adv-x="922" 
 />
    <glyph glyph-name="aring" unicode="&#xe5;" horiz-adv-x="922" 
 />
    <glyph glyph-name="ae" unicode="&#xe6;" horiz-adv-x="1454" 
 />
    <glyph glyph-name="ccedilla" unicode="&#xe7;" horiz-adv-x="905" 
 />
    <glyph glyph-name="egrave" unicode="&#xe8;" horiz-adv-x="909" 
 />
    <glyph glyph-name="eacute" unicode="&#xe9;" horiz-adv-x="909" 
 />
    <glyph glyph-name="ecircumflex" unicode="&#xea;" horiz-adv-x="909" 
 />
    <glyph glyph-name="edieresis" unicode="&#xeb;" horiz-adv-x="909" 
 />
    <glyph glyph-name="igrave" unicode="&#xec;" horiz-adv-x="514" 
 />
    <glyph glyph-name="iacute" unicode="&#xed;" horiz-adv-x="514" 
 />
    <glyph glyph-name="icircumflex" unicode="&#xee;" horiz-adv-x="514" 
 />
    <glyph glyph-name="idieresis" unicode="&#xef;" horiz-adv-x="514" 
 />
    <glyph glyph-name="eth" unicode="&#xf0;" horiz-adv-x="1139" 
 />
    <glyph glyph-name="ntilde" unicode="&#xf1;" horiz-adv-x="1108" 
 />
    <glyph glyph-name="ograve" unicode="&#xf2;" horiz-adv-x="1010" 
 />
    <glyph glyph-name="oacute" unicode="&#xf3;" horiz-adv-x="1010" 
 />
    <glyph glyph-name="ocircumflex" unicode="&#xf4;" horiz-adv-x="1010" 
 />
    <glyph glyph-name="otilde" unicode="&#xf5;" horiz-adv-x="1010" 
 />
    <glyph glyph-name="odieresis" unicode="&#xf6;" horiz-adv-x="1010" 
 />
    <glyph glyph-name="divide" unicode="&#xf7;" 
d="M87 647v140h839l1 -1v-139h-840zM398 408l82 84q15 14 29 14q13 0 31 -16l80 -86q12 -16 12 -29q0 -15 -14 -31l-80 -88q-20 -20 -29 -20q-16 0 -29 14l-88 101q-10 13 -10 26q0 15 16 31zM398 1101l82 84q15 14 29 14q13 0 31 -16l80 -86q12 -16 12 -29q0 -15 -14 -31
l-80 -88q-20 -20 -29 -20q-16 0 -29 14l-88 101q-10 13 -10 26q0 15 16 31z" />
    <glyph glyph-name="oslash" unicode="&#xf8;" horiz-adv-x="1010" 
 />
    <glyph glyph-name="ugrave" unicode="&#xf9;" horiz-adv-x="1059" 
 />
    <glyph glyph-name="uacute" unicode="&#xfa;" horiz-adv-x="1059" 
 />
    <glyph glyph-name="ucircumflex" unicode="&#xfb;" horiz-adv-x="1059" 
 />
    <glyph glyph-name="udieresis" unicode="&#xfc;" horiz-adv-x="1059" 
 />
    <glyph glyph-name="yacute" unicode="&#xfd;" horiz-adv-x="868" 
 />
    <glyph glyph-name="thorn" unicode="&#xfe;" horiz-adv-x="1010" 
 />
    <glyph glyph-name="ydieresis" unicode="&#xff;" horiz-adv-x="868" 
 />
    </font>
</defs>
</svg>
